<svg xmlns="http://www.w3.org/2000/svg" viewBox="0 0 169.83 247.34"><defs><style>.cls-1{fill:#0b74de;}</style></defs><title>Luigi-logo_rgb</title><g id="Layer_2" data-name="Layer 2"><g id="Layer_1-2" data-name="Layer 1"><path class="cls-1" d="M20.68,236.21V195h9.07v33.85H47.87v7.33Z"/><path class="cls-1" d="M52.16,228.2V206.55h9v19a4.84,4.84,0,0,0,.82,3.05,3.17,3.17,0,0,0,2.68,1,7,7,0,0,0,3.37-.85,17.28,17.28,0,0,0,3.07-2.13V206.55h9v29.66h-9v-4.64a22.36,22.36,0,0,1-1.61,1.79,11,11,0,0,1-2.21,1.7,13.51,13.51,0,0,1-2.85,1.27,11.87,11.87,0,0,1-3.54.5,12.34,12.34,0,0,1-3.47-.47,7.11,7.11,0,0,1-2.77-1.54,7,7,0,0,1-1.81-2.7A10.7,10.7,0,0,1,52.16,228.2Z"/><path class="cls-1" d="M87.09,202.5v-7.17h9.07v7.17Zm0,33.71V206.55h9v29.66Z"/><path class="cls-1" d="M99.5,240.66A5,5,0,0,1,101,237a10.7,10.7,0,0,1,3.56-2.3,4,4,0,0,1-2-3.55,5.26,5.26,0,0,1,1.29-3.41,12.57,12.57,0,0,1,3.07-2.67,9.66,9.66,0,0,1-3.65-3.67,10,10,0,0,1-1.22-4.91,9.83,9.83,0,0,1,.88-4.14,9.41,9.41,0,0,1,2.57-3.34,12.75,12.75,0,0,1,4.17-2.24,18.2,18.2,0,0,1,5.67-.82,18,18,0,0,1,5.84.86,11.6,11.6,0,0,1,4.14,2.37,12.71,12.71,0,0,1,3.64-2.11,13.06,13.06,0,0,1,4-.95v6.7c-.53,0-1.23,0-2.1.11a16.39,16.39,0,0,0-2.93.58,7.37,7.37,0,0,1,.57,3,10.2,10.2,0,0,1-.87,4.23,9.66,9.66,0,0,1-2.54,3.37,12.23,12.23,0,0,1-4.12,2.24,17.91,17.91,0,0,1-5.63.81,20.61,20.61,0,0,1-2.42-.14c-.76-.09-1.47-.21-2.13-.35a5,5,0,0,0-.69.71,1.23,1.23,0,0,0-.26.76,1,1,0,0,0,.85,1.07,12.55,12.55,0,0,0,2.45.34l4.44.3q7.64.27,11,2.25a6.7,6.7,0,0,1,3.34,6.19,6.52,6.52,0,0,1-1.29,4,9.75,9.75,0,0,1-3.54,2.84,19.9,19.9,0,0,1-5.39,1.67,39.54,39.54,0,0,1-6.83.55,50.77,50.77,0,0,1-7.27-.44,16.53,16.53,0,0,1-4.71-1.32,6,6,0,0,1-2.55-2.12A5.26,5.26,0,0,1,99.5,240.66Zm8.34-1.63a3,3,0,0,0,1.93,2.88q1.94.93,6.48.93a16.12,16.12,0,0,0,5.6-.82c1.43-.54,2.15-1.29,2.15-2.26a2.64,2.64,0,0,0-.26-1.19,2.07,2.07,0,0,0-1.08-.88,9,9,0,0,0-2.39-.58c-1-.15-2.43-.27-4.16-.36l-4.66-.21-2-.17A3.19,3.19,0,0,0,107.84,239Zm2.5-22.21a5.69,5.69,0,0,0,1.3,3.84,4.7,4.7,0,0,0,3.79,1.53,4.61,4.61,0,0,0,3.78-1.53,5.73,5.73,0,0,0,1.29-3.84,5.43,5.43,0,0,0-1.29-3.72,5.63,5.63,0,0,0-7.59,0A5.43,5.43,0,0,0,110.34,216.82Z"/><path class="cls-1" d="M137.66,202.5v-7.17h9.07v7.17Zm.05,33.71V206.55h9v29.66Z"/><path class="cls-1" d="M116.58,166.26H53.25a13.68,13.68,0,0,1-10.76-5.18L3,111.57A13.67,13.67,0,0,1,.35,99.93L14.44,38.19a13.69,13.69,0,0,1,7.45-9.34L79,1.37a13.67,13.67,0,0,1,11.94,0L148,28.85a13.68,13.68,0,0,1,7.44,9.34l14.09,61.74a13.7,13.7,0,0,1-2.65,11.64l-39.49,49.51A13.65,13.65,0,0,1,116.58,166.26ZM81.46,6.59,24.4,34.07a7.9,7.9,0,0,0-4.31,5.4L6,101.22A7.91,7.91,0,0,0,7.54,108L47,157.47a7.92,7.92,0,0,0,6.23,3h63.33a7.92,7.92,0,0,0,6.23-3L162.3,108a7.94,7.94,0,0,0,1.54-6.74l-14.1-61.75a7.92,7.92,0,0,0-4.31-5.4L88.38,6.59a7.93,7.93,0,0,0-6.92,0Z"/><polygon class="cls-1" points="77.56 114.14 72.82 109.4 61.65 98.23 56.91 93.49 61.65 88.75 103.45 46.95 92.27 35.77 34.55 93.49 77.56 136.5 88.74 125.32 77.56 114.14"/><rect class="cls-1" x="63.31" y="70.27" width="59.12" height="15.81" transform="translate(-28.08 88.57) rotate(-45)"/><rect class="cls-1" x="79.23" y="86.19" width="59.12" height="15.81" transform="translate(-34.67 104.48) rotate(-45)"/></g></g></svg>