<?xml version="1.0" encoding="utf-8"?>
<svg id="master-artboard" viewBox="0 0 232.38418579101562 227.4020538330078" xmlns="http://www.w3.org/2000/svg" width="232.38418579101562px" height="227.4020538330078px" version="1.1" style="shape-rendering:geometricPrecision; text-rendering:geometricPrecision; image-rendering:optimizeQuality; fill-rule:evenodd; clip-rule:evenodd" xmlns:xlink="http://www.w3.org/1999/xlink"><rect id="ee-background" x="0" y="0" width="232.38418579101562" height="227.4020538330078" style="fill: white; fill-opacity: 0; pointer-events: none;"/><defs><path id="a" d="M6.697 21H0V.283h6.697V21z"/><path id="c" d="M.236 21h6.707V.283H.236V21z"/></defs><g transform="matrix(8.695652173913043, 0, 0, 8.695652173913043, 0.000009231296644429676, 398.69565217391306)"><g fill="none" fill-rule="evenodd" transform="matrix(1.002599041612312, 0, 0, 1.002599041612312, 0, -0.0276590003468347)"><mask id="b" fill="#fff"><use xlink:href="#a"/></mask><path d="M2.458 10.697c0-3.637.76-6.52 1.168-7.805l3.07-.148V.284l-4.803.23-.295.727C1.532 1.41 0 5.25 0 10.7c0 5.448 1.532 9.294 1.598 9.456l.305.752L6.697 21v-2.46l-3.08-.062c-.41-1.29-1.16-4.147-1.16-7.78" fill="#FDB813" mask="url(#b)" transform="matrix(1, 0, 0, 1, 3.747201022064452, -43.30099056406783)"/><path d="M11.192 11.057c.935-2.184 1.684-4.56 1.808-4.96l-2.44-.084c-.24.723-.634 1.876-1.1 3.057C9.003 7.874 8.63 6.707 8.414 6L6 6.122c.15.524.83 2.85 1.74 4.972C8.34 12.498 9.09 14 9.61 15l2.642-.055c-.02-.037-.737-1.36-1.493-2.92.14-.32.29-.64.43-.968z" fill="#FDB813" transform="matrix(1, 0, 0, 1, 3.747201022064452, -43.30099056406783)"/><g transform="matrix(1, 0, 0, 1, 15.747201439296965, -43.30099056406783)"><mask id="d" fill="#fff"><use xlink:href="#c"/></mask><path d="M5.345 1.24L5.05.514.237.284v2.46l3.082.15c.4 1.283 1.16 4.166 1.16 7.803 0 3.613-.75 6.484-1.16 7.782l-3.09.06V21l4.8-.095.3-.752c.06-.162 1.59-4.008 1.59-9.456 0-5.452-1.53-9.295-1.6-9.456" fill="#FDB813" mask="url(#d)"/></g></g></g></svg>