<svg xmlns="http://www.w3.org/2000/svg" width="147" height="59" viewBox="0 0 147 59">
    <g fill="#FFF" fill-rule="nonzero">
        <path d="M71.245 43.134v-24.98h5.449v20.519h10.884v4.443zM90.155 38.279V25.155h5.407v11.517a2.954 2.954 0 0 0 .492 1.85c.41.448 1.009.673 1.61.605a4.175 4.175 0 0 0 2.025-.515c.659-.362 1.277-.795 1.844-1.291V25.155h5.406v17.98h-5.406V40.32c-.303.38-.626.742-.967 1.086a6.615 6.615 0 0 1-1.328 1.03 8.08 8.08 0 0 1-1.712.77 7.07 7.07 0 0 1-2.126.303 7.35 7.35 0 0 1-2.085-.285 4.26 4.26 0 0 1-1.664-.933 4.246 4.246 0 0 1-1.087-1.637 6.539 6.539 0 0 1-.409-2.376zM111.138 22.7v-4.346h5.448V22.7h-5.448zm0 20.434V25.155h5.406v17.98h-5.406zM118.593 45.832a3.045 3.045 0 0 1 .9-2.219 6.421 6.421 0 0 1 2.14-1.394 2.43 2.43 0 0 1-1.202-2.152c.006-.76.28-1.493.775-2.067a7.571 7.571 0 0 1 1.844-1.619 5.83 5.83 0 0 1-2.193-2.224 6.106 6.106 0 0 1-.733-2.977 6.005 6.005 0 0 1 .529-2.51 5.698 5.698 0 0 1 1.544-2.024 7.637 7.637 0 0 1 2.505-1.358 10.841 10.841 0 0 1 3.406-.497c1.19-.022 2.375.154 3.508.522.918.3 1.765.789 2.487 1.436a7.619 7.619 0 0 1 2.186-1.279 7.787 7.787 0 0 1 2.403-.576v4.062c-.318 0-.739 0-1.262.066a9.767 9.767 0 0 0-1.76.352c.24.575.356 1.195.343 1.819a6.231 6.231 0 0 1-.523 2.564 5.851 5.851 0 0 1-1.526 2.042c-.73.61-1.57 1.071-2.474 1.358-1.095.345-2.236.51-3.382.491-.486 0-.972-.028-1.454-.085a14.108 14.108 0 0 1-1.28-.212c-.151.13-.29.274-.414.43a.75.75 0 0 0-.156.461.605.605 0 0 0 .51.649c.483.117.976.186 1.472.206l2.667.182c3.06.109 5.262.564 6.608 1.364a4.07 4.07 0 0 1 2.006 3.752 3.977 3.977 0 0 1-.775 2.425 5.867 5.867 0 0 1-2.126 1.721c-1.026.491-2.116.832-3.238 1.012-1.355.231-2.728.343-4.103.334-1.46.017-2.92-.073-4.367-.267a9.86 9.86 0 0 1-2.83-.8 3.612 3.612 0 0 1-1.53-1.285 3.21 3.21 0 0 1-.505-1.703zm5.01-.989c-.02.772.444 1.471 1.159 1.746.777.376 2.074.564 3.892.564a9.603 9.603 0 0 0 3.364-.497c.86-.327 1.292-.782 1.292-1.37.004-.25-.05-.496-.157-.721a1.246 1.246 0 0 0-.648-.534 5.366 5.366 0 0 0-1.436-.351c-.6-.091-1.46-.164-2.499-.219l-2.8-.127-1.2-.103c-.573.329-.938.93-.968 1.594v.018zm1.501-13.463a3.47 3.47 0 0 0 .781 2.328 2.81 2.81 0 0 0 2.277.928 2.757 2.757 0 0 0 2.27-.928c.53-.655.806-1.482.775-2.328a3.31 3.31 0 0 0-.775-2.254 3.36 3.36 0 0 0-4.559 0 3.31 3.31 0 0 0-.769 2.254zM141.515 22.7v-4.346h5.449V22.7h-5.449zm.03 20.434V25.155h5.407v17.98h-5.407z"/>
        <g>
            <path d="M41.195 58.79H18.817a4.833 4.833 0 0 1-3.802-1.831L1.061 39.452a4.836 4.836 0 0 1-.936-4.116l4.979-21.831a4.84 4.84 0 0 1 2.632-3.303L27.916.485a4.827 4.827 0 0 1 4.22 0l20.162 9.717a4.837 4.837 0 0 1 2.629 3.303l4.978 21.831a4.847 4.847 0 0 1-.936 4.116L45.015 56.959a4.823 4.823 0 0 1-3.82 1.831zM28.785 2.331L8.624 12.048a2.793 2.793 0 0 0-1.523 1.91L2.122 35.791c-.199.84.002 1.725.544 2.398l13.943 17.492a2.798 2.798 0 0 0 2.201 1.06h22.378a2.798 2.798 0 0 0 2.202-1.06L57.35 38.19a2.81 2.81 0 0 0 .545-2.384l-4.983-21.834a2.8 2.8 0 0 0-1.523-1.91l-20.158-9.73a2.8 2.8 0 0 0-2.445 0z"/>
            <path d="M27.407 40.36l-1.674-1.675-3.947-3.95-1.675-1.676 1.675-1.676 14.77-14.78-3.95-3.954L12.21 33.06l15.197 15.208 3.95-3.953z"/>
            <path d="M23.455 33.06l14.772-14.783 3.95 3.953-14.771 14.782zM29.082 38.685l14.772-14.782 3.95 3.953-14.772 14.782z"/>
        </g>
    </g>
</svg>
