<?xml version="1.0" encoding="utf-8"?>
<!-- Generator: Adobe Illustrator 23.0.1, SVG Export Plug-In . SVG Version: 6.00 Build 0)  -->
<svg version="1.1" id="Ebene_1" xmlns="http://www.w3.org/2000/svg" xmlns:xlink="http://www.w3.org/1999/xlink" x="0px" y="0px"
	 viewBox="0 0 270.6 71.1" style="enable-background:new 0 0 270.6 71.1;" xml:space="preserve" width="300" height="79">
<g>
	<path d="M27.7,32c0,3.1,3.2,4.7,6.3,4.7c3.3,0,5.8-2.8,5.8-6.4c0-6.2-6.8-10.9-15.7-10.9c-9.2,0-18.8,6.7-18.8,18
		c0,11.7,6.3,18.1,17.9,18.1c10,0,15.7-5.2,16.4-15c0-0.1,0-0.3-0.1-0.4c-0.1-0.1-0.2-0.2-0.4-0.2h-5.8c-0.3,0-0.5,0.2-0.5,0.5
		c-0.5,5-3.5,8.2-7.5,8.2c-8.1,0-9-8.2-9-11.7c0-2.7,0.7-11.7,9.3-11.7c2.6,0,4.6,0.6,6,1.8C29,27.6,27.7,29.2,27.7,32z"/>
	<path d="M61.2,19.5c-11.8,0-19.5,7.1-19.5,18c0,11,7.7,18,19.5,18s19.5-7.1,19.5-18C80.7,26.6,73,19.5,61.2,19.5z M61.2,49.9
		c-5.7,0-8.6-4.2-8.6-12.4s2.9-12.4,8.6-12.4s8.6,4.2,8.6,12.4C69.7,45.8,66.9,49.9,61.2,49.9z"/>
	<path d="M86.3,44.1c-3.4,0-6,2.5-6,5.7c0,3.3,2.6,5.7,6,5.7c3.4,0,6-2.5,6-5.7C92.3,46.6,89.7,44.1,86.3,44.1z"/>
	<path d="M113.6,19.5c-3.5,0-6.9,1.7-9.5,4.6V7.4c0-0.3-0.2-0.5-0.5-0.5H89.1c-0.3,0-0.5,0.2-0.5,0.5V12c0,0.3,0.2,0.5,0.5,0.5H92
		c1.8,0,2.4,0.6,2.4,2.3V54c0,0.3,0.2,0.5,0.5,0.5h4.7c0.2,0,0.3-0.1,0.4-0.2l2.4-3.3c3.2,3.3,6.2,4.6,11,4.6
		c10.2,0,15.9-6.7,15.9-18.9C129.2,28.8,125.1,19.5,113.6,19.5z M118.3,37.6c0,7.6-2.4,11.5-7.1,11.5c-5.4,0-7.1-2.8-7.1-11.5
		c0-7.6,2.4-11.5,7.1-11.5C116.5,26,118.3,28.8,118.3,37.6z"/>
	<path d="M172.8,17.2c3.2,0,5.8-2.5,5.8-5.6c0-3.1-2.6-5.6-5.8-5.6c-3.2,0-5.8,2.5-5.8,5.6C166.9,14.7,169.5,17.2,172.8,17.2z"/>
	<path d="M184.7,48.9H181c-1.8,0-2.4-0.6-2.4-2.3V21.1c0-0.3-0.2-0.5-0.5-0.5H163c-0.3,0-0.5,0.2-0.5,0.5v2
		c-1.8-2.5-4.9-3.6-8.1-3.6c-3.8,0-6.2,1.9-8.9,5.5v-3.9c0-0.3-0.2-0.5-0.5-0.5h-15.7c-0.3,0-0.5,0.2-0.5,0.5v4.6
		c0,0.3,0.2,0.5,0.5,0.5h4.1c1.8,0,2.4,0.6,2.4,2.3v18c0,1.7-0.6,2.3-2.4,2.3h-4.1c-0.3,0-0.5,0.2-0.5,0.5V54c0,0.3,0.2,0.5,0.5,0.5
		h23.3c0.3,0,0.5-0.2,0.5-0.5v-4.6c0-0.3-0.2-0.5-0.5-0.5h-4.7c-1.8,0-2.4-0.6-2.4-2.3V34.8c0-5,3-10.3,8.6-10.3c0.5,0,1,0,1.5,0.2
		c-2.3,0.6-3.8,2.3-3.8,4.5c0,3,2.4,5,5.8,5c3.6,0,6.1-2.6,6.1-6.4c0-0.5-0.1-1-0.1-1.5h2.6c1.8,0,2.4,0.6,2.4,2.3v18
		c0,1.7-0.6,2.3-2.4,2.3H163c-0.3,0-0.5,0.2-0.5,0.5V54c0,0.3,0.2,0.5,0.5,0.5h21.6c0.3,0,0.5-0.2,0.5-0.5v-4.6
		C185.2,49.1,184.9,48.9,184.7,48.9z"/>
	<path d="M219,40.2c-0.1-0.1-0.2-0.2-0.4-0.2h-5.8c-0.3,0-0.5,0.2-0.5,0.5c-0.5,5-3.5,8.2-7.5,8.2c-8.1,0-9-8.2-9-11.7
		c0-2.7,0.7-11.7,9.3-11.7c2.6,0,4.6,0.6,6,1.8c-2.5,0.5-3.8,2.2-3.8,5c0,3.1,3.2,4.7,6.3,4.7c3.3,0,5.8-2.8,5.8-6.4
		c0-6.2-6.8-10.9-15.7-10.9c-9.2,0-18.8,6.7-18.8,18c0,11.7,6.3,18.1,17.9,18.1c10,0,15.7-5.2,16.4-15
		C219.1,40.4,219.1,40.3,219,40.2z"/>
	<path d="M265.8,48.9c-3.5,0-5.8-0.8-7.1-2.5L249.2,34l7.6-5.7c1.8-1.4,4-2.1,6.5-2.1c0.3,0,0.5-0.2,0.5-0.5v-4.6
		c0-0.3-0.2-0.5-0.5-0.5h-21.9c-0.3,0-0.5,0.2-0.5,0.5v4.6c0,0.3,0.2,0.5,0.5,0.5h4.9c0.6,0,1.1,0.2,1.1,0.3c0,0.3-0.1,0.6-0.8,1.2
		l-10.9,8.4V7.4c0-0.3-0.2-0.5-0.5-0.5h-15.7c-0.3,0-0.5,0.2-0.5,0.5V12c0,0.3,0.2,0.5,0.5,0.5h4c1.8,0,2.4,0.6,2.4,2.3v31.7
		c0,1.7-0.6,2.3-2.4,2.3h-4c-0.3,0-0.5,0.2-0.5,0.5V54c0,0.3,0.2,0.5,0.5,0.5h21c0.3,0,0.5-0.2,0.5-0.5v-4.6c0-0.3-0.2-0.5-0.5-0.5
		h-2.4c-1.8,0-2.4-0.6-2.4-2.3v-2.3l6.2-4.6l5.4,7.2c0.5,0.7,0.7,1,0.7,1.4c0,0.3,0,0.5-0.7,0.5H244c-0.3,0-0.5,0.2-0.5,0.5V54
		c0,0.3,0.2,0.5,0.5,0.5h21.9c0.3,0,0.5-0.2,0.5-0.5v-4.6C266.3,49.1,266.1,48.9,265.8,48.9z"/>
</g>
</svg>
