<svg width="100" height="36" xmlns="http://www.w3.org/2000/svg"><g fill="#828893" fill-rule="nonzero"><path d="M42.948 25.35V9.792h3.419v6.454l5.218-6.433h3.993l-5.267 6.057 5.834 9.478h-3.872l-4.176-6.893-1.73 1.919v4.974z"/><path d="M55.882 29.238l.692-2.606c.16.041.426.1.803.18.437.084.88.123 1.325.117.31.014.617-.063.883-.221a1.51 1.51 0 0 0 .543-.754l.215-.543-4.288-11.265h3.492l2.463 7.259h.042l2.474-7.26h3.294l-4.71 12.383c-.175.45-.388.885-.636 1.3-.223.366-.5.696-.823.978-.324.278-.699.49-1.104.622a4.703 4.703 0 0 1-1.47.208 11.43 11.43 0 0 1-2.011-.138c-.495-.09-.89-.18-1.184-.26zM69.716 25.35V14.145h3.391v1.756a5.47 5.47 0 0 1 .595-.692c.25-.24.526-.453.82-.636a4.77 4.77 0 0 1 1.021-.477c.396-.13.811-.195 1.229-.19.94 0 1.651.176 2.131.529.488.355.829.877.959 1.466.173-.204.373-.426.609-.664.253-.25.537-.469.844-.65.326-.2.674-.36 1.038-.477a4.205 4.205 0 0 1 2.685.062 2.703 2.703 0 0 1 1.637 1.794c.132.45.196.915.19 1.383v8h-3.387v-7.115c.025-.4-.06-.799-.243-1.155-.159-.259-.484-.39-.975-.39a2.192 2.192 0 0 0-1.156.321c-.387.233-.75.501-1.087.802v7.536h-3.39v-7.114c.023-.4-.059-.798-.24-1.155-.162-.259-.487-.39-.982-.39a2.23 2.23 0 0 0-1.17.321c-.389.234-.756.502-1.097.802v7.536h-3.422zM89.211 22.487a3.408 3.408 0 0 1 1.706-3.021c1.135-.729 2.935-1.19 5.401-1.383v-.27a1.382 1.382 0 0 0-.346-.985c-.319-.28-.74-.415-1.162-.373a5.053 5.053 0 0 0-1.99.387 7.109 7.109 0 0 0-1.689 1.006l-1.435-1.946c.304-.262.625-.504.961-.723.383-.25.789-.465 1.212-.64.492-.2 1.003-.35 1.525-.449a9.677 9.677 0 0 1 1.9-.17c1.539 0 2.646.372 3.322 1.114.676.742 1.011 1.838 1.007 3.287v4.3c-.006.554.019 1.106.073 1.657.033.366.115.727.245 1.071h-3.367a8.482 8.482 0 0 1-.18-.76 4.624 4.624 0 0 1-.076-.882 5.515 5.515 0 0 1-1.709 1.345 4.928 4.928 0 0 1-2.194.46 3.827 3.827 0 0 1-1.239-.197 3.056 3.056 0 0 1-1.02-.588 2.652 2.652 0 0 1-.692-.954 3.109 3.109 0 0 1-.253-1.286zm3.308-.584a.957.957 0 0 0 .346.809c.26.188.578.282.9.266a3.733 3.733 0 0 0 1.515-.277c.388-.161.74-.396 1.038-.691v-2.074c-1.342.138-2.311.369-2.906.691-.595.323-.893.748-.893 1.276zM24.941 35.042h-13.36a2.894 2.894 0 0 1-2.27-1.089L.98 23.507a2.888 2.888 0 0 1-.56-2.455L3.394 8.037A2.877 2.877 0 0 1 4.965 6.07L17 .29a2.885 2.885 0 0 1 2.522 0l12.039 5.79a2.897 2.897 0 0 1 1.57 1.968l2.973 13.015a2.888 2.888 0 0 1-.56 2.454L27.21 33.953a2.894 2.894 0 0 1-2.27 1.09zm-7.408-33.66L5.495 7.18a1.677 1.677 0 0 0-.91 1.14L1.612 21.333a1.668 1.668 0 0 0 .326 1.421l8.328 10.433c.318.402.803.635 1.315.633h13.36c.513.002.998-.231 1.315-.633l8.346-10.433c.32-.399.438-.923.322-1.42L31.938 8.32c-.113-.5-.449-.92-.91-1.141L18.99 1.383a1.659 1.659 0 0 0-1.457 0z"/><path d="M8.336 13.53v7.436a3.577 3.577 0 0 1 1.619-.39h1.592a9.307 9.307 0 0 0 5.927-1.94 45.992 45.992 0 0 1-1.26-1.165c-2.027-1.94-4.162-3.775-7.878-3.94z"/><path d="M28.187 13.596c-3.654.18-5.578 1.998-7.613 3.92-2.204 2.098-4.494 4.262-9.027 4.262H9.955a1.622 1.622 0 0 0-1.606 1.604v2.036h19.838V13.596zM17.872 12.853c-1.692-1.618-3.388-3.233-6.775-3.233v3.212a10.706 10.706 0 0 1 3.917 2.095 10.339 10.339 0 0 0 2.858-2.074z"/><path d="M24.893 10.18c-2.813.16-4.298 1.573-5.862 3.074a14.16 14.16 0 0 1-3.114 2.444c.346.325.71.656 1.055.988.443.422.9.85 1.367 1.259.481-.419.948-.858 1.422-1.304 1.464-1.382 2.976-2.8 5.139-3.598l-.007-2.863z"/></g></svg>