<svg width="659" height="153" viewBox="0 0 659 153" fill="none" xmlns="http://www.w3.org/2000/svg">
<path d="M1.63019 124.118C1.63019 124.118 -16.7864 42.9715 70.1817 0.744865L80.7776 41.5182C80.7776 41.5182 15.3828 58.4515 1.63019 124.118Z" fill="#BDD4E2"/>
<path d="M150.373 122.412L109.606 111.812C109.606 111.812 126.649 46.4383 76.0234 2.4516C76.0234 2.4516 155.843 25.8916 150.373 122.412Z" fill="#3B7EC8"/>
<path d="M74.8578 152.518C54.2464 152.518 30.1724 146.532 4.12341 128.758L34.2469 99.3183C34.2469 99.3183 66.2754 132.105 113.246 132.105C123.288 132.105 134.007 130.625 145.251 126.998C145.251 126.998 117.427 152.518 74.8578 152.518Z" fill="#82AFE2"/>
<path d="M203.379 40.0783C205.813 39.4517 209.024 38.8117 213.009 38.145C216.989 37.4517 221.603 37.105 226.856 37.105C230.648 37.105 233.836 37.6116 236.42 38.6516C238.999 39.665 241.169 41.1717 242.917 43.145C243.447 42.7717 244.287 42.2383 245.421 41.5583C246.552 40.8783 247.965 40.2116 249.639 39.5583C251.299 38.9183 253.168 38.345 255.205 37.8384C257.265 37.3584 259.472 37.105 261.824 37.105C266.405 37.105 270.096 37.7717 272.989 39.105C275.879 40.4384 278.141 42.3184 279.777 44.7317C281.403 47.1717 282.513 50.0651 283.08 53.3984C283.652 56.7584 283.924 60.385 283.924 64.345V97.5984H273.332V66.625C273.332 63.1316 273.167 60.1316 272.821 57.625C272.491 55.105 271.84 53.025 270.885 51.3583C269.935 49.6916 268.64 48.4516 267.007 47.6516C265.381 46.8516 263.269 46.4516 260.697 46.4516C257.117 46.4516 254.176 46.9183 251.856 47.8783C249.544 48.825 247.965 49.6917 247.125 50.4384C247.745 52.425 248.193 54.585 248.496 56.945C248.805 59.2917 248.967 61.7717 248.967 64.345V97.5984H238.355V66.625C238.355 63.1316 238.175 60.1316 237.785 57.625C237.404 55.105 236.737 53.025 235.807 51.3583C234.845 49.6916 233.541 48.4516 231.928 47.6516C230.279 46.8516 228.221 46.4516 225.721 46.4516C224.649 46.4516 223.511 46.4916 222.297 46.5583C221.077 46.6383 219.915 46.745 218.815 46.8516C217.724 46.9583 216.711 47.105 215.788 47.2516C214.885 47.4116 214.277 47.5183 213.975 47.585V97.5984H203.379V40.0783Z" fill="#3B7EC8"/>
<path d="M339.268 62.2915C339.336 57.5048 338.145 53.5582 335.683 50.5049C333.207 47.4249 329.807 45.8782 325.476 45.8782C323.045 45.8782 320.911 46.3582 319.049 47.3049C317.176 48.2649 315.603 49.4916 314.307 50.9982C313.023 52.5316 312.013 54.2915 311.299 56.2515C310.565 58.2382 310.093 60.2381 309.871 62.2915H339.268ZM298.599 68.1049C298.599 62.8649 299.344 58.2782 300.872 54.3716C302.388 50.4649 304.409 47.2115 306.915 44.6248C309.415 42.0515 312.296 40.1182 315.575 38.8115C318.829 37.5449 322.187 36.8915 325.587 36.8915C333.571 36.8915 339.68 39.3716 343.944 44.3316C348.196 49.3182 350.324 56.9182 350.324 67.0782C350.324 67.5315 350.324 68.1182 350.324 68.8382C350.324 69.5716 350.277 70.2381 350.201 70.8248H309.643C310.093 76.9981 311.888 81.6515 315.001 84.8515C318.107 88.0382 322.98 89.6382 329.583 89.6382C333.312 89.6382 336.437 89.3182 338.981 88.6649C341.525 88.0249 343.441 87.3982 344.736 86.7716L346.221 95.6649C344.929 96.3583 342.672 97.0648 339.433 97.8248C336.203 98.5848 332.547 98.9716 328.44 98.9716C323.273 98.9716 318.815 98.1849 315.052 96.6382C311.299 95.0649 308.201 92.9316 305.78 90.1982C303.337 87.4649 301.539 84.2116 300.361 80.4649C299.188 76.7049 298.599 72.5849 298.599 68.1049Z" fill="#3B7EC8"/>
<path d="M405.167 50.8915C403.875 49.8382 402.009 48.8115 399.583 47.8248C397.157 46.8248 394.495 46.3449 391.605 46.3449C388.567 46.3449 385.972 46.8916 383.8 47.9983C381.641 49.1049 379.875 50.6248 378.504 52.5581C377.147 54.4915 376.16 56.7849 375.548 59.4382C374.932 62.1049 374.633 64.9582 374.633 67.9848C374.633 74.8915 376.333 80.2248 379.757 83.9848C383.184 87.7448 387.733 89.6382 393.431 89.6382C396.316 89.6382 398.728 89.4916 400.667 89.2382C402.599 88.9582 404.099 88.6782 405.167 88.3848V50.8915ZM405.167 11.0248L415.775 9.19826V95.9049C413.34 96.5849 410.215 97.2649 406.425 97.9449C402.621 98.6382 398.252 98.9716 393.325 98.9716C388.755 98.9716 384.648 98.2649 381.009 96.8115C377.373 95.3715 374.24 93.3182 371.676 90.6382C369.085 88.0116 367.079 84.7583 365.693 80.9316C364.285 77.0916 363.573 72.7715 363.573 67.9848C363.573 63.4248 364.163 59.2515 365.348 55.4515C366.529 51.6648 368.253 48.3982 370.527 45.6515C372.812 42.9182 375.599 40.7982 378.904 39.2782C382.203 37.7582 385.992 36.9983 390.243 36.9983C393.667 36.9983 396.681 37.4515 399.296 38.3582C401.919 39.2781 403.875 40.1448 405.167 40.9848V11.0248Z" fill="#4C525A"/>
<path d="M445.045 97.5984H434.437V38.3583H445.045V97.5984ZM439.687 27.6516C437.783 27.6516 436.165 27.025 434.843 25.785C433.519 24.5183 432.843 22.8383 432.843 20.7183C432.843 18.585 433.519 16.8917 434.843 15.6384C436.165 14.3717 437.783 13.7583 439.687 13.7583C441.583 13.7583 443.192 14.3717 444.523 15.6384C445.849 16.8917 446.521 18.585 446.521 20.7183C446.521 22.8383 445.849 24.5183 444.523 25.785C443.192 27.025 441.583 27.6516 439.687 27.6516Z" fill="#4C525A"/>
<path d="M485.601 37.105C486.512 37.105 487.552 37.1716 488.733 37.2916C489.903 37.3983 491.069 37.5583 492.204 37.7183C493.347 37.9316 494.392 38.1183 495.341 38.3183C496.303 38.4916 496.987 38.6783 497.437 38.8117L495.632 48.0516C494.787 47.745 493.405 47.385 491.461 46.9583C489.531 46.5583 487.037 46.345 484.004 46.345C482.024 46.345 480.077 46.5583 478.149 46.9583C476.187 47.385 474.927 47.665 474.325 47.825V97.5984H463.721V40.8783C466.227 39.9583 469.343 39.105 473.068 38.3183C476.776 37.5183 480.964 37.105 485.601 37.105Z" fill="#4C525A"/>
<path d="M543.807 62.2915C543.891 57.5048 542.704 53.5582 540.235 50.5049C537.757 47.4249 534.361 45.8782 530.035 45.8782C527.597 45.8782 525.451 46.3582 523.592 47.3049C521.731 48.2649 520.157 49.4916 518.869 50.9982C517.565 52.5316 516.557 54.2915 515.845 56.2515C515.124 58.2382 514.645 60.2381 514.421 62.2915H543.807ZM503.139 68.1049C503.139 62.8649 503.9 58.2782 505.431 54.3716C506.947 50.4649 508.953 47.2115 511.457 44.6248C513.953 42.0515 516.848 40.1182 520.119 38.8115C523.377 37.5449 526.721 36.8915 530.149 36.8915C538.116 36.8915 544.235 39.3716 548.491 44.3316C552.751 49.3182 554.879 56.9182 554.879 67.0782C554.879 67.5315 554.879 68.1182 554.879 68.8382C554.879 69.5716 554.816 70.2381 554.753 70.8248H514.197C514.645 76.9981 516.432 81.6515 519.549 84.8515C522.659 88.0382 527.519 89.6382 534.125 89.6382C537.843 89.6382 540.985 89.3182 543.528 88.6649C546.072 88.0249 547.985 87.3982 549.285 86.7716L550.764 95.6649C549.464 96.3583 547.219 97.0648 543.992 97.8248C540.761 98.5848 537.085 98.9716 532.984 98.9716C527.825 98.9716 523.373 98.1849 519.608 96.6382C515.845 95.0649 512.753 92.9316 510.319 90.1982C507.893 87.4649 506.091 84.2116 504.904 80.4649C503.731 76.7049 503.139 72.5849 503.139 68.1049Z" fill="#4C525A"/>
<path d="M596.337 98.9716C591.552 98.9716 587.353 98.2115 583.747 96.6915C580.143 95.1715 577.1 93.0516 574.625 90.3316C572.165 87.5849 570.32 84.3315 569.103 80.5848C567.893 76.8115 567.288 72.6649 567.288 68.1049C567.288 63.5449 567.953 59.3581 569.284 55.5581C570.611 51.7715 572.495 48.4915 574.917 45.7182C577.355 42.9448 580.331 40.7715 583.86 39.2248C587.397 37.6648 591.332 36.8915 595.659 36.8915C598.32 36.8915 600.969 37.1048 603.627 37.5581C606.289 38.0248 608.833 38.7449 611.264 39.7316L608.885 48.7316C607.267 47.9716 605.437 47.3449 603.341 46.9049C601.264 46.4516 599.039 46.2248 596.676 46.2248C590.759 46.2248 586.216 48.0782 583.064 51.8115C579.907 55.5315 578.337 60.9716 578.337 68.1049C578.337 71.2916 578.705 74.2115 579.424 76.8782C580.143 79.5449 581.288 81.8115 582.84 83.7182C584.387 85.6115 586.385 87.0649 588.811 88.0782C591.253 89.1315 594.213 89.6382 597.707 89.6382C600.521 89.6382 603.059 89.3716 605.34 88.8382C607.617 88.3049 609.387 87.7316 610.695 87.1316L612.175 96.0115C611.565 96.3849 610.695 96.7582 609.552 97.1049C608.425 97.4382 607.121 97.7316 605.688 97.9983C604.236 98.2649 602.701 98.4915 601.056 98.6915C599.431 98.8915 597.864 98.9716 596.337 98.9716Z" fill="#4C525A"/>
<path d="M633.936 38.3582H656.385V47.2516H633.936V74.5983C633.936 77.5583 634.156 80.0116 634.623 81.9449C635.071 83.8916 635.773 85.4116 636.673 86.505C637.591 87.5983 638.715 88.385 640.08 88.8383C641.451 89.2916 643.036 89.5317 644.869 89.5317C648.063 89.5317 650.619 89.1582 652.561 88.4249C654.501 87.7182 655.855 87.2116 656.613 86.905L658.667 95.665C657.583 96.2117 655.725 96.8649 653.075 97.6783C650.413 98.4649 647.387 98.865 643.967 98.865C639.939 98.865 636.617 98.3582 633.995 97.3182C631.368 96.2916 629.264 94.7583 627.675 92.705C626.084 90.6383 624.957 88.145 624.309 85.1317C623.667 82.1183 623.34 78.6516 623.34 74.705V21.8383L633.936 20.0249V38.3582Z" fill="#4C525A"/>
<path d="M447.159 128.585V138.212C447.453 138.265 447.787 138.292 448.189 138.318C448.532 138.345 448.932 138.345 449.392 138.372C449.847 138.385 450.393 138.385 450.993 138.385C452.132 138.385 453.208 138.318 454.225 138.172C455.241 138.025 456.132 137.772 456.895 137.398C457.656 137.025 458.272 136.518 458.72 135.865C459.187 135.198 459.423 134.358 459.423 133.358C459.423 132.465 459.245 131.705 458.9 131.092C458.559 130.478 458.072 129.972 457.42 129.598C456.777 129.238 456.004 128.985 455.104 128.812C454.205 128.652 453.216 128.585 452.105 128.585H447.159ZM447.159 125.492H451.201C452.136 125.492 453.039 125.425 453.875 125.292C454.731 125.158 455.453 124.918 456.077 124.585C456.689 124.238 457.188 123.798 457.537 123.238C457.888 122.692 458.072 121.972 458.072 121.132C458.072 120.345 457.888 119.678 457.517 119.145C457.145 118.598 456.643 118.172 456.004 117.838C455.347 117.505 454.597 117.265 453.719 117.105C452.855 116.945 451.928 116.865 450.957 116.865C449.984 116.865 449.22 116.892 448.661 116.905C448.108 116.932 447.597 116.958 447.159 117.038V125.492ZM450.749 141.598C450.2 141.598 449.608 141.585 448.963 141.545C448.316 141.532 447.665 141.492 447.02 141.425C446.373 141.385 445.729 141.318 445.109 141.225C444.468 141.172 443.876 141.065 443.349 140.918V114.332C443.876 114.198 444.468 114.105 445.109 114.025C445.729 113.945 446.373 113.865 447.02 113.825C447.665 113.772 448.296 113.732 448.932 113.705C449.564 113.665 450.157 113.665 450.715 113.665C452.296 113.665 453.781 113.772 455.175 114.025C456.568 114.252 457.753 114.638 458.775 115.225C459.784 115.798 460.576 116.532 461.163 117.465C461.739 118.385 462.037 119.518 462.037 120.852C462.037 122.372 461.684 123.598 460.965 124.558C460.255 125.505 459.304 126.238 458.12 126.718C459.717 127.198 461.016 127.932 461.952 128.985C462.897 130.012 463.372 131.452 463.372 133.318C463.372 136.078 462.375 138.118 460.348 139.505C458.323 140.892 455.135 141.598 450.749 141.598Z" fill="#4C525A"/>
<path d="M475.673 138.705C476.556 138.705 477.321 138.678 477.992 138.638C478.652 138.598 479.229 138.532 479.669 138.412V132.305C479.421 132.158 478.977 132.038 478.393 131.972C477.796 131.878 477.081 131.812 476.237 131.812C475.673 131.812 475.083 131.865 474.475 131.945C473.859 132.012 473.277 132.185 472.775 132.425C472.248 132.692 471.837 133.025 471.491 133.452C471.149 133.892 470.972 134.465 470.972 135.185C470.972 136.518 471.393 137.412 472.236 137.945C473.068 138.438 474.239 138.705 475.673 138.705ZM475.353 120.265C476.835 120.265 478.091 120.465 479.104 120.838C480.113 121.238 480.929 121.772 481.549 122.465C482.167 123.158 482.611 123.998 482.884 124.945C483.151 125.918 483.273 126.998 483.273 128.132V140.998C482.952 141.065 482.515 141.118 481.947 141.212C481.372 141.318 480.736 141.398 480.033 141.478C479.328 141.545 478.543 141.625 477.719 141.692C476.889 141.772 476.061 141.785 475.244 141.785C474.069 141.785 473.017 141.665 472.04 141.425C471.075 141.198 470.215 140.825 469.512 140.305C468.787 139.785 468.229 139.105 467.847 138.278C467.448 137.425 467.251 136.425 467.251 135.225C467.251 134.092 467.479 133.118 467.935 132.305C468.408 131.465 469.029 130.812 469.831 130.318C470.612 129.798 471.535 129.438 472.583 129.212C473.651 128.985 474.753 128.852 475.915 128.852C476.281 128.852 476.665 128.892 477.065 128.905C477.452 128.945 477.824 129.012 478.184 129.078C478.543 129.145 478.864 129.198 479.127 129.238C479.379 129.318 479.571 129.345 479.669 129.358V128.332C479.669 127.732 479.619 127.132 479.476 126.545C479.347 125.932 479.104 125.425 478.765 124.945C478.416 124.492 477.949 124.132 477.356 123.838C476.764 123.572 475.991 123.438 475.048 123.438C473.835 123.438 472.775 123.505 471.864 123.692C470.949 123.852 470.275 124.052 469.831 124.225L469.391 121.172C469.865 120.958 470.655 120.745 471.749 120.558C472.869 120.358 474.063 120.265 475.353 120.265Z" fill="#4C525A"/>
<path d="M489.523 121.385C490.363 121.172 491.499 120.945 492.888 120.705C494.288 120.465 495.899 120.345 497.713 120.345C499.349 120.345 500.712 120.585 501.787 121.052C502.872 121.492 503.731 122.145 504.383 122.985C505.023 123.798 505.483 124.812 505.741 125.958C506.02 127.132 506.133 128.412 506.133 129.798V141.372H502.455V130.585C502.455 129.332 502.373 128.252 502.2 127.345C502.023 126.452 501.752 125.718 501.344 125.172C500.959 124.625 500.421 124.225 499.775 123.958C499.107 123.705 498.297 123.598 497.328 123.598C496.928 123.598 496.519 123.598 496.095 123.625C495.676 123.652 495.263 123.692 494.891 123.732C494.501 123.785 494.156 123.798 493.857 123.852C493.551 123.932 493.34 123.958 493.205 123.985V141.372H489.523V121.385Z" fill="#4C525A"/>
<path d="M519.828 130.038C520.613 130.652 521.449 131.398 522.341 132.305C523.228 133.198 524.087 134.172 524.952 135.212C525.803 136.238 526.612 137.292 527.373 138.372C528.155 139.425 528.803 140.438 529.325 141.372H525.003C524.453 140.438 523.812 139.492 523.079 138.532C522.364 137.558 521.615 136.638 520.809 135.758C520.028 134.865 519.22 134.065 518.397 133.318C517.581 132.572 516.8 131.972 516.065 131.452V141.372H512.384V111.292L516.065 110.652V129.412C516.707 128.772 517.409 128.078 518.168 127.318C518.928 126.545 519.685 125.758 520.428 124.972C521.155 124.172 521.845 123.425 522.516 122.705C523.173 121.972 523.741 121.332 524.217 120.785H528.527C527.919 121.438 527.268 122.172 526.553 122.945C525.835 123.745 525.1 124.545 524.335 125.358C523.568 126.158 522.799 126.958 522.013 127.772C521.24 128.585 520.515 129.332 519.828 130.038Z" fill="#4C525A"/>
<path d="M224.001 113.945V117.265H215.38V141.372H211.529V117.265H202.911V113.945H224.001Z" fill="#99A3A8"/>
<path d="M227.951 141.372V111.292L231.637 110.652V121.172C232.32 120.918 233.047 120.705 233.824 120.558C234.601 120.398 235.375 120.345 236.145 120.345C237.781 120.345 239.14 120.585 240.216 121.052C241.299 121.492 242.167 122.145 242.803 122.985C243.455 123.798 243.907 124.812 244.177 125.958C244.436 127.132 244.573 128.412 244.573 129.798V141.372H240.892V130.585C240.892 129.332 240.8 128.252 240.632 127.345C240.452 126.452 240.18 125.718 239.78 125.172C239.384 124.625 238.845 124.225 238.201 123.958C237.539 123.705 236.729 123.598 235.744 123.598C235.36 123.598 234.943 123.612 234.527 123.665C234.099 123.732 233.699 123.785 233.315 123.838C232.937 123.918 232.588 123.985 232.289 124.065C231.98 124.158 231.748 124.212 231.637 124.265V141.372H227.951Z" fill="#99A3A8"/>
<path d="M254.384 141.372H250.699V120.785H254.384V141.372ZM252.524 117.065C251.856 117.065 251.299 116.838 250.851 116.412C250.38 115.985 250.148 115.398 250.148 114.638C250.148 113.905 250.38 113.318 250.851 112.878C251.299 112.452 251.856 112.238 252.524 112.238C253.176 112.238 253.736 112.452 254.204 112.878C254.655 113.318 254.883 113.905 254.883 114.638C254.883 115.398 254.655 115.985 254.204 116.412C253.736 116.838 253.176 117.065 252.524 117.065Z" fill="#99A3A8"/>
<path d="M260.869 121.385C261.703 121.172 262.829 120.945 264.235 120.705C265.628 120.465 267.231 120.345 269.071 120.345C270.685 120.345 272.052 120.585 273.131 121.052C274.223 121.492 275.079 122.145 275.727 122.985C276.369 123.798 276.813 124.812 277.08 125.958C277.347 127.132 277.485 128.412 277.485 129.798V141.372H273.815V130.585C273.815 129.332 273.724 128.252 273.547 127.345C273.375 126.452 273.088 125.718 272.703 125.172C272.307 124.625 271.772 124.225 271.105 123.958C270.461 123.705 269.641 123.598 268.668 123.598C268.267 123.598 267.855 123.598 267.435 123.625C267.007 123.652 266.615 123.692 266.225 123.732C265.844 123.785 265.515 123.798 265.197 123.852C264.901 123.932 264.687 123.958 264.541 123.985V141.372H260.869V121.385Z" fill="#99A3A8"/>
<path d="M291.159 130.038C291.96 130.652 292.804 131.398 293.688 132.305C294.571 133.198 295.435 134.172 296.291 135.212C297.147 136.238 297.959 137.292 298.724 138.372C299.489 139.425 300.129 140.438 300.664 141.372H296.357C295.804 140.438 295.164 139.492 294.429 138.532C293.711 137.558 292.941 136.638 292.16 135.758C291.364 134.865 290.571 134.065 289.749 133.318C288.933 132.572 288.152 131.972 287.405 131.452V141.372H283.739V111.292L287.405 110.652V129.412C288.045 128.772 288.745 128.078 289.507 127.318C290.272 126.545 291.017 125.758 291.756 124.972C292.509 124.172 293.201 123.425 293.856 122.705C294.52 121.972 295.089 121.332 295.564 120.785H299.879C299.271 121.438 298.619 122.172 297.888 122.945C297.185 123.745 296.444 124.545 295.681 125.358C294.92 126.158 294.139 126.958 293.369 127.772C292.596 128.585 291.863 129.332 291.159 130.038Z" fill="#99A3A8"/>
<path d="M320.8 138.705C321.672 138.705 322.445 138.678 323.105 138.638C323.788 138.598 324.349 138.532 324.793 138.412V132.305C324.523 132.158 324.105 132.038 323.509 131.972C322.928 131.878 322.199 131.812 321.353 131.812C320.8 131.812 320.215 131.865 319.595 131.945C318.975 132.012 318.405 132.185 317.899 132.425C317.38 132.692 316.956 133.025 316.604 133.452C316.269 133.892 316.093 134.465 316.093 135.185C316.093 136.518 316.513 137.412 317.349 137.945C318.205 138.438 319.34 138.705 320.8 138.705ZM320.485 120.265C321.963 120.265 323.203 120.465 324.231 120.838C325.232 121.238 326.049 121.772 326.677 122.465C327.297 123.158 327.737 123.998 328.004 124.945C328.271 125.918 328.389 126.998 328.389 128.132V140.998C328.079 141.065 327.644 141.118 327.079 141.212C326.512 141.318 325.869 141.398 325.151 141.478C324.436 141.545 323.655 141.625 322.823 141.692C321.997 141.772 321.185 141.785 320.369 141.785C319.203 141.785 318.143 141.665 317.153 141.425C316.179 141.198 315.332 140.825 314.624 140.305C313.911 139.785 313.357 139.105 312.972 138.278C312.572 137.425 312.371 136.425 312.371 135.225C312.371 134.092 312.607 133.118 313.059 132.305C313.525 131.465 314.153 130.812 314.943 130.318C315.736 129.798 316.655 129.438 317.723 129.212C318.775 128.985 319.877 128.852 321.04 128.852C321.409 128.852 321.797 128.892 322.187 128.905C322.587 128.945 322.956 129.012 323.313 129.078C323.655 129.145 323.988 129.198 324.239 129.238C324.511 129.318 324.691 129.345 324.793 129.358V128.332C324.793 127.732 324.731 127.132 324.589 126.545C324.467 125.932 324.231 125.425 323.887 124.945C323.536 124.492 323.085 124.132 322.484 123.838C321.876 123.572 321.111 123.438 320.168 123.438C318.939 123.438 317.899 123.505 316.972 123.692C316.065 123.852 315.395 124.052 314.943 124.225L314.507 121.172C314.985 120.958 315.775 120.745 316.883 120.558C317.997 120.358 319.195 120.265 320.485 120.265Z" fill="#99A3A8"/>
<path d="M334.647 141.372V111.292L338.327 110.652V121.172C339.016 120.918 339.751 120.705 340.516 120.558C341.289 120.398 342.075 120.345 342.841 120.345C344.469 120.345 345.833 120.585 346.904 121.052C347.988 121.492 348.867 122.145 349.492 122.985C350.151 123.798 350.603 124.812 350.877 125.958C351.124 127.132 351.263 128.412 351.263 129.798V141.372H347.587V130.585C347.587 129.332 347.493 128.252 347.34 127.345C347.156 126.452 346.873 125.718 346.472 125.172C346.072 124.625 345.545 124.225 344.897 123.958C344.231 123.705 343.417 123.598 342.432 123.598C342.048 123.598 341.635 123.612 341.231 123.665C340.795 123.732 340.392 123.785 340.017 123.838C339.629 123.918 339.287 123.985 338.981 124.065C338.676 124.158 338.463 124.212 338.327 124.265V141.372H334.647Z" fill="#99A3A8"/>
<path d="M370.357 129.092C370.393 127.425 369.973 126.052 369.121 124.998C368.269 123.932 367.079 123.398 365.588 123.398C364.739 123.398 364.007 123.558 363.345 123.905C362.707 124.225 362.153 124.652 361.713 125.172C361.253 125.692 360.908 126.305 360.653 126.998C360.409 127.678 360.24 128.385 360.159 129.092H370.357ZM356.252 131.105C356.252 129.292 356.508 127.705 357.037 126.345C357.564 124.998 358.273 123.852 359.121 122.945C360.012 122.078 361.013 121.398 362.14 120.945C363.272 120.478 364.451 120.265 365.627 120.265C368.387 120.265 370.515 121.132 371.988 122.865C373.471 124.585 374.205 127.212 374.205 130.758C374.205 130.905 374.205 131.105 374.205 131.358C374.205 131.625 374.193 131.852 374.167 132.065H360.083C360.24 134.198 360.873 135.812 361.941 136.918C363.028 138.025 364.708 138.572 367.005 138.572C368.304 138.572 369.38 138.465 370.28 138.238C371.151 138.025 371.827 137.798 372.271 137.598L372.788 140.678C372.337 140.918 371.552 141.172 370.429 141.425C369.317 141.705 368.033 141.825 366.605 141.825C364.823 141.825 363.272 141.558 361.96 141.012C360.653 140.492 359.576 139.732 358.732 138.772C357.897 137.838 357.269 136.718 356.864 135.412C356.453 134.092 356.252 132.652 356.252 131.105Z" fill="#99A3A8"/>
<path d="M386.623 138.705C387.499 138.705 388.284 138.678 388.944 138.638C389.611 138.598 390.18 138.532 390.616 138.412V132.305C390.372 132.158 389.933 132.038 389.336 131.972C388.743 131.878 388.024 131.812 387.188 131.812C386.623 131.812 386.051 131.865 385.413 131.945C384.793 132.012 384.24 132.185 383.727 132.425C383.2 132.692 382.772 133.025 382.435 133.452C382.092 133.892 381.924 134.465 381.924 135.185C381.924 136.518 382.343 137.412 383.184 137.945C384.032 138.438 385.177 138.705 386.623 138.705ZM386.317 120.265C387.785 120.265 389.041 120.465 390.047 120.838C391.06 121.238 391.88 121.772 392.501 122.465C393.113 123.158 393.576 123.998 393.828 124.945C394.095 125.918 394.224 126.998 394.224 128.132V140.998C393.909 141.065 393.479 141.118 392.897 141.212C392.343 141.318 391.7 141.398 390.985 141.478C390.279 141.545 389.493 141.625 388.669 141.692C387.844 141.772 387.012 141.785 386.195 141.785C385.029 141.785 383.969 141.665 382.992 141.425C382.013 141.198 381.167 140.825 380.463 140.305C379.74 139.785 379.199 139.105 378.803 138.278C378.397 137.425 378.203 136.425 378.203 135.225C378.203 134.092 378.429 133.118 378.9 132.305C379.364 131.465 379.98 130.812 380.765 130.318C381.573 129.798 382.489 129.438 383.545 129.212C384.589 128.985 385.7 128.852 386.867 128.852C387.231 128.852 387.62 128.892 388.009 128.905C388.401 128.945 388.787 129.012 389.14 129.078C389.493 129.145 389.795 129.198 390.081 129.238C390.329 129.318 390.513 129.345 390.616 129.358V128.332C390.616 127.732 390.545 127.132 390.436 126.545C390.297 125.932 390.047 125.425 389.713 124.945C389.375 124.492 388.904 124.132 388.303 123.838C387.723 123.572 386.949 123.438 386.004 123.438C384.789 123.438 383.727 123.505 382.819 123.692C381.904 123.852 381.213 124.052 380.765 124.225L380.343 121.172C380.809 120.958 381.611 120.745 382.717 120.558C383.824 120.358 385.021 120.265 386.317 120.265Z" fill="#99A3A8"/>
<path d="M413.764 125.145C413.316 124.772 412.673 124.398 411.836 124.065C410.976 123.732 410.053 123.558 409.057 123.558C408.001 123.558 407.097 123.745 406.351 124.132C405.593 124.492 404.981 125.052 404.509 125.705C404.035 126.372 403.689 127.172 403.489 128.105C403.273 129.038 403.172 130.025 403.172 131.065C403.172 133.452 403.76 135.318 404.951 136.625C406.127 137.945 407.721 138.572 409.692 138.572C410.701 138.572 411.533 138.545 412.201 138.438C412.876 138.345 413.395 138.265 413.764 138.158V125.145ZM413.764 111.292L417.447 110.652V140.772C416.603 140.998 415.523 141.225 414.187 141.478C412.876 141.705 411.36 141.825 409.661 141.825C408.071 141.825 406.645 141.585 405.387 141.065C404.115 140.572 403.041 139.852 402.131 138.945C401.239 138.012 400.553 136.878 400.063 135.558C399.567 134.225 399.336 132.732 399.336 131.065C399.336 129.492 399.532 128.025 399.936 126.718C400.348 125.398 400.945 124.265 401.731 123.305C402.523 122.372 403.505 121.612 404.652 121.105C405.787 120.572 407.105 120.305 408.581 120.305C409.767 120.305 410.823 120.465 411.723 120.785C412.632 121.105 413.316 121.398 413.764 121.692V111.292Z" fill="#99A3A8"/>
<path d="M428.289 139.198C428.289 139.932 428.043 140.545 427.567 141.065C427.1 141.598 426.449 141.865 425.623 141.865C424.815 141.865 424.168 141.598 423.692 141.065C423.221 140.545 422.977 139.932 422.977 139.198C422.977 138.505 423.221 137.892 423.692 137.345C424.168 136.825 424.815 136.558 425.623 136.558C426.449 136.558 427.1 136.825 427.567 137.345C428.043 137.892 428.289 138.505 428.289 139.198Z" fill="#99A3A8"/>
<path d="M549.456 138.705C550.325 138.705 551.103 138.678 551.777 138.638C552.453 138.598 553.009 138.532 553.453 138.412V132.305C553.195 132.158 552.759 132.038 552.159 131.972C551.573 131.878 550.851 131.812 550.007 131.812C549.456 131.812 548.872 131.865 548.243 131.945C547.627 132.012 547.069 132.185 546.552 132.425C546.033 132.692 545.605 133.025 545.26 133.452C544.915 133.892 544.757 134.465 544.757 135.185C544.757 136.518 545.177 137.412 546.021 137.945C546.857 138.438 548.001 138.705 549.456 138.705ZM549.139 120.265C550.616 120.265 551.859 120.465 552.877 120.838C553.897 121.238 554.723 121.772 555.323 122.465C555.951 123.158 556.383 123.998 556.649 124.945C556.916 125.918 557.047 126.998 557.047 128.132V140.998C556.743 141.065 556.285 141.118 555.715 141.212C555.157 141.318 554.521 141.398 553.811 141.478C553.104 141.545 552.327 141.625 551.499 141.692C550.667 141.772 549.839 141.785 549.028 141.785C547.859 141.785 546.791 141.665 545.825 141.425C544.847 141.198 543.992 140.825 543.285 140.305C542.575 139.785 542.025 139.105 541.624 138.278C541.221 137.425 541.036 136.425 541.036 135.225C541.036 134.092 541.26 133.118 541.719 132.305C542.193 131.465 542.795 130.812 543.6 130.318C544.393 129.798 545.315 129.438 546.367 129.212C547.436 128.985 548.523 128.852 549.684 128.852C550.059 128.852 550.443 128.892 550.839 128.905C551.231 128.945 551.617 129.012 551.957 129.078C552.327 129.145 552.645 129.198 552.904 129.238C553.167 129.318 553.34 129.345 553.453 129.358V128.332C553.453 127.732 553.391 127.132 553.257 126.545C553.12 125.932 552.893 125.425 552.535 124.945C552.193 124.492 551.731 124.132 551.141 123.838C550.549 123.572 549.776 123.438 548.833 123.438C547.612 123.438 546.552 123.505 545.641 123.692C544.733 123.852 544.052 124.052 543.6 124.225L543.156 121.172C543.631 120.958 544.432 120.745 545.535 120.558C546.649 120.358 547.847 120.265 549.139 120.265Z" fill="#99A3A8"/>
<path d="M563.308 141.372V111.292L566.983 110.652V121.172C567.667 120.918 568.399 120.705 569.184 120.558C569.961 120.398 570.739 120.345 571.481 120.345C573.127 120.345 574.477 120.585 575.572 121.052C576.636 121.492 577.512 122.145 578.164 122.985C578.804 123.798 579.267 124.812 579.517 125.958C579.785 127.132 579.927 128.412 579.927 129.798V141.372H576.232V130.585C576.232 129.332 576.161 128.252 575.977 127.345C575.812 126.452 575.521 125.718 575.136 125.172C574.744 124.625 574.211 124.225 573.559 123.958C572.899 123.705 572.071 123.598 571.101 123.598C570.696 123.598 570.296 123.612 569.868 123.665C569.44 123.732 569.04 123.785 568.659 123.838C568.283 123.918 567.937 123.985 567.633 124.065C567.336 124.158 567.104 124.212 566.983 124.265V141.372H563.308Z" fill="#99A3A8"/>
<path d="M599.029 129.092C599.055 127.425 598.641 126.052 597.793 124.998C596.925 123.932 595.732 123.398 594.236 123.398C593.408 123.398 592.655 123.558 592.003 123.905C591.351 124.225 590.809 124.652 590.365 125.172C589.913 125.692 589.557 126.305 589.317 126.998C589.063 127.678 588.897 128.385 588.811 129.092H599.029ZM584.9 131.105C584.9 129.292 585.16 127.705 585.697 126.345C586.216 124.998 586.915 123.852 587.793 122.945C588.665 122.078 589.667 121.398 590.801 120.945C591.932 120.478 593.087 120.265 594.287 120.265C597.044 120.265 599.164 121.132 600.648 122.865C602.124 124.585 602.865 127.212 602.865 130.758C602.865 130.905 602.865 131.105 602.865 131.358C602.865 131.625 602.849 131.852 602.815 132.065H588.74C588.897 134.198 589.521 135.812 590.601 136.918C591.68 138.025 593.377 138.572 595.675 138.572C596.956 138.572 598.053 138.465 598.928 138.238C599.808 138.025 600.479 137.798 600.931 137.598L601.449 140.678C600.993 140.918 600.204 141.172 599.081 141.425C597.965 141.705 596.699 141.825 595.273 141.825C593.471 141.825 591.932 141.558 590.62 141.012C589.317 140.492 588.245 139.732 587.397 138.772C586.541 137.838 585.937 136.718 585.52 135.412C585.109 134.092 584.9 132.652 584.9 131.105Z" fill="#99A3A8"/>
<path d="M615.287 138.705C616.164 138.705 616.929 138.678 617.592 138.638C618.28 138.598 618.829 138.532 619.285 138.412V132.305C619.017 132.158 618.581 132.038 618.005 131.972C617.396 131.878 616.677 131.812 615.845 131.812C615.287 131.812 614.699 131.865 614.087 131.945C613.461 132.012 612.889 132.185 612.375 132.425C611.864 132.692 611.432 133.025 611.091 133.452C610.749 133.892 610.576 134.465 610.576 135.185C610.576 136.518 610.997 137.412 611.848 137.945C612.684 138.438 613.836 138.705 615.287 138.705ZM614.961 120.265C616.457 120.265 617.693 120.465 618.699 120.838C619.728 121.238 620.545 121.772 621.169 122.465C621.781 123.158 622.225 123.998 622.484 124.945C622.739 125.918 622.881 126.998 622.881 128.132V140.998C622.573 141.065 622.12 141.118 621.555 141.212C620.988 141.318 620.344 141.398 619.633 141.478C618.919 141.545 618.141 141.625 617.313 141.692C616.493 141.772 615.669 141.785 614.852 141.785C613.693 141.785 612.615 141.665 611.644 141.425C610.671 141.198 609.831 140.825 609.113 140.305C608.401 139.785 607.848 139.105 607.444 138.278C607.064 137.425 606.863 136.425 606.863 135.225C606.863 134.092 607.095 133.118 607.549 132.305C608.009 131.465 608.649 130.812 609.435 130.318C610.224 129.798 611.137 129.438 612.201 129.212C613.259 128.985 614.369 128.852 615.527 128.852C615.897 128.852 616.285 128.892 616.669 128.905C617.069 128.945 617.44 129.012 617.788 129.078C618.141 129.145 618.468 129.198 618.728 129.238C618.991 129.318 619.171 129.345 619.285 129.358V128.332C619.285 127.732 619.217 127.132 619.084 126.545C618.951 125.932 618.724 125.425 618.373 124.945C618.032 124.492 617.568 124.132 616.964 123.838C616.371 123.572 615.611 123.438 614.648 123.438C613.435 123.438 612.375 123.505 611.468 123.692C610.553 123.852 609.883 124.052 609.435 124.225L609.003 121.172C609.477 120.958 610.259 120.745 611.373 120.558C612.472 120.358 613.681 120.265 614.961 120.265Z" fill="#99A3A8"/>
<path d="M642.432 125.145C641.968 124.772 641.333 124.398 640.485 124.065C639.64 123.732 638.715 123.558 637.717 123.558C636.661 123.558 635.773 123.745 635.011 124.132C634.257 124.492 633.645 125.052 633.163 125.705C632.696 126.372 632.357 127.172 632.141 128.105C631.927 129.038 631.82 130.025 631.82 131.065C631.82 133.452 632.429 135.318 633.603 136.625C634.788 137.945 636.383 138.572 638.352 138.572C639.345 138.572 640.193 138.545 640.865 138.438C641.533 138.345 642.052 138.265 642.432 138.158V125.145ZM642.432 111.292L646.095 110.652V140.772C645.255 140.998 644.176 141.225 642.856 141.478C641.541 141.705 640.033 141.825 638.309 141.825C636.728 141.825 635.307 141.585 634.037 141.065C632.779 140.572 631.693 139.852 630.791 138.945C629.899 138.012 629.217 136.878 628.715 135.558C628.22 134.225 627.996 132.732 627.996 131.065C627.996 129.492 628.188 128.025 628.601 126.718C629.009 125.398 629.615 124.265 630.391 123.305C631.196 122.372 632.161 121.612 633.304 121.105C634.457 120.572 635.773 120.305 637.245 120.305C638.436 120.305 639.472 120.465 640.391 120.785C641.301 121.105 641.968 121.398 642.432 121.692V111.292Z" fill="#99A3A8"/>
<path d="M656.939 139.198C656.939 139.932 656.707 140.545 656.224 141.065C655.748 141.598 655.113 141.865 654.296 141.865C653.484 141.865 652.824 141.598 652.352 141.065C651.881 140.545 651.651 139.932 651.651 139.198C651.651 138.505 651.881 137.892 652.352 137.345C652.824 136.825 653.484 136.558 654.296 136.558C655.113 136.558 655.748 136.825 656.224 137.345C656.707 137.892 656.939 138.505 656.939 139.198Z" fill="#99A3A8"/>
</svg>
