<svg width="182" height="45" xmlns="http://www.w3.org/2000/svg"><g fill="#828893" fill-rule="nonzero"><path d="M22.5 45C10.074 45 0 34.926 0 22.5S10.074 0 22.5 0 45 10.074 45 22.5 34.926 45 22.5 45zM10.059 27.57c.77-.61 1.16-1.454 1.16-2.498 0-1.016-.317-1.82-.958-2.385a2.952 2.952 0 0 0-.873-.549c-.326-.133-.737-.235-1.233-.306l-.557-.086-.61-.087c-.429-.066-.748-.198-.96-.388-.178-.158-.267-.376-.267-.681 0-.37.123-.656.377-.886.258-.232.629-.353 1.13-.353.422 0 .797.055 1.123.163.311.102.594.278.854.53l.257.249 1.518-1.502-.277-.26a4.522 4.522 0 0 0-1.535-.973c-.54-.2-1.173-.297-1.897-.297-1.142 0-2.064.306-2.75.926-.693.625-1.042 1.455-1.042 2.461 0 .935.286 1.686.864 2.232.521.491 1.239.796 2.145.922l.603.086.606.087c.275.035.48.08.61.13.115.045.216.111.306.2l.014.014c.184.166.281.423.281.798 0 .387-.133.666-.407.87-.3.222-.745.34-1.344.34-.518 0-.96-.069-1.33-.203a2.902 2.902 0 0 1-1.036-.677l-.257-.251-1.551 1.534.254.26c.518.53 1.092.911 1.721 1.137.619.222 1.342.332 2.17.332 1.172 0 2.14-.294 2.89-.89zm4.81.801l.706-2.067H19.1l.705 2.067h2.441L18.22 17.346h-1.765l-4.026 11.025h2.44zm1.421-4.128l1.079-3.083 1.048 3.083H16.29zm8.761 4.128l.705-2.067h3.524l.705 2.067h2.442L28.4 17.346h-1.765l-4.025 11.025h2.44zm1.42-4.128l1.078-3.083 1.049 3.083H26.47zm10.788 4.216c1.172 0 2.14-.294 2.89-.889.772-.61 1.162-1.454 1.162-2.498 0-1.016-.318-1.82-.958-2.385a2.952 2.952 0 0 0-.874-.549c-.326-.133-.736-.235-1.232-.306l-.558-.086-.609-.087c-.43-.066-.748-.198-.96-.388-.179-.158-.267-.376-.267-.681 0-.37.123-.656.377-.886.257-.232.628-.353 1.129-.353.423 0 .797.055 1.124.163.31.102.594.278.853.53l.258.249 1.517-1.502-.276-.26a4.522 4.522 0 0 0-1.535-.973c-.541-.2-1.174-.297-1.897-.297-1.142 0-2.064.306-2.75.926-.694.625-1.042 1.455-1.042 2.461 0 .935.286 1.686.863 2.232.522.491 1.24.796 2.145.922l.604.086.605.087c.276.035.48.08.61.13.116.045.217.111.306.2l.014.014c.185.166.282.423.282.798 0 .387-.133.666-.407.87-.3.222-.746.34-1.345.34-.517 0-.96-.069-1.33-.203a2.902 2.902 0 0 1-1.035-.677l-.258-.251-1.55 1.534.253.26c.519.53 1.093.911 1.722 1.137.618.222 1.342.332 2.169.332zM55.226 27.207c-.66.51-1.52.763-2.578.763-.762 0-1.421-.097-1.978-.293a4.053 4.053 0 0 1-1.533-.99l1.003-.969c.353.337.73.576 1.128.717.4.141.869.212 1.407.212.65 0 1.154-.13 1.511-.39.358-.26.536-.625.536-1.098 0-.446-.13-.782-.39-1.009a1.196 1.196 0 0 0-.418-.266 3.162 3.162 0 0 0-.668-.144l-.585-.082-.586-.082c-.808-.11-1.435-.368-1.88-.778-.484-.445-.725-1.064-.725-1.856 0-.854.297-1.544.892-2.066.594-.523 1.402-.785 2.424-.785.66 0 1.23.087 1.714.26.483.173.938.454 1.365.846l-.962.928a2.508 2.508 0 0 0-.962-.58 3.892 3.892 0 0 0-1.197-.17c-.567 0-1.01.14-1.33.422-.32.282-.481.646-.481 1.092 0 .382.125.681.376.9.26.229.631.379 1.114.451l.586.082.544.082c.455.064.824.153 1.107.267.284.114.532.266.745.457.539.463.808 1.127.808 1.992.001.881-.328 1.577-.987 2.087zM63.427 26.012c-.12.432-.339.812-.655 1.14-.25.245-.552.444-.905.594-.353.15-.757.224-1.212.224-.455 0-.858-.073-1.206-.218a2.705 2.705 0 0 1-.899-.6 2.648 2.648 0 0 1-.655-1.14c-.121-.432-.18-.962-.18-1.589s.06-1.157.18-1.589c.12-.432.34-.807.655-1.126.25-.254.55-.454.899-.6a3.1 3.1 0 0 1 1.206-.218c.455 0 .86.073 1.212.218.353.146.655.346.905.6.316.32.534.694.655 1.126.12.432.181.962.181 1.589s-.06 1.157-.18 1.59zm-1.338-2.735a1.443 1.443 0 0 0-.39-.751c-.27-.264-.617-.396-1.044-.396-.418 0-.762.132-1.032.396-.195.19-.326.442-.39.75a5.674 5.674 0 0 0-.097 1.147c0 .455.032.837.097 1.146.065.31.196.56.39.751.279.273.623.41 1.032.41.418 0 .766-.137 1.044-.41.196-.19.325-.44.39-.75.066-.31.098-.692.098-1.147 0-.455-.032-.837-.098-1.146zM67.222 22.158v5.73H65.8v-5.73h-.807v-1.064h.807V20.03c0-.537.168-.992.502-1.365.334-.372.812-.559 1.434-.559h.892v1.187h-.627c-.52 0-.78.269-.78.806v.996h1.407v1.064h-1.406v-.001zM72.288 27.888c-.623 0-1.101-.186-1.435-.559-.335-.372-.501-.827-.501-1.364v-3.806h-.808v-1.064h.808v-2.101h1.421v2.1h1.365v1.065h-1.365v3.738c0 .537.26.805.78.805h.585v1.187h-.85zM81.813 27.888h-1.212l-1.658-4.83-1.644 4.83h-1.226l-2.188-6.917h1.505l1.365 4.87 1.644-4.87h1.1l1.631 4.87 1.365-4.87h1.52zM89.043 27.888v-.628a2.44 2.44 0 0 1-.808.546c-.278.11-.636.163-1.073.163-.835 0-1.467-.209-1.894-.628-.372-.382-.557-.877-.557-1.487 0-.6.209-1.082.627-1.446.418-.364 1.021-.546 1.811-.546h1.867v-.491c0-.446-.123-.773-.37-.982-.245-.21-.638-.313-1.177-.313-.39 0-.696.05-.919.15-.222.1-.431.273-.627.518l-.934-.86c.325-.372.678-.631 1.059-.777.38-.146.873-.218 1.476-.218 1.942 0 2.912.791 2.912 2.373v4.625h-1.393v.001zm-.028-3.056h-1.658c-.845 0-1.268.332-1.268.996 0 .655.432.982 1.296.982.307 0 .56-.025.76-.076.2-.05.387-.156.563-.32.205-.2.307-.542.307-1.024v-.558zM96.542 22.595a1.853 1.853 0 0 0-.481-.355 1.353 1.353 0 0 0-.579-.11c-.39 0-.722.144-.996.43-.274.286-.411.662-.411 1.125v4.202h-1.422V20.97h1.393v.75c.186-.245.449-.445.788-.6.34-.155.703-.232 1.093-.232.344 0 .65.05.92.15.269.1.524.268.766.505l-1.071 1.052zM99.317 24.832c0 .6.157 1.073.474 1.419.316.346.757.518 1.324.518.38 0 .696-.054.947-.163.25-.11.505-.291.766-.546l.906.832c-.381.373-.769.646-1.163.819-.395.173-.89.26-1.484.26a3.98 3.98 0 0 1-1.268-.191 2.568 2.568 0 0 1-.996-.607c-.284-.278-.507-.646-.669-1.105-.163-.46-.244-1.007-.244-1.644 0-1.109.272-1.976.815-2.6.544-.622 1.27-.934 2.18-.934.939 0 1.673.305 2.202.914.529.61.794 1.415.794 2.415v.614h-4.584v-.001zm3.128-1.48a1.697 1.697 0 0 0-.146-.43 1.378 1.378 0 0 0-.536-.634 1.544 1.544 0 0 0-.857-.239c-.325 0-.614.08-.864.24-.25.158-.432.37-.544.634a1.823 1.823 0 0 0-.133.409c-.023.127-.039.304-.048.532h3.176a3.985 3.985 0 0 0-.048-.512zM112.975 27.888v-.628a2.44 2.44 0 0 1-.808.546c-.279.11-.636.163-1.073.163-.836 0-1.467-.209-1.894-.628-.372-.382-.558-.877-.558-1.487 0-.6.21-1.082.627-1.446.418-.364 1.022-.546 1.812-.546h1.867v-.491c0-.446-.124-.773-.37-.982-.246-.21-.638-.313-1.177-.313-.39 0-.697.05-.92.15-.222.1-.43.273-.626.518l-.934-.86c.325-.372.678-.631 1.058-.777.381-.146.873-.218 1.477-.218 1.941 0 2.912.791 2.912 2.373v4.625h-1.393v.001zm-.028-3.056h-1.659c-.845 0-1.267.332-1.267.996 0 .655.431.982 1.295.982.307 0 .56-.025.76-.076.2-.05.388-.156.564-.32.204-.2.307-.542.307-1.024v-.558zM120.996 27.397c-.544.383-1.252.573-2.125.573-.631 0-1.186-.073-1.665-.218a3.224 3.224 0 0 1-1.302-.778l.934-.914c.26.264.566.45.919.56.352.109.724.162 1.114.162.455 0 .827-.082 1.115-.245.287-.163.431-.4.431-.71 0-.245-.076-.435-.229-.572-.153-.136-.392-.218-.718-.246l-.57-.054-.558-.041c-.679-.055-1.195-.239-1.554-.552-.357-.314-.536-.766-.536-1.358 0-.656.253-1.172.76-1.549.505-.377 1.14-.566 1.902-.566.548 0 1.043.061 1.484.184.442.123.82.321 1.136.594l-.892.886a2.075 2.075 0 0 0-.766-.382 3.655 3.655 0 0 0-.976-.123c-.409 0-.724.08-.947.24a.756.756 0 0 0-.335.647c0 .228.075.407.223.539.148.131.399.216.753.252l.57.055.544.04c.678.055 1.198.244 1.56.567.363.323.545.785.545 1.385-.003.702-.274 1.242-.817 1.624zM130.727 27.888v-.628a2.44 2.44 0 0 1-.808.546c-.279.11-.636.163-1.073.163-.836 0-1.467-.209-1.894-.628-.372-.382-.558-.877-.558-1.487 0-.6.21-1.082.627-1.446.418-.364 1.022-.546 1.812-.546h1.867v-.491c0-.446-.124-.773-.37-.982-.246-.21-.638-.313-1.177-.313-.39 0-.697.05-.92.15-.222.1-.43.273-.626.518l-.934-.86c.325-.372.678-.631 1.059-.777.38-.146.873-.218 1.476-.218 1.941 0 2.912.791 2.912 2.373v4.625h-1.393v.001zm-.028-3.056h-1.659c-.844 0-1.267.332-1.267.996 0 .655.432.982 1.296.982.306 0 .56-.025.759-.076.2-.05.388-.156.564-.32.205-.2.307-.542.307-1.024v-.558zM143.087 27.207c-.66.51-1.519.763-2.577.763-.762 0-1.422-.097-1.979-.293a4.053 4.053 0 0 1-1.532-.99l1.003-.969c.353.337.729.576 1.128.717.399.141.868.212 1.407.212.65 0 1.153-.13 1.51-.39.358-.26.537-.625.537-1.098 0-.446-.13-.782-.39-1.009a1.196 1.196 0 0 0-.418-.266 3.162 3.162 0 0 0-.669-.144l-.585-.082-.585-.082c-.808-.11-1.435-.368-1.881-.778-.483-.445-.725-1.064-.725-1.856 0-.854.297-1.544.892-2.066.595-.523 1.402-.785 2.425-.785.66 0 1.23.087 1.713.26.483.173.938.454 1.365.846l-.961.928a2.508 2.508 0 0 0-.962-.58 3.892 3.892 0 0 0-1.198-.17c-.566 0-1.01.14-1.33.422-.32.282-.481.646-.481 1.092 0 .382.126.681.376.9.26.229.632.379 1.115.451l.585.082.544.082c.455.064.824.153 1.108.267.283.114.531.266.745.457.538.463.808 1.127.808 1.992 0 .881-.328 1.577-.988 2.087zM146.955 24.832c0 .6.159 1.073.475 1.419.315.346.757.518 1.323.518.381 0 .697-.054.947-.163.25-.11.506-.291.767-.546l.905.832c-.38.373-.768.646-1.163.819-.394.173-.89.26-1.484.26a3.98 3.98 0 0 1-1.267-.191 2.577 2.577 0 0 1-.997-.607c-.283-.278-.507-.646-.668-1.105-.163-.46-.244-1.007-.244-1.644 0-1.109.272-1.976.814-2.6.544-.622 1.27-.934 2.181-.934.938 0 1.672.305 2.201.914.53.61.794 1.415.794 2.415v.614h-4.584v-.001zm3.128-1.48a1.697 1.697 0 0 0-.146-.43 1.378 1.378 0 0 0-.536-.634 1.544 1.544 0 0 0-.857-.239c-.326 0-.613.08-.864.24-.25.158-.431.37-.544.634a1.823 1.823 0 0 0-.132.409c-.024.127-.04.304-.049.532h3.177a3.985 3.985 0 0 0-.049-.512zM157.326 22.595a1.853 1.853 0 0 0-.481-.355 1.353 1.353 0 0 0-.579-.11c-.39 0-.722.144-.996.43-.274.286-.412.662-.412 1.125v4.202h-1.42V20.97h1.392v.75c.186-.245.449-.445.788-.6.34-.155.703-.232 1.093-.232.344 0 .65.05.92.15.269.1.524.268.766.505l-1.071 1.052zM162.237 27.888h-1.156l-2.591-6.917h1.504l1.672 4.87 1.658-4.87h1.505zM165.98 19.607v-1.474h1.505v1.474h-1.505zm.042 8.281v-6.917h1.421v6.917h-1.421zM173.798 27.738c-.362.155-.79.232-1.282.232-.418 0-.812-.065-1.184-.198a2.813 2.813 0 0 1-1.003-.62c-.298-.282-.532-.653-.704-1.113-.172-.459-.257-.998-.257-1.616 0-.628.085-1.168.257-1.624.172-.455.407-.823.704-1.105a2.727 2.727 0 0 1 1.003-.613c.372-.128.766-.191 1.184-.191.492 0 .92.074 1.282.225.362.15.71.397 1.045.744l-.975.928c-.223-.246-.435-.417-.634-.512-.2-.095-.44-.143-.718-.143-.557 0-.994.204-1.31.613a1.661 1.661 0 0 0-.32.669 4.32 4.32 0 0 0-.098 1.009c0 .409.033.749.098 1.016.065.268.172.493.32.675.316.409.753.614 1.31.614.279 0 .518-.049.718-.144.2-.095.411-.266.634-.512l.975.914c-.334.348-.682.598-1.045.752zM177.291 24.832c0 .6.159 1.073.474 1.419.316.346.758.518 1.324.518.38 0 .696-.054.947-.163.25-.11.506-.291.766-.546l.906.832c-.381.373-.769.646-1.163.819-.394.173-.89.26-1.484.26a3.98 3.98 0 0 1-1.268-.191 2.577 2.577 0 0 1-.996-.607c-.283-.278-.507-.646-.669-1.105-.163-.46-.243-1.007-.243-1.644 0-1.109.271-1.976.814-2.6.544-.622 1.27-.934 2.18-.934.94 0 1.673.305 2.202.914.53.61.794 1.415.794 2.415v.614h-4.584v-.001zm3.128-1.48a1.697 1.697 0 0 0-.146-.43 1.378 1.378 0 0 0-.536-.634 1.544 1.544 0 0 0-.857-.239c-.326 0-.614.08-.864.24-.25.158-.432.37-.544.634a1.823 1.823 0 0 0-.132.409c-.024.127-.04.304-.049.532h3.176a3.985 3.985 0 0 0-.048-.512z"/></g></svg>