<svg width="80" height="30" xmlns="http://www.w3.org/2000/svg"><g fill="#848A94" fill-rule="nonzero"><path d="M29.25 29.83a.652.652 0 0 0 .655-.656V1.287h12.518c4.265 0 7.722 3.508 7.722 7.798V29.2c0 .353.278.656.656.656a.652.652 0 0 0 .656-.656V9.085C51.457 4.088 47.394 0 42.423 0H29.25a.652.652 0 0 0-.657.656V29.2c0 .353.303.63.656.63M9.06 1.312h4.744c4.29 0 7.748 3.483 7.748 7.773 0 .353.278.656.656.656a.652.652 0 0 0 .656-.656C22.864 4.088 18.801 0 13.83 0H9.085C3.735.025 0 3.306 0 8c0 .025 0 .05.025.076.05 3.634 3.458 6.183 6.764 6.561l4.618.43L16 15.52c2.927.277 5.577 3.028 5.577 5.779 0 4.164-3.28 7.167-7.798 7.167H9.06c-4.265.05-7.748-3.458-7.748-7.773a.652.652 0 0 0-.656-.656.668.668 0 0 0-.656.656c0 5.022 4.063 9.11 9.06 9.11H13.779c5.174 0 9.085-3.634 9.085-8.48-.025-3.406-3.18-6.737-6.763-7.065l-4.593-.455-4.618-.429C4.139 13.047 1.312 10.953 1.312 8v-.05c0-4.568 3.887-6.638 7.748-6.638M71.42 14.89L79.9 1.01c.176-.303.1-.707-.228-.884-.303-.176-.707-.1-.883.202l-8.505 13.905H58.448V.656A.652.652 0 0 0 57.792 0a.652.652 0 0 0-.656.656v28.492c0 .354.277.656.656.656a.652.652 0 0 0 .656-.656V15.521h11.836l8.505 13.98a.633.633 0 0 0 .555.303.507.507 0 0 0 .328-.1.652.652 0 0 0 .227-.884l-8.48-13.93z"/></g></svg>