<svg width="375" height="339" xmlns="http://www.w3.org/2000/svg" xmlns:xlink="http://www.w3.org/1999/xlink"><defs><path d="M130.872 88.412l225.677 20.277a5.249 5.249 0 0 1 4.734 5.915L334.54 316.936a5.249 5.249 0 0 1-5.75 4.533l-242.93-25.395a5.249 5.249 0 0 1-4.578-6.364l43.996-197.213a5.249 5.249 0 0 1 5.593-4.085z" id="b"/><filter x="-5.8%" y="-5.2%" width="111.8%" height="114.6%" filterUnits="objectBoundingBox" id="a"><feMorphology radius="2.5" in="SourceAlpha" result="shadowSpreadOuter1"/><feOffset dy="5" in="shadowSpreadOuter1" result="shadowOffsetOuter1"/><feGaussianBlur stdDeviation="7.5" in="shadowOffsetOuter1" result="shadowBlurOuter1"/><feColorMatrix values="0 0 0 0 0.196078431 0 0 0 0 0.196078431 0 0 0 0 0.368627451 0 0 0 1 0" in="shadowBlurOuter1"/></filter></defs><g fill="none" fill-rule="evenodd"><path fill="#EDF2F7" fill-rule="nonzero" d="M123.035 158.495l67.596-25.96 28.685-11.017 11.014 28.706 76.942 188.285 67.657-25.985L260.996 27.826.716 127.79l25.977 67.707 67.657-25.984z"/><g transform="rotate(31 303.056 129.82)"><use fill="#000" filter="url(#a)" xlink:href="#b"/><use fill="#3C4553" xlink:href="#b"/></g><path d="M63 225.348h145.976c43.046 0 77.941-34.776 77.941-77.674S252.022 70 208.977 70c-43.046 0-77.942 34.776-77.942 77.674 0 19.403 7.14 37.145 18.943 50.759" stroke="#D0D8E2" stroke-width="14"/><g fill="#FFF" fill-rule="nonzero"><path d="M200.274 163.113l-2.805-3.693-6.61-8.703-2.806-3.693 3.714-2.777 32.757-24.488-6.617-8.71-45.232 33.814 25.454 33.51 8.761-6.55z"/><path d="M194.562 147.94l32.76-24.49 6.616 8.71-32.76 24.49zM203.988 160.337l32.76-24.49 6.616 8.71-32.76 24.49z"/></g><path d="M267.472 225.259l87.076-.045" stroke="#2DEB8A" stroke-width="14"/><path fill="#2DEB8A" fill-rule="nonzero" d="M339.144 251.329l26.94-25.4-25.03-27.138-6.675 6.293 18.829 20.415-20.265 19.106z"/></g></svg>