<svg xmlns="http://www.w3.org/2000/svg" xmlns:xlink="http://www.w3.org/1999/xlink" width="1440" height="252" viewBox="0 0 1440 252">
    <defs>
        <path id="a" d="M1923.066 2575.996H1179.37c-49.213.22-95.779-34.247-126.357-93.536l-463.74-893.94c-30.77-59.022-42.24-136.481-31.119-210.168L723.615 263.59c10.829-73.845 43.068-135.99 87.487-168.64l670.654-496.172c44.268-33.042 95.947-33.042 140.214 0L2292.038 94.95c44.385 32.672 76.582 94.82 87.37 168.64l165.461 1114.762c11.068 73.687-.396 151.11-31.12 210.168l-463.739 893.94c-30.671 59.604-77.513 94.116-126.944 93.536z"/>
    </defs>
    <use fill="#3C4553" fill-rule="evenodd" opacity=".98" transform="rotate(93 1954.039 -254.432)" xlink:href="#a"/>
</svg>
