<svg width="1407" height="283" xmlns="http://www.w3.org/2000/svg" xmlns:xlink="http://www.w3.org/1999/xlink"><defs><linearGradient x1="59.4684%" y1="-102.6084%" x2="51.9976%" y2="53.4566%" id="b"><stop stop-color="#B6BAC1" offset="0%"/><stop stop-color="#3C4553" offset="100%"/></linearGradient><linearGradient x1="98.1151%" y1="46.9136%" x2="26.9386%" y2="56.1368%" id="c"><stop stop-color="#FFF" stop-opacity="0" offset="0%"/><stop stop-color="#FFF" offset="100%"/></linearGradient><linearGradient x1="98.1151%" y1="48.655%" x2="26.9386%" y2="52.6742%" id="d"><stop stop-color="#FFF" stop-opacity="0" offset="0%"/><stop stop-color="#FFF" offset="100%"/></linearGradient><path d="M811.4576 979.7634l-158.285-8.2954-71.6634-127.7644c-32.761-57.7252-44.972-133.4813-33.1317-205.5482L721.4272-432.8428c.0977-.6048.0442-.6214-.1605-.05l163.7752 8.583-73.5843 1404.0732z" id="a"/></defs><g transform="translate(-14.0035 -124.032)" fill="none" fill-rule="evenodd"><use fill="url(#b)" opacity=".98" transform="rotate(87 714.497 273.227)" xlink:href="#a"/><path fill="url(#c)" opacity=".18" transform="scale(-1 1) rotate(17 0 -4975.1103)" d="M1016.4503 68.009l-.0103 210.7102-494 .0241z"/><path fill="url(#d)" opacity=".18" transform="scale(-1 1) rotate(17 0 -7228.9208)" d="M826.6315 331.712l46.5873-19.7289 580.5243-.0284L874.5804 488.546z"/></g></svg>