<svg width="1903" height="283" xmlns="http://www.w3.org/2000/svg" xmlns:xlink="http://www.w3.org/1999/xlink"><defs><linearGradient x1="70.226%" y1="17.8272%" x2="62.1342%" y2="55.8779%" id="b"><stop stop-color="#B6BAC1" offset="0%"/><stop stop-color="#3C4553" offset="100%"/></linearGradient><linearGradient x1="98.1151%" y1="46.9136%" x2="26.9386%" y2="56.1368%" id="c"><stop stop-color="#FFF" stop-opacity="0" offset="0%"/><stop stop-color="#FFF" offset="100%"/></linearGradient><linearGradient x1="98.1151%" y1="48.7515%" x2="26.9386%" y2="52.4825%" id="d"><stop stop-color="#FFF" stop-opacity="0" offset="0%"/><stop stop-color="#FFF" offset="100%"/></linearGradient><path d="M1917.5962 2635.0287H1125.81c-52.3952.2155-101.972-33.4945-134.5274-91.4797l-493.7255-874.286c-32.7611-57.7252-44.972-133.4813-33.1318-205.5482l176.1609-1090.253c11.5292-72.2219 45.853-133.0003 93.144-164.9329l714.0204-485.2632c47.13-32.316 102.1503-32.316 149.2803 0l713.3953 485.2632c47.2548 31.9537 81.5342 92.7348 93.019 164.933l176.1608 1090.2529c11.7832 72.067-.422 147.788-33.1317 205.5482l-493.7255 874.286c-32.655 58.2935-82.5258 92.0464-135.1526 91.4797z" id="a"/></defs><g transform="translate(-594.0035 -124.032)" fill="none" fill-rule="evenodd"><use fill="url(#b)" opacity=".98" transform="rotate(87 1522 1167.0322)" xlink:href="#a"/><path fill="url(#c)" opacity=".18" transform="scale(-1 1) rotate(17 0 -10522.0788)" d="M1845.4503 68.009l-.0103 210.7102-494 .0241z"/><path d="M1588.1813 395.7728c26.277-30.3418 78.8787-60.452 157.805-90.3308l737.0517-.036-.0129 263.6867-971.8845-14.872c17.208-52.1232 30.2105-87.1207 39.0077-104.9924 12.4578-25.3084 25.6974-39.2118 38.033-53.4555z" fill="url(#d)" opacity=".18" transform="scale(-1 1) rotate(17 0 -12925.5874)"/></g></svg>