<svg xmlns="http://www.w3.org/2000/svg" xmlns:xlink="http://www.w3.org/1999/xlink" viewBox="0 0 96.23 87.46"><defs><style>.cls-1,.cls-6{fill:none;}.cls-2{isolation:isolate;}.cls-3{fill:#3c4553;}.cls-4{clip-path:url(#clip-path);}.cls-5{fill:#fff;}.cls-6{stroke:#2eea8a;stroke-miterlimit:10;stroke-width:4.58px;}</style><clipPath id="clip-path"><polygon class="cls-1" points="26.47 58.47 26.43 42.62 93.37 3.96 93.42 19.82 26.47 58.47"/></clipPath></defs><title>Element 24</title><g id="Ebene_2" data-name="Ebene 2"><g id="Ebene_1-2" data-name="Ebene 1"><g class="cls-2"><path class="cls-3" d="M51.36,86.92l43.33-28a3.35,3.35,0,0,0-.29-5.8L48.23,29.29a3.34,3.34,0,0,0-3.36.17L1.53,57.5a3.36,3.36,0,0,0,.29,5.8L48,87.09A3.36,3.36,0,0,0,51.36,86.92Z"/></g><g class="cls-2"><g class="cls-4"><path class="cls-5" d="M93.32,4,84.66,9,78.17,28.63l-6.59,3.8L78.07,12.8l-8.31,4.8L63.27,37.23,56.68,41,63.17,21.4l-8.31,4.8L48.37,45.83l-6.58,3.8L48.27,30,40,34.8,33.48,54.43l-6.59,3.8L33.38,38.6l-7,4,0,15.85,67-38.65-6.59,3.8L93.32,4m.05,0-.05,0,.1,15.82L93.37,4"/><polyline class="cls-3" points="39.96 34.8 33.38 38.6 26.89 58.23 33.48 54.43 39.96 34.8"/><polyline class="cls-3" points="54.86 26.2 48.27 30 41.79 49.63 48.37 45.83 54.86 26.2"/><polyline class="cls-3" points="69.76 17.6 63.17 21.4 56.68 41.03 63.27 37.23 69.76 17.6"/><polyline class="cls-3" points="84.66 9 78.07 12.8 71.58 32.43 78.17 28.63 84.66 9"/><polyline class="cls-3" points="93.32 4 86.83 23.62 93.42 19.82 93.32 4"/></g></g><polyline class="cls-6" points="93.42 41.6 93.42 3.96 26.43 42.62 26.43 80.25"/></g></g></svg>