<svg xmlns="http://www.w3.org/2000/svg" viewBox="0 0 169.75 169.75"><defs><style>.cls-1{fill:#edf2f6;}.cls-2,.cls-4{fill:#fff;}.cls-2{stroke:#edf2f6;}.cls-2,.cls-5,.cls-8{stroke-miterlimit:10;}.cls-3{fill:#d0d8e2;}.cls-5,.cls-8{fill:none;}.cls-5{stroke:#fff;stroke-width:1.7px;}.cls-6{fill:#3c4553;}.cls-7{fill:#b0becc;}.cls-8{stroke:#2eea8a;stroke-width:1.96px;}</style></defs><g id="Ebene_2" data-name="Ebene 2"><g id="Isolationsmodus"><rect class="cls-1" x="37.54" y="12.18" width="94.67" height="145.39" transform="translate(-35.16 84.88) rotate(-45)"/></g><g id="Ebene_1-2" data-name="Ebene 1"><rect class="cls-2" x="42.79" y="58.23" width="122.92" height="68.62" rx="2"/><rect class="cls-2" x="36.03" y="50.94" width="122.92" height="68.62" rx="2"/><rect class="cls-1" x="25.88" y="41.45" width="122.92" height="68.62" rx="2"/><path class="cls-3" d="M27.88,41.45H146.8a2,2,0,0,1,2,2V55a0,0,0,0,1,0,0H25.88a0,0,0,0,1,0,0V43.45a2,2,0,0,1,2-2Z"/><circle class="cls-4" cx="33.21" cy="47.96" r="2.26"/><circle class="cls-4" cx="44.79" cy="47.96" r="2.26"/><circle class="cls-4" cx="56.38" cy="47.96" r="2.26"/><line class="cls-5" x1="25.88" y1="54.97" x2="25.88" y2="92.74"/><path class="cls-6" d="M25.88,92.74l14.37-17a10.08,10.08,0,0,1,14.53-.89L72.43,91.17a10.08,10.08,0,0,0,13.14.47l11.19-9a10.08,10.08,0,0,1,13.16.48L114.11,87A10.07,10.07,0,0,0,128,86.8c8.17-8.07,20.76-20.3,20.76-19.08v40.35a2,2,0,0,1-2,2H27.88a2,2,0,0,1-2-2Z"/><polygon class="cls-7" points="129.34 99.69 129.19 125.92 136.17 113.61 149.82 115.17 129.34 99.69"/><path class="cls-8" d="M26,86.77l12.71-15a18.14,18.14,0,0,1,26.18-1.6L86.16,89.77a6.12,6.12,0,0,0,8,.28l13.48-10.8a18.13,18.13,0,0,1,23.69.86l5,4.67a6.12,6.12,0,0,0,8.45-.13l4-3.94"/></g></g></svg>