<svg width="3174" height="863" xmlns="http://www.w3.org/2000/svg" xmlns:xlink="http://www.w3.org/1999/xlink"><defs><path id="a" d="M0 0h3194v920H0z"/><linearGradient x1="61.520669%" y1="17.827196%" x2="56.911589%" y2="55.877923%" id="d"><stop stop-color="#A1A5AB" offset="0%"/><stop stop-color="#3C4553" offset="100%"/></linearGradient><path d="M2334.83569 3108.22201h-791.78623c-52.39519.21034-42.62331-336.92412-75.17871-393.52683l-493.725535-853.44136c-32.761068-56.34891-44.971975-130.29876-33.131746-200.64749L1117.17434 596.347193c11.52919-70.500019 45.85308-129.829354 93.14397-161.000652l714.02039-473.69357c47.13004-31.545568-50.35958-774.208929-3.22954-742.66336l713.39527 473.693569c47.2548 31.191819 81.53414 90.523784 93.01894 161.000653l328.67081 1806.922497c11.78313 70.34887-.42211 144.26438-33.13175 200.64749L2469.98821 3018.9234c-32.65502 56.90366-82.5257 89.85186-135.15252 89.29861z" id="c"/><linearGradient x1="72.506966%" y1="33.038509%" x2="39.212473%" y2="83.724763%" id="f"><stop stop-color="#FFF" stop-opacity="0" offset="0%"/><stop stop-color="#FFF" offset="100%"/></linearGradient><linearGradient x1="98.115081%" y1="48.786593%" x2="26.938574%" y2="52.412634%" id="g"><stop stop-color="#FFF" stop-opacity="0" offset="0%"/><stop stop-color="#FFF" offset="100%"/></linearGradient></defs><g transform="translate(-20)" fill="none" fill-rule="evenodd"><mask id="b" fill="#fff"><use xlink:href="#a"/></mask><g mask="url(#b)"><g transform="translate(-150 -1390)"><mask id="e" fill="#fff"><use xlink:href="#c"/></mask><use fill="url(#d)" opacity=".98" transform="rotate(87 1998.588146 1163.120766)" xlink:href="#c"/><g opacity=".177455" mask="url(#e)"><path fill="url(#f)" opacity=".396717" d="M717.306228 1307.15633l-79.052116-79.05986-186.289481-186.30772-79.052116-79.059858 79.052116-79.059857 697.126259-697.19452L962.634632 0 0 962.728892l717.306228 717.376468 186.456258-186.47452z" transform="scale(-1 1) rotate(62 -1251.462011 -1265.122892)"/><path fill="url(#g)" opacity=".396717" transform="scale(-1 1) rotate(17 -3556.960814 -8608.176563)" d="M479.583159 575.534075l986.031631-.048273-.01291 263.68674-986.031631.048273z"/><path fill="url(#g)" opacity=".729422" transform="scale(-1 1) rotate(17 -3792.489987 -9551.226876)" d="M745.162911 840.901654l986.031629-.048273-.01291 263.686739-986.031628.04827z"/></g></g></g></g></svg>