<svg xmlns="http://www.w3.org/2000/svg" xmlns:xlink="http://www.w3.org/1999/xlink" width="532" height="399" viewBox="0 0 532 399">
    <defs>
        <path id="prefix__d" d="M132.577 0H14.323C6.413 0 0 5.945 0 13.279v62.647c0 7.334 6.413 13.279 14.323 13.279H110.4l21.076 25.195V89.205h1.101c7.911 0 14.323-5.945 14.323-13.279V13.28C146.9 5.945 140.488 0 132.577 0"/>
        <path id="prefix__g" d="M.207.203l.724 5.042 4.396 30.504.725 5.086c1.11-.16 1.864-.52 2.552-1.448.702-.927.908-1.938.747-3.046L7.59 24.062l-1.19-8.186L4.636 3.601c-.16-1.113-.672-2.009-1.602-2.703C2.327.365 1.697.143.943.143c-.232 0-.475.021-.736.06"/>
        <path id="prefix__i" d="M0.136 0.043L4.901 0.043 4.901 8.268 0.136 8.268z"/>
        <path id="prefix__j" d="M8.265.578C6.837.765 4.276 1.13.251 2.046.047 3.172.001 4.492.068 5.708c.073 1.214.183 2.296.344 3.19.159.884.478 1.947.947 3.164.47 1.214.852 2.134 1.147 2.744.296.615.784 1.576 1.46 2.872.674 1.314 1.129 2.203 1.35 2.672 1.102.751 2.597 1.137 4.474 1.162l.114.001h.11c1.79-.008 3.496-.389 5.107-1.141 1.68-.786 2.744-1.847 3.186-3.172-.9-.522-1.638-.964-2.203-1.331-.56-.365-1.146-.825-1.765-1.38-.611-.551-1.05-1.083-1.319-1.603-.27-.515-.427-1.118-.464-1.823-.042-.702.108-1.435.436-2.202-.93-.716-1.494-1.64-1.704-2.777-.207-1.13-.032-2.248.53-3.35.548-1.088 1.397-1.925 2.552-2.509h-.362c-1.83 0-3.801.095-5.743.353"/>
        <path id="prefix__l" d="M13.466 9.13c-.03.022-.105.047-.127.067-.276.203-.584.407-.867.6-.173.133-.38.26-.568.39-.22.151-.447.302-.666.444-.24.162-.486.313-.724.463-.234.154-.475.304-.712.447-.514.313-1.222.638-1.73.922-2.604 1.457-5.23 2.581-8.066 3.39l.571 3.974 1.224 8.761.602 3.988s20.385 2.445 26.796 8.26l-.725-5.087-4.396-30.504-.724-5.042c-3.429 3.534-6.564 6.491-9.888 8.928"/>
        <path id="prefix__n" d="M0.077 0.224L10.954 0.224 10.954 21.513 0.077 21.513z"/>
        <filter id="prefix__a" width="111.8%" height="119.7%" x="-5.9%" y="-7%" filterUnits="objectBoundingBox">
            <feMorphology in="SourceAlpha" radius="3.5" result="shadowSpreadOuter1"/>
            <feOffset dy="7" in="shadowSpreadOuter1" result="shadowOffsetOuter1"/>
            <feGaussianBlur in="shadowOffsetOuter1" result="shadowBlurOuter1" stdDeviation="10.5"/>
            <feColorMatrix in="shadowBlurOuter1" values="0 0 0 0 0.196078431 0 0 0 0 0.196078431 0 0 0 0 0.368627451 0 0 0 1 0"/>
        </filter>
        <filter id="prefix__c" width="138.1%" height="144.5%" x="-19.1%" y="-15.7%" filterUnits="objectBoundingBox">
            <feMorphology in="SourceAlpha" radius="6" result="shadowSpreadOuter1"/>
            <feOffset dy="26" in="shadowSpreadOuter1" result="shadowOffsetOuter1"/>
            <feGaussianBlur in="shadowOffsetOuter1" result="shadowBlurOuter1" stdDeviation="11"/>
            <feColorMatrix in="shadowBlurOuter1" values="0 0 0 0 0.728609087 0 0 0 0 0.747979283 0 0 0 0 0.772192029 0 0 0 0.623634178 0"/>
        </filter>
        <filter id="prefix__e" width="179.9%" height="194.4%" x="-40%" y="-23.6%" filterUnits="objectBoundingBox">
            <feMorphology in="SourceAlpha" radius="8.5" result="shadowSpreadOuter1"/>
            <feOffset dy="29" in="shadowSpreadOuter1" result="shadowOffsetOuter1"/>
            <feGaussianBlur in="shadowOffsetOuter1" result="shadowBlurOuter1" stdDeviation="17"/>
            <feColorMatrix in="shadowBlurOuter1" values="0 0 0 0 0.41506657 0 0 0 0 0.420419934 0 0 0 0 0.427111639 0 0 0 0.503715035 0"/>
        </filter>
        <ellipse id="prefix__f" cx="50.05" cy="48.75" rx="50.05" ry="48.75"/>
        <rect id="prefix__b" width="414.014" height="248.905" x=".241" y=".258" rx="7.228"/>
    </defs>
    <g fill="none" fill-rule="evenodd">
        <g transform="translate(22) translate(43 48)">
            <use fill="#000" filter="url(#prefix__a)" xlink:href="#prefix__b"/>
            <use fill="#3C4553" xlink:href="#prefix__b"/>
            <path fill="#EDF2F7" d="M16.408 16.2h381.184c1.11 0 2.008.899 2.008 2.008V44.1H14.4V18.208c0-1.11.899-2.008 2.008-2.008z" opacity=".19"/>
            <g fill="#EDF2F7" transform="translate(27.9 24.3)">
                <ellipse cx="6.342" cy="5.853" rx="5.578" ry="5.572"/>
                <ellipse cx="24.935" cy="5.853" rx="5.578" ry="5.572"/>
                <ellipse cx="42.289" cy="5.853" rx="5.578" ry="5.572"/>
            </g>
        </g>
        <g transform="translate(22) translate(0 241)">
            <use fill="#000" filter="url(#prefix__c)" xlink:href="#prefix__d"/>
            <use fill="#FFF" xlink:href="#prefix__d"/>
            <path fill="#2FD281" d="M116.69 29.9H28.91c-.171 0-.31-.349-.31-.778v-8.844c0-.429.139-.778.31-.778h87.78c.171 0 .31.35.31.778v8.844c0 .429-.139.778-.31.778M116.69 50.7H28.91c-.171 0-.31-.349-.31-.778v-8.844c0-.429.139-.778.31-.778h87.78c.171 0 .31.349.31.778v8.844c0 .429-.139.778-.31.778M116.69 71.5H28.91c-.17 0-.31-.349-.31-.778v-8.844c0-.429.14-.778.31-.778h87.78c.17 0 .31.349.31.778v8.844c0 .429-.14.778-.31.778"/>
        </g>
        <g transform="translate(22) translate(394)">
            <use fill="#000" filter="url(#prefix__e)" xlink:href="#prefix__f"/>
            <use fill="#FFF" xlink:href="#prefix__f"/>
            <g transform="translate(67.566 21.13)">
                <mask id="prefix__h" fill="#fff">
                    <use xlink:href="#prefix__g"/>
                </mask>
                <path d="M.207.203l.724 5.042 4.396 30.504.725 5.086c1.11-.16 1.864-.52 2.552-1.448.702-.927.908-1.938.747-3.046L7.59 24.062l-1.19-8.186L4.636 3.601c-.16-1.113-.672-2.009-1.602-2.703C2.327.365 1.697.143.943.143c-.232 0-.475.021-.736.06" mask="url(#prefix__h)"/>
            </g>
            <g transform="translate(73.83 36.923)"/>
            <g transform="translate(31.348 53.535)">
                <mask id="prefix__k" fill="#fff">
                    <use xlink:href="#prefix__j"/>
                </mask>
                <path fill="#B6BAC1" d="M8.265.578C6.837.765 4.276 1.13.251 2.046.047 3.172.001 4.492.068 5.708c.073 1.214.183 2.296.344 3.19.159.884.478 1.947.947 3.164.47 1.214.852 2.134 1.147 2.744.296.615.784 1.576 1.46 2.872.674 1.314 1.129 2.203 1.35 2.672 1.102.751 2.597 1.137 4.474 1.162l.114.001h.11c1.79-.008 3.496-.389 5.107-1.141 1.68-.786 2.744-1.847 3.186-3.172-.9-.522-1.638-.964-2.203-1.331-.56-.365-1.146-.825-1.765-1.38-.611-.551-1.05-1.083-1.319-1.603-.27-.515-.427-1.118-.464-1.823-.042-.702.108-1.435.436-2.202-.93-.716-1.494-1.64-1.704-2.777-.207-1.13-.032-2.248.53-3.35.548-1.088 1.397-1.925 2.552-2.509h-.362c-1.83 0-3.801.095-5.743.353" mask="url(#prefix__k)"/>
            </g>
            <path fill="#3C4553" d="M44.997 40.956l-.572-3.975c2.836-.808 5.457-1.913 8.068-3.37-3.92 2.168-7.721 3.535-11.772 4.122L25.37 39.945c-1.402.203-2.503.822-3.36 1.965-.857 1.147-1.147 2.367-.95 3.768l.885 6.142c.204 1.406.845 2.615 1.992 3.468 1.143.859 2.393 1.26 3.802 1.06l3.896-.566-.018-.1c4.025-.907 6.576-1.331 8.005-1.52 2.071-.268 4.175-.39 6.101-.372.015-.011-.167-.003-.145-.01.483-.033 1.255-.103 1.264-.044l-.593-4.146-1.251-8.634z"/>
            <g transform="translate(44.42 21.13)">
                <mask id="prefix__m" fill="#fff">
                    <use xlink:href="#prefix__l"/>
                </mask>
                <path fill="#2FD281" d="M13.466 9.13c-.03.022-.105.047-.127.067-.276.203-.584.407-.867.6-.173.133-.38.26-.568.39-.22.151-.447.302-.666.444-.24.162-.486.313-.724.463-.234.154-.475.304-.712.447-.514.313-1.222.638-1.73.922-2.604 1.457-5.23 2.581-8.066 3.39l.571 3.974 1.224 8.761.602 3.988s20.385 2.445 26.796 8.26l-.725-5.087-4.396-30.504-.724-5.042c-3.429 3.534-6.564 6.491-9.888 8.928" mask="url(#prefix__m)"/>
            </g>
            <g>
                <g transform="translate(38.7 21.13) translate(0 32.406)">
                    <mask id="prefix__o" fill="#fff">
                        <use xlink:href="#prefix__n"/>
                    </mask>
                    <path fill="#3C4553" d="M8.751 15.869c-.559-.365-1.146-.824-1.764-1.38-.612-.551-1.051-1.083-1.32-1.603-.269-.515-.427-1.118-.463-1.823-.043-.702.108-1.435.436-2.203-.931-.716-1.495-1.638-1.705-2.776-.207-1.13-.031-2.248.53-3.35C5.014 1.646 5.862.809 7.017.226 5.733.216 4.37.256 2.994.362 1.967.937 1.199 1.727.69 2.734c-.56 1.102-.737 2.22-.529 3.35.21 1.138.774 2.06 1.704 2.776-.328.768-.478 1.5-.435 2.203.036.705.194 1.308.463 1.823.269.52.708 1.052 1.32 1.603.618.556 1.205 1.015 1.764 1.38.566.367 1.303.809 2.203 1.33-.441 1.326-1.505 2.387-3.186 3.173-1.049.49-2.137.822-3.264.997.53.084 1.096.135 1.707.143 1.873.025 3.654-.356 5.331-1.14 1.681-.786 2.745-1.847 3.186-3.172-.9-.522-1.637-.964-2.203-1.331" mask="url(#prefix__o)"/>
                </g>
                <path fill="#3C4553" d="M33.502 3.6C33.342 2.489 32.83 1.593 31.9.9 30.976.2 30.182.037 29.072.203l.725 5.042 4.396 30.504.724 5.086c1.11-.16 1.865-.52 2.552-1.448.702-.927.908-1.938.748-3.046l-1.763-12.279-1.189-8.186-1.763-12.275z" transform="translate(38.7 21.13)"/>
            </g>
        </g>
        <g fill-rule="nonzero">
            <path fill="#2FD281" d="M97.855 16.182c-1.043-3.898-4.115-6.982-7.998-8.03-7.014-1.92-35.241-1.92-35.241-1.92s-28.227.059-35.24 1.979c-3.884 1.047-6.956 4.13-8 8.029C9.522 23.28 9.522 38 9.522 38s0 14.72 1.912 21.818c1.044 3.898 4.116 6.982 8 8.03 7.012 1.92 35.24 1.92 35.24 1.92s28.227 0 35.24-1.92c3.884-1.048 6.956-4.132 8-8.03C99.825 52.778 99.825 38 99.825 38s-.058-14.72-1.97-21.818z" transform="translate(22) translate(196 145)"/>
            <path fill="#2FD281" d="M105.643 11.901c-1.248-4.663-4.922-8.352-9.566-9.604C87.689 0 53.931 0 53.931 0S20.172.07 11.784 2.366C7.14 3.62 3.466 7.308 2.218 11.971 0 20.39 0 38 0 38s0 17.608 2.288 26.099c1.247 4.663 4.921 8.352 9.566 9.604C20.24 76 54 76 54 76s33.759 0 42.146-2.297c4.645-1.252 8.319-4.941 9.566-9.604C108 55.678 108 38 108 38s-.07-17.608-2.357-26.099z" opacity=".402" transform="translate(22) translate(196 145)"/>
            <path fill="#FFF" d="M45.632 51.615L69.048 38 45.632 24.385z" transform="translate(22) translate(196 145)"/>
        </g>
    </g>
</svg>
