<svg xmlns="http://www.w3.org/2000/svg" viewBox="0 0 123.82 133.66"><defs><style>.cls-1,.cls-10,.cls-2,.cls-5,.cls-6,.cls-9{fill:none;}.cls-1{stroke:#b0becc;}.cls-1,.cls-10,.cls-2,.cls-5,.cls-6,.cls-7,.cls-9{stroke-miterlimit:10;}.cls-1,.cls-5,.cls-6,.cls-7{stroke-width:1.7px;}.cls-2{stroke:#cfd8e2;}.cls-10,.cls-2,.cls-5,.cls-9{stroke-linecap:round;}.cls-2,.cls-9{stroke-width:1.78px;}.cls-3{fill:#edf2f6;}.cls-4{fill:#a2aeba;}.cls-5,.cls-7{stroke:#fff;}.cls-6{stroke:#2eea8a;}.cls-7{fill:#505660;}.cls-8{fill:#b0becc;}.cls-9{stroke:#edf2f6;}.cls-10{stroke:#3c4553;stroke-width:1.73px;}</style></defs><g id="Ebene_2" data-name="Ebene 2"><g id="Ebene_1-2" data-name="Ebene 1"><circle class="cls-1" cx="31.28" cy="9.56" r="4.93"/><line class="cls-2" x1="104.22" y1="36.59" x2="116.08" y2="36.59"/><line class="cls-2" x1="110.15" y1="42.52" x2="110.15" y2="30.66"/></g><g id="Ebene_5" data-name="Ebene 5"><polygon class="cls-3" points="117.42 87.07 70.83 133.66 0 62.84 62.8 0 82.04 19.23 65.81 35.46 117.42 87.07"/><rect class="cls-4" x="32.85" y="27.27" width="51.71" height="64.28" rx="21.18"/><path class="cls-5" d="M63.29,34.16A14.4,14.4,0,0,1,77.67,48.55"/><circle class="cls-6" cx="67.47" cy="58.84" r="4.9"/><line class="cls-6" x1="62.57" y1="58.84" x2="62.57" y2="99.73"/><circle class="cls-6" cx="49.2" cy="58.84" r="4.9"/><line class="cls-6" x1="54.1" y1="58.84" x2="54.1" y2="99.73"/><rect class="cls-7" x="41.52" y="103.51" width="34.01" height="7.77" rx="3.89"/><rect class="cls-7" x="41.52" y="96.15" width="34.01" height="7.77" rx="3.89"/><rect class="cls-7" x="41.52" y="88.78" width="34.01" height="7.77" rx="3.89"/><rect class="cls-7" x="53.07" y="111.28" width="10.91" height="7.77" rx="3.89"/></g><g id="_Ebene_" data-name="&lt;Ebene&gt;"><circle class="cls-8" cx="95.01" cy="87.36" r="2.47"/><line class="cls-9" x1="6.9" y1="87.36" x2="15.29" y2="95.74"/><line class="cls-9" x1="6.9" y1="95.74" x2="15.29" y2="87.36"/><line class="cls-10" x1="106.91" y1="68.84" x2="122.96" y2="84.89"/><line class="cls-10" x1="97.48" y1="59.41" x2="100.41" y2="62.34"/></g></g></svg>