<svg width="407" height="291" xmlns="http://www.w3.org/2000/svg" xmlns:xlink="http://www.w3.org/1999/xlink"><defs><path d="M170.768 229.193l158.9-124.388a5.599 5.599 0 0 1 9.049 4.532l-4.204 190.04a13.297 13.297 0 0 1-5.796 10.688l-157.81 107.76a5.599 5.599 0 0 1-8.753-4.825l6.47-179.6c.06-1.65.844-3.19 2.144-4.207z" id="b"/><filter x="-9.1%" y="-1.3%" width="118.3%" height="109.3%" filterUnits="objectBoundingBox" id="a"><feMorphology radius="2.5" in="SourceAlpha" result="shadowSpreadOuter1"/><feOffset dy="14" in="shadowSpreadOuter1" result="shadowOffsetOuter1"/><feGaussianBlur stdDeviation="6" in="shadowOffsetOuter1" result="shadowBlurOuter1"/><feColorMatrix values="0 0 0 0 0.604040482 0 0 0 0 0.618538996 0 0 0 0 0.636662138 0 0 0 0.666247815 0" in="shadowBlurOuter1"/></filter><path d="M170.768 229.193l158.9-124.388a5.599 5.599 0 0 1 9.049 4.532l-4.204 190.04a13.297 13.297 0 0 1-5.796 10.688l-157.81 107.76a5.599 5.599 0 0 1-8.753-4.825l6.47-179.6c.06-1.65.844-3.19 2.144-4.207z" id="d"/><filter x="-9.1%" y="-1.3%" width="118.3%" height="109.3%" filterUnits="objectBoundingBox" id="c"><feMorphology radius="2.5" in="SourceAlpha" result="shadowSpreadOuter1"/><feOffset dy="14" in="shadowSpreadOuter1" result="shadowOffsetOuter1"/><feGaussianBlur stdDeviation="6" in="shadowOffsetOuter1" result="shadowBlurOuter1"/><feColorMatrix values="0 0 0 0 0.604040482 0 0 0 0 0.618538996 0 0 0 0 0.636662138 0 0 0 0.666247815 0" in="shadowBlurOuter1"/></filter></defs><g fill="none" fill-rule="evenodd"><path fill="#EDF2F7" fill-rule="nonzero" d="M117.614 130.177l62.381-27.825 26.472-11.808 11.776 26.5 81.674 173.584 62.436-27.85L241.126.188.93 107.331l27.777 62.505 62.437-27.85z"/><g transform="rotate(59 317.137 197.353)"><use fill="#000" filter="url(#a)" xlink:href="#b"/><use fill="#3C4553" xlink:href="#b"/></g><g transform="rotate(59 317.137 197.353)"><use fill="#000" filter="url(#c)" xlink:href="#d"/><use fill="#3C4553" xlink:href="#d"/></g><g fill-rule="nonzero"><path d="M342.716 146.662l7.72 1.13a1.166 1.166 0 0 0 1.325-.999l6.11-45.327a1.166 1.166 0 0 0-.987-1.31l-45.26-6.622a1.166 1.166 0 0 0-1.325.998l-1.042 7.732a1.166 1.166 0 0 0 .987 1.31l29.306 4.287-106.522 80.263a1.166 1.166 0 0 0-.23 1.633l4.73 6.278a1.167 1.167 0 0 0 1.634.23l106.523-80.263-3.956 29.35a1.166 1.166 0 0 0 .987 1.31z" fill="#D0D8E2"/><path d="M85.569 95.38l-9.599-1.35a1.46 1.46 0 0 1-1.24-1.648l7.906-56.338a1.457 1.457 0 0 1 1.646-1.24l56.336 7.928a1.46 1.46 0 0 1 1.242 1.647l-1.347 9.599a1.457 1.457 0 0 1-1.647 1.24l-36.464-5.131 100.45 133.298a1.458 1.458 0 0 1-.287 2.042l-7.74 5.833a1.458 1.458 0 0 1-2.042-.287L92.333 57.674 87.215 94.14a1.457 1.457 0 0 1-1.646 1.242v-.001z" fill="#2DEB8A"/></g><g fill="#EDF2F7"><path d="M179.512 131.528l14.369-10.827 2.166 2.874-14.37 10.827zM192.106 148.62l14.37-10.827 2.165 2.873-14.37 10.828zM204.7 164.813l14.37-10.828 2.166 2.874-14.37 10.827z"/></g><g fill="#FFF"><path d="M299.334 160.282l10.828 14.369-2.873 2.165-10.828-14.368zM283.142 172.876l10.827 14.369-2.873 2.165-10.828-14.368zM266.049 185.47l10.828 14.369-2.874 2.165-10.828-14.368z"/></g></g></svg>