<?xml version="1.0" encoding="UTF-8"?>
<svg height="100%" width="100%" xmlns="http://www.w3.org/2000/svg">
	<defs>
		<font horiz-adv-x="1139" id="web">
			<font-face alphabetic="0" ascent="1854" descent="-434" font-family="" panose-1="2 11 8 3 3 0 0 0 0 3" units-per-em="2048"/>
			<missing-glyph d="M129 1409H897V0H129ZM256 1282V129H768V1282Z" horiz-adv-x="1024"/>
			<glyph d="" horiz-adv-x="569" unicode=" "/>
			<glyph d="M332 1409H627L403 426H172ZM242 301Q316 301 361 258T406 145Q406 76 360 33T242 -10Q165 -10 120 32T76 145Q76 218 121 259T242 301Z" horiz-adv-x="682" unicode="!"/>
			<glyph d="M272 1409H545L418 897H199ZM698 1409H973L844 897H625Z" horiz-adv-x="971" unicode="&quot;"/>
			<glyph d="M543 1395H717L559 1010H846L1006 1395H1182L1022 1010H1186L1157 862H961L825 530H1040L1012 381H766L610 0H434L588 381H301L147 0H-27L127 381H-8L20 530H188L324 862H137L166 1010H383ZM500 862L362 530H651L786 862Z" unicode="#"/>
			<glyph d="M674 1520H782L755 1378Q868 1364 961 1319T1133 1196L969 1024Q855 1133 712 1158L651 841Q867 785 957 691T1047 455Q1047 238 900 130T498 23H493L459 -152H350L385 30Q252 46 147 102T-43 254L133 430Q185 372 262 324T430 259L498 610H496Q328 659 227 744T127 985Q127 1172 270 1278T648 1384ZM605 1164Q511 1160 453 1121T395 1012Q395 954 432 923T548 869ZM601 581L537 250Q651 253 713 296T776 420Q776 485 732 519T601 581Z" unicode="$"/>
			<glyph d="M510 1425Q646 1425 736 1348T827 1102Q827 844 714 686T399 528Q257 528 173 613T90 858Q90 1108 201 1266T510 1425ZM1393 1409H1612L426 0H209ZM504 1249Q408 1249 355 1133T303 862Q303 776 330 740T414 705Q507 705 560 827T614 1104Q614 1183 586 1216T504 1249ZM1415 881Q1551 881 1641 805T1731 561Q1731 304 1618 144T1305 -16Q1163 -16 1077 68T991 313Q991 561 1104 721T1415 881ZM1407 707Q1311 707 1258 588T1206 307Q1206 228 1234 195T1321 162Q1412 162 1465 285T1518 561Q1518 641 1490 674T1407 707Z" horiz-adv-x="1821" unicode="%"/>
			<glyph d="M721 1417Q881 1417 976 1343T1071 1139Q1071 1033 1002 948T709 750L926 442Q1027 574 1104 745L1300 668Q1181 421 1049 268L1235 4L1233 0H954L877 113Q685 -20 446 -20Q256 -20 141 77T27 338Q27 484 112 593T401 805Q360 879 339 944T319 1081Q319 1234 427 1325T721 1417ZM719 1247Q640 1247 595 1201T551 1085Q551 1004 610 899Q755 964 801 1011T848 1133Q848 1186 812 1216T719 1247ZM504 645Q391 582 336 517T281 356Q281 274 336 227T483 180Q629 180 760 279Z" horiz-adv-x="1421" unicode="&amp;"/>
			<glyph d="M246 1409H518L391 897H172Z" horiz-adv-x="487" unicode="'"/>
			<glyph d="M530 1485H831Q557 1173 433 879T309 256Q309 86 347 -94T461 -426H193Q114 -281 72 -104T31 242Q31 593 155 892T530 1485Z" horiz-adv-x="682" unicode="("/>
			<glyph d="M154 1485H424Q503 1329 543 1153T584 803Q584 467 455 158T84 -426H-217Q42 -140 173 157T305 788Q305 963 267 1143T154 1485Z" horiz-adv-x="682" unicode=")"/>
			<glyph d="M430 1421L643 1380L571 1116L823 1174L852 967L594 954L737 711L532 627L438 901L244 682L84 840L311 1010L78 1118L182 1298L397 1149Z" horiz-adv-x="797" unicode="*"/>
			<glyph d="M475 1200H700V793H1102V569H700V162H475V569H76V793H475Z" horiz-adv-x="1196" unicode="+"/>
			<glyph d="M186 319Q259 319 302 270T346 133Q346 14 262 -120T61 -344L-37 -252Q24 -195 69 -135T135 -8Q80 7 48 50T16 152Q16 227 62 273T186 319Z" horiz-adv-x="569" unicode=","/>
			<glyph d="M70 653H590L543 410H23Z" horiz-adv-x="682" unicode="-"/>
			<glyph d="M195 322Q269 322 313 276T358 156Q358 82 313 36T195 -10Q118 -10 73 34T29 156Q29 233 73 277T195 322Z" horiz-adv-x="569" unicode="."/>
			<glyph d="M457 1485H709L125 -41H-131Z" horiz-adv-x="569" unicode="/"/>
			<glyph d="M686 1430Q868 1430 974 1320T1081 965Q1081 767 1009 509T801 115T451 -20Q265 -20 158 93T51 446Q51 613 120 881T321 1289T686 1430ZM653 1190Q544 1190 486 1098T379 774T330 428Q330 316 367 268T483 221Q590 221 649 317T757 640T805 981Q805 1095 767 1142T653 1190Z" unicode="0"/>
			<glyph d="M627 1409H897L666 219H987L946 0H-6L35 219H385L563 1143L182 928L231 1180Z" unicode="1"/>
			<glyph d="M653 1430Q855 1430 970 1335T1085 1075Q1085 982 1048 907T956 773T792 617L705 539L371 231H967L922 0H-63L-27 195L580 753Q732 891 766 943T801 1053Q801 1115 757 1150T631 1186Q544 1186 458 1148T287 1049L147 1253Q271 1342 392 1386T653 1430Z" unicode="2"/>
			<glyph d="M649 1430Q856 1430 973 1335T1090 1087Q1090 940 1002 847T752 725V721Q879 690 941 606T1004 414Q1004 208 864 92T483 -23Q322 -23 208 23T-4 162L154 360Q241 286 319 250T487 215Q594 215 655 267T717 422Q717 525 650 561T475 598H389L434 834H526Q654 834 729 887T805 1044Q805 1115 757 1155T629 1196Q551 1196 477 1167T322 1085L186 1278Q301 1357 413 1393T649 1430Z" unicode="3"/>
			<glyph d="M709 1409H1077L899 496H1087L1047 287H858L803 0H537L590 287H-51L-10 494ZM784 1206Q761 1169 726 1118T666 1036L305 578Q294 563 268 531L240 496H631L733 1020Q739 1050 756 1112T784 1206Z" unicode="4"/>
			<glyph d="M291 1409H1130L1085 1180H498L399 815Q504 893 655 893Q832 893 942 777T1053 485Q1053 253 898 116T483 -20Q345 -20 234 13T8 121L145 344Q231 284 314 251T498 219Q617 219 690 287T764 469Q764 557 708 607T563 657Q493 657 443 635T344 567L109 686Z" unicode="5"/>
			<glyph d="M709 1430Q811 1430 905 1397T1100 1288L954 1085Q885 1139 822 1164T686 1190Q571 1190 488 1085T365 772Q484 905 668 905Q820 905 923 797T1026 520Q1026 279 882 129T506 -20Q284 -20 164 110T45 479Q45 681 120 928T344 1302T709 1430ZM549 682Q447 682 386 606T326 420Q326 326 374 271T508 217Q613 217 675 296T737 489Q737 580 687 631T549 682Z" unicode="6"/>
			<glyph d="M225 1409H1186L1143 1186L416 0H106L854 1178H180Z" unicode="7"/>
			<glyph d="M680 1430Q876 1430 992 1335T1108 1081Q1108 950 1021 852T791 733V729Q895 697 957 619T1020 416Q1020 223 871 101T467 -20Q244 -20 123 82T2 360Q2 516 103 621T358 758V762Q172 847 172 1044Q172 1219 308 1324T680 1430ZM653 1212Q564 1212 506 1162T449 1020Q449 944 488 896T621 848Q719 848 771 905T823 1044Q823 1125 778 1168T653 1212ZM535 631Q418 631 354 566T291 393Q291 306 342 252T494 199Q597 199 664 264T731 436Q731 521 684 576T535 631Z" unicode="8"/>
			<glyph d="M637 1430Q857 1430 973 1297T1090 920Q1090 745 1020 497T801 115T440 -20Q323 -20 225 10T29 111L162 328Q234 272 299 244T440 217Q559 217 646 323T774 637Q715 563 642 525T475 487Q314 487 213 598T113 889Q113 1131 257 1280T637 1430ZM629 1192Q526 1192 463 1113T401 920Q401 821 447 767T582 713Q685 713 747 792T809 989Q809 1083 761 1137T629 1192Z" unicode="9"/>
			<glyph d="M387 1085Q461 1085 506 1040T551 920Q551 846 505 800T387 754Q311 754 266 799T221 920Q221 995 266 1040T387 1085ZM240 322Q314 322 358 276T403 156Q403 82 358 36T240 -10Q163 -10 118 34T74 156Q74 233 118 277T240 322Z" horiz-adv-x="682" unicode=":"/>
			<glyph d="M387 1085Q461 1085 506 1040T551 920Q551 846 505 800T387 754Q311 754 266 799T221 920Q221 995 266 1040T387 1085ZM241 319Q314 319 357 270T401 133Q401 14 317 -120T116 -344L18 -252Q79 -195 124 -135T190 -8Q135 7 103 50T71 152Q71 227 117 273T241 319Z" horiz-adv-x="682" unicode=";"/>
			<glyph d="M1102 1229V1001L270 676L1102 352V125L76 516V838Z" horiz-adv-x="1196" unicode="&lt;"/>
			<glyph d="M76 1065H1102V842H76ZM76 512H1102V291H76Z" horiz-adv-x="1196" unicode="="/>
			<glyph d="M76 1229L1102 838V516L76 125V352L907 676L76 1001Z" horiz-adv-x="1196" unicode="&gt;"/>
			<glyph d="M715 1430Q931 1430 1053 1335T1176 1073Q1176 984 1140 911T1029 777T846 659T691 552T635 426H371Q388 553 463 646T670 811T847 930T893 1055Q893 1121 843 1162T698 1204Q607 1204 517 1157T350 1034L197 1206Q297 1310 427 1370T715 1430ZM463 301Q537 301 582 258T627 145Q627 76 581 33T463 -10Q386 -10 341 32T297 145Q297 218 342 259T463 301Z" horiz-adv-x="1231" unicode="?"/>
			<glyph d="M1151 1485Q1489 1485 1681 1300T1874 801Q1874 500 1740 302T1386 104Q1291 104 1230 147T1155 283H1153Q1080 180 999 131T825 82Q663 82 579 180T496 451Q496 720 638 911T1001 1102Q1185 1102 1243 934H1245Q1252 971 1265 1019T1284 1081H1477Q1463 1035 1417 801L1350 449Q1335 381 1335 344Q1335 303 1353 282T1413 262Q1536 262 1614 422T1692 797Q1692 1040 1544 1178T1141 1317Q756 1317 514 1068T272 440Q272 185 423 35T842 -115Q1113 -115 1374 39L1454 -100Q1333 -174 1171 -228T829 -283Q486 -283 287 -92T88 410Q88 717 221 962T596 1346T1151 1485ZM1004 928Q867 928 784 791T702 459Q702 360 741 311T866 262Q947 262 1029 331T1150 504T1188 709Q1188 821 1136 874T1004 928Z" horiz-adv-x="1997" unicode="@"/>
			<glyph d="M684 1409H1032L1270 0H977L930 340H373L190 0H-104ZM815 1192Q807 1167 776 1100T717 981L491 561H899L834 1034Q828 1072 821 1122T815 1192Z" horiz-adv-x="1436" unicode="A"/>
			<glyph d="M274 1409H831Q1054 1409 1180 1325T1307 1096Q1307 951 1220 862T977 741Q1091 721 1162 640T1233 446Q1233 234 1058 117T598 0H0ZM524 1178L461 850H713Q848 850 928 896T1008 1030Q1008 1111 947 1144T772 1178ZM414 614L340 233H618Q763 233 848 287T934 446Q934 539 872 576T702 614Z" horiz-adv-x="1386" unicode="B"/>
			<glyph d="M874 1430Q1038 1430 1172 1379T1430 1206L1243 1014Q1163 1088 1074 1133T864 1178Q633 1178 501 1014T369 573Q369 417 461 325T711 233Q829 233 932 274T1169 432L1329 231Q1175 94 1025 37T694 -20Q404 -20 237 144T70 569Q70 949 292 1189T874 1430Z" horiz-adv-x="1454" unicode="C"/>
			<glyph d="M274 1409H741Q1048 1409 1220 1254T1393 817Q1393 450 1166 225T557 0H0ZM520 1161L344 248H575Q806 248 948 400T1090 795Q1090 977 990 1069T711 1161Z" horiz-adv-x="1479" unicode="D"/>
			<glyph d="M274 1409H1288L1239 1161H520L457 834H1114L1067 584H410L344 248H1104L1055 0H0Z" horiz-adv-x="1272" unicode="E"/>
			<glyph d="M274 1409H1251L1202 1161H520L451 795H1110L1061 545H401L295 0H0Z" horiz-adv-x="1190" unicode="F"/>
			<glyph d="M893 1430Q1071 1430 1204 1374T1446 1212L1255 1016Q1100 1178 877 1178Q639 1178 504 1015T369 584Q369 420 461 325T721 231Q880 231 998 309T1141 514L1143 524H809L856 764H1460L1311 0H1065L1095 158Q1021 73 914 26T676 -20Q399 -20 234 146T70 582Q70 953 301 1191T893 1430Z" horiz-adv-x="1583" unicode="G"/>
			<glyph d="M274 1409H569L463 860H1077L1184 1409H1479L1204 0H909L1026 596H412L295 0H0Z" horiz-adv-x="1479" unicode="H"/>
			<glyph d="M274 1409H569L295 0H0Z" horiz-adv-x="569" unicode="I"/>
			<glyph d="M831 1409H1126L938 446Q891 205 761 92T420 -20Q277 -20 169 33T-29 211L178 381Q237 305 296 268T428 231Q604 231 651 481Z" horiz-adv-x="1128" unicode="J"/>
			<glyph d="M272 1409H567L442 774L1122 1409H1499L813 792L1239 0H924L603 620L381 457L293 0H0Z" horiz-adv-x="1397" unicode="K"/>
			<glyph d="M274 1409H569L344 248H1018L969 0H0Z" horiz-adv-x="1169" unicode="L"/>
			<glyph d="M272 1409H686L776 621Q782 571 789 474T799 344L852 471Q892 567 918 616L1317 1409H1745L1470 0H1208L1380 885Q1398 973 1422 1075T1454 1206L1372 1026Q1309 889 1272 815L858 0H608L514 819Q507 882 493 1020T475 1206L458 1062Q445 952 432 887L262 0H0Z" horiz-adv-x="1745" unicode="M"/>
			<glyph d="M272 1409H633L999 268Q1002 291 1014 370T1040 524L1214 1409H1477L1202 0H838L473 1130Q470 1105 458 1027T434 893L262 0H0Z" horiz-adv-x="1479" unicode="N"/>
			<glyph d="M887 1430Q1177 1430 1346 1273T1516 852Q1516 476 1289 228T707 -20Q410 -20 243 140T76 573Q76 941 305 1185T887 1430ZM866 1178Q640 1178 507 1011T375 582Q375 412 468 322T735 233Q958 233 1085 397T1212 827Q1212 996 1120 1087T866 1178Z" horiz-adv-x="1593" unicode="O"/>
			<glyph d="M272 1409H829Q1072 1409 1204 1292T1337 985Q1337 752 1166 613T725 475H385L293 0H0ZM518 1159L434 723H737Q876 723 956 793T1036 981Q1036 1066 977 1112T803 1159Z" horiz-adv-x="1366" unicode="P"/>
			<glyph d="M887 1430Q1177 1430 1346 1273T1516 852Q1516 617 1423 424T1164 117L1292 -115L1038 -236L919 6Q818 -20 707 -20Q410 -20 243 140T76 573Q76 941 305 1185T887 1430ZM866 1178Q640 1178 507 1011T375 582Q375 412 468 322T735 233Q768 233 806 238L741 369L967 475L1038 346Q1124 425 1168 550T1212 827Q1212 996 1120 1087T866 1178Z" horiz-adv-x="1593" unicode="Q"/>
			<glyph d="M276 1409H854Q1088 1409 1219 1297T1350 995Q1350 825 1243 713T952 567L1227 0H907L682 514H397L297 0H2ZM522 1159L446 764H758Q900 764 975 821T1051 977Q1051 1066 992 1112T821 1159Z" horiz-adv-x="1405" unicode="R"/>
			<glyph d="M731 1430Q898 1430 1023 1381T1247 1229L1071 1047Q1000 1114 910 1155T711 1196Q602 1196 535 1153T469 1032Q469 919 621 881T893 799T1089 667T1167 440Q1167 210 1010 95T580 -20Q385 -20 243 42T-4 227L186 410Q257 331 365 277T598 223Q731 223 806 269T881 403Q881 460 847 495T763 550T614 594L569 606Q396 653 289 745T182 1004Q182 1203 333 1316T731 1430Z" horiz-adv-x="1290" unicode="S"/>
			<glyph d="M160 1409H1325L1276 1161H840L614 0H319L545 1161H111Z" horiz-adv-x="1210" unicode="T"/>
			<glyph d="M262 1409H557L393 571Q383 514 383 461Q383 352 459 291T668 231Q811 231 904 312T1030 561L1196 1409H1491L1319 528Q1265 253 1090 116T643 -20Q381 -20 232 97T84 430Q84 499 102 598Z" horiz-adv-x="1479" unicode="U"/>
			<glyph d="M152 1409H451L565 504Q574 431 580 347T588 238Q598 262 635 345T711 504L1176 1409H1491L719 0H379Z" horiz-adv-x="1366" unicode="V"/>
			<glyph d="M137 1409H412L455 594Q459 515 460 400L461 248Q477 292 526 422T608 629L942 1409H1260L1296 514L1305 248Q1316 282 1356 393T1434 596L1769 1409H2066L1430 0H1079L1053 811L1051 892Q1047 1028 1047 1116Q1034 1080 994 976T930 815L582 0H227Z" horiz-adv-x="1933" unicode="W"/>
			<glyph d="M199 1409H498L718 912L1120 1409H1446L876 728L1212 0H918L670 559L215 0H-117L516 754Z" horiz-adv-x="1366" unicode="X"/>
			<glyph d="M170 1409H457L690 813L1141 1409H1468L805 578L694 0H399L512 578Z" horiz-adv-x="1366" unicode="Y"/>
			<glyph d="M276 1409H1288L1247 1194L324 242H1104L1057 0H-74L-33 219L882 1167H229Z" horiz-adv-x="1251" unicode="Z"/>
			<glyph d="M266 1485H809L768 1274H492L203 -213H479L438 -426H-104Z" horiz-adv-x="682" unicode="["/>
			<glyph d="M172 1485H393L406 -41H178Z" horiz-adv-x="569" unicode="\"/>
			<glyph d="M176 1485H719L348 -426H-195L-154 -213H125L414 1274H135Z" horiz-adv-x="682" unicode="]"/>
			<glyph d="M406 1409H727L1120 514H891L565 1266L242 514H14Z" horiz-adv-x="1196" unicode="^"/>
			<glyph d="M-174 -215H1010L985 -346H-199Z" unicode="_"/>
			<glyph d="M193 1501H430L653 1214L647 1184H498L184 1458Z" horiz-adv-x="682" unicode="`"/>
			<glyph d="M604 1102Q801 1102 906 1020T1012 774Q1012 721 997 653L932 319Q898 148 883 0H629Q636 86 647 160H641Q575 71 497 25T309 -20Q171 -20 81 64T-8 287Q-8 459 123 553T479 651L717 655L723 684Q733 729 733 766Q733 828 692 856T571 885Q504 885 428 864T252 791L162 987Q275 1045 383 1073T604 1102ZM682 481L539 479Q420 477 352 441T285 319Q285 262 322 227T422 193Q515 193 583 254T672 428Z" unicode="a"/>
			<glyph d="M295 1485H575L500 1094Q491 1052 478 994T459 907H463Q600 1102 829 1102Q982 1102 1069 987T1157 682Q1157 421 1022 200T635 -20Q522 -20 441 30T324 178H322Q282 22 272 0H2Q28 101 55 252ZM686 877Q599 877 527 817T417 636T379 428Q379 309 434 256T573 203Q661 203 728 268T827 450T860 659Q860 761 814 819T686 877Z" horiz-adv-x="1262" unicode="b"/>
			<glyph d="M655 1102Q784 1102 876 1058T1040 940L874 770Q785 847 738 863T637 879Q488 879 409 745T330 430Q330 328 385 266T528 205Q607 205 677 232T844 317L944 125Q849 51 746 15T510 -20Q290 -20 162 109T35 449Q35 630 112 782T331 1018T655 1102Z" horiz-adv-x="1057" unicode="c"/>
			<glyph d="M989 1485H1270L1026 236Q1014 168 1006 104T997 0H727Q727 23 731 70T745 174H741Q611 -20 387 -20Q230 -20 139 98T49 410Q49 569 109 737T287 1004T565 1102Q680 1102 757 1049T877 903H879Q890 980 913 1094ZM633 881Q547 881 480 817T378 642T344 430Q344 321 392 262T524 203Q607 203 678 266T785 450T821 662Q821 777 767 829T633 881Z" horiz-adv-x="1262" unicode="d"/>
			<glyph d="M645 1102Q845 1102 949 997T1053 698Q1053 647 1045 594T1022 467H326Q319 427 319 401Q319 307 372 250T535 193Q618 193 688 217T860 295L946 106Q750 -20 506 -20Q284 -20 157 95T31 420Q31 572 92 743T301 1008T645 1102ZM623 897Q529 897 460 838T365 659H791Q795 688 795 715Q795 805 750 851T623 897Z" unicode="e"/>
			<glyph d="M680 1485Q768 1485 846 1466L805 1266Q763 1276 711 1276Q646 1276 608 1241T555 1126L547 1081H768L727 872H506L250 -426H-31L225 872H68L109 1081H266L281 1153Q317 1331 413 1408T680 1485Z" horiz-adv-x="692" unicode="f"/>
			<glyph d="M561 1102Q677 1102 754 1049T870 903H872L885 952Q915 1067 922 1081H1190Q1165 980 1141 846L975 0Q893 -426 430 -426Q296 -426 191 -400T-18 -313L86 -104Q247 -203 434 -203Q533 -203 602 -145T697 6T741 193H737Q604 -4 397 -4Q232 -4 138 110T45 410Q45 569 105 737T283 1004T561 1102ZM629 881Q543 881 476 817T374 642T340 430Q340 332 388 275T516 219Q603 219 675 282T782 465T817 662Q817 777 763 829T629 881Z" horiz-adv-x="1235" unicode="g"/>
			<glyph d="M295 1485H575L498 1083Q478 984 455 897H459Q526 996 619 1050T831 1104Q966 1104 1047 1020T1128 801Q1128 726 1108 625L987 0H707L827 608Q838 660 838 707Q838 780 801 821T690 862Q586 862 506 786T401 580L289 0H8Z" horiz-adv-x="1251" unicode="h"/>
			<glyph d="M432 1540Q495 1540 533 1503T571 1405Q571 1325 524 1275T399 1225Q333 1225 295 1261T258 1360Q258 1441 306 1490T432 1540ZM217 1081H498L287 0H6Z" horiz-adv-x="569" unicode="i"/>
			<glyph d="M436 1540Q499 1540 536 1503T573 1405Q573 1324 525 1274T399 1225Q335 1225 297 1261T260 1360Q260 1440 308 1490T436 1540ZM219 1081H500L272 -88Q240 -254 155 -340T-80 -426Q-183 -426 -248 -410L-205 -193Q-170 -199 -143 -199Q-85 -199 -51 -162T0 -39Z" horiz-adv-x="569" unicode="j"/>
			<glyph d="M293 1485H573L408 635L872 1081H1196L721 649L1004 0H711L512 489L362 387L287 0H6Z" unicode="k"/>
			<glyph d="M285 1485H565L342 338Q334 292 334 272Q334 239 355 225T412 211Q441 211 471 217L457 4Q380 -14 283 -14Q166 -14 105 45T45 211Q45 251 55 303Z" horiz-adv-x="602" unicode="l"/>
			<glyph d="M793 1104Q888 1104 956 1045T1047 893H1053Q1121 1000 1208 1052T1407 1104Q1541 1104 1619 1018T1698 782Q1698 725 1686 657L1559 0H1278L1395 586Q1411 664 1411 715Q1411 862 1294 862Q1205 862 1131 787T1036 594L922 0H641L756 594Q770 676 770 717Q770 789 742 825T655 862Q567 862 496 785T401 580L289 0H8L170 840Q184 915 196 986T209 1081H477Q474 1046 467 987T453 893H457Q533 1003 610 1053T793 1104Z" horiz-adv-x="1821" unicode="m"/>
			<glyph d="M831 1104Q966 1104 1047 1020T1128 801Q1128 726 1108 625L987 0H707L827 608Q838 660 838 707Q838 780 801 821T690 862Q586 862 505 786T399 580L287 0H6L168 840Q182 915 194 986T207 1081H475Q473 1053 466 991T453 897H457Q525 997 618 1050T831 1104Z" horiz-adv-x="1251" unicode="n"/>
			<glyph d="M674 1102Q900 1102 1024 975T1149 641Q1149 471 1076 315T859 70T516 -20Q291 -20 166 108T41 453Q41 736 213 919T674 1102ZM647 879Q542 879 470 810T367 633T336 438Q336 324 389 263T545 203Q647 203 718 272T821 454T854 649Q854 760 799 819T647 879Z" horiz-adv-x="1251" unicode="o"/>
			<glyph d="M825 1102Q979 1102 1067 987T1155 680Q1155 515 1094 345T915 77T627 -20Q517 -20 437 30T324 174H317Q289 9 285 -10L203 -426H-78L168 834Q201 1014 207 1081H479Q479 1061 473 1007T457 907H461Q529 1004 620 1053T825 1102ZM686 877Q593 877 517 815T409 633T377 424Q377 308 432 255T571 203Q662 203 730 270T828 452T858 653Q858 762 811 819T686 877Z" horiz-adv-x="1262" unicode="p"/>
			<glyph d="M567 1102Q683 1102 760 1048T874 903H877Q889 957 905 1013T926 1081H1198Q1172 980 1143 834L897 -426H616L700 0Q710 50 720 92T743 174H741Q674 79 587 29T387 -20Q229 -20 139 98T49 416Q49 700 193 901T567 1102ZM635 881Q504 881 424 745T344 432Q344 321 392 262T522 203Q602 203 672 261T780 435T819 662Q819 779 766 830T635 881Z" horiz-adv-x="1262" unicode="q"/>
			<glyph d="M754 1104Q805 1104 842 1090L793 844Q739 858 682 858Q573 858 498 778T393 545L287 0H6L166 827Q180 899 193 977T207 1081H475Q475 1064 468 1006T453 895H457Q513 999 579 1051T754 1104Z" horiz-adv-x="797" unicode="r"/>
			<glyph d="M539 1102Q674 1102 777 1057T946 934L793 776Q742 826 673 859T530 893Q458 893 415 868T373 791Q373 718 483 685T679 615T815 511T866 338Q866 167 750 73T430 -20Q144 -20 -31 152L104 330Q180 263 259 226T430 190Q518 190 563 217T608 305Q608 390 449 433T202 553T115 764Q115 923 227 1012T539 1102Z" horiz-adv-x="1018" unicode="s"/>
			<glyph d="M567 1346L516 1081H731L690 872H475L375 356Q367 320 367 293Q367 256 391 235T457 215Q510 215 553 227L543 12Q440 -18 330 -18Q213 -18 145 41T78 219Q78 269 90 336L197 872H55L96 1081H252L313 1325Z" horiz-adv-x="692" unicode="t"/>
			<glyph d="M201 1081H481L360 473Q350 418 350 375Q350 302 386 260T498 219Q603 219 684 296T788 502L901 1081H1182L1020 242Q1006 171 994 98T981 0H713Q715 28 722 90T735 184H731Q590 -23 356 -23Q221 -23 140 61T59 281Q59 349 80 457Z" horiz-adv-x="1251" unicode="u"/>
			<glyph d="M82 1081H371L440 477Q453 381 463 209Q486 265 521 341T586 473L901 1081H1204L594 0H258Z" unicode="v"/>
			<glyph d="M66 1081H326L341 398Q341 348 340 308T338 256Q346 277 370 339T416 446L711 1081H1014L1057 446Q1060 397 1060 326V280L1059 256L1092 340Q1117 404 1135 446L1403 1081H1669L1174 0H879L836 659Q833 709 831 787T829 891Q820 866 789 788T735 657L434 0H135Z" horiz-adv-x="1593" unicode="w"/>
			<glyph d="M106 1081H391L565 735L864 1081H1176L692 553L987 0H696L510 383L184 0H-123L385 565Z" unicode="x"/>
			<glyph d="M90 1081H379L453 586Q461 520 473 401T487 252Q528 340 570 431T643 582L901 1081H1204L545 -82Q409 -298 303 -362T55 -426Q4 -426 -32 -421T-104 -406L-51 -188Q-20 -199 35 -199Q113 -199 166 -158T274 -25L303 25Z" unicode="y"/>
			<glyph d="M197 1081H975L936 881L336 225H858L815 0H-53L-14 199L590 858H154Z" horiz-adv-x="1024" unicode="z"/>
			<glyph d="M709 1485H905L864 1274H807Q713 1274 665 1230T594 1065L541 784Q522 683 450 612T285 522L283 518Q354 503 396 445T438 299Q438 277 430 223L387 -4Q377 -66 377 -98Q377 -160 408 -186T512 -213H575L535 -426H391Q262 -426 184 -349T106 -141Q106 -109 117 -45L164 203Q170 230 170 256Q170 335 119 376T-23 420L20 637Q148 640 209 691T291 856L356 1186Q384 1334 471 1409T709 1485Z" horiz-adv-x="797" unicode="{"/>
			<glyph d="M156 1485H418V-426H156Z" horiz-adv-x="573" unicode="|"/>
			<glyph d="M195 1485H340Q473 1485 550 1422T627 1229Q627 1188 616 1130L559 838Q553 804 553 778Q553 705 601 672T754 637L711 420Q605 418 530 360T432 184L373 -127Q346 -268 257 -347T20 -426H-176L-135 -213H-78Q12 -213 60 -172T135 -4L186 264Q207 374 278 446T444 541L446 545Q376 559 332 616T289 758Q289 788 295 821L348 1094Q356 1146 356 1163Q356 1219 324 1246T215 1274H154Z" horiz-adv-x="797" unicode="}"/>
			<glyph d="M342 840Q459 840 616 781T860 723Q926 723 990 747T1108 815V596Q1046 552 985 534T842 516Q736 516 577 573T326 631Q252 631 195 609T72 543V756Q122 795 191 817T342 840Z" horiz-adv-x="1196" unicode="~"/>
			<glyph d="" horiz-adv-x="569" unicode=" "/>
			<glyph d="M389 1091Q466 1091 510 1049T555 936Q555 863 510 821T389 780Q315 780 270 822T225 936Q225 1005 270 1048T389 1091ZM228 655H459L299 -328H4Z" horiz-adv-x="682" unicode="¡"/>
			<glyph d="M643 1409H805L770 1230Q880 1220 961 1179T1106 1076L935 913Q850 983 800 1000T691 1018Q540 1018 457 890T375 587Q375 489 432 430T579 371Q660 371 732 397T904 478L1007 294Q910 223 804 189T560 155L524 -31H362L403 173Q244 213 157 328T71 605Q71 846 216 1019T607 1225Z" unicode="¢"/>
			<glyph d="M735 1430Q847 1430 938 1395T1108 1288L958 1116Q900 1170 846 1194T731 1219Q638 1219 589 1169T516 999L475 795H803L766 604H438L422 508Q403 401 353 330T221 209H561Q663 209 725 245T846 387L1044 305Q919 0 588 0H-104L-63 205Q52 263 102 334T172 512L188 604H0L37 795H215L260 1022Q300 1220 409 1325T735 1430Z" unicode="£"/>
			<glyph d="M903 1196L1061 1038L924 903Q985 804 985 684Q985 567 926 467L1061 334L903 174L770 309Q722 280 665 265T549 250Q428 250 328 307L193 170L37 328L172 465Q113 565 113 684Q113 803 174 905L41 1038L197 1194L328 1061Q432 1120 549 1120Q608 1120 664 1105T768 1061ZM549 895Q463 895 401 833T340 686Q340 600 401 538T549 477Q635 477 695 539T756 686Q756 771 695 833T549 895Z" unicode="¤"/>
			<glyph d="M145 1409H422L586 813L967 1409H1268L770 690H1040L1012 545H674L641 383H979L950 236H612L567 0H295L340 236H4L33 383H369L403 545H66L94 690H377Z" unicode="¥"/>
			<glyph d="M156 1485H418V707H156ZM156 352H418V-426H156Z" horiz-adv-x="573" unicode="¦"/>
			<glyph d="M674 1485Q927 1485 1108 1339L981 1178Q911 1237 833 1265T666 1294Q451 1294 451 1167Q451 1091 583 1053T808 985T976 893T1053 715Q1053 603 983 522T799 420Q865 385 901 327T938 180Q938 17 803 -77T446 -172Q301 -172 179 -133T-49 -8L78 170Q167 93 259 58T449 23Q569 23 632 54T696 168Q696 210 670 236T602 278T477 318L420 334Q268 378 175 449T82 639Q82 749 159 823T354 926Q286 961 245 1017T205 1151Q205 1309 327 1397T674 1485ZM549 842Q449 827 389 782Q328 736 328 664Q328 624 363 597Q397 569 447 552Q496 535 590 510Q689 520 750 563T811 686Q811 726 785 753Q758 780 703 800Q647 820 549 842Z" unicode="§"/>
			<glyph d="M158 1454Q214 1454 249 1418T285 1327Q285 1269 249 1233T158 1198Q98 1198 62 1232T27 1327Q27 1384 62 1419T158 1454ZM567 1454Q623 1454 659 1418T696 1327Q696 1269 659 1233T567 1198Q507 1198 472 1232T438 1327Q438 1384 473 1419T567 1454Z" horiz-adv-x="682" unicode="¨"/>
			<glyph d="M756 1430Q1053 1430 1266 1217T1479 707Q1479 409 1266 196T756 -16Q459 -16 246 196T33 707Q33 1004 245 1217T756 1430ZM756 1315Q506 1315 326 1136T147 707Q147 455 326 275T756 96Q1008 96 1187 275T1366 707Q1366 957 1186 1136T756 1315ZM760 1124Q886 1124 965 1074T1092 940L948 866Q924 914 878 944T764 975Q660 975 602 903T545 709Q545 585 605 509T768 434Q894 434 965 561L1106 485Q1057 394 976 339T768 285Q584 285 474 400T365 707Q365 900 470 1012T760 1124Z" horiz-adv-x="1509" unicode="©"/>
			<glyph d="M502 1419Q616 1419 683 1367T750 1229Q750 1198 739 1130L705 946Q687 860 670 737H494Q497 781 506 827H504Q457 777 405 752T281 727Q199 727 144 777T90 913Q90 1023 173 1082T408 1143L561 1145Q569 1177 569 1202Q569 1236 541 1257T469 1278Q417 1278 375 1261T281 1206L207 1313Q274 1365 345 1392T502 1419ZM539 1036L440 1034Q366 1032 321 1008T276 934Q276 866 358 866Q422 866 473 912T537 1018Z" horiz-adv-x="735" unicode="ª"/>
			<glyph d="M395 940H641L635 903L293 518L483 176L477 141H254L53 502L68 573ZM852 940H1100L1094 903L752 518L942 176L936 141H711L512 502L526 573Z" unicode="«"/>
			<glyph d="M63 793H1090V141H866V569H63Z" horiz-adv-x="1196" unicode="¬"/>
			<glyph d="M70 653H590L543 410H23Z" horiz-adv-x="682" unicode="­"/>
			<glyph d="M756 1430Q1053 1430 1266 1217T1479 707Q1479 409 1266 196T756 -16Q459 -16 246 196T33 707Q33 1004 245 1217T756 1430ZM756 1315Q506 1315 326 1136T147 707Q147 455 326 275T756 96Q1008 96 1187 275T1366 707Q1366 957 1186 1136T756 1315ZM451 1112H780Q930 1112 1007 1048T1085 870Q1085 779 1038 719T911 633L1124 297H924L745 610H629V297H451ZM629 977V748H772Q837 748 871 780T905 868Q905 920 867 948T762 977Z" horiz-adv-x="1509" unicode="®"/>
			<glyph d="M147 1546H1313L1294 1452H129Z" horiz-adv-x="1130" unicode="¯"/>
			<glyph d="M489 1425Q622 1425 716 1333T811 1110Q811 980 716 887T489 795Q357 795 263 887T170 1110Q170 1241 263 1333T489 1425ZM489 1276Q421 1276 372 1228T324 1110Q324 1042 372 992T489 942Q557 942 605 991T653 1110Q653 1180 605 1228T489 1276Z" horiz-adv-x="819" unicode="°"/>
			<glyph d="M410 1270H633V930H1034V707H633V367H410V707H8V930H410ZM8 223H1034V0H8Z" horiz-adv-x="1124" unicode="±"/>
			<glyph d="M397 1626Q513 1626 584 1568T655 1417Q655 1361 629 1309T497 1166L463 1137L232 934H575L543 768H-72L-43 911L362 1266Q364 1268 410 1310T457 1397Q457 1426 434 1443T367 1460Q321 1460 273 1437T166 1368L78 1501Q144 1554 224 1590T397 1626Z" horiz-adv-x="743" unicode="²"/>
			<glyph d="M385 1626Q509 1626 580 1570T651 1427Q651 1351 604 1293T475 1202V1200Q528 1181 562 1135T596 1024Q596 902 502 829T256 756Q159 756 84 784T-41 854L53 997Q103 958 154 941T262 924Q331 924 369 950T408 1032Q408 1075 377 1094T283 1114H199L231 1284H311Q383 1284 421 1310T459 1382Q459 1416 430 1437T354 1458Q307 1458 264 1441T174 1393L84 1522Q155 1576 228 1601T385 1626Z" horiz-adv-x="743" unicode="³"/>
			<glyph d="M346 1501H621L612 1458L240 1184H53L59 1214Z" horiz-adv-x="682" unicode="´"/>
			<glyph d="M217 1081H500L385 498Q371 430 371 379Q371 291 412 252T518 213Q607 213 684 294T788 504L901 1081H1184L1040 344Q1028 283 1028 258Q1028 224 1042 210T1085 197Q1102 197 1126 205L1139 10Q1090 -7 1049 -13T969 -20Q865 -20 814 25T752 164H750Q685 70 619 25T467 -20Q409 -20 366 8T305 90H301Q299 56 293 21L285 -25Q283 -33 281 -45L207 -426H-76Z" horiz-adv-x="1253" unicode="µ"/>
			<glyph d="M442 1409H1071V1266H940V-264H784V1266H590V-264H434V694Q264 694 168 787T72 1049Q72 1217 171 1313T442 1409Z" unicode="¶"/>
			<glyph d="M283 848Q357 848 401 802T446 682Q446 608 401 562T283 516Q206 516 161 560T117 682Q117 759 161 803T283 848Z" horiz-adv-x="569" unicode="·"/>
			<glyph d="M59 0H203L156 -86Q232 -94 274 -131T317 -231Q317 -330 227 -378T0 -426Q-60 -426 -115 -416L-94 -299Q-53 -307 -12 -307Q59 -307 97 -290T135 -236Q135 -201 109 -185T25 -170Q-8 -170 -27 -172Z" horiz-adv-x="682" unicode="¸"/>
			<glyph d="M338 1614H516L385 932H596L563 768H-39L-6 932H197L289 1413L78 1274L117 1477Z" horiz-adv-x="743" unicode="¹"/>
			<glyph d="M494 1417Q639 1417 718 1342T797 1141Q797 966 689 846T406 727Q269 727 187 804T106 1004Q106 1179 212 1298T494 1417ZM481 1266Q395 1266 349 1192T303 1006Q303 942 332 910T414 879Q511 879 553 959T596 1145Q596 1207 566 1236T481 1266Z" horiz-adv-x="748" unicode="º"/>
			<glyph d="M150 940H375L565 573L551 502L229 141H-23L-16 176L322 555L143 903ZM610 940H831L1024 573L1010 502L686 141H438L444 176L782 555L604 903Z" unicode="»"/>
			<glyph d="M338 1409H516L385 727H596L563 563H-39L-6 727H197L289 1208L78 1069L117 1272ZM1322 1409H1523L628 0H427ZM1456 846H1660L1556 303H1679L1650 152H1527L1497 0H1323L1353 152H966L995 307ZM1445 614L1181 303H1382Z" horiz-adv-x="1787" unicode="¼"/>
			<glyph d="M338 1409H516L385 727H596L563 563H-39L-6 727H197L289 1208L78 1069L117 1272ZM1322 1409H1523L628 0H427ZM1543 858Q1659 858 1730 800T1801 649Q1801 593 1775 541T1643 398L1609 369L1378 166H1721L1689 0H1074L1103 143L1508 498Q1510 500 1556 542T1603 629Q1603 658 1580 675T1513 692Q1467 692 1419 669T1312 600L1224 733Q1290 786 1370 822T1543 858Z" horiz-adv-x="1889" unicode="½"/>
			<glyph d="M385 1421Q509 1421 580 1365T651 1222Q651 1146 604 1088T475 997V995Q528 976 562 930T596 819Q596 697 502 624T256 551Q159 551 84 579T-41 649L53 792Q103 753 154 736T262 719Q331 719 369 745T408 827Q408 870 377 889T283 909H199L231 1079H311Q383 1079 421 1105T459 1177Q459 1211 430 1232T354 1253Q307 1253 264 1236T174 1188L84 1317Q155 1371 228 1396T385 1421ZM1261 1409H1462L567 0H366ZM1395 846H1599L1495 303H1618L1589 152H1466L1436 0H1262L1292 152H905L934 307ZM1384 614L1120 303H1321Z" horiz-adv-x="1726" unicode="¾"/>
			<glyph d="M784 1091Q861 1091 905 1049T950 936Q950 863 905 821T784 780Q710 780 665 822T620 936Q620 1005 665 1048T784 1091ZM612 655H876Q859 528 783 434T577 269T400 151T354 26Q354 -40 403 -81T549 -123Q640 -123 730 -76T897 47L1050 -125Q950 -229 820 -289T532 -349Q316 -349 193 -254T71 8Q71 97 107 169T217 303T400 421T555 529T612 655Z" horiz-adv-x="1251" unicode="¿"/>
			<glyph d="M684 1409H1032L1270 0H977L930 340H373L190 0H-104ZM815 1192Q807 1167 776 1100T717 981L491 561H899L834 1034Q828 1072 821 1122T815 1192ZM524 1815H782L1044 1561V1530H874L524 1772Z" horiz-adv-x="1436" unicode="À"/>
			<glyph d="M684 1409H1032L1270 0H977L930 340H373L190 0H-104ZM815 1192Q807 1167 776 1100T717 981L491 561H899L834 1034Q828 1072 821 1122T815 1192ZM938 1815H1196V1772L844 1530H674V1561Z" horiz-adv-x="1436" unicode="Á"/>
			<glyph d="M684 1409H1032L1270 0H977L930 340H373L190 0H-104ZM815 1192Q807 1167 776 1100T717 981L491 561H899L834 1034Q828 1072 821 1122T815 1192ZM808 1835H1038L1239 1559L1232 1530H1083L904 1681L665 1530H495L501 1559Z" horiz-adv-x="1436" unicode="Â"/>
			<glyph d="M684 1409H1032L1270 0H977L930 340H373L190 0H-104ZM815 1192Q807 1167 776 1100T717 981L491 561H899L834 1034Q828 1072 821 1122T815 1192ZM716 1823Q794 1823 892 1761T1034 1700Q1080 1700 1107 1730T1157 1823H1292Q1273 1706 1212 1618T1032 1530Q958 1530 858 1591T714 1653Q669 1653 644 1623T600 1530H454Q475 1648 535 1735T716 1823Z" horiz-adv-x="1436" unicode="Ã"/>
			<glyph d="M684 1409H1032L1270 0H977L930 340H373L190 0H-104ZM815 1192Q807 1167 776 1100T717 981L491 561H899L834 1034Q828 1072 821 1122T815 1192ZM670 1776Q725 1776 762 1740T799 1649Q799 1593 762 1556T670 1520Q612 1520 576 1555T541 1649Q541 1706 576 1741T670 1776ZM1079 1776Q1135 1776 1170 1740T1206 1649Q1206 1592 1170 1556T1079 1520Q1019 1520 983 1555T948 1649Q948 1706 983 1741T1079 1776Z" horiz-adv-x="1436" unicode="Ä"/>
			<glyph d="M892 1792Q996 1792 1071 1716T1146 1538Q1146 1476 1119 1422T1045 1334L1270 0H977L930 340H373L190 0H-104L679 1399Q638 1462 638 1538Q638 1641 713 1716T892 1792ZM892 1663Q840 1663 804 1626T768 1538Q768 1484 804 1446T892 1409Q945 1409 982 1446T1019 1538Q1019 1589 981 1626T892 1663ZM815 1192Q807 1167 776 1100T717 981L491 561H899L834 1034Q828 1072 821 1122T815 1192Z" horiz-adv-x="1436" unicode="Å"/>
			<glyph d="M827 1409H2054L2005 1161H1315L1251 834H1880L1833 584H1204L1139 248H1870L1821 0H795L860 340H401L174 0H-137ZM967 1192Q858 1025 829 983L547 561H903L1028 1192Z" horiz-adv-x="2038" unicode="Æ"/>
			<glyph d="M874 1430Q1038 1430 1172 1379T1430 1206L1243 1014Q1163 1088 1074 1133T864 1178Q633 1178 501 1014T369 573Q369 417 461 325T711 233Q829 233 932 274T1169 432L1329 231Q1177 96 1030 38T706 -20L670 -86Q746 -94 788 -131T831 -231Q831 -330 741 -378T514 -426Q454 -426 399 -416L420 -299Q461 -307 502 -307Q573 -307 611 -290T649 -236Q649 -201 623 -185T539 -170Q506 -170 487 -172L567 -11Q335 23 202 180T70 569Q70 949 292 1189T874 1430Z" horiz-adv-x="1454" unicode="Ç"/>
			<glyph d="M274 1409H1288L1239 1161H520L457 834H1114L1067 584H410L344 248H1104L1055 0H0ZM473 1815H731L993 1561V1530H823L473 1772Z" horiz-adv-x="1272" unicode="È"/>
			<glyph d="M274 1409H1288L1239 1161H520L457 834H1114L1067 584H410L344 248H1104L1055 0H0ZM887 1815H1145V1772L793 1530H623V1561Z" horiz-adv-x="1272" unicode="É"/>
			<glyph d="M274 1409H1288L1239 1161H520L457 834H1114L1067 584H410L344 248H1104L1055 0H0ZM757 1835H987L1188 1559L1181 1530H1032L853 1681L614 1530H444L450 1559Z" horiz-adv-x="1272" unicode="Ê"/>
			<glyph d="M274 1409H1288L1239 1161H520L457 834H1114L1067 584H410L344 248H1104L1055 0H0ZM619 1776Q674 1776 711 1740T748 1649Q748 1593 711 1556T619 1520Q561 1520 525 1555T490 1649Q490 1706 525 1741T619 1776ZM1028 1776Q1084 1776 1119 1740T1155 1649Q1155 1592 1119 1556T1028 1520Q968 1520 932 1555T897 1649Q897 1706 932 1741T1028 1776Z" horiz-adv-x="1272" unicode="Ë"/>
			<glyph d="M274 1409H569L295 0H0ZM90 1815H348L610 1561V1530H440L90 1772Z" horiz-adv-x="569" unicode="Ì"/>
			<glyph d="M274 1409H569L295 0H0ZM504 1815H762V1772L410 1530H240V1561Z" horiz-adv-x="569" unicode="Í"/>
			<glyph d="M274 1409H569L295 0H0ZM374 1835H604L805 1559L798 1530H649L470 1681L231 1530H61L67 1559Z" horiz-adv-x="569" unicode="Î"/>
			<glyph d="M274 1409H569L295 0H0ZM236 1776Q291 1776 328 1740T365 1649Q365 1593 328 1556T236 1520Q178 1520 142 1555T107 1649Q107 1706 142 1741T236 1776ZM645 1776Q701 1776 736 1740T772 1649Q772 1592 736 1556T645 1520Q585 1520 549 1555T514 1649Q514 1706 549 1741T645 1776Z" horiz-adv-x="569" unicode="Ï"/>
			<glyph d="M274 1409H741Q1048 1409 1220 1254T1393 817Q1393 450 1166 225T557 0H0L116 594H-12L29 813H158ZM520 1161L453 813H795L754 594H411L344 248H575Q806 248 948 400T1090 795Q1090 977 990 1069T711 1161Z" horiz-adv-x="1479" unicode="Ð"/>
			<glyph d="M272 1409H633L999 268Q1002 291 1014 370T1040 524L1214 1409H1477L1202 0H838L473 1130Q470 1105 458 1027T434 893L262 0H0ZM757 1823Q835 1823 933 1761T1075 1700Q1121 1700 1148 1730T1198 1823H1333Q1314 1706 1253 1618T1073 1530Q999 1530 899 1591T755 1653Q710 1653 685 1623T641 1530H495Q516 1648 576 1735T757 1823Z" horiz-adv-x="1479" unicode="Ñ"/>
			<glyph d="M887 1430Q1177 1430 1346 1273T1516 852Q1516 476 1289 228T707 -20Q410 -20 243 140T76 573Q76 941 305 1185T887 1430ZM866 1178Q640 1178 507 1011T375 582Q375 412 468 322T735 233Q958 233 1085 397T1212 827Q1212 996 1120 1087T866 1178ZM581 1815H839L1101 1561V1530H931L581 1772Z" horiz-adv-x="1593" unicode="Ò"/>
			<glyph d="M887 1430Q1177 1430 1346 1273T1516 852Q1516 476 1289 228T707 -20Q410 -20 243 140T76 573Q76 941 305 1185T887 1430ZM866 1178Q640 1178 507 1011T375 582Q375 412 468 322T735 233Q958 233 1085 397T1212 827Q1212 996 1120 1087T866 1178ZM995 1815H1253V1772L901 1530H731V1561Z" horiz-adv-x="1593" unicode="Ó"/>
			<glyph d="M887 1430Q1177 1430 1346 1273T1516 852Q1516 476 1289 228T707 -20Q410 -20 243 140T76 573Q76 941 305 1185T887 1430ZM866 1178Q640 1178 507 1011T375 582Q375 412 468 322T735 233Q958 233 1085 397T1212 827Q1212 996 1120 1087T866 1178ZM865 1835H1095L1296 1559L1289 1530H1140L961 1681L722 1530H552L558 1559Z" horiz-adv-x="1593" unicode="Ô"/>
			<glyph d="M887 1430Q1177 1430 1346 1273T1516 852Q1516 476 1289 228T707 -20Q410 -20 243 140T76 573Q76 941 305 1185T887 1430ZM866 1178Q640 1178 507 1011T375 582Q375 412 468 322T735 233Q958 233 1085 397T1212 827Q1212 996 1120 1087T866 1178ZM773 1823Q851 1823 949 1761T1091 1700Q1137 1700 1164 1730T1214 1823H1349Q1330 1706 1269 1618T1089 1530Q1015 1530 915 1591T771 1653Q726 1653 701 1623T657 1530H511Q532 1648 592 1735T773 1823Z" horiz-adv-x="1593" unicode="Õ"/>
			<glyph d="M887 1430Q1177 1430 1346 1273T1516 852Q1516 476 1289 228T707 -20Q410 -20 243 140T76 573Q76 941 305 1185T887 1430ZM866 1178Q640 1178 507 1011T375 582Q375 412 468 322T735 233Q958 233 1085 397T1212 827Q1212 996 1120 1087T866 1178ZM727 1776Q782 1776 819 1740T856 1649Q856 1593 819 1556T727 1520Q669 1520 633 1555T598 1649Q598 1706 633 1741T727 1776ZM1136 1776Q1192 1776 1227 1740T1263 1649Q1263 1592 1227 1556T1136 1520Q1076 1520 1040 1555T1005 1649Q1005 1706 1040 1741T1136 1776Z" horiz-adv-x="1593" unicode="Ö"/>
			<glyph d="M942 1194L1100 1036L748 682L1100 332L942 172L590 526L233 168L76 326L432 684L80 1036L238 1192L590 842Z" horiz-adv-x="1196" unicode="×"/>
			<glyph d="M1419 1473H1624L1395 1223Q1455 1151 1485 1057T1516 852Q1516 476 1289 228T707 -20Q489 -20 338 69L207 -74H0L219 164Q148 241 112 345T76 573Q76 941 305 1185T887 1430Q1125 1430 1283 1324ZM866 1178Q640 1178 507 1011T375 582Q375 464 420 384L1089 1113Q1003 1178 866 1178ZM1183 991L529 278Q612 233 735 233Q958 233 1085 397T1212 827Q1212 921 1183 991Z" horiz-adv-x="1593" unicode="Ø"/>
			<glyph d="M262 1409H557L393 571Q383 514 383 461Q383 352 459 291T668 231Q811 231 904 312T1030 561L1196 1409H1491L1319 528Q1265 253 1090 116T643 -20Q381 -20 232 97T84 430Q84 499 102 598ZM545 1815H803L1065 1561V1530H895L545 1772Z" horiz-adv-x="1479" unicode="Ù"/>
			<glyph d="M262 1409H557L393 571Q383 514 383 461Q383 352 459 291T668 231Q811 231 904 312T1030 561L1196 1409H1491L1319 528Q1265 253 1090 116T643 -20Q381 -20 232 97T84 430Q84 499 102 598ZM959 1815H1217V1772L865 1530H695V1561Z" horiz-adv-x="1479" unicode="Ú"/>
			<glyph d="M262 1409H557L393 571Q383 514 383 461Q383 352 459 291T668 231Q811 231 904 312T1030 561L1196 1409H1491L1319 528Q1265 253 1090 116T643 -20Q381 -20 232 97T84 430Q84 499 102 598ZM829 1835H1059L1260 1559L1253 1530H1104L925 1681L686 1530H516L522 1559Z" horiz-adv-x="1479" unicode="Û"/>
			<glyph d="M262 1409H557L393 571Q383 514 383 461Q383 352 459 291T668 231Q811 231 904 312T1030 561L1196 1409H1491L1319 528Q1265 253 1090 116T643 -20Q381 -20 232 97T84 430Q84 499 102 598ZM691 1776Q746 1776 783 1740T820 1649Q820 1593 783 1556T691 1520Q633 1520 597 1555T562 1649Q562 1706 597 1741T691 1776ZM1100 1776Q1156 1776 1191 1740T1227 1649Q1227 1592 1191 1556T1100 1520Q1040 1520 1004 1555T969 1649Q969 1706 1004 1741T1100 1776Z" horiz-adv-x="1479" unicode="Ü"/>
			<glyph d="M170 1409H457L690 813L1141 1409H1468L805 578L694 0H399L512 578ZM903 1815H1161V1772L809 1530H639V1561Z" horiz-adv-x="1366" unicode="Ý"/>
			<glyph d="M274 1409H569L528 1196H791Q1033 1196 1165 1079T1298 772Q1298 539 1127 400T686 262H346L295 0H2ZM479 946L395 510H698Q837 510 917 580T997 768Q997 853 938 899T764 946Z" horiz-adv-x="1366" unicode="Þ"/>
			<glyph d="M754 1485Q938 1485 1047 1400T1157 1180Q1157 1086 1117 1026T1012 918L974 889Q919 849 894 822T870 760Q870 729 887 704T946 639L969 616Q1048 542 1077 474T1106 328Q1106 167 1002 73T713 -20Q526 -20 410 37L473 248Q534 219 584 204T698 190Q770 190 809 227T848 322Q848 359 830 394T741 494L723 510Q668 563 639 610T610 727Q610 797 643 851T750 956T862 1045T901 1135Q901 1188 860 1218T739 1249Q620 1249 562 1185T477 981L205 -426H-76L209 1026Q254 1260 391 1372T754 1485Z" horiz-adv-x="1251" unicode="ß"/>
			<glyph d="M604 1102Q801 1102 906 1020T1012 774Q1012 721 997 653L932 319Q898 148 883 0H629Q636 86 647 160H641Q575 71 497 25T309 -20Q171 -20 81 64T-8 287Q-8 459 123 553T479 651L717 655L723 684Q733 729 733 766Q733 828 692 856T571 885Q504 885 428 864T252 791L162 987Q275 1045 383 1073T604 1102ZM682 481L539 479Q420 477 352 441T285 319Q285 262 322 227T422 193Q515 193 583 254T672 428ZM400 1501H637L860 1214L854 1184H705L391 1458Z" unicode="à"/>
			<glyph d="M604 1102Q801 1102 906 1020T1012 774Q1012 721 997 653L932 319Q898 148 883 0H629Q636 86 647 160H641Q575 71 497 25T309 -20Q171 -20 81 64T-8 287Q-8 459 123 553T479 651L717 655L723 684Q733 729 733 766Q733 828 692 856T571 885Q504 885 428 864T252 791L162 987Q275 1045 383 1073T604 1102ZM682 481L539 479Q420 477 352 441T285 319Q285 262 322 227T422 193Q515 193 583 254T672 428ZM737 1501H1012L1003 1458L631 1184H444L450 1214Z" unicode="á"/>
			<glyph d="M604 1102Q801 1102 906 1020T1012 774Q1012 721 997 653L932 319Q898 148 883 0H629Q636 86 647 160H641Q575 71 497 25T309 -20Q171 -20 81 64T-8 287Q-8 459 123 553T479 651L717 655L723 684Q733 729 733 766Q733 828 692 856T571 885Q504 885 428 864T252 791L162 987Q275 1045 383 1073T604 1102ZM682 481L539 479Q420 477 352 441T285 319Q285 262 322 227T422 193Q515 193 583 254T672 428ZM596 1530H825L1020 1210L1013 1184H870L698 1376L452 1184H276L282 1210Z" unicode="â"/>
			<glyph d="M604 1102Q801 1102 906 1020T1012 774Q1012 721 997 653L932 319Q898 148 883 0H629Q636 86 647 160H641Q575 71 497 25T309 -20Q171 -20 81 64T-8 287Q-8 459 123 553T479 651L717 655L723 684Q733 729 733 766Q733 828 692 856T571 885Q504 885 428 864T252 791L162 987Q275 1045 383 1073T604 1102ZM682 481L539 479Q420 477 352 441T285 319Q285 262 322 227T422 193Q515 193 583 254T672 428ZM528 1477Q606 1477 704 1415T846 1354Q892 1354 919 1384T968 1477H1104Q1085 1360 1024 1272T844 1184Q770 1184 670 1245T526 1307Q481 1307 456 1277T411 1184H266Q286 1301 347 1389T528 1477Z" unicode="ã"/>
			<glyph d="M604 1102Q801 1102 906 1020T1012 774Q1012 721 997 653L932 319Q898 148 883 0H629Q636 86 647 160H641Q575 71 497 25T309 -20Q171 -20 81 64T-8 287Q-8 459 123 553T479 651L717 655L723 684Q733 729 733 766Q733 828 692 856T571 885Q504 885 428 864T252 791L162 987Q275 1045 383 1073T604 1102ZM682 481L539 479Q420 477 352 441T285 319Q285 262 322 227T422 193Q515 193 583 254T672 428ZM457 1454Q513 1454 548 1418T584 1327Q584 1269 548 1233T457 1198Q397 1198 361 1232T326 1327Q326 1384 361 1419T457 1454ZM866 1454Q922 1454 958 1418T995 1327Q995 1269 958 1233T866 1198Q806 1198 771 1232T737 1327Q737 1384 772 1419T866 1454Z" unicode="ä"/>
			<glyph d="M604 1102Q801 1102 906 1020T1012 774Q1012 721 997 653L932 319Q898 148 883 0H629Q636 86 647 160H641Q575 71 497 25T309 -20Q171 -20 81 64T-8 287Q-8 459 123 553T479 651L717 655L723 684Q733 729 733 766Q733 828 692 856T571 885Q504 885 428 864T252 791L162 987Q275 1045 383 1073T604 1102ZM682 481L539 479Q420 477 352 441T285 319Q285 262 322 227T422 193Q515 193 583 254T672 428ZM657 1645Q761 1645 836 1569T911 1391Q911 1284 836 1210T657 1137Q552 1137 477 1211T403 1391Q403 1494 478 1569T657 1645ZM657 1516Q605 1516 569 1479T533 1391Q533 1337 569 1299T657 1262Q710 1262 747 1299T784 1391Q784 1442 746 1479T657 1516Z" unicode="å"/>
			<glyph d="M612 1102Q733 1102 806 1071T920 979Q1051 1102 1274 1102Q1466 1102 1569 997T1673 698Q1673 646 1665 592T1642 467H958Q952 433 952 401Q952 308 1004 250T1157 193Q1220 193 1284 208T1489 295L1573 106Q1491 50 1380 15T1137 -20Q1006 -20 908 27T758 170Q684 77 587 28T350 -20Q188 -20 90 62T-8 287Q-8 459 123 553T479 651L717 655L723 684Q733 729 733 766Q733 827 692 856T571 885Q500 885 426 863T252 791L162 987Q288 1048 392 1075T612 1102ZM1245 897Q1160 897 1092 838T997 659H1411Q1415 688 1415 715Q1415 805 1371 851T1245 897ZM682 481L539 479Q420 477 352 441T285 319Q285 262 322 227T422 193Q515 193 583 254T672 428Z" horiz-adv-x="1759" unicode="æ"/>
			<glyph d="M655 1102Q784 1102 876 1058T1040 940L874 770Q785 847 738 863T637 879Q488 879 409 745T330 430Q330 328 385 266T528 205Q607 205 677 232T844 317L944 125Q855 55 759 20T543 -19L507 -86Q583 -94 625 -131T668 -231Q668 -330 578 -378T351 -426Q291 -426 236 -416L257 -299Q298 -307 339 -307Q410 -307 448 -290T486 -236Q486 -201 460 -185T376 -170Q343 -170 324 -172L404 -11Q232 18 133 142T35 449Q35 630 112 782T331 1018T655 1102Z" horiz-adv-x="1057" unicode="ç"/>
			<glyph d="M645 1102Q845 1102 949 997T1053 698Q1053 647 1045 594T1022 467H326Q319 427 319 401Q319 307 372 250T535 193Q618 193 688 217T860 295L946 106Q750 -20 506 -20Q284 -20 157 95T31 420Q31 572 92 743T301 1008T645 1102ZM623 897Q529 897 460 838T365 659H791Q795 688 795 715Q795 805 750 851T623 897ZM422 1501H659L882 1214L876 1184H727L413 1458Z" unicode="è"/>
			<glyph d="M645 1102Q845 1102 949 997T1053 698Q1053 647 1045 594T1022 467H326Q319 427 319 401Q319 307 372 250T535 193Q618 193 688 217T860 295L946 106Q750 -20 506 -20Q284 -20 157 95T31 420Q31 572 92 743T301 1008T645 1102ZM623 897Q529 897 460 838T365 659H791Q795 688 795 715Q795 805 750 851T623 897ZM759 1501H1034L1025 1458L653 1184H466L472 1214Z" unicode="é"/>
			<glyph d="M645 1102Q845 1102 949 997T1053 698Q1053 647 1045 594T1022 467H326Q319 427 319 401Q319 307 372 250T535 193Q618 193 688 217T860 295L946 106Q750 -20 506 -20Q284 -20 157 95T31 420Q31 572 92 743T301 1008T645 1102ZM623 897Q529 897 460 838T365 659H791Q795 688 795 715Q795 805 750 851T623 897ZM618 1530H847L1042 1210L1035 1184H892L720 1376L474 1184H298L304 1210Z" unicode="ê"/>
			<glyph d="M645 1102Q845 1102 949 997T1053 698Q1053 647 1045 594T1022 467H326Q319 427 319 401Q319 307 372 250T535 193Q618 193 688 217T860 295L946 106Q750 -20 506 -20Q284 -20 157 95T31 420Q31 572 92 743T301 1008T645 1102ZM623 897Q529 897 460 838T365 659H791Q795 688 795 715Q795 805 750 851T623 897ZM479 1454Q535 1454 570 1418T606 1327Q606 1269 570 1233T479 1198Q419 1198 383 1232T348 1327Q348 1384 383 1419T479 1454ZM888 1454Q944 1454 980 1418T1017 1327Q1017 1269 980 1233T888 1198Q828 1198 793 1232T759 1327Q759 1384 794 1419T888 1454Z" unicode="ë"/>
			<glyph d="M219 1081H500L289 0H8ZM121 1501H358L581 1214L575 1184H426L112 1458Z" horiz-adv-x="569" unicode="ì"/>
			<glyph d="M219 1081H500L289 0H8ZM458 1501H733L724 1458L352 1184H165L171 1214Z" horiz-adv-x="569" unicode="í"/>
			<glyph d="M219 1081H500L289 0H8ZM317 1530H546L741 1210L734 1184H591L419 1376L173 1184H-3L3 1210Z" horiz-adv-x="569" unicode="î"/>
			<glyph d="M219 1081H500L289 0H8ZM178 1454Q234 1454 269 1418T305 1327Q305 1269 269 1233T178 1198Q118 1198 82 1232T47 1327Q47 1384 82 1419T178 1454ZM587 1454Q643 1454 679 1418T716 1327Q716 1269 679 1233T587 1198Q527 1198 492 1232T458 1327Q458 1384 493 1419T587 1454Z" horiz-adv-x="569" unicode="ï"/>
			<glyph d="M1122 1491L1092 1315L953 1262Q1044 1137 1093 979T1143 649Q1143 348 975 164T514 -20Q288 -20 160 102T33 424Q33 672 185 829T586 987Q674 987 746 962T864 893Q853 957 818 1030T731 1178L446 1069L479 1247L630 1304Q534 1406 453 1452L698 1485Q779 1442 841 1385ZM616 766Q481 766 404 675T328 430Q328 324 385 263T543 203Q673 203 756 301T840 543Q840 766 616 766Z" horiz-adv-x="1251" unicode="ð"/>
			<glyph d="M831 1104Q966 1104 1047 1020T1128 801Q1128 726 1108 625L987 0H707L827 608Q838 660 838 707Q838 780 801 821T690 862Q586 862 505 786T399 580L287 0H6L168 840Q182 915 194 986T207 1081H475Q473 1053 466 991T453 897H457Q525 997 618 1050T831 1104ZM612 1477Q690 1477 788 1415T930 1354Q976 1354 1003 1384T1052 1477H1188Q1169 1360 1108 1272T928 1184Q854 1184 754 1245T610 1307Q565 1307 540 1277T495 1184H350Q370 1301 431 1389T612 1477Z" horiz-adv-x="1251" unicode="ñ"/>
			<glyph d="M674 1102Q900 1102 1024 975T1149 641Q1149 471 1076 315T859 70T516 -20Q291 -20 166 108T41 453Q41 736 213 919T674 1102ZM647 879Q542 879 470 810T367 633T336 438Q336 324 389 263T545 203Q647 203 718 272T821 454T854 649Q854 760 799 819T647 879ZM463 1501H700L923 1214L917 1184H768L454 1458Z" horiz-adv-x="1251" unicode="ò"/>
			<glyph d="M674 1102Q900 1102 1024 975T1149 641Q1149 471 1076 315T859 70T516 -20Q291 -20 166 108T41 453Q41 736 213 919T674 1102ZM647 879Q542 879 470 810T367 633T336 438Q336 324 389 263T545 203Q647 203 718 272T821 454T854 649Q854 760 799 819T647 879ZM800 1501H1075L1066 1458L694 1184H507L513 1214Z" horiz-adv-x="1251" unicode="ó"/>
			<glyph d="M674 1102Q900 1102 1024 975T1149 641Q1149 471 1076 315T859 70T516 -20Q291 -20 166 108T41 453Q41 736 213 919T674 1102ZM647 879Q542 879 470 810T367 633T336 438Q336 324 389 263T545 203Q647 203 718 272T821 454T854 649Q854 760 799 819T647 879ZM659 1530H888L1083 1210L1076 1184H933L761 1376L515 1184H339L345 1210Z" horiz-adv-x="1251" unicode="ô"/>
			<glyph d="M674 1102Q900 1102 1024 975T1149 641Q1149 471 1076 315T859 70T516 -20Q291 -20 166 108T41 453Q41 736 213 919T674 1102ZM647 879Q542 879 470 810T367 633T336 438Q336 324 389 263T545 203Q647 203 718 272T821 454T854 649Q854 760 799 819T647 879ZM591 1477Q669 1477 767 1415T909 1354Q955 1354 982 1384T1031 1477H1167Q1148 1360 1087 1272T907 1184Q833 1184 733 1245T589 1307Q544 1307 519 1277T474 1184H329Q349 1301 410 1389T591 1477Z" horiz-adv-x="1251" unicode="õ"/>
			<glyph d="M674 1102Q900 1102 1024 975T1149 641Q1149 471 1076 315T859 70T516 -20Q291 -20 166 108T41 453Q41 736 213 919T674 1102ZM647 879Q542 879 470 810T367 633T336 438Q336 324 389 263T545 203Q647 203 718 272T821 454T854 649Q854 760 799 819T647 879ZM520 1454Q576 1454 611 1418T647 1327Q647 1269 611 1233T520 1198Q460 1198 424 1232T389 1327Q389 1384 424 1419T520 1454ZM929 1454Q985 1454 1021 1418T1058 1327Q1058 1269 1021 1233T929 1198Q869 1198 834 1232T800 1327Q800 1384 835 1419T929 1454Z" horiz-adv-x="1251" unicode="ö"/>
			<glyph d="M551 1219Q614 1219 653 1179T692 1075Q692 1012 653 972T551 932Q485 932 446 970T408 1075Q408 1141 447 1180T551 1219ZM37 793H1063V569H37ZM551 430Q614 430 653 390T692 287Q692 223 652 183T551 143Q486 143 447 182T408 287Q408 353 446 391T551 430Z" horiz-adv-x="1124" unicode="÷"/>
			<glyph d="M1042 1133H1225L1055 942Q1102 882 1125 805T1149 641Q1149 471 1076 315T859 70T516 -20Q363 -20 254 41L168 -55H-16L147 128Q94 190 67 273T41 453Q41 736 213 919T674 1102Q840 1102 953 1033ZM647 879Q542 879 470 810T367 633T336 438Q336 388 346 351L779 838Q727 879 647 879ZM849 710L424 233Q472 203 545 203Q647 203 718 272T821 454T854 649Q854 678 849 710Z" horiz-adv-x="1251" unicode="ø"/>
			<glyph d="M201 1081H481L360 473Q350 418 350 375Q350 302 386 260T498 219Q603 219 684 296T788 502L901 1081H1182L1020 242Q1006 171 994 98T981 0H713Q715 28 722 90T735 184H731Q590 -23 356 -23Q221 -23 140 61T59 281Q59 349 80 457ZM463 1501H700L923 1214L917 1184H768L454 1458Z" horiz-adv-x="1251" unicode="ù"/>
			<glyph d="M201 1081H481L360 473Q350 418 350 375Q350 302 386 260T498 219Q603 219 684 296T788 502L901 1081H1182L1020 242Q1006 171 994 98T981 0H713Q715 28 722 90T735 184H731Q590 -23 356 -23Q221 -23 140 61T59 281Q59 349 80 457ZM800 1501H1075L1066 1458L694 1184H507L513 1214Z" horiz-adv-x="1251" unicode="ú"/>
			<glyph d="M201 1081H481L360 473Q350 418 350 375Q350 302 386 260T498 219Q603 219 684 296T788 502L901 1081H1182L1020 242Q1006 171 994 98T981 0H713Q715 28 722 90T735 184H731Q590 -23 356 -23Q221 -23 140 61T59 281Q59 349 80 457ZM659 1530H888L1083 1210L1076 1184H933L761 1376L515 1184H339L345 1210Z" horiz-adv-x="1251" unicode="û"/>
			<glyph d="M201 1081H481L360 473Q350 418 350 375Q350 302 386 260T498 219Q603 219 684 296T788 502L901 1081H1182L1020 242Q1006 171 994 98T981 0H713Q715 28 722 90T735 184H731Q590 -23 356 -23Q221 -23 140 61T59 281Q59 349 80 457ZM520 1454Q576 1454 611 1418T647 1327Q647 1269 611 1233T520 1198Q460 1198 424 1232T389 1327Q389 1384 424 1419T520 1454ZM929 1454Q985 1454 1021 1418T1058 1327Q1058 1269 1021 1233T929 1198Q869 1198 834 1232T800 1327Q800 1384 835 1419T929 1454Z" horiz-adv-x="1251" unicode="ü"/>
			<glyph d="M90 1081H379L453 586Q461 520 473 401T487 252Q528 340 570 431T643 582L901 1081H1204L545 -82Q409 -298 303 -362T55 -426Q4 -426 -32 -421T-104 -406L-51 -188Q-20 -199 35 -199Q113 -199 166 -158T274 -25L303 25ZM743 1501H1018L1009 1458L637 1184H450L456 1214Z" unicode="ý"/>
			<glyph d="M295 1485H575L500 1094Q491 1049 468 945L459 907H463Q531 1004 622 1053T827 1102Q981 1102 1069 987T1157 680Q1157 515 1096 345T917 77T629 -20Q519 -20 439 30T326 174H319Q291 9 287 -10L205 -426H-76ZM688 877Q595 877 519 815T411 633T379 424Q379 308 434 255T573 203Q664 203 732 270T830 452T860 653Q860 762 813 819T688 877Z" horiz-adv-x="1262" unicode="þ"/>
			<glyph d="M90 1081H379L453 586Q461 520 473 401T487 252Q528 340 570 431T643 582L901 1081H1204L545 -82Q409 -298 303 -362T55 -426Q4 -426 -32 -421T-104 -406L-51 -188Q-20 -199 35 -199Q113 -199 166 -158T274 -25L303 25ZM463 1454Q519 1454 554 1418T590 1327Q590 1269 554 1233T463 1198Q403 1198 367 1232T332 1327Q332 1384 367 1419T463 1454ZM872 1454Q928 1454 964 1418T1001 1327Q1001 1269 964 1233T872 1198Q812 1198 777 1232T743 1327Q743 1384 778 1419T872 1454Z" unicode="ÿ"/>
			<glyph d="M684 1409H1032L1270 0H977L930 340H373L190 0H-104ZM815 1192Q807 1167 776 1100T717 981L491 561H899L834 1034Q828 1072 821 1122T815 1192ZM596 1708H1206L1173 1540H563Z" horiz-adv-x="1436" unicode="Ā"/>
			<glyph d="M604 1102Q801 1102 906 1020T1012 774Q1012 721 997 653L932 319Q898 148 883 0H629Q636 86 647 160H641Q575 71 497 25T309 -20Q171 -20 81 64T-8 287Q-8 459 123 553T479 651L717 655L723 684Q733 729 733 766Q733 828 692 856T571 885Q504 885 428 864T252 791L162 987Q275 1045 383 1073T604 1102ZM682 481L539 479Q420 477 352 441T285 319Q285 262 322 227T422 193Q515 193 583 254T672 428ZM375 1382H985L952 1214H342Z" unicode="ā"/>
			<glyph d="M684 1409H1032L1270 0H977L930 340H373L190 0H-104ZM815 1192Q807 1167 776 1100T717 981L491 561H899L834 1034Q828 1072 821 1122T815 1192ZM566 1808H727Q734 1744 779 1707T893 1671Q967 1671 1024 1707T1108 1808H1274Q1231 1681 1136 1600T885 1520Q732 1520 649 1598T566 1808Z" horiz-adv-x="1436" unicode="Ă"/>
			<glyph d="M604 1102Q801 1102 906 1020T1012 774Q1012 721 997 653L932 319Q898 148 883 0H629Q636 86 647 160H641Q575 71 497 25T309 -20Q171 -20 81 64T-8 287Q-8 459 123 553T479 651L717 655L723 684Q733 729 733 766Q733 828 692 856T571 885Q504 885 428 864T252 791L162 987Q275 1045 383 1073T604 1102ZM682 481L539 479Q420 477 352 441T285 319Q285 262 322 227T422 193Q515 193 583 254T672 428ZM348 1505H506Q509 1424 554 1383T678 1343Q826 1343 883 1505H1040Q997 1357 905 1270T665 1184Q517 1184 432 1273T348 1505Z" unicode="ă"/>
			<glyph d="M684 1409H1032L1270 0H1229Q1170 -42 1130 -97T1090 -203Q1090 -241 1112 -262T1172 -283Q1200 -283 1224 -275L1254 -266L1285 -385Q1242 -407 1198 -416T1100 -426Q1015 -426 957 -381T900 -250Q900 -175 947 -109T1061 0H977L930 340H373L190 0H-104ZM815 1192Q807 1167 776 1100T717 981L491 561H899L834 1034Q828 1072 821 1122T815 1192Z" horiz-adv-x="1436" unicode="Ą"/>
			<glyph d="M604 1102Q801 1102 906 1020T1012 774Q1012 721 997 653L932 319Q898 148 883 0H839Q780 -42 740 -97T700 -203Q700 -241 722 -262T782 -283Q810 -283 834 -275L864 -266L895 -385Q852 -407 808 -416T710 -426Q625 -426 567 -381T510 -250Q510 -175 557 -109T671 0H629Q636 86 647 160H641Q575 71 497 25T309 -20Q171 -20 81 64T-8 287Q-8 459 123 553T479 651L717 655L723 684Q733 729 733 766Q733 828 692 856T571 885Q504 885 428 864T252 791L162 987Q275 1045 383 1073T604 1102ZM682 481L539 479Q420 477 352 441T285 319Q285 262 322 227T422 193Q515 193 583 254T672 428Z" unicode="ą"/>
			<glyph d="M874 1430Q1038 1430 1172 1379T1430 1206L1243 1014Q1163 1088 1074 1133T864 1178Q633 1178 501 1014T369 573Q369 417 461 325T711 233Q829 233 932 274T1169 432L1329 231Q1175 94 1025 37T694 -20Q404 -20 237 144T70 569Q70 949 292 1189T874 1430ZM981 1815H1239V1772L887 1530H717V1561Z" horiz-adv-x="1454" unicode="Ć"/>
			<glyph d="M655 1102Q784 1102 876 1058T1040 940L874 770Q785 847 738 863T637 879Q488 879 409 745T330 430Q330 328 385 266T528 205Q607 205 677 232T844 317L944 125Q849 51 746 15T510 -20Q290 -20 162 109T35 449Q35 630 112 782T331 1018T655 1102ZM772 1501H1047L1038 1458L666 1184H479L485 1214Z" horiz-adv-x="1057" unicode="ć"/>
			<glyph d="M874 1430Q1038 1430 1172 1379T1430 1206L1243 1014Q1163 1088 1074 1133T864 1178Q633 1178 501 1014T369 573Q369 417 461 325T711 233Q829 233 932 274T1169 432L1329 231Q1175 94 1025 37T694 -20Q404 -20 237 144T70 569Q70 949 292 1189T874 1430ZM851 1835H1081L1282 1559L1275 1530H1126L947 1681L708 1530H538L544 1559Z" horiz-adv-x="1454" unicode="Ĉ"/>
			<glyph d="M655 1102Q784 1102 876 1058T1040 940L874 770Q785 847 738 863T637 879Q488 879 409 745T330 430Q330 328 385 266T528 205Q607 205 677 232T844 317L944 125Q849 51 746 15T510 -20Q290 -20 162 109T35 449Q35 630 112 782T331 1018T655 1102ZM631 1530H860L1055 1210L1048 1184H905L733 1376L487 1184H311L317 1210Z" horiz-adv-x="1057" unicode="ĉ"/>
			<glyph d="M874 1430Q1038 1430 1172 1379T1430 1206L1243 1014Q1163 1088 1074 1133T864 1178Q633 1178 501 1014T369 573Q369 417 461 325T711 233Q829 233 932 274T1169 432L1329 231Q1175 94 1025 37T694 -20Q404 -20 237 144T70 569Q70 949 292 1189T874 1430ZM897 1784Q955 1784 990 1748T1026 1653Q1026 1595 990 1559T897 1524Q837 1524 802 1558T768 1653Q768 1712 803 1748T897 1784Z" horiz-adv-x="1454" unicode="Ċ"/>
			<glyph d="M655 1102Q784 1102 876 1058T1040 940L874 770Q785 847 738 863T637 879Q488 879 409 745T330 430Q330 328 385 266T528 205Q607 205 677 232T844 317L944 125Q849 51 746 15T510 -20Q290 -20 162 109T35 449Q35 630 112 782T331 1018T655 1102ZM697 1477Q758 1477 796 1438T834 1337Q834 1276 796 1238T697 1200Q634 1200 597 1237T560 1337Q560 1400 598 1438T697 1477Z" horiz-adv-x="1057" unicode="ċ"/>
			<glyph d="M874 1430Q1038 1430 1172 1379T1430 1206L1243 1014Q1163 1088 1074 1133T864 1178Q633 1178 501 1014T369 573Q369 417 461 325T711 233Q829 233 932 274T1169 432L1329 231Q1175 94 1025 37T694 -20Q404 -20 237 144T70 569Q70 949 292 1189T874 1430ZM613 1835H754L940 1683L1172 1835H1350L1346 1806L1041 1530H811L608 1806Z" horiz-adv-x="1454" unicode="Č"/>
			<glyph d="M655 1102Q784 1102 876 1058T1040 940L874 770Q785 847 738 863T637 879Q488 879 409 745T330 430Q330 328 385 266T528 205Q607 205 677 232T844 317L944 125Q849 51 746 15T510 -20Q290 -20 162 109T35 449Q35 630 112 782T331 1018T655 1102ZM359 1530H508L684 1333L926 1530H1096L1092 1499L781 1184H551L355 1499Z" horiz-adv-x="1057" unicode="č"/>
			<glyph d="M274 1409H741Q1048 1409 1220 1254T1393 817Q1393 450 1166 225T557 0H0ZM520 1161L344 248H575Q806 248 948 400T1090 795Q1090 977 990 1069T711 1161ZM554 1835H695L881 1683L1113 1835H1291L1287 1806L982 1530H752L549 1806Z" horiz-adv-x="1479" unicode="Ď"/>
			<glyph d="M989 1485H1270L1026 236Q1014 168 1006 104T997 0H727Q727 23 731 70T745 174H741Q611 -20 387 -20Q230 -20 139 98T49 410Q49 569 109 737T287 1004T565 1102Q680 1102 757 1049T877 903H879Q890 980 913 1094ZM633 881Q547 881 480 817T378 642T344 430Q344 321 392 262T524 203Q607 203 678 266T785 450T821 662Q821 777 767 829T633 881ZM1472 1489Q1528 1489 1560 1456T1593 1366Q1593 1277 1544 1212T1417 1094L1352 1172Q1384 1202 1405 1226T1438 1282Q1399 1296 1377 1323T1356 1385Q1356 1430 1390 1459T1472 1489Z" horiz-adv-x="1386" unicode="ď"/>
			<glyph d="M274 1409H741Q1048 1409 1220 1254T1393 817Q1393 450 1166 225T557 0H0L116 594H-12L29 813H158ZM520 1161L453 813H795L754 594H411L344 248H575Q806 248 948 400T1090 795Q1090 977 990 1069T711 1161Z" horiz-adv-x="1479" unicode="Đ"/>
			<glyph d="M989 1485H1270L1243 1346H1372L1339 1176H1210L1026 236Q1014 168 1006 104T997 0H727Q727 23 731 70T745 174H741Q611 -20 387 -20Q230 -20 139 98T49 410Q49 569 109 737T287 1004T565 1102Q680 1102 757 1049T877 903H879Q890 980 913 1094L929 1176H641L674 1346H962ZM633 881Q547 881 480 817T378 642T344 430Q344 321 392 262T524 203Q607 203 678 266T785 450T821 662Q821 777 767 829T633 881Z" horiz-adv-x="1260" unicode="đ"/>
			<glyph d="M274 1409H1288L1239 1161H520L457 834H1114L1067 584H410L344 248H1104L1055 0H0ZM545 1708H1155L1122 1540H512Z" horiz-adv-x="1272" unicode="Ē"/>
			<glyph d="M645 1102Q845 1102 949 997T1053 698Q1053 647 1045 594T1022 467H326Q319 427 319 401Q319 307 372 250T535 193Q618 193 688 217T860 295L946 106Q750 -20 506 -20Q284 -20 157 95T31 420Q31 572 92 743T301 1008T645 1102ZM623 897Q529 897 460 838T365 659H791Q795 688 795 715Q795 805 750 851T623 897ZM397 1382H1007L974 1214H364Z" unicode="ē"/>
			<glyph d="M274 1409H1288L1239 1161H520L457 834H1114L1067 584H410L344 248H1104L1055 0H0ZM515 1808H676Q683 1744 728 1707T842 1671Q916 1671 973 1707T1057 1808H1223Q1180 1681 1085 1600T834 1520Q681 1520 598 1598T515 1808Z" horiz-adv-x="1272" unicode="Ĕ"/>
			<glyph d="M645 1102Q845 1102 949 997T1053 698Q1053 647 1045 594T1022 467H326Q319 427 319 401Q319 307 372 250T535 193Q618 193 688 217T860 295L946 106Q750 -20 506 -20Q284 -20 157 95T31 420Q31 572 92 743T301 1008T645 1102ZM623 897Q529 897 460 838T365 659H791Q795 688 795 715Q795 805 750 851T623 897ZM370 1505H528Q531 1424 576 1383T700 1343Q848 1343 905 1505H1062Q1019 1357 927 1270T687 1184Q539 1184 454 1273T370 1505Z" unicode="ĕ"/>
			<glyph d="M274 1409H1288L1239 1161H520L457 834H1114L1067 584H410L344 248H1104L1055 0H0ZM803 1784Q861 1784 896 1748T932 1653Q932 1595 896 1559T803 1524Q743 1524 708 1558T674 1653Q674 1712 709 1748T803 1784Z" horiz-adv-x="1272" unicode="Ė"/>
			<glyph d="M645 1102Q845 1102 949 997T1053 698Q1053 647 1045 594T1022 467H326Q319 427 319 401Q319 307 372 250T535 193Q618 193 688 217T860 295L946 106Q750 -20 506 -20Q284 -20 157 95T31 420Q31 572 92 743T301 1008T645 1102ZM623 897Q529 897 460 838T365 659H791Q795 688 795 715Q795 805 750 851T623 897ZM684 1477Q745 1477 783 1438T821 1337Q821 1276 783 1238T684 1200Q621 1200 584 1237T547 1337Q547 1400 585 1438T684 1477Z" unicode="ė"/>
			<glyph d="M274 1409H1288L1239 1161H520L457 834H1114L1067 584H410L344 248H1104L1055 0H972Q913 -42 873 -97T833 -203Q833 -241 855 -262T915 -283Q943 -283 967 -275L997 -266L1028 -385Q985 -407 941 -416T843 -426Q758 -426 700 -381T643 -250Q643 -175 690 -109T804 0H0Z" horiz-adv-x="1272" unicode="Ę"/>
			<glyph d="M645 1102Q845 1102 949 997T1053 698Q1053 647 1045 594T1022 467H326Q319 427 319 401Q319 307 372 250T535 193Q618 193 688 217T860 295L946 106Q825 27 683 -2Q625 -44 586 -98T547 -203Q547 -241 569 -262T629 -283Q657 -283 681 -275L711 -266L742 -385Q699 -407 655 -416T557 -426Q472 -426 414 -381T357 -250Q357 -183 394 -123T490 -20Q272 -15 151 100T31 420Q31 572 92 743T301 1008T645 1102ZM623 897Q529 897 460 838T365 659H791Q795 688 795 715Q795 805 750 851T623 897Z" unicode="ę"/>
			<glyph d="M274 1409H1288L1239 1161H520L457 834H1114L1067 584H410L344 248H1104L1055 0H0ZM519 1835H660L846 1683L1078 1835H1256L1252 1806L947 1530H717L514 1806Z" horiz-adv-x="1272" unicode="Ě"/>
			<glyph d="M645 1102Q845 1102 949 997T1053 698Q1053 647 1045 594T1022 467H326Q319 427 319 401Q319 307 372 250T535 193Q618 193 688 217T860 295L946 106Q750 -20 506 -20Q284 -20 157 95T31 420Q31 572 92 743T301 1008T645 1102ZM623 897Q529 897 460 838T365 659H791Q795 688 795 715Q795 805 750 851T623 897ZM346 1530H495L671 1333L913 1530H1083L1079 1499L768 1184H538L342 1499Z" unicode="ě"/>
			<glyph d="M893 1430Q1071 1430 1204 1374T1446 1212L1255 1016Q1100 1178 877 1178Q639 1178 504 1015T369 584Q369 420 461 325T721 231Q880 231 998 309T1141 514L1143 524H809L856 764H1460L1311 0H1065L1095 158Q1021 73 914 26T676 -20Q399 -20 234 146T70 582Q70 953 301 1191T893 1430ZM865 1835H1095L1296 1559L1289 1530H1140L961 1681L722 1530H552L558 1559Z" horiz-adv-x="1583" unicode="Ĝ"/>
			<glyph d="M561 1102Q677 1102 754 1049T870 903H872L885 952Q915 1067 922 1081H1190Q1165 980 1141 846L975 0Q893 -426 430 -426Q296 -426 191 -400T-18 -313L86 -104Q247 -203 434 -203Q533 -203 602 -145T697 6T741 193H737Q604 -4 397 -4Q232 -4 138 110T45 410Q45 569 105 737T283 1004T561 1102ZM629 881Q543 881 476 817T374 642T340 430Q340 332 388 275T516 219Q603 219 675 282T782 465T817 662Q817 777 763 829T629 881ZM641 1530H870L1065 1210L1058 1184H915L743 1376L497 1184H321L327 1210Z" horiz-adv-x="1235" unicode="ĝ"/>
			<glyph d="M893 1430Q1071 1430 1204 1374T1446 1212L1255 1016Q1100 1178 877 1178Q639 1178 504 1015T369 584Q369 420 461 325T721 231Q880 231 998 309T1141 514L1143 524H809L856 764H1460L1311 0H1065L1095 158Q1021 73 914 26T676 -20Q399 -20 234 146T70 582Q70 953 301 1191T893 1430ZM623 1808H784Q791 1744 836 1707T950 1671Q1024 1671 1081 1707T1165 1808H1331Q1288 1681 1193 1600T942 1520Q789 1520 706 1598T623 1808Z" horiz-adv-x="1583" unicode="Ğ"/>
			<glyph d="M561 1102Q677 1102 754 1049T870 903H872L885 952Q915 1067 922 1081H1190Q1165 980 1141 846L975 0Q893 -426 430 -426Q296 -426 191 -400T-18 -313L86 -104Q247 -203 434 -203Q533 -203 602 -145T697 6T741 193H737Q604 -4 397 -4Q232 -4 138 110T45 410Q45 569 105 737T283 1004T561 1102ZM629 881Q543 881 476 817T374 642T340 430Q340 332 388 275T516 219Q603 219 675 282T782 465T817 662Q817 777 763 829T629 881ZM393 1505H551Q554 1424 599 1383T723 1343Q871 1343 928 1505H1085Q1042 1357 950 1270T710 1184Q562 1184 477 1273T393 1505Z" horiz-adv-x="1235" unicode="ğ"/>
			<glyph d="M893 1430Q1071 1430 1204 1374T1446 1212L1255 1016Q1100 1178 877 1178Q639 1178 504 1015T369 584Q369 420 461 325T721 231Q880 231 998 309T1141 514L1143 524H809L856 764H1460L1311 0H1065L1095 158Q1021 73 914 26T676 -20Q399 -20 234 146T70 582Q70 953 301 1191T893 1430ZM911 1784Q969 1784 1004 1748T1040 1653Q1040 1595 1004 1559T911 1524Q851 1524 816 1558T782 1653Q782 1712 817 1748T911 1784Z" horiz-adv-x="1583" unicode="Ġ"/>
			<glyph d="M561 1102Q677 1102 754 1049T870 903H872L885 952Q915 1067 922 1081H1190Q1165 980 1141 846L975 0Q893 -426 430 -426Q296 -426 191 -400T-18 -313L86 -104Q247 -203 434 -203Q533 -203 602 -145T697 6T741 193H737Q604 -4 397 -4Q232 -4 138 110T45 410Q45 569 105 737T283 1004T561 1102ZM629 881Q543 881 476 817T374 642T340 430Q340 332 388 275T516 219Q603 219 675 282T782 465T817 662Q817 777 763 829T629 881ZM707 1477Q768 1477 806 1438T844 1337Q844 1276 806 1238T707 1200Q644 1200 607 1237T570 1337Q570 1400 608 1438T707 1477Z" horiz-adv-x="1235" unicode="ġ"/>
			<glyph d="M893 1430Q1071 1430 1204 1374T1446 1212L1255 1016Q1100 1178 877 1178Q639 1178 504 1015T369 584Q369 420 461 325T721 231Q880 231 998 309T1141 514L1143 524H809L856 764H1460L1311 0H1065L1095 158Q1021 73 914 26T676 -20Q399 -20 234 146T70 582Q70 953 301 1191T893 1430ZM622 -61Q683 -61 716 -94T749 -186Q749 -265 705 -321T589 -430L520 -354Q553 -325 570 -305T598 -260Q556 -248 533 -222T510 -162Q510 -117 542 -89T622 -61Z" horiz-adv-x="1583" unicode="Ģ"/>
			<glyph d="M561 1102Q677 1102 754 1049T870 903H872L885 952Q915 1067 922 1081H1190Q1165 980 1141 846L975 0Q893 -426 430 -426Q296 -426 191 -400T-18 -313L86 -104Q247 -203 434 -203Q533 -203 602 -145T697 6T741 193H737Q604 -4 397 -4Q232 -4 138 110T45 410Q45 569 105 737T283 1004T561 1102ZM629 881Q543 881 476 817T374 642T340 430Q340 332 388 275T516 219Q603 219 675 282T782 465T817 662Q817 777 763 829T629 881ZM762 1577L828 1499Q798 1476 776 1454T744 1407Q784 1393 806 1366T828 1305Q828 1263 795 1236T715 1210Q655 1210 621 1242T588 1333Q588 1413 635 1469T762 1577Z" horiz-adv-x="1235" unicode="ģ"/>
			<glyph d="M274 1409H569L463 860H1077L1184 1409H1479L1204 0H909L1026 596H412L295 0H0ZM829 1835H1059L1260 1559L1253 1530H1104L925 1681L686 1530H516L522 1559Z" horiz-adv-x="1479" unicode="Ĥ"/>
			<glyph d="M295 1485H575L498 1083Q478 984 455 897H459Q526 996 619 1050T831 1104Q966 1104 1047 1020T1128 801Q1128 726 1108 625L987 0H707L827 608Q838 660 838 707Q838 780 801 821T690 862Q586 862 506 786T401 580L289 0H8ZM526 1835H756L957 1559L950 1530H801L622 1681L383 1530H213L219 1559Z" horiz-adv-x="1251" unicode="ĥ"/>
			<glyph d="M274 1409H569L531 1214H1146L1184 1409H1479L1441 1214H1563L1530 1044H1408L1204 0H909L1026 596H412L295 0H0L203 1044H80L113 1214H236ZM499 1044L463 860H1077L1113 1044Z" horiz-adv-x="1479" unicode="Ħ"/>
			<glyph d="M295 1485H575L548 1346H854L821 1176H516L498 1083Q478 984 455 897H459Q526 996 619 1050T831 1104Q966 1104 1047 1020T1128 801Q1128 726 1108 625L987 0H707L827 608Q838 660 838 707Q838 780 801 821T690 862Q586 862 506 786T401 580L289 0H8L235 1176H102L135 1346H268Z" horiz-adv-x="1251" unicode="ħ"/>
			<glyph d="M274 1409H569L295 0H0ZM282 1823Q360 1823 458 1761T600 1700Q646 1700 673 1730T723 1823H858Q839 1706 778 1618T598 1530Q524 1530 424 1591T280 1653Q235 1653 210 1623T166 1530H20Q41 1648 101 1735T282 1823Z" horiz-adv-x="569" unicode="Ĩ"/>
			<glyph d="M219 1081H500L289 0H8ZM249 1477Q327 1477 425 1415T567 1354Q613 1354 640 1384T689 1477H825Q806 1360 745 1272T565 1184Q491 1184 391 1245T247 1307Q202 1307 177 1277T132 1184H-13Q7 1301 68 1389T249 1477Z" horiz-adv-x="569" unicode="ĩ"/>
			<glyph d="M274 1409H569L295 0H0ZM162 1708H772L739 1540H129Z" horiz-adv-x="569" unicode="Ī"/>
			<glyph d="M219 1081H500L289 0H8ZM96 1382H706L673 1214H63Z" horiz-adv-x="569" unicode="ī"/>
			<glyph d="M274 1409H569L295 0H0ZM132 1808H293Q300 1744 345 1707T459 1671Q533 1671 590 1707T674 1808H840Q797 1681 702 1600T451 1520Q298 1520 215 1598T132 1808Z" horiz-adv-x="569" unicode="Ĭ"/>
			<glyph d="M219 1081H500L289 0H8ZM69 1505H227Q230 1424 275 1383T399 1343Q547 1343 604 1505H761Q718 1357 626 1270T386 1184Q238 1184 153 1273T69 1505Z" horiz-adv-x="569" unicode="ĭ"/>
			<glyph d="M274 1409H569L295 0H250Q191 -42 151 -97T111 -203Q111 -241 133 -262T193 -283Q221 -283 245 -275L275 -266L306 -385Q263 -407 219 -416T121 -426Q36 -426 -21 -381T-79 -250Q-79 -175 -32 -109T82 0H0Z" horiz-adv-x="569" unicode="Į"/>
			<glyph d="M432 1540Q495 1540 533 1503T571 1405Q571 1325 524 1275T399 1225Q333 1225 295 1261T258 1360Q258 1441 306 1490T432 1540ZM217 1081H498L287 0H250Q191 -42 151 -97T111 -203Q111 -241 133 -262T193 -283Q221 -283 245 -275L275 -266L306 -385Q263 -407 219 -416T121 -426Q36 -426 -21 -381T-79 -250Q-79 -175 -32 -109T82 0H6Z" horiz-adv-x="569" unicode="į"/>
			<glyph d="M274 1409H569L295 0H0ZM420 1784Q478 1784 513 1748T549 1653Q549 1595 513 1559T420 1524Q360 1524 325 1558T291 1653Q291 1712 326 1748T420 1784Z" horiz-adv-x="569" unicode="İ"/>
			<glyph d="M219 1081H500L289 0H8Z" horiz-adv-x="569" unicode="ı"/>
			<glyph d="M274 1409H569L295 0H0ZM1400 1409H1695L1507 446Q1460 205 1330 92T989 -20Q846 -20 738 33T540 211L747 381Q806 305 865 268T997 231Q1173 231 1220 481Z" horiz-adv-x="1697" unicode="Ĳ"/>
			<glyph d="M432 1540Q495 1540 533 1503T571 1405Q571 1325 524 1275T399 1225Q333 1225 295 1261T258 1360Q258 1441 306 1490T432 1540ZM217 1081H498L287 0H6ZM1005 1540Q1068 1540 1105 1503T1142 1405Q1142 1324 1094 1274T968 1225Q904 1225 866 1261T829 1360Q829 1440 877 1490T1005 1540ZM788 1081H1069L841 -88Q809 -254 724 -340T489 -426Q386 -426 321 -410L364 -193Q399 -199 426 -199Q484 -199 518 -162T569 -39Z" horiz-adv-x="1138" unicode="ĳ"/>
			<glyph d="M831 1409H1126L938 446Q891 205 761 92T420 -20Q277 -20 169 33T-29 211L178 381Q237 305 296 268T428 231Q604 231 651 481ZM857 1835H1087L1288 1559L1281 1530H1132L953 1681L714 1530H544L550 1559Z" horiz-adv-x="1128" unicode="Ĵ"/>
			<glyph d="M217 1081H498L270 -88Q238 -254 153 -340T-82 -426Q-185 -426 -250 -410L-207 -193Q-173 -199 -145 -199Q-87 -199 -53 -162T-2 -39ZM317 1530H546L741 1210L734 1184H591L419 1376L173 1184H-3L3 1210Z" horiz-adv-x="569" unicode="ĵ"/>
			<glyph d="M272 1409H567L442 774L1122 1409H1499L813 792L1239 0H924L603 620L381 457L293 0H0ZM555 -61Q616 -61 649 -94T682 -186Q682 -265 638 -321T522 -430L453 -354Q486 -325 503 -305T531 -260Q489 -248 466 -222T443 -162Q443 -117 475 -89T555 -61Z" horiz-adv-x="1397" unicode="Ķ"/>
			<glyph d="M293 1485H573L408 635L872 1081H1196L721 649L1004 0H711L512 489L362 387L287 0H6ZM430 -61Q491 -61 524 -94T557 -186Q557 -265 513 -321T397 -430L328 -354Q361 -325 378 -305T406 -260Q364 -248 341 -222T318 -162Q318 -117 350 -89T430 -61Z" unicode="ķ"/>
			<glyph d="M217 1081H498L410 635L872 1081H1196L723 649L1006 0H713L514 489L365 387L289 0H8Z" unicode="ĸ"/>
			<glyph d="M274 1409H569L344 248H1018L969 0H0ZM846 1815H1104V1772L752 1530H582V1561Z" horiz-adv-x="1169" unicode="Ĺ"/>
			<glyph d="M285 1485H565L342 338Q334 292 334 272Q334 239 355 225T412 211Q441 211 471 217L457 4Q380 -14 283 -14Q166 -14 105 45T45 211Q45 251 55 303ZM504 1842H762V1799L410 1557H240V1588Z" horiz-adv-x="602" unicode="ĺ"/>
			<glyph d="M274 1409H569L344 248H1018L969 0H0ZM459 -61Q520 -61 553 -94T586 -186Q586 -265 542 -321T426 -430L357 -354Q390 -325 407 -305T435 -260Q393 -248 370 -222T347 -162Q347 -117 379 -89T459 -61Z" horiz-adv-x="1169" unicode="Ļ"/>
			<glyph d="M285 1485H565L342 338Q334 292 334 272Q334 239 355 225T412 211Q441 211 471 217L457 4Q380 -14 283 -14Q166 -14 105 45T45 211Q45 251 55 303ZM182 -61Q243 -61 276 -94T309 -186Q309 -265 265 -321T149 -430L80 -354Q113 -325 130 -305T158 -260Q116 -248 93 -222T70 -162Q70 -117 102 -89T182 -61Z" horiz-adv-x="602" unicode="ļ"/>
			<glyph d="M274 1409H569L344 248H1018L969 0H0ZM985 1413Q1041 1413 1073 1380T1106 1290Q1106 1201 1057 1136T930 1018L865 1096Q897 1126 918 1150T951 1206Q912 1220 890 1247T869 1309Q869 1354 903 1383T985 1413Z" horiz-adv-x="1169" unicode="Ľ"/>
			<glyph d="M285 1485H565L342 338Q334 292 334 272Q334 239 355 225T412 211Q441 211 471 217L457 4Q380 -14 283 -14Q166 -14 105 45T45 211Q45 251 55 303ZM770 1489Q826 1489 858 1456T891 1366Q891 1277 842 1212T715 1094L650 1172Q682 1202 703 1226T736 1282Q697 1296 675 1323T654 1385Q654 1430 688 1459T770 1489Z" horiz-adv-x="684" unicode="ľ"/>
			<glyph d="M274 1409H569L344 248H1018L969 0H0ZM813 850Q874 850 912 811T950 710Q950 649 912 611T813 573Q750 573 713 610T676 710Q676 773 714 811T813 850Z" horiz-adv-x="1169" unicode="Ŀ"/>
			<glyph d="M285 1485H565L342 338Q334 292 334 272Q334 239 355 225T412 211Q441 211 471 217L457 4Q380 -14 283 -14Q166 -14 105 45T45 211Q45 251 55 303ZM704 850Q765 850 803 811T841 710Q841 649 803 611T704 573Q641 573 604 610T567 710Q567 773 605 811T704 850Z" horiz-adv-x="821" unicode="ŀ"/>
			<glyph d="M274 1409H569L463 863L797 1010L752 774L418 628L344 248H1018L969 0H0L94 483L-57 418L-12 655L141 723Z" horiz-adv-x="1169" unicode="Ł"/>
			<glyph d="M295 1485H575L470 944L612 1018L571 793L428 717L425 716L352 338Q344 292 344 272Q344 239 365 225T422 211Q451 211 481 217L467 4Q390 -14 293 -14Q176 -14 115 45T55 211Q55 251 65 303L115 560L-20 492L20 719L159 788Z" horiz-adv-x="612" unicode="ł"/>
			<glyph d="M272 1409H633L999 268Q1002 291 1014 370T1040 524L1214 1409H1477L1202 0H838L473 1130Q470 1105 458 1027T434 893L262 0H0ZM979 1815H1237V1772L885 1530H715V1561Z" horiz-adv-x="1479" unicode="Ń"/>
			<glyph d="M831 1104Q966 1104 1047 1020T1128 801Q1128 726 1108 625L987 0H707L827 608Q838 660 838 707Q838 780 801 821T690 862Q586 862 505 786T399 580L287 0H6L168 840Q182 915 194 986T207 1081H475Q473 1053 466 991T453 897H457Q525 997 618 1050T831 1104ZM821 1501H1096L1087 1458L715 1184H528L534 1214Z" horiz-adv-x="1251" unicode="ń"/>
			<glyph d="M272 1409H633L999 268Q1002 291 1014 370T1040 524L1214 1409H1477L1202 0H838L473 1130Q470 1105 458 1027T434 893L262 0H0ZM565 -61Q626 -61 659 -94T692 -186Q692 -265 648 -321T532 -430L463 -354Q496 -325 513 -305T541 -260Q499 -248 476 -222T453 -162Q453 -117 485 -89T565 -61Z" horiz-adv-x="1479" unicode="Ņ"/>
			<glyph d="M831 1104Q966 1104 1047 1020T1128 801Q1128 726 1108 625L987 0H707L827 608Q838 660 838 707Q838 780 801 821T690 862Q586 862 505 786T399 580L287 0H6L168 840Q182 915 194 986T207 1081H475Q473 1053 466 991T453 897H457Q525 997 618 1050T831 1104ZM452 -61Q513 -61 546 -94T579 -186Q579 -265 535 -321T419 -430L350 -354Q383 -325 400 -305T428 -260Q386 -248 363 -222T340 -162Q340 -117 372 -89T452 -61Z" horiz-adv-x="1251" unicode="ņ"/>
			<glyph d="M272 1409H633L999 268Q1002 291 1014 370T1040 524L1214 1409H1477L1202 0H838L473 1130Q470 1105 458 1027T434 893L262 0H0ZM611 1835H752L938 1683L1170 1835H1348L1344 1806L1039 1530H809L606 1806Z" horiz-adv-x="1479" unicode="Ň"/>
			<glyph d="M831 1104Q966 1104 1047 1020T1128 801Q1128 726 1108 625L987 0H707L827 608Q838 660 838 707Q838 780 801 821T690 862Q586 862 505 786T399 580L287 0H6L168 840Q182 915 194 986T207 1081H475Q473 1053 466 991T453 897H457Q525 997 618 1050T831 1104ZM408 1530H557L733 1333L975 1530H1145L1141 1499L830 1184H600L404 1499Z" horiz-adv-x="1251" unicode="ň"/>
			<glyph d="M1032 1104Q1167 1104 1248 1020T1329 801Q1329 726 1309 625L1188 0H908L1028 608Q1039 660 1039 707Q1039 780 1002 821T891 862Q787 862 706 786T600 580L488 0H207L369 840Q383 915 395 986T408 1081H676Q674 1053 667 991T654 897H658Q726 997 819 1050T1032 1104ZM225 1421Q297 1421 340 1378T383 1262Q383 1138 310 1028T117 803L18 901Q77 959 121 1013T188 1128Q134 1147 104 1185T74 1272Q74 1334 117 1377T225 1421Z" horiz-adv-x="1452" unicode="ŉ"/>
			<glyph d="M272 1409H633L999 268Q1002 291 1014 370T1040 524L1214 1409H1477L1202 0Q1163 -211 1037 -320T723 -430Q552 -430 440 -344L573 -123Q613 -152 650 -165T731 -178Q873 -178 933 0H838L473 1130Q470 1105 458 1027T434 893L262 0H0Z" horiz-adv-x="1479" unicode="Ŋ"/>
			<glyph d="M831 1104Q966 1104 1047 1020T1128 801Q1128 726 1108 625L971 -88Q939 -254 853 -340T618 -426Q516 -426 451 -410L494 -193Q527 -199 555 -199Q613 -199 646 -163T698 -39L827 608Q838 660 838 707Q838 780 801 821T690 862Q586 862 505 786T399 580L287 0H6L168 840Q182 915 194 986T207 1081H475Q473 1053 466 991T453 897H457Q525 997 618 1050T831 1104Z" horiz-adv-x="1251" unicode="ŋ"/>
			<glyph d="M887 1430Q1177 1430 1346 1273T1516 852Q1516 476 1289 228T707 -20Q410 -20 243 140T76 573Q76 941 305 1185T887 1430ZM866 1178Q640 1178 507 1011T375 582Q375 412 468 322T735 233Q958 233 1085 397T1212 827Q1212 996 1120 1087T866 1178ZM653 1708H1263L1230 1540H620Z" horiz-adv-x="1593" unicode="Ō"/>
			<glyph d="M674 1102Q900 1102 1024 975T1149 641Q1149 471 1076 315T859 70T516 -20Q291 -20 166 108T41 453Q41 736 213 919T674 1102ZM647 879Q542 879 470 810T367 633T336 438Q336 324 389 263T545 203Q647 203 718 272T821 454T854 649Q854 760 799 819T647 879ZM438 1382H1048L1015 1214H405Z" horiz-adv-x="1251" unicode="ō"/>
			<glyph d="M887 1430Q1177 1430 1346 1273T1516 852Q1516 476 1289 228T707 -20Q410 -20 243 140T76 573Q76 941 305 1185T887 1430ZM866 1178Q640 1178 507 1011T375 582Q375 412 468 322T735 233Q958 233 1085 397T1212 827Q1212 996 1120 1087T866 1178ZM623 1808H784Q791 1744 836 1707T950 1671Q1024 1671 1081 1707T1165 1808H1331Q1288 1681 1193 1600T942 1520Q789 1520 706 1598T623 1808Z" horiz-adv-x="1593" unicode="Ŏ"/>
			<glyph d="M674 1102Q900 1102 1024 975T1149 641Q1149 471 1076 315T859 70T516 -20Q291 -20 166 108T41 453Q41 736 213 919T674 1102ZM647 879Q542 879 470 810T367 633T336 438Q336 324 389 263T545 203Q647 203 718 272T821 454T854 649Q854 760 799 819T647 879ZM411 1505H569Q572 1424 617 1383T741 1343Q889 1343 946 1505H1103Q1060 1357 968 1270T728 1184Q580 1184 495 1273T411 1505Z" horiz-adv-x="1251" unicode="ŏ"/>
			<glyph d="M887 1430Q1177 1430 1346 1273T1516 852Q1516 476 1289 228T707 -20Q410 -20 243 140T76 573Q76 941 305 1185T887 1430ZM866 1178Q640 1178 507 1011T375 582Q375 412 468 322T735 233Q958 233 1085 397T1212 827Q1212 996 1120 1087T866 1178ZM780 1817H1016V1774L686 1530H555V1565ZM1186 1817H1421V1774L1094 1530H961V1565Z" horiz-adv-x="1593" unicode="Ő"/>
			<glyph d="M674 1102Q900 1102 1024 975T1149 641Q1149 471 1076 315T859 70T516 -20Q291 -20 166 108T41 453Q41 736 213 919T674 1102ZM647 879Q542 879 470 810T367 633T336 438Q336 324 389 263T545 203Q647 203 718 272T821 454T854 649Q854 760 799 819T647 879ZM581 1485H817V1442L483 1184H342V1219ZM987 1485H1222V1442L891 1184H747V1219Z" horiz-adv-x="1251" unicode="ő"/>
			<glyph d="M887 1419Q991 1419 1094 1409H2062L2013 1161H1339L1276 834H1888L1841 584H1229L1163 248H1878L1829 0H911Q809 -10 707 -10Q412 -10 244 148T76 573Q76 804 175 999T461 1307T887 1419ZM866 1167Q637 1167 506 998T375 582Q375 418 469 331T735 244Q812 244 868 254L1044 1153Q955 1167 866 1167Z" horiz-adv-x="2046" unicode="Œ"/>
			<glyph d="M664 1102Q792 1102 879 1055T1018 915Q1092 1012 1196 1057T1432 1102Q1624 1102 1727 997T1831 698Q1831 646 1823 592T1800 467H1116Q1110 433 1110 401Q1110 309 1164 251T1317 193Q1392 193 1461 210T1653 295L1739 106Q1538 -20 1292 -20Q1030 -20 924 154Q853 67 749 23T514 -20Q289 -20 165 109T41 453Q41 733 210 917T664 1102ZM1403 897Q1317 897 1250 838T1155 659H1569Q1573 688 1573 715Q1573 805 1529 851T1403 897ZM639 879Q538 879 468 809T367 632T336 438Q336 324 387 263T541 203Q641 203 711 272T814 454T846 649Q846 760 791 819T639 879Z" horiz-adv-x="1925" unicode="œ"/>
			<glyph d="M276 1409H854Q1088 1409 1219 1297T1350 995Q1350 825 1243 713T952 567L1227 0H907L682 514H397L297 0H2ZM522 1159L446 764H758Q900 764 975 821T1051 977Q1051 1066 992 1112T821 1159ZM903 1815H1161V1772L809 1530H639V1561Z" horiz-adv-x="1405" unicode="Ŕ"/>
			<glyph d="M754 1104Q805 1104 842 1090L793 844Q739 858 682 858Q573 858 498 778T393 545L287 0H6L166 827Q180 899 193 977T207 1081H475Q475 1064 468 1006T453 895H457Q513 999 579 1051T754 1104ZM635 1501H910L901 1458L529 1184H342L348 1214Z" horiz-adv-x="797" unicode="ŕ"/>
			<glyph d="M276 1409H854Q1088 1409 1219 1297T1350 995Q1350 825 1243 713T952 567L1227 0H907L682 514H397L297 0H2ZM522 1159L446 764H758Q900 764 975 821T1051 977Q1051 1066 992 1112T821 1159ZM545 -61Q606 -61 639 -94T672 -186Q672 -265 628 -321T512 -430L443 -354Q476 -325 493 -305T521 -260Q479 -248 456 -222T433 -162Q433 -117 465 -89T545 -61Z" horiz-adv-x="1405" unicode="Ŗ"/>
			<glyph d="M754 1104Q805 1104 842 1090L793 844Q739 858 682 858Q573 858 498 778T393 545L287 0H6L166 827Q180 899 193 977T207 1081H475Q475 1064 468 1006T453 895H457Q513 999 579 1051T754 1104ZM225 -61Q286 -61 319 -94T352 -186Q352 -265 308 -321T192 -430L123 -354Q156 -325 173 -305T201 -260Q159 -248 136 -222T113 -162Q113 -117 145 -89T225 -61Z" horiz-adv-x="797" unicode="ŗ"/>
			<glyph d="M276 1409H854Q1088 1409 1219 1297T1350 995Q1350 825 1243 713T952 567L1227 0H907L682 514H397L297 0H2ZM522 1159L446 764H758Q900 764 975 821T1051 977Q1051 1066 992 1112T821 1159ZM535 1835H676L862 1683L1094 1835H1272L1268 1806L963 1530H733L530 1806Z" horiz-adv-x="1405" unicode="Ř"/>
			<glyph d="M754 1104Q805 1104 842 1090L793 844Q739 858 682 858Q573 858 498 778T393 545L287 0H6L166 827Q180 899 193 977T207 1081H475Q475 1064 468 1006T453 895H457Q513 999 579 1051T754 1104ZM222 1530H371L547 1333L789 1530H959L955 1499L644 1184H414L218 1499Z" horiz-adv-x="797" unicode="ř"/>
			<glyph d="M731 1430Q898 1430 1023 1381T1247 1229L1071 1047Q1000 1114 910 1155T711 1196Q602 1196 535 1153T469 1032Q469 919 621 881T893 799T1089 667T1167 440Q1167 210 1010 95T580 -20Q385 -20 243 42T-4 227L186 410Q257 331 365 277T598 223Q731 223 806 269T881 403Q881 460 847 495T763 550T614 594L569 606Q396 653 289 745T182 1004Q182 1203 333 1316T731 1430ZM832 1815H1090V1772L738 1530H568V1561Z" horiz-adv-x="1290" unicode="Ś"/>
			<glyph d="M539 1102Q674 1102 777 1057T946 934L793 776Q742 826 673 859T530 893Q458 893 415 868T373 791Q373 718 483 685T679 615T815 511T866 338Q866 167 750 73T430 -20Q144 -20 -31 152L104 330Q180 263 259 226T430 190Q518 190 563 217T608 305Q608 390 449 433T202 553T115 764Q115 923 227 1012T539 1102ZM684 1501H959L950 1458L578 1184H391L397 1214Z" horiz-adv-x="1018" unicode="ś"/>
			<glyph d="M731 1430Q898 1430 1023 1381T1247 1229L1071 1047Q1000 1114 910 1155T711 1196Q602 1196 535 1153T469 1032Q469 919 621 881T893 799T1089 667T1167 440Q1167 210 1010 95T580 -20Q385 -20 243 42T-4 227L186 410Q257 331 365 277T598 223Q731 223 806 269T881 403Q881 460 847 495T763 550T614 594L569 606Q396 653 289 745T182 1004Q182 1203 333 1316T731 1430ZM702 1835H932L1133 1559L1126 1530H977L798 1681L559 1530H389L395 1559Z" horiz-adv-x="1290" unicode="Ŝ"/>
			<glyph d="M539 1102Q674 1102 777 1057T946 934L793 776Q742 826 673 859T530 893Q458 893 415 868T373 791Q373 718 483 685T679 615T815 511T866 338Q866 167 750 73T430 -20Q144 -20 -31 152L104 330Q180 263 259 226T430 190Q518 190 563 217T608 305Q608 390 449 433T202 553T115 764Q115 923 227 1012T539 1102ZM543 1530H772L967 1210L960 1184H817L645 1376L399 1184H223L229 1210Z" horiz-adv-x="1018" unicode="ŝ"/>
			<glyph d="M731 1430Q898 1430 1023 1381T1247 1229L1071 1047Q1000 1114 910 1155T711 1196Q602 1196 535 1153T469 1032Q469 919 621 881T893 799T1089 667T1167 440Q1167 215 1016 100T602 -20L566 -86Q642 -94 684 -131T727 -231Q727 -330 637 -378T410 -426Q350 -426 295 -416L316 -299Q357 -307 398 -307Q469 -307 507 -290T545 -236Q545 -201 519 -185T435 -170Q402 -170 383 -172L462 -14Q313 3 199 63T-4 227L186 410Q257 331 365 277T598 223Q731 223 806 269T881 403Q881 460 847 495T763 550T614 594L569 606Q396 653 289 745T182 1004Q182 1203 333 1316T731 1430Z" horiz-adv-x="1290" unicode="Ş"/>
			<glyph d="M539 1102Q674 1102 777 1057T946 934L793 776Q742 826 673 859T530 893Q458 893 415 868T373 791Q373 718 483 685T679 615T815 511T866 338Q866 171 755 78T450 -20L414 -86Q490 -94 532 -131T575 -231Q575 -330 485 -378T258 -426Q198 -426 143 -416L164 -299Q205 -307 246 -307Q317 -307 355 -290T393 -236Q393 -201 367 -185T283 -170Q250 -170 231 -172L311 -12Q107 17 -31 152L104 330Q180 263 259 226T430 190Q518 190 563 217T608 305Q608 390 449 433T202 553T115 764Q115 923 227 1012T539 1102Z" horiz-adv-x="1018" unicode="ş"/>
			<glyph d="M731 1430Q898 1430 1023 1381T1247 1229L1071 1047Q1000 1114 910 1155T711 1196Q602 1196 535 1153T469 1032Q469 919 621 881T893 799T1089 667T1167 440Q1167 210 1010 95T580 -20Q385 -20 243 42T-4 227L186 410Q257 331 365 277T598 223Q731 223 806 269T881 403Q881 460 847 495T763 550T614 594L569 606Q396 653 289 745T182 1004Q182 1203 333 1316T731 1430ZM464 1835H605L791 1683L1023 1835H1201L1197 1806L892 1530H662L459 1806Z" horiz-adv-x="1290" unicode="Š"/>
			<glyph d="M539 1102Q674 1102 777 1057T946 934L793 776Q742 826 673 859T530 893Q458 893 415 868T373 791Q373 718 483 685T679 615T815 511T866 338Q866 167 750 73T430 -20Q144 -20 -31 152L104 330Q180 263 259 226T430 190Q518 190 563 217T608 305Q608 390 449 433T202 553T115 764Q115 923 227 1012T539 1102ZM271 1530H420L596 1333L838 1530H1008L1004 1499L693 1184H463L267 1499Z" horiz-adv-x="1018" unicode="š"/>
			<glyph d="M160 1409H1325L1276 1161H840L614 0H555L506 -82Q586 -86 625 -117T665 -204Q665 -293 584 -359T322 -426Q276 -426 221 -420L246 -301Q276 -307 328 -307Q407 -307 443 -286T479 -224Q479 -197 452 -183T369 -170Q336 -170 317 -172L412 0H319L545 1161H111Z" horiz-adv-x="1210" unicode="Ţ"/>
			<glyph d="M567 1346L516 1081H731L690 872H475L375 356Q367 320 367 293Q367 256 391 235T457 215Q510 215 553 227L543 12Q455 -13 366 -17L328 -86Q404 -94 446 -131T489 -231Q489 -330 399 -378T172 -426Q112 -426 57 -416L78 -299Q119 -307 160 -307Q231 -307 269 -290T307 -236Q307 -201 281 -185T197 -170Q164 -170 145 -172L229 -4Q157 18 117 74T78 219Q78 269 90 336L197 872H55L96 1081H252L313 1325Z" horiz-adv-x="692" unicode="ţ"/>
			<glyph d="M160 1409H1325L1276 1161H840L614 0H319L545 1161H111ZM457 1835H598L784 1683L1016 1835H1194L1190 1806L885 1530H655L452 1806Z" horiz-adv-x="1210" unicode="Ť"/>
			<glyph d="M567 1346L516 1081H731L690 872H475L375 356Q367 320 367 293Q367 256 391 235T457 215Q510 215 553 227L543 12Q440 -18 330 -18Q213 -18 145 41T78 219Q78 269 90 336L197 872H55L96 1081H252L313 1325ZM888 1489Q944 1489 976 1456T1009 1366Q1009 1277 960 1212T833 1094L768 1172Q800 1202 821 1226T854 1282Q815 1296 793 1323T772 1385Q772 1430 806 1459T888 1489Z" horiz-adv-x="823" unicode="ť"/>
			<glyph d="M160 1409H1325L1276 1161H840L773 815H997L956 606H732L614 0H319L437 606H211L252 815H478L545 1161H111Z" horiz-adv-x="1210" unicode="Ŧ"/>
			<glyph d="M567 1346L516 1081H731L690 872H475L438 680H621L584 489H401L375 356Q367 320 367 293Q367 256 391 235T457 215Q510 215 553 227L543 12Q440 -18 330 -18Q213 -18 145 41T78 219Q78 269 90 336L121 489H-6L31 680H159L197 872H55L96 1081H252L313 1325Z" horiz-adv-x="692" unicode="ŧ"/>
			<glyph d="M262 1409H557L393 571Q383 514 383 461Q383 352 459 291T668 231Q811 231 904 312T1030 561L1196 1409H1491L1319 528Q1265 253 1090 116T643 -20Q381 -20 232 97T84 430Q84 499 102 598ZM737 1823Q815 1823 913 1761T1055 1700Q1101 1700 1128 1730T1178 1823H1313Q1294 1706 1233 1618T1053 1530Q979 1530 879 1591T735 1653Q690 1653 665 1623T621 1530H475Q496 1648 556 1735T737 1823Z" horiz-adv-x="1479" unicode="Ũ"/>
			<glyph d="M201 1081H481L360 473Q350 418 350 375Q350 302 386 260T498 219Q603 219 684 296T788 502L901 1081H1182L1020 242Q1006 171 994 98T981 0H713Q715 28 722 90T735 184H731Q590 -23 356 -23Q221 -23 140 61T59 281Q59 349 80 457ZM591 1477Q669 1477 767 1415T909 1354Q955 1354 982 1384T1031 1477H1167Q1148 1360 1087 1272T907 1184Q833 1184 733 1245T589 1307Q544 1307 519 1277T474 1184H329Q349 1301 410 1389T591 1477Z" horiz-adv-x="1251" unicode="ũ"/>
			<glyph d="M262 1409H557L393 571Q383 514 383 461Q383 352 459 291T668 231Q811 231 904 312T1030 561L1196 1409H1491L1319 528Q1265 253 1090 116T643 -20Q381 -20 232 97T84 430Q84 499 102 598ZM617 1708H1227L1194 1540H584Z" horiz-adv-x="1479" unicode="Ū"/>
			<glyph d="M201 1081H481L360 473Q350 418 350 375Q350 302 386 260T498 219Q603 219 684 296T788 502L901 1081H1182L1020 242Q1006 171 994 98T981 0H713Q715 28 722 90T735 184H731Q590 -23 356 -23Q221 -23 140 61T59 281Q59 349 80 457ZM438 1382H1048L1015 1214H405Z" horiz-adv-x="1251" unicode="ū"/>
			<glyph d="M262 1409H557L393 571Q383 514 383 461Q383 352 459 291T668 231Q811 231 904 312T1030 561L1196 1409H1491L1319 528Q1265 253 1090 116T643 -20Q381 -20 232 97T84 430Q84 499 102 598ZM587 1808H748Q755 1744 800 1707T914 1671Q988 1671 1045 1707T1129 1808H1295Q1252 1681 1157 1600T906 1520Q753 1520 670 1598T587 1808Z" horiz-adv-x="1479" unicode="Ŭ"/>
			<glyph d="M201 1081H481L360 473Q350 418 350 375Q350 302 386 260T498 219Q603 219 684 296T788 502L901 1081H1182L1020 242Q1006 171 994 98T981 0H713Q715 28 722 90T735 184H731Q590 -23 356 -23Q221 -23 140 61T59 281Q59 349 80 457ZM411 1505H569Q572 1424 617 1383T741 1343Q889 1343 946 1505H1103Q1060 1357 968 1270T728 1184Q580 1184 495 1273T411 1505Z" horiz-adv-x="1251" unicode="ŭ"/>
			<glyph d="M880 1850Q974 1850 1041 1782T1109 1621Q1109 1526 1042 1459T880 1393Q785 1393 718 1460T652 1621Q652 1715 720 1782T880 1850ZM880 1734Q834 1734 801 1700T768 1621Q768 1573 801 1539T880 1505Q927 1505 960 1539T994 1621Q994 1667 960 1700T880 1734ZM262 1409H557L393 571Q383 514 383 461Q383 352 459 291T668 231Q811 231 904 312T1030 561L1196 1409H1491L1319 528Q1265 253 1090 116T643 -20Q381 -20 232 97T84 430Q84 499 102 598Z" horiz-adv-x="1479" unicode="Ů"/>
			<glyph d="M201 1081H481L360 473Q350 418 350 375Q350 302 386 260T498 219Q603 219 684 296T788 502L901 1081H1182L1020 242Q1006 171 994 98T981 0H713Q715 28 722 90T735 184H731Q590 -23 356 -23Q221 -23 140 61T59 281Q59 349 80 457ZM720 1645Q824 1645 899 1569T974 1391Q974 1284 899 1210T720 1137Q615 1137 540 1211T466 1391Q466 1494 541 1569T720 1645ZM720 1516Q668 1516 632 1479T596 1391Q596 1337 632 1299T720 1262Q773 1262 810 1299T847 1391Q847 1442 809 1479T720 1516Z" horiz-adv-x="1251" unicode="ů"/>
			<glyph d="M262 1409H557L393 571Q383 514 383 461Q383 352 459 291T668 231Q811 231 904 312T1030 561L1196 1409H1491L1319 528Q1265 253 1090 116T643 -20Q381 -20 232 97T84 430Q84 499 102 598ZM744 1817H980V1774L650 1530H519V1565ZM1150 1817H1385V1774L1058 1530H925V1565Z" horiz-adv-x="1479" unicode="Ű"/>
			<glyph d="M201 1081H481L360 473Q350 418 350 375Q350 302 386 260T498 219Q603 219 684 296T788 502L901 1081H1182L1020 242Q1006 171 994 98T981 0H713Q715 28 722 90T735 184H731Q590 -23 356 -23Q221 -23 140 61T59 281Q59 349 80 457ZM581 1485H817V1442L483 1184H342V1219ZM987 1485H1222V1442L891 1184H747V1219Z" horiz-adv-x="1251" unicode="ű"/>
			<glyph d="M262 1409H557L393 571Q383 514 383 461Q383 352 459 291T668 231Q811 231 904 312T1030 561L1196 1409H1491L1319 528Q1267 269 1109 133T705 -18Q654 -59 622 -108T590 -203Q590 -241 612 -262T672 -283Q700 -283 724 -275L754 -266L785 -385Q742 -407 698 -416T600 -426Q515 -426 457 -381T400 -250Q400 -181 439 -120T539 -15Q329 7 206 119T84 430Q84 499 102 598Z" horiz-adv-x="1479" unicode="Ų"/>
			<glyph d="M201 1081H481L360 473Q350 418 350 375Q350 302 386 260T498 219Q603 219 684 296T788 502L901 1081H1182L1020 242Q1006 171 994 98T981 0H942Q883 -42 843 -97T803 -203Q803 -241 825 -262T885 -283Q913 -283 937 -275L967 -266L998 -385Q955 -407 911 -416T813 -426Q728 -426 670 -381T613 -250Q613 -175 660 -109T774 0H713Q715 28 722 90T735 184H731Q590 -23 356 -23Q221 -23 140 61T59 281Q59 349 80 457Z" horiz-adv-x="1251" unicode="ų"/>
			<glyph d="M137 1409H412L455 594Q459 515 460 400L461 248Q477 292 526 422T608 629L942 1409H1260L1296 514L1305 248Q1316 282 1356 393T1434 596L1769 1409H2066L1430 0H1079L1053 811L1051 892Q1047 1028 1047 1116Q1034 1080 994 976T930 815L582 0H227ZM1058 1835H1288L1489 1559L1482 1530H1333L1154 1681L915 1530H745L751 1559Z" horiz-adv-x="1933" unicode="Ŵ"/>
			<glyph d="M66 1081H326L341 398Q341 348 340 308T338 256Q346 277 370 339T416 446L711 1081H1014L1057 446Q1060 397 1060 326V280L1059 256L1092 340Q1117 404 1135 446L1403 1081H1669L1174 0H879L836 659Q833 709 831 787T829 891Q820 866 789 788T735 657L434 0H135ZM829 1530H1058L1253 1210L1246 1184H1103L931 1376L685 1184H509L515 1210Z" horiz-adv-x="1593" unicode="ŵ"/>
			<glyph d="M170 1409H457L690 813L1141 1409H1468L805 578L694 0H399L512 578ZM773 1835H1003L1204 1559L1197 1530H1048L869 1681L630 1530H460L466 1559Z" horiz-adv-x="1366" unicode="Ŷ"/>
			<glyph d="M90 1081H379L453 586Q461 520 473 401T487 252Q528 340 570 431T643 582L901 1081H1204L545 -82Q409 -298 303 -362T55 -426Q4 -426 -32 -421T-104 -406L-51 -188Q-20 -199 35 -199Q113 -199 166 -158T274 -25L303 25ZM602 1530H831L1026 1210L1019 1184H876L704 1376L458 1184H282L288 1210Z" unicode="ŷ"/>
			<glyph d="M170 1409H457L690 813L1141 1409H1468L805 578L694 0H399L512 578ZM635 1776Q690 1776 727 1740T764 1649Q764 1593 727 1556T635 1520Q577 1520 541 1555T506 1649Q506 1706 541 1741T635 1776ZM1044 1776Q1100 1776 1135 1740T1171 1649Q1171 1592 1135 1556T1044 1520Q984 1520 948 1555T913 1649Q913 1706 948 1741T1044 1776Z" horiz-adv-x="1366" unicode="Ÿ"/>
			<glyph d="M276 1409H1288L1247 1194L324 242H1104L1057 0H-74L-33 219L882 1167H229ZM856 1815H1114V1772L762 1530H592V1561Z" horiz-adv-x="1251" unicode="Ź"/>
			<glyph d="M197 1081H975L936 881L336 225H858L815 0H-53L-14 199L590 858H154ZM688 1501H963L954 1458L582 1184H395L401 1214Z" horiz-adv-x="1024" unicode="ź"/>
			<glyph d="M276 1409H1288L1247 1194L324 242H1104L1057 0H-74L-33 219L882 1167H229ZM772 1784Q830 1784 865 1748T901 1653Q901 1595 865 1559T772 1524Q712 1524 677 1558T643 1653Q643 1712 678 1748T772 1784Z" horiz-adv-x="1251" unicode="Ż"/>
			<glyph d="M197 1081H975L936 881L336 225H858L815 0H-53L-14 199L590 858H154ZM613 1477Q674 1477 712 1438T750 1337Q750 1276 712 1238T613 1200Q550 1200 513 1237T476 1337Q476 1400 514 1438T613 1477Z" horiz-adv-x="1024" unicode="ż"/>
			<glyph d="M276 1409H1288L1247 1194L324 242H1104L1057 0H-74L-33 219L882 1167H229ZM488 1835H629L815 1683L1047 1835H1225L1221 1806L916 1530H686L483 1806Z" horiz-adv-x="1251" unicode="Ž"/>
			<glyph d="M197 1081H975L936 881L336 225H858L815 0H-53L-14 199L590 858H154ZM275 1530H424L600 1333L842 1530H1012L1008 1499L697 1184H467L271 1499Z" horiz-adv-x="1024" unicode="ž"/>
			<glyph d="M680 1485Q768 1485 846 1466L805 1266Q763 1276 711 1276Q646 1276 609 1241T555 1126L250 -426H-31L281 1153Q312 1317 404 1401T680 1485Z" horiz-adv-x="655" unicode="ſ"/>
			<glyph d="M868 1454Q914 1454 966 1445T1049 1423L1006 1227Q987 1233 955 1238T903 1243Q841 1243 813 1217T774 1137L754 1030H965L926 819H713L465 -426H184L432 819H272L315 1030H473L500 1165Q527 1302 612 1378T868 1454Z" unicode="ƒ"/>
			<glyph d="M862 1853H1120V1810L974 1729Q1040 1701 1080 1644T1120 1518Q1120 1468 1099 1424T1042 1349L1270 0H977L930 340H373L190 0H-104L665 1375Q612 1438 612 1518Q612 1572 637 1619T706 1699ZM866 1630Q813 1630 777 1598T741 1518Q741 1470 777 1439T866 1409Q920 1409 956 1439T993 1518Q993 1567 956 1598T866 1630ZM815 1192Q807 1167 776 1100T717 981L491 561H899L834 1034Q828 1072 821 1122T815 1192Z" horiz-adv-x="1436" unicode="Ǻ"/>
			<glyph d="M786 1843H1061L1052 1804L771 1618Q834 1586 872 1525T911 1391Q911 1284 836 1210T657 1137Q552 1137 477 1211T403 1391Q403 1456 435 1513T521 1605ZM657 1516Q605 1516 569 1479T533 1391Q533 1337 569 1299T657 1262Q710 1262 747 1299T784 1391Q784 1442 746 1479T657 1516ZM604 1102Q801 1102 906 1020T1012 774Q1012 721 997 653L932 319Q898 148 883 0H629Q636 86 647 160H641Q575 71 497 25T309 -20Q171 -20 81 64T-8 287Q-8 459 123 553T479 651L717 655L723 684Q733 729 733 766Q733 828 692 856T571 885Q504 885 428 864T252 791L162 987Q275 1045 383 1073T604 1102ZM682 481L539 479Q420 477 352 441T285 319Q285 262 322 227T422 193Q515 193 583 254T672 428Z" unicode="ǻ"/>
			<glyph d="M827 1409H2054L2005 1161H1315L1251 834H1880L1833 584H1204L1139 248H1870L1821 0H795L860 340H401L174 0H-137ZM967 1192Q858 1025 829 983L547 561H903L1028 1192ZM1600 1815H1858V1772L1506 1530H1336V1561Z" horiz-adv-x="2038" unicode="Ǽ"/>
			<glyph d="M612 1102Q733 1102 806 1071T920 979Q1051 1102 1274 1102Q1466 1102 1569 997T1673 698Q1673 646 1665 592T1642 467H958Q952 433 952 401Q952 308 1004 250T1157 193Q1220 193 1284 208T1489 295L1573 106Q1491 50 1380 15T1137 -20Q1006 -20 908 27T758 170Q684 77 587 28T350 -20Q188 -20 90 62T-8 287Q-8 459 123 553T479 651L717 655L723 684Q733 729 733 766Q733 827 692 856T571 885Q500 885 426 863T252 791L162 987Q288 1048 392 1075T612 1102ZM1245 897Q1160 897 1092 838T997 659H1411Q1415 688 1415 715Q1415 805 1371 851T1245 897ZM682 481L539 479Q420 477 352 441T285 319Q285 262 322 227T422 193Q515 193 583 254T672 428ZM1058 1501H1333L1324 1458L952 1184H765L771 1214Z" horiz-adv-x="1759" unicode="ǽ"/>
			<glyph d="M1419 1473H1624L1395 1223Q1455 1151 1485 1057T1516 852Q1516 476 1289 228T707 -20Q489 -20 338 69L207 -74H0L219 164Q148 241 112 345T76 573Q76 941 305 1185T887 1430Q1125 1430 1283 1324ZM866 1178Q640 1178 507 1011T375 582Q375 464 420 384L1089 1113Q1003 1178 866 1178ZM1183 991L529 278Q612 233 735 233Q958 233 1085 397T1212 827Q1212 921 1183 991ZM1047 1815H1305V1772L953 1530H783V1561Z" horiz-adv-x="1593" unicode="Ǿ"/>
			<glyph d="M1042 1133H1225L1055 942Q1102 882 1125 805T1149 641Q1149 471 1076 315T859 70T516 -20Q363 -20 254 41L168 -55H-16L147 128Q94 190 67 273T41 453Q41 736 213 919T674 1102Q840 1102 953 1033ZM647 879Q542 879 470 810T367 633T336 438Q336 388 346 351L779 838Q727 879 647 879ZM849 710L424 233Q472 203 545 203Q647 203 718 272T821 454T854 649Q854 678 849 710ZM831 1501H1106L1097 1458L725 1184H538L544 1214Z" horiz-adv-x="1251" unicode="ǿ"/>
			<glyph d="M731 1430Q898 1430 1023 1381T1247 1229L1071 1047Q1000 1114 910 1155T711 1196Q602 1196 535 1153T469 1032Q469 919 621 881T893 799T1089 667T1167 440Q1167 210 1010 95T580 -20Q385 -20 243 42T-4 227L186 410Q257 331 365 277T598 223Q731 223 806 269T881 403Q881 460 847 495T763 550T614 594L569 606Q396 653 289 745T182 1004Q182 1203 333 1316T731 1430ZM516 -61Q577 -61 610 -94T643 -186Q643 -265 599 -321T483 -430L414 -354Q447 -325 464 -305T492 -260Q450 -248 427 -222T404 -162Q404 -117 436 -89T516 -61Z" horiz-adv-x="1290" unicode="Ș"/>
			<glyph d="M539 1102Q674 1102 777 1057T946 934L793 776Q742 826 673 859T530 893Q458 893 415 868T373 791Q373 718 483 685T679 615T815 511T866 338Q866 167 750 73T430 -20Q144 -20 -31 152L104 330Q180 263 259 226T430 190Q518 190 563 217T608 305Q608 390 449 433T202 553T115 764Q115 923 227 1012T539 1102ZM364 -61Q425 -61 458 -94T491 -186Q491 -265 447 -321T331 -430L262 -354Q295 -325 312 -305T340 -260Q298 -248 275 -222T252 -162Q252 -117 284 -89T364 -61Z" horiz-adv-x="1018" unicode="ș"/>
			<glyph d="M160 1409H1325L1276 1161H840L614 0H319L545 1161H111ZM432 -61Q493 -61 526 -94T559 -186Q559 -265 515 -321T399 -430L330 -354Q363 -325 380 -305T408 -260Q366 -248 343 -222T320 -162Q320 -117 352 -89T432 -61Z" horiz-adv-x="1210" unicode="Ț"/>
			<glyph d="M567 1346L516 1081H731L690 872H475L375 356Q367 320 367 293Q367 256 391 235T457 215Q510 215 553 227L543 12Q440 -18 330 -18Q213 -18 145 41T78 219Q78 269 90 336L197 872H55L96 1081H252L313 1325ZM244 -61Q305 -61 338 -94T371 -186Q371 -265 327 -321T211 -430L142 -354Q175 -325 192 -305T220 -260Q178 -248 155 -222T132 -162Q132 -117 164 -89T244 -61Z" horiz-adv-x="692" unicode="ț"/>
			<glyph d="M217 1081H498L270 -88Q238 -254 153 -340T-82 -426Q-185 -426 -250 -410L-207 -193Q-173 -199 -145 -199Q-87 -199 -53 -162T-2 -39Z" horiz-adv-x="569" unicode="ȷ"/>
			<glyph d="M231 1409H537L379 891H168Z" horiz-adv-x="492" unicode="ʼ"/>
			<glyph d="M412 1530H641L836 1210L829 1184H686L514 1376L268 1184H92L98 1210Z" horiz-adv-x="682" unicode="ˆ"/>
			<glyph d="M33 1530H182L358 1333L600 1530H770L766 1499L455 1184H225L29 1499Z" horiz-adv-x="682" unicode="ˇ"/>
			<glyph d="M80 1382H690L657 1214H47Z" horiz-adv-x="684" unicode="ˉ"/>
			<glyph d="M2 1505H160Q163 1424 208 1383T332 1343Q480 1343 537 1505H694Q651 1357 559 1270T319 1184Q171 1184 86 1273T2 1505Z" horiz-adv-x="682" unicode="˘"/>
			<glyph d="M344 1477Q405 1477 443 1438T481 1337Q481 1276 443 1238T344 1200Q281 1200 244 1237T207 1337Q207 1400 245 1438T344 1477Z" horiz-adv-x="682" unicode="˙"/>
			<glyph d="M360 1645Q464 1645 539 1569T614 1391Q614 1284 539 1210T360 1137Q255 1137 180 1211T106 1391Q106 1494 181 1569T360 1645ZM360 1516Q308 1516 272 1479T236 1391Q236 1337 272 1299T360 1262Q413 1262 450 1299T487 1391Q487 1442 449 1479T360 1516Z" horiz-adv-x="682" unicode="˚"/>
			<glyph d="M90 20H254Q186 -20 135 -82T84 -203Q84 -241 106 -262T166 -283Q194 -283 218 -275L248 -266L279 -385Q236 -407 192 -416T94 -426Q9 -426 -48 -381T-106 -250Q-106 -169 -48 -94T90 20Z" horiz-adv-x="682" unicode="˛"/>
			<glyph d="M219 1477Q297 1477 395 1415T537 1354Q583 1354 610 1384T659 1477H795Q776 1360 715 1272T535 1184Q461 1184 361 1245T217 1307Q172 1307 147 1277T102 1184H-43Q-23 1301 38 1389T219 1477Z" horiz-adv-x="682" unicode="˜"/>
			<glyph d="M141 1485H377V1442L43 1184H-98V1219ZM547 1485H782V1442L451 1184H307V1219Z" horiz-adv-x="682" unicode="˝"/>
			<glyph d="M-489 1501H-252L-29 1214L-35 1184H-184L-498 1458Z" horiz-adv-x="0" unicode="̀"/>
			<glyph d="M-336 1501H-61L-70 1458L-442 1184H-629L-623 1214Z" horiz-adv-x="0" unicode="́"/>
			<glyph d="M-270 1530H-41L154 1210L147 1184H4L-168 1376L-414 1184H-590L-584 1210Z" horiz-adv-x="0" unicode="̂"/>
			<glyph d="M-463 1477Q-385 1477 -287 1415T-145 1354Q-99 1354 -71 1384T-23 1477H113Q94 1360 33 1272T-147 1184Q-221 1184 -320 1245T-465 1307Q-510 1307 -534 1277T-580 1184H-725Q-705 1301 -644 1389T-463 1477Z" horiz-adv-x="0" unicode="̃"/>
			<glyph d="M-604 1382H6L-27 1214H-637Z" horiz-adv-x="0" unicode="̄"/>
			<glyph d="M-680 1505H-522Q-519 1424 -474 1383T-350 1343Q-202 1343 -145 1505H12Q-31 1357 -122 1270T-363 1184Q-511 1184 -595 1273T-680 1505Z" horiz-adv-x="0" unicode="̆"/>
			<glyph d="M-338 1477Q-277 1477 -239 1438T-201 1337Q-201 1276 -239 1238T-338 1200Q-401 1200 -438 1237T-475 1337Q-475 1400 -437 1438T-338 1477Z" horiz-adv-x="0" unicode="̇"/>
			<glyph d="M-524 1454Q-468 1454 -432 1418T-397 1327Q-397 1269 -433 1233T-524 1198Q-584 1198 -619 1232T-655 1327Q-655 1384 -619 1419T-524 1454ZM-115 1454Q-59 1454 -22 1418T14 1327Q14 1269 -22 1233T-115 1198Q-175 1198 -209 1232T-244 1327Q-244 1384 -208 1419T-115 1454Z" horiz-adv-x="0" unicode="̈"/>
			<glyph d="M-322 1645Q-218 1645 -143 1569T-68 1391Q-68 1284 -142 1210T-322 1137Q-427 1137 -501 1211T-576 1391Q-576 1494 -500 1569T-322 1645ZM-322 1516Q-374 1516 -410 1479T-446 1391Q-446 1337 -410 1299T-322 1262Q-269 1262 -232 1299T-195 1391Q-195 1442 -232 1479T-322 1516Z" horiz-adv-x="0" unicode="̊"/>
			<glyph d="M-541 1485H-305V1442L-639 1184H-780V1219ZM-135 1485H100V1442L-231 1184H-375V1219Z" horiz-adv-x="0" unicode="̋"/>
			<glyph d="M-649 1530H-500L-324 1333L-82 1530H88L84 1499L-227 1184H-457L-653 1499Z" horiz-adv-x="0" unicode="̌"/>
			<glyph d="M-191 1577L-125 1499Q-155 1476 -176 1454T-209 1407Q-169 1393 -147 1366T-125 1305Q-125 1263 -157 1236T-238 1210Q-298 1210 -331 1242T-365 1333Q-365 1413 -317 1469T-191 1577Z" horiz-adv-x="0" unicode="̒"/>
			<glyph d="M-338 -98Q-277 -98 -239 -137T-201 -238Q-201 -299 -239 -337T-338 -375Q-401 -375 -438 -338T-475 -238Q-475 -175 -437 -136T-338 -98Z" horiz-adv-x="0" unicode="̣"/>
			<glyph d="M-402 -61Q-341 -61 -308 -94T-275 -186Q-275 -265 -318 -321T-435 -430L-504 -354Q-471 -325 -453 -305T-426 -260Q-468 -248 -491 -222T-514 -162Q-514 -117 -482 -89T-402 -61Z" horiz-adv-x="0" unicode="̦"/>
			<glyph d="M-623 0H-479L-526 -86Q-450 -94 -407 -131T-365 -231Q-365 -330 -454 -378T-682 -426Q-742 -426 -797 -416L-776 -299Q-735 -307 -694 -307Q-623 -307 -585 -290T-547 -236Q-547 -201 -573 -185T-657 -170Q-690 -170 -709 -172Z" horiz-adv-x="0" unicode="̧"/>
			<glyph d="M-592 20H-428Q-496 -20 -547 -82T-598 -203Q-598 -241 -576 -262T-516 -283Q-488 -283 -464 -275L-434 -266L-403 -385Q-446 -407 -490 -416T-588 -426Q-673 -426 -730 -381T-788 -250Q-788 -169 -730 -94T-592 20Z" horiz-adv-x="0" unicode="̨"/>
			<glyph d="M231 1409H537L379 891H168Z" horiz-adv-x="492" unicode="ʹ"/>
			<glyph d="M16 274H322L164 -244H-47Z" horiz-adv-x="492" unicode="͵"/>
			<glyph d="M387 1085Q461 1085 506 1040T551 920Q551 846 505 800T387 754Q311 754 266 799T221 920Q221 995 266 1040T387 1085ZM241 319Q314 319 357 270T401 133Q401 14 317 -120T116 -344L18 -252Q79 -195 124 -135T190 -8Q135 7 103 50T71 152Q71 227 117 273T241 319Z" horiz-adv-x="682" unicode=";"/>
			<glyph d="M281 1507H539L532 1470L264 1184H158L164 1217Z" horiz-adv-x="682" unicode="΄"/>
			<glyph d="M463 1622H700V1583L485 1190H371V1223ZM225 1452Q275 1452 306 1421T338 1341Q338 1294 306 1262T225 1231Q175 1231 144 1261T113 1341Q113 1391 144 1421T225 1452ZM764 1452Q812 1452 843 1421T874 1341Q874 1294 842 1262T764 1231Q712 1231 680 1261T649 1341Q649 1391 680 1421T764 1452Z" horiz-adv-x="952" unicode="΅"/>
			<glyph d="M684 1409H1032L1270 0H977L930 340H373L190 0H-104ZM815 1192Q807 1167 776 1100T717 981L491 561H899L834 1034Q828 1072 821 1122T815 1192ZM224 1409H482L475 1372L207 1086H101L107 1119Z" horiz-adv-x="1436" unicode="Ά"/>
			<glyph d="M342 846Q416 846 461 800T506 680Q506 606 460 560T342 514Q266 514 221 559T176 680Q176 756 221 801T342 846Z" horiz-adv-x="682" unicode="·"/>
			<glyph d="M274 1409H1288L1239 1161H520L457 834H1114L1067 584H410L344 248H1104L1055 0H0ZM-43 1409H215L208 1372L-60 1086H-166L-160 1119Z" horiz-adv-x="1272" unicode="Έ"/>
			<glyph d="M274 1409H569L463 860H1077L1184 1409H1479L1204 0H909L1026 596H412L295 0H0ZM-43 1409H215L208 1372L-60 1086H-166L-160 1119Z" horiz-adv-x="1479" unicode="Ή"/>
			<glyph d="M274 1409H569L295 0H0ZM-43 1409H215L208 1372L-60 1086H-166L-160 1119Z" horiz-adv-x="569" unicode="Ί"/>
			<glyph d="M887 1430Q1177 1430 1346 1273T1516 852Q1516 476 1289 228T707 -20Q410 -20 243 140T76 573Q76 941 305 1185T887 1430ZM866 1178Q640 1178 507 1011T375 582Q375 412 468 322T735 233Q958 233 1085 397T1212 827Q1212 996 1120 1087T866 1178ZM82 1409H340L333 1372L65 1086H-41L-35 1119Z" horiz-adv-x="1593" unicode="Ό"/>
			<glyph d="M170 1409H457L690 813L1141 1409H1468L805 578L694 0H399L512 578ZM-139 1409H119L112 1372L-156 1086H-262L-256 1119Z" horiz-adv-x="1366" unicode="Ύ"/>
			<glyph d="M918 1430Q1190 1430 1360 1285T1530 889Q1530 665 1392 488T1026 238Q1030 238 1084 243T1186 248H1434L1384 0H756L819 330Q1015 415 1121 549T1227 858Q1227 1005 1136 1091T901 1178Q691 1178 568 1051T446 719Q446 593 505 495T682 330L618 0H-18L31 248H281Q340 248 460 239H477L483 238Q333 311 244 441T156 719Q156 1045 361 1237T918 1430ZM111 1409H369L362 1372L94 1086H-12L-6 1119Z" horiz-adv-x="1642" unicode="Ώ"/>
			<glyph d="M211 1081H489L340 311Q334 281 334 260Q334 225 352 211T408 197Q426 197 446 201L465 4Q389 -20 283 -20Q166 -20 108 40T51 209Q51 262 66 334ZM362 1622H599V1583L384 1190H270V1223ZM124 1452Q174 1452 205 1421T237 1341Q237 1294 205 1262T124 1231Q74 1231 43 1261T12 1341Q12 1391 43 1421T124 1452ZM663 1452Q711 1452 742 1421T773 1341Q773 1294 741 1262T663 1231Q611 1231 579 1261T548 1341Q548 1391 579 1421T663 1452Z" horiz-adv-x="594" unicode="ΐ"/>
			<glyph d="M684 1409H1032L1270 0H977L930 340H373L190 0H-104ZM815 1192Q807 1167 776 1100T717 981L491 561H899L834 1034Q828 1072 821 1122T815 1192Z" horiz-adv-x="1436" unicode="Α"/>
			<glyph d="M274 1409H831Q1054 1409 1180 1325T1307 1096Q1307 951 1220 862T977 741Q1091 721 1162 640T1233 446Q1233 234 1058 117T598 0H0ZM524 1178L461 850H713Q848 850 928 896T1008 1030Q1008 1111 947 1144T772 1178ZM414 614L340 233H618Q763 233 848 287T934 446Q934 539 872 576T702 614Z" horiz-adv-x="1386" unicode="Β"/>
			<glyph d="M274 1409H1192L1143 1161H520L295 0H0Z" horiz-adv-x="1087" unicode="Γ"/>
			<glyph d="M662 1409H1032L1243 215L1200 0H-45L-2 215ZM816 1222L688 971L305 231H965L856 971Q843 1061 816 1222Z" horiz-adv-x="1430" unicode="Δ"/>
			<glyph d="M274 1409H1288L1239 1161H520L457 834H1114L1067 584H410L344 248H1104L1055 0H0Z" horiz-adv-x="1272" unicode="Ε"/>
			<glyph d="M276 1409H1288L1247 1194L324 242H1104L1057 0H-74L-33 219L882 1167H229Z" horiz-adv-x="1251" unicode="Ζ"/>
			<glyph d="M274 1409H569L463 860H1077L1184 1409H1479L1204 0H909L1026 596H412L295 0H0Z" horiz-adv-x="1479" unicode="Η"/>
			<glyph d="M887 1430Q1177 1430 1346 1273T1516 852Q1516 476 1289 228T707 -20Q410 -20 243 140T76 573Q76 941 305 1185T887 1430ZM866 1178Q640 1178 507 1011T375 582Q375 412 468 322T735 233Q958 233 1085 397T1212 827Q1212 996 1120 1087T866 1178ZM526 827H1114L1069 598H481Z" horiz-adv-x="1593" unicode="Θ"/>
			<glyph d="M274 1409H569L295 0H0Z" horiz-adv-x="569" unicode="Ι"/>
			<glyph d="M272 1409H567L442 774L1122 1409H1499L813 792L1239 0H924L603 620L381 457L293 0H0Z" horiz-adv-x="1397" unicode="Κ"/>
			<glyph d="M637 1409H963L1174 0H893L778 965Q763 1087 754 1171Q724 1092 666 971L186 0H-123Z" horiz-adv-x="1325" unicode="Λ"/>
			<glyph d="M272 1409H686L776 621Q782 571 789 474T799 344L852 471Q892 567 918 616L1317 1409H1745L1470 0H1208L1380 885Q1398 973 1422 1075T1454 1206L1372 1026Q1309 889 1272 815L858 0H608L514 819Q507 882 493 1020T475 1206L458 1062Q445 952 432 887L262 0H0Z" horiz-adv-x="1745" unicode="Μ"/>
			<glyph d="M272 1409H633L999 268Q1002 291 1014 370T1040 524L1214 1409H1477L1202 0H838L473 1130Q470 1105 458 1027T434 893L262 0H0Z" horiz-adv-x="1479" unicode="Ν"/>
			<glyph d="M256 1409H1255L1206 1161H207ZM266 838H1024L975 588H217ZM-4 248H1065L1016 0H-53Z" horiz-adv-x="1237" unicode="Ξ"/>
			<glyph d="M887 1430Q1177 1430 1346 1273T1516 852Q1516 476 1289 228T707 -20Q410 -20 243 140T76 573Q76 941 305 1185T887 1430ZM866 1178Q640 1178 507 1011T375 582Q375 412 468 322T735 233Q958 233 1085 397T1212 827Q1212 996 1120 1087T866 1178Z" horiz-adv-x="1593" unicode="Ο"/>
			<glyph d="M274 1409H1458L1184 0H899L1122 1145H516L293 0H0Z" horiz-adv-x="1458" unicode="Π"/>
			<glyph d="M272 1409H829Q1072 1409 1204 1292T1337 985Q1337 752 1166 613T725 475H385L293 0H0ZM518 1159L434 723H737Q876 723 956 793T1036 981Q1036 1066 977 1112T803 1159Z" horiz-adv-x="1366" unicode="Ρ"/>
			<glyph d="M244 1409H1243L1194 1161H522L823 809L797 674L359 248H1079L1030 0H-47L-2 233L548 766L199 1176Z" horiz-adv-x="1229" unicode="Σ"/>
			<glyph d="M160 1409H1325L1276 1161H840L614 0H319L545 1161H111Z" horiz-adv-x="1210" unicode="Τ"/>
			<glyph d="M170 1409H457L690 813L1141 1409H1468L805 578L694 0H399L512 578Z" horiz-adv-x="1366" unicode="Υ"/>
			<glyph d="M842 1419H1120L1090 1262H1124Q1363 1262 1498 1140T1634 801Q1634 534 1437 361T934 188H881L842 -10H563L602 188H557Q332 188 196 319T61 659Q61 935 253 1098T768 1262H811ZM745 1032Q569 1032 464 932T360 674Q360 559 429 488T610 418H647L766 1032ZM1044 1032L926 418H950Q1119 418 1225 522T1331 786Q1331 900 1261 966T1077 1032Z" horiz-adv-x="1681" unicode="Φ"/>
			<glyph d="M199 1409H498L718 912L1120 1409H1446L876 728L1212 0H918L670 559L215 0H-117L516 754Z" horiz-adv-x="1366" unicode="Χ"/>
			<glyph d="M233 1409H512L422 942Q412 880 412 846Q412 750 466 709T643 668H682L825 1409H1106L963 668H971Q1134 668 1216 729T1329 942L1419 1409H1698L1608 946Q1553 668 1403 547T975 426H915L831 0H551L635 426H596Q374 426 251 525T129 813Q129 864 143 946Z" horiz-adv-x="1657" unicode="Ψ"/>
			<glyph d="M918 1430Q1190 1430 1360 1285T1530 889Q1530 665 1392 488T1026 238Q1030 238 1084 243T1186 248H1434L1384 0H756L819 330Q1015 415 1121 549T1227 858Q1227 1005 1136 1091T901 1178Q691 1178 568 1051T446 719Q446 593 505 495T682 330L618 0H-18L31 248H281Q340 248 460 239H477L483 238Q333 311 244 441T156 719Q156 1045 361 1237T918 1430Z" horiz-adv-x="1642" unicode="Ω"/>
			<glyph d="M274 1409H569L295 0H0ZM236 1776Q291 1776 328 1740T365 1649Q365 1593 328 1556T236 1520Q178 1520 142 1555T107 1649Q107 1706 142 1741T236 1776ZM645 1776Q701 1776 736 1740T772 1649Q772 1592 736 1556T645 1520Q585 1520 549 1555T514 1649Q514 1706 549 1741T645 1776Z" horiz-adv-x="569" unicode="Ϊ"/>
			<glyph d="M170 1409H457L690 813L1141 1409H1468L805 578L694 0H399L512 578ZM635 1776Q690 1776 727 1740T764 1649Q764 1593 727 1556T635 1520Q577 1520 541 1555T506 1649Q506 1706 541 1741T635 1776ZM1044 1776Q1100 1776 1135 1740T1171 1649Q1171 1592 1135 1556T1044 1520Q984 1520 948 1555T913 1649Q913 1706 948 1741T1044 1776Z" horiz-adv-x="1366" unicode="Ϋ"/>
			<glyph d="M598 1102Q738 1102 814 1029T915 805L918 793Q941 854 986 938T1063 1081H1370Q1190 803 1100 659L1007 510L1018 426Q1035 291 1054 249T1116 207Q1136 207 1163 213L1188 18Q1134 2 1098 -5T1014 -12Q911 -12 859 46T801 217L800 246L760 193Q679 85 593 32T395 -20Q223 -20 128 86T33 379Q33 701 184 901T598 1102ZM598 887Q476 887 402 736T328 393Q328 297 361 245T457 193Q536 193 593 255T713 440L750 518L754 588Q754 602 755 629Q755 749 714 818T598 887ZM787 1507H1045L1038 1470L770 1184H664L670 1217Z" horiz-adv-x="1313" unicode="ά"/>
			<glyph d="M555 1102Q778 1102 926 977L799 807Q683 903 549 903Q474 903 434 871T395 780Q395 713 474 682T694 651L659 475Q475 475 382 439T289 309Q289 253 328 221T434 190Q508 190 579 214T756 293L831 106Q729 46 627 13T389 -20Q208 -20 102 56T-4 268Q-4 399 84 478T315 569V571Q229 592 178 645T127 780Q127 928 240 1015T555 1102ZM611 1507H869L862 1470L594 1184H488L494 1217Z" horiz-adv-x="969" unicode="έ"/>
			<glyph d="M815 1102Q967 1102 1044 1019T1122 776Q1122 689 1100 573L905 -426H627L825 598Q838 666 838 707Q838 868 692 868Q585 868 506 790T401 582L289 0H6L156 770Q162 802 162 819Q162 874 119 874Q103 874 88 868L74 1061Q187 1092 260 1092Q351 1092 399 1042T451 897H455Q521 997 609 1049T815 1102ZM715 1507H973L966 1470L698 1184H592L598 1217Z" horiz-adv-x="1251" unicode="ή"/>
			<glyph d="M211 1081H489L340 311Q334 281 334 260Q334 225 352 211T408 197Q426 197 446 201L465 4Q389 -20 283 -20Q166 -20 108 40T51 209Q51 262 66 334ZM377 1507H635L628 1470L360 1184H254L260 1217Z" horiz-adv-x="594" unicode="ί"/>
			<glyph d="M201 1081H481L360 461Q352 422 352 381Q352 296 393 251T514 207Q679 207 748 365T817 788Q817 877 805 953T776 1081H1063Q1100 952 1100 774Q1100 392 947 186T500 -20Q285 -20 176 76T68 342Q68 400 80 461ZM645 1622H882V1583L667 1190H553V1223ZM407 1452Q457 1452 488 1421T520 1341Q520 1294 488 1262T407 1231Q357 1231 326 1261T295 1341Q295 1391 326 1421T407 1452ZM946 1452Q994 1452 1025 1421T1056 1341Q1056 1294 1024 1262T946 1231Q894 1231 862 1261T831 1341Q831 1391 862 1421T946 1452Z" horiz-adv-x="1192" unicode="ΰ"/>
			<glyph d="M598 1102Q738 1102 814 1029T915 805L918 793Q941 854 986 938T1063 1081H1370Q1190 803 1100 659L1007 510L1018 426Q1035 291 1054 249T1116 207Q1136 207 1163 213L1188 18Q1134 2 1098 -5T1014 -12Q911 -12 859 46T801 217L800 246L760 193Q679 85 593 32T395 -20Q223 -20 128 86T33 379Q33 701 184 901T598 1102ZM598 887Q476 887 402 736T328 393Q328 297 361 245T457 193Q536 193 593 255T713 440L750 518L754 588Q754 602 755 629Q755 749 714 818T598 887Z" horiz-adv-x="1313" unicode="α"/>
			<glyph d="M745 1485Q929 1485 1047 1397T1165 1163Q1165 1030 1087 928T877 789Q981 757 1052 674T1124 459Q1124 242 984 111T618 -20Q521 -20 436 6T303 74H293Q283 -21 262 -129L205 -426H-78L199 999Q247 1251 377 1368T745 1485ZM729 1266Q630 1266 568 1201T479 991L340 276Q381 238 448 215T604 193Q719 193 786 264T854 446Q854 549 780 612T569 676L608 874Q763 886 827 955T891 1116Q891 1187 848 1226T729 1266Z" horiz-adv-x="1249" unicode="β"/>
			<glyph d="M182 1100Q341 1100 408 1010T494 690T520 289Q633 461 736 673T879 1081H1208Q1185 985 1148 886T1056 674T932 451T772 217T617 23T502 -207Q468 -313 446 -426H131Q150 -324 193 -210T297 0Q288 136 258 401T198 760T102 854Q88 854 68 850L51 1087Q116 1100 182 1100Z" horiz-adv-x="1188" unicode="γ"/>
			<glyph d="M391 1485H1243L1202 1274H844Q772 1274 700 1280L928 1022Q1021 918 1068 810T1116 575Q1116 296 960 138T526 -20Q300 -20 168 97T37 412Q37 643 185 797T612 1024L358 1317ZM723 883Q521 838 424 721T328 432Q328 321 383 259T532 197Q687 197 759 296T831 559Q831 661 803 734T723 883Z" horiz-adv-x="1241" unicode="δ"/>
			<glyph d="M555 1102Q778 1102 926 977L799 807Q683 903 549 903Q474 903 434 871T395 780Q395 713 474 682T694 651L659 475Q475 475 382 439T289 309Q289 253 328 221T434 190Q508 190 579 214T756 293L831 106Q729 46 627 13T389 -20Q208 -20 102 56T-4 268Q-4 399 84 478T315 569V571Q229 592 178 645T127 780Q127 928 240 1015T555 1102Z" horiz-adv-x="969" unicode="ε"/>
			<glyph d="M326 1485H1028L991 1294Q680 1042 472 795T264 391Q264 324 307 282T440 216T608 158T724 74T762 -53Q762 -225 590 -393L426 -281Q462 -243 483 -205T504 -137Q504 -62 396 -32T205 29T55 126T-12 319Q-12 522 197 782T682 1277Q634 1274 580 1274H285Z" horiz-adv-x="942" unicode="ζ"/>
			<glyph d="M815 1102Q967 1102 1044 1019T1122 776Q1122 689 1100 573L905 -426H627L825 598Q838 666 838 707Q838 868 692 868Q585 868 506 790T401 582L289 0H6L156 770Q162 802 162 819Q162 874 119 874Q103 874 88 868L74 1061Q187 1092 260 1092Q351 1092 399 1042T451 897H455Q521 997 609 1049T815 1102Z" horiz-adv-x="1251" unicode="η"/>
			<glyph d="M686 1483Q872 1483 964 1373T1057 1040Q1057 823 978 542T764 121T428 -20Q254 -20 158 95T63 440Q63 640 140 920T352 1341T686 1483ZM670 1280Q574 1280 513 1185T395 844H768Q791 991 791 1081Q791 1185 762 1232T670 1280ZM354 633Q332 482 332 391Q332 285 360 233T449 182Q545 182 606 281T728 633Z" horiz-adv-x="1108" unicode="θ"/>
			<glyph d="M211 1081H489L340 311Q334 281 334 260Q334 225 352 211T408 197Q426 197 446 201L465 4Q389 -20 283 -20Q166 -20 108 40T51 209Q51 262 66 334Z" horiz-adv-x="594" unicode="ι"/>
			<glyph d="M217 1081H498L410 635L872 1081H1196L723 649L1006 0H713L514 489L365 387L289 0H8Z" unicode="κ"/>
			<glyph d="M453 1536Q598 1536 670 1460T778 1161L891 446Q912 316 935 269T1010 223L981 -12Q799 -12 733 63T649 338L637 469L627 572Q621 630 617 673T614 736V745Q582 680 530 580T444 428L178 0H-129L549 1006L537 1079Q514 1213 487 1262T399 1311Q354 1311 307 1292L250 1495Q307 1517 355 1526T453 1536Z" unicode="λ"/>
			<glyph d="M217 1081H500L385 498Q371 430 371 379Q371 291 412 252T518 213Q607 213 684 294T788 504L901 1081H1184L1040 344Q1028 283 1028 258Q1028 224 1042 210T1085 197Q1102 197 1126 205L1139 10Q1090 -7 1049 -13T969 -20Q865 -20 814 25T752 164H750Q685 70 619 25T467 -20Q409 -20 366 8T305 90H301Q299 56 293 21L285 -25Q283 -33 281 -45L207 -426H-76Z" horiz-adv-x="1253" unicode="μ"/>
			<glyph d="M186 1100Q331 1100 395 1017T499 707T565 256Q722 447 822 647T965 1081H1253Q1162 588 629 0L348 -2Q330 121 282 392T206 758T109 854Q89 854 63 850L55 1083Q111 1100 186 1100Z" horiz-adv-x="1233" unicode="ν"/>
			<glyph d="M299 1485H954L918 1298Q746 1281 629 1227T512 1061Q512 987 588 956T801 913L762 711Q479 678 371 604T264 397Q264 333 304 295T440 225T609 153T718 55T754 -78Q754 -185 707 -260T584 -401L426 -274Q466 -238 483 -208T500 -145Q500 -51 339 -9T87 112T-4 340Q-4 527 136 657T508 827V829Q403 841 337 896T272 1026Q272 1130 342 1189T522 1277L491 1276Q371 1272 334 1272H258Z" horiz-adv-x="911" unicode="ξ"/>
			<glyph d="M674 1102Q900 1102 1024 975T1149 641Q1149 471 1076 315T859 70T516 -20Q291 -20 166 108T41 453Q41 736 213 919T674 1102ZM647 879Q542 879 470 810T367 633T336 438Q336 324 389 263T545 203Q647 203 718 272T821 454T854 649Q854 760 799 819T647 879Z" horiz-adv-x="1251" unicode="ο"/>
			<glyph d="M297 1081H1587L1546 872H1272L1161 303Q1159 293 1159 274Q1159 237 1180 217T1241 197Q1279 197 1317 207L1350 10Q1293 -4 1244 -12T1145 -20Q1017 -20 945 42T874 221Q874 260 883 303L993 872H651L631 768Q583 524 525 343T393 0H106Q188 181 248 356T354 760L377 872H360Q266 872 216 868T133 850L111 1053Q143 1066 196 1073T297 1081Z" horiz-adv-x="1569" unicode="π"/>
			<glyph d="M682 1104Q897 1104 1028 978T1159 631Q1159 350 1003 165T598 -20Q501 -20 424 18T301 117H297Q292 72 279 0L197 -426H-98L98 594Q198 1104 682 1104ZM666 889Q547 889 483 809T389 571L340 319Q383 260 443 227T580 195Q715 195 790 318T866 633Q866 756 812 822T666 889Z" horiz-adv-x="1268" unicode="ρ"/>
			<glyph d="M676 1104Q787 1104 877 1064T1020 952L850 793Q813 839 771 866T668 893Q525 893 408 736T291 412Q291 333 336 285T532 193T754 83T825 -78Q825 -153 795 -222T653 -401L496 -281Q532 -247 551 -217T571 -150Q571 -111 541 -85T391 -22L346 -8Q197 38 108 127T20 373Q20 552 109 721T350 997T676 1104Z" horiz-adv-x="1065" unicode="ς"/>
			<glyph d="M752 1081H1436L1395 872H1198Q1119 872 1034 877V874Q1077 808 1102 730T1128 559Q1128 290 966 135T530 -20Q302 -20 166 101T31 430Q31 724 233 902T752 1081ZM741 872Q553 872 440 750T328 436Q328 322 387 257T539 193Q694 193 771 306T848 606Q848 696 837 758T807 872Z" horiz-adv-x="1401" unicode="σ"/>
			<glyph d="M274 1081H940L899 872H608L504 336Q496 295 496 281Q496 240 519 218T584 197Q623 197 653 207L686 12Q571 -20 479 -20Q349 -20 281 44T213 223Q213 271 227 342L330 872H303Q227 872 176 866T86 848L63 1051Q109 1066 166 1073T274 1081Z" horiz-adv-x="907" unicode="τ"/>
			<glyph d="M201 1081H481L360 461Q352 422 352 381Q352 296 393 251T514 207Q679 207 748 365T817 788Q817 877 805 953T776 1081H1063Q1100 952 1100 774Q1100 392 947 186T500 -20Q285 -20 176 76T68 342Q68 400 80 461Z" horiz-adv-x="1192" unicode="υ"/>
			<glyph d="M575 1110L612 911Q476 884 396 761T317 475Q317 240 508 190L608 711Q646 910 739 1007T1010 1104Q1179 1104 1273 997T1368 694Q1368 364 1198 184T707 -16L627 -426H387L469 -10Q268 21 155 140T43 459Q43 723 181 893T575 1110ZM995 909Q935 909 900 860T844 698L745 186Q934 219 1018 354T1102 692Q1102 909 995 909Z" horiz-adv-x="1464" unicode="φ"/>
			<glyph d="M102 1100Q269 1100 349 1074T480 970T571 725L596 623L897 1081H1204L691 387L948 -426H664L510 178L104 -426H-207L414 412L344 647Q308 766 263 812T127 858Z" horiz-adv-x="1180" unicode="χ"/>
			<glyph d="M766 1339H1024L803 197Q938 197 1001 255T1094 463L1214 1081H1489L1368 459Q1316 193 1176 86T762 -20L684 -426H424L502 -20Q301 -17 186 78T72 350Q72 409 84 473L203 1081H477L358 475Q348 413 348 379Q348 283 398 241T545 197Z" horiz-adv-x="1542" unicode="ψ"/>
			<glyph d="M293 1081H590Q476 933 400 743T324 406Q324 301 362 249T473 197Q555 197 611 269T692 473L729 662H987L950 473Q942 429 942 385Q942 296 980 246T1092 197Q1216 197 1283 352T1350 758Q1350 937 1296 1081H1573Q1626 924 1626 754Q1626 404 1490 192T1108 -20Q826 -20 784 217H780Q719 99 630 39T408 -20Q231 -20 134 80T37 377Q37 549 108 741T293 1081Z" horiz-adv-x="1724" unicode="ω"/>
			<glyph d="M211 1081H489L340 311Q334 281 334 260Q334 225 352 211T408 197Q426 197 446 201L465 4Q389 -20 283 -20Q166 -20 108 40T51 209Q51 262 66 334ZM182 1454Q238 1454 273 1418T309 1327Q309 1269 273 1233T182 1198Q122 1198 86 1232T51 1327Q51 1384 86 1419T182 1454ZM591 1454Q647 1454 683 1418T720 1327Q720 1269 683 1233T591 1198Q531 1198 496 1232T462 1327Q462 1384 497 1419T591 1454Z" horiz-adv-x="594" unicode="ϊ"/>
			<glyph d="M201 1081H481L360 461Q352 422 352 381Q352 296 393 251T514 207Q679 207 748 365T817 788Q817 877 805 953T776 1081H1063Q1100 952 1100 774Q1100 392 947 186T500 -20Q285 -20 176 76T68 342Q68 400 80 461ZM465 1454Q521 1454 556 1418T592 1327Q592 1269 556 1233T465 1198Q405 1198 369 1232T334 1327Q334 1384 369 1419T465 1454ZM874 1454Q930 1454 966 1418T1003 1327Q1003 1269 966 1233T874 1198Q814 1198 779 1232T745 1327Q745 1384 780 1419T874 1454Z" horiz-adv-x="1192" unicode="ϋ"/>
			<glyph d="M674 1102Q900 1102 1024 975T1149 641Q1149 471 1076 315T859 70T516 -20Q291 -20 166 108T41 453Q41 736 213 919T674 1102ZM647 879Q542 879 470 810T367 633T336 438Q336 324 389 263T545 203Q647 203 718 272T821 454T854 649Q854 760 799 819T647 879ZM715 1507H973L966 1470L698 1184H592L598 1217Z" horiz-adv-x="1251" unicode="ό"/>
			<glyph d="M201 1081H481L360 461Q352 422 352 381Q352 296 393 251T514 207Q679 207 748 365T817 788Q817 877 805 953T776 1081H1063Q1100 952 1100 774Q1100 392 947 186T500 -20Q285 -20 176 76T68 342Q68 400 80 461ZM660 1507H918L911 1470L643 1184H537L543 1217Z" horiz-adv-x="1192" unicode="ύ"/>
			<glyph d="M293 1081H590Q476 933 400 743T324 406Q324 301 362 249T473 197Q555 197 611 269T692 473L729 662H987L950 473Q942 429 942 385Q942 296 980 246T1092 197Q1216 197 1283 352T1350 758Q1350 937 1296 1081H1573Q1626 924 1626 754Q1626 404 1490 192T1108 -20Q826 -20 784 217H780Q719 99 630 39T408 -20Q231 -20 134 80T37 377Q37 549 108 741T293 1081ZM955 1507H1213L1206 1470L938 1184H832L838 1217Z" horiz-adv-x="1724" unicode="ώ"/>
			<glyph d="M274 1409H1288L1239 1161H520L457 834H1114L1067 584H410L344 248H1104L1055 0H0ZM473 1815H731L993 1561V1530H823L473 1772Z" horiz-adv-x="1272" unicode="Ѐ"/>
			<glyph d="M274 1409H1288L1239 1161H520L457 834H1114L1067 584H410L344 248H1104L1055 0H0ZM619 1776Q674 1776 711 1740T748 1649Q748 1593 711 1556T619 1520Q561 1520 525 1555T490 1649Q490 1706 525 1741T619 1776ZM1028 1776Q1084 1776 1119 1740T1155 1649Q1155 1592 1119 1556T1028 1520Q968 1520 932 1555T897 1649Q897 1706 932 1741T1028 1776Z" horiz-adv-x="1272" unicode="Ё"/>
			<glyph d="M160 1409H1325L1276 1161H840L778 846Q870 889 975 916T1210 944Q1406 944 1522 834T1638 537Q1638 274 1508 127T1141 -20Q951 -20 809 41L887 289Q965 259 1015 246T1133 233Q1242 233 1291 309T1341 500Q1341 605 1286 656T1110 707Q955 707 735 621L614 0H319L545 1161H111Z" horiz-adv-x="1792" unicode="Ђ"/>
			<glyph d="M274 1409H1192L1143 1161H520L295 0H0ZM879 1815H1137V1772L785 1530H615V1561Z" horiz-adv-x="1087" unicode="Ѓ"/>
			<glyph d="M883 1430Q1048 1430 1181 1378T1438 1206L1251 1014Q1171 1088 1082 1133T872 1178Q701 1178 584 1088T416 840H940L891 590H377V573Q377 417 469 325T719 233Q835 233 938 273T1178 432L1337 231Q1178 91 1029 35T702 -20Q412 -20 245 144T78 569Q78 949 300 1189T883 1430Z" horiz-adv-x="1462" unicode="Є"/>
			<glyph d="M731 1430Q898 1430 1023 1381T1247 1229L1071 1047Q1000 1114 910 1155T711 1196Q602 1196 535 1153T469 1032Q469 919 621 881T893 799T1089 667T1167 440Q1167 210 1010 95T580 -20Q385 -20 243 42T-4 227L186 410Q257 331 365 277T598 223Q731 223 806 269T881 403Q881 460 847 495T763 550T614 594L569 606Q396 653 289 745T182 1004Q182 1203 333 1316T731 1430Z" horiz-adv-x="1290" unicode="Ѕ"/>
			<glyph d="M274 1409H569L295 0H0Z" horiz-adv-x="569" unicode="І"/>
			<glyph d="M274 1409H569L295 0H0ZM236 1776Q291 1776 328 1740T365 1649Q365 1593 328 1556T236 1520Q178 1520 142 1555T107 1649Q107 1706 142 1741T236 1776ZM645 1776Q701 1776 736 1740T772 1649Q772 1592 736 1556T645 1520Q585 1520 549 1555T514 1649Q514 1706 549 1741T645 1776Z" horiz-adv-x="569" unicode="Ї"/>
			<glyph d="M831 1409H1126L938 446Q891 205 761 92T420 -20Q277 -20 169 33T-29 211L178 381Q237 305 296 268T428 231Q604 231 651 481Z" horiz-adv-x="1128" unicode="Ј"/>
			<glyph d="M481 1409H1389L1284 868H1645Q1872 868 1994 770T2116 479Q2116 264 1944 132T1503 0H819L1044 1145H690L584 797Q475 437 397 274T230 48T-4 -16Q-43 -16 -79 -10T-129 2L-57 248Q-33 242 -6 242Q44 242 84 298T171 476T305 862ZM1235 621L1163 250H1503Q1646 250 1731 304T1817 461Q1817 543 1755 582T1569 621Z" horiz-adv-x="2241" unicode="Љ"/>
			<glyph d="M274 1409H569L461 846H1006L1116 1409H1409L1303 848H1577Q1804 848 1926 751T2048 463Q2048 252 1879 126T1438 0H840L956 600H412L295 0H2ZM1253 600L1184 250H1438Q1582 250 1665 298T1749 444Q1749 526 1688 563T1501 600Z" horiz-adv-x="2177" unicode="Њ"/>
			<glyph d="M180 1409H1346L1296 1161H860L807 883Q903 910 1001 927T1214 944Q1409 944 1516 851T1624 582Q1624 527 1612 459L1522 0H1237L1325 449Q1335 502 1335 535Q1335 625 1275 665T1092 705Q943 705 762 653L635 0H340L565 1161H131Z" horiz-adv-x="1774" unicode="Ћ"/>
			<glyph d="M276 1409H571L459 831Q523 836 586 889T764 1081L1034 1409H1343L1001 1004Q943 932 877 866T778 776L1116 0H815L555 639Q528 624 486 614T412 604L295 0H2ZM844 1815H1102V1772L750 1530H580V1561Z" horiz-adv-x="1249" unicode="Ќ"/>
			<glyph d="M274 1409H537L377 594Q360 511 341 426L315 315L1114 1409H1466L1192 0H930L1092 827Q1105 893 1124 976L1149 1085L358 0H0ZM542 1815H800L1062 1561V1530H892L542 1772Z" horiz-adv-x="1473" unicode="Ѝ"/>
			<glyph d="M137 1409H434L688 729L1116 1409H1430L707 317Q571 112 467 46T221 -20Q153 -20 85 -3T-20 41L78 287Q155 244 229 244Q302 244 363 288T489 440L512 477ZM475 1843H692L682 1796Q676 1772 676 1751Q676 1701 709 1675T811 1649Q889 1649 935 1687T998 1804L1006 1843H1223L1215 1796Q1194 1682 1099 1593T803 1505Q631 1505 546 1571T461 1749Q461 1778 467 1808Z" horiz-adv-x="1274" unicode="Ў"/>
			<glyph d="M274 1409H569L344 248H952L1178 1409H1470L1196 0H723L643 -408H393L473 0H0Z" horiz-adv-x="1473" unicode="Џ"/>
			<glyph d="M684 1409H1032L1270 0H977L930 340H373L190 0H-104ZM815 1192Q807 1167 776 1100T717 981L491 561H899L834 1034Q828 1072 821 1122T815 1192Z" horiz-adv-x="1436" unicode="А"/>
			<glyph d="M274 1409H1274L1225 1161H520L465 868H807Q1044 868 1163 768T1282 481Q1282 264 1112 132T670 0H0ZM416 621L344 250H670Q812 250 897 304T983 461Q983 543 921 582T735 621Z" horiz-adv-x="1411" unicode="Б"/>
			<glyph d="M274 1409H831Q1054 1409 1180 1325T1307 1096Q1307 951 1220 862T977 741Q1091 721 1162 640T1233 446Q1233 234 1058 117T598 0H0ZM524 1178L461 850H713Q848 850 928 896T1008 1030Q1008 1111 947 1144T772 1178ZM414 614L340 233H618Q763 233 848 287T934 446Q934 539 872 576T702 614Z" horiz-adv-x="1386" unicode="В"/>
			<glyph d="M274 1409H1192L1143 1161H520L295 0H0Z" horiz-adv-x="1087" unicode="Г"/>
			<glyph d="M584 1409H1376L1151 248H1335L1208 -408H958L1036 0H133L55 -408H-195L-68 248H84Q179 375 275 567T438 965ZM778 1145L702 913Q642 727 560 547T397 248H866L1040 1145Z" horiz-adv-x="1458" unicode="Д"/>
			<glyph d="M274 1409H1288L1239 1161H520L457 834H1114L1067 584H410L344 248H1104L1055 0H0Z" horiz-adv-x="1272" unicode="Е"/>
			<glyph d="M176 1409H455L590 1085Q652 935 696 883T809 831L922 1409H1204L1092 831Q1162 831 1220 885T1386 1081L1636 1409H1954L1634 1001Q1576 927 1509 860T1407 772L1724 0H1427L1184 641Q1159 630 1119 622T1049 612L932 0H649L768 612Q737 614 704 621T647 641L188 0H-143L455 795Q417 832 346 1001Z" horiz-adv-x="1851" unicode="Ж"/>
			<glyph d="M713 1430Q932 1430 1060 1335T1188 1087Q1188 936 1098 842T854 717Q963 691 1029 616T1096 424Q1096 215 936 97T520 -20Q345 -20 211 40T-16 213L168 406Q248 324 332 277T520 231Q654 231 730 280T807 424Q807 509 740 549T532 590H453L502 842H582Q893 842 893 1036Q893 1107 840 1148T694 1190Q504 1190 315 1047L180 1253Q301 1340 431 1385T713 1430Z" horiz-adv-x="1241" unicode="З"/>
			<glyph d="M274 1409H537L377 594Q360 511 341 426L315 315L1114 1409H1466L1192 0H930L1092 827Q1105 893 1124 976L1149 1085L358 0H0Z" horiz-adv-x="1473" unicode="И"/>
			<glyph d="M274 1409H537L377 594Q360 511 341 426L315 315L1114 1409H1466L1192 0H930L1092 827Q1105 893 1124 976L1149 1085L358 0H0ZM558 1843H775L765 1796Q759 1772 759 1751Q759 1701 792 1675T894 1649Q972 1649 1018 1687T1081 1804L1089 1843H1306L1298 1796Q1277 1682 1182 1593T886 1505Q714 1505 629 1571T544 1749Q544 1778 550 1808Z" horiz-adv-x="1473" unicode="Й"/>
			<glyph d="M276 1409H571L459 831Q523 836 586 889T764 1081L1034 1409H1343L1001 1004Q943 932 877 866T778 776L1116 0H815L555 639Q528 624 486 614T412 604L295 0H2Z" horiz-adv-x="1249" unicode="К"/>
			<glyph d="M483 1409H1440L1165 0H872L1096 1145H692L586 797Q477 437 399 274T232 48T-2 -16Q-41 -16 -77 -10T-127 2L-55 248Q-31 242 -4 242Q60 242 120 352T309 862Z" horiz-adv-x="1438" unicode="Л"/>
			<glyph d="M272 1409H686L776 621Q782 571 789 474T799 344L852 471Q892 567 918 616L1317 1409H1745L1470 0H1208L1380 885Q1398 973 1422 1075T1454 1206L1372 1026Q1309 889 1272 815L858 0H608L514 819Q507 882 493 1020T475 1206L458 1062Q445 952 432 887L262 0H0Z" horiz-adv-x="1745" unicode="М"/>
			<glyph d="M274 1409H569L463 860H1077L1184 1409H1479L1204 0H909L1026 596H412L295 0H0Z" horiz-adv-x="1479" unicode="Н"/>
			<glyph d="M887 1430Q1177 1430 1346 1273T1516 852Q1516 476 1289 228T707 -20Q410 -20 243 140T76 573Q76 941 305 1185T887 1430ZM866 1178Q640 1178 507 1011T375 582Q375 412 468 322T735 233Q958 233 1085 397T1212 827Q1212 996 1120 1087T866 1178Z" horiz-adv-x="1593" unicode="О"/>
			<glyph d="M274 1409H1458L1184 0H899L1122 1145H516L293 0H0Z" horiz-adv-x="1458" unicode="П"/>
			<glyph d="M272 1409H829Q1072 1409 1204 1292T1337 985Q1337 752 1166 613T725 475H385L293 0H0ZM518 1159L434 723H737Q876 723 956 793T1036 981Q1036 1066 977 1112T803 1159Z" horiz-adv-x="1366" unicode="Р"/>
			<glyph d="M874 1430Q1038 1430 1172 1379T1430 1206L1243 1014Q1163 1088 1074 1133T864 1178Q633 1178 501 1014T369 573Q369 417 461 325T711 233Q829 233 932 274T1169 432L1329 231Q1175 94 1025 37T694 -20Q404 -20 237 144T70 569Q70 949 292 1189T874 1430Z" horiz-adv-x="1454" unicode="С"/>
			<glyph d="M160 1409H1325L1276 1161H840L614 0H319L545 1161H111Z" horiz-adv-x="1210" unicode="Т"/>
			<glyph d="M137 1409H434L688 729L1116 1409H1430L707 317Q571 112 467 46T221 -20Q153 -20 85 -3T-20 41L78 287Q155 244 229 244Q302 244 363 288T489 440L512 477Z" horiz-adv-x="1274" unicode="У"/>
			<glyph d="M842 1419H1120L1090 1262H1124Q1363 1262 1498 1140T1634 801Q1634 534 1437 361T934 188H881L842 -10H563L602 188H557Q332 188 196 319T61 659Q61 935 253 1098T768 1262H811ZM745 1032Q569 1032 464 932T360 674Q360 559 429 488T610 418H647L766 1032ZM1044 1032L926 418H950Q1119 418 1225 522T1331 786Q1331 900 1261 966T1077 1032Z" horiz-adv-x="1681" unicode="Ф"/>
			<glyph d="M199 1409H498L718 912L1120 1409H1446L876 728L1212 0H918L670 559L215 0H-117L516 754Z" horiz-adv-x="1366" unicode="Х"/>
			<glyph d="M274 1409H569L344 248H905L1130 1409H1423L1198 248H1393L1264 -408H1014L1094 0H0Z" horiz-adv-x="1495" unicode="Ц"/>
			<glyph d="M248 1409H530L442 961Q430 891 430 858Q430 777 486 739T672 702Q820 702 1016 756L1143 1409H1438L1163 0H868L971 526Q869 499 769 482T545 465Q350 465 246 553T143 815Q143 886 158 950Z" horiz-adv-x="1440" unicode="Ч"/>
			<glyph d="M274 1409H559L334 248H809L1034 1409H1309L1083 248H1559L1784 1409H2058L1784 0H0Z" horiz-adv-x="2058" unicode="Ш"/>
			<glyph d="M274 1409H559L334 248H782L1008 1409H1288L1063 248H1509L1735 1409H2015L1790 248H1985L1855 -408H1606L1686 0H0Z" horiz-adv-x="2087" unicode="Щ"/>
			<glyph d="M160 1409H909L805 868H1184Q1411 868 1533 770T1655 479Q1655 265 1483 132T1042 0H340L567 1161H111ZM756 621L684 250H1042Q1185 250 1270 304T1356 461Q1356 543 1294 582T1108 621Z" horiz-adv-x="1782" unicode="Ъ"/>
			<glyph d="M274 1409H569L465 868H842Q1069 868 1191 770T1313 479Q1313 265 1141 132T700 0H0ZM1708 1409H2003L1729 0H1436ZM416 621L344 250H700Q843 250 928 304T1014 461Q1014 543 952 582T766 621Z" horiz-adv-x="2005" unicode="Ы"/>
			<glyph d="M274 1409H569L465 868H872Q1099 868 1221 770T1343 479Q1343 263 1171 131T731 0H0ZM416 621L344 250H731Q873 250 958 304T1044 461Q1044 543 983 582T797 621Z" horiz-adv-x="1473" unicode="Ь"/>
			<glyph d="M756 1430Q1052 1430 1213 1270T1374 840Q1374 462 1155 221T592 -20Q403 -20 272 41T27 260L233 436Q337 310 416 270T604 231Q766 231 881 327T1044 590H516L565 840H1075Q1073 1000 985 1089T733 1178Q612 1178 517 1126T342 993L172 1184Q275 1289 422 1359T756 1430Z" horiz-adv-x="1456" unicode="Э"/>
			<glyph d="M1448 1430Q1712 1430 1872 1271T2032 852Q2032 639 1943 433T1676 104T1268 -20Q997 -20 839 142T682 573V596H410L293 0H0L272 1409H567L461 860H723Q799 1125 993 1277T1448 1430ZM1427 1178Q1291 1178 1193 1103T1038 879T981 584Q981 414 1065 323T1296 233Q1430 233 1530 314T1679 539T1729 827Q1729 992 1646 1085T1427 1178Z" horiz-adv-x="2109" unicode="Ю"/>
			<glyph d="M768 1409H1432L1157 0H862L963 514H662L246 0H-102L389 582Q283 622 218 712T154 934Q154 1159 318 1284T768 1409ZM741 1159Q608 1159 529 1106T451 948Q451 863 507 813T676 764H1012L1087 1159Z" horiz-adv-x="1432" unicode="Я"/>
			<glyph d="M604 1102Q801 1102 906 1020T1012 774Q1012 721 997 653L932 319Q898 148 883 0H629Q636 86 647 160H641Q575 71 497 25T309 -20Q171 -20 81 64T-8 287Q-8 459 123 553T479 651L717 655L723 684Q733 729 733 766Q733 828 692 856T571 885Q504 885 428 864T252 791L162 987Q275 1045 383 1073T604 1102ZM682 481L539 479Q420 477 352 441T285 319Q285 262 322 227T422 193Q515 193 583 254T672 428Z" unicode="а"/>
			<glyph d="M1280 1501L1235 1268L1165 1260Q954 1236 838 1218T612 1167T431 1053T312 801Q387 903 495 964T731 1026Q935 1026 1048 916T1161 602Q1161 337 992 158T553 -20Q322 -20 191 108T61 469Q61 650 139 894T383 1264T805 1434T1280 1501ZM662 813Q525 813 435 699T346 438Q346 322 405 259T559 197Q696 197 778 316T860 602Q860 707 804 760T662 813Z" horiz-adv-x="1266" unicode="б"/>
			<glyph d="M678 1102Q883 1102 993 1028T1104 827Q1104 719 1013 645T780 561V559Q901 542 971 479T1042 319Q1042 165 900 72T537 -20Q300 -20 169 100T39 428Q39 727 209 914T678 1102ZM670 897Q559 897 478 834T360 651H582Q685 651 751 685T817 795Q817 897 670 897ZM328 469Q326 435 326 416Q326 302 383 243T545 184Q633 184 690 221T748 336Q748 404 701 436T578 469Z" horiz-adv-x="1178" unicode="в"/>
			<glyph d="M584 1102Q759 1102 854 1023T950 807Q950 677 879 599T682 483T404 415T254 293Q254 237 296 213T416 190Q490 190 575 223T758 317L858 131Q737 47 628 13T389 -20Q207 -20 100 65T-6 289Q-6 411 51 483T199 594T440 666L478 674Q622 703 658 731T694 807Q694 893 557 893Q411 893 268 780L145 946Q332 1102 584 1102Z" horiz-adv-x="1018" unicode="г"/>
			<glyph d="M651 1432Q917 1432 1045 1291T1174 895Q1174 785 1146 588T1041 254T838 49T537 -20Q305 -20 171 107T37 430Q37 694 192 861T590 1028Q708 1028 800 982T934 862Q932 1051 862 1132T633 1214Q544 1214 470 1195T317 1145L242 1348Q330 1388 439 1410T651 1432ZM614 815Q483 815 406 707T330 430Q330 323 389 261T549 199Q685 199 763 301T842 578Q842 686 782 750T614 815Z" horiz-adv-x="1251" unicode="д"/>
			<glyph d="M645 1102Q845 1102 949 997T1053 698Q1053 647 1045 594T1022 467H326Q319 427 319 401Q319 307 372 250T535 193Q618 193 688 217T860 295L946 106Q750 -20 506 -20Q284 -20 157 95T31 420Q31 572 92 743T301 1008T645 1102ZM623 897Q529 897 460 838T365 659H791Q795 688 795 715Q795 805 750 851T623 897Z" unicode="е"/>
			<glyph d="M68 1081H328L414 825Q455 725 489 678T586 629L674 1081H926L838 629Q892 631 936 674T1059 825L1247 1081H1532L1243 700Q1178 613 1118 557L1331 0H1055L903 469Q889 463 860 460T803 457L715 0H463L551 457Q523 457 496 460T459 469L152 0H-154L268 582Q255 595 243 619T209 700Z" horiz-adv-x="1452" unicode="ж"/>
			<glyph d="M535 1102Q709 1102 805 1029T901 836Q901 716 816 648T590 563V561Q701 550 770 483T840 317Q840 160 714 70T387 -20Q245 -20 147 18T-33 133L106 305Q168 251 228 223T367 195Q453 195 503 232T553 332Q553 399 493 427T285 455H260L301 664H326Q476 664 554 694T633 797Q633 847 599 872T504 897Q434 897 367 872T219 791L106 952Q205 1029 310 1065T535 1102Z" horiz-adv-x="987" unicode="з"/>
			<glyph d="M201 1081H481L360 473Q350 418 350 375Q350 302 386 260T498 219Q603 219 684 296T788 502L901 1081H1182L1020 242Q1006 171 994 98T981 0H713Q715 28 722 90T735 184H731Q590 -23 356 -23Q221 -23 140 61T59 281Q59 349 80 457Z" horiz-adv-x="1251" unicode="и"/>
			<glyph d="M201 1081H481L360 473Q350 418 350 375Q350 302 386 260T498 219Q603 219 684 296T788 502L901 1081H1182L1020 242Q1006 171 994 98T981 0H713Q715 28 722 90T735 184H731Q590 -23 356 -23Q221 -23 140 61T59 281Q59 349 80 457ZM374 1509H592L581 1462Q575 1438 575 1417Q575 1367 608 1341T710 1315Q788 1315 834 1353T897 1470L905 1509H1122L1114 1462Q1093 1348 998 1259T702 1171Q532 1171 446 1237T360 1415Q360 1446 366 1470Z" horiz-adv-x="1251" unicode="й"/>
			<glyph d="M215 1081H496L408 639Q510 639 573 683T717 829L915 1081H1194L920 733Q870 671 829 629T750 563L1004 0H711L518 461Q445 446 375 446L287 0H6Z" unicode="к"/>
			<glyph d="M406 1081H1231L1020 0H739L909 872H598L549 719Q449 401 392 260T255 50T33 -20Q-39 -20 -106 -2L-53 201Q-29 195 4 195Q100 195 153 332T276 683L336 868Z" horiz-adv-x="1300" unicode="л"/>
			<glyph d="M215 1081H575L647 520Q647 517 657 428T668 276V256Q686 314 711 370T784 520L1067 1081H1444L1235 0H989L1110 629Q1116 667 1144 769L1155 813Q1161 836 1167 862L733 0H520L410 860Q387 700 373 629L252 0H6Z" horiz-adv-x="1516" unicode="м"/>
			<glyph d="M217 1081H500L420 668H805L885 1081H1167L956 0H674L762 457H377L289 0H6Z" horiz-adv-x="1237" unicode="н"/>
			<glyph d="M674 1102Q900 1102 1024 975T1149 641Q1149 471 1076 315T859 70T516 -20Q291 -20 166 108T41 453Q41 736 213 919T674 1102ZM647 879Q542 879 470 810T367 633T336 438Q336 324 389 263T545 203Q647 203 718 272T821 454T854 649Q854 760 799 819T647 879Z" horiz-adv-x="1251" unicode="о"/>
			<glyph d="M831 1104Q966 1104 1047 1020T1128 801Q1128 726 1108 625L987 0H707L827 608Q838 660 838 707Q838 780 801 821T690 862Q586 862 505 786T399 580L287 0H6L168 840Q182 915 194 986T207 1081H475Q473 1053 466 991T453 897H457Q525 997 618 1050T831 1104Z" horiz-adv-x="1251" unicode="п"/>
			<glyph d="M825 1102Q979 1102 1067 987T1155 680Q1155 515 1094 345T915 77T627 -20Q517 -20 437 30T324 174H317Q289 9 285 -10L203 -426H-78L168 834Q201 1014 207 1081H479Q479 1061 473 1007T457 907H461Q529 1004 620 1053T825 1102ZM686 877Q593 877 517 815T409 633T377 424Q377 308 432 255T571 203Q662 203 730 270T828 452T858 653Q858 762 811 819T686 877Z" horiz-adv-x="1262" unicode="р"/>
			<glyph d="M655 1102Q784 1102 876 1058T1040 940L874 770Q785 847 738 863T637 879Q488 879 409 745T330 430Q330 328 385 266T528 205Q607 205 677 232T844 317L944 125Q849 51 746 15T510 -20Q290 -20 162 109T35 449Q35 630 112 782T331 1018T655 1102Z" horiz-adv-x="1057" unicode="с"/>
			<glyph d="M793 1104Q888 1104 956 1045T1047 893H1053Q1121 1000 1208 1052T1407 1104Q1541 1104 1619 1018T1698 782Q1698 725 1686 657L1559 0H1278L1395 586Q1411 664 1411 715Q1411 862 1294 862Q1205 862 1131 787T1036 594L922 0H641L756 594Q770 676 770 717Q770 789 742 825T655 862Q567 862 496 785T401 580L289 0H8L170 840Q184 915 196 986T209 1081H477Q474 1046 467 987T453 893H457Q533 1003 610 1053T793 1104Z" horiz-adv-x="1821" unicode="т"/>
			<glyph d="M90 1081H379L453 586Q461 520 473 401T487 252Q528 340 570 431T643 582L901 1081H1204L545 -82Q409 -298 303 -362T55 -426Q4 -426 -32 -421T-104 -406L-51 -188Q-20 -199 35 -199Q113 -199 166 -158T274 -25L303 25Z" unicode="у"/>
			<glyph d="M918 1485H1178L1100 1092Q1086 1014 1065 926H1069Q1134 1020 1207 1063T1384 1106Q1529 1106 1608 995T1688 696Q1688 525 1626 348T1454 76T1200 -20Q1099 -20 1030 22T920 154H915Q907 90 887 -10L805 -426H545L642 66Q653 118 659 152H655Q592 61 520 20T338 -20Q194 -20 115 90T37 391Q37 571 100 744T273 1009T532 1102Q634 1102 700 1060T809 932H811Q814 949 821 988T830 1034L840 1090ZM604 891Q518 891 456 825T362 625T330 397Q330 296 365 244T471 193Q550 193 615 262T716 459T752 688Q752 797 711 844T604 891ZM1251 889Q1173 889 1109 820T1010 627T975 397Q975 289 1015 241T1120 193Q1218 193 1282 278T1378 537Q1395 625 1395 690Q1395 787 1359 838T1251 889Z" horiz-adv-x="1792" unicode="ф"/>
			<glyph d="M106 1081H391L565 735L864 1081H1176L692 553L987 0H696L510 383L184 0H-123L385 565Z" unicode="х"/>
			<glyph d="M201 1081H481L360 473Q350 418 350 375Q350 302 386 260T498 219Q603 219 684 296T788 502L901 1081H1182L1014 211H1159L1038 -408H793L872 0H713Q715 28 722 90T735 184H731Q590 -23 356 -23Q221 -23 140 61T59 281Q59 349 80 457Z" horiz-adv-x="1264" unicode="ц"/>
			<glyph d="M160 1081H438L369 717Q362 684 362 666Q362 561 496 561Q558 561 614 572T748 606L840 1081H1120L911 0H631L707 395Q629 367 546 348T360 330Q230 330 151 399T72 586Q72 632 82 684Z" horiz-adv-x="1190" unicode="ч"/>
			<glyph d="M201 1081H481L365 496Q348 419 348 367Q348 219 465 219Q554 219 627 294T723 487L838 1081H1118L1004 487Q989 409 989 365Q989 292 1016 255T1104 219Q1192 219 1262 296T1358 502L1470 1081H1751L1589 242Q1553 52 1550 0H1282Q1284 28 1292 90T1307 188H1303Q1227 78 1149 27T967 -23Q872 -23 804 35T713 188H707Q639 81 551 29T352 -23Q218 -23 139 63T61 299Q61 351 74 424Z" horiz-adv-x="1821" unicode="ш"/>
			<glyph d="M201 1081H481L365 496Q348 419 348 367Q348 219 465 219Q554 219 627 294T723 487L838 1081H1118L1004 487Q989 409 989 365Q989 292 1016 255T1104 219Q1192 219 1262 296T1358 502L1470 1081H1751L1583 211H1726L1606 -408H1360L1440 0H1282Q1284 28 1292 90T1307 188H1303Q1227 78 1149 27T967 -23Q872 -23 804 35T713 188H707Q639 81 551 29T352 -23Q218 -23 139 63T61 299Q61 351 74 424Z" horiz-adv-x="1831" unicode="щ"/>
			<glyph d="M113 1081H766L682 647H889Q1111 647 1225 571T1339 346Q1339 170 1195 85T811 0H274L444 872H72ZM645 455L594 195H776Q924 195 987 229T1051 338Q1051 399 1000 427T829 455Z" horiz-adv-x="1503" unicode="ъ"/>
			<glyph d="M215 1081H498L414 647H604Q826 647 940 570T1055 346Q1055 170 911 85T526 0H6ZM1358 1081H1638L1427 0H1147ZM377 455L326 195H492Q639 195 702 229T766 338Q766 399 715 427T545 455Z" horiz-adv-x="1708" unicode="ы"/>
			<glyph d="M215 1081H498L414 647H645Q867 647 981 570T1096 346Q1096 170 952 85T567 0H6ZM377 455L326 195H532Q680 195 743 229T807 338Q807 399 756 427T586 455Z" horiz-adv-x="1260" unicode="ь"/>
			<glyph d="M520 1102Q747 1102 873 974T999 631Q999 442 928 293T720 62T412 -20Q272 -20 175 26T-8 168L156 340Q218 275 276 239T408 203Q510 203 580 264T680 444H360L399 651H706Q706 754 650 815T498 877Q423 877 359 844T223 754L86 930Q182 1016 286 1059T520 1102Z" horiz-adv-x="1098" unicode="э"/>
			<glyph d="M1178 1102Q1394 1102 1513 976T1632 641Q1632 476 1561 318T1353 70T1032 -20Q810 -20 687 107T565 453V455H377L289 0H6L217 1081H500L418 662H594Q649 865 802 983T1178 1102ZM1151 879Q1054 879 987 810T890 632T860 438Q860 323 908 263T1049 203Q1143 203 1207 270T1304 452T1337 649Q1337 761 1288 820T1151 879Z" horiz-adv-x="1735" unicode="ю"/>
			<glyph d="M639 1081H1126L915 0H633L713 412H530L180 0H-137L272 463Q190 503 144 571T98 733Q98 910 238 995T639 1081ZM614 887Q503 887 443 852T383 741Q383 676 429 641T571 606H754L807 887Z" horiz-adv-x="1194" unicode="я"/>
			<glyph d="M645 1102Q845 1102 949 997T1053 698Q1053 647 1045 594T1022 467H326Q319 427 319 401Q319 307 372 250T535 193Q618 193 688 217T860 295L946 106Q750 -20 506 -20Q284 -20 157 95T31 420Q31 572 92 743T301 1008T645 1102ZM623 897Q529 897 460 838T365 659H791Q795 688 795 715Q795 805 750 851T623 897ZM396 1501H633L856 1214L850 1184H701L387 1458Z" unicode="ѐ"/>
			<glyph d="M645 1102Q845 1102 949 997T1053 698Q1053 647 1045 594T1022 467H326Q319 427 319 401Q319 307 372 250T535 193Q618 193 688 217T860 295L946 106Q750 -20 506 -20Q284 -20 157 95T31 420Q31 572 92 743T301 1008T645 1102ZM623 897Q529 897 460 838T365 659H791Q795 688 795 715Q795 805 750 851T623 897ZM453 1454Q509 1454 544 1418T580 1327Q580 1269 544 1233T453 1198Q393 1198 357 1232T322 1327Q322 1384 357 1419T453 1454ZM862 1454Q918 1454 954 1418T991 1327Q991 1269 954 1233T862 1198Q802 1198 767 1232T733 1327Q733 1384 768 1419T862 1454Z" unicode="ё"/>
			<glyph d="M295 1485H575L549 1346H858L825 1176H516L498 1085L479 999Q452 874 446 854H451Q518 953 611 1007T823 1061Q958 1061 1039 977T1120 758Q1120 683 1100 582L973 -88Q941 -254 855 -340T621 -426Q518 -426 453 -410L496 -193Q529 -199 557 -199Q616 -199 650 -162T700 -39L819 565Q829 620 829 664Q829 737 792 778T682 819Q578 819 498 743T393 537L289 0H8L236 1176H96L129 1346H268Z" horiz-adv-x="1251" unicode="ђ"/>
			<glyph d="M584 1102Q759 1102 854 1023T950 807Q950 677 879 599T682 483T404 415T254 293Q254 237 296 213T416 190Q490 190 575 223T758 317L858 131Q737 47 628 13T389 -20Q207 -20 100 65T-6 289Q-6 411 51 483T199 594T440 666L478 674Q622 703 658 731T694 807Q694 893 557 893Q411 893 268 780L145 946Q332 1102 584 1102ZM714 1501H989L980 1458L608 1184H421L427 1214Z" horiz-adv-x="1018" unicode="ѓ"/>
			<glyph d="M655 1102Q784 1102 876 1058T1040 940L874 770Q785 847 738 863T637 879Q541 879 472 821T367 651H668L629 444H330V430Q330 328 385 266T528 205Q607 205 677 232T844 317L944 125Q849 51 746 15T510 -20Q290 -20 162 110T35 451Q35 629 112 780T330 1017T655 1102Z" horiz-adv-x="1090" unicode="є"/>
			<glyph d="M539 1102Q674 1102 777 1057T946 934L793 776Q742 826 673 859T530 893Q458 893 415 868T373 791Q373 718 483 685T679 615T815 511T866 338Q866 167 750 73T430 -20Q144 -20 -31 152L104 330Q180 263 259 226T430 190Q518 190 563 217T608 305Q608 390 449 433T202 553T115 764Q115 923 227 1012T539 1102Z" horiz-adv-x="1018" unicode="ѕ"/>
			<glyph d="M432 1540Q495 1540 533 1503T571 1405Q571 1325 524 1275T399 1225Q333 1225 295 1261T258 1360Q258 1441 306 1490T432 1540ZM217 1081H498L287 0H6Z" horiz-adv-x="569" unicode="і"/>
			<glyph d="M219 1081H500L289 0H8ZM178 1454Q234 1454 269 1418T305 1327Q305 1269 269 1233T178 1198Q118 1198 82 1232T47 1327Q47 1384 82 1419T178 1454ZM587 1454Q643 1454 679 1418T716 1327Q716 1269 679 1233T587 1198Q527 1198 492 1232T458 1327Q458 1384 493 1419T587 1454Z" horiz-adv-x="569" unicode="ї"/>
			<glyph d="M436 1540Q499 1540 536 1503T573 1405Q573 1324 525 1274T399 1225Q335 1225 297 1261T260 1360Q260 1440 308 1490T436 1540ZM219 1081H500L272 -88Q240 -254 155 -340T-80 -426Q-183 -426 -248 -410L-205 -193Q-170 -199 -143 -199Q-85 -199 -51 -162T0 -39Z" horiz-adv-x="569" unicode="ј"/>
			<glyph d="M406 1081H1225L1141 647H1335Q1557 647 1671 570T1786 346Q1786 170 1642 85T1257 0H731L901 872H598L557 752Q432 368 364 228T223 34T33 -20Q-10 -20 -51 -14T-115 2L-53 201Q-32 195 -10 195Q67 195 121 301T317 825ZM1104 455L1053 195H1223Q1370 195 1433 229T1497 338Q1497 399 1446 427T1276 455Z" horiz-adv-x="1950" unicode="љ"/>
			<glyph d="M217 1081H500L416 647H766L850 1081H1133L1049 647H1212Q1434 647 1548 570T1663 346Q1663 170 1519 85T1135 0H639L725 455H375L289 0H6ZM1010 455L961 195H1100Q1247 195 1310 229T1374 338Q1374 399 1323 427T1153 455Z" horiz-adv-x="1827" unicode="њ"/>
			<glyph d="M295 1485H575L548 1346H854L821 1176H516L498 1083Q478 984 455 897H459Q526 996 619 1050T831 1104Q966 1104 1047 1020T1128 801Q1128 726 1108 625L987 0H707L827 608Q838 660 838 707Q838 780 801 821T690 862Q586 862 506 786T401 580L289 0H8L235 1176H102L135 1346H268Z" horiz-adv-x="1251" unicode="ћ"/>
			<glyph d="M215 1081H496L408 639Q510 639 573 683T717 829L915 1081H1194L920 733Q870 671 829 629T750 563L1004 0H711L518 461Q445 446 375 446L287 0H6ZM815 1501H1090L1081 1458L709 1184H522L528 1214Z" unicode="ќ"/>
			<glyph d="M201 1081H481L360 473Q350 418 350 375Q350 302 386 260T498 219Q603 219 684 296T788 502L901 1081H1182L1020 242Q1006 171 994 98T981 0H713Q715 28 722 90T735 184H731Q590 -23 356 -23Q221 -23 140 61T59 281Q59 349 80 457ZM455 1501H692L915 1214L909 1184H760L446 1458Z" horiz-adv-x="1251" unicode="ѝ"/>
			<glyph d="M90 1081H379L453 586Q461 520 473 401T487 252Q528 340 570 431T643 582L901 1081H1204L545 -82Q409 -298 303 -362T55 -426Q4 -426 -32 -421T-104 -406L-51 -188Q-20 -199 35 -199Q113 -199 166 -158T274 -25L303 25ZM321 1509H539L528 1462Q522 1438 522 1417Q522 1367 555 1341T657 1315Q735 1315 781 1353T844 1470L852 1509H1069L1061 1462Q1040 1348 945 1259T649 1171Q479 1171 393 1237T307 1415Q307 1446 313 1470Z" unicode="ў"/>
			<glyph d="M201 1081H481L360 473Q350 418 350 375Q350 302 386 260T498 219Q603 219 684 296T788 502L901 1081H1182L1020 242Q1006 171 994 98T981 0H713Q715 28 722 90T735 184H731Q590 -23 356 -23Q221 -23 140 61T59 281Q59 349 80 457ZM356 -82H588L530 -408H291Z" horiz-adv-x="1251" unicode="џ"/>
			<glyph d="M961 1821H1210L1081 1161H520L295 0H0L274 1409H881Z" horiz-adv-x="1038" unicode="Ґ"/>
			<glyph d="M729 1450H975L862 872H459L289 0H6L217 1081H657Z" horiz-adv-x="915" unicode="ґ"/>
			<glyph d="M137 1409H412L455 594Q459 515 460 400L461 248Q477 292 526 422T608 629L942 1409H1260L1296 514L1305 248Q1316 282 1356 393T1434 596L1769 1409H2066L1430 0H1079L1053 811L1051 892Q1047 1028 1047 1116Q1034 1080 994 976T930 815L582 0H227ZM774 1815H1032L1294 1561V1530H1124L774 1772Z" horiz-adv-x="1933" unicode="Ẁ"/>
			<glyph d="M66 1081H326L341 398Q341 348 340 308T338 256Q346 277 370 339T416 446L711 1081H1014L1057 446Q1060 397 1060 326V280L1059 256L1092 340Q1117 404 1135 446L1403 1081H1669L1174 0H879L836 659Q833 709 831 787T829 891Q820 866 789 788T735 657L434 0H135ZM633 1501H870L1093 1214L1087 1184H938L624 1458Z" horiz-adv-x="1593" unicode="ẁ"/>
			<glyph d="M137 1409H412L455 594Q459 515 460 400L461 248Q477 292 526 422T608 629L942 1409H1260L1296 514L1305 248Q1316 282 1356 393T1434 596L1769 1409H2066L1430 0H1079L1053 811L1051 892Q1047 1028 1047 1116Q1034 1080 994 976T930 815L582 0H227ZM1188 1815H1446V1772L1094 1530H924V1561Z" horiz-adv-x="1933" unicode="Ẃ"/>
			<glyph d="M66 1081H326L341 398Q341 348 340 308T338 256Q346 277 370 339T416 446L711 1081H1014L1057 446Q1060 397 1060 326V280L1059 256L1092 340Q1117 404 1135 446L1403 1081H1669L1174 0H879L836 659Q833 709 831 787T829 891Q820 866 789 788T735 657L434 0H135ZM970 1501H1245L1236 1458L864 1184H677L683 1214Z" horiz-adv-x="1593" unicode="ẃ"/>
			<glyph d="M137 1409H412L455 594Q459 515 460 400L461 248Q477 292 526 422T608 629L942 1409H1260L1296 514L1305 248Q1316 282 1356 393T1434 596L1769 1409H2066L1430 0H1079L1053 811L1051 892Q1047 1028 1047 1116Q1034 1080 994 976T930 815L582 0H227ZM920 1776Q975 1776 1012 1740T1049 1649Q1049 1593 1012 1556T920 1520Q862 1520 826 1555T791 1649Q791 1706 826 1741T920 1776ZM1329 1776Q1385 1776 1420 1740T1456 1649Q1456 1592 1420 1556T1329 1520Q1269 1520 1233 1555T1198 1649Q1198 1706 1233 1741T1329 1776Z" horiz-adv-x="1933" unicode="Ẅ"/>
			<glyph d="M66 1081H326L341 398Q341 348 340 308T338 256Q346 277 370 339T416 446L711 1081H1014L1057 446Q1060 397 1060 326V280L1059 256L1092 340Q1117 404 1135 446L1403 1081H1669L1174 0H879L836 659Q833 709 831 787T829 891Q820 866 789 788T735 657L434 0H135ZM690 1454Q746 1454 781 1418T817 1327Q817 1269 781 1233T690 1198Q630 1198 594 1232T559 1327Q559 1384 594 1419T690 1454ZM1099 1454Q1155 1454 1191 1418T1228 1327Q1228 1269 1191 1233T1099 1198Q1039 1198 1004 1232T970 1327Q970 1384 1005 1419T1099 1454Z" horiz-adv-x="1593" unicode="ẅ"/>
			<glyph d="M838 1430Q1027 1430 1171 1357T1405 1133L1045 808Q1331 732 1331 453Q1331 230 1172 105T743 -20Q681 -20 616 -14T504 4L553 242Q597 230 639 223T735 217Q874 217 959 273T1044 440Q1044 534 972 580T780 627H723L760 817L1065 1120Q1021 1158 960 1178T823 1198Q668 1198 582 1119T455 825L295 0H0L162 831Q224 1156 386 1293T838 1430Z" horiz-adv-x="1464" unicode="ẞ"/>
			<glyph d="M170 1409H457L690 813L1141 1409H1468L805 578L694 0H399L512 578ZM489 1815H747L1009 1561V1530H839L489 1772Z" horiz-adv-x="1366" unicode="Ỳ"/>
			<glyph d="M90 1081H379L453 586Q461 520 473 401T487 252Q528 340 570 431T643 582L901 1081H1204L545 -82Q409 -298 303 -362T55 -426Q4 -426 -32 -421T-104 -406L-51 -188Q-20 -199 35 -199Q113 -199 166 -158T274 -25L303 25ZM406 1501H643L866 1214L860 1184H711L397 1458Z" unicode="ỳ"/>
			<glyph d="M70 653H590L543 410H23Z" horiz-adv-x="682" unicode="‐"/>
			<glyph d="M51 651H1065L1026 449H12Z" unicode="–"/>
			<glyph d="M-10 651H2038L1999 449H-49Z" horiz-adv-x="2048" unicode="—"/>
			<glyph d="M-10 651H2038L1999 449H-49Z" horiz-adv-x="2048" unicode="―"/>
			<glyph d="M-152 -86H1026L1004 -205H-174ZM-195 -307H983L961 -426H-217Z" horiz-adv-x="1130" unicode="‗"/>
			<glyph d="M444 1423L543 1325Q486 1269 441 1213T373 1098Q427 1079 457 1042T487 958Q487 892 444 848T338 805Q264 805 220 848T176 971Q176 1088 251 1200T444 1423Z" horiz-adv-x="569" unicode="‘"/>
			<glyph d="M393 1421Q465 1421 508 1378T551 1262Q551 1138 478 1028T285 803L186 901Q245 959 289 1013T356 1128Q302 1147 272 1185T242 1272Q242 1334 285 1377T393 1421Z" horiz-adv-x="569" unicode="’"/>
			<glyph d="M174 284Q246 284 289 241T332 125Q332 1 259 -109T66 -334L-33 -236Q26 -178 70 -123T137 -9Q83 10 53 48T23 135Q23 197 66 240T174 284Z" horiz-adv-x="569" unicode="‚"/>
			<glyph d="M403 1421Q466 1421 507 1380T549 1276Q549 1207 504 1165T386 1124H383Q383 1061 406 994T465 854L338 795Q283 908 253 994T223 1176Q223 1288 267 1354T403 1421Z" horiz-adv-x="569" unicode="‛"/>
			<glyph d="M459 1423L558 1325Q499 1267 455 1212T388 1098Q442 1079 472 1041T502 954Q502 892 458 848T351 805Q279 805 236 848T193 964Q193 1088 265 1198T459 1423ZM883 1423L982 1325Q923 1267 879 1212T812 1098Q866 1079 896 1041T926 954Q926 892 882 848T775 805Q703 805 660 848T617 964Q617 1088 689 1198T883 1423Z" horiz-adv-x="1024" unicode="“"/>
			<glyph d="M833 1421Q905 1421 948 1378T991 1262Q991 1138 918 1028T725 803L626 901Q685 959 729 1013T796 1128Q742 1147 712 1185T682 1272Q682 1334 725 1377T833 1421ZM409 1421Q481 1421 524 1378T567 1262Q567 1138 494 1028T301 803L202 901Q261 959 305 1013T372 1128Q318 1147 288 1185T258 1272Q258 1334 301 1377T409 1421Z" horiz-adv-x="1024" unicode="”"/>
			<glyph d="M612 284Q684 284 727 241T770 125Q770 1 697 -109T504 -334L405 -236Q464 -178 508 -123T575 -9Q521 10 491 48T461 135Q461 197 504 240T612 284ZM188 284Q260 284 303 241T346 125Q346 1 273 -109T80 -334L-19 -236Q40 -178 84 -123T151 -9Q97 10 67 48T37 135Q37 197 80 240T188 284Z" horiz-adv-x="1024" unicode="„"/>
			<glyph d="M483 1485H696L690 1137H1001L1022 934H690L688 -35L647 -164H532L492 -35L489 934H158L178 1137H489Z" unicode="†"/>
			<glyph d="M453 1485H666L659 1137H971L991 934H659L657 784L616 655L657 526L659 377H991L971 174H659L666 -174H453L459 174H147L127 377H459L461 526L502 655L461 784L459 934H127L147 1137H459Z" unicode="‡"/>
			<glyph d="M356 969Q477 969 564 882T651 676Q651 555 564 468T356 381Q238 381 152 467T66 676Q66 798 152 883T356 969Z" horiz-adv-x="717" unicode="•"/>
			<glyph d="M1424 322Q1498 322 1542 276T1587 156Q1587 82 1542 36T1424 -10Q1347 -10 1302 34T1258 156Q1258 233 1302 277T1424 322ZM809 322Q883 322 927 276T972 156Q972 82 927 36T809 -10Q732 -10 687 34T643 156Q643 233 687 277T809 322ZM195 322Q269 322 313 276T358 156Q358 82 313 36T195 -10Q118 -10 73 34T29 156Q29 233 73 277T195 322Z" horiz-adv-x="1798" unicode="…"/>
			<glyph d="M510 1425Q646 1425 736 1348T827 1102Q827 844 714 686T399 528Q257 528 173 613T90 858Q90 1108 201 1266T510 1425ZM1393 1409H1612L426 0H209ZM500 1249Q407 1249 355 1134T303 862Q303 775 331 740T420 705Q510 705 562 829T614 1104Q614 1183 585 1216T500 1249ZM1415 881Q1551 881 1641 805T1731 561Q1731 304 1618 144T1305 -16Q1163 -16 1077 68T991 313Q991 561 1104 721T1415 881ZM2195 881Q2331 881 2421 805T2511 561Q2511 304 2398 144T2085 -16Q1943 -16 1857 68T1772 313Q1772 562 1884 721T2195 881ZM1403 707Q1310 707 1258 589T1206 307Q1206 228 1234 195T1323 162Q1413 162 1465 286T1518 561Q1518 641 1489 674T1403 707ZM2183 707Q2090 707 2038 588T1987 307Q1987 228 2015 195T2103 162Q2193 162 2245 286T2298 561Q2298 641 2269 674T2183 707Z" horiz-adv-x="2601" unicode="‰"/>
			<glyph d="M231 1409H537L379 891H168Z" horiz-adv-x="492" unicode="′"/>
			<glyph d="M231 1409H537L379 891H168ZM721 1409H1026L868 891H657Z" horiz-adv-x="981" unicode="″"/>
			<glyph d="M395 940H641L635 903L297 524L487 176L481 141H254L53 502L68 573Z" horiz-adv-x="682" unicode="‹"/>
			<glyph d="M150 940H375L565 573L551 502L229 141H-23L-16 176L322 555L143 903Z" horiz-adv-x="682" unicode="›"/>
			<glyph d="M332 1409H627L403 426H172ZM242 301Q316 301 361 258T406 145Q406 76 360 33T242 -10Q165 -10 120 32T76 145Q76 218 121 259T242 301ZM930 1409H1225L1001 426H770ZM840 301Q914 301 959 258T1004 145Q1004 76 958 33T840 -10Q763 -10 718 32T674 145Q674 218 719 259T840 301Z" horiz-adv-x="1280" unicode="‼"/>
			<glyph d="M737 1430Q954 1430 1077 1335T1200 1073Q1200 985 1164 911T1054 777T872 659T716 552T659 426H414L500 1040H766L700 772Q711 781 814 857T918 1055Q918 1121 867 1162T721 1204Q623 1204 516 1159T315 1034L182 1217Q299 1310 432 1370T737 1430ZM496 301Q570 301 614 258T659 145Q659 75 613 32T496 -10Q419 -10 374 32T330 145Q330 218 375 259T496 301Z" horiz-adv-x="1231" unicode="‽"/>
			<glyph d="M147 1546H1313L1294 1452H129Z" horiz-adv-x="1130" unicode="‾"/>
			<glyph d="M518 1409H719L-176 0H-377Z" horiz-adv-x="342" unicode="⁄"/>
			<glyph d="M623 1421Q710 1421 758 1372T807 1237Q807 1205 801 1167L721 758H541L612 1124Q612 1132 616 1152T621 1186Q621 1276 537 1276Q477 1276 431 1232T369 1110L301 758H123L223 1270L248 1409H414Q414 1399 409 1367T401 1311H403Q447 1364 499 1392T623 1421Z" horiz-adv-x="811" unicode="ⁿ"/>
			<glyph d="M274 1409H1229L1188 1200H518L442 805H1079L1038 598H401L365 408H678L649 258H336L285 0H0L51 258H-80L-51 408H80Z" unicode="₣"/>
			<glyph d="M735 1430Q847 1430 938 1395T1108 1288L958 1116Q900 1170 846 1194T731 1219Q635 1219 586 1167T516 999L504 938H831L801 782H474L453 676H780L752 520H424L422 508Q400 399 350 329T221 209H561Q663 209 725 245T846 387L1044 305Q919 0 588 0H-104L-63 205Q49 264 99 334T172 512L174 520H-14L14 676H193L214 782H35L66 938H244L260 1022Q298 1220 408 1325T735 1430Z" unicode="₤"/>
			<glyph d="M272 1409H684Q926 1409 1059 1293T1192 985Q1192 752 1021 613T580 475H385L293 0H0ZM1726 1346L1675 1081H1890L1849 872H1634L1534 356Q1526 320 1526 293Q1526 256 1550 235T1616 215Q1669 215 1712 227L1702 12Q1599 -18 1489 -18Q1372 -18 1304 41T1237 219Q1237 269 1249 336L1356 872H1214L1255 1081H1411L1473 1325ZM518 1159L434 723H592Q731 723 811 793T891 981Q891 1066 832 1112T657 1159ZM2376 1102Q2511 1102 2614 1057T2783 934L2630 776Q2579 826 2510 859T2367 893Q2295 893 2252 868T2210 791Q2210 718 2320 685T2516 615T2652 511T2703 338Q2703 167 2587 73T2267 -20Q1981 -20 1806 152L1942 330Q2017 263 2096 226T2267 190Q2355 190 2400 217T2445 305Q2445 390 2286 433T2039 553T1952 764Q1952 923 2064 1012T2376 1102Z" horiz-adv-x="2855" unicode="₧"/>
			<glyph d="M772 1430Q889 1430 978 1391T1149 1274L975 1083Q868 1190 745 1190Q648 1190 579 1116T468 915H797L768 766H432Q422 708 418 659H748L719 510H410V494Q410 360 454 289T598 219Q703 219 860 350L1006 168Q904 71 799 25T571 -20Q338 -20 226 110T115 487V510H-2L27 659H123Q129 714 138 766H47L76 915H172Q242 1153 393 1291T772 1430Z" unicode="€"/>
			<glyph d="M207 1409H1161L1118 1190H793Q851 1137 868 1055H1092L1049 836H852Q815 719 722 640T498 530L776 0H469L233 473H25L68 692H291Q390 692 459 729T563 836H94L137 1055H588Q570 1123 515 1156T381 1190H164Z" horiz-adv-x="1085" unicode="₹"/>
			<glyph d="M274 1409H569L504 1075L840 1223L803 1028L466 880L437 727L772 874L735 680L399 532L340 229H463Q571 229 641 284T752 444L981 371Q924 204 809 102T485 0H0L76 390L-74 324L-35 520L114 585L143 738L-6 672L33 868L181 933Z" horiz-adv-x="1067" unicode="₺"/>
			<glyph d="M721 1409H969L931 1212Q1113 1182 1216 1077T1319 795Q1319 728 1305 662L1176 0H907L1034 653Q1044 715 1044 752Q1044 847 1003 906T888 992L735 205H487L641 999Q417 944 362 664L233 0H-35L96 676Q146 930 299 1065T684 1221Z" horiz-adv-x="1415" unicode="₼"/>
			<glyph d="M315 1409H743Q954 1409 1081 1307T1208 1030Q1208 800 1051 668T627 537H440L416 410H729L688 203H375L336 0H41L80 203H-59L-18 410H121L145 537H10L55 764H190ZM565 1180L484 764H635Q770 764 839 824T909 1006Q909 1092 851 1136T686 1180Z" horiz-adv-x="1223" unicode="₽"/>
			<glyph d="M559 1425Q655 1425 728 1387T844 1298L709 1165Q663 1204 631 1220T547 1237Q442 1237 379 1147T317 928Q317 843 354 797T453 752Q506 752 558 770T672 821L743 668Q669 620 594 592T434 565Q281 565 192 660T104 913Q104 1130 233 1277T559 1425ZM1411 1409H1628L440 0H225ZM1432 840Q1579 840 1667 757T1755 524Q1755 289 1635 136T1313 -16Q1161 -16 1072 68T983 303Q983 532 1107 686T1432 840ZM1421 666Q1322 666 1261 561T1200 322Q1200 246 1233 204T1327 162Q1419 162 1478 269T1538 512Q1538 588 1509 627T1421 666Z" horiz-adv-x="1853" unicode="℅"/>
			<glyph d="M547 1430Q713 1430 807 1352T901 1133Q901 939 777 797T426 578V377Q426 284 459 239T555 195Q633 195 676 246T743 408H889Q851 220 757 100T475 -20Q145 -20 145 309V475L118 465Q50 439 14 428V623L39 632Q119 660 147 672L145 1061Q145 1232 246 1331T547 1430ZM551 1260Q434 1260 434 1112V776Q541 821 601 910T662 1108Q662 1178 634 1219T551 1260Z" horiz-adv-x="1001" unicode="ℓ"/>
			<glyph d="M274 1409H582L985 324L1000 420Q1015 526 1026 582L1186 1409H1438L1163 0H846L453 1073L441 1003Q431 934 414 840L252 0H0ZM1839 1071Q2002 1071 2082 988T2163 768Q2163 576 2046 447T1745 319Q1600 319 1516 403T1432 627Q1432 816 1544 943T1839 1071ZM1833 920Q1735 920 1681 835T1628 627Q1628 548 1661 509T1755 471Q1856 471 1909 556T1962 768Q1962 920 1833 920ZM1382 186H2017L1980 0H1346Z" horiz-adv-x="2236" unicode="№"/>
			<glyph d="M756 1430Q1053 1430 1266 1217T1479 707Q1479 409 1266 196T756 -16Q459 -16 246 196T33 707Q33 1004 245 1217T756 1430ZM756 1315Q506 1315 326 1136T147 707Q147 455 326 275T756 96Q1008 96 1187 275T1366 707Q1366 957 1186 1136T756 1315ZM483 1112H813Q963 1112 1040 1043T1118 850Q1118 715 1034 642T821 569H662V297H483ZM662 975V709H805Q870 709 904 746T938 848Q938 909 900 942T795 975Z" horiz-adv-x="1509" unicode="℗"/>
			<glyph d="M207 1409H799V1260H590V727H410V1260H207ZM893 1409H1141L1280 1067Q1289 1045 1315 981T1346 907H1348Q1383 1004 1409 1067L1552 1409H1796V727H1630V1108Q1630 1154 1635 1226L1638 1260L1409 727H1278L1053 1260Q1059 1196 1059 1108V727H893Z" horiz-adv-x="1966" unicode="™"/>
			<glyph d="M918 1430Q1190 1430 1360 1285T1530 889Q1530 665 1392 488T1026 238Q1030 238 1084 243T1186 248H1434L1384 0H756L819 330Q1015 415 1121 549T1227 858Q1227 1005 1136 1091T901 1178Q691 1178 568 1051T446 719Q446 593 505 495T682 330L618 0H-18L31 248H281Q340 248 460 239H477L483 238Q333 311 244 441T156 719Q156 1045 361 1237T918 1430Z" horiz-adv-x="1642" unicode="Ω"/>
			<glyph d="M590 1096Q821 1096 970 940T1120 530H293V174Q341 123 422 87T590 51Q731 51 821 108T985 285L1057 244Q955 83 846 24T590 -35Q350 -35 204 127T59 530Q59 697 124 822T314 1022T590 1096ZM588 1012Q495 1012 421 979T293 895V616H889V893Q844 940 764 976T588 1012Z" horiz-adv-x="1229" unicode="℮"/>
			<glyph d="M338 1409H516L385 727H596L563 563H-39L-6 727H197L289 1208L78 1069L117 1272ZM1322 1409H1523L628 0H427ZM1531 858Q1655 858 1726 802T1797 659Q1797 583 1750 525T1621 434V432Q1674 413 1708 367T1742 256Q1742 134 1648 61T1402 -12Q1305 -12 1230 16T1105 86L1199 229Q1249 190 1300 173T1408 156Q1477 156 1515 182T1554 264Q1554 307 1523 326T1429 346H1345L1377 516H1457Q1529 516 1567 542T1605 614Q1605 648 1576 669T1500 690Q1453 690 1410 673T1320 625L1230 754Q1301 808 1374 833T1531 858Z" horiz-adv-x="1889" unicode="⅓"/>
			<glyph d="M397 1421Q513 1421 584 1363T655 1212Q655 1156 629 1104T497 961L463 932L232 729H575L543 563H-72L-43 706L362 1061Q364 1063 410 1105T457 1192Q457 1221 434 1238T367 1255Q321 1255 273 1232T166 1163L78 1296Q144 1349 224 1385T397 1421ZM1302 1409H1503L608 0H407ZM1511 858Q1635 858 1706 802T1777 659Q1777 583 1730 525T1601 434V432Q1654 413 1688 367T1722 256Q1722 134 1628 61T1382 -12Q1285 -12 1210 16T1085 86L1179 229Q1229 190 1280 173T1388 156Q1457 156 1495 182T1534 264Q1534 307 1503 326T1409 346H1325L1357 516H1437Q1509 516 1547 542T1585 614Q1585 648 1556 669T1480 690Q1433 690 1390 673T1300 625L1210 754Q1281 808 1354 833T1511 858Z" horiz-adv-x="1869" unicode="⅔"/>
			<glyph d="M338 1409H516L385 727H596L563 563H-39L-6 727H197L289 1208L78 1069L117 1272ZM1322 1409H1523L628 0H427ZM1525 858Q1649 858 1726 799T1803 649Q1803 576 1754 516T1631 436V434Q1680 418 1714 374T1748 270Q1748 140 1653 64T1398 -12Q1267 -12 1186 50T1105 215Q1105 305 1159 364T1300 449V451Q1201 514 1201 610Q1201 718 1294 788T1525 858ZM1511 711Q1460 711 1425 682T1390 606Q1390 567 1417 541T1486 516Q1546 516 1576 547T1607 627Q1607 664 1580 687T1511 711ZM1443 373Q1383 373 1342 335T1302 240Q1302 192 1332 163T1412 135Q1475 135 1515 171T1556 268Q1556 313 1525 343T1443 373Z" horiz-adv-x="1889" unicode="⅛"/>
			<glyph d="M385 1421Q509 1421 580 1365T651 1222Q651 1146 604 1088T475 997V995Q528 976 562 930T596 819Q596 697 502 624T256 551Q159 551 84 579T-41 649L53 792Q103 753 154 736T262 719Q331 719 369 745T408 827Q408 870 377 889T283 909H199L231 1079H311Q383 1079 421 1105T459 1177Q459 1211 430 1232T354 1253Q307 1253 264 1236T174 1188L84 1317Q155 1371 228 1396T385 1421ZM1261 1409H1462L567 0H366ZM1464 858Q1588 858 1665 799T1742 649Q1742 576 1693 516T1570 436V434Q1619 418 1653 374T1687 270Q1687 140 1592 64T1337 -12Q1206 -12 1125 50T1044 215Q1044 305 1098 364T1239 449V451Q1140 514 1140 610Q1140 718 1233 788T1464 858ZM1450 711Q1399 711 1364 682T1329 606Q1329 567 1356 541T1425 516Q1485 516 1515 547T1546 627Q1546 664 1519 687T1450 711ZM1382 373Q1322 373 1281 335T1241 240Q1241 192 1271 163T1351 135Q1414 135 1454 171T1495 268Q1495 313 1464 343T1382 373Z" horiz-adv-x="1828" unicode="⅜"/>
			<glyph d="M131 1409H670L639 1243H260L217 1079Q291 1112 373 1112Q484 1112 549 1050T614 882Q614 729 516 640T250 551Q81 551 -51 645L37 796Q145 719 256 719Q332 719 376 754T420 852Q420 897 391 924T313 952Q271 952 235 937T154 889L14 954ZM1261 1409H1462L567 0H366ZM1464 858Q1588 858 1665 799T1742 649Q1742 576 1693 516T1570 436V434Q1619 418 1653 374T1687 270Q1687 140 1592 64T1337 -12Q1206 -12 1125 50T1044 215Q1044 305 1098 364T1239 449V451Q1140 514 1140 610Q1140 718 1233 788T1464 858ZM1450 711Q1399 711 1364 682T1329 606Q1329 567 1356 541T1425 516Q1485 516 1515 547T1546 627Q1546 664 1519 687T1450 711ZM1382 373Q1322 373 1281 335T1241 240Q1241 192 1271 163T1351 135Q1414 135 1454 171T1495 268Q1495 313 1464 343T1382 373Z" horiz-adv-x="1828" unicode="⅝"/>
			<glyph d="M106 1409H690L664 1263L238 563H27L456 1243H76ZM1140 1409H1341L446 0H245ZM1343 858Q1467 858 1544 799T1621 649Q1621 576 1572 516T1449 436V434Q1498 418 1532 374T1566 270Q1566 140 1471 64T1216 -12Q1085 -12 1004 50T923 215Q923 305 977 364T1118 449V451Q1019 514 1019 610Q1019 718 1112 788T1343 858ZM1329 711Q1278 711 1243 682T1208 606Q1208 567 1235 541T1304 516Q1364 516 1394 547T1425 627Q1425 664 1398 687T1329 711ZM1261 373Q1201 373 1160 335T1120 240Q1120 192 1150 163T1230 135Q1293 135 1333 171T1374 268Q1374 313 1343 343T1261 373Z" horiz-adv-x="1707" unicode="⅞"/>
			<glyph d="M537 1468Q730 1468 831 1319T932 907Q932 684 877 464T698 110T381 -25Q204 -25 122 85T41 371Q41 503 86 645T228 885T471 983Q547 983 608 940T700 821H705Q707 848 707 911Q707 1087 652 1180T489 1274Q439 1274 380 1254T281 1206L326 1411Q368 1436 422 1452T537 1468ZM516 813Q411 813 345 672T279 375Q279 281 314 225T412 170Q505 170 577 309T672 645Q659 718 615 765T516 813Z" horiz-adv-x="1012" unicode="∂"/>
			<glyph d="M662 1409H1032L1243 215L1200 0H-45L-2 215ZM816 1222L688 971L305 231H965L856 971Q843 1061 816 1222Z" horiz-adv-x="1430" unicode="∆"/>
			<glyph d="M205 1409H1483V-426H1196V1165H496V-426H205Z" horiz-adv-x="1686" unicode="∏"/>
			<glyph d="M154 1409H1290V1182H524L1053 500L506 -199H1348V-426H133V-266L739 496L154 1257Z" horiz-adv-x="1460" unicode="∑"/>
			<glyph d="M76 793H1102V569H76Z" horiz-adv-x="1196" unicode="−"/>
			<glyph d="M479 1485H717L133 -41H-109Z" horiz-adv-x="569" unicode="∕"/>
			<glyph d="M346 969Q467 969 554 882T641 676Q641 555 554 468T346 381Q228 381 142 467T56 676Q56 798 142 883T346 969Z" horiz-adv-x="717" unicode="∙"/>
			<glyph d="M965 1620H1151L645 -25H477L207 729H23V895H334L553 260Z" horiz-adv-x="1124" unicode="√"/>
			<glyph d="M385 965Q489 965 571 907T717 725Q846 954 1042 954Q1194 954 1285 853T1376 584Q1376 432 1285 323T1055 215Q948 215 865 272T717 455Q657 349 574 287T385 225Q242 225 150 328T59 598Q59 754 151 859T385 965ZM416 793Q344 793 297 737T250 596Q250 512 293 455T416 399Q475 399 523 447T618 596Q572 698 526 745T416 793ZM1030 782Q970 782 917 734T815 586Q862 487 912 438T1028 389Q1100 389 1143 445T1186 586Q1186 670 1144 726T1030 782Z" horiz-adv-x="1460" unicode="∞"/>
			<glyph d="M522 1487Q562 1487 606 1481T678 1468V1229Q655 1239 623 1246T559 1253Q475 1253 438 1204T401 1079V-45Q401 -225 297 -325T2 -426Q-37 -426 -82 -420T-154 -406V-168Q-121 -179 -93 -186T-35 -193Q121 -193 121 -16V1106Q121 1285 226 1386T522 1487Z" horiz-adv-x="561" unicode="∫"/>
			<glyph d="M303 1079Q417 1079 577 1021T823 963Q889 963 953 987T1071 1055V836Q1008 791 948 773T803 756Q694 756 538 813T289 870Q214 870 157 849T33 782V995Q84 1035 153 1057T303 1079ZM303 598Q420 598 582 539T823 481Q888 481 952 505T1071 573V354Q1007 310 946 292T803 274Q699 274 545 331T289 389Q214 389 157 368T33 301V514Q85 554 154 576T303 598Z" horiz-adv-x="1124" unicode="≈"/>
			<glyph d="M754 1323H965L834 1065H1085V842H725L559 512H1085V291H451L322 37H109L238 291H18V512H346L512 842H18V1065H621Z" horiz-adv-x="1124" unicode="≠"/>
			<glyph d="M1061 1298V1071L229 791L1061 512V285L35 631V952ZM35 223H1059V0H35Z" horiz-adv-x="1124" unicode="≤"/>
			<glyph d="M39 1298L1065 952V631L39 285V512L870 791L39 1071ZM39 223H1065V0H39Z" horiz-adv-x="1124" unicode="≥"/>
			<glyph d="M449 1446H551L1006 723L551 0H449L-4 721ZM502 1204L211 723L502 229L791 723Z" horiz-adv-x="1012" unicode="◊"/>
			<glyph d="M-402 -61Q-341 -61 -308 -94T-275 -186Q-275 -265 -318 -321T-435 -430L-504 -354Q-471 -325 -453 -305T-426 -260Q-468 -248 -491 -222T-514 -162Q-514 -117 -482 -89T-402 -61Z" horiz-adv-x="0" unicode=""/>
			<glyph d="M129 1409H897V0H129ZM256 1282V129H768V1282Z" horiz-adv-x="1024" unicode=""/>
			<glyph d="M1323 1485Q1411 1485 1489 1466L1444 1266Q1402 1276 1350 1276Q1287 1276 1250 1241T1198 1126L1190 1081H1411L1370 872H1149L893 -426H612L868 872H506L250 -426H-31L225 872H68L109 1081H266L281 1153Q317 1327 411 1401T674 1475Q745 1475 819 1456L774 1255Q746 1266 700 1266Q639 1266 604 1234T555 1126L547 1081H909L924 1153Q960 1331 1056 1408T1323 1485Z" horiz-adv-x="1335" unicode="ﬀ"/>
			<glyph d="M680 1485Q768 1485 846 1466L805 1266Q763 1276 711 1276Q646 1276 608 1241T555 1126L547 1081H768L727 872H506L250 -426H-31L225 872H68L109 1081H266L281 1153Q317 1331 413 1408T680 1485ZM1124 1540Q1187 1540 1225 1503T1263 1405Q1263 1325 1216 1275T1091 1225Q1025 1225 987 1261T950 1360Q950 1441 998 1490T1124 1540ZM909 1081H1190L979 0H698Z" horiz-adv-x="1261" unicode="ﬁ"/>
			<glyph d="M680 1485Q768 1485 846 1466L805 1266Q763 1276 711 1276Q646 1276 608 1241T555 1126L547 1081H768L727 872H506L250 -426H-31L225 872H68L109 1081H266L281 1153Q317 1331 413 1408T680 1485ZM977 1485H1257L1034 338Q1026 292 1026 272Q1026 239 1047 225T1104 211Q1133 211 1163 217L1149 4Q1072 -14 975 -14Q858 -14 797 45T737 211Q737 251 747 303Z" horiz-adv-x="1294" unicode="ﬂ"/>
			<glyph d="M1323 1485Q1411 1485 1489 1466L1444 1266Q1402 1276 1350 1276Q1287 1276 1250 1241T1198 1126L1190 1081H1411L1370 872H1149L893 -426H612L868 872H506L250 -426H-31L225 872H68L109 1081H266L281 1153Q317 1327 411 1401T674 1475Q745 1475 819 1456L774 1255Q746 1266 700 1266Q639 1266 604 1234T555 1126L547 1081H909L924 1153Q960 1331 1056 1408T1323 1485ZM1767 1540Q1830 1540 1868 1503T1906 1405Q1906 1325 1859 1275T1734 1225Q1668 1225 1630 1261T1593 1360Q1593 1441 1641 1490T1767 1540ZM1552 1081H1833L1622 0H1341Z" horiz-adv-x="1904" unicode="ﬃ"/>
			<glyph d="M1323 1485Q1411 1485 1489 1466L1444 1266Q1402 1276 1350 1276Q1287 1276 1250 1241T1198 1126L1190 1081H1411L1370 872H1149L893 -426H612L868 872H506L250 -426H-31L225 872H68L109 1081H266L281 1153Q317 1327 411 1401T674 1475Q745 1475 819 1456L774 1255Q746 1266 700 1266Q639 1266 604 1234T555 1126L547 1081H909L924 1153Q960 1331 1056 1408T1323 1485ZM1620 1485H1900L1677 338Q1669 292 1669 272Q1669 239 1690 225T1747 211Q1776 211 1806 217L1792 4Q1715 -14 1618 -14Q1501 -14 1440 45T1380 211Q1380 251 1390 303Z" horiz-adv-x="1937" unicode="ﬄ"/>
			<glyph d="" horiz-adv-x="0" unicode="﻿"/>
		</font>
</defs>
</svg>
