<?xml version="1.0" encoding="UTF-8"?>
<svg height="100%" width="100%" xmlns="http://www.w3.org/2000/svg">
	<defs>
		<font horiz-adv-x="1139" id="web">
			<font-face alphabetic="0" ascent="1854" descent="-434" font-family="" panose-1="2 11 8 3 3 0 0 0 0 3" units-per-em="2048"/>
			<missing-glyph d="M129 1409H897V0H129ZM256 1282V129H768V1282Z" horiz-adv-x="1024"/>
			<glyph d="" horiz-adv-x="569" unicode=" "/>
			<glyph d="M193 1409H487L455 426H225ZM336 301Q410 301 455 258T500 145Q500 76 454 33T336 -10Q259 -10 214 32T170 145Q170 217 214 259T336 301Z" horiz-adv-x="682" unicode="!"/>
			<glyph d="M135 1409H408L381 897H162ZM561 1409H836L807 897H588Z" horiz-adv-x="971" unicode="&quot;"/>
			<glyph d="M408 1395H561L479 1010H786L870 1395H1026L942 1010H1106V862H909L840 530H1055V381H809L727 0H571L651 381H344L264 0H111L190 381H35V530H223L293 862H86V1010H324ZM449 862L377 530H686L756 862Z" unicode="#"/>
			<glyph d="M520 1520H629V1384Q763 1378 864 1332T1047 1198L885 1026Q823 1086 764 1120T629 1163V848Q796 804 892 760T1046 637T1104 424Q1104 247 987 142T629 27V-152H520V27Q363 34 244 91T39 252L219 424Q285 353 352 310T520 256V610Q359 648 262 701T120 831T76 1018Q76 1131 132 1210T288 1333T520 1384ZM520 1165Q346 1149 346 1028Q346 965 389 933T520 877ZM629 584V254Q834 266 834 410Q834 482 782 519T629 584Z" unicode="$"/>
			<glyph d="M408 1425Q569 1425 664 1324T760 977Q760 741 662 634T403 528Q243 528 147 634T51 977Q51 1224 145 1324T408 1425ZM1266 1409H1475L553 0H346ZM408 1249Q357 1249 326 1224T280 1141T266 977Q266 875 281 815T326 730T406 705Q453 705 483 730T528 814T543 977Q543 1082 528 1141T484 1224T408 1249ZM1417 881Q1578 881 1672 779T1767 432Q1767 197 1670 90T1413 -16Q1251 -16 1155 90T1059 432Q1059 679 1154 780T1417 881ZM1417 707Q1366 707 1335 682T1290 597T1276 432Q1276 329 1290 270T1335 187T1415 162Q1461 162 1491 186T1536 270T1552 432Q1552 538 1537 598T1493 682T1417 707Z" horiz-adv-x="1821" unicode="%"/>
			<glyph d="M629 1417Q737 1417 818 1382T945 1279T991 1118Q991 1036 956 974T862 865T705 757Q704 758 734 725Q781 677 815 637L974 458Q1055 590 1096 745L1313 690Q1243 449 1126 286L1376 4V0H1077L971 121Q796 -20 569 -20Q409 -20 301 32T142 175T90 385Q90 479 124 552T222 682T382 796Q309 887 276 957T244 1106Q244 1192 283 1262T408 1374T629 1417ZM625 1247Q551 1247 512 1209T473 1108Q473 1063 500 1012T577 899Q648 937 688 968T748 1035T768 1116Q768 1173 728 1210T625 1247ZM516 639Q450 594 413 556T360 479T344 389Q344 329 371 282T453 207T586 180Q712 180 830 282L639 500Z" horiz-adv-x="1421" unicode="&amp;"/>
			<glyph d="M109 1409H381L354 897H135Z" horiz-adv-x="487" unicode="'"/>
			<glyph d="M399 1485H680Q521 1252 450 1026T379 530Q379 258 450 32T680 -426H399Q243 -201 172 24T102 530Q102 813 172 1036T399 1485Z" horiz-adv-x="682" unicode="("/>
			<glyph d="M2 1485H283Q439 1260 509 1036T580 530Q580 249 509 24T283 -426H2Q161 -193 232 32T303 530Q303 801 232 1026T2 1485Z" horiz-adv-x="682" unicode=")"/>
			<glyph d="M295 1409H510L492 1135L727 1239L795 1042L545 981L731 768L547 647L401 899L252 647L66 770L256 981L6 1042L74 1239L313 1135Z" horiz-adv-x="797" unicode="*"/>
			<glyph d="M485 1200H711V793H1112V569H711V162H485V569H86V793H485Z" horiz-adv-x="1196" unicode="+"/>
			<glyph d="M287 319Q366 319 410 269T455 127Q455 36 427 -46T360 -194T260 -344L145 -264Q190 -198 223 -136T268 -10Q202 0 163 44T125 152Q125 226 170 272T287 319Z" horiz-adv-x="569" unicode=","/>
			<glyph d="M80 653H600V410H80Z" horiz-adv-x="682" unicode="-"/>
			<glyph d="M285 322Q359 322 404 276T449 156Q449 82 403 36T285 -10Q208 -10 163 35T119 156Q119 232 163 277T285 322Z" horiz-adv-x="569" unicode="."/>
			<glyph d="M311 1485H549L262 -41H20Z" horiz-adv-x="569" unicode="/"/>
			<glyph d="M573 1430Q721 1430 827 1364T994 1137T1055 705Q1055 322 924 151T565 -20Q82 -20 82 705Q82 979 142 1138T309 1364T573 1430ZM571 1190Q490 1190 445 1146T381 999T362 705Q362 518 382 413T446 265T567 221Q642 221 686 265T751 415T772 705Q772 896 752 1000T690 1147T571 1190Z" unicode="0"/>
			<glyph d="M494 1409H760V219H1081V0H129V219H477V1143L139 924V1180Z" unicode="1"/>
			<glyph d="M573 1430Q794 1430 913 1326T1032 1034Q1032 948 998 872T911 733T764 571L727 532L438 231H1057V0H72V195L547 700Q625 785 664 834T726 932T748 1034Q748 1103 700 1144T565 1186Q482 1186 413 1141T264 1001L82 1178Q173 1296 295 1363T573 1430Z" unicode="2"/>
			<glyph d="M559 1430Q718 1430 823 1380T978 1246T1028 1055Q1028 931 958 845T748 725V721Q905 697 985 607T1065 391Q1065 262 1008 169T839 26T563 -23Q181 -23 55 289L287 403Q337 311 400 263T561 215Q664 215 720 264T776 408Q776 517 696 557T508 598H410V834H502Q604 834 673 875T743 1020Q743 1102 694 1149T555 1196Q393 1196 307 1026L84 1143Q138 1284 265 1357T559 1430Z" unicode="3"/>
			<glyph d="M627 1409H940V496H1128V287H940V0H672V287H31V498ZM678 1124Q645 1065 588 973L328 580Q293 527 270 496H672V936Q672 1071 678 1124Z" unicode="4"/>
			<glyph d="M154 1409H999V1180H406L385 846Q430 885 496 909T641 934Q776 934 875 875T1028 712T1081 469Q1081 326 1020 215T842 42T559 -20Q375 -20 256 53T78 254L313 375Q342 325 372 291T449 236T563 215Q669 215 731 280T793 463Q793 571 733 633T569 696Q502 696 455 670T365 592L111 709Z" unicode="5"/>
			<glyph d="M602 1430Q745 1430 847 1375T1026 1188L803 1061Q759 1131 709 1161T596 1192Q478 1192 414 1086T350 772Q395 837 474 872T655 907Q779 907 871 853T1014 699T1065 461Q1065 318 1011 209T850 40T592 -20Q340 -20 208 155T76 672Q76 1046 211 1238T602 1430ZM575 682Q522 682 475 658T400 586T371 463Q371 394 397 337T471 249T582 217Q677 217 729 280T782 453Q782 560 729 621T575 682Z" unicode="6"/>
			<glyph d="M88 1409H1049V1186L553 0H260L791 1178H88Z" unicode="7"/>
			<glyph d="M567 1430Q718 1430 824 1383T985 1251T1040 1055Q1040 981 1011 915T930 803T805 743V739Q883 726 944 681T1040 561T1075 389Q1075 266 1017 174T845 31T571 -20Q411 -20 297 30T124 172T66 385Q66 483 103 558T200 679T332 737V741Q260 758 207 804T126 916T98 1057Q98 1169 155 1253T319 1384T567 1430ZM567 1212Q481 1212 433 1163T385 1036Q385 986 404 943T465 874T569 848Q675 848 713 900T752 1036Q752 1115 704 1163T567 1212ZM569 631Q458 631 406 570T354 416Q354 316 410 257T573 199Q679 199 731 258T784 420Q784 477 761 525T690 602T569 631Z" unicode="8"/>
			<glyph d="M547 1430Q802 1430 932 1259T1063 737Q1063 364 929 172T541 -20Q395 -20 291 34T104 221L328 356Q374 281 427 249T547 217Q661 217 723 323T786 637Q742 564 663 525T483 487Q360 487 267 543T124 704T74 952Q74 1095 128 1202T288 1370T547 1430ZM557 1192Q462 1192 409 1129T356 956Q356 843 409 778T563 713Q617 713 663 737T739 814T768 946Q768 1015 742 1071T668 1160T557 1192Z" unicode="9"/>
			<glyph d="M342 1085Q416 1085 461 1040T506 920Q506 846 460 800T342 754Q266 754 221 799T176 920Q176 995 221 1040T342 1085ZM342 322Q416 322 461 276T506 156Q506 82 460 36T342 -10Q266 -10 221 35T176 156Q176 231 221 276T342 322Z" horiz-adv-x="682" unicode=":"/>
			<glyph d="M342 1085Q416 1085 461 1040T506 920Q506 846 460 800T342 754Q266 754 221 799T176 920Q176 995 221 1040T342 1085ZM342 319Q421 319 465 269T510 127Q510 36 482 -46T415 -194T315 -344L200 -264Q245 -198 278 -136T323 -10Q257 0 218 44T180 152Q180 226 225 272T342 319Z" horiz-adv-x="682" unicode=";"/>
			<glyph d="M1112 1229V1001L281 676L1112 352V125L86 516V838Z" horiz-adv-x="1196" unicode="&lt;"/>
			<glyph d="M86 1065H1112V842H86ZM86 512H1112V291H86Z" horiz-adv-x="1196" unicode="="/>
			<glyph d="M86 1229L1112 838V516L86 125V352L918 676L86 1001Z" horiz-adv-x="1196" unicode="&gt;"/>
			<glyph d="M621 1430Q773 1430 883 1381T1053 1240T1112 1026Q1112 941 1083 877T1010 770T899 674Q845 632 812 600T757 526T733 426H467Q471 515 502 580T573 685T682 784Q732 825 761 855T810 924T829 1014Q829 1102 774 1153T623 1204Q522 1204 448 1149T319 987L92 1094Q162 1248 293 1339T621 1430ZM602 301Q676 301 721 258T766 145Q766 76 720 33T602 -10Q526 -10 481 32T436 145Q436 216 481 258T602 301Z" horiz-adv-x="1231" unicode="?"/>
			<glyph d="M1051 1485Q1308 1485 1492 1378T1772 1086T1868 670Q1868 495 1821 367T1688 172T1483 104Q1384 104 1321 141T1227 264H1225Q1173 171 1099 126T930 82Q796 82 706 148T572 328T528 592Q528 742 576 857T715 1037T930 1102Q1029 1102 1093 1060T1198 934H1200Q1200 975 1203 1025T1210 1081H1403Q1399 1037 1399 801V449Q1399 382 1406 342T1435 282T1499 262Q1559 262 1602 311T1667 452T1690 668Q1690 860 1610 1007T1386 1236T1053 1317Q814 1317 645 1216T392 946T307 573Q307 381 386 224T618 -23T981 -115Q1148 -115 1283 -65T1509 47L1597 -104Q1482 -178 1325 -230T981 -283Q716 -283 523 -169T228 139T127 573Q127 833 233 1040T548 1366T1051 1485ZM961 928Q846 928 791 837T737 598Q737 437 787 349T952 262Q1010 262 1066 301T1159 415T1196 596Q1196 712 1163 786T1077 894T961 928Z" horiz-adv-x="1997" unicode="@"/>
			<glyph d="M545 1409H893L1405 0H1110L997 340H439L326 0H31ZM719 1192Q713 1170 694 1108T655 987L513 561H924L782 987Q779 997 726 1170Z" horiz-adv-x="1436" unicode="A"/>
			<glyph d="M137 1409H731Q985 1409 1119 1320T1253 1055Q1253 933 1185 851T985 741Q1134 721 1214 633T1294 401Q1294 264 1222 174T1027 42T750 0H137ZM432 1178V850H698Q832 850 894 891T956 1016Q956 1103 897 1140T717 1178ZM432 614V233H725Q853 233 925 276T997 426Q997 527 926 570T735 614Z" horiz-adv-x="1386" unicode="B"/>
			<glyph d="M782 1430Q1005 1430 1155 1340T1386 1092L1141 973Q1094 1062 1004 1120T788 1178Q667 1178 574 1120T431 956T381 711Q381 569 428 461T568 293T795 233Q1046 233 1169 473L1411 348Q1337 186 1185 83T795 -20Q567 -20 407 73T165 331T84 711Q84 930 168 1092T409 1342T782 1430Z" horiz-adv-x="1454" unicode="C"/>
			<glyph d="M137 1409H647Q871 1409 1038 1334T1299 1104T1393 715Q1393 487 1303 326T1059 82T707 0H137ZM432 1161V248H682Q802 248 895 302T1042 461T1096 715Q1096 941 974 1051T641 1161Z" horiz-adv-x="1479" unicode="D"/>
			<glyph d="M137 1409H1151V1161H432V834H1090V584H432V248H1192V0H137Z" horiz-adv-x="1272" unicode="E"/>
			<glyph d="M137 1409H1114V1161H432V795H1092V545H432V0H137Z" horiz-adv-x="1190" unicode="F"/>
			<glyph d="M801 1430Q1003 1430 1155 1355T1397 1145L1176 979Q1119 1066 1021 1122T801 1178Q672 1178 577 1120T431 957T381 711Q381 570 429 461T568 292T786 231Q896 231 987 266T1132 365T1186 514V524H852V764H1456V0H1210V184Q1145 85 1028 32T758 -20Q548 -20 395 73T163 332T84 711Q84 931 168 1093T414 1342T801 1430Z" horiz-adv-x="1583" unicode="G"/>
			<glyph d="M137 1409H432V860H1047V1409H1341V0H1047V596H432V0H137Z" horiz-adv-x="1479" unicode="H"/>
			<glyph d="M137 1409H432V0H137Z" horiz-adv-x="569" unicode="I"/>
			<glyph d="M698 1409H993V446Q993 303 938 198T776 36T518 -20Q341 -20 224 52T37 285L289 410Q332 315 384 273T512 231Q601 231 649 284T698 438Z" horiz-adv-x="1133" unicode="J"/>
			<glyph d="M137 1409H432V770L981 1409H1329L794 806L1378 0H1042L600 618L432 459V0H137Z" horiz-adv-x="1397" unicode="K"/>
			<glyph d="M137 1409H432V248H1106V0H137Z" horiz-adv-x="1169" unicode="L"/>
			<glyph d="M137 1409H565L825 621Q842 570 865 478T895 356Q903 386 927 476T969 616L1225 1409H1651V0H1378V854Q1378 962 1383 1058T1389 1159Q1388 1158 1369 1089Q1359 1056 1327 947T1278 786L1014 0H774L510 786Q489 847 450 977T397 1159L399 1130Q400 1114 405 1017T410 854V0H137Z" horiz-adv-x="1788" unicode="M"/>
			<glyph d="M137 1409H494L1077 332Q1076 354 1072 430T1069 590V1409H1341V0H975L403 1065Q404 1043 407 970T410 831V0H137Z" horiz-adv-x="1479" unicode="N"/>
			<glyph d="M795 1430Q1012 1430 1173 1341T1420 1090T1507 711Q1507 493 1417 327T1166 71T793 -20Q572 -20 412 73T168 332T84 711Q84 930 170 1092T417 1342T795 1430ZM795 1178Q669 1178 575 1120T431 956T381 711Q381 572 432 463T577 293T793 233Q924 233 1017 294T1158 463T1206 711Q1206 851 1155 956T1010 1120T795 1178Z" horiz-adv-x="1593" unicode="O"/>
			<glyph d="M137 1409H770Q946 1409 1063 1352T1238 1192T1296 950Q1296 821 1239 713T1067 540T782 475H432V0H137ZM432 1159V723H745Q872 723 935 782T999 946Q999 1051 933 1105T737 1159Z" horiz-adv-x="1366" unicode="P"/>
			<glyph d="M795 1430Q1012 1430 1173 1341T1420 1090T1507 711Q1507 528 1443 380T1262 136L1391 -27L1165 -188L1020 11Q911 -20 793 -20Q572 -20 412 73T168 332T84 711Q84 930 170 1092T417 1342T795 1430ZM795 1178Q669 1178 575 1120T431 956T381 711Q381 572 432 463T577 293T793 233Q829 233 856 237L772 352L973 500L1088 355Q1146 418 1176 509T1206 711Q1206 851 1155 956T1010 1120T795 1178Z" horiz-adv-x="1593" unicode="Q"/>
			<glyph d="M137 1409H768Q941 1409 1058 1357T1233 1209T1292 979Q1292 873 1252 789T1143 649T983 571L1364 0H1032L705 514H432V0H137ZM432 1159V764H743Q871 764 933 818T995 967Q995 1064 929 1111T737 1159Z" horiz-adv-x="1405" unicode="R"/>
			<glyph d="M657 1430Q823 1430 950 1381T1178 1233L1006 1047Q930 1118 843 1157T647 1196Q517 1196 460 1155T403 1049Q403 990 437 955T528 901T691 857L713 852Q882 813 984 772T1156 645T1227 408Q1227 279 1164 183T971 33T643 -20Q268 -20 68 221L258 410Q310 354 362 314T486 249T651 223Q791 223 865 266T940 391Q940 452 900 490T801 548T635 593Q597 601 578 606Q438 640 341 684T180 812T117 1030Q117 1159 185 1249T376 1384T657 1430Z" horiz-adv-x="1290" unicode="S"/>
			<glyph d="M23 1409H1188V1161H752V0H457V1161H23Z" horiz-adv-x="1210" unicode="T"/>
			<glyph d="M123 1409H418V551Q418 389 500 310T731 231Q882 231 970 314T1059 561V1409H1354V543Q1354 355 1274 229T1053 41T723 -20Q542 -20 407 38T198 218T123 528Z" horiz-adv-x="1479" unicode="U"/>
			<glyph d="M14 1409H322L612 504Q634 430 656 348T686 238Q728 405 758 504L1047 1409H1352L840 0H528Z" horiz-adv-x="1366" unicode="V"/>
			<glyph d="M2 1409H301L477 625Q528 398 551 279L564 344Q576 398 597 500T631 659L799 1409H1141L1313 659Q1337 548 1372 345L1384 279L1390 308Q1433 511 1462 625L1632 1409H1931L1573 0H1210L1026 815Q1012 877 996 956T976 1064L967 1114L954 1047Q917 868 905 815L721 0H358Z" horiz-adv-x="1933" unicode="W"/>
			<glyph d="M59 1409H371L684 912L997 1409H1307L878 741L1348 0H1038L684 561L330 0H18L506 742Z" horiz-adv-x="1366" unicode="X"/>
			<glyph d="M35 1409H344L682 813L1024 1409H1333L831 578V0H537V578Z" horiz-adv-x="1366" unicode="Y"/>
			<glyph d="M137 1409H1151V1194L396 242H1192V0H61V219L818 1167H137Z" horiz-adv-x="1251" unicode="Z"/>
			<glyph d="M115 1485H657V1274H381V-213H657V-426H115Z" horiz-adv-x="682" unicode="["/>
			<glyph d="M20 1485H258L551 -41H307Z" horiz-adv-x="569" unicode="\"/>
			<glyph d="M25 1485H567V-426H25V-213H303V1274H25Z" horiz-adv-x="682" unicode="]"/>
			<glyph d="M436 1409H758L1151 514H922L596 1266L272 514H45Z" horiz-adv-x="1196" unicode="^"/>
			<glyph d="M-23 -215H1161V-346H-23Z" unicode="_"/>
			<glyph d="M66 1501H324L575 1214V1184H406L66 1458Z" horiz-adv-x="682" unicode="`"/>
			<glyph d="M565 1102Q776 1102 892 1002T1008 715V319Q1008 141 1016 0H750Q743 71 743 152H737Q684 69 599 24T401 -20Q301 -20 225 18T108 129T66 305Q66 485 182 566T494 651L727 655V707Q727 806 679 845T549 885Q406 885 258 754L125 930Q319 1102 565 1102ZM727 481L582 479Q508 475 462 464T387 422T358 328Q358 262 393 227T489 193Q558 193 612 226T697 312T727 426Z" unicode="a"/>
			<glyph d="M143 1485H424V1069Q424 1023 422 976T420 915H424Q476 1011 565 1056T768 1102Q899 1102 991 1031T1131 834T1178 545Q1178 379 1128 251T982 52T750 -20Q648 -20 560 22T424 154H422Q422 116 417 65T408 0H135Q143 94 143 248ZM662 877Q560 877 490 798T420 537Q420 415 454 340T541 234T659 203Q760 203 822 288T885 545Q885 708 825 792T662 877Z" horiz-adv-x="1262" unicode="b"/>
			<glyph d="M623 1102Q900 1102 1040 874L844 741Q800 807 749 843T623 879Q502 879 438 793T375 547Q375 380 440 292T625 205Q705 205 763 241T887 346L1055 184Q977 88 866 34T614 -20Q443 -20 323 49T141 243T80 535Q80 714 146 841T334 1035T623 1102Z" horiz-adv-x="1077" unicode="c"/>
			<glyph d="M838 1485H1118V236Q1118 167 1120 106T1124 33Q1126 7 1126 0H854Q849 14 844 66T840 156H836Q790 66 706 23T512 -20Q374 -20 277 51T132 250T84 541Q84 706 135 832T287 1030T532 1102Q628 1102 711 1060T838 932H840Q840 958 839 979L838 1090ZM602 881Q500 881 438 797T377 541Q377 377 437 290T600 203Q662 203 717 236T807 346T842 547Q842 727 772 804T602 881Z" horiz-adv-x="1262" unicode="d"/>
			<glyph d="M590 1102Q755 1102 862 1031T1019 842T1069 580Q1069 523 1063 467H375Q375 341 434 267T621 193Q678 193 724 205T814 242T922 311L1036 129Q941 57 844 18T606 -20Q357 -20 218 121T80 543Q80 731 148 856T332 1042T590 1102ZM588 897Q494 897 437 838T377 659H797Q793 781 740 839T588 897Z" unicode="e"/>
			<glyph d="M528 1485Q607 1485 696 1468L676 1266Q634 1276 580 1276Q521 1276 497 1245T473 1147V1081H696V872H473V0H193V872H35V1081H193V1174Q193 1320 269 1402T528 1485Z" horiz-adv-x="692" unicode="f"/>
			<glyph d="M1106 1182H1110L1120 954H1116Q1029 954 965 932Q1018 848 1018 737Q1018 636 970 555T819 426T561 379Q488 379 425 391Q404 370 393 353T383 315Q383 287 404 274T464 255T589 245L639 242Q828 230 926 209T1088 121T1151 -88Q1151 -259 1014 -342T580 -426Q392 -426 279 -400T113 -317T61 -160Q61 -91 97 -36T204 68Q137 121 137 221Q137 289 171 343T269 448Q193 494 153 568T113 737Q113 841 159 923T307 1053T567 1102Q734 1102 843 1042Q895 1112 957 1147T1106 1182ZM565 911Q472 911 425 864T379 737Q379 657 425 613T559 569Q663 569 707 613T752 737Q752 818 706 864T565 911ZM362 5Q338 -25 326 -54T315 -119Q315 -164 343 -187T429 -217T590 -225Q741 -225 812 -202T883 -123Q883 -83 854 -63T768 -35T590 -18L550 -15Q540 -14 477 -9T362 5Z" horiz-adv-x="1161" unicode="g"/>
			<glyph d="M143 1485H424V1079Q424 1011 416 887H420Q476 998 562 1050T768 1102Q953 1102 1038 989T1124 686V0H844V606Q844 728 803 794T662 860Q595 860 540 824T455 725T424 580V0H143Z" horiz-adv-x="1251" unicode="h"/>
			<glyph d="M285 1540Q356 1540 398 1497T440 1382Q440 1311 397 1268T285 1225Q211 1225 169 1267T127 1382Q127 1455 169 1497T285 1540ZM143 1081H424V0H143Z" horiz-adv-x="569" unicode="i"/>
			<glyph d="M285 1540Q356 1540 398 1497T440 1382Q440 1311 397 1268T285 1225Q211 1225 169 1267T127 1382Q127 1455 169 1497T285 1540ZM143 1081H426V-129Q426 -264 355 -345T137 -426Q31 -426 -33 -414L-12 -193Q24 -197 39 -197Q83 -197 105 -182T135 -135T143 -39Z" horiz-adv-x="569" unicode="j"/>
			<glyph d="M143 1485H424V639L799 1081H1112L731 659L1141 0H834L545 489L424 365V0H143Z" unicode="k"/>
			<glyph d="M133 1485H414V332Q414 285 421 259T449 222T510 211Q534 211 561 217L571 0Q499 -14 422 -14Q275 -14 204 61T133 262Z" horiz-adv-x="602" unicode="l"/>
			<glyph d="M735 1104Q857 1104 933 1048T1036 887H1042Q1097 1006 1175 1055T1370 1104Q1538 1104 1616 990T1694 686V0H1415V606Q1415 728 1380 794T1260 860Q1204 860 1159 826T1087 732T1059 594V0H780V606Q780 728 745 794T625 860Q568 860 522 824T450 725T424 580V0H143V840Q143 909 140 982T135 1081H403Q407 1059 411 992T416 887H420Q471 998 549 1051T735 1104Z" horiz-adv-x="1821" unicode="m"/>
			<glyph d="M768 1104Q953 1104 1038 990T1124 686V0H844V606Q844 728 803 795T662 862Q594 862 540 826T455 726T424 580V0H143V840Q143 909 140 982T135 1081H403Q407 1059 411 992T416 887H420Q477 998 563 1051T768 1104Z" horiz-adv-x="1251" unicode="n"/>
			<glyph d="M627 1102Q814 1102 935 1027T1114 827T1171 543Q1171 384 1108 256T922 54T621 -20Q451 -20 328 54T143 256T80 543Q80 698 141 825T326 1027T627 1102ZM631 879Q507 879 441 791T375 543Q375 436 405 359T490 243T618 203Q743 203 810 291T877 543Q877 705 814 792T631 879Z" horiz-adv-x="1251" unicode="o"/>
			<glyph d="M768 1104Q899 1104 991 1032T1130 835T1178 547Q1178 381 1127 252T977 52T743 -20Q643 -20 557 21T424 152H418Q420 141 422 86T424 -10V-426H143V834Q143 987 135 1081H408Q412 1071 416 1018T420 926H424Q531 1104 768 1104ZM662 879Q599 879 544 847T455 739T420 539Q420 417 454 342T543 235T659 203Q762 203 823 288T885 547Q885 711 825 795T662 879Z" horiz-adv-x="1262" unicode="p"/>
			<glyph d="M520 1104Q738 1104 838 928H840Q840 966 845 1018T854 1081H1124Q1118 940 1118 834V-426H840V25Q840 64 841 106T844 160H842Q791 69 704 24T504 -20Q371 -20 276 51T132 250T84 541Q84 705 135 832T285 1032T520 1104ZM604 879Q501 879 439 795T377 541Q377 431 405 355T484 241T602 203Q664 203 718 236T807 346T842 547Q842 726 773 802T604 879Z" horiz-adv-x="1262" unicode="q"/>
			<glyph d="M676 1104Q703 1104 728 1099T766 1087L758 844Q744 846 737 848Q683 858 645 858Q541 858 482 773T424 530V0H143V827Q143 897 140 976T135 1081H403Q407 1063 411 995T416 893H420Q452 969 481 1012T556 1079T676 1104Z" horiz-adv-x="797" unicode="r"/>
			<glyph d="M512 1102Q640 1102 745 1063T926 946L782 780Q667 893 514 893Q348 893 348 797Q348 760 369 738T426 705T527 678L578 666Q698 636 775 601T903 498T954 315Q954 212 901 136T748 20T508 -20Q368 -20 258 17T49 135L176 328Q266 259 343 224T508 190Q597 190 646 212T696 293Q696 335 670 360T603 398T489 429L436 442Q327 470 254 504T136 604T90 774Q90 876 139 949T283 1062T512 1102Z" horiz-adv-x="1018" unicode="s"/>
			<glyph d="M440 1346V1081H655V872H440V350Q440 280 465 247T545 215Q589 215 647 227L668 14Q553 -18 440 -18Q305 -18 233 55T162 274V872H25V1081H176L190 1325Z" horiz-adv-x="692" unicode="t"/>
			<glyph d="M127 1081H408V475Q408 354 449 287T590 221Q657 221 711 256T796 356T827 502V1081H1108V242Q1108 174 1110 100T1116 0H848Q845 24 840 90T836 195H831Q776 84 689 32T483 -20Q298 -20 212 92T127 395Z" horiz-adv-x="1251" unicode="u"/>
			<glyph d="M8 1081H305L494 477Q535 340 565 227Q597 353 639 473L836 1081H1130L731 0H395Z" unicode="v"/>
			<glyph d="M-6 1081H262L399 446Q411 386 421 330T436 256Q439 277 451 343T473 446L643 1081H948L1114 446Q1128 391 1140 325T1153 256Q1156 279 1167 334T1190 446L1333 1081H1597L1319 0H1010L844 659Q831 709 816 780T797 881Q791 852 775 781T745 657L578 0H268Z" horiz-adv-x="1593" unicode="w"/>
			<glyph d="M33 1081H344L567 733L788 1081H1102L725 561L1124 0H811L567 385L322 0H14L410 559Z" unicode="x"/>
			<glyph d="M16 1081H315L485 580Q505 517 541 404T584 262Q592 298 626 419T672 575L831 1081H1128L700 -57Q646 -189 591 -268T462 -387T283 -426Q178 -426 106 -410L127 -190Q176 -199 203 -199Q258 -199 297 -184T366 -134T426 -37L444 10Z" unicode="y"/>
			<glyph d="M123 1081H901V881L410 225H950V0H82V199L576 858H123Z" horiz-adv-x="1024" unicode="z"/>
			<glyph d="M557 1485H754V1274H696Q606 1274 565 1222T524 1065V784Q524 718 496 665T422 578T317 532V528Q407 508 465 441T524 276V-4Q524 -111 565 -162T696 -213H754V-426H557Q466 -426 399 -389T297 -285T262 -127V203Q262 317 202 367T33 420V637Q145 640 203 690T262 856V1186Q262 1330 340 1407T557 1485Z" horiz-adv-x="797" unicode="{"/>
			<glyph d="M156 1485H418V-426H156Z" horiz-adv-x="573" unicode="|"/>
			<glyph d="M43 1485H240Q379 1485 457 1407T535 1186V856Q535 741 594 690T766 637V420Q654 418 594 367T535 203V-127Q535 -218 499 -285T397 -389T240 -426H43V-213H100Q191 -213 231 -162T272 -4V276Q272 374 330 440T479 528V532Q422 544 375 578T300 665T272 784V1065Q272 1171 231 1222T100 1274H43Z" horiz-adv-x="797" unicode="}"/>
			<glyph d="M352 840Q421 840 488 823T651 773L672 766Q789 723 870 723Q937 723 1001 748T1118 815V596Q1055 552 994 534T852 516Q785 516 720 533T557 584Q419 631 336 631Q262 631 205 609T82 543V756Q132 795 201 817T352 840Z" horiz-adv-x="1196" unicode="~"/>
			<glyph d="" horiz-adv-x="569" unicode=" "/>
			<glyph d="M346 1091Q423 1091 467 1049T512 936Q512 864 467 822T346 780Q272 780 227 822T182 936Q182 1005 227 1048T346 1091ZM227 655H457L489 -328H195Z" horiz-adv-x="682" unicode="¡"/>
			<glyph d="M506 1409H668V1230Q913 1210 1042 1013L840 885Q795 949 743 983T613 1018Q488 1018 422 935T357 699Q357 539 425 455T615 371Q697 371 758 406T885 506L1058 351Q987 270 889 219T668 158V-31H506V161Q360 178 258 248T105 430T53 688Q53 841 107 955T263 1137T506 1225Z" unicode="¢"/>
			<glyph d="M625 1430Q759 1430 853 1384T1014 1255L842 1104Q793 1164 743 1191T631 1219Q541 1219 500 1166T459 999V795H786V604H459V514Q459 401 423 330T317 209H657Q758 209 812 257T885 401L1118 362Q1100 261 1050 179T918 48T725 0H33V205Q91 238 128 275T187 370T209 512V604H20V795H199V1022Q199 1215 302 1322T625 1430Z" unicode="£"/>
			<glyph d="M924 1196L1081 1038L944 903Q974 855 990 799T1006 684Q1006 569 946 467L1081 334L924 174L791 309Q742 280 685 265T569 250Q450 250 348 307L213 170L57 328L193 465Q133 567 133 684Q133 802 195 905L61 1038L217 1194L348 1061Q453 1120 569 1120Q628 1120 684 1105T788 1061ZM569 895Q513 895 465 867T388 790T360 686Q360 630 388 581T465 505T569 477Q625 477 672 505T748 581T776 686Q776 742 748 790T672 867T569 895Z" unicode="¤"/>
			<glyph d="M8 1409H297L567 813L842 1409H1130L766 690H1042V545H705V383H1042V236H705V0H432V236H96V383H432L434 545H96V690H373Z" unicode="¥"/>
			<glyph d="M156 1485H418V707H156ZM156 352H418V-426H156Z" horiz-adv-x="573" unicode="¦"/>
			<glyph d="M559 1485Q682 1485 787 1451T997 1335L879 1174Q797 1236 720 1265T559 1294Q458 1294 408 1268T358 1190Q358 1141 394 1110T486 1061T641 1020Q775 990 862 954T1003 856T1057 692Q1057 602 1004 530T858 428Q947 389 993 328T1040 172Q1040 11 923 -80T575 -172Q435 -172 317 -137T84 -16L205 168Q309 90 391 56T575 23Q691 23 748 51T805 143Q805 199 771 232T678 284T492 334L469 340Q363 366 282 400T145 498T90 657Q90 751 146 815T303 913Q222 948 169 1014T117 1171Q117 1269 169 1339T320 1447T559 1485ZM526 838Q431 826 382 788T334 684Q334 636 372 605T469 555T623 516Q712 519 764 553T817 657Q817 708 788 740T698 794T526 838Z" unicode="§"/>
			<glyph d="M137 1454Q193 1454 228 1419T264 1327Q264 1269 228 1233T137 1198Q77 1198 41 1232T6 1327Q6 1384 41 1419T137 1454ZM547 1454Q603 1454 639 1418T676 1327Q676 1269 639 1233T547 1198Q488 1198 453 1232T418 1327Q418 1384 453 1419T547 1454Z" horiz-adv-x="682" unicode="¨"/>
			<glyph d="M756 1430Q952 1430 1118 1332T1381 1069T1479 707Q1479 510 1381 344T1118 81T756 -16Q560 -16 394 81T130 344T33 707Q33 903 130 1069T393 1332T756 1430ZM756 1315Q591 1315 451 1233T229 1011T147 707Q147 541 229 400T451 178T756 96Q922 96 1062 178T1284 400T1366 707Q1366 872 1284 1011T1062 1233T756 1315ZM760 1124Q887 1124 966 1074T1092 940L948 866Q924 914 878 944T764 975Q660 975 602 903T545 709Q545 628 572 565T649 468T768 434Q894 434 965 561L1106 485Q1058 395 978 340T768 285Q643 285 552 338T413 487T365 707Q365 834 412 928T548 1073T760 1124Z" horiz-adv-x="1509" unicode="©"/>
			<glyph d="M375 1419Q508 1419 582 1359T657 1184V946Q657 838 664 737H487Q481 784 481 827H479Q444 779 387 752T256 725Q159 725 102 778T45 928Q45 1042 122 1091T330 1143L475 1145V1182Q475 1234 441 1256T358 1278Q306 1278 262 1258T174 1200L88 1313Q205 1419 375 1419ZM475 1036L385 1034Q335 1032 303 1024T252 997T233 940Q233 904 257 885T328 866Q373 866 406 888T457 946T475 1018Z" horiz-adv-x="735" unicode="ª"/>
			<glyph d="M350 940H586V903L332 537L588 176V141H350L92 502V573ZM807 940H1044V903L791 537L1047 176V141H807L551 502V573Z" unicode="«"/>
			<glyph d="M84 793H1110V141H887V569H84Z" horiz-adv-x="1196" unicode="¬"/>
			<glyph d="M80 653H600V410H80Z" horiz-adv-x="682" unicode="­"/>
			<glyph d="M756 1430Q952 1430 1118 1332T1381 1069T1479 707Q1479 510 1381 344T1118 81T756 -16Q560 -16 394 81T130 344T33 707Q33 903 130 1069T393 1332T756 1430ZM756 1315Q591 1315 451 1233T229 1011T147 707Q147 541 229 400T451 178T756 96Q922 96 1062 178T1284 400T1366 707Q1366 872 1284 1011T1062 1233T756 1315ZM451 1112H780Q930 1112 1007 1048T1085 870Q1085 779 1038 719T911 633L1124 297H924L745 610H629V297H451ZM629 977V748H772Q837 748 871 780T905 868Q905 920 867 948T762 977Z" horiz-adv-x="1509" unicode="®"/>
			<glyph d="M-16 1546H1149V1452H-16Z" horiz-adv-x="1130" unicode="¯"/>
			<glyph d="M410 1425Q497 1425 570 1383T687 1269T731 1110Q731 1024 687 951T570 837T410 795Q323 795 249 837T133 951T90 1110Q90 1197 133 1269T249 1383T410 1425ZM410 1276Q364 1276 326 1254T266 1194T244 1110Q244 1065 266 1026T326 965T410 942Q455 942 492 965T551 1026T573 1110Q573 1156 551 1194T492 1254T410 1276Z" horiz-adv-x="819" unicode="°"/>
			<glyph d="M451 1270H674V930H1075V707H674V367H451V707H49V930H451ZM49 223H1075V0H49Z" horiz-adv-x="1124" unicode="±"/>
			<glyph d="M387 1626Q475 1626 539 1595T636 1513T670 1399Q670 1343 648 1297T599 1219T516 1133L315 934H680V768H66V911L412 1262Q448 1302 462 1325T477 1378Q477 1414 452 1437T379 1460Q331 1460 295 1437T217 1364L74 1468Q188 1626 387 1626Z" horiz-adv-x="743" unicode="²"/>
			<glyph d="M375 1626Q465 1626 531 1596T631 1516T666 1407Q666 1261 532 1202V1200Q604 1178 646 1124T688 999Q688 931 652 876T545 788T369 756Q273 756 209 784T108 856T43 958L209 1034Q231 994 250 971T298 936T369 924Q425 924 460 948T496 1018Q496 1065 459 1089T352 1114H268V1284H348Q412 1284 443 1308T475 1374Q475 1415 446 1436T371 1458Q316 1458 278 1432T209 1354L59 1440Q101 1527 185 1576T375 1626Z" horiz-adv-x="743" unicode="³"/>
			<glyph d="M340 1501H598V1458L256 1184H86V1214Z" horiz-adv-x="682" unicode="´"/>
			<glyph d="M143 1081H426V477Q426 350 468 281T608 213Q674 213 723 249T800 352T827 504V1081H1110V311Q1110 265 1117 241T1139 207T1184 197Q1201 197 1223 205L1247 6Q1204 -7 1170 -13T1090 -20Q864 -20 836 164H834Q795 74 733 27T588 -20Q536 -20 492 4T426 70H422Q426 27 426 -45V-426H143Z" horiz-adv-x="1253" unicode="µ"/>
			<glyph d="M442 1409H1071V1266H940V-264H784V1266H590V-264H434V694Q325 694 243 734T117 854T72 1049Q72 1160 116 1241T243 1365T442 1409Z" unicode="¶"/>
			<glyph d="M285 848Q359 848 404 802T449 682Q449 608 403 562T285 516Q208 516 163 561T119 682Q119 758 163 803T285 848Z" horiz-adv-x="569" unicode="·"/>
			<glyph d="M205 0H348L315 -82Q407 -86 453 -127T500 -236Q500 -322 428 -374T197 -426Q152 -426 96 -420V-301Q129 -307 180 -307Q317 -307 317 -240Q317 -204 288 -187T195 -170Q162 -170 143 -172Z" horiz-adv-x="682" unicode="¸"/>
			<glyph d="M311 1614H489V932H700V768H98V932H301V1421L117 1282V1477Z" horiz-adv-x="743" unicode="¹"/>
			<glyph d="M379 1419Q491 1419 566 1371T677 1245T713 1073Q713 979 674 899T558 772T375 725Q272 725 197 772T84 898T45 1073Q45 1166 82 1245T195 1371T379 1419ZM381 1268Q316 1268 280 1217T244 1073Q244 975 279 922T375 870Q441 870 476 922T512 1073Q512 1268 381 1268Z" horiz-adv-x="748" unicode="º"/>
			<glyph d="M94 940H334L590 573V502L334 141H92V176L348 537L94 903ZM555 940H791L1049 573V502L791 141H553V176L809 537L555 903Z" unicode="»"/>
			<glyph d="M311 1409H489V727H700V563H98V727H301V1216L117 1077V1272ZM1322 1409H1523L628 0H427ZM1429 846H1634V303H1757V152H1634V0H1460V152H1073V307ZM1462 631Q1457 619 1449 606T1439 590L1277 344Q1275 341 1264 324T1249 303H1460V518Q1460 594 1462 631Z" horiz-adv-x="1787" unicode="¼"/>
			<glyph d="M311 1409H489V727H700V563H98V727H301V1216L117 1077V1272ZM1322 1409H1523L628 0H427ZM1533 858Q1621 858 1685 827T1782 745T1816 631Q1816 575 1794 529T1745 451T1662 365L1461 166H1826V0H1212V143L1558 494Q1594 534 1608 557T1623 610Q1623 646 1598 669T1525 692Q1477 692 1441 669T1363 596L1220 700Q1334 858 1533 858Z" horiz-adv-x="1889" unicode="½"/>
			<glyph d="M375 1421Q465 1421 531 1391T631 1311T666 1202Q666 1056 532 997V995Q604 973 646 919T688 794Q688 726 652 671T545 583T369 551Q273 551 209 579T108 651T43 753L209 829Q231 789 250 766T298 731T369 719Q425 719 460 743T496 813Q496 860 459 884T352 909H268V1079H348Q412 1079 443 1103T475 1169Q475 1210 446 1231T371 1253Q316 1253 278 1227T209 1149L59 1235Q101 1322 185 1371T375 1421ZM1261 1409H1462L567 0H366ZM1368 846H1573V303H1696V152H1573V0H1399V152H1012V307ZM1401 631Q1396 619 1388 606T1378 590L1216 344Q1214 341 1203 324T1188 303H1399V518Q1399 594 1401 631Z" horiz-adv-x="1726" unicode="¾"/>
			<glyph d="M645 1091Q721 1091 766 1049T811 936Q811 865 766 822T645 780Q571 780 526 822T481 936Q481 1005 526 1048T645 1091ZM514 655H780Q776 566 744 501T674 395T565 297Q515 256 485 226T437 156T418 67Q418 -21 473 -72T624 -123Q725 -123 798 -68T928 94L1155 -13Q1085 -167 954 -258T626 -349Q474 -349 363 -300T194 -159T135 55Q135 140 164 203T236 311T348 407Q402 449 434 480T489 555T514 655Z" horiz-adv-x="1251" unicode="¿"/>
			<glyph d="M545 1409H893L1405 0H1110L997 340H439L326 0H31ZM719 1192Q713 1170 694 1108T655 987L513 561H924L782 987Q779 997 726 1170ZM387 1815H645L897 1561V1530H727L387 1772Z" horiz-adv-x="1436" unicode="À"/>
			<glyph d="M545 1409H893L1405 0H1110L997 340H439L326 0H31ZM719 1192Q713 1170 694 1108T655 987L513 561H924L782 987Q779 997 726 1170ZM791 1815H1049V1772L707 1530H537V1561Z" horiz-adv-x="1436" unicode="Á"/>
			<glyph d="M545 1409H893L1405 0H1110L997 340H439L326 0H31ZM719 1192Q713 1170 694 1108T655 987L513 561H924L782 987Q779 997 726 1170ZM608 1835H838L1088 1559V1530H928L725 1681H721L510 1530H350V1559Z" horiz-adv-x="1436" unicode="Â"/>
			<glyph d="M545 1409H893L1405 0H1110L997 340H439L326 0H31ZM719 1192Q713 1170 694 1108T655 987L513 561H924L782 987Q779 997 726 1170ZM553 1823Q598 1823 642 1804T748 1751Q796 1724 824 1712T875 1700Q921 1700 942 1730T973 1823H1108Q1104 1745 1087 1682T1023 1575T885 1530Q843 1530 801 1547T694 1600Q648 1626 617 1639T563 1653Q515 1653 495 1623T465 1530H328Q333 1609 350 1671T415 1778T553 1823Z" horiz-adv-x="1436" unicode="Ã"/>
			<glyph d="M545 1409H893L1405 0H1110L997 340H439L326 0H31ZM719 1192Q713 1170 694 1108T655 987L513 561H924L782 987Q779 997 726 1170ZM516 1776Q572 1776 608 1740T645 1649Q645 1592 608 1556T516 1520Q458 1520 422 1555T387 1649Q387 1706 422 1741T516 1776ZM926 1776Q982 1776 1017 1740T1053 1649Q1053 1592 1017 1556T926 1520Q866 1520 830 1555T795 1649Q795 1706 830 1741T926 1776Z" horiz-adv-x="1436" unicode="Ä"/>
			<glyph d="M723 1792Q791 1792 849 1757T942 1664T977 1538Q977 1488 959 1443T909 1364L1405 0H1110L997 340H439L326 0H31L531 1371Q501 1405 485 1447T469 1538Q469 1606 503 1664T596 1757T723 1792ZM723 1663Q689 1663 660 1646T614 1600T598 1538Q598 1484 634 1446T723 1409Q757 1409 786 1426T833 1473T850 1538Q850 1571 833 1600T786 1646T723 1663ZM719 1192Q713 1170 694 1108T655 987L513 561H924L782 987Q779 997 726 1170Z" horiz-adv-x="1436" unicode="Å"/>
			<glyph d="M711 1409H1927V1161H1227V834H1866V584H1227V248H1968V0H932V360H482L309 0H4ZM868 1171Q788 995 772 963L589 582H932V1171Z" horiz-adv-x="2048" unicode="Æ"/>
			<glyph d="M782 1430Q1005 1430 1155 1340T1386 1092L1141 973Q1094 1062 1004 1120T788 1178Q667 1178 574 1120T431 956T381 711Q381 569 428 461T568 293T795 233Q1046 233 1169 473L1411 348Q1339 192 1196 90T829 -19L804 -82Q896 -86 942 -127T989 -236Q989 -322 917 -374T686 -426Q640 -426 585 -420V-301Q618 -307 669 -307Q806 -307 806 -240Q806 -204 777 -187T684 -170Q651 -170 632 -172L689 -14Q494 7 358 104T153 357T84 711Q84 930 168 1092T409 1342T782 1430Z" horiz-adv-x="1454" unicode="Ç"/>
			<glyph d="M137 1409H1151V1161H432V834H1090V584H432V248H1192V0H137ZM336 1815H594L846 1561V1530H676L336 1772Z" horiz-adv-x="1272" unicode="È"/>
			<glyph d="M137 1409H1151V1161H432V834H1090V584H432V248H1192V0H137ZM740 1815H998V1772L656 1530H486V1561Z" horiz-adv-x="1272" unicode="É"/>
			<glyph d="M137 1409H1151V1161H432V834H1090V584H432V248H1192V0H137ZM557 1835H787L1037 1559V1530H877L674 1681H670L459 1530H299V1559Z" horiz-adv-x="1272" unicode="Ê"/>
			<glyph d="M137 1409H1151V1161H432V834H1090V584H432V248H1192V0H137ZM465 1776Q521 1776 557 1740T594 1649Q594 1592 557 1556T465 1520Q407 1520 371 1555T336 1649Q336 1706 371 1741T465 1776ZM875 1776Q931 1776 966 1740T1002 1649Q1002 1592 966 1556T875 1520Q815 1520 779 1555T744 1649Q744 1706 779 1741T875 1776Z" horiz-adv-x="1272" unicode="Ë"/>
			<glyph d="M137 1409H432V0H137ZM-47 1815H211L463 1561V1530H293L-47 1772Z" horiz-adv-x="569" unicode="Ì"/>
			<glyph d="M137 1409H432V0H137ZM357 1815H615V1772L273 1530H103V1561Z" horiz-adv-x="569" unicode="Í"/>
			<glyph d="M137 1409H432V0H137ZM174 1835H404L654 1559V1530H494L291 1681H287L76 1530H-84V1559Z" horiz-adv-x="569" unicode="Î"/>
			<glyph d="M137 1409H432V0H137ZM82 1776Q138 1776 174 1740T211 1649Q211 1592 174 1556T82 1520Q24 1520 -11 1555T-47 1649Q-47 1706 -11 1741T82 1776ZM492 1776Q548 1776 583 1740T619 1649Q619 1592 583 1556T492 1520Q432 1520 396 1555T361 1649Q361 1706 396 1741T492 1776Z" horiz-adv-x="569" unicode="Ï"/>
			<glyph d="M137 1409H647Q871 1409 1038 1334T1299 1104T1393 715Q1393 487 1303 326T1059 82T707 0H137V594H8V813H137ZM432 1161V813H788V594H432V248H682Q802 248 895 302T1042 461T1096 715Q1096 941 974 1051T641 1161Z" horiz-adv-x="1479" unicode="Ð"/>
			<glyph d="M137 1409H494L1077 332Q1076 354 1072 430T1069 590V1409H1341V0H975L403 1065Q404 1043 407 970T410 831V0H137ZM594 1823Q639 1823 683 1804T789 1751Q837 1724 865 1712T916 1700Q962 1700 983 1730T1014 1823H1149Q1145 1745 1128 1682T1064 1575T926 1530Q884 1530 842 1547T735 1600Q689 1626 658 1639T604 1653Q556 1653 536 1623T506 1530H369Q374 1609 391 1671T456 1778T594 1823Z" horiz-adv-x="1479" unicode="Ñ"/>
			<glyph d="M795 1430Q1012 1430 1173 1341T1420 1090T1507 711Q1507 493 1417 327T1166 71T793 -20Q572 -20 412 73T168 332T84 711Q84 930 170 1092T417 1342T795 1430ZM795 1178Q669 1178 575 1120T431 956T381 711Q381 572 432 463T577 293T793 233Q924 233 1017 294T1158 463T1206 711Q1206 851 1155 956T1010 1120T795 1178ZM465 1815H723L975 1561V1530H805L465 1772Z" horiz-adv-x="1593" unicode="Ò"/>
			<glyph d="M795 1430Q1012 1430 1173 1341T1420 1090T1507 711Q1507 493 1417 327T1166 71T793 -20Q572 -20 412 73T168 332T84 711Q84 930 170 1092T417 1342T795 1430ZM795 1178Q669 1178 575 1120T431 956T381 711Q381 572 432 463T577 293T793 233Q924 233 1017 294T1158 463T1206 711Q1206 851 1155 956T1010 1120T795 1178ZM869 1815H1127V1772L785 1530H615V1561Z" horiz-adv-x="1593" unicode="Ó"/>
			<glyph d="M795 1430Q1012 1430 1173 1341T1420 1090T1507 711Q1507 493 1417 327T1166 71T793 -20Q572 -20 412 73T168 332T84 711Q84 930 170 1092T417 1342T795 1430ZM795 1178Q669 1178 575 1120T431 956T381 711Q381 572 432 463T577 293T793 233Q924 233 1017 294T1158 463T1206 711Q1206 851 1155 956T1010 1120T795 1178ZM686 1835H916L1166 1559V1530H1006L803 1681H799L588 1530H428V1559Z" horiz-adv-x="1593" unicode="Ô"/>
			<glyph d="M795 1430Q1012 1430 1173 1341T1420 1090T1507 711Q1507 493 1417 327T1166 71T793 -20Q572 -20 412 73T168 332T84 711Q84 930 170 1092T417 1342T795 1430ZM795 1178Q669 1178 575 1120T431 956T381 711Q381 572 432 463T577 293T793 233Q924 233 1017 294T1158 463T1206 711Q1206 851 1155 956T1010 1120T795 1178ZM631 1823Q676 1823 720 1804T826 1751Q874 1724 902 1712T953 1700Q999 1700 1020 1730T1051 1823H1186Q1182 1745 1165 1682T1101 1575T963 1530Q921 1530 879 1547T772 1600Q726 1626 695 1639T641 1653Q593 1653 573 1623T543 1530H406Q411 1609 428 1671T493 1778T631 1823Z" horiz-adv-x="1593" unicode="Õ"/>
			<glyph d="M795 1430Q1012 1430 1173 1341T1420 1090T1507 711Q1507 493 1417 327T1166 71T793 -20Q572 -20 412 73T168 332T84 711Q84 930 170 1092T417 1342T795 1430ZM795 1178Q669 1178 575 1120T431 956T381 711Q381 572 432 463T577 293T793 233Q924 233 1017 294T1158 463T1206 711Q1206 851 1155 956T1010 1120T795 1178ZM594 1776Q650 1776 686 1740T723 1649Q723 1592 686 1556T594 1520Q536 1520 500 1555T465 1649Q465 1706 500 1741T594 1776ZM1004 1776Q1060 1776 1095 1740T1131 1649Q1131 1592 1095 1556T1004 1520Q944 1520 908 1555T873 1649Q873 1706 908 1741T1004 1776Z" horiz-adv-x="1593" unicode="Ö"/>
			<glyph d="M952 1194L1110 1036L758 682L1110 332L952 172L600 526L244 168L86 326L442 684L90 1036L248 1192L600 842Z" horiz-adv-x="1196" unicode="×"/>
			<glyph d="M1231 1473H1423L1279 1268Q1389 1173 1448 1030T1507 711Q1507 493 1417 327T1166 71T793 -20Q591 -20 435 61L342 -72L147 -74L305 151Q197 249 140 393T84 711Q84 930 170 1092T417 1342T795 1430Q996 1430 1148 1354ZM795 1178Q669 1178 575 1120T431 956T381 711Q381 617 405 536T474 392L991 1131Q906 1178 795 1178ZM1111 1028L592 285Q679 233 793 233Q924 233 1017 294T1158 463T1206 711Q1206 807 1181 887T1111 1028Z" horiz-adv-x="1593" unicode="Ø"/>
			<glyph d="M123 1409H418V551Q418 389 500 310T731 231Q882 231 970 314T1059 561V1409H1354V543Q1354 355 1274 229T1053 41T723 -20Q542 -20 407 38T198 218T123 528ZM407 1815H665L917 1561V1530H747L407 1772Z" horiz-adv-x="1479" unicode="Ù"/>
			<glyph d="M123 1409H418V551Q418 389 500 310T731 231Q882 231 970 314T1059 561V1409H1354V543Q1354 355 1274 229T1053 41T723 -20Q542 -20 407 38T198 218T123 528ZM811 1815H1069V1772L727 1530H557V1561Z" horiz-adv-x="1479" unicode="Ú"/>
			<glyph d="M123 1409H418V551Q418 389 500 310T731 231Q882 231 970 314T1059 561V1409H1354V543Q1354 355 1274 229T1053 41T723 -20Q542 -20 407 38T198 218T123 528ZM628 1835H858L1108 1559V1530H948L745 1681H741L530 1530H370V1559Z" horiz-adv-x="1479" unicode="Û"/>
			<glyph d="M123 1409H418V551Q418 389 500 310T731 231Q882 231 970 314T1059 561V1409H1354V543Q1354 355 1274 229T1053 41T723 -20Q542 -20 407 38T198 218T123 528ZM536 1776Q592 1776 628 1740T665 1649Q665 1592 628 1556T536 1520Q478 1520 442 1555T407 1649Q407 1706 442 1741T536 1776ZM946 1776Q1002 1776 1037 1740T1073 1649Q1073 1592 1037 1556T946 1520Q886 1520 850 1555T815 1649Q815 1706 850 1741T946 1776Z" horiz-adv-x="1479" unicode="Ü"/>
			<glyph d="M35 1409H344L682 813L1024 1409H1333L831 578V0H537V578ZM756 1815H1014V1772L672 1530H502V1561Z" horiz-adv-x="1366" unicode="Ý"/>
			<glyph d="M137 1409H432V1196H770Q1032 1196 1164 1074T1296 737Q1296 605 1240 497T1068 326T782 262H432V0H137ZM432 948V510H745Q871 510 935 571T999 733Q999 835 932 891T737 948Z" horiz-adv-x="1366" unicode="Þ"/>
			<glyph d="M639 1485Q785 1485 884 1440T1032 1318T1081 1149Q1081 1077 1051 1022T973 920Q970 917 928 878Q889 842 872 822T856 782Q856 755 881 729T962 664L991 643Q1049 601 1092 557T1165 452T1194 311Q1194 160 1097 70T807 -20Q649 -20 532 25L592 240Q701 190 776 190Q854 190 893 218T932 297Q932 336 912 368T864 423T784 483Q722 526 684 559T620 643T594 760Q594 804 610 839T649 901T710 963L741 993Q777 1029 796 1062T815 1139Q815 1190 768 1219T635 1249Q530 1249 477 1192T424 1014V0H143V1008Q143 1236 267 1360T639 1485Z" horiz-adv-x="1251" unicode="ß"/>
			<glyph d="M565 1102Q776 1102 892 1002T1008 715V319Q1008 141 1016 0H750Q743 71 743 152H737Q684 69 599 24T401 -20Q301 -20 225 18T108 129T66 305Q66 485 182 566T494 651L727 655V707Q727 806 679 845T549 885Q406 885 258 754L125 930Q319 1102 565 1102ZM727 481L582 479Q508 475 462 464T387 422T358 328Q358 262 393 227T489 193Q558 193 612 226T697 312T727 426ZM242 1501H500L751 1214V1184H582L242 1458Z" unicode="à"/>
			<glyph d="M565 1102Q776 1102 892 1002T1008 715V319Q1008 141 1016 0H750Q743 71 743 152H737Q684 69 599 24T401 -20Q301 -20 225 18T108 129T66 305Q66 485 182 566T494 651L727 655V707Q727 806 679 845T549 885Q406 885 258 754L125 930Q319 1102 565 1102ZM727 481L582 479Q508 475 462 464T387 422T358 328Q358 262 393 227T489 193Q558 193 612 226T697 312T727 426ZM647 1501H905V1458L563 1184H393V1214Z" unicode="á"/>
			<glyph d="M565 1102Q776 1102 892 1002T1008 715V319Q1008 141 1016 0H750Q743 71 743 152H737Q684 69 599 24T401 -20Q301 -20 225 18T108 129T66 305Q66 485 182 566T494 651L727 655V707Q727 806 679 845T549 885Q406 885 258 754L125 930Q319 1102 565 1102ZM727 481L582 479Q508 475 462 464T387 422T358 328Q358 262 393 227T489 193Q558 193 612 226T697 312T727 426ZM458 1530H687L937 1210V1184H778L575 1374H571L360 1184H200V1210Z" unicode="â"/>
			<glyph d="M565 1102Q776 1102 892 1002T1008 715V319Q1008 141 1016 0H750Q743 71 743 152H737Q684 69 599 24T401 -20Q301 -20 225 18T108 129T66 305Q66 485 182 566T494 651L727 655V707Q727 806 679 845T549 885Q406 885 258 754L125 930Q319 1102 565 1102ZM727 481L582 479Q508 475 462 464T387 422T358 328Q358 262 393 227T489 193Q558 193 612 226T697 312T727 426ZM403 1477Q447 1477 491 1458T599 1405Q645 1379 673 1366T724 1354Q770 1354 791 1384T823 1477H958Q954 1399 937 1336T873 1229T735 1184Q693 1184 651 1201T544 1254Q498 1280 467 1293T413 1307Q365 1307 345 1277T315 1184H178Q183 1264 200 1325T265 1432T403 1477Z" unicode="ã"/>
			<glyph d="M565 1102Q776 1102 892 1002T1008 715V319Q1008 141 1016 0H750Q743 71 743 152H737Q684 69 599 24T401 -20Q301 -20 225 18T108 129T66 305Q66 485 182 566T494 651L727 655V707Q727 806 679 845T549 885Q406 885 258 754L125 930Q319 1102 565 1102ZM727 481L582 479Q508 475 462 464T387 422T358 328Q358 262 393 227T489 193Q558 193 612 226T697 312T727 426ZM364 1454Q420 1454 455 1419T491 1327Q491 1269 455 1233T364 1198Q304 1198 268 1232T233 1327Q233 1384 268 1419T364 1454ZM774 1454Q830 1454 866 1418T903 1327Q903 1269 866 1233T774 1198Q715 1198 680 1232T645 1327Q645 1384 680 1419T774 1454Z" unicode="ä"/>
			<glyph d="M565 1102Q776 1102 892 1002T1008 715V319Q1008 141 1016 0H750Q743 71 743 152H737Q684 69 599 24T401 -20Q301 -20 225 18T108 129T66 305Q66 485 182 566T494 651L727 655V707Q727 806 679 845T549 885Q406 885 258 754L125 930Q319 1102 565 1102ZM727 481L582 479Q508 475 462 464T387 422T358 328Q358 262 393 227T489 193Q558 193 612 226T697 312T727 426ZM569 1686Q637 1686 695 1651T788 1558T823 1432Q823 1361 788 1303T696 1211T569 1178Q500 1178 442 1211T349 1303T315 1432Q315 1500 349 1558T442 1651T569 1686ZM569 1557Q535 1557 506 1540T460 1494T444 1432Q444 1378 480 1340T569 1303Q603 1303 632 1320T679 1367T696 1432Q696 1465 679 1494T632 1540T569 1557Z" unicode="å"/>
			<glyph d="M565 1102Q672 1102 753 1067T889 963Q955 1032 1044 1067T1235 1102Q1400 1102 1507 1031T1664 842T1714 580Q1714 523 1708 467H1014Q1014 342 1075 267T1266 193Q1323 193 1369 205T1459 242T1567 311L1681 129Q1586 57 1489 18T1251 -20Q1122 -20 1021 25T854 160Q761 63 662 21T436 -20Q329 -20 245 18T114 129T66 305Q66 485 182 566T494 651L733 655V707Q733 806 684 845T549 885Q406 885 258 754L125 930Q319 1102 565 1102ZM1233 897Q1136 897 1078 838T1016 659H1442Q1438 781 1385 839T1233 897ZM733 481L582 479Q508 475 462 464T387 422T358 328Q358 262 393 227T489 193Q560 193 616 226T702 312T733 426Z" horiz-adv-x="1784" unicode="æ"/>
			<glyph d="M623 1102Q900 1102 1040 874L844 741Q800 807 749 843T623 879Q502 879 438 793T375 547Q375 380 440 292T625 205Q705 205 763 241T887 346L1055 184Q985 98 889 45T673 -17L647 -82Q739 -86 785 -127T832 -236Q832 -322 760 -374T529 -426Q483 -426 428 -420V-301Q461 -307 512 -307Q649 -307 649 -240Q649 -204 620 -187T527 -170Q494 -170 475 -172L531 -16Q386 0 285 72T132 263T80 535Q80 714 146 841T334 1035T623 1102Z" horiz-adv-x="1077" unicode="ç"/>
			<glyph d="M590 1102Q755 1102 862 1031T1019 842T1069 580Q1069 523 1063 467H375Q375 341 434 267T621 193Q678 193 724 205T814 242T922 311L1036 129Q941 57 844 18T606 -20Q357 -20 218 121T80 543Q80 731 148 856T332 1042T590 1102ZM588 897Q494 897 437 838T377 659H797Q793 781 740 839T588 897ZM259 1501H517L768 1214V1184H599L259 1458Z" unicode="è"/>
			<glyph d="M590 1102Q755 1102 862 1031T1019 842T1069 580Q1069 523 1063 467H375Q375 341 434 267T621 193Q678 193 724 205T814 242T922 311L1036 129Q941 57 844 18T606 -20Q357 -20 218 121T80 543Q80 731 148 856T332 1042T590 1102ZM588 897Q494 897 437 838T377 659H797Q793 781 740 839T588 897ZM664 1501H922V1458L580 1184H410V1214Z" unicode="é"/>
			<glyph d="M590 1102Q755 1102 862 1031T1019 842T1069 580Q1069 523 1063 467H375Q375 341 434 267T621 193Q678 193 724 205T814 242T922 311L1036 129Q941 57 844 18T606 -20Q357 -20 218 121T80 543Q80 731 148 856T332 1042T590 1102ZM588 897Q494 897 437 838T377 659H797Q793 781 740 839T588 897ZM475 1530H704L954 1210V1184H795L592 1374H588L377 1184H217V1210Z" unicode="ê"/>
			<glyph d="M590 1102Q755 1102 862 1031T1019 842T1069 580Q1069 523 1063 467H375Q375 341 434 267T621 193Q678 193 724 205T814 242T922 311L1036 129Q941 57 844 18T606 -20Q357 -20 218 121T80 543Q80 731 148 856T332 1042T590 1102ZM588 897Q494 897 437 838T377 659H797Q793 781 740 839T588 897ZM381 1454Q437 1454 472 1419T508 1327Q508 1269 472 1233T381 1198Q321 1198 285 1232T250 1327Q250 1384 285 1419T381 1454ZM791 1454Q847 1454 883 1418T920 1327Q920 1269 883 1233T791 1198Q732 1198 697 1232T662 1327Q662 1384 697 1419T791 1454Z" unicode="ë"/>
			<glyph d="M145 1081H426V0H145ZM-42 1501H216L467 1214V1184H298L-42 1458Z" horiz-adv-x="569" unicode="ì"/>
			<glyph d="M145 1081H426V0H145ZM363 1501H621V1458L279 1184H109V1214Z" horiz-adv-x="569" unicode="í"/>
			<glyph d="M145 1081H426V0H145ZM174 1530H403L653 1210V1184H494L291 1374H287L76 1184H-84V1210Z" horiz-adv-x="569" unicode="î"/>
			<glyph d="M145 1081H426V0H145ZM80 1454Q136 1454 171 1419T207 1327Q207 1269 171 1233T80 1198Q20 1198 -15 1232T-51 1327Q-51 1384 -15 1419T80 1454ZM490 1454Q546 1454 582 1418T619 1327Q619 1269 582 1233T490 1198Q431 1198 396 1232T361 1327Q361 1384 396 1419T490 1454Z" horiz-adv-x="569" unicode="ï"/>
			<glyph d="M496 1520Q607 1458 702 1387L977 1503V1321L844 1265Q1006 1107 1088 923T1171 541V537Q1171 377 1109 251T924 54T623 -18Q452 -18 329 47T143 224T80 479Q80 615 141 727T323 906T616 973Q667 973 716 961T797 932Q735 1067 635 1177L348 1055V1237L497 1300Q437 1345 369 1382ZM631 760Q508 760 441 684T375 477Q375 340 441 266T618 193Q744 193 810 265T877 477Q877 612 813 686T631 760Z" horiz-adv-x="1251" unicode="ð"/>
			<glyph d="M768 1104Q953 1104 1038 990T1124 686V0H844V606Q844 728 803 795T662 862Q594 862 540 826T455 726T424 580V0H143V840Q143 909 140 982T135 1081H403Q407 1059 411 992T416 887H420Q477 998 563 1051T768 1104ZM481 1477Q525 1477 569 1458T677 1405Q723 1379 751 1366T802 1354Q848 1354 869 1384T901 1477H1036Q1032 1399 1015 1336T951 1229T813 1184Q771 1184 729 1201T622 1254Q576 1280 545 1293T491 1307Q443 1307 423 1277T393 1184H256Q261 1264 278 1325T343 1432T481 1477Z" horiz-adv-x="1251" unicode="ñ"/>
			<glyph d="M627 1102Q814 1102 935 1027T1114 827T1171 543Q1171 384 1108 256T922 54T621 -20Q451 -20 328 54T143 256T80 543Q80 698 141 825T326 1027T627 1102ZM631 879Q507 879 441 791T375 543Q375 436 405 359T490 243T618 203Q743 203 810 291T877 543Q877 705 814 792T631 879ZM300 1501H558L809 1214V1184H640L300 1458Z" horiz-adv-x="1251" unicode="ò"/>
			<glyph d="M627 1102Q814 1102 935 1027T1114 827T1171 543Q1171 384 1108 256T922 54T621 -20Q451 -20 328 54T143 256T80 543Q80 698 141 825T326 1027T627 1102ZM631 879Q507 879 441 791T375 543Q375 436 405 359T490 243T618 203Q743 203 810 291T877 543Q877 705 814 792T631 879ZM705 1501H963V1458L621 1184H451V1214Z" horiz-adv-x="1251" unicode="ó"/>
			<glyph d="M627 1102Q814 1102 935 1027T1114 827T1171 543Q1171 384 1108 256T922 54T621 -20Q451 -20 328 54T143 256T80 543Q80 698 141 825T326 1027T627 1102ZM631 879Q507 879 441 791T375 543Q375 436 405 359T490 243T618 203Q743 203 810 291T877 543Q877 705 814 792T631 879ZM516 1530H745L995 1210V1184H836L633 1374H629L418 1184H258V1210Z" horiz-adv-x="1251" unicode="ô"/>
			<glyph d="M627 1102Q814 1102 935 1027T1114 827T1171 543Q1171 384 1108 256T922 54T621 -20Q451 -20 328 54T143 256T80 543Q80 698 141 825T326 1027T627 1102ZM631 879Q507 879 441 791T375 543Q375 436 405 359T490 243T618 203Q743 203 810 291T877 543Q877 705 814 792T631 879ZM461 1477Q505 1477 549 1458T657 1405Q703 1379 731 1366T782 1354Q828 1354 849 1384T881 1477H1016Q1012 1399 995 1336T931 1229T793 1184Q751 1184 709 1201T602 1254Q556 1280 525 1293T471 1307Q423 1307 403 1277T373 1184H236Q241 1264 258 1325T323 1432T461 1477Z" horiz-adv-x="1251" unicode="õ"/>
			<glyph d="M627 1102Q814 1102 935 1027T1114 827T1171 543Q1171 384 1108 256T922 54T621 -20Q451 -20 328 54T143 256T80 543Q80 698 141 825T326 1027T627 1102ZM631 879Q507 879 441 791T375 543Q375 436 405 359T490 243T618 203Q743 203 810 291T877 543Q877 705 814 792T631 879ZM422 1454Q478 1454 513 1419T549 1327Q549 1269 513 1233T422 1198Q362 1198 326 1232T291 1327Q291 1384 326 1419T422 1454ZM832 1454Q888 1454 924 1418T961 1327Q961 1269 924 1233T832 1198Q773 1198 738 1232T703 1327Q703 1384 738 1419T832 1454Z" horiz-adv-x="1251" unicode="ö"/>
			<glyph d="M563 1219Q626 1219 665 1179T705 1075Q705 1012 665 972T563 932Q497 932 458 971T420 1075Q420 1140 458 1179T563 1219ZM49 793H1075V569H49ZM563 430Q626 430 665 390T705 287Q705 224 665 183T563 143Q497 143 458 182T420 287Q420 352 458 391T563 430Z" horiz-adv-x="1124" unicode="÷"/>
			<glyph d="M1063 1133H1245L1057 922Q1115 848 1143 751T1171 543Q1171 384 1108 256T922 54T621 -20Q434 -20 301 72L188 -55H4L200 165Q141 240 110 336T80 543Q80 698 141 825T326 1027T627 1102Q827 1102 957 1014ZM631 879Q507 879 441 791T375 543Q375 453 396 385L787 823Q726 879 631 879ZM858 698L469 261Q530 203 618 203Q743 203 810 291T877 543Q877 634 858 698Z" horiz-adv-x="1251" unicode="ø"/>
			<glyph d="M127 1081H408V475Q408 354 449 287T590 221Q657 221 711 256T796 356T827 502V1081H1108V242Q1108 174 1110 100T1116 0H848Q845 24 840 90T836 195H831Q776 84 689 32T483 -20Q298 -20 212 92T127 395ZM300 1501H558L809 1214V1184H640L300 1458Z" horiz-adv-x="1251" unicode="ù"/>
			<glyph d="M127 1081H408V475Q408 354 449 287T590 221Q657 221 711 256T796 356T827 502V1081H1108V242Q1108 174 1110 100T1116 0H848Q845 24 840 90T836 195H831Q776 84 689 32T483 -20Q298 -20 212 92T127 395ZM705 1501H963V1458L621 1184H451V1214Z" horiz-adv-x="1251" unicode="ú"/>
			<glyph d="M127 1081H408V475Q408 354 449 287T590 221Q657 221 711 256T796 356T827 502V1081H1108V242Q1108 174 1110 100T1116 0H848Q845 24 840 90T836 195H831Q776 84 689 32T483 -20Q298 -20 212 92T127 395ZM516 1530H745L995 1210V1184H836L633 1374H629L418 1184H258V1210Z" horiz-adv-x="1251" unicode="û"/>
			<glyph d="M127 1081H408V475Q408 354 449 287T590 221Q657 221 711 256T796 356T827 502V1081H1108V242Q1108 174 1110 100T1116 0H848Q845 24 840 90T836 195H831Q776 84 689 32T483 -20Q298 -20 212 92T127 395ZM422 1454Q478 1454 513 1419T549 1327Q549 1269 513 1233T422 1198Q362 1198 326 1232T291 1327Q291 1384 326 1419T422 1454ZM832 1454Q888 1454 924 1418T961 1327Q961 1269 924 1233T832 1198Q773 1198 738 1232T703 1327Q703 1384 738 1419T832 1454Z" horiz-adv-x="1251" unicode="ü"/>
			<glyph d="M16 1081H315L485 580Q505 517 541 404T584 262Q592 298 626 419T672 575L831 1081H1128L700 -57Q646 -189 591 -268T462 -387T283 -426Q178 -426 106 -410L127 -190Q176 -199 203 -199Q258 -199 297 -184T366 -134T426 -37L444 10ZM647 1501H905V1458L563 1184H393V1214Z" unicode="ý"/>
			<glyph d="M143 1485H424V1049L422 926H424Q531 1104 768 1104Q899 1104 991 1032T1130 835T1178 547Q1178 381 1127 252T977 52T743 -20Q643 -20 557 21T424 152H418Q420 141 422 86T424 -10V-426H143ZM662 879Q599 879 544 847T455 739T420 539Q420 417 454 342T543 235T659 203Q762 203 823 288T885 547Q885 711 825 795T662 879Z" horiz-adv-x="1262" unicode="þ"/>
			<glyph d="M16 1081H315L485 580Q505 517 541 404T584 262Q592 298 626 419T672 575L831 1081H1128L700 -57Q646 -189 591 -268T462 -387T283 -426Q178 -426 106 -410L127 -190Q176 -199 203 -199Q258 -199 297 -184T366 -134T426 -37L444 10ZM364 1454Q420 1454 455 1419T491 1327Q491 1269 455 1233T364 1198Q304 1198 268 1232T233 1327Q233 1384 268 1419T364 1454ZM774 1454Q830 1454 866 1418T903 1327Q903 1269 866 1233T774 1198Q715 1198 680 1232T645 1327Q645 1384 680 1419T774 1454Z" unicode="ÿ"/>
			<glyph d="M545 1409H893L1405 0H1110L997 340H439L326 0H31ZM719 1192Q713 1170 694 1108T655 987L513 561H924L782 987Q779 997 726 1170ZM414 1708H1024V1540H414Z" horiz-adv-x="1436" unicode="Ā"/>
			<glyph d="M565 1102Q776 1102 892 1002T1008 715V319Q1008 141 1016 0H750Q743 71 743 152H737Q684 69 599 24T401 -20Q301 -20 225 18T108 129T66 305Q66 485 182 566T494 651L727 655V707Q727 806 679 845T549 885Q406 885 258 754L125 930Q319 1102 565 1102ZM727 481L582 479Q508 475 462 464T387 422T358 328Q358 262 393 227T489 193Q558 193 612 226T697 312T727 426ZM264 1382H874V1214H264Z" unicode="ā"/>
			<glyph d="M545 1409H893L1405 0H1110L997 340H439L326 0H31ZM719 1192Q713 1170 694 1108T655 987L513 561H924L782 987Q779 997 726 1170ZM365 1808H527Q542 1745 594 1708T717 1671Q790 1671 842 1707T908 1808H1071Q1061 1729 1018 1664T898 1559T715 1520Q612 1520 535 1559T414 1665T365 1808Z" horiz-adv-x="1436" unicode="Ă"/>
			<glyph d="M565 1102Q776 1102 892 1002T1008 715V319Q1008 141 1016 0H750Q743 71 743 152H737Q684 69 599 24T401 -20Q301 -20 225 18T108 129T66 305Q66 485 182 566T494 651L727 655V707Q727 806 679 845T549 885Q406 885 258 754L125 930Q319 1102 565 1102ZM727 481L582 479Q508 475 462 464T387 422T358 328Q358 262 393 227T489 193Q558 193 612 226T697 312T727 426ZM215 1505H379Q394 1429 446 1384T569 1339Q641 1339 693 1384T759 1505H923Q912 1413 869 1341T750 1226T567 1184Q464 1184 387 1226T266 1342T215 1505Z" unicode="ă"/>
			<glyph d="M545 1409H893L1405 0H1329Q1280 -39 1253 -90T1227 -188Q1227 -231 1252 -257T1321 -283Q1349 -283 1375 -276T1434 -256V-391Q1369 -426 1282 -426Q1176 -426 1110 -373T1045 -225Q1045 -152 1081 -93T1169 0H1110L997 340H439L326 0H31ZM719 1192Q713 1170 694 1108T655 987L513 561H924L782 987Q779 997 726 1170Z" horiz-adv-x="1436" unicode="Ą"/>
			<glyph d="M565 1102Q776 1102 892 1002T1008 715V319Q1008 141 1016 0H969Q921 -39 894 -90T868 -188Q868 -231 893 -257T963 -283Q991 -283 1016 -276T1075 -256V-391Q1010 -426 924 -426Q817 -426 751 -373T686 -225Q686 -152 722 -94T809 0H750Q743 71 743 152H737Q684 69 599 24T401 -20Q301 -20 225 18T108 129T66 305Q66 485 182 566T494 651L727 655V707Q727 806 679 845T549 885Q406 885 258 754L125 930Q319 1102 565 1102ZM727 481L582 479Q508 475 462 464T387 422T358 328Q358 262 393 227T489 193Q558 193 612 226T697 312T727 426Z" unicode="ą"/>
			<glyph d="M782 1430Q1005 1430 1155 1340T1386 1092L1141 973Q1094 1062 1004 1120T788 1178Q667 1178 574 1120T431 956T381 711Q381 569 428 461T568 293T795 233Q1046 233 1169 473L1411 348Q1337 186 1185 83T795 -20Q567 -20 407 73T165 331T84 711Q84 930 168 1092T409 1342T782 1430ZM854 1815H1112V1772L770 1530H600V1561Z" horiz-adv-x="1454" unicode="Ć"/>
			<glyph d="M623 1102Q900 1102 1040 874L844 741Q800 807 749 843T623 879Q502 879 438 793T375 547Q375 380 440 292T625 205Q705 205 763 241T887 346L1055 184Q977 88 866 34T614 -20Q443 -20 323 49T141 243T80 535Q80 714 146 841T334 1035T623 1102ZM698 1501H956V1458L614 1184H444V1214Z" horiz-adv-x="1077" unicode="ć"/>
			<glyph d="M782 1430Q1005 1430 1155 1340T1386 1092L1141 973Q1094 1062 1004 1120T788 1178Q667 1178 574 1120T431 956T381 711Q381 569 428 461T568 293T795 233Q1046 233 1169 473L1411 348Q1337 186 1185 83T795 -20Q567 -20 407 73T165 331T84 711Q84 930 168 1092T409 1342T782 1430ZM671 1835H901L1151 1559V1530H991L788 1681H784L573 1530H413V1559Z" horiz-adv-x="1454" unicode="Ĉ"/>
			<glyph d="M623 1102Q900 1102 1040 874L844 741Q800 807 749 843T623 879Q502 879 438 793T375 547Q375 380 440 292T625 205Q705 205 763 241T887 346L1055 184Q977 88 866 34T614 -20Q443 -20 323 49T141 243T80 535Q80 714 146 841T334 1035T623 1102ZM487 1530H716L966 1210V1184H807L604 1374H600L389 1184H229V1210Z" horiz-adv-x="1077" unicode="ĉ"/>
			<glyph d="M782 1430Q1005 1430 1155 1340T1386 1092L1141 973Q1094 1062 1004 1120T788 1178Q667 1178 574 1120T431 956T381 711Q381 569 428 461T568 293T795 233Q1046 233 1169 473L1411 348Q1337 186 1185 83T795 -20Q567 -20 407 73T165 331T84 711Q84 930 168 1092T409 1342T782 1430ZM780 1784Q838 1784 873 1748T909 1653Q909 1596 873 1560T780 1524Q720 1524 685 1559T651 1653Q651 1712 686 1748T780 1784Z" horiz-adv-x="1454" unicode="Ċ"/>
			<glyph d="M623 1102Q900 1102 1040 874L844 741Q800 807 749 843T623 879Q502 879 438 793T375 547Q375 380 440 292T625 205Q705 205 763 241T887 346L1055 184Q977 88 866 34T614 -20Q443 -20 323 49T141 243T80 535Q80 714 146 841T334 1035T623 1102ZM598 1477Q659 1477 697 1438T735 1337Q735 1277 697 1238T598 1200Q535 1200 498 1237T461 1337Q461 1399 498 1438T598 1477Z" horiz-adv-x="1077" unicode="ċ"/>
			<glyph d="M782 1430Q1005 1430 1155 1340T1386 1092L1141 973Q1094 1062 1004 1120T788 1178Q667 1178 574 1120T431 956T381 711Q381 569 428 461T568 293T795 233Q1046 233 1169 473L1411 348Q1337 186 1185 83T795 -20Q567 -20 407 73T165 331T84 711Q84 930 168 1092T409 1342T782 1430ZM413 1835H573L784 1683H788L991 1835H1151V1806L901 1530H671L413 1806Z" horiz-adv-x="1454" unicode="Č"/>
			<glyph d="M623 1102Q900 1102 1040 874L844 741Q800 807 749 843T623 879Q502 879 438 793T375 547Q375 380 440 292T625 205Q705 205 763 241T887 346L1055 184Q977 88 866 34T614 -20Q443 -20 323 49T141 243T80 535Q80 714 146 841T334 1035T623 1102ZM229 1530H389L600 1335H604L807 1530H966V1499L716 1184H487L229 1499Z" horiz-adv-x="1077" unicode="č"/>
			<glyph d="M137 1409H647Q871 1409 1038 1334T1299 1104T1393 715Q1393 487 1303 326T1059 82T707 0H137ZM432 1161V248H682Q802 248 895 302T1042 461T1096 715Q1096 941 974 1051T641 1161ZM333 1835H493L704 1683H708L911 1835H1071V1806L821 1530H591L333 1806Z" horiz-adv-x="1479" unicode="Ď"/>
			<glyph d="M838 1485H1118V236Q1118 167 1120 106T1124 33Q1126 7 1126 0H854Q849 14 844 66T840 156H836Q790 66 706 23T512 -20Q374 -20 277 51T132 250T84 541Q84 706 135 832T287 1030T532 1102Q628 1102 711 1060T838 932H840Q840 958 839 979L838 1090ZM602 881Q500 881 438 797T377 541Q377 377 437 290T600 203Q662 203 717 236T807 346T842 547Q842 727 772 804T602 881ZM1339 1489Q1399 1489 1433 1452T1468 1350Q1468 1274 1432 1211T1337 1088L1259 1153Q1287 1190 1303 1218T1325 1278Q1279 1285 1252 1313T1225 1383Q1225 1429 1257 1459T1339 1489Z" horiz-adv-x="1386" unicode="ď"/>
			<glyph d="M137 1409H647Q871 1409 1038 1334T1299 1104T1393 715Q1393 487 1303 326T1059 82T707 0H137V594H8V813H137ZM432 1161V813H788V594H432V248H682Q802 248 895 302T1042 461T1096 715Q1096 941 974 1051T641 1161Z" horiz-adv-x="1479" unicode="Đ"/>
			<glyph d="M838 1485H1118V1346H1249V1176H1118V236Q1118 167 1120 106T1124 33Q1126 7 1126 0H854Q849 14 844 66T840 156H836Q790 66 706 23T512 -20Q374 -20 277 51T132 250T84 541Q84 706 135 832T287 1030T532 1102Q628 1102 711 1060T838 932H840Q840 958 839 979L838 1090V1176H549V1346H838ZM602 881Q500 881 438 797T377 541Q377 377 437 290T600 203Q662 203 717 236T807 346T842 547Q842 727 772 804T602 881Z" horiz-adv-x="1260" unicode="đ"/>
			<glyph d="M137 1409H1151V1161H432V834H1090V584H432V248H1192V0H137ZM363 1708H973V1540H363Z" horiz-adv-x="1272" unicode="Ē"/>
			<glyph d="M590 1102Q755 1102 862 1031T1019 842T1069 580Q1069 523 1063 467H375Q375 341 434 267T621 193Q678 193 724 205T814 242T922 311L1036 129Q941 57 844 18T606 -20Q357 -20 218 121T80 543Q80 731 148 856T332 1042T590 1102ZM588 897Q494 897 437 838T377 659H797Q793 781 740 839T588 897ZM281 1382H891V1214H281Z" unicode="ē"/>
			<glyph d="M137 1409H1151V1161H432V834H1090V584H432V248H1192V0H137ZM314 1808H476Q491 1745 543 1708T666 1671Q739 1671 791 1707T857 1808H1020Q1010 1729 967 1664T847 1559T664 1520Q561 1520 484 1559T363 1665T314 1808Z" horiz-adv-x="1272" unicode="Ĕ"/>
			<glyph d="M590 1102Q755 1102 862 1031T1019 842T1069 580Q1069 523 1063 467H375Q375 341 434 267T621 193Q678 193 724 205T814 242T922 311L1036 129Q941 57 844 18T606 -20Q357 -20 218 121T80 543Q80 731 148 856T332 1042T590 1102ZM588 897Q494 897 437 838T377 659H797Q793 781 740 839T588 897ZM232 1505H396Q411 1429 463 1384T586 1339Q658 1339 710 1384T776 1505H940Q929 1413 886 1341T767 1226T584 1184Q481 1184 404 1226T283 1342T232 1505Z" unicode="ĕ"/>
			<glyph d="M137 1409H1151V1161H432V834H1090V584H432V248H1192V0H137ZM666 1784Q724 1784 759 1748T795 1653Q795 1596 759 1560T666 1524Q606 1524 571 1559T537 1653Q537 1712 572 1748T666 1784Z" horiz-adv-x="1272" unicode="Ė"/>
			<glyph d="M590 1102Q755 1102 862 1031T1019 842T1069 580Q1069 523 1063 467H375Q375 341 434 267T621 193Q678 193 724 205T814 242T922 311L1036 129Q941 57 844 18T606 -20Q357 -20 218 121T80 543Q80 731 148 856T332 1042T590 1102ZM588 897Q494 897 437 838T377 659H797Q793 781 740 839T588 897ZM586 1477Q647 1477 685 1438T723 1337Q723 1277 685 1238T586 1200Q523 1200 486 1237T449 1337Q449 1399 486 1438T586 1477Z" unicode="ė"/>
			<glyph d="M137 1409H1151V1161H432V834H1090V584H432V248H1192V0H1110Q1061 -39 1034 -90T1008 -188Q1008 -231 1033 -257T1102 -283Q1130 -283 1156 -276T1215 -256V-391Q1150 -426 1063 -426Q957 -426 891 -373T826 -225Q826 -152 862 -93T950 0H137Z" horiz-adv-x="1272" unicode="Ę"/>
			<glyph d="M590 1102Q755 1102 862 1031T1019 842T1069 580Q1069 523 1063 467H375Q375 341 434 267T621 193Q678 193 724 205T814 242T922 311L1036 129Q982 88 931 59T820 11Q765 -29 735 -83T705 -188Q705 -231 730 -257T799 -283Q827 -283 853 -276T912 -256V-391Q847 -426 760 -426Q654 -426 588 -373T523 -225Q523 -161 551 -109T621 -20H606Q357 -20 218 121T80 543Q80 731 148 856T332 1042T590 1102ZM588 897Q494 897 437 838T377 659H797Q793 781 740 839T588 897Z" unicode="ę"/>
			<glyph d="M137 1409H1151V1161H432V834H1090V584H432V248H1192V0H137ZM299 1835H459L670 1683H674L877 1835H1037V1806L787 1530H557L299 1806Z" horiz-adv-x="1272" unicode="Ě"/>
			<glyph d="M590 1102Q755 1102 862 1031T1019 842T1069 580Q1069 523 1063 467H375Q375 341 434 267T621 193Q678 193 724 205T814 242T922 311L1036 129Q941 57 844 18T606 -20Q357 -20 218 121T80 543Q80 731 148 856T332 1042T590 1102ZM588 897Q494 897 437 838T377 659H797Q793 781 740 839T588 897ZM217 1530H377L588 1335H592L795 1530H954V1499L704 1184H475L217 1499Z" unicode="ě"/>
			<glyph d="M801 1430Q1003 1430 1155 1355T1397 1145L1176 979Q1119 1066 1021 1122T801 1178Q672 1178 577 1120T431 957T381 711Q381 570 429 461T568 292T786 231Q896 231 987 266T1132 365T1186 514V524H852V764H1456V0H1210V184Q1145 85 1028 32T758 -20Q548 -20 395 73T163 332T84 711Q84 931 168 1093T414 1342T801 1430ZM686 1835H916L1166 1559V1530H1006L803 1681H799L588 1530H428V1559Z" horiz-adv-x="1583" unicode="Ĝ"/>
			<glyph d="M1106 1182H1110L1120 954H1116Q1029 954 965 932Q1018 848 1018 737Q1018 636 970 555T819 426T561 379Q488 379 425 391Q404 370 393 353T383 315Q383 287 404 274T464 255T589 245L639 242Q828 230 926 209T1088 121T1151 -88Q1151 -259 1014 -342T580 -426Q392 -426 279 -400T113 -317T61 -160Q61 -91 97 -36T204 68Q137 121 137 221Q137 289 171 343T269 448Q193 494 153 568T113 737Q113 841 159 923T307 1053T567 1102Q734 1102 843 1042Q895 1112 957 1147T1106 1182ZM565 911Q472 911 425 864T379 737Q379 657 425 613T559 569Q663 569 707 613T752 737Q752 818 706 864T565 911ZM362 5Q338 -25 326 -54T315 -119Q315 -164 343 -187T429 -217T590 -225Q741 -225 812 -202T883 -123Q883 -83 854 -63T768 -35T590 -18L550 -15Q540 -14 477 -9T362 5ZM452 1530H681L931 1210V1184H772L569 1374H565L354 1184H194V1210Z" horiz-adv-x="1161" unicode="ĝ"/>
			<glyph d="M801 1430Q1003 1430 1155 1355T1397 1145L1176 979Q1119 1066 1021 1122T801 1178Q672 1178 577 1120T431 957T381 711Q381 570 429 461T568 292T786 231Q896 231 987 266T1132 365T1186 514V524H852V764H1456V0H1210V184Q1145 85 1028 32T758 -20Q548 -20 395 73T163 332T84 711Q84 931 168 1093T414 1342T801 1430ZM443 1808H605Q620 1745 672 1708T795 1671Q868 1671 920 1707T986 1808H1149Q1139 1729 1096 1664T976 1559T793 1520Q690 1520 613 1559T492 1665T443 1808Z" horiz-adv-x="1583" unicode="Ğ"/>
			<glyph d="M1106 1182H1110L1120 954H1116Q1029 954 965 932Q1018 848 1018 737Q1018 636 970 555T819 426T561 379Q488 379 425 391Q404 370 393 353T383 315Q383 287 404 274T464 255T589 245L639 242Q828 230 926 209T1088 121T1151 -88Q1151 -259 1014 -342T580 -426Q392 -426 279 -400T113 -317T61 -160Q61 -91 97 -36T204 68Q137 121 137 221Q137 289 171 343T269 448Q193 494 153 568T113 737Q113 841 159 923T307 1053T567 1102Q734 1102 843 1042Q895 1112 957 1147T1106 1182ZM565 911Q472 911 425 864T379 737Q379 657 425 613T559 569Q663 569 707 613T752 737Q752 818 706 864T565 911ZM362 5Q338 -25 326 -54T315 -119Q315 -164 343 -187T429 -217T590 -225Q741 -225 812 -202T883 -123Q883 -83 854 -63T768 -35T590 -18L550 -15Q540 -14 477 -9T362 5ZM209 1505H373Q388 1429 440 1384T563 1339Q635 1339 687 1384T753 1505H917Q906 1413 863 1341T744 1226T561 1184Q458 1184 381 1226T260 1342T209 1505Z" horiz-adv-x="1161" unicode="ğ"/>
			<glyph d="M801 1430Q1003 1430 1155 1355T1397 1145L1176 979Q1119 1066 1021 1122T801 1178Q672 1178 577 1120T431 957T381 711Q381 570 429 461T568 292T786 231Q896 231 987 266T1132 365T1186 514V524H852V764H1456V0H1210V184Q1145 85 1028 32T758 -20Q548 -20 395 73T163 332T84 711Q84 931 168 1093T414 1342T801 1430ZM795 1784Q853 1784 888 1748T924 1653Q924 1596 888 1560T795 1524Q735 1524 700 1559T666 1653Q666 1712 701 1748T795 1784Z" horiz-adv-x="1583" unicode="Ġ"/>
			<glyph d="M1106 1182H1110L1120 954H1116Q1029 954 965 932Q1018 848 1018 737Q1018 636 970 555T819 426T561 379Q488 379 425 391Q404 370 393 353T383 315Q383 287 404 274T464 255T589 245L639 242Q828 230 926 209T1088 121T1151 -88Q1151 -259 1014 -342T580 -426Q392 -426 279 -400T113 -317T61 -160Q61 -91 97 -36T204 68Q137 121 137 221Q137 289 171 343T269 448Q193 494 153 568T113 737Q113 841 159 923T307 1053T567 1102Q734 1102 843 1042Q895 1112 957 1147T1106 1182ZM565 911Q472 911 425 864T379 737Q379 657 425 613T559 569Q663 569 707 613T752 737Q752 818 706 864T565 911ZM362 5Q338 -25 326 -54T315 -119Q315 -164 343 -187T429 -217T590 -225Q741 -225 812 -202T883 -123Q883 -83 854 -63T768 -35T590 -18L550 -15Q540 -14 477 -9T362 5ZM563 1477Q624 1477 662 1438T700 1337Q700 1277 662 1238T563 1200Q500 1200 463 1237T426 1337Q426 1399 463 1438T563 1477Z" horiz-adv-x="1161" unicode="ġ"/>
			<glyph d="M801 1430Q1003 1430 1155 1355T1397 1145L1176 979Q1119 1066 1021 1122T801 1178Q672 1178 577 1120T431 957T381 711Q381 570 429 461T568 292T786 231Q896 231 987 266T1132 365T1186 514V524H852V764H1456V0H1210V184Q1145 85 1028 32T758 -20Q548 -20 395 73T163 332T84 711Q84 931 168 1093T414 1342T801 1430ZM791 -61Q850 -61 885 -97T920 -201Q920 -266 887 -321T801 -432L719 -371Q746 -336 760 -313T779 -264Q731 -258 702 -230T674 -162Q674 -119 707 -90T791 -61Z" horiz-adv-x="1583" unicode="Ģ"/>
			<glyph d="M1106 1182H1110L1120 954H1116Q1029 954 965 932Q1018 848 1018 737Q1018 636 970 555T819 426T561 379Q488 379 425 391Q404 370 393 353T383 315Q383 287 404 274T464 255T589 245L639 242Q828 230 926 209T1088 121T1151 -88Q1151 -259 1014 -342T580 -426Q392 -426 279 -400T113 -317T61 -160Q61 -91 97 -36T204 68Q137 121 137 221Q137 289 171 343T269 448Q193 494 153 568T113 737Q113 841 159 923T307 1053T567 1102Q734 1102 843 1042Q895 1112 957 1147T1106 1182ZM565 911Q472 911 425 864T379 737Q379 657 425 613T559 569Q663 569 707 613T752 737Q752 818 706 864T565 911ZM362 5Q338 -25 326 -54T315 -119Q315 -164 343 -187T429 -217T590 -225Q741 -225 812 -202T883 -123Q883 -83 854 -63T768 -35T590 -18L550 -15Q540 -14 477 -9T362 5ZM569 1581L647 1516Q642 1510 625 1490T597 1450T582 1411Q628 1403 655 1376T682 1309Q682 1266 649 1238T567 1210Q508 1210 473 1245T438 1346Q438 1413 474 1469T569 1581Z" horiz-adv-x="1161" unicode="ģ"/>
			<glyph d="M137 1409H432V860H1047V1409H1341V0H1047V596H432V0H137ZM628 1835H858L1108 1559V1530H948L745 1681H741L530 1530H370V1559Z" horiz-adv-x="1479" unicode="Ĥ"/>
			<glyph d="M143 1485H424V1079Q424 1011 416 887H420Q476 998 562 1050T768 1102Q953 1102 1038 989T1124 686V0H844V606Q844 728 803 794T662 860Q595 860 540 824T455 725T424 580V0H143ZM531 1835H761L1011 1559V1530H851L648 1681H644L433 1530H273V1559Z" horiz-adv-x="1251" unicode="ĥ"/>
			<glyph d="M137 1409H432V1214H1047V1409H1341V1214H1464V1044H1341V0H1047V596H432V0H137V1044H14V1214H137ZM432 1044V860H1047V1044Z" horiz-adv-x="1479" unicode="Ħ"/>
			<glyph d="M143 1485H424V1346H729V1176H424V1079Q424 1011 416 887H420Q476 998 562 1050T768 1102Q953 1102 1038 989T1124 686V0H844V606Q844 728 803 794T662 860Q595 860 540 824T455 725T424 580V0H143V1176H10V1346H143Z" horiz-adv-x="1251" unicode="ħ"/>
			<glyph d="M137 1409H432V0H137ZM119 1823Q164 1823 208 1804T314 1751Q362 1724 390 1712T441 1700Q487 1700 508 1730T539 1823H674Q670 1745 653 1682T589 1575T451 1530Q409 1530 367 1547T260 1600Q214 1626 183 1639T129 1653Q81 1653 61 1623T31 1530H-106Q-101 1609 -84 1671T-19 1778T119 1823Z" horiz-adv-x="569" unicode="Ĩ"/>
			<glyph d="M145 1081H426V0H145ZM121 1477Q165 1477 209 1458T317 1405Q363 1379 391 1366T442 1354Q488 1354 509 1384T541 1477H676Q672 1399 655 1336T591 1229T453 1184Q411 1184 369 1201T262 1254Q216 1280 185 1293T131 1307Q83 1307 63 1277T33 1184H-104Q-99 1264 -82 1325T-17 1432T121 1477Z" horiz-adv-x="569" unicode="ĩ"/>
			<glyph d="M137 1409H432V0H137ZM-20 1708H590V1540H-20Z" horiz-adv-x="569" unicode="Ī"/>
			<glyph d="M145 1081H426V0H145ZM-20 1382H590V1214H-20Z" horiz-adv-x="569" unicode="ī"/>
			<glyph d="M137 1409H432V0H137ZM-69 1808H93Q108 1745 160 1708T283 1671Q356 1671 408 1707T474 1808H637Q627 1729 584 1664T464 1559T281 1520Q178 1520 101 1559T-19 1665T-69 1808Z" horiz-adv-x="569" unicode="Ĭ"/>
			<glyph d="M145 1081H426V0H145ZM-69 1505H95Q110 1429 162 1384T285 1339Q357 1339 409 1384T475 1505H639Q628 1413 585 1341T466 1226T283 1184Q180 1184 103 1226T-18 1342T-69 1505Z" horiz-adv-x="569" unicode="ĭ"/>
			<glyph d="M137 1409H432V0H373Q325 -39 298 -90T272 -188Q272 -231 297 -257T367 -283Q395 -283 420 -276T479 -256V-391Q414 -426 328 -426Q221 -426 155 -373T90 -225Q90 -152 126 -94T213 0H137Z" horiz-adv-x="569" unicode="Į"/>
			<glyph d="M285 1540Q356 1540 398 1497T440 1382Q440 1311 397 1268T285 1225Q211 1225 169 1267T127 1382Q127 1455 169 1497T285 1540ZM143 1081H424V0H354Q307 -39 280 -90T254 -188Q254 -231 279 -257T348 -283Q376 -283 402 -276T461 -256V-391Q396 -426 309 -426Q203 -426 137 -373T72 -225Q72 -152 107 -94T193 0H143Z" horiz-adv-x="569" unicode="į"/>
			<glyph d="M137 1409H432V0H137ZM283 1784Q341 1784 376 1748T412 1653Q412 1596 376 1560T283 1524Q223 1524 188 1559T154 1653Q154 1712 189 1748T283 1784Z" horiz-adv-x="569" unicode="İ"/>
			<glyph d="M145 1081H426V0H145Z" horiz-adv-x="569" unicode="ı"/>
			<glyph d="M137 1409H432V0H137ZM1267 1409H1562V446Q1562 303 1507 198T1345 36T1087 -20Q910 -20 793 52T606 285L858 410Q901 315 953 273T1081 231Q1170 231 1218 284T1267 438Z" horiz-adv-x="1702" unicode="Ĳ"/>
			<glyph d="M285 1540Q356 1540 398 1497T440 1382Q440 1311 397 1268T285 1225Q211 1225 169 1267T127 1382Q127 1455 169 1497T285 1540ZM143 1081H424V0H143ZM854 1540Q925 1540 967 1497T1009 1382Q1009 1311 966 1268T854 1225Q780 1225 738 1267T696 1382Q696 1455 738 1497T854 1540ZM712 1081H995V-129Q995 -264 924 -345T706 -426Q600 -426 536 -414L557 -193Q593 -197 608 -197Q652 -197 674 -182T704 -135T712 -39Z" horiz-adv-x="1138" unicode="ĳ"/>
			<glyph d="M698 1409H993V446Q993 303 938 198T776 36T518 -20Q341 -20 224 52T37 285L289 410Q332 315 384 273T512 231Q601 231 649 284T698 438ZM661 1835H891L1141 1559V1530H981L778 1681H774L563 1530H403V1559Z" horiz-adv-x="1133" unicode="Ĵ"/>
			<glyph d="M143 1081H426V-129Q426 -264 355 -345T137 -426Q31 -426 -33 -414L-12 -193Q24 -197 39 -197Q83 -197 105 -182T135 -135T143 -39ZM174 1530H403L653 1210V1184H494L291 1374H287L76 1184H-84V1210Z" horiz-adv-x="569" unicode="ĵ"/>
			<glyph d="M137 1409H432V770L981 1409H1329L794 806L1378 0H1042L600 618L432 459V0H137ZM723 -61Q782 -61 817 -97T852 -201Q852 -266 819 -321T733 -432L651 -371Q678 -336 692 -313T711 -264Q663 -258 634 -230T606 -162Q606 -119 639 -90T723 -61Z" horiz-adv-x="1397" unicode="Ķ"/>
			<glyph d="M143 1485H424V639L799 1081H1112L731 659L1141 0H834L545 489L424 365V0H143ZM598 -61Q657 -61 692 -97T727 -201Q727 -266 694 -321T608 -432L526 -371Q553 -336 567 -313T586 -264Q538 -258 509 -230T481 -162Q481 -119 514 -90T598 -61Z" unicode="ķ"/>
			<glyph d="M143 1081H424V639L799 1081H1112L731 659L1141 0H834L545 489L424 365V0H143Z" unicode="ĸ"/>
			<glyph d="M137 1409H432V248H1106V0H137ZM699 1815H957V1772L615 1530H445V1561Z" horiz-adv-x="1169" unicode="Ĺ"/>
			<glyph d="M133 1485H414V332Q414 285 421 259T449 222T510 211Q534 211 561 217L571 0Q499 -14 422 -14Q275 -14 204 61T133 262ZM353 1842H611V1799L269 1557H99V1588Z" horiz-adv-x="602" unicode="ĺ"/>
			<glyph d="M137 1409H432V248H1106V0H137ZM627 -61Q686 -61 721 -97T756 -201Q756 -266 723 -321T637 -432L555 -371Q582 -336 596 -313T615 -264Q567 -258 538 -230T510 -162Q510 -119 543 -90T627 -61Z" horiz-adv-x="1169" unicode="Ļ"/>
			<glyph d="M133 1485H414V332Q414 285 421 259T449 222T510 211Q534 211 561 217L571 0Q499 -14 422 -14Q275 -14 204 61T133 262ZM350 -61Q409 -61 444 -97T479 -201Q479 -266 446 -321T360 -432L278 -371Q305 -336 319 -313T338 -264Q290 -258 261 -230T233 -162Q233 -119 266 -90T350 -61Z" horiz-adv-x="602" unicode="ļ"/>
			<glyph d="M137 1409H432V248H1106V0H137ZM852 1413Q912 1413 946 1376T981 1274Q981 1198 945 1135T850 1012L772 1077Q800 1114 816 1142T838 1202Q792 1209 765 1237T738 1307Q738 1353 770 1383T852 1413Z" horiz-adv-x="1169" unicode="Ľ"/>
			<glyph d="M133 1485H414V332Q414 285 421 259T449 222T510 211Q534 211 561 217L571 0Q499 -14 422 -14Q275 -14 204 61T133 262ZM637 1489Q697 1489 731 1452T766 1350Q766 1274 730 1211T635 1088L557 1153Q585 1190 601 1218T623 1278Q577 1285 550 1313T523 1383Q523 1429 555 1459T637 1489Z" horiz-adv-x="684" unicode="ľ"/>
			<glyph d="M137 1409H432V248H1106V0H137ZM813 850Q874 850 912 811T950 710Q950 650 912 611T813 573Q750 573 713 610T676 710Q676 772 713 811T813 850Z" horiz-adv-x="1169" unicode="Ŀ"/>
			<glyph d="M133 1485H414V332Q414 285 421 259T449 222T510 211Q534 211 561 217L571 0Q499 -14 422 -14Q275 -14 204 61T133 262ZM704 850Q765 850 803 811T841 710Q841 650 803 611T704 573Q641 573 604 610T567 710Q567 772 604 811T704 850Z" horiz-adv-x="821" unicode="ŀ"/>
			<glyph d="M137 1409H432V850L739 997V774L432 627V248H1106V0H137V483L0 418V643L137 709Z" horiz-adv-x="1169" unicode="Ł"/>
			<glyph d="M143 1485H424V932L553 1006V793L424 717V332Q424 285 431 259T459 222T520 211Q544 211 571 217L581 0Q509 -14 432 -14Q285 -14 214 61T143 262V561L18 492V707L143 776Z" horiz-adv-x="612" unicode="ł"/>
			<glyph d="M137 1409H494L1077 332Q1076 354 1072 430T1069 590V1409H1341V0H975L403 1065Q404 1043 407 970T410 831V0H137ZM832 1815H1090V1772L748 1530H578V1561Z" horiz-adv-x="1479" unicode="Ń"/>
			<glyph d="M768 1104Q953 1104 1038 990T1124 686V0H844V606Q844 728 803 795T662 862Q594 862 540 826T455 726T424 580V0H143V840Q143 909 140 982T135 1081H403Q407 1059 411 992T416 887H420Q477 998 563 1051T768 1104ZM725 1501H983V1458L641 1184H471V1214Z" horiz-adv-x="1251" unicode="ń"/>
			<glyph d="M137 1409H494L1077 332Q1076 354 1072 430T1069 590V1409H1341V0H975L403 1065Q404 1043 407 970T410 831V0H137ZM733 -61Q792 -61 827 -97T862 -201Q862 -266 829 -321T743 -432L661 -371Q688 -336 702 -313T721 -264Q673 -258 644 -230T616 -162Q616 -119 649 -90T733 -61Z" horiz-adv-x="1479" unicode="Ņ"/>
			<glyph d="M768 1104Q953 1104 1038 990T1124 686V0H844V606Q844 728 803 795T662 862Q594 862 540 826T455 726T424 580V0H143V840Q143 909 140 982T135 1081H403Q407 1059 411 992T416 887H420Q477 998 563 1051T768 1104ZM621 -61Q680 -61 715 -97T750 -201Q750 -266 717 -321T631 -432L549 -371Q576 -336 590 -313T609 -264Q561 -258 532 -230T504 -162Q504 -119 537 -90T621 -61Z" horiz-adv-x="1251" unicode="ņ"/>
			<glyph d="M137 1409H494L1077 332Q1076 354 1072 430T1069 590V1409H1341V0H975L403 1065Q404 1043 407 970T410 831V0H137ZM391 1835H551L762 1683H766L969 1835H1129V1806L879 1530H649L391 1806Z" horiz-adv-x="1479" unicode="Ň"/>
			<glyph d="M768 1104Q953 1104 1038 990T1124 686V0H844V606Q844 728 803 795T662 862Q594 862 540 826T455 726T424 580V0H143V840Q143 909 140 982T135 1081H403Q407 1059 411 992T416 887H420Q477 998 563 1051T768 1104ZM278 1530H438L649 1335H653L856 1530H1015V1499L765 1184H536L278 1499Z" horiz-adv-x="1251" unicode="ň"/>
			<glyph d="M969 1104Q1154 1104 1239 990T1325 686V0H1045V606Q1045 728 1004 795T863 862Q795 862 741 826T656 726T625 580V0H344V840Q344 909 341 982T336 1081H604Q608 1059 612 992T617 887H621Q678 998 764 1051T969 1104ZM113 1423Q189 1423 230 1375T272 1237Q272 1153 246 1076T181 935T86 793L-29 872Q19 940 52 1001T98 1126Q34 1136 -3 1175T-41 1272Q-41 1339 2 1381T113 1423Z" horiz-adv-x="1452" unicode="ŉ"/>
			<glyph d="M137 1409H494L1077 332Q1076 354 1072 430T1069 590V1409H1341V0Q1341 -131 1288 -227T1134 -374T887 -426Q778 -426 692 -396T541 -307L694 -92Q751 -137 793 -155T881 -174Q961 -174 1004 -131T1047 -8V0H975L403 1065Q404 1043 407 970T410 831V0H137Z" horiz-adv-x="1479" unicode="Ŋ"/>
			<glyph d="M768 1104Q953 1104 1038 990T1124 686V-129Q1124 -264 1053 -345T838 -426Q733 -426 668 -414L688 -193Q726 -197 739 -197Q783 -197 805 -182T836 -135T844 -39V606Q844 728 803 795T662 862Q594 862 540 826T455 726T424 580V0H143V840Q143 909 140 982T135 1081H403Q407 1059 411 992T416 887H420Q477 998 563 1051T768 1104Z" horiz-adv-x="1251" unicode="ŋ"/>
			<glyph d="M795 1430Q1012 1430 1173 1341T1420 1090T1507 711Q1507 493 1417 327T1166 71T793 -20Q572 -20 412 73T168 332T84 711Q84 930 170 1092T417 1342T795 1430ZM795 1178Q669 1178 575 1120T431 956T381 711Q381 572 432 463T577 293T793 233Q924 233 1017 294T1158 463T1206 711Q1206 851 1155 956T1010 1120T795 1178ZM492 1708H1102V1540H492Z" horiz-adv-x="1593" unicode="Ō"/>
			<glyph d="M627 1102Q814 1102 935 1027T1114 827T1171 543Q1171 384 1108 256T922 54T621 -20Q451 -20 328 54T143 256T80 543Q80 698 141 825T326 1027T627 1102ZM631 879Q507 879 441 791T375 543Q375 436 405 359T490 243T618 203Q743 203 810 291T877 543Q877 705 814 792T631 879ZM322 1382H932V1214H322Z" horiz-adv-x="1251" unicode="ō"/>
			<glyph d="M795 1430Q1012 1430 1173 1341T1420 1090T1507 711Q1507 493 1417 327T1166 71T793 -20Q572 -20 412 73T168 332T84 711Q84 930 170 1092T417 1342T795 1430ZM795 1178Q669 1178 575 1120T431 956T381 711Q381 572 432 463T577 293T793 233Q924 233 1017 294T1158 463T1206 711Q1206 851 1155 956T1010 1120T795 1178ZM443 1808H605Q620 1745 672 1708T795 1671Q868 1671 920 1707T986 1808H1149Q1139 1729 1096 1664T976 1559T793 1520Q690 1520 613 1559T492 1665T443 1808Z" horiz-adv-x="1593" unicode="Ŏ"/>
			<glyph d="M627 1102Q814 1102 935 1027T1114 827T1171 543Q1171 384 1108 256T922 54T621 -20Q451 -20 328 54T143 256T80 543Q80 698 141 825T326 1027T627 1102ZM631 879Q507 879 441 791T375 543Q375 436 405 359T490 243T618 203Q743 203 810 291T877 543Q877 705 814 792T631 879ZM273 1505H437Q452 1429 504 1384T627 1339Q699 1339 751 1384T817 1505H981Q970 1413 927 1341T808 1226T625 1184Q522 1184 445 1226T324 1342T273 1505Z" horiz-adv-x="1251" unicode="ŏ"/>
			<glyph d="M795 1430Q1012 1430 1173 1341T1420 1090T1507 711Q1507 493 1417 327T1166 71T793 -20Q572 -20 412 73T168 332T84 711Q84 930 170 1092T417 1342T795 1430ZM795 1178Q669 1178 575 1120T431 956T381 711Q381 572 432 463T577 293T793 233Q924 233 1017 294T1158 463T1206 711Q1206 851 1155 956T1010 1120T795 1178ZM654 1817H890V1774L570 1530H439V1565ZM1060 1817H1295V1774L978 1530H845V1565Z" horiz-adv-x="1593" unicode="Ő"/>
			<glyph d="M627 1102Q814 1102 935 1027T1114 827T1171 543Q1171 384 1108 256T922 54T621 -20Q451 -20 328 54T143 256T80 543Q80 698 141 825T326 1027T627 1102ZM631 879Q507 879 441 791T375 543Q375 436 405 359T490 243T618 203Q743 203 810 291T877 543Q877 705 814 792T631 879ZM500 1485H736V1442L416 1184H275V1219ZM906 1485H1141V1442L824 1184H680V1219Z" horiz-adv-x="1251" unicode="ő"/>
			<glyph d="M795 1419Q842 1419 892 1416T956 1412L997 1409H1925V1161H1257V834H1864V584H1257V248H1966V0H991Q944 -3 928 -4Q844 -10 793 -10Q572 -10 412 81T168 335T84 711Q84 929 170 1088T416 1333T795 1419ZM795 1178Q669 1178 575 1121T431 959T381 711Q381 569 432 460T577 291T793 231Q848 231 888 235T963 252V1159Q932 1167 885 1172T795 1178Z" horiz-adv-x="2046" unicode="Œ"/>
			<glyph d="M627 1102Q750 1102 845 1057T1004 930Q1074 1016 1172 1059T1386 1102Q1552 1102 1659 1031T1816 842T1866 580Q1866 523 1860 467H1171Q1171 342 1230 267T1417 193Q1475 193 1521 205T1611 242T1718 311L1833 129Q1770 82 1711 50T1576 -1T1403 -20Q1270 -20 1166 23T995 154Q930 71 833 25T621 -20Q451 -20 328 54T143 256T80 543Q80 698 141 825T326 1027T627 1102ZM1384 897Q1291 897 1234 838T1174 659H1593Q1589 781 1536 839T1384 897ZM631 879Q507 879 441 791T375 543Q375 436 405 359T490 243T618 203Q743 203 810 291T877 543Q877 705 814 792T631 879Z" horiz-adv-x="1935" unicode="œ"/>
			<glyph d="M137 1409H768Q941 1409 1058 1357T1233 1209T1292 979Q1292 873 1252 789T1143 649T983 571L1364 0H1032L705 514H432V0H137ZM432 1159V764H743Q871 764 933 818T995 967Q995 1064 929 1111T737 1159ZM777 1815H1035V1772L693 1530H523V1561Z" horiz-adv-x="1405" unicode="Ŕ"/>
			<glyph d="M676 1104Q703 1104 728 1099T766 1087L758 844Q744 846 737 848Q683 858 645 858Q541 858 482 773T424 530V0H143V827Q143 897 140 976T135 1081H403Q407 1063 411 995T416 893H420Q452 969 481 1012T556 1079T676 1104ZM539 1501H797V1458L455 1184H285V1214Z" horiz-adv-x="797" unicode="ŕ"/>
			<glyph d="M137 1409H768Q941 1409 1058 1357T1233 1209T1292 979Q1292 873 1252 789T1143 649T983 571L1364 0H1032L705 514H432V0H137ZM432 1159V764H743Q871 764 933 818T995 967Q995 1064 929 1111T737 1159ZM713 -61Q772 -61 807 -97T842 -201Q842 -266 809 -321T723 -432L641 -371Q668 -336 682 -313T701 -264Q653 -258 624 -230T596 -162Q596 -119 629 -90T713 -61Z" horiz-adv-x="1405" unicode="Ŗ"/>
			<glyph d="M676 1104Q703 1104 728 1099T766 1087L758 844Q744 846 737 848Q683 858 645 858Q541 858 482 773T424 530V0H143V827Q143 897 140 976T135 1081H403Q407 1063 411 995T416 893H420Q452 969 481 1012T556 1079T676 1104ZM393 -61Q452 -61 487 -97T522 -201Q522 -266 489 -321T403 -432L321 -371Q348 -336 362 -313T381 -264Q333 -258 304 -230T276 -162Q276 -119 309 -90T393 -61Z" horiz-adv-x="797" unicode="ŗ"/>
			<glyph d="M137 1409H768Q941 1409 1058 1357T1233 1209T1292 979Q1292 873 1252 789T1143 649T983 571L1364 0H1032L705 514H432V0H137ZM432 1159V764H743Q871 764 933 818T995 967Q995 1064 929 1111T737 1159ZM336 1835H496L707 1683H711L914 1835H1074V1806L824 1530H594L336 1806Z" horiz-adv-x="1405" unicode="Ř"/>
			<glyph d="M676 1104Q703 1104 728 1099T766 1087L758 844Q744 846 737 848Q683 858 645 858Q541 858 482 773T424 530V0H143V827Q143 897 140 976T135 1081H403Q407 1063 411 995T416 893H420Q452 969 481 1012T556 1079T676 1104ZM92 1530H252L463 1335H467L670 1530H829V1499L579 1184H350L92 1499Z" horiz-adv-x="797" unicode="ř"/>
			<glyph d="M657 1430Q823 1430 950 1381T1178 1233L1006 1047Q930 1118 843 1157T647 1196Q517 1196 460 1155T403 1049Q403 990 437 955T528 901T691 857L713 852Q882 813 984 772T1156 645T1227 408Q1227 279 1164 183T971 33T643 -20Q268 -20 68 221L258 410Q310 354 362 314T486 249T651 223Q791 223 865 266T940 391Q940 452 900 490T801 548T635 593Q597 601 578 606Q438 640 341 684T180 812T117 1030Q117 1159 185 1249T376 1384T657 1430ZM725 1815H983V1772L641 1530H471V1561Z" horiz-adv-x="1290" unicode="Ś"/>
			<glyph d="M512 1102Q640 1102 745 1063T926 946L782 780Q667 893 514 893Q348 893 348 797Q348 760 369 738T426 705T527 678L578 666Q698 636 775 601T903 498T954 315Q954 212 901 136T748 20T508 -20Q368 -20 258 17T49 135L176 328Q266 259 343 224T508 190Q597 190 646 212T696 293Q696 335 670 360T603 398T489 429L436 442Q327 470 254 504T136 604T90 774Q90 876 139 949T283 1062T512 1102ZM588 1501H846V1458L504 1184H334V1214Z" horiz-adv-x="1018" unicode="ś"/>
			<glyph d="M657 1430Q823 1430 950 1381T1178 1233L1006 1047Q930 1118 843 1157T647 1196Q517 1196 460 1155T403 1049Q403 990 437 955T528 901T691 857L713 852Q882 813 984 772T1156 645T1227 408Q1227 279 1164 183T971 33T643 -20Q268 -20 68 221L258 410Q310 354 362 314T486 249T651 223Q791 223 865 266T940 391Q940 452 900 490T801 548T635 593Q597 601 578 606Q438 640 341 684T180 812T117 1030Q117 1159 185 1249T376 1384T657 1430ZM542 1835H772L1022 1559V1530H862L659 1681H655L444 1530H284V1559Z" horiz-adv-x="1290" unicode="Ŝ"/>
			<glyph d="M512 1102Q640 1102 745 1063T926 946L782 780Q667 893 514 893Q348 893 348 797Q348 760 369 738T426 705T527 678L578 666Q698 636 775 601T903 498T954 315Q954 212 901 136T748 20T508 -20Q368 -20 258 17T49 135L176 328Q266 259 343 224T508 190Q597 190 646 212T696 293Q696 335 670 360T603 398T489 429L436 442Q327 470 254 504T136 604T90 774Q90 876 139 949T283 1062T512 1102ZM399 1530H628L878 1210V1184H719L516 1374H512L301 1184H141V1210Z" horiz-adv-x="1018" unicode="ŝ"/>
			<glyph d="M657 1430Q823 1430 950 1381T1178 1233L1006 1047Q930 1118 843 1157T647 1196Q517 1196 460 1155T403 1049Q403 990 437 955T528 901T691 857L713 852Q882 813 984 772T1156 645T1227 408Q1227 231 1111 119T758 -15L731 -82Q823 -86 869 -127T916 -236Q916 -322 844 -374T613 -426Q568 -426 512 -420V-301Q545 -307 596 -307Q733 -307 733 -240Q733 -204 704 -187T611 -170Q578 -170 559 -172L614 -20Q259 -10 68 221L258 410Q310 354 362 314T486 249T651 223Q791 223 865 266T940 391Q940 452 900 490T801 548T635 593Q597 601 578 606Q438 640 341 684T180 812T117 1030Q117 1159 185 1249T376 1384T657 1430Z" horiz-adv-x="1290" unicode="Ş"/>
			<glyph d="M512 1102Q640 1102 745 1063T926 946L782 780Q667 893 514 893Q348 893 348 797Q348 760 369 738T426 705T527 678L578 666Q698 636 775 601T903 498T954 315Q954 175 858 87T587 -16L561 -82Q653 -86 699 -127T746 -236Q746 -322 674 -374T443 -426Q397 -426 342 -420V-301Q375 -307 426 -307Q563 -307 563 -240Q563 -204 534 -187T441 -170Q408 -170 389 -172L444 -18Q328 -11 232 26T49 135L176 328Q266 259 343 224T508 190Q597 190 646 212T696 293Q696 335 670 360T603 398T489 429L436 442Q327 470 254 504T136 604T90 774Q90 876 139 949T283 1062T512 1102Z" horiz-adv-x="1018" unicode="ş"/>
			<glyph d="M657 1430Q823 1430 950 1381T1178 1233L1006 1047Q930 1118 843 1157T647 1196Q517 1196 460 1155T403 1049Q403 990 437 955T528 901T691 857L713 852Q882 813 984 772T1156 645T1227 408Q1227 279 1164 183T971 33T643 -20Q268 -20 68 221L258 410Q310 354 362 314T486 249T651 223Q791 223 865 266T940 391Q940 452 900 490T801 548T635 593Q597 601 578 606Q438 640 341 684T180 812T117 1030Q117 1159 185 1249T376 1384T657 1430ZM284 1835H444L655 1683H659L862 1835H1022V1806L772 1530H542L284 1806Z" horiz-adv-x="1290" unicode="Š"/>
			<glyph d="M512 1102Q640 1102 745 1063T926 946L782 780Q667 893 514 893Q348 893 348 797Q348 760 369 738T426 705T527 678L578 666Q698 636 775 601T903 498T954 315Q954 212 901 136T748 20T508 -20Q368 -20 258 17T49 135L176 328Q266 259 343 224T508 190Q597 190 646 212T696 293Q696 335 670 360T603 398T489 429L436 442Q327 470 254 504T136 604T90 774Q90 876 139 949T283 1062T512 1102ZM141 1530H301L512 1335H516L719 1530H878V1499L628 1184H399L141 1499Z" horiz-adv-x="1018" unicode="š"/>
			<glyph d="M23 1409H1188V1161H752V0H692L659 -82Q751 -86 797 -127T844 -236Q844 -322 772 -374T541 -426Q495 -426 440 -420V-301Q473 -307 524 -307Q662 -307 662 -240Q662 -204 633 -187T539 -170Q506 -170 487 -172L549 0H457V1161H23Z" horiz-adv-x="1210" unicode="Ţ"/>
			<glyph d="M440 1346V1081H655V872H440V350Q440 280 465 247T545 215Q589 215 647 227L668 14Q575 -13 482 -17L456 -82Q548 -86 594 -127T641 -236Q641 -322 569 -374T338 -426Q292 -426 237 -420V-301Q270 -307 321 -307Q458 -307 458 -240Q458 -204 429 -187T336 -170Q303 -170 284 -172L344 -7Q255 16 208 86T162 274V872H25V1081H176L190 1325Z" horiz-adv-x="692" unicode="ţ"/>
			<glyph d="M23 1409H1188V1161H752V0H457V1161H23ZM237 1835H397L608 1683H612L815 1835H975V1806L725 1530H495L237 1806Z" horiz-adv-x="1210" unicode="Ť"/>
			<glyph d="M440 1346V1081H655V872H440V350Q440 280 465 247T545 215Q589 215 647 227L668 14Q553 -18 440 -18Q305 -18 233 55T162 274V872H25V1081H176L190 1325ZM755 1489Q815 1489 849 1452T884 1350Q884 1274 848 1211T753 1088L675 1153Q703 1190 719 1218T741 1278Q695 1285 668 1313T641 1383Q641 1429 673 1459T755 1489Z" horiz-adv-x="823" unicode="ť"/>
			<glyph d="M23 1409H1188V1161H752V815H977V606H752V0H457V606H231V815H457V1161H23Z" horiz-adv-x="1210" unicode="Ŧ"/>
			<glyph d="M440 1346V1081H655V872H440V680H625V489H440V350Q440 280 465 247T545 215Q589 215 647 227L668 14Q553 -18 440 -18Q305 -18 233 55T162 274V489H35V680H162V872H25V1081H176L190 1325Z" horiz-adv-x="692" unicode="ŧ"/>
			<glyph d="M123 1409H418V551Q418 389 500 310T731 231Q882 231 970 314T1059 561V1409H1354V543Q1354 355 1274 229T1053 41T723 -20Q542 -20 407 38T198 218T123 528ZM573 1823Q618 1823 662 1804T768 1751Q816 1724 844 1712T895 1700Q941 1700 962 1730T993 1823H1128Q1124 1745 1107 1682T1043 1575T905 1530Q863 1530 821 1547T714 1600Q668 1626 637 1639T583 1653Q535 1653 515 1623T485 1530H348Q353 1609 370 1671T435 1778T573 1823Z" horiz-adv-x="1479" unicode="Ũ"/>
			<glyph d="M127 1081H408V475Q408 354 449 287T590 221Q657 221 711 256T796 356T827 502V1081H1108V242Q1108 174 1110 100T1116 0H848Q845 24 840 90T836 195H831Q776 84 689 32T483 -20Q298 -20 212 92T127 395ZM461 1477Q505 1477 549 1458T657 1405Q703 1379 731 1366T782 1354Q828 1354 849 1384T881 1477H1016Q1012 1399 995 1336T931 1229T793 1184Q751 1184 709 1201T602 1254Q556 1280 525 1293T471 1307Q423 1307 403 1277T373 1184H236Q241 1264 258 1325T323 1432T461 1477Z" horiz-adv-x="1251" unicode="ũ"/>
			<glyph d="M123 1409H418V551Q418 389 500 310T731 231Q882 231 970 314T1059 561V1409H1354V543Q1354 355 1274 229T1053 41T723 -20Q542 -20 407 38T198 218T123 528ZM434 1708H1044V1540H434Z" horiz-adv-x="1479" unicode="Ū"/>
			<glyph d="M127 1081H408V475Q408 354 449 287T590 221Q657 221 711 256T796 356T827 502V1081H1108V242Q1108 174 1110 100T1116 0H848Q845 24 840 90T836 195H831Q776 84 689 32T483 -20Q298 -20 212 92T127 395ZM322 1382H932V1214H322Z" horiz-adv-x="1251" unicode="ū"/>
			<glyph d="M123 1409H418V551Q418 389 500 310T731 231Q882 231 970 314T1059 561V1409H1354V543Q1354 355 1274 229T1053 41T723 -20Q542 -20 407 38T198 218T123 528ZM385 1808H547Q562 1745 614 1708T737 1671Q810 1671 862 1707T928 1808H1091Q1081 1729 1038 1664T918 1559T735 1520Q632 1520 555 1559T434 1665T385 1808Z" horiz-adv-x="1479" unicode="Ŭ"/>
			<glyph d="M127 1081H408V475Q408 354 449 287T590 221Q657 221 711 256T796 356T827 502V1081H1108V242Q1108 174 1110 100T1116 0H848Q845 24 840 90T836 195H831Q776 84 689 32T483 -20Q298 -20 212 92T127 395ZM273 1505H437Q452 1429 504 1384T627 1339Q699 1339 751 1384T817 1505H981Q970 1413 927 1341T808 1226T625 1184Q522 1184 445 1226T324 1342T273 1505Z" horiz-adv-x="1251" unicode="ŭ"/>
			<glyph d="M746 1850Q808 1850 860 1819T944 1735T975 1621Q975 1558 944 1505T860 1423T746 1393Q684 1393 631 1423T548 1505T517 1621Q517 1683 548 1735T631 1819T746 1850ZM746 1734Q699 1734 666 1700T633 1621Q633 1573 666 1539T746 1505Q793 1505 826 1539T860 1621Q860 1667 826 1700T746 1734ZM123 1409H418V551Q418 389 500 310T731 231Q882 231 970 314T1059 561V1409H1354V543Q1354 355 1274 229T1053 41T723 -20Q542 -20 407 38T198 218T123 528Z" horiz-adv-x="1479" unicode="Ů"/>
			<glyph d="M127 1081H408V475Q408 354 449 287T590 221Q657 221 711 256T796 356T827 502V1081H1108V242Q1108 174 1110 100T1116 0H848Q845 24 840 90T836 195H831Q776 84 689 32T483 -20Q298 -20 212 92T127 395ZM627 1686Q695 1686 753 1651T846 1558T881 1432Q881 1361 846 1303T754 1211T627 1178Q558 1178 500 1211T407 1303T373 1432Q373 1500 407 1558T500 1651T627 1686ZM627 1557Q593 1557 564 1540T518 1494T502 1432Q502 1378 538 1340T627 1303Q661 1303 690 1320T737 1367T754 1432Q754 1465 737 1494T690 1540T627 1557Z" horiz-adv-x="1251" unicode="ů"/>
			<glyph d="M123 1409H418V551Q418 389 500 310T731 231Q882 231 970 314T1059 561V1409H1354V543Q1354 355 1274 229T1053 41T723 -20Q542 -20 407 38T198 218T123 528ZM596 1817H832V1774L512 1530H381V1565ZM1002 1817H1237V1774L920 1530H787V1565Z" horiz-adv-x="1479" unicode="Ű"/>
			<glyph d="M127 1081H408V475Q408 354 449 287T590 221Q657 221 711 256T796 356T827 502V1081H1108V242Q1108 174 1110 100T1116 0H848Q845 24 840 90T836 195H831Q776 84 689 32T483 -20Q298 -20 212 92T127 395ZM500 1485H736V1442L416 1184H275V1219ZM906 1485H1141V1442L824 1184H680V1219Z" horiz-adv-x="1251" unicode="ű"/>
			<glyph d="M123 1409H418V551Q418 389 500 310T731 231Q882 231 970 314T1059 561V1409H1354V543Q1354 309 1232 171T899 -5Q853 -44 828 -93T803 -188Q803 -231 828 -257T897 -283Q925 -283 951 -276T1010 -256V-391Q945 -426 858 -426Q752 -426 686 -373T621 -225Q621 -161 648 -109T719 -20Q539 -19 405 39T197 219T123 528Z" horiz-adv-x="1479" unicode="Ų"/>
			<glyph d="M127 1081H408V475Q408 354 449 287T590 221Q657 221 711 256T796 356T827 502V1081H1108V242Q1108 174 1110 100T1116 0H1044Q997 -39 970 -90T944 -188Q944 -231 969 -257T1038 -283Q1066 -283 1092 -276T1151 -256V-391Q1086 -426 999 -426Q893 -426 827 -373T762 -225Q762 -152 798 -94T885 0H848Q845 24 840 90T836 195H831Q776 84 689 32T483 -20Q298 -20 212 92T127 395Z" horiz-adv-x="1251" unicode="ų"/>
			<glyph d="M2 1409H301L477 625Q528 398 551 279L564 344Q576 398 597 500T631 659L799 1409H1141L1313 659Q1337 548 1372 345L1384 279L1390 308Q1433 511 1462 625L1632 1409H1931L1573 0H1210L1026 815Q1012 877 996 956T976 1064L967 1114L954 1047Q917 868 905 815L721 0H358ZM858 1835H1088L1338 1559V1530H1178L975 1681H971L760 1530H600V1559Z" horiz-adv-x="1933" unicode="Ŵ"/>
			<glyph d="M-6 1081H262L399 446Q411 386 421 330T436 256Q439 277 451 343T473 446L643 1081H948L1114 446Q1128 391 1140 325T1153 256Q1156 279 1167 334T1190 446L1333 1081H1597L1319 0H1010L844 659Q831 709 816 780T797 881Q791 852 775 781T745 657L578 0H268ZM686 1530H915L1165 1210V1184H1006L803 1374H799L588 1184H428V1210Z" horiz-adv-x="1593" unicode="ŵ"/>
			<glyph d="M35 1409H344L682 813L1024 1409H1333L831 578V0H537V578ZM573 1835H803L1053 1559V1530H893L690 1681H686L475 1530H315V1559Z" horiz-adv-x="1366" unicode="Ŷ"/>
			<glyph d="M16 1081H315L485 580Q505 517 541 404T584 262Q592 298 626 419T672 575L831 1081H1128L700 -57Q646 -189 591 -268T462 -387T283 -426Q178 -426 106 -410L127 -190Q176 -199 203 -199Q258 -199 297 -184T366 -134T426 -37L444 10ZM458 1530H687L937 1210V1184H778L575 1374H571L360 1184H200V1210Z" unicode="ŷ"/>
			<glyph d="M35 1409H344L682 813L1024 1409H1333L831 578V0H537V578ZM481 1776Q537 1776 573 1740T610 1649Q610 1592 573 1556T481 1520Q423 1520 387 1555T352 1649Q352 1706 387 1741T481 1776ZM891 1776Q947 1776 982 1740T1018 1649Q1018 1592 982 1556T891 1520Q831 1520 795 1555T760 1649Q760 1706 795 1741T891 1776Z" horiz-adv-x="1366" unicode="Ÿ"/>
			<glyph d="M137 1409H1151V1194L396 242H1192V0H61V219L818 1167H137ZM709 1815H967V1772L625 1530H455V1561Z" horiz-adv-x="1251" unicode="Ź"/>
			<glyph d="M123 1081H901V881L410 225H950V0H82V199L576 858H123ZM592 1501H850V1458L508 1184H338V1214Z" horiz-adv-x="1024" unicode="ź"/>
			<glyph d="M137 1409H1151V1194L396 242H1192V0H61V219L818 1167H137ZM635 1784Q693 1784 728 1748T764 1653Q764 1596 728 1560T635 1524Q575 1524 540 1559T506 1653Q506 1712 541 1748T635 1784Z" horiz-adv-x="1251" unicode="Ż"/>
			<glyph d="M123 1081H901V881L410 225H950V0H82V199L576 858H123ZM514 1477Q575 1477 613 1438T651 1337Q651 1277 613 1238T514 1200Q451 1200 414 1237T377 1337Q377 1399 414 1438T514 1477Z" horiz-adv-x="1024" unicode="ż"/>
			<glyph d="M137 1409H1151V1194L396 242H1192V0H61V219L818 1167H137ZM268 1835H428L639 1683H643L846 1835H1006V1806L756 1530H526L268 1806Z" horiz-adv-x="1251" unicode="Ž"/>
			<glyph d="M123 1081H901V881L410 225H950V0H82V199L576 858H123ZM145 1530H305L516 1335H520L723 1530H882V1499L632 1184H403L145 1499Z" horiz-adv-x="1024" unicode="ž"/>
			<glyph d="M528 1485Q607 1485 696 1468L676 1266Q634 1276 580 1276Q521 1276 497 1245T473 1147V0H193V1174Q193 1320 269 1402T528 1485Z" horiz-adv-x="655" unicode="ſ"/>
			<glyph d="M852 1454Q897 1454 949 1445T1032 1423L989 1227Q971 1233 939 1238T887 1243Q825 1243 797 1217T758 1137L737 1030H948L909 819H696L449 -426H168L416 819H256L299 1030H457L483 1165Q507 1301 592 1377T852 1454Z" unicode="ƒ"/>
			<glyph d="M698 1853H956V1810L824 1732Q893 1705 935 1647T977 1518Q977 1472 959 1431T911 1360L1405 0H1110L997 340H439L326 0H31L529 1366Q501 1397 485 1436T469 1518Q469 1565 489 1607T544 1683ZM723 1630Q670 1630 634 1599T598 1518Q598 1469 633 1439T723 1409Q777 1409 813 1439T850 1518Q850 1567 813 1598T723 1630ZM719 1192Q713 1170 694 1108T655 987L513 561H924L782 987Q779 997 726 1170Z" horiz-adv-x="1436" unicode="Ǻ"/>
			<glyph d="M623 1843H881V1804L681 1660Q745 1628 784 1566T823 1432Q823 1361 788 1303T696 1211T569 1178Q500 1178 442 1211T349 1303T315 1432Q315 1494 343 1548T421 1637ZM569 1557Q535 1557 506 1540T460 1494T444 1432Q444 1378 480 1340T569 1303Q603 1303 632 1320T679 1367T696 1432Q696 1465 679 1494T632 1540T569 1557ZM565 1102Q776 1102 892 1002T1008 715V319Q1008 141 1016 0H750Q743 71 743 152H737Q684 69 599 24T401 -20Q301 -20 225 18T108 129T66 305Q66 485 182 566T494 651L727 655V707Q727 806 679 845T549 885Q406 885 258 754L125 930Q319 1102 565 1102ZM727 481L582 479Q508 475 462 464T387 422T358 328Q358 262 393 227T489 193Q558 193 612 226T697 312T727 426Z" unicode="ǻ"/>
			<glyph d="M711 1409H1927V1161H1227V834H1866V584H1227V248H1968V0H932V360H482L309 0H4ZM868 1171Q788 995 772 963L589 582H932V1171ZM1290 1815H1548V1772L1206 1530H1036V1561Z" horiz-adv-x="2048" unicode="Ǽ"/>
			<glyph d="M565 1102Q672 1102 753 1067T889 963Q955 1032 1044 1067T1235 1102Q1400 1102 1507 1031T1664 842T1714 580Q1714 523 1708 467H1014Q1014 342 1075 267T1266 193Q1323 193 1369 205T1459 242T1567 311L1681 129Q1586 57 1489 18T1251 -20Q1122 -20 1021 25T854 160Q761 63 662 21T436 -20Q329 -20 245 18T114 129T66 305Q66 485 182 566T494 651L733 655V707Q733 806 684 845T549 885Q406 885 258 754L125 930Q319 1102 565 1102ZM1233 897Q1136 897 1078 838T1016 659H1442Q1438 781 1385 839T1233 897ZM733 481L582 479Q508 475 462 464T387 422T358 328Q358 262 393 227T489 193Q560 193 616 226T702 312T733 426ZM971 1501H1229V1458L887 1184H717V1214Z" horiz-adv-x="1784" unicode="ǽ"/>
			<glyph d="M1231 1473H1423L1279 1268Q1389 1173 1448 1030T1507 711Q1507 493 1417 327T1166 71T793 -20Q591 -20 435 61L342 -72L147 -74L305 151Q197 249 140 393T84 711Q84 930 170 1092T417 1342T795 1430Q996 1430 1148 1354ZM795 1178Q669 1178 575 1120T431 956T381 711Q381 617 405 536T474 392L991 1131Q906 1178 795 1178ZM1111 1028L592 285Q679 233 793 233Q924 233 1017 294T1158 463T1206 711Q1206 807 1181 887T1111 1028ZM869 1815H1127V1772L785 1530H615V1561Z" horiz-adv-x="1593" unicode="Ǿ"/>
			<glyph d="M1063 1133H1245L1057 922Q1115 848 1143 751T1171 543Q1171 384 1108 256T922 54T621 -20Q434 -20 301 72L188 -55H4L200 165Q141 240 110 336T80 543Q80 698 141 825T326 1027T627 1102Q827 1102 957 1014ZM631 879Q507 879 441 791T375 543Q375 453 396 385L787 823Q726 879 631 879ZM858 698L469 261Q530 203 618 203Q743 203 810 291T877 543Q877 634 858 698ZM705 1501H963V1458L621 1184H451V1214Z" horiz-adv-x="1251" unicode="ǿ"/>
			<glyph d="M657 1430Q823 1430 950 1381T1178 1233L1006 1047Q930 1118 843 1157T647 1196Q517 1196 460 1155T403 1049Q403 990 437 955T528 901T691 857L713 852Q882 813 984 772T1156 645T1227 408Q1227 279 1164 183T971 33T643 -20Q268 -20 68 221L258 410Q310 354 362 314T486 249T651 223Q791 223 865 266T940 391Q940 452 900 490T801 548T635 593Q597 601 578 606Q438 640 341 684T180 812T117 1030Q117 1159 185 1249T376 1384T657 1430ZM643 -61Q702 -61 737 -97T772 -201Q772 -266 739 -321T653 -432L571 -371Q598 -336 612 -313T631 -264Q583 -258 554 -230T526 -162Q526 -119 559 -90T643 -61Z" horiz-adv-x="1290" unicode="Ș"/>
			<glyph d="M512 1102Q640 1102 745 1063T926 946L782 780Q667 893 514 893Q348 893 348 797Q348 760 369 738T426 705T527 678L578 666Q698 636 775 601T903 498T954 315Q954 212 901 136T748 20T508 -20Q368 -20 258 17T49 135L176 328Q266 259 343 224T508 190Q597 190 646 212T696 293Q696 335 670 360T603 398T489 429L436 442Q327 470 254 504T136 604T90 774Q90 876 139 949T283 1062T512 1102ZM500 -61Q559 -61 594 -97T629 -201Q629 -266 596 -321T510 -432L428 -371Q455 -336 469 -313T488 -264Q440 -258 411 -230T383 -162Q383 -119 416 -90T500 -61Z" horiz-adv-x="1018" unicode="ș"/>
			<glyph d="M23 1409H1188V1161H752V0H457V1161H23ZM600 -61Q659 -61 694 -97T729 -201Q729 -266 696 -321T610 -432L528 -371Q555 -336 569 -313T588 -264Q540 -258 511 -230T483 -162Q483 -119 516 -90T600 -61Z" horiz-adv-x="1210" unicode="Ț"/>
			<glyph d="M440 1346V1081H655V872H440V350Q440 280 465 247T545 215Q589 215 647 227L668 14Q553 -18 440 -18Q305 -18 233 55T162 274V872H25V1081H176L190 1325ZM371 -61Q430 -61 465 -97T500 -201Q500 -266 467 -321T381 -432L299 -371Q326 -336 340 -313T359 -264Q311 -258 282 -230T254 -162Q254 -119 287 -90T371 -61Z" horiz-adv-x="692" unicode="ț"/>
			<glyph d="M143 1081H426V-129Q426 -264 355 -345T137 -426Q31 -426 -33 -414L-12 -193Q24 -197 39 -197Q83 -197 105 -182T135 -135T143 -39Z" horiz-adv-x="569" unicode="ȷ"/>
			<glyph d="M150 1409H455L297 891H86Z" horiz-adv-x="492" unicode="ʼ"/>
			<glyph d="M258 1530H487L737 1210V1184H578L375 1374H371L160 1184H0V1210Z" horiz-adv-x="682" unicode="ˆ"/>
			<glyph d="M0 1530H160L371 1335H375L578 1530H737V1499L487 1184H258L0 1499Z" horiz-adv-x="682" unicode="ˇ"/>
			<glyph d="M37 1382H647V1214H37Z" horiz-adv-x="684" unicode="ˉ"/>
			<glyph d="M-14 1505H150Q165 1429 217 1384T340 1339Q412 1339 464 1384T530 1505H694Q683 1413 640 1341T521 1226T338 1184Q235 1184 158 1226T37 1342T-14 1505Z" horiz-adv-x="682" unicode="˘"/>
			<glyph d="M344 1477Q405 1477 443 1438T481 1337Q481 1277 443 1238T344 1200Q281 1200 244 1237T207 1337Q207 1399 244 1438T344 1477Z" horiz-adv-x="682" unicode="˙"/>
			<glyph d="M340 1645Q408 1645 466 1610T559 1517T594 1391Q594 1320 559 1262T467 1170T340 1137Q271 1137 213 1170T120 1262T86 1391Q86 1459 120 1517T213 1610T340 1645ZM340 1516Q306 1516 277 1499T231 1453T215 1391Q215 1337 251 1299T340 1262Q374 1262 403 1279T450 1326T467 1391Q467 1424 450 1453T403 1499T340 1516Z" horiz-adv-x="682" unicode="˚"/>
			<glyph d="M233 20H387Q326 -20 292 -77T258 -188Q258 -231 283 -257T352 -283Q380 -283 406 -276T465 -256V-391Q400 -426 313 -426Q207 -426 141 -373T76 -225Q76 -165 101 -115T162 -31T233 20Z" horiz-adv-x="682" unicode="˛"/>
			<glyph d="M211 1477Q255 1477 299 1458T407 1405Q453 1379 481 1366T532 1354Q578 1354 599 1384T631 1477H766Q762 1399 745 1336T681 1229T543 1184Q501 1184 459 1201T352 1254Q306 1280 275 1293T221 1307Q173 1307 153 1277T123 1184H-14Q-9 1264 8 1325T73 1432T211 1477Z" horiz-adv-x="682" unicode="˜"/>
			<glyph d="M133 1485H369V1442L49 1184H-92V1219ZM539 1485H774V1442L457 1184H313V1219Z" horiz-adv-x="682" unicode="˝"/>
			<glyph d="M-616 1501H-358L-107 1214V1184H-276L-616 1458Z" horiz-adv-x="0" unicode="̀"/>
			<glyph d="M-342 1501H-84V1458L-426 1184H-596V1214Z" horiz-adv-x="0" unicode="́"/>
			<glyph d="M-424 1530H-195L55 1210V1184H-104L-307 1374H-311L-522 1184H-682V1210Z" horiz-adv-x="0" unicode="̂"/>
			<glyph d="M-471 1477Q-427 1477 -382 1458T-275 1405Q-229 1379 -201 1366T-150 1354Q-104 1354 -83 1384T-51 1477H84Q80 1399 63 1336T-1 1229T-139 1184Q-181 1184 -223 1201T-330 1254Q-376 1280 -406 1293T-461 1307Q-509 1307 -529 1277T-559 1184H-696Q-691 1264 -674 1325T-609 1432T-471 1477Z" horiz-adv-x="0" unicode="̃"/>
			<glyph d="M-647 1382H-37V1214H-647Z" horiz-adv-x="0" unicode="̄"/>
			<glyph d="M-696 1505H-532Q-517 1429 -464 1384T-342 1339Q-270 1339 -217 1384T-152 1505H12Q1 1413 -42 1341T-161 1226T-344 1184Q-447 1184 -524 1226T-645 1342T-696 1505Z" horiz-adv-x="0" unicode="̆"/>
			<glyph d="M-338 1477Q-277 1477 -239 1438T-201 1337Q-201 1277 -239 1238T-338 1200Q-401 1200 -438 1237T-475 1337Q-475 1399 -437 1438T-338 1477Z" horiz-adv-x="0" unicode="̇"/>
			<glyph d="M-545 1454Q-489 1454 -453 1419T-418 1327Q-418 1269 -453 1233T-545 1198Q-605 1198 -640 1232T-676 1327Q-676 1384 -640 1419T-545 1454ZM-135 1454Q-79 1454 -42 1418T-6 1327Q-6 1269 -42 1233T-135 1198Q-194 1198 -229 1232T-264 1327Q-264 1384 -228 1419T-135 1454Z" horiz-adv-x="0" unicode="̈"/>
			<glyph d="M-342 1686Q-274 1686 -215 1651T-122 1558T-88 1432Q-88 1361 -122 1303T-215 1211T-342 1178Q-411 1178 -469 1211T-561 1303T-596 1432Q-596 1500 -561 1558T-468 1651T-342 1686ZM-342 1557Q-376 1557 -405 1540T-450 1494T-467 1432Q-467 1378 -430 1340T-342 1303Q-308 1303 -278 1320T-232 1367T-215 1432Q-215 1465 -232 1494T-278 1540T-342 1557Z" horiz-adv-x="0" unicode="̊"/>
			<glyph d="M-549 1485H-313V1442L-633 1184H-774V1219ZM-143 1485H92V1442L-225 1184H-369V1219Z" horiz-adv-x="0" unicode="̋"/>
			<glyph d="M-682 1530H-522L-311 1335H-307L-104 1530H55V1499L-195 1184H-424L-682 1499Z" horiz-adv-x="0" unicode="̌"/>
			<glyph d="M-224 1581L-146 1516Q-151 1510 -167 1490T-195 1450T-211 1411Q-165 1403 -138 1376T-111 1309Q-111 1266 -143 1238T-226 1210Q-285 1210 -320 1245T-355 1346Q-355 1413 -319 1469T-224 1581Z" horiz-adv-x="0" unicode="̒"/>
			<glyph d="M-338 -98Q-277 -98 -239 -137T-201 -238Q-201 -298 -239 -336T-338 -375Q-401 -375 -438 -337T-475 -238Q-475 -176 -437 -137T-338 -98Z" horiz-adv-x="0" unicode="̣"/>
			<glyph d="M-234 -61Q-175 -61 -140 -97T-105 -201Q-105 -266 -137 -321T-224 -432L-306 -371Q-279 -336 -264 -313T-246 -264Q-294 -258 -322 -230T-351 -162Q-351 -119 -317 -90T-234 -61Z" horiz-adv-x="0" unicode="̦"/>
			<glyph d="M-477 0H-334L-367 -82Q-275 -86 -228 -127T-182 -236Q-182 -322 -253 -374T-485 -426Q-531 -426 -586 -420V-301Q-553 -307 -502 -307Q-365 -307 -365 -240Q-365 -204 -393 -187T-487 -170Q-520 -170 -539 -172Z" horiz-adv-x="0" unicode="̧"/>
			<glyph d="M-449 20H-295Q-356 -20 -390 -77T-424 -188Q-424 -231 -399 -257T-330 -283Q-302 -283 -276 -276T-217 -256V-391Q-282 -426 -369 -426Q-475 -426 -540 -373T-606 -225Q-606 -165 -581 -115T-520 -31T-449 20Z" horiz-adv-x="0" unicode="̨"/>
			<glyph d="M150 1409H455L297 891H86Z" horiz-adv-x="492" unicode="ʹ"/>
			<glyph d="M150 274H455L297 -244H86Z" horiz-adv-x="492" unicode="͵"/>
			<glyph d="M342 1085Q416 1085 461 1040T506 920Q506 846 460 800T342 754Q266 754 221 799T176 920Q176 995 221 1040T342 1085ZM342 319Q421 319 465 269T510 127Q510 36 482 -46T415 -194T315 -344L200 -264Q245 -198 278 -136T323 -10Q257 0 218 44T180 152Q180 226 225 272T342 319Z" horiz-adv-x="682" unicode=";"/>
			<glyph d="M254 1507H512V1470L291 1184H184V1217Z" horiz-adv-x="682" unicode="΄"/>
			<glyph d="M428 1622H666V1583L483 1190H369V1223ZM207 1452Q256 1452 287 1421T319 1341Q319 1294 287 1262T207 1231Q156 1231 125 1261T94 1341Q94 1391 125 1421T207 1452ZM745 1452Q793 1452 824 1421T856 1341Q856 1294 824 1262T745 1231Q694 1231 662 1261T631 1341Q631 1391 662 1421T745 1452Z" horiz-adv-x="952" unicode="΅"/>
			<glyph d="M545 1409H893L1405 0H1110L997 340H439L326 0H31ZM719 1192Q713 1170 694 1108T655 987L513 561H924L782 987Q779 997 726 1170ZM84 1409H342V1372L121 1086H14V1119Z" horiz-adv-x="1436" unicode="Ά"/>
			<glyph d="M342 846Q416 846 461 800T506 680Q506 606 460 560T342 514Q266 514 221 559T176 680Q176 755 221 800T342 846Z" horiz-adv-x="682" unicode="·"/>
			<glyph d="M137 1409H1151V1161H432V834H1090V584H432V248H1192V0H137ZM-182 1409H76V1372L-145 1086H-252V1119Z" horiz-adv-x="1272" unicode="Έ"/>
			<glyph d="M137 1409H432V860H1047V1409H1341V0H1047V596H432V0H137ZM-182 1409H76V1372L-145 1086H-252V1119Z" horiz-adv-x="1479" unicode="Ή"/>
			<glyph d="M137 1409H432V0H137ZM-182 1409H76V1372L-145 1086H-252V1119Z" horiz-adv-x="569" unicode="Ί"/>
			<glyph d="M795 1430Q1012 1430 1173 1341T1420 1090T1507 711Q1507 493 1417 327T1166 71T793 -20Q572 -20 412 73T168 332T84 711Q84 930 170 1092T417 1342T795 1430ZM795 1178Q669 1178 575 1120T431 956T381 711Q381 572 432 463T577 293T793 233Q924 233 1017 294T1158 463T1206 711Q1206 851 1155 956T1010 1120T795 1178ZM-57 1409H201V1372L-20 1086H-127V1119Z" horiz-adv-x="1593" unicode="Ό"/>
			<glyph d="M35 1409H344L682 813L1024 1409H1333L831 578V0H537V578ZM-278 1409H-20V1372L-241 1086H-348V1119Z" horiz-adv-x="1366" unicode="Ύ"/>
			<glyph d="M821 1430Q1028 1430 1179 1358T1412 1150T1493 827Q1493 627 1399 481T1104 238L1140 241Q1224 248 1274 248H1522V0H893V330Q1060 410 1131 517T1202 774Q1202 968 1103 1073T821 1178Q640 1178 541 1072T442 774Q442 625 514 517T756 330V0H119V248H369Q407 248 457 244T522 240L543 238Q332 335 239 479T147 829Q147 1015 228 1150T461 1358T821 1430ZM-28 1409H230V1372L9 1086H-98V1119Z" horiz-adv-x="1642" unicode="Ώ"/>
			<glyph d="M137 1081H416V311Q416 265 424 241T453 207T510 197Q522 197 540 199T569 205L594 6Q562 -4 507 -12T416 -20Q274 -20 205 49T137 252ZM240 1622H478V1583L295 1190H181V1223ZM19 1452Q68 1452 99 1421T131 1341Q131 1294 99 1262T19 1231Q-32 1231 -63 1261T-94 1341Q-94 1391 -63 1421T19 1452ZM557 1452Q605 1452 636 1421T668 1341Q668 1294 636 1262T557 1231Q506 1231 474 1261T443 1341Q443 1391 474 1421T557 1452Z" horiz-adv-x="594" unicode="ΐ"/>
			<glyph d="M545 1409H893L1405 0H1110L997 340H439L326 0H31ZM719 1192Q713 1170 694 1108T655 987L513 561H924L782 987Q779 997 726 1170Z" horiz-adv-x="1436" unicode="Α"/>
			<glyph d="M137 1409H731Q985 1409 1119 1320T1253 1055Q1253 933 1185 851T985 741Q1134 721 1214 633T1294 401Q1294 264 1222 174T1027 42T750 0H137ZM432 1178V850H698Q832 850 894 891T956 1016Q956 1103 897 1140T717 1178ZM432 614V233H725Q853 233 925 276T997 426Q997 527 926 570T735 614Z" horiz-adv-x="1386" unicode="Β"/>
			<glyph d="M137 1409H1055V1161H432V0H137Z" horiz-adv-x="1087" unicode="Γ"/>
			<glyph d="M530 1409H897L1337 215V0H92V215ZM712 1210Q660 1050 633 971L385 231H1044L799 971Z" horiz-adv-x="1430" unicode="Δ"/>
			<glyph d="M137 1409H1151V1161H432V834H1090V584H432V248H1192V0H137Z" horiz-adv-x="1272" unicode="Ε"/>
			<glyph d="M137 1409H1151V1194L396 242H1192V0H61V219L818 1167H137Z" horiz-adv-x="1251" unicode="Ζ"/>
			<glyph d="M137 1409H432V860H1047V1409H1341V0H1047V596H432V0H137Z" horiz-adv-x="1479" unicode="Η"/>
			<glyph d="M795 1430Q1016 1430 1176 1341T1422 1091T1507 711Q1507 492 1419 326T1170 70T793 -20Q568 -20 408 73T166 331T84 711Q84 930 168 1092T413 1342T795 1430ZM795 1178Q665 1178 572 1120T430 957T381 711Q381 570 430 462T573 293T793 233Q928 233 1021 293T1160 462T1206 711Q1206 852 1157 957T1015 1120T795 1178ZM502 827H1090V598H502Z" horiz-adv-x="1593" unicode="Θ"/>
			<glyph d="M137 1409H432V0H137Z" horiz-adv-x="569" unicode="Ι"/>
			<glyph d="M137 1409H432V770L981 1409H1329L794 806L1378 0H1042L600 618L432 459V0H137Z" horiz-adv-x="1397" unicode="Κ"/>
			<glyph d="M514 1409H813L1311 0H1006L737 860Q713 937 692 1018T666 1128Q659 1098 637 1016T592 860L322 0H14Z" horiz-adv-x="1325" unicode="Λ"/>
			<glyph d="M137 1409H565L825 621Q842 570 865 478T895 356Q903 386 927 476T969 616L1225 1409H1651V0H1378V854Q1378 962 1383 1058T1389 1159Q1388 1158 1369 1089Q1359 1056 1327 947T1278 786L1014 0H774L510 786Q489 847 450 977T397 1159L399 1130Q400 1114 405 1017T410 854V0H137Z" horiz-adv-x="1788" unicode="Μ"/>
			<glyph d="M137 1409H494L1077 332Q1076 354 1072 430T1069 590V1409H1341V0H975L403 1065Q404 1043 407 970T410 831V0H137Z" horiz-adv-x="1479" unicode="Ν"/>
			<glyph d="M119 1409H1118V1161H119ZM240 838H997V588H240ZM84 248H1153V0H84Z" horiz-adv-x="1237" unicode="Ξ"/>
			<glyph d="M795 1430Q1012 1430 1173 1341T1420 1090T1507 711Q1507 493 1417 327T1166 71T793 -20Q572 -20 412 73T168 332T84 711Q84 930 170 1092T417 1342T795 1430ZM795 1178Q669 1178 575 1120T431 956T381 711Q381 572 432 463T577 293T793 233Q924 233 1017 294T1158 463T1206 711Q1206 851 1155 956T1010 1120T795 1178Z" horiz-adv-x="1593" unicode="Ο"/>
			<glyph d="M137 1409H1341V0H1057V1145H430V0H137Z" horiz-adv-x="1479" unicode="Π"/>
			<glyph d="M137 1409H770Q946 1409 1063 1352T1238 1192T1296 950Q1296 821 1239 713T1067 540T782 475H432V0H137ZM432 1159V723H745Q872 723 935 782T999 946Q999 1051 933 1105T737 1159Z" horiz-adv-x="1366" unicode="Ρ"/>
			<glyph d="M106 1409H1106V1161H446L797 809V674L420 248H1167V0H90V233L539 742L106 1176Z" horiz-adv-x="1229" unicode="Σ"/>
			<glyph d="M23 1409H1188V1161H752V0H457V1161H23Z" horiz-adv-x="1210" unicode="Τ"/>
			<glyph d="M35 1409H344L682 813L1024 1409H1333L831 578V0H537V578Z" horiz-adv-x="1366" unicode="Υ"/>
			<glyph d="M702 1419H981V1262H1022Q1218 1262 1352 1197T1553 1013T1620 733Q1620 582 1554 458T1357 261T1034 188H981V-10H702V188H647Q457 188 325 261T128 458T63 733Q63 895 129 1013T329 1197T659 1262H702ZM682 1032Q520 1032 440 954T360 729Q360 587 438 502T676 418H702V1032ZM981 1032V418H1006Q1166 418 1244 503T1323 729Q1323 876 1242 954T999 1032Z" horiz-adv-x="1681" unicode="Φ"/>
			<glyph d="M59 1409H371L684 912L997 1409H1307L878 741L1348 0H1038L684 561L330 0H18L506 742Z" horiz-adv-x="1366" unicode="Χ"/>
			<glyph d="M96 1409H375V942Q375 841 406 781T504 695T680 668H688V1409H969V668H977Q1086 668 1152 695T1250 781T1282 942V1409H1561V946Q1561 688 1426 557T1008 426H969V0H688V426H649Q365 426 230 557T96 946Z" horiz-adv-x="1657" unicode="Ψ"/>
			<glyph d="M821 1430Q1028 1430 1179 1358T1412 1150T1493 827Q1493 627 1399 481T1104 238L1140 241Q1224 248 1274 248H1522V0H893V330Q1060 410 1131 517T1202 774Q1202 968 1103 1073T821 1178Q640 1178 541 1072T442 774Q442 625 514 517T756 330V0H119V248H369Q407 248 457 244T522 240L543 238Q332 335 239 479T147 829Q147 1015 228 1150T461 1358T821 1430Z" horiz-adv-x="1642" unicode="Ω"/>
			<glyph d="M137 1409H432V0H137ZM82 1776Q138 1776 174 1740T211 1649Q211 1592 174 1556T82 1520Q24 1520 -11 1555T-47 1649Q-47 1706 -11 1741T82 1776ZM492 1776Q548 1776 583 1740T619 1649Q619 1592 583 1556T492 1520Q432 1520 396 1555T361 1649Q361 1706 396 1741T492 1776Z" horiz-adv-x="569" unicode="Ϊ"/>
			<glyph d="M35 1409H344L682 813L1024 1409H1333L831 578V0H537V578ZM481 1776Q537 1776 573 1740T610 1649Q610 1592 573 1556T481 1520Q423 1520 387 1555T352 1649Q352 1706 387 1741T481 1776ZM891 1776Q947 1776 982 1740T1018 1649Q1018 1592 982 1556T891 1520Q831 1520 795 1555T760 1649Q760 1706 795 1741T891 1776Z" horiz-adv-x="1366" unicode="Ϋ"/>
			<glyph d="M532 1102Q685 1102 771 1030T907 809L911 797L924 850L937 901Q966 1019 989 1081H1288Q1272 1045 1238 973Q1144 767 1100 659L1049 537L1083 426L1103 366Q1124 301 1137 270T1166 223T1208 207Q1242 207 1270 213L1294 14Q1208 -12 1116 -12Q1049 -12 1007 14T940 88T895 217L885 258L850 193Q792 83 707 31T479 -20Q345 -20 255 51T123 249T80 543Q80 799 189 950T532 1102ZM571 887Q477 887 426 796T375 543Q375 375 418 284T543 193Q624 193 676 258T764 440L786 518L778 588Q751 737 704 812T571 887ZM665 1507H923V1470L702 1184H595V1217Z" horiz-adv-x="1313" unicode="ά"/>
			<glyph d="M528 1102Q666 1102 758 1061T924 930L762 786Q717 844 663 873T539 903Q461 903 419 875T377 795Q377 710 461 680T705 651V475Q594 475 525 466T411 421T367 313Q367 252 408 220T526 188Q597 188 666 225T797 326L938 166Q884 110 830 71T694 6T498 -20Q358 -20 264 20T124 131T78 297Q78 372 111 429T205 518T344 557V559Q234 571 172 639T111 811Q111 896 159 962T302 1065T528 1102ZM489 1507H747V1470L526 1184H419V1217Z" horiz-adv-x="973" unicode="έ"/>
			<glyph d="M772 1102Q956 1102 1040 1003T1124 700V-426H846V608Q846 703 828 760T769 844T659 872Q551 872 488 796T426 582V0H143V770Q143 829 126 851T76 874Q60 874 45 868L25 1067Q112 1092 184 1092Q291 1092 347 1044T414 897H418Q473 999 555 1050T772 1102ZM594 1507H852V1470L631 1184H524V1217Z" horiz-adv-x="1251" unicode="ή"/>
			<glyph d="M137 1081H416V311Q416 265 424 241T453 207T510 197Q522 197 540 199T569 205L594 6Q562 -4 507 -12T416 -20Q274 -20 205 49T137 252ZM256 1507H514V1470L293 1184H186V1217Z" horiz-adv-x="594" unicode="ί"/>
			<glyph d="M127 1081H408V461Q408 334 457 270T610 207Q690 207 737 247T805 373T827 602Q827 721 788 859T702 1081H989Q1036 988 1072 848T1108 571Q1108 288 982 134T594 -20Q355 -20 241 90T127 432ZM543 1622H781V1583L598 1190H484V1223ZM322 1452Q371 1452 402 1421T434 1341Q434 1294 402 1262T322 1231Q271 1231 240 1261T209 1341Q209 1391 240 1421T322 1452ZM860 1452Q908 1452 939 1421T971 1341Q971 1294 939 1262T860 1231Q809 1231 777 1261T746 1341Q746 1391 777 1421T860 1452Z" horiz-adv-x="1192" unicode="ΰ"/>
			<glyph d="M532 1102Q685 1102 771 1030T907 809L911 797L924 850L937 901Q966 1019 989 1081H1288Q1272 1045 1238 973Q1144 767 1100 659L1049 537L1083 426L1103 366Q1124 301 1137 270T1166 223T1208 207Q1242 207 1270 213L1294 14Q1208 -12 1116 -12Q1049 -12 1007 14T940 88T895 217L885 258L850 193Q792 83 707 31T479 -20Q345 -20 255 51T123 249T80 543Q80 799 189 950T532 1102ZM571 887Q477 887 426 796T375 543Q375 375 418 284T543 193Q624 193 676 258T764 440L786 518L778 588Q751 737 704 812T571 887Z" horiz-adv-x="1313" unicode="α"/>
			<glyph d="M639 1485Q853 1485 967 1393T1081 1135Q1081 886 859 794Q944 778 1016 733T1135 606T1182 406Q1182 284 1133 188T982 36T727 -20Q559 -20 426 74H416Q424 -27 424 -129V-426H141V1026Q141 1261 265 1373T639 1485ZM637 1266Q527 1266 475 1202T424 991V276Q470 240 537 216T672 193Q785 193 846 253T907 420Q907 537 826 606T575 676V874Q701 896 758 952T815 1110Q815 1180 770 1223T637 1266Z" horiz-adv-x="1249" unicode="β"/>
			<glyph d="M113 1100Q202 1100 264 1072T376 979T469 795Q501 709 582 383L604 295Q682 458 743 672T805 1081H1135Q1135 933 1076 741T924 354T725 -8Q688 -102 675 -207T662 -426H346Q346 -325 368 -211T430 0Q401 113 334 331T233 641Q194 745 153 794T55 844Q42 844 20 840L0 1092Q11 1095 49 1097T113 1100Z" horiz-adv-x="1188" unicode="γ"/>
			<glyph d="M240 1485H1092V1274H733Q707 1274 611 1280L909 1008Q1032 896 1093 771T1155 483Q1155 338 1092 224T907 45T616 -20Q449 -20 330 40T148 213T86 481Q86 687 212 819T551 1024L240 1317ZM688 883Q541 837 459 735T377 481Q377 352 436 274T612 197Q745 197 805 274T866 487Q866 607 818 700T688 883Z" horiz-adv-x="1241" unicode="δ"/>
			<glyph d="M528 1102Q666 1102 758 1061T924 930L762 786Q717 844 663 873T539 903Q461 903 419 875T377 795Q377 710 461 680T705 651V475Q594 475 525 466T411 421T367 313Q367 252 408 220T526 188Q597 188 666 225T797 326L938 166Q884 110 830 71T694 6T498 -20Q358 -20 264 20T124 131T78 297Q78 372 111 429T205 518T344 557V559Q234 571 172 639T111 811Q111 896 159 962T302 1065T528 1102Z" horiz-adv-x="973" unicode="ε"/>
			<glyph d="M174 1485H877V1294Q648 1069 486 836T324 422Q324 356 352 318T424 261T555 218L588 209Q692 180 755 152T864 63T911 -102Q911 -177 881 -261T817 -401L616 -319Q670 -225 670 -164Q670 -118 646 -91T582 -49T460 -12L438 -6Q325 19 249 50T119 150T66 340Q66 552 214 798T580 1277Q529 1274 469 1274H174Z" horiz-adv-x="942" unicode="ζ"/>
			<glyph d="M772 1102Q956 1102 1040 1003T1124 700V-426H846V608Q846 703 828 760T769 844T659 872Q551 872 488 796T426 582V0H143V770Q143 829 126 851T76 874Q60 874 45 868L25 1067Q112 1092 184 1092Q291 1092 347 1044T414 897H418Q473 999 555 1050T772 1102Z" horiz-adv-x="1251" unicode="η"/>
			<glyph d="M555 1483Q795 1483 906 1298T1018 733Q1018 355 899 167T549 -20Q328 -20 209 168T90 733Q90 1107 206 1295T555 1483ZM557 1280Q373 1280 365 844H743Q735 1280 557 1280ZM367 633Q371 393 422 287T551 182Q735 182 743 633Z" horiz-adv-x="1108" unicode="θ"/>
			<glyph d="M137 1081H416V311Q416 265 424 241T453 207T510 197Q522 197 540 199T569 205L594 6Q562 -4 507 -12T416 -20Q274 -20 205 49T137 252Z" horiz-adv-x="594" unicode="ι"/>
			<glyph d="M143 1081H424V639L799 1081H1112L731 659L1141 0H834L545 489L424 365V0H143Z" unicode="κ"/>
			<glyph d="M309 1536Q415 1536 484 1497T602 1379T700 1161L950 446Q984 350 1005 305T1049 241T1104 223L1120 -12Q999 -12 927 16T805 118T715 338L676 469Q605 701 600 745Q586 692 549 588T487 428L305 0H8L483 1006L457 1079Q423 1173 396 1221T340 1290T266 1311Q246 1311 219 1305T174 1292L123 1507Q157 1519 206 1527T309 1536Z" unicode="λ"/>
			<glyph d="M143 1081H426V477Q426 350 468 281T608 213Q674 213 723 249T800 352T827 504V1081H1110V311Q1110 265 1117 241T1139 207T1184 197Q1201 197 1223 205L1247 6Q1204 -7 1170 -13T1090 -20Q864 -20 836 164H834Q795 74 733 27T588 -20Q536 -20 492 4T426 70H422Q426 27 426 -45V-426H143Z" horiz-adv-x="1253" unicode="μ"/>
			<glyph d="M115 1100Q196 1100 255 1076T368 976T473 754Q543 552 633 256Q760 446 825 646T891 1081H1180Q1180 896 1117 710T966 367T745 0H469Q362 320 264 569Q221 682 192 739T136 820T70 844Q49 844 25 840L0 1090Q50 1100 115 1100Z" horiz-adv-x="1233" unicode="ν"/>
			<glyph d="M147 1485H803V1298Q639 1282 539 1234T440 1087Q440 1025 483 989T594 938T760 913V711Q610 692 518 664T375 578T324 420Q324 354 356 315T439 256T588 209Q692 180 755 152T864 63T911 -102Q911 -177 881 -261T817 -401L614 -317Q638 -275 653 -236T668 -162Q668 -120 641 -91T566 -44T438 -6Q325 19 249 50T119 150T66 340Q66 447 110 545T249 715T487 811V813Q362 823 283 884T205 1053Q205 1139 264 1194T414 1277Q254 1272 223 1272H147Z" horiz-adv-x="911" unicode="ξ"/>
			<glyph d="M627 1102Q814 1102 935 1027T1114 827T1171 543Q1171 384 1108 256T922 54T621 -20Q451 -20 328 54T143 256T80 543Q80 698 141 825T326 1027T627 1102ZM631 879Q507 879 441 791T375 543Q375 436 405 359T490 243T618 203Q743 203 810 291T877 543Q877 705 814 792T631 879Z" horiz-adv-x="1251" unicode="ο"/>
			<glyph d="M223 1081H1513V872H1239V303Q1239 246 1266 221T1343 197Q1381 197 1421 209L1458 8Q1407 -5 1359 -12T1255 -20Q1105 -20 1033 53T961 264V872H598V768Q598 525 575 344T510 0H223Q271 193 297 364T324 760V872H307Q213 872 159 865T66 840L43 1053Q72 1066 124 1073T223 1081Z" horiz-adv-x="1569" unicode="π"/>
			<glyph d="M635 1104Q788 1104 914 1033T1114 830T1188 516Q1188 359 1132 237T971 48T727 -20Q540 -20 416 117H412Q416 39 416 0V-426H121V582Q121 739 182 857T359 1039T635 1104ZM637 889Q522 889 469 807T416 571V319Q470 261 536 228T678 195Q782 195 837 283T893 526Q893 638 860 720T770 845T637 889Z" horiz-adv-x="1268" unicode="ρ"/>
			<glyph d="M621 1104Q731 1104 822 1061T973 942L834 793Q787 839 740 866T631 893Q531 893 465 817T370 637T340 444Q340 371 375 327T466 260T629 205Q639 202 648 199T667 194Q769 165 831 136T938 45T983 -121Q983 -188 950 -265T879 -401L682 -319Q737 -228 737 -164Q737 -121 709 -94T637 -53T506 -17L471 -8Q354 22 273 61T136 188T80 428Q80 568 132 724T305 992T621 1104Z" horiz-adv-x="1065" unicode="ς"/>
			<glyph d="M719 1081H1362V872H1165L1111 874Q1006 877 1001 877V874Q1076 783 1122 681T1169 459Q1169 316 1108 208T926 40T629 -20Q360 -20 220 121T80 524Q80 710 160 835T384 1020T719 1081ZM700 872Q607 872 533 833T417 716T375 524Q375 360 437 276T621 193Q748 193 812 271T877 492Q877 693 774 872Z" horiz-adv-x="1401" unicode="σ"/>
			<glyph d="M201 1081H881V872H575V311Q575 247 603 222T690 197Q704 197 724 200T758 209L795 6Q698 -20 596 -20Q443 -20 370 49T297 252V872H270Q193 872 128 863T39 840L16 1053Q40 1065 96 1073T201 1081Z" horiz-adv-x="913" unicode="τ"/>
			<glyph d="M127 1081H408V461Q408 334 457 270T610 207Q690 207 737 247T805 373T827 602Q827 721 788 859T702 1081H989Q1036 988 1072 848T1108 571Q1108 288 982 134T594 -20Q355 -20 241 90T127 432Z" horiz-adv-x="1192" unicode="υ"/>
			<glyph d="M524 1106L571 911Q460 885 407 785T354 545Q354 371 420 281T606 184V702Q606 1104 967 1104Q1093 1104 1188 1037T1334 849T1386 565Q1386 279 1240 137T846 -18V-426H606V-20Q357 -9 218 131T80 545Q80 802 192 935T524 1106ZM965 909Q906 909 876 858T846 698V182Q975 188 1042 285T1110 567Q1110 742 1072 825T965 909Z" horiz-adv-x="1464" unicode="φ"/>
			<glyph d="M49 1100Q209 1100 296 1073T448 965T584 711L621 621L834 1081H1130L756 391L1169 -426H868L602 178L313 -426H12L465 406L346 647Q302 733 266 777T184 840T66 858Z" horiz-adv-x="1180" unicode="χ"/>
			<glyph d="M643 1339H901V197Q991 198 1042 223T1117 308T1141 473V1081H1415V459Q1415 293 1364 189T1201 33T903 -20V-426H643V-20Q463 -18 349 33T182 190T129 459V1081H403V475Q403 371 428 311T506 225T643 197Z" horiz-adv-x="1542" unicode="ψ"/>
			<glyph d="M213 1081H494Q367 859 367 541Q367 366 409 281T555 197Q640 197 688 270T737 473V662H995V473Q995 343 1042 270T1174 197Q1279 197 1321 281T1364 539Q1364 690 1331 828T1231 1081H1518Q1582 968 1615 826T1649 537Q1649 264 1536 122T1214 -20Q1071 -20 986 40T866 217H862Q827 100 743 40T516 -20Q306 -20 194 122T82 537Q82 684 115 826T213 1081Z" horiz-adv-x="1731" unicode="ω"/>
			<glyph d="M137 1081H416V311Q416 265 424 241T453 207T510 197Q522 197 540 199T569 205L594 6Q562 -4 507 -12T416 -20Q274 -20 205 49T137 252ZM84 1454Q140 1454 175 1419T211 1327Q211 1269 175 1233T84 1198Q24 1198 -11 1232T-47 1327Q-47 1384 -11 1419T84 1454ZM494 1454Q550 1454 586 1418T623 1327Q623 1269 586 1233T494 1198Q435 1198 400 1232T365 1327Q365 1384 400 1419T494 1454Z" horiz-adv-x="594" unicode="ϊ"/>
			<glyph d="M127 1081H408V461Q408 334 457 270T610 207Q690 207 737 247T805 373T827 602Q827 721 788 859T702 1081H989Q1036 988 1072 848T1108 571Q1108 288 982 134T594 -20Q355 -20 241 90T127 432ZM387 1454Q443 1454 478 1419T514 1327Q514 1269 478 1233T387 1198Q327 1198 291 1232T256 1327Q256 1384 291 1419T387 1454ZM797 1454Q853 1454 889 1418T926 1327Q926 1269 889 1233T797 1198Q738 1198 703 1232T668 1327Q668 1384 703 1419T797 1454Z" horiz-adv-x="1192" unicode="ϋ"/>
			<glyph d="M627 1102Q814 1102 935 1027T1114 827T1171 543Q1171 384 1108 256T922 54T621 -20Q451 -20 328 54T143 256T80 543Q80 698 141 825T326 1027T627 1102ZM631 879Q507 879 441 791T375 543Q375 436 405 359T490 243T618 203Q743 203 810 291T877 543Q877 705 814 792T631 879ZM594 1507H852V1470L631 1184H524V1217Z" horiz-adv-x="1251" unicode="ό"/>
			<glyph d="M127 1081H408V461Q408 334 457 270T610 207Q690 207 737 247T805 373T827 602Q827 721 788 859T702 1081H989Q1036 988 1072 848T1108 571Q1108 288 982 134T594 -20Q355 -20 241 90T127 432ZM559 1507H817V1470L596 1184H489V1217Z" horiz-adv-x="1192" unicode="ύ"/>
			<glyph d="M213 1081H494Q367 859 367 541Q367 366 409 281T555 197Q640 197 688 270T737 473V662H995V473Q995 343 1042 270T1174 197Q1279 197 1321 281T1364 539Q1364 690 1331 828T1231 1081H1518Q1582 968 1615 826T1649 537Q1649 264 1536 122T1214 -20Q1071 -20 986 40T866 217H862Q827 100 743 40T516 -20Q306 -20 194 122T82 537Q82 684 115 826T213 1081ZM833 1507H1091V1470L870 1184H763V1217Z" horiz-adv-x="1731" unicode="ώ"/>
			<glyph d="M137 1409H1151V1161H432V834H1090V584H432V248H1192V0H137ZM336 1815H594L846 1561V1530H676L336 1772Z" horiz-adv-x="1272" unicode="Ѐ"/>
			<glyph d="M137 1409H1151V1161H432V834H1090V584H432V248H1192V0H137ZM465 1776Q521 1776 557 1740T594 1649Q594 1592 557 1556T465 1520Q407 1520 371 1555T336 1649Q336 1706 371 1741T465 1776ZM875 1776Q931 1776 966 1740T1002 1649Q1002 1592 966 1556T875 1520Q815 1520 779 1555T744 1649Q744 1706 779 1741T875 1776Z" horiz-adv-x="1272" unicode="Ё"/>
			<glyph d="M23 1409H1188V1161H752V846Q842 886 963 917T1214 948Q1448 948 1568 828T1688 459Q1688 213 1582 96T1247 -20Q1103 -20 1010 24T852 158L1053 330Q1095 284 1136 258T1235 233Q1315 233 1355 288T1395 449Q1395 584 1330 645T1120 707Q1029 707 930 681T752 621V0H457V1161H23Z" horiz-adv-x="1792" unicode="Ђ"/>
			<glyph d="M137 1409H1055V1161H432V0H137ZM731 1815H989V1772L647 1530H477V1561Z" horiz-adv-x="1087" unicode="Ѓ"/>
			<glyph d="M782 1430Q1005 1430 1155 1340T1386 1092L1141 973Q1094 1062 1004 1120T788 1178Q634 1178 529 1088T393 840H913V590H391Q418 424 521 328T795 233Q1046 233 1169 473L1411 348Q1337 186 1185 83T795 -20Q567 -20 407 73T165 331T84 711Q84 930 168 1092T409 1342T782 1430Z" horiz-adv-x="1454" unicode="Є"/>
			<glyph d="M657 1430Q823 1430 950 1381T1178 1233L1006 1047Q930 1118 843 1157T647 1196Q517 1196 460 1155T403 1049Q403 990 437 955T528 901T691 857L713 852Q882 813 984 772T1156 645T1227 408Q1227 279 1164 183T971 33T643 -20Q268 -20 68 221L258 410Q310 354 362 314T486 249T651 223Q791 223 865 266T940 391Q940 452 900 490T801 548T635 593Q597 601 578 606Q438 640 341 684T180 812T117 1030Q117 1159 185 1249T376 1384T657 1430Z" horiz-adv-x="1290" unicode="Ѕ"/>
			<glyph d="M137 1409H432V0H137Z" horiz-adv-x="569" unicode="І"/>
			<glyph d="M137 1409H432V0H137ZM82 1776Q138 1776 174 1740T211 1649Q211 1592 174 1556T82 1520Q24 1520 -11 1555T-47 1649Q-47 1706 -11 1741T82 1776ZM492 1776Q548 1776 583 1740T619 1649Q619 1592 583 1556T492 1520Q432 1520 396 1555T361 1649Q361 1706 396 1741T492 1776Z" horiz-adv-x="569" unicode="Ї"/>
			<glyph d="M698 1409H993V446Q993 303 938 198T776 36T518 -20Q341 -20 224 52T37 285L289 410Q332 315 384 273T512 231Q601 231 649 284T698 438Z" horiz-adv-x="1133" unicode="Ј"/>
			<glyph d="M348 1409H1251V868H1679Q1840 868 1949 815T2114 667T2169 442Q2169 317 2110 216T1933 58T1647 0H956V1145H608L559 817Q511 476 462 303T332 57T106 -16Q81 -16 52 -11T8 0L29 248Q36 245 49 243T72 242Q117 242 149 295T212 496T281 936ZM1251 621V250H1599Q1870 250 1870 438Q1870 526 1799 573T1593 621Z" horiz-adv-x="2241" unicode="Љ"/>
			<glyph d="M137 1409H432V848H979V1409H1274V848H1614Q1774 848 1883 796T2047 651T2101 432Q2101 308 2042 210T1866 56T1581 0H979V600H432V0H137ZM1274 600V250H1538Q1675 250 1739 294T1804 428Q1804 510 1735 555T1532 600Z" horiz-adv-x="2177" unicode="Њ"/>
			<glyph d="M23 1409H1229V1182H772V883Q990 944 1188 944Q1424 944 1541 830T1659 479V0H1374V449Q1374 540 1346 595T1256 678T1092 705Q941 705 772 653V0H477V1182H23Z" horiz-adv-x="1792" unicode="Ћ"/>
			<glyph d="M137 1409H432V831Q468 831 503 855T583 932T698 1085L903 1409H1204L938 1004Q892 931 842 864T768 780L1253 0H932L557 641Q534 627 496 615T430 604V0H137ZM697 1815H955V1772L613 1530H443V1561Z" horiz-adv-x="1249" unicode="Ќ"/>
			<glyph d="M135 1409H397V590Q397 500 390 339L389 315L1004 1409H1335V0H1073V831Q1073 891 1080 1059L1081 1085L471 0H135ZM405 1815H663L915 1561V1530H745L405 1772Z" horiz-adv-x="1473" unicode="Ѝ"/>
			<glyph d="M0 1409H309L696 729L991 1409H1292L768 317Q710 196 656 125T527 17T342 -20Q274 -20 202 -3T88 41L170 287Q254 244 330 244Q376 244 410 263T475 324T541 440L557 477ZM266 1843H491V1808Q491 1732 528 1696T651 1661Q815 1661 815 1808V1843H1040V1808Q1040 1686 959 1596T651 1507Q421 1507 343 1595T266 1808Z" horiz-adv-x="1274" unicode="Ў"/>
			<glyph d="M137 1409H432V248H1040V1409H1333V0H860V-408H610V0H137Z" horiz-adv-x="1473" unicode="Џ"/>
			<glyph d="M545 1409H893L1405 0H1110L997 340H439L326 0H31ZM719 1192Q713 1170 694 1108T655 987L513 561H924L782 987Q779 997 726 1170Z" horiz-adv-x="1436" unicode="А"/>
			<glyph d="M137 1409H1137V1161H432V868H848Q1009 868 1118 815T1282 667T1337 440Q1337 315 1278 215T1102 57T817 0H137ZM432 621V250H768Q1040 250 1040 436Q1040 526 969 573T762 621Z" horiz-adv-x="1411" unicode="Б"/>
			<glyph d="M137 1409H731Q985 1409 1119 1320T1253 1055Q1253 933 1185 851T985 741Q1134 721 1214 633T1294 401Q1294 264 1222 174T1027 42T750 0H137ZM432 1178V850H698Q832 850 894 891T956 1016Q956 1103 897 1140T717 1178ZM432 614V233H725Q853 233 925 276T997 426Q997 527 926 570T735 614Z" horiz-adv-x="1386" unicode="В"/>
			<glyph d="M137 1409H1055V1161H432V0H137Z" horiz-adv-x="1087" unicode="Г"/>
			<glyph d="M449 1409H1237V248H1421V-408H1171V0H268V-408H18V248H174Q242 372 299 563T387 965ZM690 1145L659 932Q635 750 587 557T483 248H952V1145Z" horiz-adv-x="1458" unicode="Д"/>
			<glyph d="M137 1409H1151V1161H432V834H1090V584H432V248H1192V0H137Z" horiz-adv-x="1272" unicode="Е"/>
			<glyph d="M39 1409H338L537 1085Q605 982 645 929T718 854T784 831V1409H1069V831Q1105 831 1137 854T1210 929T1319 1085L1518 1409H1817L1567 1001Q1510 912 1469 854T1407 780L1862 0H1544L1196 641Q1170 628 1135 620T1069 612V0H786V612Q754 612 717 620T659 641L309 0H-6L449 780Q426 798 381 861T289 1001Z" horiz-adv-x="1851" unicode="Ж"/>
			<glyph d="M604 1430Q756 1430 871 1385T1049 1256T1112 1063Q1112 928 1043 843T853 725Q985 704 1067 621T1149 399Q1149 275 1083 180T893 33T596 -20Q406 -20 272 41T45 223L233 414Q318 324 401 277T596 231Q724 231 792 278T860 412Q860 505 785 547T553 590H473V842H553Q691 842 759 887T827 1024Q827 1103 766 1146T600 1190Q526 1190 465 1165T361 1106T272 1022L94 1196Q179 1304 305 1367T604 1430Z" horiz-adv-x="1241" unicode="З"/>
			<glyph d="M135 1409H397V590Q397 500 390 339L389 315L1004 1409H1335V0H1073V831Q1073 891 1080 1059L1081 1085L471 0H135Z" horiz-adv-x="1473" unicode="И"/>
			<glyph d="M135 1409H397V590Q397 500 390 339L389 315L1004 1409H1335V0H1073V831Q1073 891 1080 1059L1081 1085L471 0H135ZM350 1843H575V1808Q575 1732 612 1696T735 1661Q899 1661 899 1808V1843H1124V1808Q1124 1686 1043 1596T735 1507Q505 1507 427 1595T350 1808Z" horiz-adv-x="1473" unicode="Й"/>
			<glyph d="M137 1409H432V831Q468 831 503 855T583 932T698 1085L903 1409H1204L938 1004Q892 931 842 864T768 780L1253 0H932L557 641Q534 627 496 615T430 604V0H137Z" horiz-adv-x="1249" unicode="К"/>
			<glyph d="M348 1409H1300V0H1016V1145H608L559 817Q511 476 462 303T332 57T106 -16Q81 -16 52 -11T8 0L29 248Q36 245 49 243T72 242Q117 242 149 295T212 496T281 936Z" horiz-adv-x="1438" unicode="Л"/>
			<glyph d="M137 1409H565L825 621Q842 570 865 478T895 356Q903 386 927 476T969 616L1225 1409H1651V0H1378V854Q1378 962 1383 1058T1389 1159Q1388 1158 1369 1089Q1359 1056 1327 947T1278 786L1014 0H774L510 786Q489 847 450 977T397 1159L399 1130Q400 1114 405 1017T410 854V0H137Z" horiz-adv-x="1788" unicode="М"/>
			<glyph d="M137 1409H432V860H1047V1409H1341V0H1047V596H432V0H137Z" horiz-adv-x="1479" unicode="Н"/>
			<glyph d="M795 1430Q1012 1430 1173 1341T1420 1090T1507 711Q1507 493 1417 327T1166 71T793 -20Q572 -20 412 73T168 332T84 711Q84 930 170 1092T417 1342T795 1430ZM795 1178Q669 1178 575 1120T431 956T381 711Q381 572 432 463T577 293T793 233Q924 233 1017 294T1158 463T1206 711Q1206 851 1155 956T1010 1120T795 1178Z" horiz-adv-x="1593" unicode="О"/>
			<glyph d="M137 1409H1341V0H1057V1145H430V0H137Z" horiz-adv-x="1479" unicode="П"/>
			<glyph d="M137 1409H770Q946 1409 1063 1352T1238 1192T1296 950Q1296 821 1239 713T1067 540T782 475H432V0H137ZM432 1159V723H745Q872 723 935 782T999 946Q999 1051 933 1105T737 1159Z" horiz-adv-x="1366" unicode="Р"/>
			<glyph d="M782 1430Q1005 1430 1155 1340T1386 1092L1141 973Q1094 1062 1004 1120T788 1178Q667 1178 574 1120T431 956T381 711Q381 569 428 461T568 293T795 233Q1046 233 1169 473L1411 348Q1337 186 1185 83T795 -20Q567 -20 407 73T165 331T84 711Q84 930 168 1092T409 1342T782 1430Z" horiz-adv-x="1454" unicode="С"/>
			<glyph d="M23 1409H1188V1161H752V0H457V1161H23Z" horiz-adv-x="1210" unicode="Т"/>
			<glyph d="M0 1409H309L696 729L991 1409H1292L768 317Q710 196 656 125T527 17T342 -20Q274 -20 202 -3T88 41L170 287Q254 244 330 244Q376 244 410 263T475 324T541 440L557 477Z" horiz-adv-x="1274" unicode="У"/>
			<glyph d="M702 1419H981V1262H1022Q1218 1262 1352 1197T1553 1013T1620 733Q1620 582 1554 458T1357 261T1034 188H981V-10H702V188H647Q457 188 325 261T128 458T63 733Q63 895 129 1013T329 1197T659 1262H702ZM682 1032Q520 1032 440 954T360 729Q360 587 438 502T676 418H702V1032ZM981 1032V418H1006Q1166 418 1244 503T1323 729Q1323 876 1242 954T999 1032Z" horiz-adv-x="1681" unicode="Ф"/>
			<glyph d="M59 1409H371L684 912L997 1409H1307L878 741L1348 0H1038L684 561L330 0H18L506 742Z" horiz-adv-x="1366" unicode="Х"/>
			<glyph d="M137 1409H432V248H993V1409H1286V248H1481V-408H1231V0H137Z" horiz-adv-x="1495" unicode="Ц"/>
			<glyph d="M111 1409H393V961Q393 868 417 812T503 729T672 702Q820 702 1006 756V1409H1300V0H1006V526Q897 499 793 482T571 465Q410 465 309 514T159 666T111 930Z" horiz-adv-x="1440" unicode="Ч"/>
			<glyph d="M137 1409H422V248H897V1409H1171V248H1647V1409H1921V0H137Z" horiz-adv-x="2058" unicode="Ш"/>
			<glyph d="M137 1409H422V248H870V1409H1151V248H1597V1409H1878V248H2073V-408H1823V0H137Z" horiz-adv-x="2087" unicode="Щ"/>
			<glyph d="M23 1409H772V868H1219Q1379 868 1489 815T1653 667T1708 440Q1708 315 1649 215T1473 57T1188 0H477V1161H23ZM772 621V250H1139Q1409 250 1409 436Q1409 526 1339 573T1133 621Z" horiz-adv-x="1782" unicode="Ъ"/>
			<glyph d="M137 1409H432V868H870Q1031 868 1140 815T1305 667T1360 442Q1360 317 1301 216T1124 58T838 0H137ZM1573 1409H1868V0H1573ZM432 621V250H791Q1061 250 1061 438Q1061 526 990 573T784 621Z" horiz-adv-x="2005" unicode="Ы"/>
			<glyph d="M137 1409H432V868H909Q1070 868 1179 815T1344 667T1399 440Q1399 315 1340 215T1164 57T879 0H137ZM432 621V250H829Q1102 250 1102 436Q1102 526 1031 573T823 621Z" horiz-adv-x="1473" unicode="Ь"/>
			<glyph d="M672 1430Q887 1430 1044 1342T1286 1092T1370 711Q1370 496 1288 331T1047 73T659 -20Q420 -20 268 83T43 348L285 473Q408 233 659 233Q829 233 932 328T1063 590H541V840H1061Q1029 998 924 1088T666 1178Q539 1178 449 1120T313 973L68 1092Q149 1250 299 1340T672 1430Z" horiz-adv-x="1456" unicode="Э"/>
			<glyph d="M1366 1430Q1574 1430 1722 1338T1948 1083T2025 711Q2025 500 1945 334T1716 74T1364 -20Q1171 -20 1030 60T810 279T713 594H432V0H137V1409H432V858H715Q738 1027 820 1156T1042 1357T1366 1430ZM1366 1178Q1247 1178 1166 1118T1045 953T1006 711Q1006 574 1046 466T1167 295T1366 233Q1489 233 1569 296T1686 466T1724 711Q1724 848 1684 953T1564 1118T1366 1178Z" horiz-adv-x="2111" unicode="Ю"/>
			<glyph d="M631 1409H1294V0H999V514H694L367 0H35L416 571Q326 593 255 648T144 788T104 977Q104 1111 163 1208T340 1357T631 1409ZM662 1159Q536 1159 468 1110T401 965Q401 873 464 818T653 764H999V1159Z" horiz-adv-x="1432" unicode="Я"/>
			<glyph d="M565 1102Q776 1102 892 1002T1008 715V319Q1008 141 1016 0H750Q743 71 743 152H737Q684 69 599 24T401 -20Q301 -20 225 18T108 129T66 305Q66 485 182 566T494 651L727 655V707Q727 806 679 845T549 885Q406 885 258 754L125 930Q319 1102 565 1102ZM727 481L582 479Q508 475 462 464T387 422T358 328Q358 262 393 227T489 193Q558 193 612 226T697 312T727 426Z" unicode="а"/>
			<glyph d="M1126 1501V1268Q909 1243 745 1219Q576 1191 487 1152T352 1033T295 797Q354 900 457 963T696 1026Q852 1026 961 964T1127 786T1184 504Q1184 340 1117 222T926 42T635 -20Q471 -20 349 49T161 266T94 637Q94 895 153 1057T345 1312T702 1442Q941 1481 1126 1501ZM651 813Q580 813 520 779T425 675T389 502Q389 397 424 327T516 225T635 193Q707 193 764 225T856 327T891 502Q891 608 858 677T772 780T651 813Z" horiz-adv-x="1266" unicode="б"/>
			<glyph d="M143 1081H618Q830 1081 958 1020T1087 811Q1087 713 1018 652T844 573V565Q971 550 1044 489T1118 311Q1118 156 1000 78T659 0H143ZM426 891V655H571Q657 655 705 667T774 706T795 778Q795 837 746 864T584 891ZM426 467V190H590Q721 190 776 221T831 322Q831 376 806 407T726 453T580 467Z" horiz-adv-x="1198" unicode="в"/>
			<glyph d="M143 1081H799V872H426V0H143Z" horiz-adv-x="854" unicode="г"/>
			<glyph d="M362 1081H1116V211H1262V-408H1018V0H258V-408H14V211H139Q200 308 250 478T348 973ZM598 872L592 831Q560 601 518 447T430 211H834V872Z" horiz-adv-x="1300" unicode="д"/>
			<glyph d="M590 1102Q755 1102 862 1031T1019 842T1069 580Q1069 523 1063 467H375Q375 341 434 267T621 193Q678 193 724 205T814 242T922 311L1036 129Q941 57 844 18T606 -20Q357 -20 218 121T80 543Q80 731 148 856T332 1042T590 1102ZM588 897Q494 897 437 838T377 659H797Q793 781 740 839T588 897Z" unicode="е"/>
			<glyph d="M-6 1081H266L403 825Q454 738 487 696T543 642T600 629V1081H852V629Q885 630 908 642T965 696T1049 825L1186 1081H1458L1243 700Q1187 601 1151 571L1468 0H1171L948 469Q935 463 907 460T852 457V0H600V457Q572 457 544 460T504 469L281 0H-16L301 571Q266 601 209 700Z" horiz-adv-x="1452" unicode="ж"/>
			<glyph d="M483 1102Q605 1102 696 1066T836 967T885 821Q885 716 812 654T616 567V565Q698 558 767 525T877 435T918 303Q918 209 867 136T715 21T471 -20Q339 -20 235 19T51 135L201 307Q249 259 315 227T451 195Q534 195 581 227T629 311Q629 394 554 424T334 455H309V664H334Q471 664 543 691T616 786Q616 839 574 868T457 897Q393 897 334 869T213 782L70 936Q153 1021 255 1061T483 1102Z" horiz-adv-x="987" unicode="з"/>
			<glyph d="M141 1081H403V596Q403 420 397 328Q441 409 502 512L831 1081H1116V0H856V551Q856 571 861 701L864 758Q846 718 807 651L782 606L442 0H141Z" horiz-adv-x="1260" unicode="и"/>
			<glyph d="M141 1081H403V596Q403 420 397 328Q441 409 502 512L831 1081H1116V0H856V551Q856 571 861 701L864 758Q846 718 807 651L782 606L442 0H141ZM256 1509H473V1470Q473 1390 509 1352T628 1315Q788 1315 788 1470V1509H1005V1470Q1005 1171 628 1171Q472 1171 390 1217T282 1328T256 1470Z" horiz-adv-x="1260" unicode="й"/>
			<glyph d="M141 1081H424V639Q459 640 481 650T534 700T616 825L741 1081H1016L811 700Q783 649 759 621T709 571L1026 0H739L506 459Q492 453 468 449T424 446V0H141Z" horiz-adv-x="1024" unicode="к"/>
			<glyph d="M332 1081H1157V0H877V872H565L553 782Q503 425 465 268T364 45T174 -20Q132 -20 88 -16T20 -6L45 201Q69 195 88 195Q142 195 172 243T229 424T301 868Z" horiz-adv-x="1300" unicode="л"/>
			<glyph d="M143 1081H514L694 520Q695 515 705 486Q729 410 743 358T764 256Q771 310 785 365T822 489L831 520L1006 1081H1372V0H1126V629Q1126 660 1132 756L1137 862L870 0H657L381 860Q389 704 389 629V0H143Z" horiz-adv-x="1516" unicode="м"/>
			<glyph d="M143 1081H426V668H811V1081H1094V0H811V457H426V0H143Z" horiz-adv-x="1237" unicode="н"/>
			<glyph d="M627 1102Q814 1102 935 1027T1114 827T1171 543Q1171 384 1108 256T922 54T621 -20Q451 -20 328 54T143 256T80 543Q80 698 141 825T326 1027T627 1102ZM631 879Q507 879 441 791T375 543Q375 436 405 359T490 243T618 203Q743 203 810 291T877 543Q877 705 814 792T631 879Z" horiz-adv-x="1251" unicode="о"/>
			<glyph d="M143 1081H1094V0H811V872H426V0H143Z" horiz-adv-x="1237" unicode="п"/>
			<glyph d="M768 1104Q899 1104 991 1032T1130 835T1178 547Q1178 381 1127 252T977 52T743 -20Q643 -20 557 21T424 152H418Q420 141 422 86T424 -10V-426H143V834Q143 987 135 1081H408Q412 1071 416 1018T420 926H424Q531 1104 768 1104ZM662 879Q599 879 544 847T455 739T420 539Q420 417 454 342T543 235T659 203Q762 203 823 288T885 547Q885 711 825 795T662 879Z" horiz-adv-x="1262" unicode="р"/>
			<glyph d="M623 1102Q900 1102 1040 874L844 741Q800 807 749 843T623 879Q502 879 438 793T375 547Q375 380 440 292T625 205Q705 205 763 241T887 346L1055 184Q977 88 866 34T614 -20Q443 -20 323 49T141 243T80 535Q80 714 146 841T334 1035T623 1102Z" horiz-adv-x="1077" unicode="с"/>
			<glyph d="M57 1081H946V872H643V0H360V872H57Z" horiz-adv-x="1004" unicode="т"/>
			<glyph d="M16 1081H315L485 580Q505 517 541 404T584 262Q592 298 626 419T672 575L831 1081H1128L700 -57Q646 -189 591 -268T462 -387T283 -426Q178 -426 106 -410L127 -190Q176 -199 203 -199Q258 -199 297 -184T366 -134T426 -37L444 10Z" unicode="у"/>
			<glyph d="M766 1485H1026V1092Q1026 969 1024 926H1028Q1075 1020 1153 1063T1343 1106Q1465 1106 1547 1035T1668 838T1708 547Q1708 378 1666 250T1539 51T1327 -20Q1231 -20 1152 21T1028 154H1024Q1026 104 1026 -10V-426H766V-10Q766 43 767 70L768 152H764Q719 62 639 21T444 -20Q323 -20 242 51T121 249T82 541Q82 708 123 834T251 1031T465 1102Q567 1102 645 1060T766 932H768Q768 958 767 979L766 1090ZM569 891Q473 891 424 806T375 541Q375 193 567 193Q653 193 710 276T768 547Q768 733 711 812T569 891ZM1223 889Q1137 889 1079 807T1022 539Q1022 354 1079 273T1221 193Q1317 193 1366 279T1415 547Q1415 720 1367 804T1223 889Z" horiz-adv-x="1792" unicode="ф"/>
			<glyph d="M33 1081H344L567 733L788 1081H1102L725 561L1124 0H811L567 385L322 0H14L410 559Z" unicode="х"/>
			<glyph d="M143 1081H426V211H811V1081H1094V211H1239V-408H995V0H143ZZ" horiz-adv-x="1260" unicode="ц"/>
			<glyph d="M84 1081H362V717Q362 645 399 603T520 561Q581 561 634 571T766 606V1081H1047V0H766V395L725 384Q624 357 551 343T389 330Q243 330 163 413T84 643Z" horiz-adv-x="1190" unicode="ч"/>
			<glyph d="M143 1081H406V211H721V1081H983V211H1298V1081H1561V0H143Z" horiz-adv-x="1706" unicode="ш"/>
			<glyph d="M143 1081H406V211H723V1081H983V211H1300V1081H1563V211H1708V-408H1462V0H143ZZ" horiz-adv-x="1729" unicode="щ"/>
			<glyph d="M39 1081H692V647H940Q1176 647 1292 569T1409 330Q1409 173 1291 86T942 0H412V872H39ZM692 455V195H881Q972 195 1024 210T1098 254T1120 330Q1120 396 1066 425T883 455Z" horiz-adv-x="1493" unicode="ъ"/>
			<glyph d="M143 1081H426V647H696Q934 647 1054 569T1174 330Q1174 174 1052 87T698 0H143ZM1325 1081H1606V0H1325ZM426 455V195H637Q771 195 829 228T887 330Q887 395 828 425T639 455Z" horiz-adv-x="1749" unicode="ы"/>
			<glyph d="M143 1081H426V647H696Q934 647 1054 569T1174 330Q1174 174 1052 87T698 0H143ZM426 455V195H637Q771 195 829 228T887 330Q887 395 828 425T639 455Z" horiz-adv-x="1260" unicode="ь"/>
			<glyph d="M477 1102Q649 1102 770 1035T955 842T1018 535Q1018 367 957 242T774 48T475 -20Q330 -20 216 34T23 184L188 350Q256 280 319 242T465 205Q570 205 633 265T715 444H410V651H715Q696 765 639 822T477 879Q396 879 337 841T233 739L37 874Q108 982 219 1042T477 1102Z" horiz-adv-x="1098" unicode="э"/>
			<glyph d="M1145 1102Q1414 1102 1541 951T1669 543Q1669 375 1609 248T1431 51T1139 -20Q986 -20 874 38T698 203T621 455H426V0H143V1081H426V662H625Q644 795 708 893T882 1047T1145 1102ZM1149 889Q1032 889 972 804T913 543Q913 366 973 279T1137 193Q1253 193 1313 278T1374 543Q1374 721 1317 805T1149 889Z" horiz-adv-x="1749" unicode="ю"/>
			<glyph d="M565 1081H1053V0H770V412H578L305 0H0L322 451Q215 477 151 553T88 756Q88 918 211 999T565 1081ZM580 887Q477 887 426 852T375 745Q375 606 563 606H772V887Z" horiz-adv-x="1194" unicode="я"/>
			<glyph d="M590 1102Q755 1102 862 1031T1019 842T1069 580Q1069 523 1063 467H375Q375 341 434 267T621 193Q678 193 724 205T814 242T922 311L1036 129Q941 57 844 18T606 -20Q357 -20 218 121T80 543Q80 731 148 856T332 1042T590 1102ZM588 897Q494 897 437 838T377 659H797Q793 781 740 839T588 897ZM263 1501H521L772 1214V1184H603L263 1458Z" unicode="ѐ"/>
			<glyph d="M590 1102Q755 1102 862 1031T1019 842T1069 580Q1069 523 1063 467H375Q375 341 434 267T621 193Q678 193 724 205T814 242T922 311L1036 129Q941 57 844 18T606 -20Q357 -20 218 121T80 543Q80 731 148 856T332 1042T590 1102ZM588 897Q494 897 437 838T377 659H797Q793 781 740 839T588 897ZM385 1454Q441 1454 476 1419T512 1327Q512 1269 476 1233T385 1198Q325 1198 289 1232T254 1327Q254 1384 289 1419T385 1454ZM795 1454Q851 1454 887 1418T924 1327Q924 1269 887 1233T795 1198Q736 1198 701 1232T666 1327Q666 1384 701 1419T795 1454Z" unicode="ё"/>
			<glyph d="M143 1485H424V1346H729V1176H424V1079Q424 1011 416 887H420Q476 998 562 1050T768 1102Q953 1102 1038 989T1124 686V-129Q1124 -264 1053 -345T836 -426Q731 -426 666 -414L688 -193Q726 -197 739 -197Q783 -197 805 -182T836 -135T844 -39V606Q844 728 803 794T662 860Q595 860 540 824T455 725T424 580V0H143V1176H10V1346H143Z" horiz-adv-x="1251" unicode="ђ"/>
			<glyph d="M143 1081H799V872H426V0H143ZM527 1501H785V1458L443 1184H273V1214Z" horiz-adv-x="854" unicode="ѓ"/>
			<glyph d="M633 1102Q918 1102 1061 874L864 739Q817 806 765 842T633 879Q422 879 383 651H688V444H383Q402 326 465 265T635 205Q718 205 780 242T909 350L1075 184Q996 89 882 34T625 -20Q448 -20 325 48T141 242T80 535Q80 714 146 841T336 1035T633 1102Z" horiz-adv-x="1098" unicode="є"/>
			<glyph d="M512 1102Q640 1102 745 1063T926 946L782 780Q667 893 514 893Q348 893 348 797Q348 760 369 738T426 705T527 678L578 666Q698 636 775 601T903 498T954 315Q954 212 901 136T748 20T508 -20Q368 -20 258 17T49 135L176 328Q266 259 343 224T508 190Q597 190 646 212T696 293Q696 335 670 360T603 398T489 429L436 442Q327 470 254 504T136 604T90 774Q90 876 139 949T283 1062T512 1102Z" horiz-adv-x="1018" unicode="ѕ"/>
			<glyph d="M285 1540Q356 1540 398 1497T440 1382Q440 1311 397 1268T285 1225Q211 1225 169 1267T127 1382Q127 1455 169 1497T285 1540ZM143 1081H424V0H143Z" horiz-adv-x="569" unicode="і"/>
			<glyph d="M145 1081H426V0H145ZM80 1454Q136 1454 171 1419T207 1327Q207 1269 171 1233T80 1198Q20 1198 -15 1232T-51 1327Q-51 1384 -15 1419T80 1454ZM490 1454Q546 1454 582 1418T619 1327Q619 1269 582 1233T490 1198Q431 1198 396 1232T361 1327Q361 1384 396 1419T490 1454Z" horiz-adv-x="569" unicode="ї"/>
			<glyph d="M285 1540Q356 1540 398 1497T440 1382Q440 1311 397 1268T285 1225Q211 1225 169 1267T127 1382Q127 1455 169 1497T285 1540ZM143 1081H426V-129Q426 -264 355 -345T137 -426Q31 -426 -33 -414L-12 -193Q24 -197 39 -197Q83 -197 105 -182T135 -135T143 -39Z" horiz-adv-x="569" unicode="ј"/>
			<glyph d="M332 1081H1130V647H1401Q1638 647 1758 569T1878 330Q1878 174 1757 87T1403 0H848V872H565L549 752Q503 415 465 260T363 43T174 -20Q145 -20 91 -15T20 -6L45 201Q66 195 88 195Q141 195 171 240T227 413T295 825ZM1130 455V195H1341Q1476 195 1533 228T1591 330Q1591 395 1533 425T1343 455Z" horiz-adv-x="1964" unicode="љ"/>
			<glyph d="M143 1081H426V653H776V1081H1059V647H1294Q1532 647 1652 569T1772 330Q1772 174 1650 87T1294 0H776V442H426V0H143ZM1059 455V195H1235Q1369 195 1427 228T1485 330Q1485 395 1425 425T1235 455Z" horiz-adv-x="1855" unicode="њ"/>
			<glyph d="M143 1485H424V1346H729V1176H424V1079Q424 1011 416 887H420Q476 998 562 1050T768 1102Q953 1102 1038 989T1124 686V0H844V606Q844 728 803 794T662 860Q595 860 540 824T455 725T424 580V0H143V1176H10V1346H143Z" horiz-adv-x="1251" unicode="ћ"/>
			<glyph d="M141 1081H424V639Q459 640 481 650T534 700T616 825L741 1081H1016L811 700Q783 649 759 621T709 571L1026 0H739L506 459Q492 453 468 449T424 446V0H141ZM590 1501H848V1458L506 1184H336V1214Z" horiz-adv-x="1024" unicode="ќ"/>
			<glyph d="M141 1081H403V596Q403 420 397 328Q441 409 502 512L831 1081H1116V0H856V551Q856 571 861 701L864 758Q846 718 807 651L782 606L442 0H141ZM304 1501H562L813 1214V1184H644L304 1458Z" horiz-adv-x="1260" unicode="ѝ"/>
			<glyph d="M16 1081H315L485 580Q505 517 541 404T584 262Q592 298 626 419T672 575L831 1081H1128L700 -57Q646 -189 591 -268T462 -387T283 -426Q178 -426 106 -410L127 -190Q176 -199 203 -199Q258 -199 297 -184T366 -134T426 -37L444 10ZM194 1509H411V1470Q411 1390 447 1352T566 1315Q726 1315 726 1470V1509H943V1470Q943 1171 566 1171Q410 1171 328 1217T220 1328T194 1470Z" unicode="ў"/>
			<glyph d="M143 1081H426V211H811V1081H1094V0H741V-408H496V0H143Z" horiz-adv-x="1237" unicode="џ"/>
			<glyph d="M743 1821H993V1161H432V0H137V1409H743Z" horiz-adv-x="1038" unicode="Ґ"/>
			<glyph d="M584 1450H829V872H426V0H143V1081H584Z" horiz-adv-x="915" unicode="ґ"/>
			<glyph d="M2 1409H301L477 625Q528 398 551 279L564 344Q576 398 597 500T631 659L799 1409H1141L1313 659Q1337 548 1372 345L1384 279L1390 308Q1433 511 1462 625L1632 1409H1931L1573 0H1210L1026 815Q1012 877 996 956T976 1064L967 1114L954 1047Q917 868 905 815L721 0H358ZM637 1815H895L1147 1561V1530H977L637 1772Z" horiz-adv-x="1933" unicode="Ẁ"/>
			<glyph d="M-6 1081H262L399 446Q411 386 421 330T436 256Q439 277 451 343T473 446L643 1081H948L1114 446Q1128 391 1140 325T1153 256Q1156 279 1167 334T1190 446L1333 1081H1597L1319 0H1010L844 659Q831 709 816 780T797 881Q791 852 775 781T745 657L578 0H268ZM470 1501H728L979 1214V1184H810L470 1458Z" horiz-adv-x="1593" unicode="ẁ"/>
			<glyph d="M2 1409H301L477 625Q528 398 551 279L564 344Q576 398 597 500T631 659L799 1409H1141L1313 659Q1337 548 1372 345L1384 279L1390 308Q1433 511 1462 625L1632 1409H1931L1573 0H1210L1026 815Q1012 877 996 956T976 1064L967 1114L954 1047Q917 868 905 815L721 0H358ZM1041 1815H1299V1772L957 1530H787V1561Z" horiz-adv-x="1933" unicode="Ẃ"/>
			<glyph d="M-6 1081H262L399 446Q411 386 421 330T436 256Q439 277 451 343T473 446L643 1081H948L1114 446Q1128 391 1140 325T1153 256Q1156 279 1167 334T1190 446L1333 1081H1597L1319 0H1010L844 659Q831 709 816 780T797 881Q791 852 775 781T745 657L578 0H268ZM875 1501H1133V1458L791 1184H621V1214Z" horiz-adv-x="1593" unicode="ẃ"/>
			<glyph d="M2 1409H301L477 625Q528 398 551 279L564 344Q576 398 597 500T631 659L799 1409H1141L1313 659Q1337 548 1372 345L1384 279L1390 308Q1433 511 1462 625L1632 1409H1931L1573 0H1210L1026 815Q1012 877 996 956T976 1064L967 1114L954 1047Q917 868 905 815L721 0H358ZM766 1776Q822 1776 858 1740T895 1649Q895 1592 858 1556T766 1520Q708 1520 672 1555T637 1649Q637 1706 672 1741T766 1776ZM1176 1776Q1232 1776 1267 1740T1303 1649Q1303 1592 1267 1556T1176 1520Q1116 1520 1080 1555T1045 1649Q1045 1706 1080 1741T1176 1776Z" horiz-adv-x="1933" unicode="Ẅ"/>
			<glyph d="M-6 1081H262L399 446Q411 386 421 330T436 256Q439 277 451 343T473 446L643 1081H948L1114 446Q1128 391 1140 325T1153 256Q1156 279 1167 334T1190 446L1333 1081H1597L1319 0H1010L844 659Q831 709 816 780T797 881Q791 852 775 781T745 657L578 0H268ZM592 1454Q648 1454 683 1419T719 1327Q719 1269 683 1233T592 1198Q532 1198 496 1232T461 1327Q461 1384 496 1419T592 1454ZM1002 1454Q1058 1454 1094 1418T1131 1327Q1131 1269 1094 1233T1002 1198Q943 1198 908 1232T873 1327Q873 1384 908 1419T1002 1454Z" horiz-adv-x="1593" unicode="ẅ"/>
			<glyph d="M719 1430Q915 1430 1059 1359T1327 1133L1028 811Q1190 780 1286 689T1382 436Q1382 289 1311 186T1120 32T846 -20Q749 -20 612 4L655 231Q706 219 742 213T827 207Q898 207 959 230T1059 302T1098 426Q1098 627 803 627H737V817L985 1116Q935 1160 875 1182T727 1204Q608 1204 543 1158T455 1030T432 825V0H137V831Q137 1104 271 1267T719 1430Z" horiz-adv-x="1464" unicode="ẞ"/>
			<glyph d="M35 1409H344L682 813L1024 1409H1333L831 578V0H537V578ZM352 1815H610L862 1561V1530H692L352 1772Z" horiz-adv-x="1366" unicode="Ỳ"/>
			<glyph d="M16 1081H315L485 580Q505 517 541 404T584 262Q592 298 626 419T672 575L831 1081H1128L700 -57Q646 -189 591 -268T462 -387T283 -426Q178 -426 106 -410L127 -190Q176 -199 203 -199Q258 -199 297 -184T366 -134T426 -37L444 10ZM242 1501H500L751 1214V1184H582L242 1458Z" unicode="ỳ"/>
			<glyph d="M80 653H600V410H80Z" horiz-adv-x="682" unicode="‐"/>
			<glyph d="M61 651H1075V449H61Z" unicode="–"/>
			<glyph d="M0 651H2048V449H0Z" horiz-adv-x="2048" unicode="—"/>
			<glyph d="M0 651H2048V449H0Z" horiz-adv-x="2048" unicode="―"/>
			<glyph d="M-20 -86H1157V-205H-20ZM-20 -307H1157V-426H-20Z" horiz-adv-x="1130" unicode="‗"/>
			<glyph d="M313 1434L428 1354Q380 1286 346 1224T301 1100Q365 1090 402 1050T440 954Q440 887 397 845T287 803Q210 803 168 850T127 989Q127 1073 153 1150T217 1290T313 1434Z" horiz-adv-x="569" unicode="‘"/>
			<glyph d="M281 1423Q357 1423 398 1375T440 1237Q440 1153 414 1076T349 935T254 793L139 872Q187 940 220 1001T266 1126Q202 1136 164 1175T127 1272Q127 1339 170 1381T281 1423Z" horiz-adv-x="569" unicode="’"/>
			<glyph d="M283 287Q359 287 400 239T442 100Q442 16 416 -60T352 -200T256 -344L141 -264Q188 -199 222 -136T268 -10Q204 -1 166 38T129 135Q129 202 172 244T283 287Z" horiz-adv-x="569" unicode="‚"/>
			<glyph d="M287 1423Q355 1423 397 1381T440 1272Q440 1215 402 1175T301 1126Q313 1063 346 1001T428 872L313 793Q256 872 217 935T153 1076T127 1237Q127 1328 168 1375T287 1423Z" horiz-adv-x="569" unicode="‛"/>
			<glyph d="M330 1434L444 1354Q397 1287 363 1225T317 1100Q381 1090 419 1050T457 954Q457 887 414 845T303 803Q227 803 185 850T143 989Q143 1073 169 1150T234 1289T330 1434ZM754 1434L868 1354Q821 1287 787 1225T741 1100Q805 1090 843 1050T881 954Q881 887 838 845T727 803Q651 803 609 850T567 989Q567 1073 593 1150T658 1289T754 1434Z" horiz-adv-x="1024" unicode="“"/>
			<glyph d="M297 1423Q373 1423 415 1375T457 1237Q457 1153 430 1076T366 936T270 793L156 872Q203 939 236 1000T283 1126Q219 1136 181 1175T143 1272Q143 1339 186 1381T297 1423ZM721 1423Q797 1423 839 1375T881 1237Q881 1153 854 1076T790 936T694 793L580 872Q627 939 660 1000T707 1126Q643 1136 605 1175T567 1272Q567 1339 610 1381T721 1423Z" horiz-adv-x="1024" unicode="”"/>
			<glyph d="M297 287Q373 287 415 239T457 100Q457 16 430 -60T366 -199T270 -344L156 -264Q202 -200 236 -137T283 -10Q219 -1 181 38T143 135Q143 202 186 244T297 287ZM721 287Q797 287 839 239T881 100Q881 16 854 -60T790 -199T694 -344L580 -264Q626 -200 660 -137T707 -10Q643 -1 605 38T567 135Q567 202 610 244T721 287Z" horiz-adv-x="1024" unicode="„"/>
			<glyph d="M463 1485H676L670 1137H981L1001 934H670L668 -35L627 -164H512L471 -35L469 934H137L158 1137H469Z" unicode="†"/>
			<glyph d="M463 1485H676L670 1137H981L1001 934H670L668 784L627 655L668 526L670 377H1001L981 174H670L676 -174H463L469 174H158L137 377H469L471 526L512 655L471 784L469 934H137L158 1137H469Z" unicode="‡"/>
			<glyph d="M356 969Q436 969 503 929T611 823T651 676Q651 596 611 528T503 421T356 381Q278 381 211 421T105 528T66 676Q66 756 105 823T211 929T356 969Z" horiz-adv-x="717" unicode="•"/>
			<glyph d="M1514 322Q1588 322 1633 276T1678 156Q1678 82 1632 36T1514 -10Q1437 -10 1392 35T1348 156Q1348 232 1392 277T1514 322ZM899 322Q973 322 1018 276T1063 156Q1063 82 1017 36T899 -10Q822 -10 777 35T733 156Q733 232 777 277T899 322ZM285 322Q359 322 404 276T449 156Q449 82 403 36T285 -10Q208 -10 163 35T119 156Q119 232 163 277T285 322Z" horiz-adv-x="1798" unicode="…"/>
			<glyph d="M408 1425Q569 1425 664 1324T760 977Q760 741 662 634T403 528Q243 528 147 634T51 977Q51 1224 145 1324T408 1425ZM1266 1409H1475L553 0H346ZM408 1249Q357 1249 326 1224T280 1141T266 977Q266 875 281 815T326 730T406 705Q453 705 483 730T528 814T543 977Q543 1082 528 1141T484 1224T408 1249ZM1417 881Q1578 881 1672 779T1767 432Q1767 197 1670 90T1413 -16Q1251 -16 1155 90T1059 432Q1059 679 1154 780T1417 881ZM2195 881Q2357 881 2451 779T2546 432Q2546 197 2448 90T2191 -16Q2029 -16 1933 90T1837 432Q1837 679 1932 780T2195 881ZM1417 707Q1366 707 1335 682T1290 597T1276 432Q1276 329 1290 270T1335 187T1415 162Q1461 162 1491 186T1536 270T1552 432Q1552 538 1537 598T1493 682T1417 707ZM2195 707Q2144 707 2113 682T2068 597T2054 432Q2054 329 2068 270T2113 187T2193 162Q2239 162 2269 186T2315 270T2331 432Q2331 538 2316 598T2272 682T2195 707Z" horiz-adv-x="2597" unicode="‰"/>
			<glyph d="M150 1409H455L297 891H86Z" horiz-adv-x="492" unicode="′"/>
			<glyph d="M150 1409H455L297 891H86ZM639 1409H944L786 891H575Z" horiz-adv-x="981" unicode="″"/>
			<glyph d="M350 940H586V903L332 537L588 176V141H350L92 502V573Z" horiz-adv-x="682" unicode="‹"/>
			<glyph d="M94 940H334L590 573V502L334 141H92V176L348 537L94 903Z" horiz-adv-x="682" unicode="›"/>
			<glyph d="M193 1409H487L455 426H225ZM336 301Q410 301 455 258T500 145Q500 76 454 33T336 -10Q259 -10 214 32T170 145Q170 217 214 259T336 301ZM791 1409H1085L1053 426H823ZM934 301Q1008 301 1053 258T1098 145Q1098 76 1052 33T934 -10Q857 -10 812 32T768 145Q768 217 812 259T934 301Z" horiz-adv-x="1280" unicode="‼"/>
			<glyph d="M621 1430Q773 1430 883 1381T1053 1240T1112 1026Q1112 941 1083 877T1010 770T899 674Q845 632 812 600T757 526T733 426H467L434 1040H700L685 748Q701 772 738 819L752 836Q793 883 811 922T829 1014Q829 1102 774 1153T623 1204Q522 1204 448 1149T319 987L92 1094Q162 1248 293 1339T621 1430ZM602 301Q676 301 721 258T766 145Q766 76 720 33T602 -10Q526 -10 481 32T436 145Q436 216 481 258T602 301Z" horiz-adv-x="1231" unicode="‽"/>
			<glyph d="M-16 1546H1149V1452H-16Z" horiz-adv-x="1130" unicode="‾"/>
			<glyph d="M518 1409H719L-176 0H-377Z" horiz-adv-x="342" unicode="⁄"/>
			<glyph d="M494 1421Q598 1421 654 1365T711 1192V758H530V1143Q530 1216 504 1246T426 1276Q389 1276 358 1256T309 1199T291 1110V758H113V1270Q113 1321 111 1381V1409H276Q278 1399 280 1367T283 1311H285Q318 1363 370 1392T494 1421Z" horiz-adv-x="811" unicode="ⁿ"/>
			<glyph d="M137 1409H1092V1200H422V805H1059V598H422V408H735V258H422V0H137V258H6V408H137Z" unicode="₣"/>
			<glyph d="M625 1430Q759 1430 853 1384T1014 1255L842 1104Q793 1164 743 1191T631 1219Q541 1219 500 1166T459 999V938H786V782H459V676H786V520H459V514Q459 401 423 330T317 209H657Q758 209 812 257T885 401L1118 362Q1100 261 1050 179T918 48T725 0H33V205Q91 238 128 275T187 370T209 512V520H20V676H199V782H20V938H199V1022Q199 1215 302 1322T625 1430Z" unicode="₤"/>
			<glyph d="M137 1409H647Q809 1409 918 1352T1080 1192T1133 950Q1133 821 1081 713T922 540T659 475H432V0H137ZM1602 1346V1081H1817V872H1602V350Q1602 280 1626 247T1706 215Q1752 215 1808 227L1829 14Q1714 -18 1602 -18Q1466 -18 1394 55T1323 274V872H1186V1081H1337L1352 1325ZM432 1159V723H623Q729 723 782 783T836 946Q836 1051 780 1105T614 1159ZM2367 1102Q2495 1102 2600 1063T2779 946L2636 780Q2519 893 2370 893Q2204 893 2204 797Q2204 759 2226 736T2285 702T2389 676L2431 666Q2552 636 2629 601T2757 498T2808 315Q2808 212 2755 136T2601 20T2361 -20Q2221 -20 2112 17T1903 135L2030 328Q2119 259 2196 224T2361 190Q2451 190 2500 212T2550 293Q2550 334 2525 358T2460 397T2351 427L2290 442Q2182 470 2110 504T1992 604T1946 774Q1946 876 1995 949T2138 1062T2367 1102Z" horiz-adv-x="2871" unicode="₧"/>
			<glyph d="M666 1430Q822 1430 928 1365T1087 1186L842 1067Q812 1127 765 1158T657 1190Q554 1190 502 1120T435 915H756V766H426V711Q426 676 427 659H756V510H437Q454 373 508 296T670 219Q742 219 793 254T883 360L1102 240Q1050 118 942 49T666 -20Q433 -20 305 120T144 510H35V659H132Q131 676 131 711Q131 748 132 766H35V915H143Q176 1164 302 1297T666 1430Z" unicode="€"/>
			<glyph d="M70 1409H1024V1190H724Q788 1135 813 1055H1024V836H814Q787 718 712 639T532 530L913 0H588L260 473H70V692H293Q386 692 445 730T528 836H70V1055H528Q478 1190 287 1190H70Z" horiz-adv-x="1085" unicode="₹"/>
			<glyph d="M137 1409H432V1075L739 1223V1028L432 881V727L739 874V680L432 532V229H555Q664 229 724 283T803 442L1057 403Q1037 290 982 199T836 54T623 0H137V389L0 324V520L137 586V737L0 672V868L137 934Z" horiz-adv-x="1067" unicode="₺"/>
			<glyph d="M584 1409H831V1216Q1055 1186 1184 1046T1313 662V0H1044V653Q1044 792 987 876T831 993V205H584V999Q371 944 371 664V0H102V676Q102 840 163 955T333 1134T584 1218Z" horiz-adv-x="1415" unicode="₼"/>
			<glyph d="M178 1409H627Q803 1409 920 1356T1095 1207T1153 981Q1153 861 1096 760T924 598T639 537H473V410H786V203H473V0H178V203H39V410H178V537H43V764H178ZM473 1180V764H602Q728 764 792 821T856 977Q856 1077 790 1128T594 1180Z" horiz-adv-x="1223" unicode="₽"/>
			<glyph d="M436 1425Q545 1425 621 1387T756 1278L602 1157Q562 1199 528 1218T442 1237Q361 1237 313 1175T266 1006Q266 885 312 818T440 752Q486 752 520 765T577 797T637 852L766 727Q710 653 627 609T440 565Q315 565 227 622T96 778T53 997Q53 1147 110 1243T255 1382T436 1425ZM1282 1409H1491L569 0H362ZM1430 840Q1535 840 1618 793T1751 649T1800 410Q1800 275 1750 179T1615 33T1425 -16Q1318 -16 1233 33T1099 178T1051 410Q1051 554 1099 650T1233 793T1430 840ZM1430 666Q1348 666 1308 599T1268 410Q1268 292 1307 227T1427 162Q1502 162 1543 228T1585 410Q1585 532 1546 599T1430 666Z" horiz-adv-x="1853" unicode="℅"/>
			<glyph d="M573 1430Q740 1430 834 1352T928 1133Q928 939 804 797T453 578V377Q453 284 486 239T582 195Q659 195 702 246T770 408H915Q877 221 783 100T502 -20Q334 -20 253 63T172 309V475L145 465Q77 439 41 428V623L66 632Q146 660 174 672L172 1061Q172 1160 209 1243T335 1378T573 1430ZM578 1260Q513 1260 487 1220T461 1112V776Q567 821 627 910T688 1108Q688 1178 660 1219T578 1260Z" horiz-adv-x="1001" unicode="ℓ"/>
			<glyph d="M137 1409H463L1057 332Q1056 354 1052 430T1049 590V1409H1300V0H965L383 1065Q384 1043 386 970T389 831V0H137ZM1800 1073Q1920 1073 1999 1021T2116 884T2154 696Q2154 593 2113 506T1991 368T1796 317Q1687 317 1608 368T1487 506T1446 696Q1446 798 1486 884T1605 1021T1800 1073ZM1802 915Q1727 915 1686 860T1645 696Q1645 587 1685 531T1796 475Q1872 475 1913 530T1954 696Q1954 808 1916 861T1802 915ZM1483 186H2118V0H1483Z" horiz-adv-x="2236" unicode="№"/>
			<glyph d="M756 1430Q952 1430 1118 1332T1381 1069T1479 707Q1479 510 1381 344T1118 81T756 -16Q560 -16 394 81T130 344T33 707Q33 903 130 1069T393 1332T756 1430ZM756 1315Q591 1315 451 1233T229 1011T147 707Q147 541 229 400T451 178T756 96Q922 96 1062 178T1284 400T1366 707Q1366 872 1284 1011T1062 1233T756 1315ZM483 1112H813Q963 1112 1040 1043T1118 850Q1118 753 1075 690T965 598T821 569H662V297H483ZM662 975V709H805Q870 709 904 746T938 848Q938 909 900 942T795 975Z" horiz-adv-x="1509" unicode="℗"/>
			<glyph d="M125 1409H717V1260H508V727H328V1260H125ZM811 1409H1059L1198 1067Q1219 1018 1235 976Q1244 956 1251 938T1264 907H1266Q1301 1004 1327 1067L1470 1409H1714V727H1548V1108Q1548 1154 1553 1226L1556 1260L1327 727H1196L971 1260Q977 1196 977 1108V727H811Z" horiz-adv-x="1966" unicode="™"/>
			<glyph d="M821 1430Q1028 1430 1179 1358T1412 1150T1493 827Q1493 627 1399 481T1104 238L1140 241Q1224 248 1274 248H1522V0H893V330Q1060 410 1131 517T1202 774Q1202 968 1103 1073T821 1178Q640 1178 541 1072T442 774Q442 625 514 517T756 330V0H119V248H369Q407 248 457 244T522 240L543 238Q332 335 239 479T147 829Q147 1015 228 1150T461 1358T821 1430Z" horiz-adv-x="1642" unicode="Ω"/>
			<glyph d="M618 1096Q769 1096 890 1027T1080 829T1149 530H322V174Q370 123 450 87T618 51Q760 51 850 108T1014 285L1085 244Q1030 157 971 97T825 1T618 -35Q452 -35 332 43T150 250T88 530Q88 717 165 844T363 1034T618 1096ZM616 1012Q522 1012 449 979T322 895V616H918V893Q871 940 792 976T616 1012Z" horiz-adv-x="1229" unicode="℮"/>
			<glyph d="M311 1409H489V727H700V563H98V727H301V1216L117 1077V1272ZM1322 1409H1523L628 0H427ZM1521 858Q1611 858 1677 828T1777 748T1812 639Q1812 493 1678 434V432Q1750 410 1792 356T1834 231Q1834 163 1798 108T1691 20T1515 -12Q1419 -12 1355 16T1254 88T1189 190L1355 266Q1377 226 1396 203T1444 168T1515 156Q1571 156 1606 180T1642 250Q1642 297 1605 321T1498 346H1414V516H1494Q1558 516 1589 540T1621 606Q1621 647 1592 668T1517 690Q1462 690 1424 664T1355 586L1205 672Q1247 759 1331 808T1521 858Z" horiz-adv-x="1889" unicode="⅓"/>
			<glyph d="M387 1421Q475 1421 539 1390T636 1308T670 1194Q670 1138 648 1092T599 1014T516 928L315 729H680V563H66V706L412 1057Q448 1097 462 1120T477 1173Q477 1209 452 1232T379 1255Q331 1255 295 1232T217 1159L74 1263Q188 1421 387 1421ZM1302 1409H1503L608 0H407ZM1501 858Q1591 858 1657 828T1757 748T1792 639Q1792 493 1658 434V432Q1730 410 1772 356T1814 231Q1814 163 1778 108T1671 20T1495 -12Q1399 -12 1335 16T1234 88T1169 190L1335 266Q1357 226 1376 203T1424 168T1495 156Q1551 156 1586 180T1622 250Q1622 297 1585 321T1478 346H1394V516H1474Q1538 516 1569 540T1601 606Q1601 647 1572 668T1497 690Q1442 690 1404 664T1335 586L1185 672Q1227 759 1311 808T1501 858Z" horiz-adv-x="1869" unicode="⅔"/>
			<glyph d="M311 1409H489V727H700V563H98V727H301V1216L117 1077V1272ZM1322 1409H1523L628 0H427ZM1515 858Q1606 858 1674 828T1779 746T1816 631Q1816 565 1788 523T1703 444V442Q1763 416 1799 362T1836 242Q1836 168 1797 110T1685 20T1517 -12Q1421 -12 1348 20T1236 110T1197 240Q1197 308 1235 362T1330 442V444Q1272 486 1246 526T1220 633Q1220 696 1258 747T1363 828T1515 858ZM1515 711Q1470 711 1439 684T1408 616Q1408 574 1437 545T1515 516Q1568 516 1594 544T1621 616Q1621 659 1592 685T1515 711ZM1513 373Q1476 373 1448 356T1405 313T1390 256Q1390 203 1425 169T1519 135Q1576 135 1609 169T1642 258Q1642 287 1627 313T1582 356T1513 373Z" horiz-adv-x="1889" unicode="⅛"/>
			<glyph d="M375 1421Q465 1421 531 1391T631 1311T666 1202Q666 1056 532 997V995Q604 973 646 919T688 794Q688 726 652 671T545 583T369 551Q273 551 209 579T108 651T43 753L209 829Q231 789 250 766T298 731T369 719Q425 719 460 743T496 813Q496 860 459 884T352 909H268V1079H348Q412 1079 443 1103T475 1169Q475 1210 446 1231T371 1253Q316 1253 278 1227T209 1149L59 1235Q101 1322 185 1371T375 1421ZM1261 1409H1462L567 0H366ZM1454 858Q1545 858 1613 828T1718 746T1755 631Q1755 565 1727 523T1642 444V442Q1702 416 1738 362T1775 242Q1775 168 1736 110T1624 20T1456 -12Q1360 -12 1287 20T1175 110T1136 240Q1136 308 1174 362T1269 442V444Q1211 486 1185 526T1159 633Q1159 696 1197 747T1302 828T1454 858ZM1454 711Q1409 711 1378 684T1347 616Q1347 574 1376 545T1454 516Q1507 516 1533 544T1560 616Q1560 659 1531 685T1454 711ZM1452 373Q1415 373 1387 356T1344 313T1329 256Q1329 203 1364 169T1458 135Q1515 135 1548 169T1581 258Q1581 287 1566 313T1521 356T1452 373Z" horiz-adv-x="1828" unicode="⅜"/>
			<glyph d="M94 1409H643V1243H263L258 1093Q323 1138 410 1138Q495 1138 559 1100T657 996T692 846Q692 760 654 693T543 588T365 551Q251 551 176 591T51 704L209 811Q242 768 274 743T362 719Q424 719 462 751T500 844Q500 899 467 935T371 971Q329 971 297 955T227 903L74 969ZM1261 1409H1462L567 0H366ZM1454 858Q1545 858 1613 828T1718 746T1755 631Q1755 565 1727 523T1642 444V442Q1702 416 1738 362T1775 242Q1775 168 1736 110T1624 20T1456 -12Q1360 -12 1287 20T1175 110T1136 240Q1136 308 1174 362T1269 442V444Q1211 486 1185 526T1159 633Q1159 696 1197 747T1302 828T1454 858ZM1454 711Q1409 711 1378 684T1347 616Q1347 574 1376 545T1454 516Q1507 516 1533 544T1560 616Q1560 659 1531 685T1454 711ZM1452 373Q1415 373 1387 356T1344 313T1329 256Q1329 203 1364 169T1458 135Q1515 135 1548 169T1581 258Q1581 287 1566 313T1521 356T1452 373Z" horiz-adv-x="1828" unicode="⅝"/>
			<glyph d="M80 1409H664V1263L375 563H172L469 1243H80ZM1140 1409H1341L446 0H245ZM1333 858Q1424 858 1492 828T1597 746T1634 631Q1634 565 1606 523T1521 444V442Q1581 416 1617 362T1654 242Q1654 168 1615 110T1503 20T1335 -12Q1239 -12 1166 20T1054 110T1015 240Q1015 308 1053 362T1148 442V444Q1090 486 1064 526T1038 633Q1038 696 1076 747T1181 828T1333 858ZM1333 711Q1288 711 1257 684T1226 616Q1226 574 1255 545T1333 516Q1386 516 1412 544T1439 616Q1439 659 1410 685T1333 711ZM1331 373Q1294 373 1266 356T1223 313T1208 256Q1208 203 1243 169T1337 135Q1394 135 1427 169T1460 258Q1460 287 1445 313T1400 356T1331 373Z" horiz-adv-x="1707" unicode="⅞"/>
			<glyph d="M549 1468Q689 1468 777 1392T904 1191T944 907Q944 803 932 695T897 494Q839 249 713 112T393 -25Q216 -25 134 85T53 371Q53 503 98 645T240 885T483 983Q560 983 621 940T713 821H717Q719 848 719 911Q719 1087 665 1180T502 1274Q451 1274 392 1254T293 1206L338 1411Q380 1436 434 1452T549 1468ZM528 813Q452 813 398 741T318 566T291 375Q291 281 326 225T424 170Q489 170 543 237T633 413T684 645Q672 718 628 765T528 813Z" horiz-adv-x="1012" unicode="∂"/>
			<glyph d="M530 1409H897L1337 215V0H92V215ZM712 1210Q660 1050 633 971L385 231H1044L799 971Z" horiz-adv-x="1430" unicode="∆"/>
			<glyph d="M205 1409H1483V-426H1196V1165H496V-426H205Z" horiz-adv-x="1686" unicode="∏"/>
			<glyph d="M154 1409H1290V1182H524L1053 500L506 -199H1348V-426H133V-266L739 496L154 1257Z" horiz-adv-x="1460" unicode="∑"/>
			<glyph d="M86 793H1112V569H86Z" horiz-adv-x="1196" unicode="−"/>
			<glyph d="M311 1485H549L262 -41H20Z" horiz-adv-x="569" unicode="∕"/>
			<glyph d="M356 969Q436 969 503 929T611 823T651 676Q651 596 611 528T503 421T356 381Q278 381 211 421T105 528T66 676Q66 756 105 823T211 929T356 969Z" horiz-adv-x="717" unicode="∙"/>
			<glyph d="M965 1620H1151L645 -25H477L207 729H23V895H334L553 260Z" horiz-adv-x="1124" unicode="√"/>
			<glyph d="M397 965Q501 965 583 907T729 725Q858 954 1055 954Q1154 954 1230 909T1347 780T1389 584Q1389 485 1348 400T1233 265T1067 215Q960 215 877 272T729 455Q669 349 586 287T397 225Q303 225 229 270T113 401T72 598Q72 700 113 784T229 916T397 965ZM428 793Q380 793 342 767T283 696T262 596Q262 512 305 455T428 399Q487 399 535 447T631 596Q584 698 538 745T428 793ZM1042 782Q983 782 929 733T827 586Q875 487 924 438T1040 389Q1113 389 1155 444T1198 586Q1198 670 1156 726T1042 782Z" horiz-adv-x="1460" unicode="∞"/>
			<glyph d="M547 1487Q587 1487 631 1481T702 1468V1229Q680 1239 648 1246T584 1253Q500 1253 463 1205T426 1079V-45Q426 -163 380 -248T245 -380T27 -426Q-13 -426 -57 -420T-129 -406V-168Q-96 -179 -68 -186T-10 -193Q145 -193 145 -16V1106Q145 1223 191 1308T327 1440T547 1487Z" horiz-adv-x="561" unicode="∫"/>
			<glyph d="M313 1079Q386 1079 453 1061T633 1006Q754 963 834 963Q900 963 964 987T1081 1055V836Q1018 791 958 773T813 756Q747 756 679 773T518 823Q388 870 299 870Q224 870 167 849T43 782V995Q95 1035 163 1057T313 1079ZM313 598Q387 598 459 579T633 526Q694 505 742 493T834 481Q899 481 963 505T1081 573V354Q1017 310 956 292T813 274Q748 274 684 291T518 344Q393 389 299 389Q225 389 168 368T43 301V514Q96 554 164 576T313 598Z" horiz-adv-x="1124" unicode="≈"/>
			<glyph d="M764 1323H975L844 1065H1096V842H735L569 512H1096V291H461L332 37H119L248 291H29V512H356L522 842H29V1065H631Z" horiz-adv-x="1124" unicode="≠"/>
			<glyph d="M1075 1298V1071L244 791L1075 512V285L49 631V952ZM49 223H1073V0H49Z" horiz-adv-x="1124" unicode="≤"/>
			<glyph d="M49 1298L1075 952V631L49 285V512L881 791L49 1071ZM49 223H1075V0H49Z" horiz-adv-x="1124" unicode="≥"/>
			<glyph d="M455 1446H557L1012 723L557 0H455L2 721ZM508 1204L217 723L508 229L797 723Z" horiz-adv-x="1012" unicode="◊"/>
			<glyph d="M-234 -61Q-175 -61 -140 -97T-105 -201Q-105 -266 -137 -321T-224 -432L-306 -371Q-279 -336 -264 -313T-246 -264Q-294 -258 -322 -230T-351 -162Q-351 -119 -317 -90T-234 -61Z" horiz-adv-x="0" unicode=""/>
			<glyph d="M129 1409H897V0H129ZM256 1282V129H768V1282Z" horiz-adv-x="1024" unicode=""/>
			<glyph d="M1171 1485Q1250 1485 1339 1468L1319 1266Q1277 1276 1223 1276Q1164 1276 1140 1245T1116 1147V1081H1339V872H1116V0H836V872H473V0H193V872H35V1081H193V1163Q193 1309 264 1392T508 1475Q576 1475 676 1458L655 1255Q617 1266 559 1266Q512 1266 492 1235T473 1137V1081H836V1174Q836 1320 912 1402T1171 1485Z" horiz-adv-x="1335" unicode="ﬀ"/>
			<glyph d="M528 1485Q607 1485 696 1468L676 1266Q634 1276 580 1276Q521 1276 497 1245T473 1147V1081H696V872H473V0H193V872H35V1081H193V1174Q193 1320 269 1402T528 1485ZM977 1540Q1048 1540 1090 1497T1132 1382Q1132 1311 1089 1268T977 1225Q903 1225 861 1267T819 1382Q819 1455 861 1497T977 1540ZM835 1081H1116V0H835Z" horiz-adv-x="1261" unicode="ﬁ"/>
			<glyph d="M528 1485Q607 1485 696 1468L676 1266Q634 1276 580 1276Q521 1276 497 1245T473 1147V1081H696V872H473V0H193V872H35V1081H193V1174Q193 1320 269 1402T528 1485ZM825 1485H1106V332Q1106 285 1113 259T1141 222T1202 211Q1226 211 1253 217L1263 0Q1191 -14 1114 -14Q967 -14 896 61T825 262Z" horiz-adv-x="1294" unicode="ﬂ"/>
			<glyph d="M1171 1485Q1250 1485 1339 1468L1319 1266Q1277 1276 1223 1276Q1164 1276 1140 1245T1116 1147V1081H1339V872H1116V0H836V872H473V0H193V872H35V1081H193V1163Q193 1309 264 1392T508 1475Q576 1475 676 1458L655 1255Q617 1266 559 1266Q512 1266 492 1235T473 1137V1081H836V1174Q836 1320 912 1402T1171 1485ZM1620 1540Q1691 1540 1733 1497T1775 1382Q1775 1311 1732 1268T1620 1225Q1546 1225 1504 1267T1462 1382Q1462 1455 1504 1497T1620 1540ZM1478 1081H1759V0H1478Z" horiz-adv-x="1904" unicode="ﬃ"/>
			<glyph d="M1171 1485Q1250 1485 1339 1468L1319 1266Q1277 1276 1223 1276Q1164 1276 1140 1245T1116 1147V1081H1339V872H1116V0H836V872H473V0H193V872H35V1081H193V1163Q193 1309 264 1392T508 1475Q576 1475 676 1458L655 1255Q617 1266 559 1266Q512 1266 492 1235T473 1137V1081H836V1174Q836 1320 912 1402T1171 1485ZM1468 1485H1749V332Q1749 285 1756 259T1784 222T1845 211Q1869 211 1896 217L1906 0Q1834 -14 1757 -14Q1610 -14 1539 61T1468 262Z" horiz-adv-x="1937" unicode="ﬄ"/>
			<glyph d="" horiz-adv-x="0" unicode="﻿"/>
		</font>
</defs>
</svg>
