<?xml version="1.0" encoding="UTF-8"?>
<svg height="100%" width="100%" xmlns="http://www.w3.org/2000/svg">
	<defs>
		<font horiz-adv-x="1042" id="web">
			<font-face alphabetic="0" ascent="1854" descent="-434" font-family="" panose-1="2 11 8 6 3 0 0 0 0 3" units-per-em="2048"/>
			<missing-glyph d="M129 1409H897V0H129ZM256 1282V129H768V1282Z" horiz-adv-x="1024"/>
			<glyph d="" horiz-adv-x="369" unicode=" "/>
			<glyph d="M100 1409H381L353 427H127ZM241 298Q312 298 355 256T398 145Q398 76 355 33T241 -10Q167 -10 124 32T81 145Q81 214 124 256T241 298Z" horiz-adv-x="479" unicode="!"/>
			<glyph d="M75 1409H324L302 946H96ZM431 1409H681L659 946H453Z" horiz-adv-x="757" unicode="&quot;"/>
			<glyph d="M318 1409H468L405 1025H601L661 1409H812L752 1025H883V876H723L670 531H842V381H646L584 0H437L495 381H300L242 0H92L151 381H27V531H178L233 876H66V1025H258ZM381 876L327 531H521L575 876Z" horiz-adv-x="909" unicode="#"/>
			<glyph d="M440 1521H574V1384Q701 1373 786 1315T928 1144L722 1038Q690 1102 654 1134T574 1177V827Q696 787 776 742T907 618T958 416Q958 250 858 146T574 24V-152H440V22Q302 32 199 97T34 278L218 410Q269 331 319 290T440 239V626Q325 662 246 711T122 836T78 1024Q78 1130 123 1208T250 1330T440 1385ZM440 1174Q381 1163 353 1126T325 1037Q325 976 352 938T440 874ZM574 583V242Q640 256 675 296T710 403Q710 474 677 514T574 583Z" horiz-adv-x="1011" unicode="$"/>
			<glyph d="M350 1424Q478 1424 556 1322T635 976Q635 817 596 716T492 571T348 527Q220 527 140 634T61 976Q61 1222 139 1323T350 1424ZM1026 1409H1210L503 0H321ZM350 1262Q316 1262 299 1233T278 1146T273 976Q273 867 278 809T299 722T348 694Q379 694 395 722T416 810T422 976Q422 1087 417 1146T396 1234T350 1262ZM1181 881Q1309 881 1388 778T1467 431Q1467 273 1428 173T1324 28T1179 -16Q1051 -16 971 90T892 431Q892 881 1181 881ZM1181 717Q1147 717 1131 689T1110 602T1105 431Q1105 323 1110 265T1131 178T1181 149Q1212 149 1227 178T1248 265T1254 431Q1254 542 1248 601T1227 689T1181 717Z" horiz-adv-x="1527" unicode="%"/>
			<glyph d="M490 1417Q591 1417 661 1381T768 1282T804 1133Q804 1052 780 992T704 877T556 749L565 736L724 498Q771 616 799 760L1006 707Q955 467 859 296L1053 5V0H807L727 120Q585 -20 406 -20Q224 -20 125 80T26 361Q26 495 87 594T276 789Q216 879 188 948T160 1103Q160 1192 195 1263T304 1375T490 1417ZM485 1229Q428 1229 401 1195T375 1105Q375 1059 393 1013T450 907Q529 964 557 1009T586 1114Q586 1168 561 1198T485 1229ZM390 623Q325 563 298 504T272 374Q272 288 314 238T429 188Q526 188 611 293L392 620Z" horiz-adv-x="1086" unicode="&amp;"/>
			<glyph d="M75 1409H324L302 946H96Z" horiz-adv-x="400" unicode="'"/>
			<glyph d="M332 1454H593Q499 1302 446 1155T373 855T352 511Q352 320 373 168T446 -129T593 -426H332Q239 -279 185 -136T107 163T84 513Q84 708 107 864T185 1163T332 1454Z" horiz-adv-x="609" unicode="("/>
			<glyph d="M19 1454H277Q371 1306 425 1163T503 864T527 513Q527 319 503 163T425 -136T277 -426H19Q113 -275 165 -129T238 168T259 511Q259 703 238 856T165 1155T19 1454Z" horiz-adv-x="609" unicode=")"/>
			<glyph d="M295 1409H497L474 1095L694 1208L770 1020L524 950L694 688L526 596L395 890L259 598L91 689L264 950L18 1020L94 1209L315 1094Z" horiz-adv-x="790" unicode="*"/>
			<glyph d="M349 1222H573V794H870V569H573V140H349V569H48V794H349Z" horiz-adv-x="920" unicode="+"/>
			<glyph d="M211 311Q286 311 327 264T369 132Q369 45 343 -34T280 -177T189 -317L83 -247Q177 -109 197 3Q133 13 95 54T58 156Q58 224 101 267T211 311Z" horiz-adv-x="427" unicode=","/>
			<glyph d="M61 645H458V398H61Z" horiz-adv-x="518" unicode="-"/>
			<glyph d="M214 312Q286 312 329 268T372 152Q372 80 328 35T214 -10Q140 -10 97 34T54 152Q54 224 97 268T214 312Z" horiz-adv-x="427" unicode="."/>
			<glyph d="M466 1455H725L265 0H4Z" horiz-adv-x="731" unicode="/"/>
			<glyph d="M463 1430Q591 1430 679 1364T817 1139T866 705Q866 320 760 150T459 -20Q261 -20 156 148T52 705Q52 980 100 1139T239 1364T463 1430ZM461 1198Q401 1198 372 1155T333 1010T323 705Q323 504 333 402T372 257T461 213Q517 213 545 257T584 404T595 705Q595 910 585 1012T547 1156T461 1198Z" horiz-adv-x="920" unicode="0"/>
			<glyph d="M381 1409H629V231H850V0H86V231H360V1114L106 904V1180Z" horiz-adv-x="920" unicode="1"/>
			<glyph d="M464 1430Q581 1430 668 1384T801 1251T848 1047Q848 953 816 868T741 715T618 542L388 235H864V0H50V197L368 627Q443 727 482 787T544 909T567 1037Q567 1115 541 1154T458 1193Q405 1193 373 1156T318 1041L62 1089Q91 1242 192 1336T464 1430Z" horiz-adv-x="920" unicode="2"/>
			<glyph d="M459 1430Q598 1430 685 1378T810 1243T849 1055Q849 929 790 842T628 724V720Q708 708 764 662T848 545T877 392Q877 195 775 86T463 -22Q267 -22 171 74T51 323L303 370Q318 297 353 255T459 214Q535 214 568 262T602 409Q602 599 414 599H331V835H409Q486 835 531 875T576 1020Q576 1107 548 1152T455 1197Q414 1197 388 1182T349 1141T323 1070L74 1115Q98 1268 196 1349T459 1430Z" horiz-adv-x="920" unicode="3"/>
			<glyph d="M452 1409H761V501H882V272H761V0H506V272H35V510ZM506 1064L252 501H506Z" horiz-adv-x="920" unicode="4"/>
			<glyph d="M106 1409H805V1178H352L336 860Q372 894 420 914T540 934Q642 934 718 876T835 713T877 470Q877 246 771 113T448 -20Q285 -20 186 60T60 275L300 343Q326 276 361 245T451 214Q529 214 565 277T601 464Q601 575 567 635T462 695Q413 695 382 675T317 613L78 715Z" horiz-adv-x="920" unicode="5"/>
			<glyph d="M491 1430Q626 1430 712 1364T843 1150L593 1087Q574 1146 550 1171T484 1197Q400 1197 361 1095T323 773Q360 841 415 875T557 909Q647 909 720 854T834 698T876 461Q876 318 830 209T697 40T485 -20Q275 -20 166 155T58 672Q58 1051 163 1240T491 1430ZM471 689Q410 689 374 637T339 483Q339 362 372 286T477 210Q544 210 574 272T605 453Q605 567 573 628T471 689Z" horiz-adv-x="920" unicode="6"/>
			<glyph d="M60 1409H852V1184L460 0H174L590 1174H60Z" horiz-adv-x="920" unicode="7"/>
			<glyph d="M457 1430Q665 1430 757 1329T849 1064Q849 991 825 923T758 807T661 743V739Q722 724 770 681T847 566T876 397Q876 204 775 92T459 -20Q245 -20 144 92T43 395Q43 492 73 565T151 680T256 737V741Q201 759 158 807T91 924T67 1066Q67 1171 108 1253T236 1382T457 1430ZM457 1221Q393 1221 368 1173T343 1039Q343 952 367 898T459 844Q529 844 551 897T574 1039Q574 1126 548 1173T457 1221ZM459 635Q381 635 350 575T319 417Q319 308 350 249T461 190Q541 190 570 248T599 421Q599 519 570 577T459 635Z" horiz-adv-x="920" unicode="8"/>
			<glyph d="M453 1430Q660 1430 764 1258T868 728Q868 350 762 165T439 -20Q297 -20 207 45T79 244L317 316Q340 259 369 235T444 212Q502 212 536 256T585 390T600 627Q568 560 511 525T381 490Q282 490 206 547T89 710T48 959Q48 1186 150 1308T453 1430ZM449 1198Q380 1198 350 1136T320 956Q320 841 349 776T450 711Q514 711 550 766T587 924Q587 1047 553 1122T449 1198Z" horiz-adv-x="920" unicode="9"/>
			<glyph d="M214 1036Q286 1036 329 991T372 875Q372 803 329 758T214 714Q140 714 97 758T54 875Q54 948 97 992T214 1036ZM214 312Q286 312 329 268T372 152Q372 80 328 35T214 -10Q140 -10 97 34T54 152Q54 224 97 268T214 312Z" horiz-adv-x="427" unicode=":"/>
			<glyph d="M214 1036Q286 1036 329 991T372 875Q372 803 329 758T214 714Q140 714 97 758T54 875Q54 948 97 992T214 1036ZM211 311Q286 311 327 264T369 132Q369 45 343 -34T280 -177T189 -317L83 -247Q177 -109 197 3Q133 13 95 54T58 156Q58 224 101 267T211 311Z" horiz-adv-x="427" unicode=";"/>
			<glyph d="M872 1230V1000L242 677L872 353V124L49 535V818Z" horiz-adv-x="920" unicode="&lt;"/>
			<glyph d="M48 1066H870V841H48ZM48 514H870V288H48Z" horiz-adv-x="920" unicode="="/>
			<glyph d="M48 1230L870 818V535L48 124V353L679 677L48 1000Z" horiz-adv-x="920" unicode="&gt;"/>
			<glyph d="M443 1429Q570 1429 660 1381T796 1245T843 1043Q843 953 819 885T762 771T678 675Q615 613 589 581T553 517T539 425H286Q290 515 305 568T355 669T466 794Q524 853 548 907T572 1039Q572 1110 542 1154T449 1198Q387 1198 354 1157T296 1029L32 1073Q59 1231 157 1330T443 1429ZM414 298Q485 298 527 256T570 145Q570 76 527 33T414 -10Q340 -10 297 32T254 145Q254 214 297 256T414 298Z" horiz-adv-x="871" unicode="?"/>
			<glyph d="M761 1454Q970 1454 1121 1349T1350 1061T1428 648Q1428 365 1353 229T1121 94Q1044 94 993 131T918 254H916Q842 72 679 72Q577 72 507 136T403 315T368 584Q368 739 406 853T516 1030T683 1092Q756 1092 804 1055T885 944H887Q887 980 890 1023T898 1071H1073Q1069 1027 1069 791V438Q1069 368 1074 329T1094 269T1140 249Q1196 249 1222 353T1249 641Q1249 835 1188 981T1018 1206T763 1285Q585 1285 460 1187T272 925T209 563Q209 377 270 225T450 -15T732 -104Q855 -104 949 -66T1125 26L1210 -119Q1105 -187 990 -229T732 -272Q514 -272 354 -161T111 140T28 563Q28 817 112 1019T362 1337T761 1454ZM718 931Q643 931 603 839T564 591Q564 421 600 330T710 239Q760 239 799 278T862 395T885 586Q885 931 718 931Z" horiz-adv-x="1455" unicode="@"/>
			<glyph d="M385 1409H710L1093 0H815L740 316H355L280 0H0ZM547 1137Q545 1118 504 939L409 540H686L591 939Q576 1004 556 1097Q548 1136 547 1137Z" horiz-adv-x="1093" unicode="A"/>
			<glyph d="M136 1409H565Q776 1409 889 1324T1003 1064Q1003 944 945 857T786 741Q910 721 980 630T1051 396Q1051 259 992 170T833 40T610 0H136ZM419 1192V835H554Q649 835 683 882T718 1022Q718 1082 703 1119T652 1174T552 1192ZM419 629V217H585Q675 217 721 265T767 427Q767 533 716 581T575 629Z" horiz-adv-x="1095" unicode="B"/>
			<glyph d="M607 1430Q731 1430 817 1394T964 1284T1073 1086L822 1000Q788 1088 740 1136T613 1184Q366 1184 366 711Q366 486 428 355T618 225Q672 225 710 249T774 314T828 420L1085 331Q1019 163 906 71T618 -20Q442 -20 321 73T140 330T80 711Q80 933 139 1094T316 1343T607 1430Z" horiz-adv-x="1125" unicode="C"/>
			<glyph d="M136 1409H564Q732 1409 857 1334T1053 1103T1124 715Q1124 487 1057 326T874 82T610 0H136ZM419 1164V245H570Q651 245 712 298T807 456T841 715Q841 946 763 1055T540 1164Z" horiz-adv-x="1204" unicode="D"/>
			<glyph d="M136 1409H925V1169H419V833H878V599H419V239H955V0H136Z" horiz-adv-x="1017" unicode="E"/>
			<glyph d="M136 1409H890V1162H419V805H873V564H419V0H136Z" horiz-adv-x="948" unicode="F"/>
			<glyph d="M608 1430Q783 1430 894 1347T1069 1108L818 1016Q749 1184 610 1184Q487 1184 426 1058T366 711Q366 487 428 356T618 225Q728 225 788 297T848 490V530H610V745H1095V0H892V143Q842 63 767 21T595 -20Q425 -20 309 72T137 330T80 711Q80 934 138 1095T315 1343T608 1430Z" horiz-adv-x="1194" unicode="G"/>
			<glyph d="M136 1409H419V856H845V1409H1128V0H845V602H419V0H136Z" horiz-adv-x="1264" unicode="H"/>
			<glyph d="M136 1409H419V0H136Z" horiz-adv-x="557" unicode="I"/>
			<glyph d="M548 1409H831V433Q831 218 732 99T437 -20Q251 -20 151 64T11 330L273 394Q301 305 334 264T428 223Q548 223 548 397Z" horiz-adv-x="954" unicode="J"/>
			<glyph d="M136 1409H419V794L792 1409H1107L691 793L1143 0H824L503 592L419 487V0H136Z" horiz-adv-x="1140" unicode="K"/>
			<glyph d="M120 1409H403V244H854V0H120Z" horiz-adv-x="894" unicode="L"/>
			<glyph d="M136 1409H527L718 689Q734 626 759 493T785 345Q794 393 818 513T856 693L1040 1409H1428V0H1174V839Q1174 872 1177 1049L1178 1129Q1170 1098 1151 1018T1115 872L898 0H671L446 872Q408 1024 385 1129Q386 1098 387 1013T389 841V0H136Z" horiz-adv-x="1567" unicode="M"/>
			<glyph d="M136 1409H473L929 365Q929 370 925 445T922 625V1409H1175V0H836L385 1036Q386 1013 388 936T390 797V0H136Z" horiz-adv-x="1315" unicode="N"/>
			<glyph d="M634 1430Q816 1430 940 1342T1126 1092T1189 711Q1189 489 1125 324T936 70T634 -20Q449 -20 325 72T140 329T80 711Q80 933 142 1094T328 1343T634 1430ZM634 1184Q547 1184 487 1126T396 961T366 711Q366 567 397 457T488 286T634 225Q768 225 835 357T902 711Q902 854 871 960T780 1125T634 1184Z" horiz-adv-x="1268" unicode="O"/>
			<glyph d="M136 1409H589Q725 1409 817 1354T955 1201T1001 968Q1001 842 956 739T820 575T598 514H419V0H136ZM419 1187V735H556Q640 735 679 797T719 966Q719 1073 677 1130T549 1187Z" horiz-adv-x="1059" unicode="P"/>
			<glyph d="M634 1430Q816 1430 940 1342T1126 1092T1189 711Q1189 501 1131 341T962 90L1058 -91L839 -194L750 -9Q693 -20 634 -20Q449 -20 325 72T140 329T80 711Q80 933 142 1094T328 1343T634 1430ZM634 1184Q547 1184 487 1126T396 961T366 711Q366 567 397 457T488 286T634 225H638L568 371L764 465L828 344Q865 408 883 502T902 711Q902 854 871 960T780 1125T634 1184Z" horiz-adv-x="1268" unicode="Q"/>
			<glyph d="M136 1409H589Q790 1409 895 1297T1001 987Q1001 839 938 739T775 589L1060 0H752L514 545H419V0H136ZM419 1187V766H548Q634 766 676 826T719 985Q719 1082 673 1134T542 1187Z" horiz-adv-x="1084" unicode="R"/>
			<glyph d="M530 1430Q638 1430 717 1403T858 1322T973 1181L763 1047Q711 1128 659 1164T536 1200Q452 1200 408 1158T365 1050Q365 991 392 955T464 899T602 846Q733 801 813 757T948 630T1003 409Q1003 281 950 184T789 34T523 -20Q197 -20 44 249L248 404Q292 337 332 297T420 238T533 218Q625 218 676 264T728 390Q728 452 700 489T629 547T511 593Q497 597 469 607Q353 647 272 695T141 827T90 1039Q90 1160 147 1248T304 1383T530 1430Z" horiz-adv-x="1064" unicode="S"/>
			<glyph d="M29 1409H939V1163H622V0H339V1163H29Z" horiz-adv-x="970" unicode="T"/>
			<glyph d="M122 1409H405V530Q405 364 453 294T601 225Q704 225 755 299T807 542V1409H1087V543Q1087 259 958 119T594 -20Q367 -20 244 114T122 529Z" horiz-adv-x="1211" unicode="U"/>
			<glyph d="M-6 1409H285L457 604Q469 553 481 480T501 350T511 277Q513 293 519 349T537 479T562 604L733 1409H1022L665 0H351Z" horiz-adv-x="1018" unicode="V"/>
			<glyph d="M16 1409H303L447 618Q464 523 472 465T492 320Q493 311 497 276Q512 365 526 456Q535 510 549 595T572 728L695 1409H987L1108 723Q1130 598 1176 276L1195 395Q1222 565 1232 618L1369 1409H1657L1359 0H1022L885 782Q874 837 865 906T854 995Q848 1054 839 1113Q836 1090 829 1035Q827 1017 815 932T791 782L650 0H316Z" horiz-adv-x="1674" unicode="W"/>
			<glyph d="M44 1409H337L537 944L737 1409H1030L703 741L1061 0H768L537 529L306 0H14L385 741Z" horiz-adv-x="1073" unicode="X"/>
			<glyph d="M-3 1409H290L516 808L743 1409H1036L655 570V0H376L375 570Z" horiz-adv-x="1033" unicode="Y"/>
			<glyph d="M101 1409H865V1203L351 236H908V0H43V210L557 1173H101Z" horiz-adv-x="941" unicode="Z"/>
			<glyph d="M127 1454H600V1262H383V-234H600V-426H127Z" horiz-adv-x="630" unicode="["/>
			<glyph d="M3 1455H261L723 0H463Z" horiz-adv-x="731" unicode="\"/>
			<glyph d="M31 1454H504V-426H31V-234H246V1262H31Z" horiz-adv-x="630" unicode="]"/>
			<glyph d="M324 1409H596L884 514H662L461 1223L258 514H37Z" horiz-adv-x="920" unicode="^"/>
			<glyph d="M-16 -178H784V-277H-16Z" horiz-adv-x="768" unicode="_"/>
			<glyph d="M-3 1462H251L443 1174V1144H285L-3 1419Z" horiz-adv-x="469" unicode="`"/>
			<glyph d="M510 1051Q686 1051 783 956T880 683V308Q880 133 883 1L625 0L620 130H616Q571 57 500 18T336 -20Q202 -20 127 62T52 293Q52 459 156 535T435 614L614 618V676Q614 843 474 843Q412 843 361 812T244 709L93 855Q187 956 284 1003T510 1051ZM612 461L506 459Q330 453 330 311Q330 246 360 211T445 177Q497 177 534 205T592 280T612 376Z" horiz-adv-x="987" unicode="a"/>
			<glyph d="M106 1453H375V1022Q375 981 374 953T373 916H375Q425 988 484 1019T629 1051Q800 1051 883 910T967 520Q967 271 881 126T626 -19Q544 -19 482 9T375 112H372Q372 36 368 0H105Q106 47 106 236ZM534 839Q373 839 373 512Q373 338 416 266T534 194Q591 194 624 227T671 330T685 520Q685 633 672 701T626 804T534 839Z" horiz-adv-x="1031" unicode="b"/>
			<glyph d="M505 1052Q639 1052 725 996T872 814L664 709Q636 774 601 804T511 834Q417 834 377 756T337 520Q337 357 382 277T519 198Q575 198 618 228T710 330L881 199Q808 87 716 33T502 -20Q280 -20 171 120T62 511Q62 683 114 804T266 989T505 1052Z" horiz-adv-x="913" unicode="c"/>
			<glyph d="M654 1454H923V236L924 0H666Q664 16 658 116H653Q606 42 548 11T404 -19Q232 -19 147 123T62 513Q62 764 147 906T406 1049Q493 1049 552 1018T656 919H658L657 957Q654 992 654 1038ZM497 837Q439 837 405 804T357 701T343 513Q343 401 356 332T403 228T495 194Q656 194 656 522Q656 696 614 766T497 837Z" horiz-adv-x="1029" unicode="d"/>
			<glyph d="M504 1051Q721 1051 822 910T923 541Q923 500 919 454H342Q342 327 393 257T534 187Q599 187 652 219T769 318L912 170Q822 73 726 26T504 -20Q370 -20 271 40T118 221T64 520Q64 701 119 819T274 994T504 1051ZM509 854Q436 854 391 796T344 625H661Q659 733 618 793T509 854Z" horiz-adv-x="978" unicode="e"/>
			<glyph d="M434 1464Q523 1464 593 1445L566 1248Q545 1255 514 1255Q466 1255 443 1227T421 1132V1030H584V818H421V0H152V818H34V1030H152V1166Q152 1307 226 1385T434 1464Z" horiz-adv-x="608" unicode="f"/>
			<glyph d="M946 1137H949L959 922H955Q879 922 823 905Q886 816 886 681Q886 578 843 498T711 371T487 325Q422 325 368 337Q350 324 341 309T332 275Q332 251 354 239T415 221T546 208Q554 208 574 206Q704 196 785 175T921 87T977 -113Q977 -273 856 -349T479 -426Q329 -426 235 -400T97 -322T53 -185Q53 -117 87 -64T190 35Q105 92 105 198Q105 264 137 311T226 398Q162 444 129 515T96 681Q96 787 137 869T268 998T493 1045Q619 1045 706 1003Q753 1070 810 1103T946 1137ZM495 867Q345 867 345 681Q345 589 380 546T485 504Q564 504 600 549T637 681Q637 774 602 820T495 867ZM339 -20Q312 -48 300 -73T288 -134Q288 -197 336 -219T492 -241Q618 -241 678 -219T739 -143Q739 -103 715 -83T645 -56T505 -40Q407 -33 339 -20Z" horiz-adv-x="983" unicode="g"/>
			<glyph d="M106 1454H375V1028Q375 964 369 877H373Q428 970 491 1010T658 1051Q802 1051 871 939T941 640V0H672V574Q672 690 646 754T549 818Q494 818 454 780T395 676T375 526V0H106Z" unicode="h"/>
			<glyph d="M242 1492Q313 1492 356 1452T399 1347Q399 1283 356 1242T242 1201Q168 1201 125 1241T82 1347Q82 1413 125 1452T242 1492ZM106 1030H375V0H106Z" horiz-adv-x="481" unicode="i"/>
			<glyph d="M241 1492Q312 1492 355 1452T398 1347Q398 1283 355 1242T241 1201Q167 1201 124 1240T82 1347Q82 1413 124 1452T241 1492ZM106 1030H375V-102Q375 -249 310 -337T115 -426Q28 -426 -33 -416L-19 -198Q-1 -203 23 -203Q68 -203 87 -168T106 -60Z" horiz-adv-x="481" unicode="j"/>
			<glyph d="M106 1454H375V591L677 1030H967L636 584L989 0H694L473 406L375 301V0H106Z" horiz-adv-x="978" unicode="k"/>
			<glyph d="M106 1454H375V322Q375 263 394 234T458 205Q480 205 504 211L518 0Q474 -7 443 -10T366 -14Q237 -14 171 68T106 289Z" horiz-adv-x="533" unicode="l"/>
			<glyph d="M1210 1051Q1364 1051 1429 940T1494 635V0H1225V552Q1225 643 1217 698T1183 786T1106 818Q1019 818 977 742T934 530V0H666V552Q666 644 658 699T624 786T546 818Q462 818 418 738T375 526V0H106V788Q106 987 104 1030H357Q360 1009 364 959T369 873H373Q454 1048 647 1048Q755 1048 813 1001T905 859H911Q957 956 1035 1003T1210 1051Z" horiz-adv-x="1595" unicode="m"/>
			<glyph d="M649 1051Q804 1051 872 940T941 639V0H672V571Q672 698 644 758T550 818Q467 818 421 740T375 526V0H106V788Q106 987 104 1030H361Q368 947 369 877H373Q422 969 486 1010T649 1051Z" unicode="n"/>
			<glyph d="M511 1051Q747 1051 852 909T958 518Q958 -20 507 -20Q281 -20 172 123T64 518Q64 763 174 907T511 1051ZM515 835Q453 835 415 801T361 699T344 518Q344 350 383 273T505 196Q567 196 605 229T660 332T678 518Q678 631 661 700T609 802T515 835Z" horiz-adv-x="1021" unicode="o"/>
			<glyph d="M622 1051Q795 1051 880 910T965 520Q965 268 875 124T605 -19Q527 -19 468 13T374 112H370L371 71Q373 23 373 -9V-426H106V795Q106 984 104 1030H367L370 966L372 916H376Q421 989 477 1020T622 1051ZM537 839Q372 839 372 512Q372 194 535 194Q593 194 625 227T671 330T685 520Q685 632 672 701T626 804T537 839Z" horiz-adv-x="1029" unicode="p"/>
			<glyph d="M424 1049Q504 1049 559 1017T654 917H660Q661 956 669 1030H926Q926 983 925 952L924 795V-426H658V25Q658 61 659 87T661 118H656Q611 45 554 13T410 -19Q236 -19 150 123T64 513Q64 765 153 907T424 1049ZM499 837Q441 837 407 804T359 701T344 513Q344 401 357 332T404 228T497 194Q658 194 658 522Q658 696 615 766T499 837Z" horiz-adv-x="1031" unicode="q"/>
			<glyph d="M599 1051Q620 1051 642 1046T675 1036L673 799Q650 806 631 808T589 811Q529 811 480 772T403 659T375 484V0H106V776Q106 994 104 1030H359Q369 905 369 845H373Q409 949 460 1000T599 1051Z" horiz-adv-x="683" unicode="r"/>
			<glyph d="M432 1051Q658 1051 783 904L641 753Q590 804 542 828T438 852Q382 852 349 827T316 759Q316 720 339 696T398 659T511 624Q601 598 666 563T773 465T815 303Q815 204 768 131T633 19T429 -20Q302 -20 204 17T35 133L165 296Q228 236 287 208T426 180Q488 180 525 205T563 283Q563 324 540 349T482 390T378 426Q359 431 353 433Q269 458 207 492T105 588T65 741Q65 836 109 906T236 1013T432 1051Z" horiz-adv-x="866" unicode="s"/>
			<glyph d="M398 1283V1030H581V818H398V331Q398 264 420 232T489 201Q527 201 575 212L597 17Q541 -1 494 -9T384 -18Q263 -18 196 54T130 266V818H29V1030H136L151 1265Z" horiz-adv-x="624" unicode="t"/>
			<glyph d="M101 1030H370V455Q370 341 398 276T498 211Q550 211 588 250T647 358T668 518V1030H936V240Q936 84 938 0H679Q675 62 673 154H670Q623 60 558 20T392 -20Q238 -20 169 89T101 390Z" unicode="u"/>
			<glyph d="M-10 1030H275L423 381Q442 290 447 237Q455 309 471 379L626 1030H908L610 0H283Z" horiz-adv-x="900" unicode="v"/>
			<glyph d="M25 1030H277L409 401Q417 362 428 296T443 209Q446 231 456 297T473 401L593 1030H915L1038 401L1068 209Q1071 230 1082 296T1101 401L1229 1030H1481L1235 0H912L795 607Q783 661 770 728T754 816Q751 795 738 728T714 609L598 0H275Z" horiz-adv-x="1508" unicode="w"/>
			<glyph d="M34 1030H320L465 699L607 1030H895L612 534L912 0H624L465 345L304 0H20L314 532Z" horiz-adv-x="931" unicode="x"/>
			<glyph d="M-10 1030H275L404 533Q433 421 465 277L478 345Q500 471 514 527L631 1030H914L583 -94Q541 -220 492 -291T378 -394T218 -426Q157 -426 92 -413L110 -202Q154 -210 170 -210Q226 -210 258 -172T318 -52L330 -14Z" horiz-adv-x="906" unicode="y"/>
			<glyph d="M76 1030H729V829L340 206H768V0H45V201L436 826H76Z" horiz-adv-x="802" unicode="z"/>
			<glyph d="M547 1454H695V1261H621Q552 1261 522 1218T492 1073V768Q492 704 464 651T392 563T304 516V511Q349 498 393 455T464 350T492 225V-44Q492 -148 521 -190T621 -233H695V-426H506Q379 -426 307 -340T235 -97V185Q235 303 181 357T39 414V612Q128 615 181 669T235 842V1125Q235 1304 316 1379T547 1454Z" horiz-adv-x="734" unicode="{"/>
			<glyph d="M137 1454H381V-426H137Z" horiz-adv-x="519" unicode="|"/>
			<glyph d="M37 1454H226Q356 1454 427 1377T499 1139V842Q499 724 551 669T692 612V414Q605 412 552 357T499 185V-111Q499 -283 417 -354T186 -426H37V-233H113Q181 -233 210 -190T240 -44V260Q240 352 297 418T430 513V516Q383 530 339 572T267 674T240 801V1073Q240 1176 210 1218T113 1261H37Z" horiz-adv-x="734" unicode="}"/>
			<glyph d="M260 840Q319 840 378 821T518 769Q563 749 602 736T675 724Q727 724 778 748T873 816V594Q822 549 774 531T660 514Q607 514 556 531T424 584Q320 629 248 629Q191 629 144 607T46 541V756Q86 796 140 818T260 840Z" horiz-adv-x="920" unicode="~"/>
			<glyph d="" horiz-adv-x="369" unicode=" "/>
			<glyph d="M240 1040Q314 1040 357 997T400 885Q400 816 357 774T240 732Q169 732 126 774T83 885Q83 954 126 997T240 1040ZM128 603H354L381 -379H100Z" horiz-adv-x="479" unicode="¡"/>
			<glyph d="M393 1409H528V1225Q642 1217 719 1161T851 989L643 884Q615 949 580 979T490 1009Q396 1009 356 931T316 695Q316 532 361 452T498 373Q554 373 597 403T689 505L860 374Q794 273 713 220T528 157V-31H393V161Q215 189 128 326T41 686Q41 915 132 1052T393 1219Z" horiz-adv-x="896" unicode="¢"/>
			<glyph d="M560 1430Q680 1430 763 1380T905 1235L698 1105Q667 1159 637 1183T559 1208Q497 1208 468 1162T439 1026V822H698V623H439V536Q439 432 410 351T335 225H554Q627 225 665 280T715 428L978 386Q971 278 927 190T812 51T658 0H37V210Q113 246 143 316T174 518V623H44V822H174V976Q174 1188 263 1309T560 1430Z" horiz-adv-x="995" unicode="£"/>
			<glyph d="M839 1157L969 1026L787 845Q808 804 817 762T826 686Q826 606 784 519L970 341L838 208L659 386Q614 357 563 342T462 327Q377 327 298 363L142 208L9 341L162 487Q130 537 114 588T99 686Q99 729 114 779T160 877L10 1023L142 1156L295 1003Q374 1044 462 1044Q513 1044 565 1028T663 982ZM462 861Q413 861 372 837T308 773T285 685Q285 636 308 596T372 532T462 509Q511 509 551 532T616 596T640 685Q640 733 615 773T550 837T462 861Z" horiz-adv-x="980" unicode="¤"/>
			<glyph d="M4 1409H291L489 793L687 1409H974L704 721H854V568H624V420H854V266H624V0H354V266H124V420H354L355 568H124V721H275Z" horiz-adv-x="982" unicode="¥"/>
			<glyph d="M137 1454H381V678H137ZM137 350H381V-426H137Z" horiz-adv-x="519" unicode="¦"/>
			<glyph d="M454 1454Q552 1454 633 1423T794 1315L668 1171Q617 1224 569 1247T468 1271Q401 1271 360 1236T320 1150Q320 1104 342 1075T402 1029T510 989Q603 961 670 926T781 827T826 665Q826 576 788 502T687 397Q748 356 780 293T813 137Q813 33 767 -43T635 -161T436 -203Q318 -203 222 -169T43 -55L169 99Q234 37 294 11T436 -15Q508 -15 550 18T593 117Q593 169 570 202T501 258T365 310Q237 347 157 419T78 627Q78 711 120 779T233 882Q173 921 135 985T97 1138Q97 1236 142 1307T267 1416T454 1454ZM415 805Q300 788 300 654Q300 605 320 572T381 518T494 479Q551 482 579 518T608 627Q608 699 563 738T415 805Z" horiz-adv-x="889" unicode="§"/>
			<glyph d="M92 1412Q144 1412 179 1378T214 1292Q214 1240 179 1205T92 1170Q38 1170 4 1204T-30 1292Q-30 1344 4 1378T92 1412ZM460 1412Q511 1412 546 1378T581 1292Q581 1240 546 1205T460 1170Q406 1170 371 1204T337 1292Q337 1345 371 1378T460 1412Z" horiz-adv-x="549" unicode="¨"/>
			<glyph d="M586 1430Q743 1430 866 1333T1059 1071T1128 707Q1128 508 1059 342T866 80T586 -16Q430 -16 306 80T114 342T45 707Q45 905 114 1071T307 1333T586 1430ZM586 1314Q456 1314 359 1233T212 1014T161 707Q161 537 212 398T359 178T586 97Q718 97 814 178T960 398T1011 707Q1011 876 960 1014T814 1233T586 1314ZM590 1124Q702 1124 774 1068T875 905L716 853Q697 911 671 943T595 975Q518 975 490 908T462 709Q462 577 491 506T595 435Q649 435 677 472T727 573L879 518Q848 411 779 348T595 285Q494 285 424 339T320 488T286 709Q286 904 363 1014T590 1124Z" horiz-adv-x="1176" unicode="©"/>
			<glyph d="M359 1425Q489 1425 561 1358T634 1161V888Q634 730 635 650H449L443 748H438Q369 639 237 639Q143 639 90 698T37 867Q37 991 113 1050T312 1112L443 1115V1155Q443 1217 415 1246T339 1276Q292 1276 252 1255T171 1187L66 1294Q120 1352 189 1388T359 1425ZM443 1002L363 999Q299 997 266 970T234 885Q234 835 253 808T314 781Q355 781 384 809T428 879T443 964Z" horiz-adv-x="696" unicode="ª"/>
			<glyph d="M293 940H494V901L274 537L496 176V141H293L41 500V575ZM725 940H926V901L704 537L926 176V141H725L473 500V575Z" horiz-adv-x="969" unicode="«"/>
			<glyph d="M48 794H870V140H645V569H48Z" horiz-adv-x="920" unicode="¬"/>
			<glyph d="M61 645H458V398H61Z" horiz-adv-x="518" unicode="­"/>
			<glyph d="M586 1430Q743 1430 866 1333T1059 1071T1128 707Q1128 508 1059 342T866 80T586 -16Q430 -16 306 80T114 342T45 707Q45 905 114 1071T307 1333T586 1430ZM586 1314Q456 1314 359 1233T212 1014T161 707Q161 537 212 398T359 178T586 97Q718 97 814 178T960 398T1011 707Q1011 876 960 1014T814 1233T586 1314ZM337 1113H600Q728 1113 789 1049T851 870Q851 784 815 724T726 632L884 296H694L564 612H512V296H337ZM512 983V739H588Q631 739 654 774T678 870Q678 924 652 953T580 983Z" horiz-adv-x="1176" unicode="®"/>
			<glyph d="M-16 1546H1149V1452H-16Z" horiz-adv-x="1130" unicode="¯"/>
			<glyph d="M305 1432Q379 1432 442 1395T543 1294T580 1156Q580 1082 543 1018T442 918T305 881Q230 881 166 918T65 1018T28 1156Q28 1231 65 1294T166 1395T305 1432ZM305 1293Q247 1293 208 1253T169 1156Q169 1119 187 1087T236 1036T305 1017Q342 1017 372 1036T421 1087T439 1156Q439 1194 421 1225T372 1275T305 1293Z" horiz-adv-x="608" unicode="°"/>
			<glyph d="M349 1328H575V932H870V709H575V312H349V709H50V932H349ZM50 225H870V0H50Z" horiz-adv-x="922" unicode="±"/>
			<glyph d="M298 1626Q410 1626 474 1564T539 1395Q539 1339 521 1290T478 1203T410 1108L397 1091L273 928H549V768H39V903L226 1151Q294 1239 319 1287T345 1390Q345 1464 294 1464Q266 1464 251 1444T229 1380L48 1401Q59 1501 122 1563T298 1626Z" horiz-adv-x="589" unicode="²"/>
			<glyph d="M295 1626Q422 1626 480 1562T539 1401Q539 1325 503 1273T404 1204V1200Q476 1190 515 1135T555 1003Q555 885 492 819T297 754Q171 754 112 814T42 967L211 996Q219 957 236 935T293 914Q333 914 349 939T365 1017Q365 1119 264 1119H212V1277H260Q304 1277 327 1298T350 1377Q350 1422 336 1445T290 1468Q261 1468 247 1452T226 1400L54 1426Q65 1523 126 1574T295 1626Z" horiz-adv-x="588" unicode="³"/>
			<glyph d="M196 1462H449V1419L161 1144H4V1174Z" horiz-adv-x="469" unicode="´"/>
			<glyph d="M103 1030H372V475Q372 352 402 282T505 213Q585 213 627 292T670 499V1030H938V361Q938 273 949 237T992 202Q1010 202 1035 208L1055 15Q1023 3 977 -3T886 -10Q799 -10 744 31T675 152H671Q652 87 628 50T569 -3T481 -20Q446 -20 419 -6T372 39H366L368 1Q372 -69 372 -99V-426H103Z" horiz-adv-x="1068" unicode="µ"/>
			<glyph d="M315 1409H804V1265H727V-264H576V1265H458V-264H309V694Q227 694 166 735T71 856T37 1053Q37 1221 110 1315T315 1409Z" horiz-adv-x="851" unicode="¶"/>
			<glyph d="M214 765Q286 765 329 721T372 605Q372 533 328 488T214 443Q140 443 97 487T54 605Q54 677 97 721T214 765Z" horiz-adv-x="427" unicode="·"/>
			<glyph d="M149 0H274L252 -86Q322 -93 355 -132T389 -237Q389 -321 325 -373T136 -426Q88 -426 56 -420V-294Q96 -301 120 -301Q216 -301 216 -240Q216 -211 195 -196T129 -182Q109 -182 93 -185Z" horiz-adv-x="438" unicode="¸"/>
			<glyph d="M235 1614H410V928H543V768H59V928H223V1414L72 1289V1477Z" horiz-adv-x="588" unicode="¹"/>
			<glyph d="M373 1425Q544 1425 619 1319T694 1034Q694 856 614 748T369 640Q210 640 130 748T51 1034Q51 1209 129 1317T373 1425ZM375 1270Q312 1270 283 1213T255 1034Q255 909 283 852T367 795Q431 795 461 851T491 1034Q491 1158 463 1214T375 1270Z" horiz-adv-x="744" unicode="º"/>
			<glyph d="M45 940H243L496 575V500L243 141H43V176L265 537L45 901ZM476 940H674L926 575V500L674 141H473V176L696 537L476 901Z" horiz-adv-x="969" unicode="»"/>
			<glyph d="M235 1409H410V723H543V563H59V723H223V1209L72 1084V1272ZM1011 1409H1187L513 0H336ZM1089 846H1306V311H1378V152H1306V0H1132V152H851V319ZM1132 622L996 311H1132Z" horiz-adv-x="1409" unicode="¼"/>
			<glyph d="M235 1409H410V723H543V563H59V723H223V1209L72 1084V1272ZM1011 1409H1187L513 0H336ZM1180 858Q1292 858 1356 796T1421 627Q1421 571 1403 522T1360 435T1292 340L1279 323L1155 160H1431V0H921V135L1108 383Q1176 471 1201 519T1227 622Q1227 696 1176 696Q1148 696 1133 676T1111 612L930 633Q941 733 1004 795T1180 858Z" horiz-adv-x="1471" unicode="½"/>
			<glyph d="M295 1421Q422 1421 480 1357T539 1196Q539 1120 503 1068T404 999V995Q476 985 515 930T555 798Q555 680 492 614T297 549Q171 549 112 609T42 762L211 791Q219 752 236 730T293 709Q333 709 349 734T365 812Q365 914 264 914H212V1072H260Q304 1072 327 1093T350 1172Q350 1217 336 1240T290 1263Q261 1263 247 1247T226 1195L54 1221Q65 1318 126 1369T295 1421ZM963 1409H1139L465 0H288ZM1041 846H1258V311H1330V152H1258V0H1084V152H803V319ZM1084 622L948 311H1084Z" horiz-adv-x="1361" unicode="¾"/>
			<glyph d="M457 1040Q531 1040 574 997T617 885Q617 816 574 774T457 732Q386 732 343 774T301 885Q301 954 343 997T457 1040ZM332 605H585Q581 515 566 461T516 360T405 236Q347 177 323 123T299 -9Q299 -80 328 -124T422 -168Q484 -168 516 -127T575 1L839 -43Q812 -201 714 -300T428 -399Q301 -399 211 -351T74 -215T28 -13Q28 77 51 145T109 259T193 355Q256 417 281 448T317 512T332 605Z" horiz-adv-x="871" unicode="¿"/>
			<glyph d="M385 1409H710L1093 0H815L740 316H355L280 0H0ZM547 1137Q545 1118 504 939L409 540H686L591 939Q576 1004 556 1097Q548 1136 547 1137ZM213 1809H473L725 1559V1528H575L213 1766Z" horiz-adv-x="1093" unicode="À"/>
			<glyph d="M385 1409H710L1093 0H815L740 316H355L280 0H0ZM547 1137Q545 1118 504 939L409 540H686L591 939Q576 1004 556 1097Q548 1136 547 1137ZM622 1810H883V1766L519 1528H371V1557Z" horiz-adv-x="1093" unicode="Á"/>
			<glyph d="M385 1409H710L1093 0H815L740 316H355L280 0H0ZM547 1137Q545 1118 504 939L409 540H686L591 939Q576 1004 556 1097Q548 1136 547 1137ZM436 1828H668L917 1557V1528H758L553 1673H551L341 1528H179V1557Z" horiz-adv-x="1093" unicode="Â"/>
			<glyph d="M385 1409H710L1093 0H815L740 316H355L280 0H0ZM547 1137Q545 1118 504 939L409 540H686L591 939Q576 1004 556 1097Q548 1136 547 1137ZM417 1817Q456 1817 493 1797T577 1743Q612 1718 631 1707T666 1696Q694 1696 707 1725T729 1817H860Q856 1698 817 1612T678 1526Q642 1526 607 1544T524 1598Q489 1624 467 1636T429 1648Q399 1648 387 1619T367 1526H236Q246 1817 417 1817Z" horiz-adv-x="1093" unicode="Ã"/>
			<glyph d="M385 1409H710L1093 0H815L740 316H355L280 0H0ZM547 1137Q545 1118 504 939L409 540H686L591 939Q576 1004 556 1097Q548 1136 547 1137ZM359 1779Q412 1779 447 1744T483 1657Q483 1604 447 1568T359 1532Q305 1532 270 1567T235 1657Q235 1711 269 1745T359 1779ZM740 1779Q793 1779 827 1745T862 1657Q862 1604 827 1568T740 1532Q685 1532 649 1567T614 1657Q614 1711 649 1745T740 1779Z" horiz-adv-x="1093" unicode="Ä"/>
			<glyph d="M547 1802Q616 1802 674 1768T767 1676T801 1550Q801 1497 780 1449T722 1365L1093 0H815L740 316H355L280 0H0L373 1365Q335 1400 314 1448T293 1550Q293 1618 327 1676T419 1768T547 1802ZM547 1688Q508 1688 476 1669T425 1619T407 1550Q407 1511 425 1478T476 1427T547 1409Q585 1409 617 1427T668 1478T687 1550Q687 1588 668 1619T617 1669T547 1688ZM547 1137Q545 1118 504 939L409 540H686L591 939Q576 1004 556 1097Q548 1136 547 1137Z" horiz-adv-x="1093" unicode="Å"/>
			<glyph d="M501 1409H1452V1169H964V833H1405V599H964V239H1483V0H681V357H388L269 0H-27ZM662 1187Q644 1134 629 1082Q613 1030 604 1004L463 581H681V1187Z" horiz-adv-x="1544" unicode="Æ"/>
			<glyph d="M607 1430Q731 1430 817 1394T964 1284T1073 1086L822 1000Q788 1088 740 1136T613 1184Q366 1184 366 711Q366 486 428 355T618 225Q672 225 710 249T774 314T828 420L1085 331Q1021 170 915 79T647 -19L630 -86Q700 -93 733 -132T767 -237Q767 -321 703 -373T514 -426Q466 -426 434 -420V-294Q474 -301 498 -301Q594 -301 594 -240Q594 -211 573 -196T507 -182Q487 -182 471 -185L523 -12Q377 12 278 109T129 361T80 711Q80 933 139 1094T316 1343T607 1430Z" horiz-adv-x="1129" unicode="Ç"/>
			<glyph d="M136 1409H925V1169H419V833H878V599H419V239H955V0H136ZM218 1809H478L730 1559V1528H580L218 1766Z" horiz-adv-x="1017" unicode="È"/>
			<glyph d="M136 1409H925V1169H419V833H878V599H419V239H955V0H136ZM627 1810H888V1766L524 1528H376V1557Z" horiz-adv-x="1017" unicode="É"/>
			<glyph d="M136 1409H925V1169H419V833H878V599H419V239H955V0H136ZM441 1828H673L922 1557V1528H763L558 1673H556L346 1528H184V1557Z" horiz-adv-x="1017" unicode="Ê"/>
			<glyph d="M136 1409H925V1169H419V833H878V599H419V239H955V0H136ZM364 1779Q417 1779 452 1744T488 1657Q488 1604 452 1568T364 1532Q310 1532 275 1567T240 1657Q240 1711 274 1745T364 1779ZM745 1779Q798 1779 832 1745T867 1657Q867 1604 832 1568T745 1532Q690 1532 654 1567T619 1657Q619 1711 654 1745T745 1779Z" horiz-adv-x="1017" unicode="Ë"/>
			<glyph d="M136 1409H419V0H136ZM-56 1809H204L456 1559V1528H306L-56 1766Z" horiz-adv-x="557" unicode="Ì"/>
			<glyph d="M136 1409H419V0H136ZM353 1810H614V1766L250 1528H102V1557Z" horiz-adv-x="557" unicode="Í"/>
			<glyph d="M136 1409H419V0H136ZM167 1828H399L648 1557V1528H489L284 1673H282L72 1528H-90V1557Z" horiz-adv-x="557" unicode="Î"/>
			<glyph d="M136 1409H419V0H136ZM90 1779Q143 1779 178 1744T214 1657Q214 1604 178 1568T90 1532Q36 1532 1 1567T-34 1657Q-34 1711 0 1745T90 1779ZM471 1779Q524 1779 558 1745T593 1657Q593 1604 558 1568T471 1532Q416 1532 380 1567T345 1657Q345 1711 380 1745T471 1779Z" horiz-adv-x="557" unicode="Ï"/>
			<glyph d="M136 1409H564Q732 1409 857 1334T1053 1103T1124 715Q1124 487 1057 326T874 82T610 0H136V591H15V816H136ZM419 1164V816H637V591H419V245H570Q651 245 712 298T807 456T841 715Q841 946 763 1055T540 1164Z" horiz-adv-x="1204" unicode="Ð"/>
			<glyph d="M136 1409H473L929 365Q929 370 925 445T922 625V1409H1175V0H836L385 1036Q386 1013 388 936T390 797V0H136ZM532 1817Q571 1817 608 1797T692 1743Q727 1718 746 1707T781 1696Q809 1696 822 1725T844 1817H975Q971 1698 932 1612T793 1526Q757 1526 722 1544T639 1598Q604 1624 582 1636T544 1648Q514 1648 502 1619T482 1526H351Q361 1817 532 1817Z" horiz-adv-x="1315" unicode="Ñ"/>
			<glyph d="M634 1430Q816 1430 940 1342T1126 1092T1189 711Q1189 489 1125 324T936 70T634 -20Q449 -20 325 72T140 329T80 711Q80 933 142 1094T328 1343T634 1430ZM634 1184Q547 1184 487 1126T396 961T366 711Q366 567 397 457T488 286T634 225Q768 225 835 357T902 711Q902 854 871 960T780 1125T634 1184ZM299 1809H559L811 1559V1528H661L299 1766Z" horiz-adv-x="1268" unicode="Ò"/>
			<glyph d="M634 1430Q816 1430 940 1342T1126 1092T1189 711Q1189 489 1125 324T936 70T634 -20Q449 -20 325 72T140 329T80 711Q80 933 142 1094T328 1343T634 1430ZM634 1184Q547 1184 487 1126T396 961T366 711Q366 567 397 457T488 286T634 225Q768 225 835 357T902 711Q902 854 871 960T780 1125T634 1184ZM708 1810H969V1766L605 1528H457V1557Z" horiz-adv-x="1268" unicode="Ó"/>
			<glyph d="M634 1430Q816 1430 940 1342T1126 1092T1189 711Q1189 489 1125 324T936 70T634 -20Q449 -20 325 72T140 329T80 711Q80 933 142 1094T328 1343T634 1430ZM634 1184Q547 1184 487 1126T396 961T366 711Q366 567 397 457T488 286T634 225Q768 225 835 357T902 711Q902 854 871 960T780 1125T634 1184ZM522 1828H754L1003 1557V1528H844L639 1673H637L427 1528H265V1557Z" horiz-adv-x="1268" unicode="Ô"/>
			<glyph d="M634 1430Q816 1430 940 1342T1126 1092T1189 711Q1189 489 1125 324T936 70T634 -20Q449 -20 325 72T140 329T80 711Q80 933 142 1094T328 1343T634 1430ZM634 1184Q547 1184 487 1126T396 961T366 711Q366 567 397 457T488 286T634 225Q768 225 835 357T902 711Q902 854 871 960T780 1125T634 1184ZM503 1817Q542 1817 579 1797T663 1743Q698 1718 717 1707T752 1696Q780 1696 793 1725T815 1817H946Q942 1698 903 1612T764 1526Q728 1526 693 1544T610 1598Q575 1624 553 1636T515 1648Q485 1648 473 1619T453 1526H322Q332 1817 503 1817Z" horiz-adv-x="1268" unicode="Õ"/>
			<glyph d="M634 1430Q816 1430 940 1342T1126 1092T1189 711Q1189 489 1125 324T936 70T634 -20Q449 -20 325 72T140 329T80 711Q80 933 142 1094T328 1343T634 1430ZM634 1184Q547 1184 487 1126T396 961T366 711Q366 567 397 457T488 286T634 225Q768 225 835 357T902 711Q902 854 871 960T780 1125T634 1184ZM445 1779Q498 1779 533 1744T569 1657Q569 1604 533 1568T445 1532Q391 1532 356 1567T321 1657Q321 1711 355 1745T445 1779ZM826 1779Q879 1779 913 1745T948 1657Q948 1604 913 1568T826 1532Q771 1532 735 1567T700 1657Q700 1711 735 1745T826 1779Z" horiz-adv-x="1268" unicode="Ö"/>
			<glyph d="M764 1142L922 984L619 681L920 382L762 225L461 524L158 220L-1 377L301 681L6 980L164 1139L461 841Z" horiz-adv-x="919" unicode="×"/>
			<glyph d="M1032 1475H1215L1056 1227Q1122 1134 1155 1003T1189 711Q1189 489 1125 324T936 70T634 -20Q446 -20 318 78L229 -60H47L209 193Q145 289 112 421T80 711Q80 933 142 1094T328 1343T634 1430Q817 1430 945 1339ZM634 1184Q547 1184 487 1126T396 961T366 711Q366 581 392 477L797 1108Q730 1184 634 1184ZM875 946L467 310Q535 225 634 225Q768 225 835 357T902 711Q902 846 875 946Z" horiz-adv-x="1268" unicode="Ø"/>
			<glyph d="M122 1409H405V530Q405 364 453 294T601 225Q704 225 755 299T807 542V1409H1087V543Q1087 259 958 119T594 -20Q367 -20 244 114T122 529ZM271 1809H531L783 1559V1528H633L271 1766Z" horiz-adv-x="1211" unicode="Ù"/>
			<glyph d="M122 1409H405V530Q405 364 453 294T601 225Q704 225 755 299T807 542V1409H1087V543Q1087 259 958 119T594 -20Q367 -20 244 114T122 529ZM680 1810H941V1766L577 1528H429V1557Z" horiz-adv-x="1211" unicode="Ú"/>
			<glyph d="M122 1409H405V530Q405 364 453 294T601 225Q704 225 755 299T807 542V1409H1087V543Q1087 259 958 119T594 -20Q367 -20 244 114T122 529ZM494 1828H726L975 1557V1528H816L611 1673H609L399 1528H237V1557Z" horiz-adv-x="1211" unicode="Û"/>
			<glyph d="M122 1409H405V530Q405 364 453 294T601 225Q704 225 755 299T807 542V1409H1087V543Q1087 259 958 119T594 -20Q367 -20 244 114T122 529ZM417 1779Q470 1779 505 1744T541 1657Q541 1604 505 1568T417 1532Q363 1532 328 1567T293 1657Q293 1711 327 1745T417 1779ZM798 1779Q851 1779 885 1745T920 1657Q920 1604 885 1568T798 1532Q743 1532 707 1567T672 1657Q672 1711 707 1745T798 1779Z" horiz-adv-x="1211" unicode="Ü"/>
			<glyph d="M-3 1409H290L516 808L743 1409H1036L655 570V0H376L375 570ZM591 1810H852V1766L488 1528H340V1557Z" horiz-adv-x="1033" unicode="Ý"/>
			<glyph d="M136 1409H419V1177H579Q789 1177 895 1059T1001 737Q1001 609 958 506T822 343T589 282H419V0H136ZM419 955V503H547Q637 503 678 565T719 734Q719 955 541 955Z" horiz-adv-x="1059" unicode="Þ"/>
			<glyph d="M541 1454Q674 1454 762 1412T893 1298T936 1135Q936 1053 909 999T831 895Q794 858 777 834T761 779Q761 750 773 725T807 680T869 623L897 598Q948 551 981 512T1039 417T1063 290Q1063 204 1028 133T922 21T747 -20Q668 -20 599 -1T465 64L554 243Q601 210 641 193T723 176Q768 176 791 200T815 271Q815 326 780 373T667 488Q586 557 550 614T514 753Q514 822 535 865T598 950Q643 994 661 1025T680 1104Q680 1163 647 1201T543 1240Q457 1240 416 1174T376 975V0H108V986Q108 1211 214 1332T541 1454Z" horiz-adv-x="1117" unicode="ß"/>
			<glyph d="M510 1051Q686 1051 783 956T880 683V308Q880 133 883 1L625 0L620 130H616Q571 57 500 18T336 -20Q202 -20 127 62T52 293Q52 459 156 535T435 614L614 618V676Q614 843 474 843Q412 843 361 812T244 709L93 855Q187 956 284 1003T510 1051ZM612 461L506 459Q330 453 330 311Q330 246 360 211T445 177Q497 177 534 205T592 280T612 376ZM197 1462H451L643 1174V1144H485L197 1419Z" horiz-adv-x="987" unicode="à"/>
			<glyph d="M510 1051Q686 1051 783 956T880 683V308Q880 133 883 1L625 0L620 130H616Q571 57 500 18T336 -20Q202 -20 127 62T52 293Q52 459 156 535T435 614L614 618V676Q614 843 474 843Q412 843 361 812T244 709L93 855Q187 956 284 1003T510 1051ZM612 461L506 459Q330 453 330 311Q330 246 360 211T445 177Q497 177 534 205T592 280T612 376ZM561 1462H814V1419L526 1144H369V1174Z" horiz-adv-x="987" unicode="á"/>
			<glyph d="M510 1051Q686 1051 783 956T880 683V308Q880 133 883 1L625 0L620 130H616Q571 57 500 18T336 -20Q202 -20 127 62T52 293Q52 459 156 535T435 614L614 618V676Q614 843 474 843Q412 843 361 812T244 709L93 855Q187 956 284 1003T510 1051ZM612 461L506 459Q330 453 330 311Q330 246 360 211T445 177Q497 177 534 205T592 280T612 376ZM413 1476H604L792 1174V1144H640L512 1301H508L375 1144H220V1174Z" horiz-adv-x="987" unicode="â"/>
			<glyph d="M510 1051Q686 1051 783 956T880 683V308Q880 133 883 1L625 0L620 130H616Q571 57 500 18T336 -20Q202 -20 127 62T52 293Q52 459 156 535T435 614L614 618V676Q614 843 474 843Q412 843 361 812T244 709L93 855Q187 956 284 1003T510 1051ZM612 461L506 459Q330 453 330 311Q330 246 360 211T445 177Q497 177 534 205T592 280T612 376ZM376 1436Q415 1436 452 1416T536 1362Q569 1337 589 1325T625 1314Q653 1314 667 1345T688 1436H819Q815 1317 776 1230T637 1144Q601 1144 566 1162T483 1216Q448 1242 426 1254T388 1266Q358 1266 345 1236T327 1144H195Q205 1436 376 1436Z" horiz-adv-x="987" unicode="ã"/>
			<glyph d="M510 1051Q686 1051 783 956T880 683V308Q880 133 883 1L625 0L620 130H616Q571 57 500 18T336 -20Q202 -20 127 62T52 293Q52 459 156 535T435 614L614 618V676Q614 843 474 843Q412 843 361 812T244 709L93 855Q187 956 284 1003T510 1051ZM612 461L506 459Q330 453 330 311Q330 246 360 211T445 177Q497 177 534 205T592 280T612 376ZM323 1412Q375 1412 410 1378T445 1292Q445 1240 410 1205T323 1170Q269 1170 235 1204T201 1292Q201 1344 235 1378T323 1412ZM691 1412Q742 1412 777 1378T812 1292Q812 1240 777 1205T691 1170Q637 1170 602 1204T568 1292Q568 1345 602 1378T691 1412Z" horiz-adv-x="987" unicode="ä"/>
			<glyph d="M510 1051Q686 1051 783 956T880 683V308Q880 133 883 1L625 0L620 130H616Q571 57 500 18T336 -20Q202 -20 127 62T52 293Q52 459 156 535T435 614L614 618V676Q614 843 474 843Q412 843 361 812T244 709L93 855Q187 956 284 1003T510 1051ZM612 461L506 459Q330 453 330 311Q330 246 360 211T445 177Q497 177 534 205T592 280T612 376ZM507 1630Q576 1630 634 1596T727 1504T761 1378Q761 1309 727 1250T634 1157T507 1123Q438 1123 379 1157T287 1250T253 1378Q253 1446 287 1504T379 1596T507 1630ZM507 1516Q468 1516 436 1497T385 1447T367 1378Q367 1339 385 1306T436 1255T507 1237Q545 1237 577 1255T628 1306T647 1378Q647 1416 628 1447T577 1497T507 1516Z" horiz-adv-x="987" unicode="å"/>
			<glyph d="M489 1051Q575 1051 646 1014T764 910Q821 981 897 1016T1071 1051Q1212 1051 1302 983T1433 801T1474 541Q1474 500 1470 454H891Q891 327 942 257T1085 187Q1150 187 1203 219T1321 318L1464 170Q1375 75 1276 27T1063 -20Q849 -20 739 148Q678 65 593 22T386 -20Q285 -20 209 17T93 124T52 293Q52 459 156 535T435 614L621 618V676Q621 843 474 843Q411 843 358 812T241 711L93 855Q183 956 276 1003T489 1051ZM1060 854Q985 854 939 796T892 625H1212Q1210 734 1170 794T1060 854ZM620 461L501 459Q330 453 330 310Q330 247 360 212T445 178Q499 178 538 206T599 280T620 376Z" horiz-adv-x="1529" unicode="æ"/>
			<glyph d="M505 1052Q639 1052 725 996T872 814L664 709Q636 774 601 804T511 834Q417 834 377 756T337 520Q337 357 382 277T519 198Q575 198 618 228T710 330L881 199Q815 96 733 43T545 -18L528 -86Q598 -93 631 -132T665 -237Q665 -321 601 -373T412 -426Q364 -426 332 -420V-294Q372 -301 396 -301Q492 -301 492 -240Q492 -211 471 -196T405 -182Q386 -182 369 -185L421 -15Q240 11 151 148T62 511Q62 683 114 804T266 989T505 1052Z" horiz-adv-x="913" unicode="ç"/>
			<glyph d="M504 1051Q721 1051 822 910T923 541Q923 500 919 454H342Q342 327 393 257T534 187Q599 187 652 219T769 318L912 170Q822 73 726 26T504 -20Q370 -20 271 40T118 221T64 520Q64 701 119 819T274 994T504 1051ZM509 854Q436 854 391 796T344 625H661Q659 733 618 793T509 854ZM192 1462H446L638 1174V1144H480L192 1419Z" horiz-adv-x="978" unicode="è"/>
			<glyph d="M504 1051Q721 1051 822 910T923 541Q923 500 919 454H342Q342 327 393 257T534 187Q599 187 652 219T769 318L912 170Q822 73 726 26T504 -20Q370 -20 271 40T118 221T64 520Q64 701 119 819T274 994T504 1051ZM509 854Q436 854 391 796T344 625H661Q659 733 618 793T509 854ZM556 1462H809V1419L521 1144H364V1174Z" horiz-adv-x="978" unicode="é"/>
			<glyph d="M504 1051Q721 1051 822 910T923 541Q923 500 919 454H342Q342 327 393 257T534 187Q599 187 652 219T769 318L912 170Q822 73 726 26T504 -20Q370 -20 271 40T118 221T64 520Q64 701 119 819T274 994T504 1051ZM509 854Q436 854 391 796T344 625H661Q659 733 618 793T509 854ZM408 1476H599L787 1174V1144H635L507 1301H503L370 1144H215V1174Z" horiz-adv-x="978" unicode="ê"/>
			<glyph d="M504 1051Q721 1051 822 910T923 541Q923 500 919 454H342Q342 327 393 257T534 187Q599 187 652 219T769 318L912 170Q822 73 726 26T504 -20Q370 -20 271 40T118 221T64 520Q64 701 119 819T274 994T504 1051ZM509 854Q436 854 391 796T344 625H661Q659 733 618 793T509 854ZM318 1412Q370 1412 405 1378T440 1292Q440 1240 405 1205T318 1170Q264 1170 230 1204T196 1292Q196 1344 230 1378T318 1412ZM686 1412Q737 1412 772 1378T807 1292Q807 1240 772 1205T686 1170Q632 1170 597 1204T563 1292Q563 1345 597 1378T686 1412Z" horiz-adv-x="978" unicode="ë"/>
			<glyph d="M106 1030H375V0H106ZM-68 1462H186L378 1174V1144H220L-68 1419Z" horiz-adv-x="481" unicode="ì"/>
			<glyph d="M106 1030H375V0H106ZM296 1462H549V1419L261 1144H104V1174Z" horiz-adv-x="481" unicode="í"/>
			<glyph d="M106 1030H375V0H106ZM148 1476H339L527 1174V1144H375L247 1301H243L110 1144H-45V1174Z" horiz-adv-x="481" unicode="î"/>
			<glyph d="M106 1030H375V0H106ZM58 1412Q110 1412 145 1378T180 1292Q180 1240 145 1205T58 1170Q4 1170 -30 1204T-64 1292Q-64 1344 -29 1378T58 1412ZM426 1412Q477 1412 512 1378T547 1292Q547 1240 512 1205T426 1170Q372 1170 337 1204T303 1292Q303 1345 337 1378T426 1412Z" horiz-adv-x="481" unicode="ï"/>
			<glyph d="M432 1482Q509 1431 588 1362L809 1477V1328L685 1263Q819 1110 887 926T957 541V536Q957 277 849 128T513 -20Q366 -20 265 42T114 216T64 477Q64 621 114 733T260 909T488 973Q585 973 627 940Q573 1073 506 1169L280 1051V1201L422 1275Q361 1339 293 1390ZM517 757Q344 757 344 477Q344 335 388 265T509 196Q684 196 684 477Q684 622 642 689T517 757Z" horiz-adv-x="1022" unicode="ð"/>
			<glyph d="M649 1051Q804 1051 872 940T941 639V0H672V571Q672 698 644 758T550 818Q467 818 421 740T375 526V0H106V788Q106 987 104 1030H361Q368 947 369 877H373Q422 969 486 1010T649 1051ZM410 1436Q449 1436 486 1416T570 1362Q603 1337 623 1325T659 1314Q687 1314 701 1345T722 1436H853Q849 1317 810 1230T671 1144Q635 1144 600 1162T517 1216Q482 1242 460 1254T422 1266Q392 1266 379 1236T361 1144H229Q239 1436 410 1436Z" unicode="ñ"/>
			<glyph d="M511 1051Q747 1051 852 909T958 518Q958 -20 507 -20Q281 -20 172 123T64 518Q64 763 174 907T511 1051ZM515 835Q453 835 415 801T361 699T344 518Q344 350 383 273T505 196Q567 196 605 229T660 332T678 518Q678 631 661 700T609 802T515 835ZM201 1462H455L647 1174V1144H489L201 1419Z" horiz-adv-x="1021" unicode="ò"/>
			<glyph d="M511 1051Q747 1051 852 909T958 518Q958 -20 507 -20Q281 -20 172 123T64 518Q64 763 174 907T511 1051ZM515 835Q453 835 415 801T361 699T344 518Q344 350 383 273T505 196Q567 196 605 229T660 332T678 518Q678 631 661 700T609 802T515 835ZM565 1462H818V1419L530 1144H373V1174Z" horiz-adv-x="1021" unicode="ó"/>
			<glyph d="M511 1051Q747 1051 852 909T958 518Q958 -20 507 -20Q281 -20 172 123T64 518Q64 763 174 907T511 1051ZM515 835Q453 835 415 801T361 699T344 518Q344 350 383 273T505 196Q567 196 605 229T660 332T678 518Q678 631 661 700T609 802T515 835ZM417 1476H608L796 1174V1144H644L516 1301H512L379 1144H224V1174Z" horiz-adv-x="1021" unicode="ô"/>
			<glyph d="M511 1051Q747 1051 852 909T958 518Q958 -20 507 -20Q281 -20 172 123T64 518Q64 763 174 907T511 1051ZM515 835Q453 835 415 801T361 699T344 518Q344 350 383 273T505 196Q567 196 605 229T660 332T678 518Q678 631 661 700T609 802T515 835ZM380 1436Q419 1436 456 1416T540 1362Q573 1337 593 1325T629 1314Q657 1314 671 1345T692 1436H823Q819 1317 780 1230T641 1144Q605 1144 570 1162T487 1216Q452 1242 430 1254T392 1266Q362 1266 349 1236T331 1144H199Q209 1436 380 1436Z" horiz-adv-x="1021" unicode="õ"/>
			<glyph d="M511 1051Q747 1051 852 909T958 518Q958 -20 507 -20Q281 -20 172 123T64 518Q64 763 174 907T511 1051ZM515 835Q453 835 415 801T361 699T344 518Q344 350 383 273T505 196Q567 196 605 229T660 332T678 518Q678 631 661 700T609 802T515 835ZM327 1412Q379 1412 414 1378T449 1292Q449 1240 414 1205T327 1170Q273 1170 239 1204T205 1292Q205 1344 239 1378T327 1412ZM695 1412Q746 1412 781 1378T816 1292Q816 1240 781 1205T695 1170Q641 1170 606 1204T572 1292Q572 1345 606 1378T695 1412Z" horiz-adv-x="1021" unicode="ö"/>
			<glyph d="M459 1211Q516 1211 552 1174T589 1080Q589 1023 552 985T459 948Q401 948 364 984T328 1080Q328 1138 364 1174T459 1211ZM48 794H870V569H48ZM459 416Q516 416 552 379T589 285Q589 228 552 190T459 153Q401 153 364 189T328 285Q328 343 364 379T459 416Z" horiz-adv-x="920" unicode="÷"/>
			<glyph d="M812 1085H994L863 895Q958 762 958 518Q958 -20 507 -20Q369 -20 273 36L209 -56H27L161 139Q64 275 64 518Q64 763 174 907T511 1051Q655 1051 751 996ZM515 835Q453 835 415 801T361 699T344 518Q344 464 349 412L614 798Q578 835 515 835ZM674 620L409 235Q447 196 505 196Q567 196 605 229T660 332T678 518Q678 580 674 620Z" horiz-adv-x="1021" unicode="ø"/>
			<glyph d="M101 1030H370V455Q370 341 398 276T498 211Q550 211 588 250T647 358T668 518V1030H936V240Q936 84 938 0H679Q675 62 673 154H670Q623 60 558 20T392 -20Q238 -20 169 89T101 390ZM212 1462H466L658 1174V1144H500L212 1419Z" unicode="ù"/>
			<glyph d="M101 1030H370V455Q370 341 398 276T498 211Q550 211 588 250T647 358T668 518V1030H936V240Q936 84 938 0H679Q675 62 673 154H670Q623 60 558 20T392 -20Q238 -20 169 89T101 390ZM576 1462H829V1419L541 1144H384V1174Z" unicode="ú"/>
			<glyph d="M101 1030H370V455Q370 341 398 276T498 211Q550 211 588 250T647 358T668 518V1030H936V240Q936 84 938 0H679Q675 62 673 154H670Q623 60 558 20T392 -20Q238 -20 169 89T101 390ZM428 1476H619L807 1174V1144H655L527 1301H523L390 1144H235V1174Z" unicode="û"/>
			<glyph d="M101 1030H370V455Q370 341 398 276T498 211Q550 211 588 250T647 358T668 518V1030H936V240Q936 84 938 0H679Q675 62 673 154H670Q623 60 558 20T392 -20Q238 -20 169 89T101 390ZM338 1412Q390 1412 425 1378T460 1292Q460 1240 425 1205T338 1170Q284 1170 250 1204T216 1292Q216 1344 250 1378T338 1412ZM706 1412Q757 1412 792 1378T827 1292Q827 1240 792 1205T706 1170Q652 1170 617 1204T583 1292Q583 1345 617 1378T706 1412Z" unicode="ü"/>
			<glyph d="M-10 1030H275L404 533Q433 421 465 277L478 345Q500 471 514 527L631 1030H914L583 -94Q541 -220 492 -291T378 -394T218 -426Q157 -426 92 -413L110 -202Q154 -210 170 -210Q226 -210 258 -172T318 -52L330 -14ZM508 1462H761V1419L473 1144H316V1174Z" horiz-adv-x="906" unicode="ý"/>
			<glyph d="M106 1454H375V1034L373 916H376Q421 989 477 1020T622 1051Q795 1051 880 910T965 520Q965 268 875 124T605 -19Q527 -19 468 13T374 112H370Q370 96 371 82Q373 32 373 -9V-426H106ZM537 839Q372 839 372 512Q372 194 535 194Q593 194 625 227T671 330T685 520Q685 632 672 701T626 804T537 839Z" horiz-adv-x="1029" unicode="þ"/>
			<glyph d="M-10 1030H275L404 533Q433 421 465 277L478 345Q500 471 514 527L631 1030H914L583 -94Q541 -220 492 -291T378 -394T218 -426Q157 -426 92 -413L110 -202Q154 -210 170 -210Q226 -210 258 -172T318 -52L330 -14ZM270 1412Q322 1412 357 1378T392 1292Q392 1240 357 1205T270 1170Q216 1170 182 1204T148 1292Q148 1344 182 1378T270 1412ZM638 1412Q689 1412 724 1378T759 1292Q759 1240 724 1205T638 1170Q584 1170 549 1204T515 1292Q515 1345 549 1378T638 1412Z" horiz-adv-x="906" unicode="ÿ"/>
			<glyph d="M385 1409H710L1093 0H815L740 316H355L280 0H0ZM547 1137Q545 1118 504 939L409 540H686L591 939Q576 1004 556 1097Q548 1136 547 1137ZM300 1706H794V1546H300Z" horiz-adv-x="1093" unicode="Ā"/>
			<glyph d="M510 1051Q686 1051 783 956T880 683V308Q880 133 883 1L625 0L620 130H616Q571 57 500 18T336 -20Q202 -20 127 62T52 293Q52 459 156 535T435 614L614 618V676Q614 843 474 843Q412 843 361 812T244 709L93 855Q187 956 284 1003T510 1051ZM612 461L506 459Q330 453 330 311Q330 246 360 211T445 177Q497 177 534 205T592 280T612 376ZM271 1337H741V1177H271Z" horiz-adv-x="987" unicode="ā"/>
			<glyph d="M385 1409H710L1093 0H815L740 316H355L280 0H0ZM547 1137Q545 1118 504 939L409 540H686L591 939Q576 1004 556 1097Q548 1136 547 1137ZM244 1825H398Q415 1744 449 1712T548 1680Q614 1680 646 1712T694 1825H850Q833 1682 758 1601T545 1520Q269 1520 244 1825Z" horiz-adv-x="1093" unicode="Ă"/>
			<glyph d="M510 1051Q686 1051 783 956T880 683V308Q880 133 883 1L625 0L620 130H616Q571 57 500 18T336 -20Q202 -20 127 62T52 293Q52 459 156 535T435 614L614 618V676Q614 843 474 843Q412 843 361 812T244 709L93 855Q187 956 284 1003T510 1051ZM612 461L506 459Q330 453 330 311Q330 246 360 211T445 177Q497 177 534 205T592 280T612 376ZM223 1467H378Q387 1384 416 1343T507 1302Q569 1302 596 1342T634 1467H789Q780 1323 710 1232T503 1142Q360 1142 293 1232T223 1467Z" horiz-adv-x="987" unicode="ă"/>
			<glyph d="M385 1409H710L1093 0H993Q940 -35 911 -77T883 -165Q883 -208 910 -234T985 -260Q1046 -260 1104 -237V-383Q1036 -411 949 -411Q841 -411 779 -354T717 -197Q717 -139 744 -89T820 0H815L740 316H355L280 0H0ZM547 1137Q545 1118 504 939L409 540H686L591 939Q576 1004 556 1097Q548 1136 547 1137Z" horiz-adv-x="1093" unicode="Ą"/>
			<glyph d="M507 1051Q684 1051 780 956T877 683V308Q877 145 880 1H821Q768 -35 739 -77T710 -165Q710 -208 737 -234T813 -260Q873 -260 931 -237V-383Q863 -411 776 -411Q668 -411 606 -354T545 -197Q545 -137 574 -85T655 5H622L617 130H613Q568 57 497 18T333 -20Q199 -20 124 62T49 293Q49 459 153 535T432 614L611 618V676Q611 843 471 843Q409 843 357 811T239 708L91 855Q184 956 281 1003T507 1051ZM609 461L504 459Q330 453 330 314Q330 251 359 214T442 178Q494 178 531 206T589 280T609 376Z" horiz-adv-x="984" unicode="ą"/>
			<glyph d="M607 1430Q731 1430 817 1394T964 1284T1073 1086L822 1000Q788 1088 740 1136T613 1184Q366 1184 366 711Q366 486 428 355T618 225Q672 225 710 249T774 314T828 420L1085 331Q1019 163 906 71T618 -20Q442 -20 321 73T140 330T80 711Q80 933 139 1094T316 1343T607 1430ZM681 1810H942V1766L578 1528H430V1557Z" horiz-adv-x="1125" unicode="Ć"/>
			<glyph d="M505 1052Q639 1052 725 996T872 814L664 709Q636 774 601 804T511 834Q417 834 377 756T337 520Q337 357 382 277T519 198Q575 198 618 228T710 330L881 199Q808 87 716 33T502 -20Q280 -20 171 120T62 511Q62 683 114 804T266 989T505 1052ZM575 1462H828V1419L540 1144H383V1174Z" horiz-adv-x="940" unicode="ć"/>
			<glyph d="M607 1430Q731 1430 817 1394T964 1284T1073 1086L822 1000Q788 1088 740 1136T613 1184Q366 1184 366 711Q366 486 428 355T618 225Q672 225 710 249T774 314T828 420L1085 331Q1019 163 906 71T618 -20Q442 -20 321 73T140 330T80 711Q80 933 139 1094T316 1343T607 1430ZM495 1828H727L976 1557V1528H817L612 1673H610L400 1528H238V1557Z" horiz-adv-x="1125" unicode="Ĉ"/>
			<glyph d="M505 1052Q639 1052 725 996T872 814L664 709Q636 774 601 804T511 834Q417 834 377 756T337 520Q337 357 382 277T519 198Q575 198 618 228T710 330L881 199Q808 87 716 33T502 -20Q280 -20 171 120T62 511Q62 683 114 804T266 989T505 1052ZM386 1476H577L765 1174V1144H613L485 1301H481L348 1144H193V1174Z" horiz-adv-x="913" unicode="ĉ"/>
			<glyph d="M607 1430Q731 1430 817 1394T964 1284T1073 1086L822 1000Q788 1088 740 1136T613 1184Q366 1184 366 711Q366 486 428 355T618 225Q672 225 710 249T774 314T828 420L1085 331Q1019 163 906 71T618 -20Q442 -20 321 73T140 330T80 711Q80 933 139 1094T316 1343T607 1430ZM607 1770Q666 1770 703 1736T741 1649Q741 1596 703 1562T607 1529Q547 1529 510 1562T474 1649Q474 1703 510 1736T607 1770Z" horiz-adv-x="1125" unicode="Ċ"/>
			<glyph d="M505 1052Q639 1052 725 996T872 814L664 709Q636 774 601 804T511 834Q417 834 377 756T337 520Q337 357 382 277T519 198Q575 198 618 228T710 330L881 199Q808 87 716 33T502 -20Q280 -20 171 120T62 511Q62 683 114 804T266 989T505 1052ZM480 1420Q540 1420 577 1384T614 1293Q614 1239 577 1204T480 1169Q419 1169 382 1203T346 1293Q346 1350 383 1385T480 1420Z" horiz-adv-x="913" unicode="ċ"/>
			<glyph d="M607 1430Q731 1430 817 1394T964 1284T1073 1086L822 1000Q788 1088 740 1136T613 1184Q366 1184 366 711Q366 486 428 355T618 225Q672 225 710 249T774 314T828 420L1085 331Q1019 163 906 71T618 -20Q442 -20 321 73T140 330T80 711Q80 933 139 1094T316 1343T607 1430ZM238 1828H400L610 1673H612L817 1828H976V1797L727 1528H495L238 1797Z" horiz-adv-x="1125" unicode="Č"/>
			<glyph d="M505 1052Q639 1052 725 996T872 814L664 709Q636 774 601 804T511 834Q417 834 377 756T337 520Q337 357 382 277T519 198Q575 198 618 228T710 330L881 199Q808 87 716 33T502 -20Q280 -20 171 120T62 511Q62 683 114 804T266 989T505 1052ZM193 1476H348L481 1318H485L613 1476H765V1446L577 1144H386L193 1446Z" horiz-adv-x="913" unicode="č"/>
			<glyph d="M136 1409H564Q732 1409 857 1334T1053 1103T1124 715Q1124 487 1057 326T874 82T610 0H136ZM419 1164V245H570Q651 245 712 298T807 456T841 715Q841 946 763 1055T540 1164ZM209 1828H371L581 1673H583L788 1828H947V1797L698 1528H466L209 1797Z" horiz-adv-x="1204" unicode="Ď"/>
			<glyph d="M654 1454H923V236L924 0H666Q664 16 658 116H653Q606 42 548 11T404 -19Q232 -19 147 123T62 513Q62 764 147 906T406 1049Q493 1049 552 1018T656 919H658L657 957Q654 992 654 1038ZM497 837Q439 837 405 804T357 701T343 513Q343 401 356 332T403 228T495 194Q656 194 656 522Q656 696 614 766T497 837ZM1106 1462Q1167 1462 1202 1425T1238 1324Q1238 1248 1200 1186T1098 1061L1022 1132Q1075 1192 1090 1241Q1039 1249 1013 1277T987 1348Q987 1400 1020 1431T1106 1462Z" horiz-adv-x="1183" unicode="ď"/>
			<glyph d="M136 1409H564Q732 1409 857 1334T1053 1103T1124 715Q1124 487 1057 326T874 82T610 0H136V591H15V816H136ZM419 1164V816H637V591H419V245H570Q651 245 712 298T807 456T841 715Q841 946 763 1055T540 1164Z" horiz-adv-x="1204" unicode="Đ"/>
			<glyph d="M654 1454H923V1310H1029V1148H923V236L924 0H666Q664 16 658 116H653Q606 42 548 11T404 -19Q232 -19 147 123T62 513Q62 764 147 906T406 1049Q493 1049 552 1018T656 919H658L657 957Q654 992 654 1038V1148H443V1310H654ZM497 837Q439 837 405 804T357 701T343 513Q343 401 356 332T403 228T495 194Q656 194 656 522Q656 696 614 766T497 837Z" horiz-adv-x="1029" unicode="đ"/>
			<glyph d="M136 1409H925V1169H419V833H878V599H419V239H955V0H136ZM305 1706H799V1546H305Z" horiz-adv-x="1017" unicode="Ē"/>
			<glyph d="M504 1051Q721 1051 822 910T923 541Q923 500 919 454H342Q342 327 393 257T534 187Q599 187 652 219T769 318L912 170Q822 73 726 26T504 -20Q370 -20 271 40T118 221T64 520Q64 701 119 819T274 994T504 1051ZM509 854Q436 854 391 796T344 625H661Q659 733 618 793T509 854ZM266 1337H736V1177H266Z" horiz-adv-x="978" unicode="ē"/>
			<glyph d="M136 1409H925V1169H419V833H878V599H419V239H955V0H136ZM249 1825H403Q420 1744 454 1712T553 1680Q619 1680 651 1712T699 1825H855Q838 1682 763 1601T550 1520Q274 1520 249 1825Z" horiz-adv-x="1017" unicode="Ĕ"/>
			<glyph d="M504 1051Q721 1051 822 910T923 541Q923 500 919 454H342Q342 327 393 257T534 187Q599 187 652 219T769 318L912 170Q822 73 726 26T504 -20Q370 -20 271 40T118 221T64 520Q64 701 119 819T274 994T504 1051ZM509 854Q436 854 391 796T344 625H661Q659 733 618 793T509 854ZM218 1467H373Q382 1384 411 1343T502 1302Q564 1302 591 1342T629 1467H784Q775 1323 705 1232T498 1142Q355 1142 288 1232T218 1467Z" horiz-adv-x="978" unicode="ĕ"/>
			<glyph d="M136 1409H925V1169H419V833H878V599H419V239H955V0H136ZM553 1770Q612 1770 649 1736T687 1649Q687 1596 649 1562T553 1529Q493 1529 456 1562T420 1649Q420 1703 456 1736T553 1770Z" horiz-adv-x="1017" unicode="Ė"/>
			<glyph d="M504 1051Q721 1051 822 910T923 541Q923 500 919 454H342Q342 327 393 257T534 187Q599 187 652 219T769 318L912 170Q822 73 726 26T504 -20Q370 -20 271 40T118 221T64 520Q64 701 119 819T274 994T504 1051ZM509 854Q436 854 391 796T344 625H661Q659 733 618 793T509 854ZM502 1420Q562 1420 599 1384T636 1293Q636 1239 599 1204T502 1169Q441 1169 404 1203T368 1293Q368 1350 405 1385T502 1420Z" horiz-adv-x="978" unicode="ė"/>
			<glyph d="M136 1409H925V1169H419V833H878V599H419V239H955V0H829Q776 -35 747 -77T719 -165Q719 -208 746 -234T821 -260Q882 -260 940 -237V-383Q872 -411 785 -411Q677 -411 615 -354T553 -197Q553 -139 580 -89T656 0H136Z" horiz-adv-x="1017" unicode="Ę"/>
			<glyph d="M504 1051Q721 1051 822 910T923 541Q923 500 919 454H342Q342 327 393 257T534 187Q599 187 652 219T769 318L912 170Q850 104 788 61T654 -1Q602 -36 573 -78T545 -165Q545 -208 572 -234T647 -260Q708 -260 766 -237V-383Q698 -411 611 -411Q503 -411 441 -354T379 -197Q379 -146 400 -100T461 -18Q339 -9 250 54T112 234T64 520Q64 701 119 819T274 994T504 1051ZM509 854Q436 854 391 796T344 625H661Q659 733 618 793T509 854Z" horiz-adv-x="978" unicode="ę"/>
			<glyph d="M136 1409H925V1169H419V833H878V599H419V239H955V0H136ZM184 1828H346L556 1673H558L763 1828H922V1797L673 1528H441L184 1797Z" horiz-adv-x="1017" unicode="Ě"/>
			<glyph d="M504 1051Q721 1051 822 910T923 541Q923 500 919 454H342Q342 327 393 257T534 187Q599 187 652 219T769 318L912 170Q822 73 726 26T504 -20Q370 -20 271 40T118 221T64 520Q64 701 119 819T274 994T504 1051ZM509 854Q436 854 391 796T344 625H661Q659 733 618 793T509 854ZM215 1476H370L503 1318H507L635 1476H787V1446L599 1144H408L215 1446Z" horiz-adv-x="978" unicode="ě"/>
			<glyph d="M608 1430Q783 1430 894 1347T1069 1108L818 1016Q749 1184 610 1184Q487 1184 426 1058T366 711Q366 487 428 356T618 225Q728 225 788 297T848 490V530H610V745H1095V0H892V143Q842 63 767 21T595 -20Q425 -20 309 72T137 330T80 711Q80 934 138 1095T315 1343T608 1430ZM485 1828H717L966 1557V1528H807L602 1673H600L390 1528H228V1557Z" horiz-adv-x="1194" unicode="Ĝ"/>
			<glyph d="M946 1137H949L959 922H955Q879 922 823 905Q886 816 886 681Q886 578 843 498T711 371T487 325Q422 325 368 337Q350 324 341 309T332 275Q332 251 354 239T415 221T546 208Q554 208 574 206Q704 196 785 175T921 87T977 -113Q977 -273 856 -349T479 -426Q329 -426 235 -400T97 -322T53 -185Q53 -117 87 -64T190 35Q105 92 105 198Q105 264 137 311T226 398Q162 444 129 515T96 681Q96 787 137 869T268 998T493 1045Q619 1045 706 1003Q753 1070 810 1103T946 1137ZM495 867Q345 867 345 681Q345 589 380 546T485 504Q564 504 600 549T637 681Q637 774 602 820T495 867ZM339 -20Q312 -48 300 -73T288 -134Q288 -197 336 -219T492 -241Q618 -241 678 -219T739 -143Q739 -103 715 -83T645 -56T505 -40Q407 -33 339 -20ZM387 1476H578L766 1174V1144H614L486 1301H482L349 1144H194V1174Z" horiz-adv-x="983" unicode="ĝ"/>
			<glyph d="M608 1430Q783 1430 894 1347T1069 1108L818 1016Q749 1184 610 1184Q487 1184 426 1058T366 711Q366 487 428 356T618 225Q728 225 788 297T848 490V530H610V745H1095V0H892V143Q842 63 767 21T595 -20Q425 -20 309 72T137 330T80 711Q80 934 138 1095T315 1343T608 1430ZM293 1825H447Q464 1744 498 1712T597 1680Q663 1680 695 1712T743 1825H899Q882 1682 807 1601T594 1520Q318 1520 293 1825Z" horiz-adv-x="1194" unicode="Ğ"/>
			<glyph d="M946 1137H949L959 922H955Q879 922 823 905Q886 816 886 681Q886 578 843 498T711 371T487 325Q422 325 368 337Q350 324 341 309T332 275Q332 251 354 239T415 221T546 208Q554 208 574 206Q704 196 785 175T921 87T977 -113Q977 -273 856 -349T479 -426Q329 -426 235 -400T97 -322T53 -185Q53 -117 87 -64T190 35Q105 92 105 198Q105 264 137 311T226 398Q162 444 129 515T96 681Q96 787 137 869T268 998T493 1045Q619 1045 706 1003Q753 1070 810 1103T946 1137ZM495 867Q345 867 345 681Q345 589 380 546T485 504Q564 504 600 549T637 681Q637 774 602 820T495 867ZM339 -20Q312 -48 300 -73T288 -134Q288 -197 336 -219T492 -241Q618 -241 678 -219T739 -143Q739 -103 715 -83T645 -56T505 -40Q407 -33 339 -20ZM197 1467H352Q361 1384 390 1343T481 1302Q543 1302 570 1342T608 1467H763Q754 1323 684 1232T477 1142Q334 1142 267 1232T197 1467Z" horiz-adv-x="983" unicode="ğ"/>
			<glyph d="M608 1430Q783 1430 894 1347T1069 1108L818 1016Q749 1184 610 1184Q487 1184 426 1058T366 711Q366 487 428 356T618 225Q728 225 788 297T848 490V530H610V745H1095V0H892V143Q842 63 767 21T595 -20Q425 -20 309 72T137 330T80 711Q80 934 138 1095T315 1343T608 1430ZM597 1770Q656 1770 693 1736T731 1649Q731 1596 693 1562T597 1529Q537 1529 500 1562T464 1649Q464 1703 500 1736T597 1770Z" horiz-adv-x="1194" unicode="Ġ"/>
			<glyph d="M946 1137H949L959 922H955Q879 922 823 905Q886 816 886 681Q886 578 843 498T711 371T487 325Q422 325 368 337Q350 324 341 309T332 275Q332 251 354 239T415 221T546 208Q554 208 574 206Q704 196 785 175T921 87T977 -113Q977 -273 856 -349T479 -426Q329 -426 235 -400T97 -322T53 -185Q53 -117 87 -64T190 35Q105 92 105 198Q105 264 137 311T226 398Q162 444 129 515T96 681Q96 787 137 869T268 998T493 1045Q619 1045 706 1003Q753 1070 810 1103T946 1137ZM495 867Q345 867 345 681Q345 589 380 546T485 504Q564 504 600 549T637 681Q637 774 602 820T495 867ZM339 -20Q312 -48 300 -73T288 -134Q288 -197 336 -219T492 -241Q618 -241 678 -219T739 -143Q739 -103 715 -83T645 -56T505 -40Q407 -33 339 -20ZM481 1420Q541 1420 578 1384T615 1293Q615 1239 578 1204T481 1169Q420 1169 383 1203T347 1293Q347 1350 384 1385T481 1420Z" horiz-adv-x="983" unicode="ġ"/>
			<glyph d="M608 1430Q783 1430 894 1347T1069 1108L818 1016Q749 1184 610 1184Q487 1184 426 1058T366 711Q366 487 428 356T618 225Q728 225 788 297T848 490V530H610V745H1095V0H892V143Q842 63 767 21T595 -20Q425 -20 309 72T137 330T80 711Q80 934 138 1095T315 1343T608 1430ZM590 -74Q651 -74 686 -108T721 -205Q721 -269 688 -323T600 -430L516 -371Q566 -319 579 -280Q530 -274 500 -246T471 -178Q471 -132 504 -103T590 -74Z" horiz-adv-x="1194" unicode="Ģ"/>
			<glyph d="M946 1137H949L959 922H955Q879 922 823 905Q886 816 886 681Q886 578 843 498T711 371T487 325Q422 325 368 337Q350 324 341 309T332 275Q332 251 354 239T415 221T546 208Q554 208 574 206Q704 196 785 175T921 87T977 -113Q977 -273 856 -349T479 -426Q329 -426 235 -400T97 -322T53 -185Q53 -117 87 -64T190 35Q105 92 105 198Q105 264 137 311T226 398Q162 444 129 515T96 681Q96 787 137 869T268 998T493 1045Q619 1045 706 1003Q753 1070 810 1103T946 1137ZM495 867Q345 867 345 681Q345 589 380 546T485 504Q564 504 600 549T637 681Q637 774 602 820T495 867ZM339 -20Q312 -48 300 -73T288 -134Q288 -197 336 -219T492 -241Q618 -241 678 -219T739 -143Q739 -103 715 -83T645 -56T505 -40Q407 -33 339 -20ZM495 1537L572 1466Q517 1416 503 1379Q555 1370 580 1344T606 1281Q606 1233 573 1203T489 1174Q427 1174 392 1206T357 1299Q357 1367 394 1423T495 1537Z" horiz-adv-x="983" unicode="ģ"/>
			<glyph d="M136 1409H419V856H845V1409H1128V0H845V602H419V0H136ZM520 1828H752L1001 1557V1528H842L637 1673H635L425 1528H263V1557Z" horiz-adv-x="1264" unicode="Ĥ"/>
			<glyph d="M106 1454H375V1028Q375 964 369 877H373Q428 970 491 1010T658 1051Q802 1051 871 939T941 640V0H672V574Q672 690 646 754T549 818Q494 818 454 780T395 676T375 526V0H106ZM457 1828H689L938 1557V1528H779L574 1673H572L362 1528H200V1557Z" unicode="ĥ"/>
			<glyph d="M136 1409H419V1218H845V1409H1128V1218H1222V1046H1128V0H845V602H419V0H136V1046H40V1218H136ZM419 1046V856H845V1046Z" horiz-adv-x="1264" unicode="Ħ"/>
			<glyph d="M106 1454H375V1310H587V1148H375V1028Q375 964 369 877H373Q428 970 491 1010T658 1051Q802 1051 871 939T941 640V0H672V574Q672 690 646 754T549 818Q494 818 454 780T395 676T375 526V0H106V1148H3V1312H106Z" unicode="ħ"/>
			<glyph d="M136 1409H419V0H136ZM148 1817Q187 1817 224 1797T308 1743Q343 1718 362 1707T397 1696Q425 1696 438 1725T460 1817H591Q587 1698 548 1612T409 1526Q373 1526 338 1544T255 1598Q220 1624 198 1636T160 1648Q130 1648 118 1619T98 1526H-33Q-23 1817 148 1817Z" horiz-adv-x="557" unicode="Ĩ"/>
			<glyph d="M106 1030H375V0H106ZM114 1436Q153 1436 190 1416T274 1362Q307 1337 327 1325T363 1314Q391 1314 405 1345T426 1436H557Q553 1317 514 1230T375 1144Q339 1144 304 1162T221 1216Q186 1242 164 1254T126 1266Q96 1266 83 1236T65 1144H-67Q-57 1436 114 1436Z" horiz-adv-x="481" unicode="ĩ"/>
			<glyph d="M136 1409H419V0H136ZM31 1706H525V1546H31Z" horiz-adv-x="557" unicode="Ī"/>
			<glyph d="M106 1030H375V0H106ZM6 1337H476V1177H6Z" horiz-adv-x="481" unicode="ī"/>
			<glyph d="M136 1409H419V0H136ZM-25 1825H129Q146 1744 180 1712T279 1680Q345 1680 377 1712T425 1825H581Q564 1682 489 1601T276 1520Q0 1520 -25 1825Z" horiz-adv-x="557" unicode="Ĭ"/>
			<glyph d="M106 1030H375V0H106ZM-42 1467H113Q122 1384 151 1343T242 1302Q304 1302 331 1342T369 1467H524Q515 1323 445 1232T238 1142Q95 1142 28 1232T-42 1467Z" horiz-adv-x="481" unicode="ĭ"/>
			<glyph d="M136 1409H419V0H359Q303 -35 272 -77T242 -165Q242 -208 270 -234T345 -260Q406 -260 464 -237V-383Q396 -411 309 -411Q201 -411 139 -355T77 -201Q77 -85 188 0H136Z" horiz-adv-x="557" unicode="Į"/>
			<glyph d="M242 1492Q313 1492 356 1452T399 1347Q399 1283 356 1242T242 1201Q168 1201 125 1241T82 1347Q82 1413 125 1452T242 1492ZM106 1030H375V0H312Q260 -35 231 -77T202 -165Q202 -208 230 -234T305 -260Q366 -260 424 -237V-383Q356 -411 269 -411Q161 -411 99 -354T37 -197Q37 -139 64 -89T141 0H106Z" horiz-adv-x="481" unicode="į"/>
			<glyph d="M136 1409H419V0H136ZM279 1770Q338 1770 375 1736T413 1649Q413 1596 375 1562T279 1529Q219 1529 182 1562T146 1649Q146 1703 182 1736T279 1770Z" horiz-adv-x="557" unicode="İ"/>
			<glyph d="M106 1030H375V0H106Z" horiz-adv-x="481" unicode="ı"/>
			<glyph d="M136 1409H419V0H136ZM1105 1409H1388V433Q1388 218 1289 99T994 -20Q808 -20 708 64T568 330L830 394Q858 305 891 264T985 223Q1105 223 1105 397Z" horiz-adv-x="1511" unicode="Ĳ"/>
			<glyph d="M242 1492Q313 1492 356 1452T399 1347Q399 1283 356 1242T242 1201Q168 1201 125 1241T82 1347Q82 1413 125 1452T242 1492ZM106 1030H375V0H106ZM722 1492Q793 1492 836 1452T879 1347Q879 1283 836 1242T722 1201Q648 1201 605 1240T563 1347Q563 1413 605 1452T722 1492ZM587 1030H856V-102Q856 -249 791 -337T596 -426Q509 -426 448 -416L462 -198Q480 -203 504 -203Q549 -203 568 -168T587 -60Z" horiz-adv-x="962" unicode="ĳ"/>
			<glyph d="M548 1409H831V433Q831 218 732 99T437 -20Q251 -20 151 64T11 330L273 394Q301 305 334 264T428 223Q548 223 548 397ZM521 1828H753L1002 1557V1528H843L638 1673H636L426 1528H264V1557Z" horiz-adv-x="954" unicode="Ĵ"/>
			<glyph d="M106 1030H375V-102Q375 -249 310 -337T115 -426Q28 -426 -33 -416L-19 -198Q-1 -203 23 -203Q68 -203 87 -168T106 -60ZM148 1476H339L527 1174V1144H375L247 1301H243L110 1144H-45V1174Z" horiz-adv-x="481" unicode="ĵ"/>
			<glyph d="M136 1409H419V794L792 1409H1107L691 793L1143 0H824L503 592L419 487V0H136ZM589 -74Q650 -74 685 -108T720 -205Q720 -269 687 -323T599 -430L515 -371Q565 -319 578 -280Q529 -274 499 -246T470 -178Q470 -132 503 -103T589 -74Z" horiz-adv-x="1140" unicode="Ķ"/>
			<glyph d="M106 1454H375V591L677 1030H967L636 584L989 0H694L473 406L375 301V0H106ZM508 -74Q569 -74 604 -108T639 -205Q639 -269 606 -323T518 -430L434 -371Q484 -319 497 -280Q448 -274 418 -246T389 -178Q389 -132 422 -103T508 -74Z" horiz-adv-x="978" unicode="ķ"/>
			<glyph d="M106 1030H375V598L677 1030H967L631 614L989 0H698L466 425L375 332V0H106Z" horiz-adv-x="980" unicode="ĸ"/>
			<glyph d="M120 1409H403V244H854V0H120ZM521 1810H782V1766L418 1528H270V1557Z" horiz-adv-x="894" unicode="Ĺ"/>
			<glyph d="M106 1454H375V322Q375 263 394 234T458 205Q480 205 504 211L518 0Q474 -7 443 -10T366 -14Q237 -14 171 68T106 289ZM316 1835H577V1791L213 1553H65V1582Z" horiz-adv-x="533" unicode="ĺ"/>
			<glyph d="M120 1409H403V244H854V0H120ZM474 -74Q535 -74 570 -108T605 -205Q605 -269 572 -323T484 -430L400 -371Q450 -319 463 -280Q414 -274 384 -246T355 -178Q355 -132 388 -103T474 -74Z" horiz-adv-x="894" unicode="Ļ"/>
			<glyph d="M106 1454H375V322Q375 263 394 234T458 205Q480 205 504 211L518 0Q474 -7 443 -10T366 -14Q237 -14 171 68T106 289ZM304 -74Q365 -74 400 -108T435 -205Q435 -269 402 -323T314 -430L230 -371Q280 -319 293 -280Q244 -274 214 -246T185 -178Q185 -132 218 -103T304 -74Z" horiz-adv-x="533" unicode="ļ"/>
			<glyph d="M120 1409H403V244H854V0H120ZM685 1416Q746 1416 781 1379T817 1278Q817 1202 779 1140T677 1015L601 1086Q654 1146 669 1195Q618 1203 592 1231T566 1302Q566 1354 599 1385T685 1416Z" horiz-adv-x="894" unicode="Ľ"/>
			<glyph d="M106 1454H375V322Q375 263 394 234T458 205Q480 205 504 211L518 0Q474 -7 443 -10T366 -14Q237 -14 171 68T106 289ZM559 1455Q620 1455 655 1418T691 1317Q691 1241 653 1179T551 1054L475 1125Q528 1185 543 1234Q492 1242 466 1270T440 1341Q440 1393 473 1424T559 1455Z" horiz-adv-x="636" unicode="ľ"/>
			<glyph d="M120 1409H403V244H854V0H120ZM676 844Q736 844 773 808T810 717Q810 663 773 628T676 593Q615 593 578 627T542 717Q542 774 579 809T676 844Z" horiz-adv-x="894" unicode="Ŀ"/>
			<glyph d="M106 1454H375V322Q375 263 394 234T458 205Q480 205 504 211L518 0Q474 -7 443 -10T366 -14Q237 -14 171 68T106 289ZM594 771Q654 771 691 735T728 644Q728 590 691 555T594 520Q533 520 496 554T460 644Q460 701 497 736T594 771Z" horiz-adv-x="702" unicode="ŀ"/>
			<glyph d="M120 1409H403V840L616 999V768L403 609V244H854V0H120V420L20 343V572L120 651Z" horiz-adv-x="894" unicode="Ł"/>
			<glyph d="M106 1454H375V940L456 1002V801L375 739V322Q375 263 394 234T458 205Q480 205 504 211L518 0Q474 -7 443 -10T366 -14Q237 -14 171 68T106 289V558L28 505V705L106 762Z" horiz-adv-x="533" unicode="ł"/>
			<glyph d="M136 1409H473L929 365Q929 370 925 445T922 625V1409H1175V0H836L385 1036Q386 1013 388 936T390 797V0H136ZM737 1810H998V1766L634 1528H486V1557Z" horiz-adv-x="1315" unicode="Ń"/>
			<glyph d="M649 1051Q804 1051 872 940T941 639V0H672V571Q672 698 644 758T550 818Q467 818 421 740T375 526V0H106V788Q106 987 104 1030H361Q368 947 369 877H373Q422 969 486 1010T649 1051ZM595 1462H848V1419L560 1144H403V1174Z" unicode="ń"/>
			<glyph d="M136 1409H473L929 365Q929 370 925 445T922 625V1409H1175V0H836L385 1036Q386 1013 388 936T390 797V0H136ZM650 -74Q711 -74 746 -108T781 -205Q781 -269 748 -323T660 -430L576 -371Q626 -319 639 -280Q590 -274 560 -246T531 -178Q531 -132 564 -103T650 -74Z" horiz-adv-x="1315" unicode="Ņ"/>
			<glyph d="M649 1051Q804 1051 872 940T941 639V0H672V571Q672 698 644 758T550 818Q467 818 421 740T375 526V0H106V788Q106 987 104 1030H361Q368 947 369 877H373Q422 969 486 1010T649 1051ZM515 -74Q576 -74 611 -108T646 -205Q646 -269 613 -323T525 -430L441 -371Q491 -319 504 -280Q455 -274 425 -246T396 -178Q396 -132 429 -103T515 -74Z" unicode="ņ"/>
			<glyph d="M136 1409H473L929 365Q929 370 925 445T922 625V1409H1175V0H836L385 1036Q386 1013 388 936T390 797V0H136ZM294 1828H456L666 1673H668L873 1828H1032V1797L783 1528H551L294 1797Z" horiz-adv-x="1315" unicode="Ň"/>
			<glyph d="M649 1051Q804 1051 872 940T941 639V0H672V571Q672 698 644 758T550 818Q467 818 421 740T375 526V0H106V788Q106 987 104 1030H361Q368 947 369 877H373Q422 969 486 1010T649 1051ZM254 1476H409L542 1318H546L674 1476H826V1446L638 1144H447L254 1446Z" unicode="ň"/>
			<glyph d="M799 1051Q954 1051 1022 940T1091 639V0H822V571Q822 698 794 758T700 818Q617 818 571 740T525 526V0H256V788Q256 987 254 1030H511Q518 947 519 877H523Q572 969 636 1010T799 1051ZM84 1415Q156 1415 196 1368T237 1236Q237 1151 212 1073T151 932T63 794L-43 864Q55 1007 75 1121Q10 1131 -26 1170T-62 1271Q-62 1335 -21 1375T84 1415Z" horiz-adv-x="1192" unicode="ŉ"/>
			<glyph d="M136 1409H473L929 365Q929 370 925 445T922 625V1409H1175V0Q1175 -202 1076 -314T782 -426Q679 -426 600 -396T461 -306L616 -110Q656 -148 690 -165T764 -182Q829 -182 861 -139T893 -22V0H836L385 1036Q386 1013 388 936T390 797V0H136Z" horiz-adv-x="1315" unicode="Ŋ"/>
			<glyph d="M649 1051Q804 1051 872 940T941 639V-102Q941 -249 876 -337T682 -426Q594 -426 533 -416L547 -198Q565 -203 589 -203Q634 -203 653 -168T672 -60V571Q672 698 644 758T550 818Q467 818 421 740T375 526V0H106V788Q106 987 104 1030H361Q368 947 369 877H373Q422 969 486 1010T649 1051Z" unicode="ŋ"/>
			<glyph d="M634 1430Q816 1430 940 1342T1126 1092T1189 711Q1189 489 1125 324T936 70T634 -20Q449 -20 325 72T140 329T80 711Q80 933 142 1094T328 1343T634 1430ZM634 1184Q547 1184 487 1126T396 961T366 711Q366 567 397 457T488 286T634 225Q768 225 835 357T902 711Q902 854 871 960T780 1125T634 1184ZM386 1706H880V1546H386Z" horiz-adv-x="1268" unicode="Ō"/>
			<glyph d="M511 1051Q747 1051 852 909T958 518Q958 -20 507 -20Q281 -20 172 123T64 518Q64 763 174 907T511 1051ZM515 835Q453 835 415 801T361 699T344 518Q344 350 383 273T505 196Q567 196 605 229T660 332T678 518Q678 631 661 700T609 802T515 835ZM275 1337H745V1177H275Z" horiz-adv-x="1021" unicode="ō"/>
			<glyph d="M634 1430Q816 1430 940 1342T1126 1092T1189 711Q1189 489 1125 324T936 70T634 -20Q449 -20 325 72T140 329T80 711Q80 933 142 1094T328 1343T634 1430ZM634 1184Q547 1184 487 1126T396 961T366 711Q366 567 397 457T488 286T634 225Q768 225 835 357T902 711Q902 854 871 960T780 1125T634 1184ZM330 1825H484Q501 1744 535 1712T634 1680Q700 1680 732 1712T780 1825H936Q919 1682 844 1601T631 1520Q355 1520 330 1825Z" horiz-adv-x="1268" unicode="Ŏ"/>
			<glyph d="M511 1051Q747 1051 852 909T958 518Q958 -20 507 -20Q281 -20 172 123T64 518Q64 763 174 907T511 1051ZM515 835Q453 835 415 801T361 699T344 518Q344 350 383 273T505 196Q567 196 605 229T660 332T678 518Q678 631 661 700T609 802T515 835ZM227 1467H382Q391 1384 420 1343T511 1302Q573 1302 600 1342T638 1467H793Q784 1323 714 1232T507 1142Q364 1142 297 1232T227 1467Z" horiz-adv-x="1021" unicode="ŏ"/>
			<glyph d="M634 1430Q816 1430 940 1342T1126 1092T1189 711Q1189 489 1125 324T936 70T634 -20Q449 -20 325 72T140 329T80 711Q80 933 142 1094T328 1343T634 1430ZM634 1184Q547 1184 487 1126T396 961T366 711Q366 567 397 457T488 286T634 225Q768 225 835 357T902 711Q902 854 871 960T780 1125T634 1184ZM500 1824H744V1779L448 1528H272V1559ZM919 1824H1164V1779L866 1528H689V1559Z" horiz-adv-x="1268" unicode="Ő"/>
			<glyph d="M511 1051Q747 1051 852 909T958 518Q958 -20 507 -20Q281 -20 172 123T64 518Q64 763 174 907T511 1051ZM515 835Q453 835 415 801T361 699T344 518Q344 350 383 273T505 196Q567 196 605 229T660 332T678 518Q678 631 661 700T609 802T515 835ZM413 1445H651V1402L355 1142H184V1174ZM785 1445H1021V1402L725 1142H555V1174Z" horiz-adv-x="1021" unicode="ő"/>
			<glyph d="M624 1424Q699 1424 779 1409H1537V1169H1030V833H1490V599H1030V239H1567V0H772Q705 -16 624 -16Q439 -16 317 75T138 330T80 711Q80 1049 216 1236T624 1424ZM624 1186Q486 1186 426 1063T366 711Q366 221 624 221Q659 221 693 227T748 244V1166Q699 1186 624 1186Z" horiz-adv-x="1629" unicode="Œ"/>
			<glyph d="M511 1051Q607 1051 682 1014T805 909Q857 981 938 1016T1118 1051Q1335 1051 1436 910T1537 541Q1537 500 1533 454H956Q956 327 1007 257T1148 187Q1213 187 1266 219T1384 318L1527 170Q1436 73 1340 26T1118 -20Q1019 -20 938 16T807 123Q759 54 682 17T507 -20Q281 -20 172 123T64 518Q64 763 174 907T511 1051ZM1123 854Q1050 854 1005 796T958 625H1275Q1273 733 1232 793T1123 854ZM515 835Q453 835 415 801T361 699T344 518Q344 350 383 273T505 196Q567 196 605 229T660 332T678 518Q678 631 661 700T609 802T515 835Z" horiz-adv-x="1592" unicode="œ"/>
			<glyph d="M136 1409H589Q790 1409 895 1297T1001 987Q1001 839 938 739T775 589L1060 0H752L514 545H419V0H136ZM419 1187V766H548Q634 766 676 826T719 985Q719 1082 673 1134T542 1187ZM616 1810H877V1766L513 1528H365V1557Z" horiz-adv-x="1084" unicode="Ŕ"/>
			<glyph d="M599 1051Q620 1051 642 1046T675 1036L673 799Q650 806 631 808T589 811Q529 811 480 772T403 659T375 484V0H106V776Q106 994 104 1030H359Q369 905 369 845H373Q409 949 460 1000T599 1051ZM449 1462H702V1419L414 1144H257V1174Z" horiz-adv-x="683" unicode="ŕ"/>
			<glyph d="M136 1409H589Q790 1409 895 1297T1001 987Q1001 839 938 739T775 589L1060 0H752L514 545H419V0H136ZM419 1187V766H548Q634 766 676 826T719 985Q719 1082 673 1134T542 1187ZM555 -74Q616 -74 651 -108T686 -205Q686 -269 653 -323T565 -430L481 -371Q531 -319 544 -280Q495 -274 465 -246T436 -178Q436 -132 469 -103T555 -74Z" horiz-adv-x="1084" unicode="Ŗ"/>
			<glyph d="M599 1051Q620 1051 642 1046T675 1036L673 799Q650 806 631 808T589 811Q529 811 480 772T403 659T375 484V0H106V776Q106 994 104 1030H359Q369 905 369 845H373Q409 949 460 1000T599 1051ZM315 -74Q376 -74 411 -108T446 -205Q446 -269 413 -323T325 -430L241 -371Q291 -319 304 -280Q255 -274 225 -246T196 -178Q196 -132 229 -103T315 -74Z" horiz-adv-x="683" unicode="ŗ"/>
			<glyph d="M136 1409H589Q790 1409 895 1297T1001 987Q1001 839 938 739T775 589L1060 0H752L514 545H419V0H136ZM419 1187V766H548Q634 766 676 826T719 985Q719 1082 673 1134T542 1187ZM173 1828H335L545 1673H547L752 1828H911V1797L662 1528H430L173 1797Z" horiz-adv-x="1084" unicode="Ř"/>
			<glyph d="M599 1051Q620 1051 642 1046T675 1036L673 799Q650 806 631 808T589 811Q529 811 480 772T403 659T375 484V0H106V776Q106 994 104 1030H359Q369 905 369 845H373Q409 949 460 1000T599 1051ZM108 1476H263L396 1318H400L528 1476H680V1446L492 1144H301L108 1446Z" horiz-adv-x="683" unicode="ř"/>
			<glyph d="M530 1430Q638 1430 717 1403T858 1322T973 1181L763 1047Q711 1128 659 1164T536 1200Q452 1200 408 1158T365 1050Q365 991 392 955T464 899T602 846Q733 801 813 757T948 630T1003 409Q1003 281 950 184T789 34T523 -20Q197 -20 44 249L248 404Q292 337 332 297T420 238T533 218Q625 218 676 264T728 390Q728 452 700 489T629 547T511 593Q497 597 469 607Q353 647 272 695T141 827T90 1039Q90 1160 147 1248T304 1383T530 1430ZM605 1810H866V1766L502 1528H354V1557Z" horiz-adv-x="1064" unicode="Ś"/>
			<glyph d="M432 1051Q658 1051 783 904L641 753Q590 804 542 828T438 852Q382 852 349 827T316 759Q316 720 339 696T398 659T511 624Q601 598 666 563T773 465T815 303Q815 204 768 131T633 19T429 -20Q302 -20 204 17T35 133L165 296Q228 236 287 208T426 180Q488 180 525 205T563 283Q563 324 540 349T482 390T378 426Q359 431 353 433Q269 458 207 492T105 588T65 741Q65 836 109 906T236 1013T432 1051ZM482 1462H735V1419L447 1144H290V1174Z" horiz-adv-x="866" unicode="ś"/>
			<glyph d="M530 1430Q638 1430 717 1403T858 1322T973 1181L763 1047Q711 1128 659 1164T536 1200Q452 1200 408 1158T365 1050Q365 991 392 955T464 899T602 846Q733 801 813 757T948 630T1003 409Q1003 281 950 184T789 34T523 -20Q197 -20 44 249L248 404Q292 337 332 297T420 238T533 218Q625 218 676 264T728 390Q728 452 700 489T629 547T511 593Q497 597 469 607Q353 647 272 695T141 827T90 1039Q90 1160 147 1248T304 1383T530 1430ZM419 1828H651L900 1557V1528H741L536 1673H534L324 1528H162V1557Z" horiz-adv-x="1064" unicode="Ŝ"/>
			<glyph d="M432 1051Q658 1051 783 904L641 753Q590 804 542 828T438 852Q382 852 349 827T316 759Q316 720 339 696T398 659T511 624Q601 598 666 563T773 465T815 303Q815 204 768 131T633 19T429 -20Q302 -20 204 17T35 133L165 296Q228 236 287 208T426 180Q488 180 525 205T563 283Q563 324 540 349T482 390T378 426Q359 431 353 433Q269 458 207 492T105 588T65 741Q65 836 109 906T236 1013T432 1051ZM334 1476H525L713 1174V1144H561L433 1301H429L296 1144H141V1174Z" horiz-adv-x="866" unicode="ŝ"/>
			<glyph d="M530 1430Q638 1430 717 1403T858 1322T973 1181L763 1047Q711 1128 659 1164T536 1200Q452 1200 408 1158T365 1050Q365 991 392 955T464 899T602 846Q733 801 813 757T948 630T1003 409Q1003 230 901 116T600 -16L582 -86Q652 -93 685 -132T719 -237Q719 -321 655 -373T466 -426Q418 -426 386 -420V-294Q426 -301 450 -301Q546 -301 546 -240Q546 -211 525 -196T459 -182Q439 -182 423 -185L473 -18Q185 1 44 249L248 404Q292 337 332 297T420 238T533 218Q625 218 676 264T728 390Q728 452 700 489T629 547T511 593Q497 597 469 607Q353 647 272 695T141 827T90 1039Q90 1160 147 1248T304 1383T530 1430Z" horiz-adv-x="1071" unicode="Ş"/>
			<glyph d="M432 1051Q658 1051 783 904L641 753Q590 804 542 828T438 852Q382 852 349 827T316 759Q316 720 339 696T398 659T511 624Q601 598 666 563T773 465T815 303Q815 213 775 144T663 34T490 -17L472 -86Q542 -93 575 -132T609 -237Q609 -321 545 -373T356 -426Q308 -426 276 -420V-294Q316 -301 340 -301Q436 -301 436 -240Q436 -211 415 -196T349 -182Q330 -182 313 -185L364 -17Q155 0 35 133L165 296Q228 236 287 208T426 180Q488 180 525 205T563 283Q563 324 540 349T482 390T378 426Q359 431 353 433Q269 458 207 492T105 588T65 741Q65 836 109 906T236 1013T432 1051Z" horiz-adv-x="866" unicode="ş"/>
			<glyph d="M530 1430Q638 1430 717 1403T858 1322T973 1181L763 1047Q711 1128 659 1164T536 1200Q452 1200 408 1158T365 1050Q365 991 392 955T464 899T602 846Q733 801 813 757T948 630T1003 409Q1003 281 950 184T789 34T523 -20Q197 -20 44 249L248 404Q292 337 332 297T420 238T533 218Q625 218 676 264T728 390Q728 452 700 489T629 547T511 593Q497 597 469 607Q353 647 272 695T141 827T90 1039Q90 1160 147 1248T304 1383T530 1430ZM162 1828H324L534 1673H536L741 1828H900V1797L651 1528H419L162 1797Z" horiz-adv-x="1064" unicode="Š"/>
			<glyph d="M432 1051Q658 1051 783 904L641 753Q590 804 542 828T438 852Q382 852 349 827T316 759Q316 720 339 696T398 659T511 624Q601 598 666 563T773 465T815 303Q815 204 768 131T633 19T429 -20Q302 -20 204 17T35 133L165 296Q228 236 287 208T426 180Q488 180 525 205T563 283Q563 324 540 349T482 390T378 426Q359 431 353 433Q269 458 207 492T105 588T65 741Q65 836 109 906T236 1013T432 1051ZM141 1476H296L429 1318H433L561 1476H713V1446L525 1144H334L141 1446Z" horiz-adv-x="866" unicode="š"/>
			<glyph d="M29 1409H939V1163H622V0H538L516 -86Q585 -93 619 -132T653 -237Q653 -321 589 -373T399 -426Q353 -426 319 -420V-294Q361 -301 383 -301Q432 -301 456 -285T480 -240Q480 -211 459 -196T392 -182Q374 -182 356 -185L412 0H339V1163H29Z" horiz-adv-x="970" unicode="Ţ"/>
			<glyph d="M398 1283V1030H581V818H398V331Q398 264 420 232T489 201Q527 201 575 212L597 17Q552 2 514 -6T431 -17L413 -86Q483 -93 516 -132T550 -237Q550 -321 486 -373T297 -426Q249 -426 217 -420V-294Q257 -301 281 -301Q377 -301 377 -240Q377 -211 356 -196T290 -182Q271 -182 254 -185L307 -9Q222 12 176 81T130 266V818H29V1030H136L151 1265Z" horiz-adv-x="621" unicode="ţ"/>
			<glyph d="M29 1409H939V1163H622V0H339V1163H29ZM117 1828H279L489 1673H491L696 1828H855V1797L606 1528H374L117 1797Z" horiz-adv-x="970" unicode="Ť"/>
			<glyph d="M398 1283V1030H581V818H398V331Q398 264 420 232T489 201Q527 201 575 212L597 17Q541 -1 494 -9T384 -18Q263 -18 196 54T130 266V818H29V1030H136L151 1265ZM623 1461Q684 1461 719 1424T755 1323Q755 1247 717 1185T615 1060L539 1131Q592 1191 607 1240Q556 1248 530 1276T504 1347Q504 1399 537 1430T623 1461Z" horiz-adv-x="687" unicode="ť"/>
			<glyph d="M29 1409H939V1163H622V763H847V538H622V0H339V538H115V763H339V1163H29Z" horiz-adv-x="970" unicode="Ŧ"/>
			<glyph d="M398 1283V1030H581V818H398V647H535V468H398V331Q398 264 420 232T489 201Q527 201 575 212L597 17Q541 -1 494 -9T384 -18Q263 -18 196 54T130 266V468H48V647H130V818H29V1030H136L151 1265Z" horiz-adv-x="624" unicode="ŧ"/>
			<glyph d="M122 1409H405V530Q405 364 453 294T601 225Q704 225 755 299T807 542V1409H1087V543Q1087 259 958 119T594 -20Q367 -20 244 114T122 529ZM475 1817Q514 1817 551 1797T635 1743Q670 1718 689 1707T724 1696Q752 1696 765 1725T787 1817H918Q914 1698 875 1612T736 1526Q700 1526 665 1544T582 1598Q547 1624 525 1636T487 1648Q457 1648 445 1619T425 1526H294Q304 1817 475 1817Z" horiz-adv-x="1211" unicode="Ũ"/>
			<glyph d="M101 1030H370V455Q370 341 398 276T498 211Q550 211 588 250T647 358T668 518V1030H936V240Q936 84 938 0H679Q675 62 673 154H670Q623 60 558 20T392 -20Q238 -20 169 89T101 390ZM391 1436Q430 1436 467 1416T551 1362Q584 1337 604 1325T640 1314Q668 1314 682 1345T703 1436H834Q830 1317 791 1230T652 1144Q616 1144 581 1162T498 1216Q463 1242 441 1254T403 1266Q373 1266 360 1236T342 1144H210Q220 1436 391 1436Z" unicode="ũ"/>
			<glyph d="M122 1409H405V530Q405 364 453 294T601 225Q704 225 755 299T807 542V1409H1087V543Q1087 259 958 119T594 -20Q367 -20 244 114T122 529ZM358 1706H852V1546H358Z" horiz-adv-x="1211" unicode="Ū"/>
			<glyph d="M101 1030H370V455Q370 341 398 276T498 211Q550 211 588 250T647 358T668 518V1030H936V240Q936 84 938 0H679Q675 62 673 154H670Q623 60 558 20T392 -20Q238 -20 169 89T101 390ZM286 1337H756V1177H286Z" unicode="ū"/>
			<glyph d="M122 1409H405V530Q405 364 453 294T601 225Q704 225 755 299T807 542V1409H1087V543Q1087 259 958 119T594 -20Q367 -20 244 114T122 529ZM302 1825H456Q473 1744 507 1712T606 1680Q672 1680 704 1712T752 1825H908Q891 1682 816 1601T603 1520Q327 1520 302 1825Z" horiz-adv-x="1211" unicode="Ŭ"/>
			<glyph d="M101 1030H370V455Q370 341 398 276T498 211Q550 211 588 250T647 358T668 518V1030H936V240Q936 84 938 0H679Q675 62 673 154H670Q623 60 558 20T392 -20Q238 -20 169 89T101 390ZM238 1467H393Q402 1384 431 1343T522 1302Q584 1302 611 1342T649 1467H804Q795 1323 725 1232T518 1142Q375 1142 308 1232T238 1467Z" unicode="ŭ"/>
			<glyph d="M607 1851Q667 1851 717 1821T797 1740T827 1630Q827 1571 797 1520T717 1440T607 1410Q548 1410 497 1440T416 1520T387 1630Q387 1690 416 1740T496 1821T607 1851ZM607 1752Q556 1752 521 1716T486 1630Q486 1580 521 1545T607 1510Q657 1510 692 1545T728 1630Q728 1680 692 1716T607 1752ZM122 1409H405V530Q405 364 453 294T601 225Q704 225 755 299T807 542V1409H1087V543Q1087 259 958 119T594 -20Q367 -20 244 114T122 529Z" horiz-adv-x="1211" unicode="Ů"/>
			<glyph d="M101 1030H370V455Q370 341 398 276T498 211Q550 211 588 250T647 358T668 518V1030H936V240Q936 84 938 0H679Q675 62 673 154H670Q623 60 558 20T392 -20Q238 -20 169 89T101 390ZM522 1630Q591 1630 649 1596T742 1504T776 1378Q776 1309 742 1250T649 1157T522 1123Q453 1123 394 1157T302 1250T268 1378Q268 1446 302 1504T394 1596T522 1630ZM522 1516Q483 1516 451 1497T400 1447T382 1378Q382 1339 400 1306T451 1255T522 1237Q560 1237 592 1255T643 1306T662 1378Q662 1416 643 1447T592 1497T522 1516Z" unicode="ů"/>
			<glyph d="M122 1409H405V530Q405 364 453 294T601 225Q704 225 755 299T807 542V1409H1087V543Q1087 259 958 119T594 -20Q367 -20 244 114T122 529ZM472 1824H716V1779L420 1528H244V1559ZM891 1824H1136V1779L838 1528H661V1559Z" horiz-adv-x="1211" unicode="Ű"/>
			<glyph d="M101 1030H370V455Q370 341 398 276T498 211Q550 211 588 250T647 358T668 518V1030H936V240Q936 84 938 0H679Q675 62 673 154H670Q623 60 558 20T392 -20Q238 -20 169 89T101 390ZM424 1445H662V1402L366 1142H195V1174ZM796 1445H1032V1402L736 1142H566V1174Z" unicode="ű"/>
			<glyph d="M122 1409H405V530Q405 364 453 294T601 225Q704 225 755 299T807 542V1409H1087V543Q1087 296 989 158T710 -11Q661 -45 634 -86T607 -171Q607 -214 634 -240T709 -266Q770 -266 828 -243V-389Q760 -417 673 -417Q565 -417 503 -360T441 -203Q441 -150 465 -102T531 -17Q333 1 227 135T122 529Z" horiz-adv-x="1211" unicode="Ų"/>
			<glyph d="M101 1030H370V455Q370 341 398 276T498 211Q550 211 588 250T647 358T668 518V1030H936V240L937 65Q938 35 938 0H878Q761 -74 761 -165Q761 -208 789 -234T864 -260Q925 -260 983 -237V-383Q915 -411 828 -411Q720 -411 658 -354T596 -197Q596 -133 631 -79T724 12L679 0Q675 47 673 154H670Q623 60 558 20T392 -20Q238 -20 169 89T101 390Z" unicode="ų"/>
			<glyph d="M16 1409H303L447 618Q464 523 472 465T492 320Q493 311 497 276Q512 365 526 456Q535 510 549 595T572 728L695 1409H987L1108 723Q1130 598 1176 276L1195 395Q1222 565 1232 618L1369 1409H1657L1359 0H1022L885 782Q874 837 865 906T854 995Q848 1054 839 1113Q836 1090 829 1035Q827 1017 815 932T791 782L650 0H316ZM726 1828H958L1207 1557V1528H1048L843 1673H841L631 1528H469V1557Z" horiz-adv-x="1674" unicode="Ŵ"/>
			<glyph d="M25 1030H277L409 401Q417 362 428 296T443 209Q446 231 456 297T473 401L593 1030H915L1038 401L1068 209Q1071 230 1082 296T1101 401L1229 1030H1481L1235 0H912L795 607Q783 661 770 728T754 816Q751 795 738 728T714 609L598 0H275ZM660 1476H851L1039 1174V1144H887L759 1301H755L622 1144H467V1174Z" horiz-adv-x="1508" unicode="ŵ"/>
			<glyph d="M-3 1409H290L516 808L743 1409H1036L655 570V0H376L375 570ZM405 1828H637L886 1557V1528H727L522 1673H520L310 1528H148V1557Z" horiz-adv-x="1033" unicode="Ŷ"/>
			<glyph d="M-10 1030H275L404 533Q433 421 465 277L478 345Q500 471 514 527L631 1030H914L583 -94Q541 -220 492 -291T378 -394T218 -426Q157 -426 92 -413L110 -202Q154 -210 170 -210Q226 -210 258 -172T318 -52L330 -14ZM360 1476H551L739 1174V1144H587L459 1301H455L322 1144H167V1174Z" horiz-adv-x="906" unicode="ŷ"/>
			<glyph d="M-3 1409H290L516 808L743 1409H1036L655 570V0H376L375 570ZM328 1779Q381 1779 416 1744T452 1657Q452 1604 416 1568T328 1532Q274 1532 239 1567T204 1657Q204 1711 238 1745T328 1779ZM709 1779Q762 1779 796 1745T831 1657Q831 1604 796 1568T709 1532Q654 1532 618 1567T583 1657Q583 1711 618 1745T709 1779Z" horiz-adv-x="1033" unicode="Ÿ"/>
			<glyph d="M101 1409H865V1203L351 236H908V0H43V210L557 1173H101ZM564 1810H825V1766L461 1528H313V1557Z" horiz-adv-x="941" unicode="Ź"/>
			<glyph d="M76 1030H729V829L340 206H768V0H45V201L436 826H76ZM464 1462H717V1419L429 1144H272V1174Z" horiz-adv-x="802" unicode="ź"/>
			<glyph d="M101 1409H865V1203L351 236H908V0H43V210L557 1173H101ZM490 1770Q549 1770 586 1736T624 1649Q624 1596 586 1562T490 1529Q430 1529 393 1562T357 1649Q357 1703 393 1736T490 1770Z" horiz-adv-x="941" unicode="Ż"/>
			<glyph d="M76 1030H729V829L340 206H768V0H45V201L436 826H76ZM410 1420Q470 1420 507 1384T544 1293Q544 1239 507 1204T410 1169Q349 1169 312 1203T276 1293Q276 1350 313 1385T410 1420Z" horiz-adv-x="802" unicode="ż"/>
			<glyph d="M101 1409H865V1203L351 236H908V0H43V210L557 1173H101ZM121 1828H283L493 1673H495L700 1828H859V1797L610 1528H378L121 1797Z" horiz-adv-x="941" unicode="Ž"/>
			<glyph d="M76 1030H729V829L340 206H768V0H45V201L436 826H76ZM123 1476H278L411 1318H415L543 1476H695V1446L507 1144H316L123 1446Z" horiz-adv-x="802" unicode="ž"/>
			<glyph d="M434 1464Q523 1464 593 1445L566 1248Q545 1255 514 1255Q466 1255 443 1227T421 1132V0H152V1166Q152 1307 226 1385T434 1464Z" horiz-adv-x="580" unicode="ſ"/>
			<glyph d="M652 1431Q704 1431 755 1422T843 1401L794 1217Q778 1224 752 1229T704 1234Q659 1234 635 1206T601 1110L579 959H760L726 747H547L377 -426H108L278 747H144L181 959H314L339 1139Q357 1272 435 1351T652 1431Z" horiz-adv-x="878" unicode="ƒ"/>
			<glyph d="M518 1853H778V1809L652 1733Q716 1705 755 1649T794 1526Q794 1479 775 1437T722 1364L1093 0H815L740 316H355L280 0H0L372 1363Q338 1394 318 1436T299 1526Q299 1573 318 1615T373 1689ZM547 1643Q489 1643 451 1611T414 1527Q414 1473 451 1441T547 1409Q604 1409 642 1441T680 1527Q680 1580 642 1611T547 1643ZM547 1137Q545 1118 504 939L409 540H686L591 939Q576 1004 556 1097Q548 1136 547 1137Z" horiz-adv-x="1093" unicode="Ǻ"/>
			<glyph d="M519 1817H772V1777L591 1616Q666 1589 713 1524T761 1378Q761 1309 727 1250T634 1157T507 1123Q438 1123 379 1157T287 1250T253 1378Q253 1434 277 1484T342 1569ZM507 1516Q468 1516 436 1497T385 1447T367 1378Q367 1339 385 1306T436 1255T507 1237Q545 1237 577 1255T628 1306T647 1378Q647 1416 628 1447T577 1497T507 1516ZM510 1051Q686 1051 783 956T880 683V308Q880 133 883 1L625 0L620 130H616Q571 57 500 18T336 -20Q202 -20 127 62T52 293Q52 459 156 535T435 614L614 618V676Q614 843 474 843Q412 843 361 812T244 709L93 855Q187 956 284 1003T510 1051ZM612 461L506 459Q330 453 330 311Q330 246 360 211T445 177Q497 177 534 205T592 280T612 376Z" horiz-adv-x="987" unicode="ǻ"/>
			<glyph d="M501 1409H1452V1169H964V833H1405V599H964V239H1483V0H681V357H388L269 0H-27ZM662 1187Q644 1134 629 1082Q613 1030 604 1004L463 581H681V1187ZM1255 1810H1516V1766L1152 1528H1004V1557Z" horiz-adv-x="1544" unicode="Ǽ"/>
			<glyph d="M489 1051Q575 1051 646 1014T764 910Q821 981 897 1016T1071 1051Q1212 1051 1302 983T1433 801T1474 541Q1474 500 1470 454H891Q891 327 942 257T1085 187Q1150 187 1203 219T1321 318L1464 170Q1375 75 1276 27T1063 -20Q849 -20 739 148Q678 65 593 22T386 -20Q285 -20 209 17T93 124T52 293Q52 459 156 535T435 614L621 618V676Q621 843 474 843Q411 843 358 812T241 711L93 855Q183 956 276 1003T489 1051ZM1060 854Q985 854 939 796T892 625H1212Q1210 734 1170 794T1060 854ZM620 461L501 459Q330 453 330 310Q330 247 360 212T445 178Q499 178 538 206T599 280T620 376ZM821 1462H1074V1419L786 1144H629V1174Z" horiz-adv-x="1529" unicode="ǽ"/>
			<glyph d="M1032 1475H1215L1056 1227Q1122 1134 1155 1003T1189 711Q1189 489 1125 324T936 70T634 -20Q446 -20 318 78L229 -60H47L209 193Q145 289 112 421T80 711Q80 933 142 1094T328 1343T634 1430Q817 1430 945 1339ZM634 1184Q547 1184 487 1126T396 961T366 711Q366 581 392 477L797 1108Q730 1184 634 1184ZM875 946L467 310Q535 225 634 225Q768 225 835 357T902 711Q902 846 875 946ZM708 1810H969V1766L605 1528H457V1557Z" horiz-adv-x="1268" unicode="Ǿ"/>
			<glyph d="M812 1085H994L863 895Q958 762 958 518Q958 -20 507 -20Q369 -20 273 36L209 -56H27L161 139Q64 275 64 518Q64 763 174 907T511 1051Q655 1051 751 996ZM515 835Q453 835 415 801T361 699T344 518Q344 464 349 412L614 798Q578 835 515 835ZM674 620L409 235Q447 196 505 196Q567 196 605 229T660 332T678 518Q678 580 674 620ZM565 1462H818V1419L530 1144H373V1174Z" horiz-adv-x="1021" unicode="ǿ"/>
			<glyph d="M530 1430Q638 1430 717 1403T858 1322T973 1181L763 1047Q711 1128 659 1164T536 1200Q452 1200 408 1158T365 1050Q365 991 392 955T464 899T602 846Q733 801 813 757T948 630T1003 409Q1003 281 950 184T789 34T523 -20Q197 -20 44 249L248 404Q292 337 332 297T420 238T533 218Q625 218 676 264T728 390Q728 452 700 489T629 547T511 593Q497 597 469 607Q353 647 272 695T141 827T90 1039Q90 1160 147 1248T304 1383T530 1430ZM536 -74Q597 -74 632 -108T667 -205Q667 -269 634 -323T546 -430L462 -371Q512 -319 525 -280Q476 -274 446 -246T417 -178Q417 -132 450 -103T536 -74Z" horiz-adv-x="1064" unicode="Ș"/>
			<glyph d="M432 1051Q658 1051 783 904L641 753Q590 804 542 828T438 852Q382 852 349 827T316 759Q316 720 339 696T398 659T511 624Q601 598 666 563T773 465T815 303Q815 204 768 131T633 19T429 -20Q302 -20 204 17T35 133L165 296Q228 236 287 208T426 180Q488 180 525 205T563 283Q563 324 540 349T482 390T378 426Q359 431 353 433Q269 458 207 492T105 588T65 741Q65 836 109 906T236 1013T432 1051ZM427 -74Q488 -74 523 -108T558 -205Q558 -269 525 -323T437 -430L353 -371Q403 -319 416 -280Q367 -274 337 -246T308 -178Q308 -132 341 -103T427 -74Z" horiz-adv-x="866" unicode="ș"/>
			<glyph d="M29 1409H939V1163H622V0H339V1163H29ZM479 -74Q540 -74 575 -108T610 -205Q610 -269 577 -323T489 -430L405 -371Q455 -319 468 -280Q419 -274 389 -246T360 -178Q360 -132 393 -103T479 -74Z" horiz-adv-x="970" unicode="Ț"/>
			<glyph d="M398 1283V1030H581V818H398V331Q398 264 420 232T489 201Q527 201 575 212L597 17Q541 -1 494 -9T384 -18Q263 -18 196 54T130 266V818H29V1030H136L151 1265ZM344 -74Q405 -74 440 -108T475 -205Q475 -269 442 -323T354 -430L270 -371Q320 -319 333 -280Q284 -274 254 -246T225 -178Q225 -132 258 -103T344 -74Z" horiz-adv-x="624" unicode="ț"/>
			<glyph d="M106 1030H375V-102Q375 -249 310 -337T115 -426Q28 -426 -33 -416L-19 -198Q-1 -203 23 -203Q68 -203 87 -168T106 -60Z" horiz-adv-x="481" unicode="ȷ"/>
			<glyph d="M151 1409H414L320 908H113Z" horiz-adv-x="529" unicode="ʼ"/>
			<glyph d="M193 1476H384L572 1174V1144H420L292 1301H288L155 1144H0V1174Z" horiz-adv-x="574" unicode="ˆ"/>
			<glyph d="M0 1476H155L288 1318H292L420 1476H572V1446L384 1144H193L0 1446Z" horiz-adv-x="572" unicode="ˇ"/>
			<glyph d="M23 1337H493V1177H23Z" horiz-adv-x="516" unicode="ˉ"/>
			<glyph d="M9 1467H164Q173 1384 202 1343T293 1302Q355 1302 382 1342T420 1467H575Q566 1323 496 1232T289 1142Q146 1142 79 1232T9 1467Z" horiz-adv-x="584" unicode="˘"/>
			<glyph d="M302 1420Q362 1420 399 1384T436 1293Q436 1239 399 1204T302 1169Q241 1169 204 1203T168 1293Q168 1350 205 1385T302 1420Z" horiz-adv-x="604" unicode="˙"/>
			<glyph d="M293 1602Q362 1602 420 1568T513 1476T547 1350Q547 1281 513 1222T420 1129T293 1095Q224 1095 165 1129T73 1222T39 1350Q39 1418 73 1476T165 1568T293 1602ZM293 1488Q254 1488 222 1469T171 1419T153 1350Q153 1311 171 1278T222 1227T293 1209Q331 1209 363 1227T414 1278T433 1350Q433 1388 414 1419T363 1469T293 1488Z" horiz-adv-x="584" unicode="˚"/>
			<glyph d="M371 73L477 37Q395 -2 348 -54T302 -165Q302 -208 329 -234T404 -260Q465 -260 523 -237V-383Q455 -411 368 -411Q260 -411 198 -354T136 -197Q136 -105 202 -34T371 73Z" horiz-adv-x="643" unicode="˛"/>
			<glyph d="M163 1436Q202 1436 239 1416T323 1362Q356 1337 376 1325T412 1314Q440 1314 454 1345T475 1436H606Q602 1317 563 1230T424 1144Q388 1144 353 1162T270 1216Q235 1242 213 1254T175 1266Q145 1266 132 1236T114 1144H-18Q-8 1436 163 1436Z" horiz-adv-x="589" unicode="˜"/>
			<glyph d="M275 1445H513V1402L217 1142H46V1174ZM647 1445H883V1402L587 1142H417V1174Z" horiz-adv-x="919" unicode="˝"/>
			<glyph d="M-472 1462H-218L-26 1174V1144H-184L-472 1419Z" horiz-adv-x="0" unicode="̀"/>
			<glyph d="M-273 1462H-20V1419L-308 1144H-465V1174Z" horiz-adv-x="0" unicode="́"/>
			<glyph d="M-381 1476H-190L-2 1174V1144H-154L-282 1301H-286L-419 1144H-574V1174Z" horiz-adv-x="0" unicode="̂"/>
			<glyph d="M-426 1436Q-387 1436 -350 1416T-266 1362Q-233 1337 -213 1325T-177 1314Q-149 1314 -134 1345T-114 1436H17Q13 1317 -26 1230T-165 1144Q-201 1144 -236 1162T-319 1216Q-354 1242 -375 1254T-414 1266Q-444 1266 -456 1236T-475 1144H-607Q-597 1436 -426 1436Z" horiz-adv-x="0" unicode="̃"/>
			<glyph d="M-493 1337H-23V1177H-493Z" horiz-adv-x="0" unicode="̄"/>
			<glyph d="M-575 1467H-420Q-411 1384 -382 1343T-291 1302Q-229 1302 -201 1342T-164 1467H-9Q-18 1323 -88 1232T-295 1142Q-438 1142 -505 1232T-575 1467Z" horiz-adv-x="0" unicode="̆"/>
			<glyph d="M-302 1420Q-242 1420 -205 1384T-168 1293Q-168 1239 -205 1204T-302 1169Q-363 1169 -399 1203T-436 1293Q-436 1350 -399 1385T-302 1420Z" horiz-adv-x="0" unicode="̇"/>
			<glyph d="M-457 1412Q-405 1412 -370 1378T-335 1292Q-335 1240 -370 1205T-457 1170Q-511 1170 -545 1204T-579 1292Q-579 1344 -544 1378T-457 1412ZM-89 1412Q-38 1412 -3 1378T32 1292Q32 1240 -3 1205T-89 1170Q-143 1170 -177 1204T-212 1292Q-212 1345 -177 1378T-89 1412Z" horiz-adv-x="0" unicode="̈"/>
			<glyph d="M-291 1630Q-222 1630 -163 1596T-71 1504T-37 1378Q-37 1309 -71 1250T-163 1157T-291 1123Q-360 1123 -418 1157T-511 1250T-545 1378Q-545 1446 -511 1504T-418 1596T-291 1630ZM-291 1516Q-330 1516 -362 1497T-412 1447T-431 1378Q-431 1339 -412 1306T-362 1255T-291 1237Q-253 1237 -220 1255T-169 1306T-151 1378Q-151 1416 -169 1447T-220 1497T-291 1516Z" horiz-adv-x="0" unicode="̊"/>
			<glyph d="M-644 1445H-406V1402L-702 1142H-873V1174ZM-272 1445H-36V1402L-332 1142H-502V1174Z" horiz-adv-x="0" unicode="̋"/>
			<glyph d="M-572 1476H-417L-284 1318H-280L-152 1476H0V1446L-188 1144H-379L-572 1446Z" horiz-adv-x="0" unicode="̌"/>
			<glyph d="M-218 1537L-141 1466Q-196 1416 -210 1379Q-158 1370 -132 1344T-107 1281Q-107 1233 -139 1203T-224 1174Q-286 1174 -321 1206T-356 1299Q-356 1367 -319 1423T-218 1537Z" horiz-adv-x="0" unicode="̒"/>
			<glyph d="M-302 -122Q-242 -122 -205 -157T-168 -249Q-168 -303 -205 -338T-302 -373Q-363 -373 -399 -339T-436 -249Q-436 -192 -399 -157T-302 -122Z" horiz-adv-x="0" unicode="̣"/>
			<glyph d="M-232 -74Q-171 -74 -136 -108T-101 -205Q-101 -269 -134 -323T-222 -430L-306 -371Q-256 -319 -243 -280Q-292 -274 -321 -246T-351 -178Q-351 -132 -317 -103T-232 -74Z" horiz-adv-x="0" unicode="̦"/>
			<glyph d="M-289 0H-164L-186 -86Q-116 -93 -82 -132T-49 -237Q-49 -321 -112 -373T-302 -426Q-350 -426 -382 -420V-294Q-342 -301 -318 -301Q-222 -301 -222 -240Q-222 -211 -242 -196T-309 -182Q-328 -182 -345 -185Z" horiz-adv-x="0" unicode="̧"/>
			<glyph d="M-272 73L-166 37Q-248 -2 -294 -54T-341 -165Q-341 -208 -313 -234T-239 -260Q-178 -260 -120 -237V-383Q-188 -411 -275 -411Q-383 -411 -445 -354T-507 -197Q-507 -105 -440 -34T-272 73Z" horiz-adv-x="0" unicode="̨"/>
			<glyph d="M168 1409H431L337 908H130Z" horiz-adv-x="529" unicode="ʹ"/>
			<glyph d="M168 274H431L337 -227H130Z" horiz-adv-x="529" unicode="͵"/>
			<glyph d="M214 1036Q286 1036 329 991T372 875Q372 803 329 758T214 714Q140 714 97 758T54 875Q54 948 97 992T214 1036ZM211 311Q286 311 327 264T369 132Q369 45 343 -34T280 -177T189 -317L83 -247Q177 -109 197 3Q133 13 95 54T58 156Q58 224 101 267T211 311Z" horiz-adv-x="427" unicode=";"/>
			<glyph d="M279 1456H529V1439L315 1147H187V1163Z" horiz-adv-x="667" unicode="΄"/>
			<glyph d="M400 1603H630V1587L470 1236H332V1252ZM177 1392Q227 1392 259 1359T292 1277Q292 1228 259 1195T177 1163Q127 1163 94 1195T62 1277Q62 1327 94 1359T177 1392ZM687 1392Q736 1392 768 1359T801 1277Q801 1228 768 1195T687 1163Q636 1163 604 1195T572 1277Q572 1327 604 1359T687 1392Z" horiz-adv-x="861" unicode="΅"/>
			<glyph d="M385 1409H710L1093 0H815L740 316H355L280 0H0ZM547 1137Q545 1118 504 939L409 540H686L591 939Q576 1004 556 1097Q548 1136 547 1137ZM49 1409H299V1392L85 1100H-43V1116Z" horiz-adv-x="1093" unicode="Ά"/>
			<glyph d="M211 812Q276 812 314 767T353 651Q353 579 314 534T211 490Q145 490 106 534T67 651Q67 724 106 768T211 812Z" horiz-adv-x="421" unicode="·"/>
			<glyph d="M136 1409H925V1169H419V833H878V599H419V239H955V0H136ZM-161 1409H89V1392L-125 1100H-253V1116Z" horiz-adv-x="1017" unicode="Έ"/>
			<glyph d="M136 1409H419V856H845V1409H1128V0H845V602H419V0H136ZM-161 1409H89V1392L-125 1100H-253V1116Z" horiz-adv-x="1264" unicode="Ή"/>
			<glyph d="M136 1409H419V0H136ZM-161 1409H89V1392L-125 1100H-253V1116Z" horiz-adv-x="557" unicode="Ί"/>
			<glyph d="M634 1430Q816 1430 940 1342T1126 1092T1189 711Q1189 489 1125 324T936 70T634 -20Q449 -20 325 72T140 329T80 711Q80 933 142 1094T328 1343T634 1430ZM634 1184Q547 1184 487 1126T396 961T366 711Q366 567 397 457T488 286T634 225Q768 225 835 357T902 711Q902 854 871 960T780 1125T634 1184ZM-24 1409H226V1392L12 1100H-116V1116Z" horiz-adv-x="1268" unicode="Ό"/>
			<glyph d="M-3 1409H290L516 808L743 1409H1036L655 570V0H376L375 570ZM-256 1409H-6V1392L-220 1100H-348V1116Z" horiz-adv-x="1033" unicode="Ύ"/>
			<glyph d="M640 1430Q808 1430 932 1355T1124 1140T1192 807Q1192 603 1113 454T901 222L943 224Q1033 229 1062 229H1196V0H721V264Q797 332 837 408T893 571T908 773Q908 974 841 1079T641 1184Q375 1184 375 773Q375 657 389 571T444 408T561 264V0H86V229H219Q263 229 353 224L383 222Q246 304 168 452T90 807Q90 1000 157 1140T348 1355T640 1430ZM-18 1409H232V1392L18 1100H-110V1116Z" horiz-adv-x="1282" unicode="Ώ"/>
			<glyph d="M103 1030H372V300Q372 246 388 221T440 197Q467 197 486 203L506 10Q414 -20 317 -20Q212 -20 157 46T103 246ZM222 1603H452V1587L292 1236H154V1252ZM-1 1392Q49 1392 81 1359T114 1277Q114 1228 81 1195T-1 1163Q-51 1163 -83 1195T-116 1277Q-116 1327 -83 1359T-1 1392ZM509 1392Q558 1392 590 1359T623 1277Q623 1228 590 1195T509 1163Q458 1163 426 1195T394 1277Q394 1327 426 1359T509 1392Z" horiz-adv-x="526" unicode="ΐ"/>
			<glyph d="M385 1409H710L1093 0H815L740 316H355L280 0H0ZM547 1137Q545 1118 504 939L409 540H686L591 939Q576 1004 556 1097Q548 1136 547 1137Z" horiz-adv-x="1093" unicode="Α"/>
			<glyph d="M136 1409H565Q776 1409 889 1324T1003 1064Q1003 944 945 857T786 741Q910 721 980 630T1051 396Q1051 259 992 170T833 40T610 0H136ZM419 1192V835H554Q649 835 683 882T718 1022Q718 1082 703 1119T652 1174T552 1192ZM419 629V217H585Q675 217 721 265T767 427Q767 533 716 581T575 629Z" horiz-adv-x="1095" unicode="Β"/>
			<glyph d="M120 1409H847V1165H403V0H120Z" horiz-adv-x="867" unicode="Γ"/>
			<glyph d="M397 1409H730L1067 218V0H56V217ZM567 1174Q561 1142 557 1127Q528 979 503 882L335 234H786L626 883Q602 982 574 1138Q571 1150 567 1174Z" horiz-adv-x="1122" unicode="Δ"/>
			<glyph d="M136 1409H925V1169H419V833H878V599H419V239H955V0H136Z" horiz-adv-x="1017" unicode="Ε"/>
			<glyph d="M101 1409H865V1203L351 236H908V0H43V210L557 1173H101Z" horiz-adv-x="941" unicode="Ζ"/>
			<glyph d="M136 1409H419V856H845V1409H1128V0H845V602H419V0H136Z" horiz-adv-x="1264" unicode="Η"/>
			<glyph d="M634 1430Q816 1430 940 1342T1126 1092T1189 711Q1189 489 1125 324T936 70T634 -20Q449 -20 325 72T140 329T80 711Q80 933 142 1094T328 1343T634 1430ZM634 1184Q547 1184 487 1126T396 961T366 711Q366 567 397 457T488 286T634 225Q768 225 835 357T902 711Q902 854 871 960T780 1125T634 1184ZM452 827H813V600H452Z" horiz-adv-x="1268" unicode="Θ"/>
			<glyph d="M136 1409H419V0H136Z" horiz-adv-x="557" unicode="Ι"/>
			<glyph d="M136 1409H419V794L792 1409H1107L691 793L1143 0H824L503 592L419 487V0H136Z" horiz-adv-x="1140" unicode="Κ"/>
			<glyph d="M351 1409H665L1022 0H733L562 817Q549 872 537 942T519 1066T511 1135Q511 1127 493 1009T457 817L285 0H-6Z" horiz-adv-x="1018" unicode="Λ"/>
			<glyph d="M136 1409H527L718 689Q734 626 759 493T785 345Q794 393 818 513T856 693L1040 1409H1428V0H1174V839Q1174 872 1177 1049L1178 1129Q1170 1098 1151 1018T1115 872L898 0H671L446 872Q408 1024 385 1129Q386 1098 387 1013T389 841V0H136Z" horiz-adv-x="1567" unicode="Μ"/>
			<glyph d="M136 1409H473L929 365Q929 370 925 445T922 625V1409H1175V0H836L385 1036Q386 1013 388 936T390 797V0H136Z" horiz-adv-x="1315" unicode="Ν"/>
			<glyph d="M104 1409H836V1169H104ZM185 833H746V601H185ZM74 240H867V0H74Z" horiz-adv-x="941" unicode="Ξ"/>
			<glyph d="M634 1430Q816 1430 940 1342T1126 1092T1189 711Q1189 489 1125 324T936 70T634 -20Q449 -20 325 72T140 329T80 711Q80 933 142 1094T328 1343T634 1430ZM634 1184Q547 1184 487 1126T396 961T366 711Q366 567 397 457T488 286T634 225Q768 225 835 357T902 711Q902 854 871 960T780 1125T634 1184Z" horiz-adv-x="1268" unicode="Ο"/>
			<glyph d="M136 1409H1126V0H846V1155H419V0H136Z" horiz-adv-x="1263" unicode="Π"/>
			<glyph d="M136 1409H589Q725 1409 817 1354T955 1201T1001 968Q1001 842 956 739T820 575T598 514H419V0H136ZM419 1187V735H556Q640 735 679 797T719 966Q719 1073 677 1130T549 1187Z" horiz-adv-x="1059" unicode="Ρ"/>
			<glyph d="M90 1409H832V1167H408L640 825V659L376 243H862V0H76V227L402 733L90 1182Z" horiz-adv-x="915" unicode="Σ"/>
			<glyph d="M29 1409H939V1163H622V0H339V1163H29Z" horiz-adv-x="970" unicode="Τ"/>
			<glyph d="M-3 1409H290L516 808L743 1409H1036L655 570V0H376L375 570Z" horiz-adv-x="1033" unicode="Υ"/>
			<glyph d="M577 1420H841V1249H900Q1035 1249 1136 1187T1292 1006T1348 715Q1348 552 1289 430T1126 244T893 179H841V-12H577V179H524Q392 179 289 244T128 430T70 715Q70 886 125 1006T282 1187T518 1249H577ZM551 1042Q454 1042 398 961T343 713Q343 550 397 468T545 386H577V1042ZM841 1042V386H871Q965 386 1020 468T1075 713Q1075 880 1018 961T864 1042Z" horiz-adv-x="1418" unicode="Φ"/>
			<glyph d="M44 1409H337L537 944L737 1409H1030L703 741L1061 0H768L537 529L306 0H14L385 741Z" horiz-adv-x="1073" unicode="Χ"/>
			<glyph d="M102 1409H375V953Q375 836 401 765T483 660T628 617V1409H893V616Q983 623 1038 658T1120 764T1147 953V1409H1420V951Q1420 660 1283 531T893 395V0H628V395Q379 402 240 532T102 951Z" horiz-adv-x="1520" unicode="Ψ"/>
			<glyph d="M640 1430Q808 1430 932 1355T1124 1140T1192 807Q1192 603 1113 454T901 222L943 224Q1033 229 1062 229H1196V0H721V264Q797 332 837 408T893 571T908 773Q908 974 841 1079T641 1184Q375 1184 375 773Q375 657 389 571T444 408T561 264V0H86V229H219Q263 229 353 224L383 222Q246 304 168 452T90 807Q90 1000 157 1140T348 1355T640 1430Z" horiz-adv-x="1282" unicode="Ω"/>
			<glyph d="M136 1409H419V0H136ZM90 1779Q143 1779 178 1744T214 1657Q214 1604 178 1568T90 1532Q36 1532 1 1567T-34 1657Q-34 1711 0 1745T90 1779ZM471 1779Q524 1779 558 1745T593 1657Q593 1604 558 1568T471 1532Q416 1532 380 1567T345 1657Q345 1711 380 1745T471 1779Z" horiz-adv-x="557" unicode="Ϊ"/>
			<glyph d="M-3 1409H290L516 808L743 1409H1036L655 570V0H376L375 570ZM328 1779Q381 1779 416 1744T452 1657Q452 1604 416 1568T328 1532Q274 1532 239 1567T204 1657Q204 1711 238 1745T328 1779ZM709 1779Q762 1779 796 1745T831 1657Q831 1604 796 1568T709 1532Q654 1532 618 1567T583 1657Q583 1711 618 1745T709 1779Z" horiz-adv-x="1033" unicode="Ϋ"/>
			<glyph d="M466 1049Q694 1049 754 848Q766 808 770 785L776 813Q780 828 781 833Q803 910 848 1030H1087Q1015 856 930 629L889 513L918 386Q946 276 971 238T1024 200Q1043 200 1054 202T1068 206L1088 9Q1050 -3 1017 -9T944 -15Q887 -15 849 7T784 76T736 203L730 230L718 199Q685 117 644 69T551 1T425 -20Q242 -20 153 118T64 516Q64 770 165 909T466 1049ZM495 834Q417 834 380 757T344 516Q344 404 356 334T395 230T470 196Q523 196 560 247T635 417Q652 482 657 500L647 568Q632 666 617 719T573 803T495 834ZM540 1456H790V1439L576 1147H448V1163Z" horiz-adv-x="1101" unicode="ά"/>
			<glyph d="M478 1051Q591 1051 678 1020T848 918L720 759Q675 803 622 825T505 848Q425 848 389 821T353 743Q353 690 385 662T478 626T644 617V447Q540 447 475 436T374 395T338 306Q338 249 378 218T488 187Q567 187 635 211T769 281L868 98Q771 36 673 8T463 -20Q331 -20 241 18T108 126T64 288Q64 358 95 411T175 495T282 534V536Q229 544 183 575T111 658T84 776Q84 857 130 919T266 1016T478 1051ZM464 1456H714V1439L500 1147H372V1163Z" horiz-adv-x="916" unicode="έ"/>
			<glyph d="M669 1051Q821 1051 888 939T956 640V-426H688V559Q688 677 658 746T554 816Q475 816 432 734T390 524V0H121V693Q121 767 110 796T70 826Q53 826 36 818L11 1008Q51 1027 90 1035T179 1043Q260 1043 316 999T378 863H384Q427 965 497 1008T669 1051ZM518 1456H768V1439L554 1147H426V1163Z" horiz-adv-x="1057" unicode="ή"/>
			<glyph d="M103 1030H372V300Q372 246 388 221T440 197Q467 197 486 203L506 10Q414 -20 317 -20Q212 -20 157 46T103 246ZM243 1456H493V1439L279 1147H151V1163Z" horiz-adv-x="526" unicode="ί"/>
			<glyph d="M101 1030H370V490Q370 352 408 284T521 217Q604 217 644 296T684 550Q684 673 656 811T593 1030H875Q906 946 929 812T953 550Q953 374 903 246T756 49T517 -20Q312 -20 206 99T101 460ZM476 1603H706V1587L546 1236H408V1252ZM253 1392Q303 1392 335 1359T368 1277Q368 1228 335 1195T253 1163Q203 1163 170 1195T138 1277Q138 1327 170 1359T253 1392ZM763 1392Q812 1392 844 1359T877 1277Q877 1228 844 1195T763 1163Q712 1163 680 1195T648 1277Q648 1327 680 1359T763 1392Z" horiz-adv-x="1031" unicode="ΰ"/>
			<glyph d="M466 1049Q694 1049 754 848Q766 808 770 785L776 813Q780 828 781 833Q803 910 848 1030H1087Q1015 856 930 629L889 513L918 386Q946 276 971 238T1024 200Q1043 200 1054 202T1068 206L1088 9Q1050 -3 1017 -9T944 -15Q887 -15 849 7T784 76T736 203L730 230L718 199Q685 117 644 69T551 1T425 -20Q242 -20 153 118T64 516Q64 770 165 909T466 1049ZM495 834Q417 834 380 757T344 516Q344 404 356 334T395 230T470 196Q523 196 560 247T635 417Q652 482 657 500L647 568Q632 666 617 719T573 803T495 834Z" horiz-adv-x="1101" unicode="α"/>
			<glyph d="M528 1454Q714 1454 817 1360T920 1089Q920 968 866 884T719 769V765Q785 752 845 707T943 580T982 386Q982 256 941 164T822 24T638 -24Q554 -24 485 8T378 97H376L378 -52V-426H109V997Q109 1238 218 1346T528 1454ZM521 1241Q449 1241 413 1185T378 1010V303Q406 255 449 223T546 191Q629 191 665 246T701 413Q701 537 644 597T473 661V852Q566 861 603 915T640 1074Q640 1241 521 1241Z" horiz-adv-x="1035" unicode="β"/>
			<glyph d="M96 1047Q174 1047 225 1025T313 953T377 813Q420 673 465 516T520 307Q580 463 622 648T664 1030H941Q941 806 847 528T620 -6Q573 -174 573 -426H304Q304 -327 320 -213T366 -1Q347 90 286 281T171 632Q148 706 130 746T94 804T52 822Q37 822 19 818L1 1040Q11 1042 42 1044T96 1047Z" horiz-adv-x="979" unicode="γ"/>
			<glyph d="M197 1454H882V1242H620H530L693 1067Q776 978 831 902T922 729T958 516Q958 263 845 121T511 -20Q290 -20 177 116T64 501Q64 656 116 768T253 944T431 1024L197 1276ZM557 874Q448 860 396 755T344 483Q344 338 384 267T511 196Q597 196 637 269T678 491Q678 614 645 712T557 874Z" horiz-adv-x="1021" unicode="δ"/>
			<glyph d="M478 1051Q591 1051 678 1020T848 918L720 759Q675 803 622 825T505 848Q425 848 389 821T353 743Q353 690 385 662T478 626T644 617V447Q540 447 475 436T374 395T338 306Q338 249 378 218T488 187Q567 187 635 211T769 281L868 98Q771 36 673 8T463 -20Q331 -20 241 18T108 126T64 288Q64 358 95 411T175 495T282 534V536Q229 544 183 575T111 658T84 776Q84 857 130 919T266 1016T478 1051Z" horiz-adv-x="916" unicode="ε"/>
			<glyph d="M152 1454H765V1265Q586 1050 462 824T339 431Q339 345 359 301T419 239T542 200Q656 174 722 109T788 -88Q788 -144 769 -214T725 -344L489 -284Q506 -236 514 -205T523 -137Q523 -95 507 -70T457 -30T362 0Q272 18 209 47T102 147T58 346Q58 553 179 785T490 1242V1249Q410 1242 373 1242H152Z" horiz-adv-x="803" unicode="ζ"/>
			<glyph d="M669 1051Q821 1051 888 939T956 640V-426H688V559Q688 677 658 746T554 816Q475 816 432 734T390 524V0H121V693Q121 767 110 796T70 826Q53 826 36 818L11 1008Q51 1027 90 1035T179 1043Q260 1043 316 999T378 863H384Q427 965 497 1008T669 1051Z" horiz-adv-x="1057" unicode="η"/>
			<glyph d="M525 1454Q718 1454 816 1327T942 1041T970 715Q970 548 942 390T816 106T525 -20Q330 -20 231 103T105 383T78 715Q78 881 105 1040T232 1327T525 1454ZM526 1245Q436 1245 402 1115T369 826H680Q680 983 647 1114T526 1245ZM368 624Q368 454 400 321T519 189Q611 189 646 323T682 624Z" horiz-adv-x="1048" unicode="θ"/>
			<glyph d="M103 1030H372V300Q372 246 388 221T440 197Q467 197 486 203L506 10Q414 -20 317 -20Q212 -20 157 46T103 246Z" horiz-adv-x="526" unicode="ι"/>
			<glyph d="M106 1030H375V598L677 1030H967L631 614L989 0H698L466 425L375 332V0H106Z" horiz-adv-x="980" unicode="κ"/>
			<glyph d="M248 1455Q340 1455 406 1424T523 1318T612 1114L815 438Q843 341 866 290T913 219T973 199L987 -12Q868 -12 796 16T675 120T589 341L506 657L264 0H-18L389 956L367 1035Q334 1142 297 1188T204 1234Q186 1234 171 1231T134 1221L103 1433Q172 1455 248 1455Z" horiz-adv-x="994" unicode="λ"/>
			<glyph d="M103 1030H372V475Q372 352 402 282T505 213Q585 213 627 292T670 499V1030H938V361Q938 273 949 237T992 202Q1010 202 1035 208L1055 15Q1023 3 977 -3T886 -10Q799 -10 744 31T675 152H671Q652 87 628 50T569 -3T481 -20Q446 -20 419 -6T372 39H366L368 1Q372 -69 372 -99V-426H103Z" horiz-adv-x="1068" unicode="μ"/>
			<glyph d="M87 1047Q156 1047 210 1025T308 947T383 790Q466 520 514 287Q593 445 635 636T677 1030H959Q959 796 863 536T622 0H352Q279 282 186 582Q156 683 135 735T95 807T51 828Q41 828 23 824L0 1038Q34 1047 87 1047Z" horiz-adv-x="996" unicode="ν"/>
			<glyph d="M129 1454H759V1262Q635 1242 546 1188T457 1044Q457 958 529 917T718 871V687Q596 662 514 629T385 543T337 406Q337 336 362 297T424 241T535 202Q614 178 671 148T769 59T810 -92Q810 -142 792 -213T751 -348L508 -289Q526 -247 535 -211T545 -139Q545 -99 526 -75T470 -35T362 1Q272 24 208 57T99 163T54 363Q54 519 158 616T461 775V777Q397 786 338 815T241 894T204 1010Q204 1102 269 1158T462 1249V1252Q425 1249 353 1245T256 1242H129Z" horiz-adv-x="833" unicode="ξ"/>
			<glyph d="M511 1051Q747 1051 852 909T958 518Q958 -20 507 -20Q281 -20 172 123T64 518Q64 763 174 907T511 1051ZM515 835Q453 835 415 801T361 699T344 518Q344 350 383 273T505 196Q567 196 605 229T660 332T678 518Q678 631 661 700T609 802T515 835Z" horiz-adv-x="1021" unicode="ο"/>
			<glyph d="M202 1030H1169V818H986V303Q986 198 1058 198Q1086 198 1106 205L1124 7Q1039 -20 945 -20Q717 -20 717 252V818H507V770Q507 557 486 358T431 0H157Q238 411 238 772V818H207Q113 818 49 752L27 971Q81 1030 202 1030Z" horiz-adv-x="1210" unicode="π"/>
			<glyph d="M515 1053Q651 1053 754 986T916 788T974 474Q974 320 933 209T813 39T621 -20Q537 -20 477 14T374 114H372Q377 56 377 -42V-426H108V535Q108 1053 515 1053ZM517 837Q440 837 408 757T377 522V318Q408 259 448 226T545 194Q623 194 659 265T696 480Q696 647 649 742T517 837Z" horiz-adv-x="1039" unicode="ρ"/>
			<glyph d="M480 1051Q692 1051 797 878L609 751Q588 780 574 795T537 822T480 833Q401 833 372 732T344 455Q344 370 364 322T427 250T548 202Q628 179 681 151T769 66T805 -88Q805 -207 735 -381L493 -314Q513 -272 527 -221T542 -132Q542 -87 524 -63T476 -27T380 2Q284 26 219 61T109 182T64 424Q64 718 160 884T480 1051Z" horiz-adv-x="837" unicode="ς"/>
			<glyph d="M537 1030H1066V816H964Q946 816 921 818T873 821L806 826V824Q874 760 915 668T957 457Q957 230 841 105T507 -20Q364 -20 264 45T114 228T64 505Q64 670 121 787T284 967T537 1030ZM562 816Q462 816 403 741T344 507Q344 358 386 277T511 196Q594 196 635 264T677 465Q677 590 667 670T624 816Z" horiz-adv-x="1077" unicode="σ"/>
			<glyph d="M213 1030H797V818H553V297Q553 241 569 219T621 198Q644 198 676 207L694 7Q616 -20 509 -20Q395 -20 339 47T284 252V818H222Q171 818 123 798T49 752L27 973Q54 1001 103 1015T213 1030Z" horiz-adv-x="838" unicode="τ"/>
			<glyph d="M101 1030H370V490Q370 352 408 284T521 217Q604 217 644 296T684 550Q684 673 656 811T593 1030H875Q906 946 929 812T953 550Q953 374 903 246T756 49T517 -20Q312 -20 206 99T101 460Z" horiz-adv-x="1031" unicode="υ"/>
			<glyph d="M898 1049Q1028 1049 1115 986T1244 810T1287 547Q1287 266 1163 129T796 -20V-426H550V-20Q303 -10 183 124T64 529Q64 666 105 777T237 959T468 1045L503 847Q430 829 389 787T333 683T318 531Q318 416 341 344T416 236T550 196V634Q550 836 633 942T898 1049ZM898 842Q846 842 821 796T796 643V193Q922 200 977 284T1032 543Q1032 683 997 762T898 842Z" horiz-adv-x="1351" unicode="φ"/>
			<glyph d="M27 1052Q144 1052 215 1029T345 936T456 721L514 563L698 1030H972L662 340L1004 -426H720L507 127L296 -426H5L356 341L260 593Q224 686 190 736T122 807T44 827Z" horiz-adv-x="1003" unicode="χ"/>
			<glyph d="M579 1350H824V195Q938 200 993 275T1049 503V1030H1303V515Q1303 251 1186 120T824 -20V-426H579V-20Q335 -11 218 120T101 515V1030H354V503Q354 352 409 277T579 197Z" horiz-adv-x="1404" unicode="ψ"/>
			<glyph d="M163 1030H421Q386 949 358 794T330 522Q330 363 357 286T454 210Q490 210 519 239T565 326T582 463V725H833V463Q833 384 850 326T896 239T963 210Q1032 210 1058 285T1085 522Q1085 640 1056 794T992 1030H1253Q1289 948 1316 795T1344 514Q1344 252 1256 116T990 -20Q883 -20 811 42T711 223H706Q673 103 602 41T425 -20Q247 -20 159 116T71 514Q71 641 99 794T163 1030Z" horiz-adv-x="1415" unicode="ω"/>
			<glyph d="M103 1030H372V300Q372 246 388 221T440 197Q467 197 486 203L506 10Q414 -20 317 -20Q212 -20 157 46T103 246ZM70 1412Q122 1412 157 1378T192 1292Q192 1240 157 1205T70 1170Q16 1170 -18 1204T-52 1292Q-52 1344 -17 1378T70 1412ZM438 1412Q489 1412 524 1378T559 1292Q559 1240 524 1205T438 1170Q384 1170 349 1204T315 1292Q315 1345 349 1378T438 1412Z" horiz-adv-x="526" unicode="ϊ"/>
			<glyph d="M101 1030H370V490Q370 352 408 284T521 217Q604 217 644 296T684 550Q684 673 656 811T593 1030H875Q906 946 929 812T953 550Q953 374 903 246T756 49T517 -20Q312 -20 206 99T101 460ZM324 1412Q376 1412 411 1378T446 1292Q446 1240 411 1205T324 1170Q270 1170 236 1204T202 1292Q202 1344 236 1378T324 1412ZM692 1412Q743 1412 778 1378T813 1292Q813 1240 778 1205T692 1170Q638 1170 603 1204T569 1292Q569 1345 603 1378T692 1412Z" horiz-adv-x="1031" unicode="ϋ"/>
			<glyph d="M511 1051Q747 1051 852 909T958 518Q958 -20 507 -20Q281 -20 172 123T64 518Q64 763 174 907T511 1051ZM515 835Q453 835 415 801T361 699T344 518Q344 350 383 273T505 196Q567 196 605 229T660 332T678 518Q678 631 661 700T609 802T515 835ZM500 1456H750V1439L536 1147H408V1163Z" horiz-adv-x="1021" unicode="ό"/>
			<glyph d="M101 1030H370V490Q370 352 408 284T521 217Q604 217 644 296T684 550Q684 673 656 811T593 1030H875Q906 946 929 812T953 550Q953 374 903 246T756 49T517 -20Q312 -20 206 99T101 460ZM497 1456H747V1439L533 1147H405V1163Z" horiz-adv-x="1031" unicode="ύ"/>
			<glyph d="M163 1030H421Q386 949 358 794T330 522Q330 363 357 286T454 210Q490 210 519 239T565 326T582 463V725H833V463Q833 384 850 326T896 239T963 210Q1032 210 1058 285T1085 522Q1085 640 1056 794T992 1030H1253Q1289 948 1316 795T1344 514Q1344 252 1256 116T990 -20Q883 -20 811 42T711 223H706Q673 103 602 41T425 -20Q247 -20 159 116T71 514Q71 641 99 794T163 1030ZM697 1456H947V1439L733 1147H605V1163Z" horiz-adv-x="1415" unicode="ώ"/>
			<glyph d="M136 1409H925V1169H419V833H878V599H419V239H955V0H136ZM218 1809H478L730 1559V1528H580L218 1766Z" horiz-adv-x="1017" unicode="Ѐ"/>
			<glyph d="M136 1409H925V1169H419V833H878V599H419V239H955V0H136ZM364 1779Q417 1779 452 1744T488 1657Q488 1604 452 1568T364 1532Q310 1532 275 1567T240 1657Q240 1711 274 1745T364 1779ZM745 1779Q798 1779 832 1745T867 1657Q867 1604 832 1568T745 1532Q690 1532 654 1567T619 1657Q619 1711 654 1745T745 1779Z" horiz-adv-x="1017" unicode="Ё"/>
			<glyph d="M29 1409H929V1163H613L612 837Q664 871 740 895T902 919Q1092 919 1192 798T1292 448Q1292 225 1212 102T959 -20Q899 -20 840 -9T740 18L793 222Q825 210 850 204T902 198Q960 198 985 255T1010 446Q1010 699 826 699Q767 699 711 677T613 619V0H333V1163H29Z" horiz-adv-x="1333" unicode="Ђ"/>
			<glyph d="M120 1409H847V1165H403V0H120ZM566 1810H827V1766L463 1528H315V1557Z" horiz-adv-x="867" unicode="Ѓ"/>
			<glyph d="M611 1430Q736 1430 823 1392T969 1280T1074 1087L822 997Q798 1057 772 1097T708 1160T613 1184Q500 1184 442 1092T370 823H750V613H370Q382 431 442 328T617 225Q692 225 744 279T828 423L1084 332Q1015 158 902 69T618 -20Q444 -20 323 71T141 327T80 708Q80 932 138 1093T315 1342T611 1430Z" horiz-adv-x="1126" unicode="Є"/>
			<glyph d="M530 1430Q638 1430 717 1403T858 1322T973 1181L763 1047Q711 1128 659 1164T536 1200Q452 1200 408 1158T365 1050Q365 991 392 955T464 899T602 846Q733 801 813 757T948 630T1003 409Q1003 281 950 184T789 34T523 -20Q197 -20 44 249L248 404Q292 337 332 297T420 238T533 218Q625 218 676 264T728 390Q728 452 700 489T629 547T511 593Q497 597 469 607Q353 647 272 695T141 827T90 1039Q90 1160 147 1248T304 1383T530 1430Z" horiz-adv-x="1064" unicode="Ѕ"/>
			<glyph d="M136 1409H419V0H136Z" horiz-adv-x="557" unicode="І"/>
			<glyph d="M136 1409H419V0H136ZM90 1779Q143 1779 178 1744T214 1657Q214 1604 178 1568T90 1532Q36 1532 1 1567T-34 1657Q-34 1711 0 1745T90 1779ZM471 1779Q524 1779 558 1745T593 1657Q593 1604 558 1568T471 1532Q416 1532 380 1567T345 1657Q345 1711 380 1745T471 1779Z" horiz-adv-x="557" unicode="Ї"/>
			<glyph d="M548 1409H831V433Q831 218 732 99T437 -20Q251 -20 151 64T11 330L273 394Q301 305 334 264T428 223Q548 223 548 397Z" horiz-adv-x="954" unicode="Ј"/>
			<glyph d="M305 1409H1137V848H1255Q1385 848 1482 801T1634 661T1688 430Q1688 290 1634 193T1483 48T1259 0H860V1167H573L564 983Q548 655 510 440T387 103T155 -19Q112 -19 72 -14T12 -3L28 248Q55 239 91 239Q153 239 190 321T250 582T288 1081ZM1137 627V223H1231Q1321 223 1363 274T1406 426Q1406 627 1225 627Z" horiz-adv-x="1751" unicode="Љ"/>
			<glyph d="M131 1409H414V848H801V1409H1078V848H1197Q1327 848 1423 801T1574 661T1628 430Q1628 290 1574 193T1424 48T1199 0H801V602H414V0H131ZM1078 627V222H1173Q1345 222 1345 426Q1345 527 1300 577T1165 627Z" horiz-adv-x="1691" unicode="Њ"/>
			<glyph d="M29 1409H929V1163H613V829Q658 865 736 889T900 914Q1077 914 1166 804T1255 444V0H976V412Q976 513 960 570T909 652T812 677Q694 677 613 599V0H333V1163H29Z" horiz-adv-x="1357" unicode="Ћ"/>
			<glyph d="M136 1409H419V827Q458 827 488 851T546 921T615 1048L782 1409H1064L846 965Q767 807 724 767L1094 0H802L522 636Q500 623 467 613T419 603V0H136ZM619 1810H880V1766L516 1528H368V1557Z" horiz-adv-x="1091" unicode="Ќ"/>
			<glyph d="M136 1409H389V625Q389 550 386 488T383 414L381 359L470 563L863 1409H1179V0H926V797Q926 872 931 994L933 1041L852 857L456 0H136ZM325 1809H585L837 1559V1528H687L325 1766Z" horiz-adv-x="1318" unicode="Ѝ"/>
			<glyph d="M15 1409H305L563 743L756 1409H1047L697 458Q630 277 564 173T419 25T234 -20Q204 -20 166 -14T112 -2L144 229Q181 216 219 216Q281 216 327 268T418 438L431 469ZM200 1834H399V1799Q399 1719 428 1682T532 1645Q604 1645 637 1683T671 1799V1834H870V1799Q870 1679 797 1594T532 1510Q337 1510 268 1593T200 1799Z" horiz-adv-x="1048" unicode="Ў"/>
			<glyph d="M136 1409H419V247H816V1409H1099V0H759V-412H477V0H136Z" horiz-adv-x="1235" unicode="Џ"/>
			<glyph d="M385 1409H710L1093 0H815L740 316H355L280 0H0ZM547 1137Q545 1118 504 939L409 540H686L591 939Q576 1004 556 1097Q548 1136 547 1137Z" horiz-adv-x="1093" unicode="А"/>
			<glyph d="M138 1409H922V1187H420V848H583Q712 848 809 801T960 661T1014 430Q1014 290 960 193T809 48T585 0H138ZM420 627V222H557Q731 222 731 426Q731 627 551 627Z" horiz-adv-x="1072" unicode="Б"/>
			<glyph d="M136 1409H565Q776 1409 889 1324T1003 1064Q1003 944 945 857T786 741Q910 721 980 630T1051 396Q1051 259 992 170T833 40T610 0H136ZM419 1192V835H554Q649 835 683 882T718 1022Q718 1082 703 1119T652 1174T552 1192ZM419 629V217H585Q675 217 721 265T767 427Q767 533 716 581T575 629Z" horiz-adv-x="1095" unicode="В"/>
			<glyph d="M120 1409H847V1165H403V0H120Z" horiz-adv-x="867" unicode="Г"/>
			<glyph d="M325 1409H1095V246H1249V-412H966V0H288V-412H5V246H105Q182 358 232 584T308 1168ZM571 1167L567 1100Q547 779 507 567T406 246H820V1167Z" horiz-adv-x="1279" unicode="Д"/>
			<glyph d="M136 1409H925V1169H419V833H878V599H419V239H955V0H136Z" horiz-adv-x="1017" unicode="Е"/>
			<glyph d="M35 1409H315L506 1007Q551 917 589 872T682 828V1409H946V828Q999 828 1040 876T1129 1021L1312 1409H1592L1368 960Q1292 807 1251 767L1627 0H1333L1047 639Q1000 610 946 610V0H682V610Q628 610 578 639L294 0H0L374 767Q352 788 325 834T257 960Z" horiz-adv-x="1627" unicode="Ж"/>
			<glyph d="M483 1430Q627 1430 724 1380T869 1246T917 1055Q917 929 859 843T681 724V720Q812 695 878 605T944 387Q944 255 888 163T729 26T488 -20Q302 -20 192 54T34 257L253 383Q280 330 308 295T378 240T482 219Q670 219 670 404Q670 601 453 601H389V833H451Q540 833 592 877T644 1020Q644 1103 602 1148T471 1194Q396 1194 350 1157T271 1049L42 1152Q93 1288 211 1359T483 1430Z" horiz-adv-x="988" unicode="З"/>
			<glyph d="M136 1409H389V625Q389 550 386 488T383 414L381 359L470 563L863 1409H1179V0H926V797Q926 872 931 994L933 1041L852 857L456 0H136Z" horiz-adv-x="1318" unicode="И"/>
			<glyph d="M136 1409H389V625Q389 550 386 488T383 414L381 359L470 563L863 1409H1179V0H926V797Q926 872 931 994L933 1041L852 857L456 0H136ZM325 1834H524V1799Q524 1719 553 1682T657 1645Q729 1645 762 1683T796 1799V1834H995V1799Q995 1679 922 1594T657 1510Q462 1510 393 1593T325 1799Z" horiz-adv-x="1318" unicode="Й"/>
			<glyph d="M136 1409H419V827Q458 827 488 851T546 921T615 1048L782 1409H1064L846 965Q767 807 724 767L1094 0H802L522 636Q500 623 467 613T419 603V0H136Z" horiz-adv-x="1091" unicode="К"/>
			<glyph d="M305 1409H1171V0H888V1167H573L563 987Q545 651 508 438T388 103T155 -19Q112 -19 72 -14T12 -3L28 248Q60 239 89 239Q152 239 190 321T250 583T288 1084Z" horiz-adv-x="1310" unicode="Л"/>
			<glyph d="M136 1409H527L718 689Q734 626 759 493T785 345Q794 393 818 513T856 693L1040 1409H1428V0H1174V839Q1174 872 1177 1049L1178 1129Q1170 1098 1151 1018T1115 872L898 0H671L446 872Q408 1024 385 1129Q386 1098 387 1013T389 841V0H136Z" horiz-adv-x="1567" unicode="М"/>
			<glyph d="M136 1409H419V856H845V1409H1128V0H845V602H419V0H136Z" horiz-adv-x="1264" unicode="Н"/>
			<glyph d="M634 1430Q816 1430 940 1342T1126 1092T1189 711Q1189 489 1125 324T936 70T634 -20Q449 -20 325 72T140 329T80 711Q80 933 142 1094T328 1343T634 1430ZM634 1184Q547 1184 487 1126T396 961T366 711Q366 567 397 457T488 286T634 225Q768 225 835 357T902 711Q902 854 871 960T780 1125T634 1184Z" horiz-adv-x="1268" unicode="О"/>
			<glyph d="M136 1409H1126V0H846V1155H419V0H136Z" horiz-adv-x="1263" unicode="П"/>
			<glyph d="M136 1409H589Q725 1409 817 1354T955 1201T1001 968Q1001 842 956 739T820 575T598 514H419V0H136ZM419 1187V735H556Q640 735 679 797T719 966Q719 1073 677 1130T549 1187Z" horiz-adv-x="1059" unicode="Р"/>
			<glyph d="M607 1430Q731 1430 817 1394T964 1284T1073 1086L822 1000Q788 1088 740 1136T613 1184Q366 1184 366 711Q366 486 428 355T618 225Q672 225 710 249T774 314T828 420L1085 331Q1019 163 906 71T618 -20Q442 -20 321 73T140 330T80 711Q80 933 139 1094T316 1343T607 1430Z" horiz-adv-x="1125" unicode="С"/>
			<glyph d="M29 1409H939V1163H622V0H339V1163H29Z" horiz-adv-x="970" unicode="Т"/>
			<glyph d="M15 1409H305L563 743L756 1409H1047L697 458Q630 277 564 173T419 25T234 -20Q204 -20 166 -14T112 -2L144 229Q181 216 219 216Q281 216 327 268T418 438L431 469Z" horiz-adv-x="1048" unicode="У"/>
			<glyph d="M577 1420H841V1249H900Q1035 1249 1136 1187T1292 1006T1348 715Q1348 552 1289 430T1126 244T893 179H841V-12H577V179H524Q392 179 289 244T128 430T70 715Q70 886 125 1006T282 1187T518 1249H577ZM551 1042Q454 1042 398 961T343 713Q343 550 397 468T545 386H577V1042ZM841 1042V386H871Q965 386 1020 468T1075 713Q1075 880 1018 961T864 1042Z" horiz-adv-x="1418" unicode="Ф"/>
			<glyph d="M44 1409H337L537 944L737 1409H1030L703 741L1061 0H768L537 529L306 0H14L385 741Z" horiz-adv-x="1073" unicode="Х"/>
			<glyph d="M136 1409H419V248H816V1409H1098V248H1253V-412H970V0H136Z" horiz-adv-x="1290" unicode="Ц"/>
			<glyph d="M108 1409H390V924Q390 834 408 784T465 713T568 692Q633 692 680 709T791 766V1409H1073V0H791V547Q728 509 647 483T483 457Q360 457 277 498T151 636T108 899Z" horiz-adv-x="1211" unicode="Ч"/>
			<glyph d="M136 1409H419V248H741V1409H1024V248H1347V1409H1630V0H136Z" horiz-adv-x="1766" unicode="Ш"/>
			<glyph d="M136 1409H419V248H741V1409H1024V248H1347V1409H1630V248H1784V-412H1501V0H136Z" horiz-adv-x="1821" unicode="Щ"/>
			<glyph d="M16 1409H596V848H750Q880 848 977 801T1128 661T1182 430Q1182 290 1128 193T977 48T752 0H314V1163H16ZM596 627V222H726Q815 222 857 273T899 426Q899 627 719 627Z" horiz-adv-x="1239" unicode="Ъ"/>
			<glyph d="M136 1409H419V848H543Q673 848 770 801T922 661T976 430Q976 290 922 193T771 48T545 0H136ZM1139 1409H1421V0H1139ZM419 627V222H520Q609 222 651 273T693 426Q693 627 513 627Z" horiz-adv-x="1559" unicode="Ы"/>
			<glyph d="M138 1409H420V848H583Q712 848 809 801T960 661T1014 430Q1014 290 960 193T809 48T585 0H138ZM420 627V222H557Q731 222 731 426Q731 627 551 627Z" horiz-adv-x="1072" unicode="Ь"/>
			<glyph d="M539 1430Q713 1430 830 1343T1006 1095T1064 711Q1064 495 1004 330T824 72T528 -20Q353 -20 240 72T59 331L313 423Q351 329 401 277T528 225Q640 225 702 328T775 614H395V825H773Q762 998 703 1091T534 1184Q454 1184 408 1136T328 999L70 1080Q120 1205 181 1281T329 1393T539 1430Z" horiz-adv-x="1143" unicode="Э"/>
			<glyph d="M1103 1430Q1275 1430 1390 1342T1561 1094T1617 711Q1617 488 1559 324T1386 70T1103 -20Q870 -20 747 146T601 602H419V0H136V1409H419V849H599Q629 1127 753 1278T1103 1430ZM1103 1191Q980 1191 927 1066T875 711Q875 478 928 348T1103 218Q1230 218 1281 346T1332 711Q1332 941 1278 1066T1103 1191Z" horiz-adv-x="1696" unicode="Ю"/>
			<glyph d="M516 1409H950V0H668V545H542L334 0H27L288 597Q199 649 143 751T87 985Q87 1114 138 1209T285 1357T516 1409ZM557 1187Q470 1187 419 1133T368 983Q368 886 409 826T537 766H668V1187Z" horiz-adv-x="1087" unicode="Я"/>
			<glyph d="M510 1051Q686 1051 783 956T880 683V308Q880 133 883 1L625 0L620 130H616Q571 57 500 18T336 -20Q202 -20 127 62T52 293Q52 459 156 535T435 614L614 618V676Q614 843 474 843Q412 843 361 812T244 709L93 855Q187 956 284 1003T510 1051ZM612 461L506 459Q330 453 330 311Q330 246 360 211T445 177Q497 177 534 205T592 280T612 376Z" horiz-adv-x="987" unicode="а"/>
			<glyph d="M888 1473L886 1218Q688 1202 494 1169Q429 1155 394 1122T344 1029T324 862H329Q366 931 437 971T595 1011Q774 1011 866 879T958 515Q958 -20 510 -20Q357 -20 259 48T114 260T67 632Q67 871 103 1027T219 1273T435 1394Q589 1425 692 1443T888 1473ZM515 809Q423 809 382 732T341 521Q341 347 384 270T508 194Q590 194 634 265T678 509Q678 658 635 733T515 809Z" horiz-adv-x="1024" unicode="б"/>
			<glyph d="M106 1030H551Q708 1030 786 966T865 779Q865 690 820 628T694 549V545Q790 532 847 466T904 299Q904 156 824 78T585 0H106ZM375 856V613H476Q537 613 563 644T589 743Q589 802 562 829T482 856ZM375 444V180H506Q565 180 594 209T623 309Q623 384 592 414T491 444Z" horiz-adv-x="969" unicode="в"/>
			<glyph d="M106 1030H664V818H375V0H106Z" horiz-adv-x="694" unicode="г"/>
			<glyph d="M250 1030H868V207H972V-395H721V0H272V-395H20V207H91Q151 326 189 510T246 961ZM466 820L462 782Q428 404 340 207H617V820Z" horiz-adv-x="1007" unicode="д"/>
			<glyph d="M504 1051Q721 1051 822 910T923 541Q923 500 919 454H342Q342 327 393 257T534 187Q599 187 652 219T769 318L912 170Q822 73 726 26T504 -20Q370 -20 271 40T118 221T64 520Q64 701 119 819T274 994T504 1051ZM509 854Q436 854 391 796T344 625H661Q659 733 618 793T509 854Z" horiz-adv-x="978" unicode="е"/>
			<glyph d="M9 1030H279L395 788Q432 718 455 683T497 636T544 624V1030H789V624Q816 624 835 636T878 683T938 788L1054 1030H1323L1150 684Q1126 635 1102 596T1065 543L1330 0H1040L865 437Q852 431 829 428T789 425V0H544V425Q526 425 503 428T468 437L293 0H3L268 543Q254 557 230 596T183 684Z" horiz-adv-x="1333" unicode="ж"/>
			<glyph d="M464 1051Q581 1051 665 1018T794 924T839 777Q839 682 779 618T624 540V535Q690 526 743 494T827 409T859 288Q859 144 756 62T451 -20Q321 -20 223 26T53 168L212 318Q263 251 314 219T438 187Q512 187 548 218T585 306Q585 360 558 389T482 428T353 438H326V626H353Q428 626 473 634T543 668T568 743Q568 791 536 817T442 843Q375 843 322 812T218 729L81 893Q241 1051 464 1051Z" horiz-adv-x="929" unicode="з"/>
			<glyph d="M106 1030H361V542Q361 506 358 435T354 341Q396 452 438 534L690 1030H963V0H709V487Q709 526 711 595T715 688Q697 644 690 627Q684 612 666 569T632 497L382 0H106Z" horiz-adv-x="1069" unicode="и"/>
			<glyph d="M106 1030H361V542Q361 506 358 435T354 341Q396 452 438 534L690 1030H963V0H709V487Q709 526 711 595T715 688Q697 644 690 627Q684 612 666 569T632 497L382 0H106ZM201 1454H400V1418Q400 1341 429 1305T533 1270Q605 1270 638 1306T672 1418V1454H871V1418Q871 1300 798 1217T533 1134Q338 1134 269 1215T201 1418Z" horiz-adv-x="1069" unicode="й"/>
			<glyph d="M106 1030H375V617Q404 617 435 656T514 788L630 1030H899L726 684Q704 639 679 602T638 549L906 0H616L432 428Q424 424 405 420T375 417V0H106Z" horiz-adv-x="909" unicode="к"/>
			<glyph d="M266 1030H921V0H650V821H489L472 649Q447 387 406 243T298 40T124 -20Q99 -20 65 -15T16 -5L33 190Q52 182 76 182Q118 182 148 241T202 434T245 799Z" horiz-adv-x="1027" unicode="л"/>
			<glyph d="M106 1030H469L634 412Q641 382 649 327T660 248Q662 270 671 326T688 411L852 1030H1213V0H974V535Q974 590 978 700T985 848Q971 763 960 707T935 600L777 0H545L384 600Q355 713 336 848Q338 810 342 697T347 536V0H106Z" horiz-adv-x="1319" unicode="м"/>
			<glyph d="M106 1030H375V637H671V1030H940V0H671V426H375V0H106Z" horiz-adv-x="1046" unicode="н"/>
			<glyph d="M511 1051Q747 1051 852 909T958 518Q958 -20 507 -20Q281 -20 172 123T64 518Q64 763 174 907T511 1051ZM515 835Q453 835 415 801T361 699T344 518Q344 350 383 273T505 196Q567 196 605 229T660 332T678 518Q678 631 661 700T609 802T515 835Z" horiz-adv-x="1021" unicode="о"/>
			<glyph d="M106 1030H940V0H671V821H375V0H106Z" horiz-adv-x="1046" unicode="п"/>
			<glyph d="M622 1051Q795 1051 880 910T965 520Q965 268 875 124T605 -19Q527 -19 468 13T374 112H370L371 71Q373 23 373 -9V-426H106V795Q106 984 104 1030H367L370 966L372 916H376Q421 989 477 1020T622 1051ZM537 839Q372 839 372 512Q372 194 535 194Q593 194 625 227T671 330T685 520Q685 632 672 701T626 804T537 839Z" horiz-adv-x="1029" unicode="р"/>
			<glyph d="M505 1052Q639 1052 725 996T872 814L664 709Q636 774 601 804T511 834Q417 834 377 756T337 520Q337 357 382 277T519 198Q575 198 618 228T710 330L881 199Q808 87 716 33T502 -20Q280 -20 171 120T62 511Q62 683 114 804T266 989T505 1052Z" horiz-adv-x="913" unicode="с"/>
			<glyph d="M34 1030H824V818H563V0H295V818H34Z" horiz-adv-x="853" unicode="т"/>
			<glyph d="M-10 1030H275L404 533Q433 421 465 277L478 345Q500 471 514 527L631 1030H914L583 -94Q541 -220 492 -291T378 -394T218 -426Q157 -426 92 -413L110 -202Q154 -210 170 -210Q226 -210 258 -172T318 -52L330 -14Z" horiz-adv-x="906" unicode="у"/>
			<glyph d="M641 1454H886V1049L885 954Q884 930 884 895H886Q939 978 999 1015T1144 1052Q1248 1052 1317 984T1421 797T1455 520Q1455 268 1370 125T1116 -18Q966 -18 886 130H882Q883 118 884 70T886 -23V-426H641V-23Q641 12 646 132H641Q602 55 541 18T394 -18Q235 -18 154 125T74 517Q74 676 109 796T215 983T394 1051Q479 1051 532 1016T641 897H646Q644 915 642 964T641 1053ZM1048 839Q976 839 930 764T884 512Q884 338 929 265T1046 192Q1099 192 1131 226T1177 331T1192 520Q1192 631 1178 700T1133 804T1048 839ZM481 837Q426 837 394 804T348 701T334 517Q334 348 368 270T481 192Q552 192 598 266T645 515Q645 673 603 755T481 837Z" horiz-adv-x="1529" unicode="ф"/>
			<glyph d="M34 1030H320L465 699L607 1030H895L612 534L912 0H624L465 345L304 0H20L314 532Z" horiz-adv-x="931" unicode="х"/>
			<glyph d="M113 1030H382V209H678V1030H947V209H1052V-407H801V0H113Z" horiz-adv-x="1088" unicode="ц"/>
			<glyph d="M105 1030H374V716Q374 649 382 611T413 555T481 537Q535 537 579 562T671 631V1030H940V0H671V419Q631 389 595 368T505 329T385 311Q244 311 174 398T105 682Z" horiz-adv-x="1046" unicode="ч"/>
			<glyph d="M106 1030H361V209H622V1030H876V209H1138V1030H1394V0H106Z" horiz-adv-x="1500" unicode="ш"/>
			<glyph d="M106 1030H361V209H622V1030H876V209H1138V1030H1394V208H1498V-395H1246V0H106Z" horiz-adv-x="1532" unicode="щ"/>
			<glyph d="M31 1030H561V635H762Q913 635 996 556T1080 327Q1080 173 996 86T763 0H293V818H31ZM561 445V191H652Q703 191 734 201T783 240T801 320Q801 389 764 417T659 445Z" horiz-adv-x="1144" unicode="ъ"/>
			<glyph d="M106 1030H375V635H577Q729 635 812 557T896 327Q896 172 812 86T580 0H106ZM1002 1030H1271V0H1002ZM375 445V191H468Q544 191 581 218T618 323Q618 390 581 417T475 445Z" horiz-adv-x="1377" unicode="ы"/>
			<glyph d="M106 1030H375V635H576Q727 635 811 556T895 327Q895 172 810 86T577 0H106ZM375 445V191H465Q542 191 578 218T614 323Q614 390 577 417T472 445Z" horiz-adv-x="959" unicode="ь"/>
			<glyph d="M428 1052Q638 1052 750 911T862 511Q862 260 754 120T425 -20Q301 -20 209 33T39 199L210 330Q261 257 305 227T408 197Q486 197 529 256T584 436H316V619H582Q572 729 535 781T420 834Q361 834 323 804T254 709L46 814Q114 940 205 996T428 1052Z" horiz-adv-x="925" unicode="э"/>
			<glyph d="M951 1051Q1375 1051 1375 518Q1375 269 1269 124T947 -20Q760 -20 656 98T532 423H375V0H106V1030H375V638H535Q561 832 662 941T951 1051ZM955 835Q875 835 840 759T806 518Q806 350 840 273T946 196Q1000 196 1032 229T1079 332T1094 518Q1094 633 1081 701T1038 802T955 835Z" horiz-adv-x="1437" unicode="ю"/>
			<glyph d="M436 1030H842V0H573V359H493L318 0H32L252 390Q207 407 167 446T102 550T77 699Q77 868 172 949T436 1030ZM485 840Q347 840 347 694Q347 624 381 586T477 549H573V840Z" horiz-adv-x="955" unicode="я"/>
			<glyph d="M504 1051Q721 1051 822 910T923 541Q923 500 919 454H342Q342 327 393 257T534 187Q599 187 652 219T769 318L912 170Q822 73 726 26T504 -20Q370 -20 271 40T118 221T64 520Q64 701 119 819T274 994T504 1051ZM509 854Q436 854 391 796T344 625H661Q659 733 618 793T509 854ZM188 1462H442L634 1174V1144H476L188 1419Z" horiz-adv-x="978" unicode="ѐ"/>
			<glyph d="M504 1051Q721 1051 822 910T923 541Q923 500 919 454H342Q342 327 393 257T534 187Q599 187 652 219T769 318L912 170Q822 73 726 26T504 -20Q370 -20 271 40T118 221T64 520Q64 701 119 819T274 994T504 1051ZM509 854Q436 854 391 796T344 625H661Q659 733 618 793T509 854ZM314 1412Q366 1412 401 1378T436 1292Q436 1240 401 1205T314 1170Q260 1170 226 1204T192 1292Q192 1344 226 1378T314 1412ZM682 1412Q733 1412 768 1378T803 1292Q803 1240 768 1205T682 1170Q628 1170 593 1204T559 1292Q559 1345 593 1378T682 1412Z" horiz-adv-x="978" unicode="ё"/>
			<glyph d="M106 1454H375V1310H587V1148H375V1028Q375 964 369 877H373Q428 970 491 1010T658 1051Q802 1051 871 939T941 640V-102Q941 -249 876 -337T682 -426Q594 -426 533 -416L547 -198Q565 -203 589 -203Q634 -203 653 -168T672 -60V574Q672 690 646 754T549 818Q494 818 454 780T395 676T375 526V0H106V1148H3V1312H106Z" unicode="ђ"/>
			<glyph d="M106 1030H664V818H375V0H106ZM409 1462H662V1419L374 1144H217V1174Z" horiz-adv-x="694" unicode="ѓ"/>
			<glyph d="M505 1052Q637 1052 725 996T878 814L671 709Q641 775 606 804T513 834Q434 834 393 780T342 619H608V436H341Q362 197 519 197Q578 197 621 227T715 330L885 199Q809 86 717 33T502 -20Q280 -20 171 120T62 511Q62 683 114 804T266 989T505 1052Z" horiz-adv-x="925" unicode="є"/>
			<glyph d="M432 1051Q658 1051 783 904L641 753Q590 804 542 828T438 852Q382 852 349 827T316 759Q316 720 339 696T398 659T511 624Q601 598 666 563T773 465T815 303Q815 204 768 131T633 19T429 -20Q302 -20 204 17T35 133L165 296Q228 236 287 208T426 180Q488 180 525 205T563 283Q563 324 540 349T482 390T378 426Q359 431 353 433Q269 458 207 492T105 588T65 741Q65 836 109 906T236 1013T432 1051Z" horiz-adv-x="866" unicode="ѕ"/>
			<glyph d="M242 1492Q313 1492 356 1452T399 1347Q399 1283 356 1242T242 1201Q168 1201 125 1241T82 1347Q82 1413 125 1452T242 1492ZM106 1030H375V0H106Z" horiz-adv-x="481" unicode="і"/>
			<glyph d="M106 1030H375V0H106ZM58 1412Q110 1412 145 1378T180 1292Q180 1240 145 1205T58 1170Q4 1170 -30 1204T-64 1292Q-64 1344 -29 1378T58 1412ZM426 1412Q477 1412 512 1378T547 1292Q547 1240 512 1205T426 1170Q372 1170 337 1204T303 1292Q303 1345 337 1378T426 1412Z" horiz-adv-x="481" unicode="ї"/>
			<glyph d="M241 1492Q312 1492 355 1452T398 1347Q398 1283 355 1242T241 1201Q167 1201 124 1240T82 1347Q82 1413 124 1452T241 1492ZM106 1030H375V-102Q375 -249 310 -337T115 -426Q28 -426 -33 -416L-19 -198Q-1 -203 23 -203Q68 -203 87 -168T106 -60Z" horiz-adv-x="481" unicode="ј"/>
			<glyph d="M266 1030H939V635H1139Q1290 635 1374 556T1458 327Q1458 171 1374 85T1140 0H666V821H489L472 649Q447 387 406 243T298 40T124 -20Q99 -20 65 -15T16 -5L33 190Q52 182 77 182Q118 182 148 241T202 434T245 799ZM939 445V191H1030Q1106 191 1142 218T1179 323Q1179 390 1142 417T1035 445Z" horiz-adv-x="1522" unicode="љ"/>
			<glyph d="M102 1030H371V634H668V1030H936V635H1138Q1289 635 1373 556T1457 327Q1457 170 1372 85T1139 0H668V421H371V0H102ZM936 445V191H1029Q1105 191 1140 218T1176 323Q1176 390 1139 417T1034 445Z" horiz-adv-x="1522" unicode="њ"/>
			<glyph d="M106 1454H375V1310H587V1148H375V1028Q375 964 369 877H373Q428 970 491 1010T658 1051Q802 1051 871 939T941 640V0H672V574Q672 690 646 754T549 818Q494 818 454 780T395 676T375 526V0H106V1148H3V1312H106Z" unicode="ћ"/>
			<glyph d="M106 1030H375V617Q404 617 435 656T514 788L630 1030H899L726 684Q704 639 679 602T638 549L906 0H616L432 428Q424 424 405 420T375 417V0H106ZM515 1462H768V1419L480 1144H323V1174Z" horiz-adv-x="909" unicode="ќ"/>
			<glyph d="M106 1030H361V542Q361 506 358 435T354 341Q396 452 438 534L690 1030H963V0H709V487Q709 526 711 595T715 688Q697 644 690 627Q684 612 666 569T632 497L382 0H106ZM226 1462H480L672 1174V1144H514L226 1419Z" horiz-adv-x="1069" unicode="ѝ"/>
			<glyph d="M-10 1030H275L404 533Q433 421 465 277L478 345Q500 471 514 527L631 1030H914L583 -94Q541 -220 492 -291T378 -394T218 -426Q157 -426 92 -413L110 -202Q154 -210 170 -210Q226 -210 258 -172T318 -52L330 -14ZM119 1454H318V1418Q318 1341 347 1305T451 1270Q523 1270 556 1306T590 1418V1454H789V1418Q789 1300 716 1217T451 1134Q256 1134 187 1215T119 1418Z" horiz-adv-x="906" unicode="ў"/>
			<glyph d="M106 1030H375V211H671V1030H940V0H649V-395H397V0H106Z" horiz-adv-x="1046" unicode="џ"/>
			<glyph d="M605 1789H886V1164H420V0H138V1409H605Z" horiz-adv-x="919" unicode="Ґ"/>
			<glyph d="M484 1399H735V816H375V0H106V1030H484Z" horiz-adv-x="770" unicode="ґ"/>
			<glyph d="M16 1409H303L447 618Q464 523 472 465T492 320Q493 311 497 276Q512 365 526 456Q535 510 549 595T572 728L695 1409H987L1108 723Q1130 598 1176 276L1195 395Q1222 565 1232 618L1369 1409H1657L1359 0H1022L885 782Q874 837 865 906T854 995Q848 1054 839 1113Q836 1090 829 1035Q827 1017 815 932T791 782L650 0H316ZM503 1809H763L1015 1559V1528H865L503 1766Z" horiz-adv-x="1674" unicode="Ẁ"/>
			<glyph d="M25 1030H277L409 401Q417 362 428 296T443 209Q446 231 456 297T473 401L593 1030H915L1038 401L1068 209Q1071 230 1082 296T1101 401L1229 1030H1481L1235 0H912L795 607Q783 661 770 728T754 816Q751 795 738 728T714 609L598 0H275ZM444 1462H698L890 1174V1144H732L444 1419Z" horiz-adv-x="1508" unicode="ẁ"/>
			<glyph d="M16 1409H303L447 618Q464 523 472 465T492 320Q493 311 497 276Q512 365 526 456Q535 510 549 595T572 728L695 1409H987L1108 723Q1130 598 1176 276L1195 395Q1222 565 1232 618L1369 1409H1657L1359 0H1022L885 782Q874 837 865 906T854 995Q848 1054 839 1113Q836 1090 829 1035Q827 1017 815 932T791 782L650 0H316ZM912 1810H1173V1766L809 1528H661V1557Z" horiz-adv-x="1674" unicode="Ẃ"/>
			<glyph d="M25 1030H277L409 401Q417 362 428 296T443 209Q446 231 456 297T473 401L593 1030H915L1038 401L1068 209Q1071 230 1082 296T1101 401L1229 1030H1481L1235 0H912L795 607Q783 661 770 728T754 816Q751 795 738 728T714 609L598 0H275ZM808 1462H1061V1419L773 1144H616V1174Z" horiz-adv-x="1508" unicode="ẃ"/>
			<glyph d="M16 1409H303L447 618Q464 523 472 465T492 320Q493 311 497 276Q512 365 526 456Q535 510 549 595T572 728L695 1409H987L1108 723Q1130 598 1176 276L1195 395Q1222 565 1232 618L1369 1409H1657L1359 0H1022L885 782Q874 837 865 906T854 995Q848 1054 839 1113Q836 1090 829 1035Q827 1017 815 932T791 782L650 0H316ZM649 1779Q702 1779 737 1744T773 1657Q773 1604 737 1568T649 1532Q595 1532 560 1567T525 1657Q525 1711 559 1745T649 1779ZM1030 1779Q1083 1779 1117 1745T1152 1657Q1152 1604 1117 1568T1030 1532Q975 1532 939 1567T904 1657Q904 1711 939 1745T1030 1779Z" horiz-adv-x="1674" unicode="Ẅ"/>
			<glyph d="M25 1030H277L409 401Q417 362 428 296T443 209Q446 231 456 297T473 401L593 1030H915L1038 401L1068 209Q1071 230 1082 296T1101 401L1229 1030H1481L1235 0H912L795 607Q783 661 770 728T754 816Q751 795 738 728T714 609L598 0H275ZM570 1412Q622 1412 657 1378T692 1292Q692 1240 657 1205T570 1170Q516 1170 482 1204T448 1292Q448 1344 482 1378T570 1412ZM938 1412Q989 1412 1024 1378T1059 1292Q1059 1240 1024 1205T938 1170Q884 1170 849 1204T815 1292Q815 1345 849 1378T938 1412Z" horiz-adv-x="1508" unicode="ẅ"/>
			<glyph d="M627 1430Q776 1430 897 1364T1109 1147L857 797Q1006 765 1088 659T1171 399Q1171 268 1122 174T977 30T745 -20Q620 -20 492 20L558 251Q602 232 640 222T719 212Q802 212 843 264T884 399Q884 501 824 547T640 594H572V803L785 1124Q728 1186 634 1186Q505 1186 455 1102T405 858V0H122V878Q122 1149 248 1289T627 1430Z" horiz-adv-x="1239" unicode="ẞ"/>
			<glyph d="M-3 1409H290L516 808L743 1409H1036L655 570V0H376L375 570ZM182 1809H442L694 1559V1528H544L182 1766Z" horiz-adv-x="1033" unicode="Ỳ"/>
			<glyph d="M-10 1030H275L404 533Q433 421 465 277L478 345Q500 471 514 527L631 1030H914L583 -94Q541 -220 492 -291T378 -394T218 -426Q157 -426 92 -413L110 -202Q154 -210 170 -210Q226 -210 258 -172T318 -52L330 -14ZM144 1462H398L590 1174V1144H432L144 1419Z" horiz-adv-x="906" unicode="ỳ"/>
			<glyph d="M61 645H458V398H61Z" horiz-adv-x="518" unicode="‐"/>
			<glyph d="M0 632H761V428H0Z" horiz-adv-x="761" unicode="–"/>
			<glyph d="M0 632H1536V428H0Z" horiz-adv-x="1536" unicode="—"/>
			<glyph d="M0 632H1536V428H0Z" horiz-adv-x="1536" unicode="―"/>
			<glyph d="M-20 -80H1044V-185H-20ZM-20 -321H1044V-426H-20Z" horiz-adv-x="1024" unicode="‗"/>
			<glyph d="M255 1422L361 1352Q263 1205 243 1095Q307 1085 343 1046T380 946Q380 881 339 841T234 801Q162 801 121 847T81 980Q81 1066 105 1143T166 1285T255 1422Z" horiz-adv-x="460" unicode="‘"/>
			<glyph d="M227 1415Q299 1415 339 1368T380 1236Q380 1151 355 1073T294 932T206 794L100 864Q198 1007 218 1121Q153 1131 117 1170T81 1271Q81 1335 122 1375T227 1415Z" horiz-adv-x="460" unicode="’"/>
			<glyph d="M211 297Q283 297 323 250T363 118Q363 32 338 -45T278 -186T189 -324L83 -254Q182 -108 201 3Q137 13 100 52T64 152Q64 217 105 257T211 297Z" horiz-adv-x="427" unicode="‚"/>
			<glyph d="M234 1415Q298 1415 339 1375T380 1271Q380 1209 344 1170T243 1121Q263 1007 361 864L255 794Q202 870 166 933T105 1073T81 1236Q81 1322 121 1368T234 1415Z" horiz-adv-x="458" unicode="‛"/>
			<glyph d="M252 1422L359 1352Q260 1208 241 1095Q305 1085 341 1046T377 946Q377 881 336 841T231 801Q159 801 118 847T78 980Q78 1066 102 1143T163 1285T252 1422ZM636 1422L742 1352Q644 1209 624 1095Q688 1085 724 1046T761 946Q761 881 720 841T614 801Q542 801 502 847T462 980Q462 1066 486 1143T547 1284T636 1422Z" horiz-adv-x="841" unicode="“"/>
			<glyph d="M226 1415Q298 1415 338 1368T378 1236Q378 1151 353 1073T293 932T205 794L98 864Q197 1010 216 1121Q152 1131 116 1170T80 1271Q80 1335 120 1375T226 1415ZM610 1415Q682 1415 722 1368T762 1236Q762 1113 715 1010T588 794L482 864Q581 1014 600 1121Q536 1131 499 1170T463 1271Q463 1335 504 1375T610 1415Z" horiz-adv-x="841" unicode="”"/>
			<glyph d="M226 297Q298 297 338 250T378 118Q378 32 353 -45T293 -185T205 -324L98 -254Q197 -108 216 3Q152 13 116 51T80 152Q80 217 120 257T226 297ZM610 297Q682 297 722 250T762 118Q762 -5 715 -108T588 -324L482 -254Q580 -107 600 3Q536 13 499 52T463 152Q463 217 504 257T610 297Z" horiz-adv-x="841" unicode="„"/>
			<glyph d="M311 1454H516V1108H755L776 905H516V-82L475 -219H352L311 -82V905H50L71 1108H311Z" horiz-adv-x="826" unicode="†"/>
			<glyph d="M311 1454H516V1108H755L776 905H516V758L475 621L516 483V336H776L755 133H516V-213H311V133H71L50 336H311V483L352 621L311 758V905H50L71 1108H311Z" horiz-adv-x="826" unicode="‡"/>
			<glyph d="M326 968Q387 968 438 929T520 823T551 676Q551 596 520 528T438 421T326 381Q265 381 213 421T132 528T102 676Q102 756 132 823T213 929T326 968Z" horiz-adv-x="653" unicode="•"/>
			<glyph d="M1172 312Q1244 312 1287 268T1330 152Q1330 80 1286 35T1172 -10Q1098 -10 1055 34T1012 152Q1012 224 1055 268T1172 312ZM693 312Q765 312 808 268T851 152Q851 80 807 35T693 -10Q619 -10 576 34T533 152Q533 224 576 268T693 312ZM214 312Q286 312 329 268T372 152Q372 80 328 35T214 -10Q140 -10 97 34T54 152Q54 224 97 268T214 312Z" horiz-adv-x="1385" unicode="…"/>
			<glyph d="M350 1424Q478 1424 556 1322T635 978Q635 818 596 717T492 572T348 527Q219 527 140 634T61 978Q61 1222 139 1323T350 1424ZM1026 1409H1210L503 0H321ZM350 1262Q316 1262 299 1233T278 1147T273 978Q273 868 278 809T299 722T348 694Q380 694 395 722T416 810T422 978Q422 1088 417 1147T396 1234T350 1262ZM1181 881Q1309 881 1388 778T1467 430Q1467 272 1428 172T1324 28T1179 -16Q1051 -16 971 90T892 430Q892 881 1181 881ZM1831 881Q1960 881 2039 778T2119 430Q2119 272 2079 172T1975 28T1830 -16Q1703 -16 1623 90T1543 430Q1543 677 1621 779T1831 881ZM1181 717Q1147 717 1131 689T1110 602T1105 430Q1105 322 1110 264T1131 178T1181 149Q1212 149 1227 177T1248 265T1254 430Q1254 541 1248 601T1227 689T1181 717ZM1831 717Q1798 717 1781 688T1760 601T1755 430Q1755 323 1760 265T1782 178T1832 149Q1863 149 1879 177T1900 265T1906 430Q1906 541 1900 601T1879 689T1831 717Z" horiz-adv-x="2178" unicode="‰"/>
			<glyph d="M151 1409H414L320 908H113Z" horiz-adv-x="529" unicode="′"/>
			<glyph d="M151 1409H414L320 908H113ZM582 1409H845L751 908H544Z" horiz-adv-x="960" unicode="″"/>
			<glyph d="M293 940H494V902L274 537L496 176V141H293L41 500V575Z" horiz-adv-x="537" unicode="‹"/>
			<glyph d="M43 940H242L496 575V500L242 141H41V176L272 537L43 902Z" horiz-adv-x="537" unicode="›"/>
			<glyph d="M100 1409H381L353 427H127ZM241 298Q312 298 355 256T398 145Q398 76 355 33T241 -10Q167 -10 124 32T81 145Q81 214 124 256T241 298ZM539 1409H820L792 427H566ZM680 298Q751 298 794 256T837 145Q837 76 794 33T680 -10Q606 -10 563 32T520 145Q520 214 563 256T680 298Z" horiz-adv-x="918" unicode="‼"/>
			<glyph d="M443 1429Q570 1429 660 1381T796 1245T843 1043Q843 953 819 885T762 771T678 675Q615 613 589 581T553 517T539 425H286L259 928H492L487 775Q499 793 508 811L519 830Q554 887 566 932T579 1039Q579 1109 548 1153T453 1198Q391 1198 356 1157T296 1029L32 1073Q59 1231 157 1330T443 1429ZM414 298Q485 298 527 256T570 145Q570 76 527 33T414 -10Q340 -10 297 32T254 145Q254 214 297 256T414 298Z" horiz-adv-x="871" unicode="‽"/>
			<glyph d="M-16 1546H1149V1452H-16Z" horiz-adv-x="1130" unicode="‾"/>
			<glyph d="M375 1409H551L-123 0H-300Z" horiz-adv-x="246" unicode="⁄"/>
			<glyph d="M464 1421Q666 1421 666 1143V667H484V1116Q484 1198 466 1235T400 1272Q342 1272 308 1223T274 1103V667H92V1228Q92 1336 89 1406H264Q269 1366 269 1313H273Q335 1421 464 1421Z" horiz-adv-x="743" unicode="ⁿ"/>
			<glyph d="M128 1409H861V1188H401V797H839V578H401V398H633V219H401V0H128V219H22V398H128Z" horiz-adv-x="924" unicode="₣"/>
			<glyph d="M560 1430Q680 1430 763 1380T905 1235L698 1105Q667 1159 637 1183T559 1208Q497 1208 468 1162T439 1026V943H698V778H439V697H698V533H439V508Q439 413 411 339T335 225H554Q627 225 665 280T715 428L978 386Q971 278 927 190T812 51T658 0H37V210Q113 243 143 306T174 491V533H44V697H174V778H44V943H174V976Q174 1188 263 1309T560 1430Z" horiz-adv-x="995" unicode="₤"/>
			<glyph d="M136 1409H570Q706 1409 798 1354T936 1201T982 968Q982 842 937 739T801 575T578 514H419V0H136ZM1376 1283V1030H1557V818H1376V331Q1376 264 1398 232T1467 201Q1506 201 1550 212L1573 17Q1517 -1 1471 -9T1362 -18Q1241 -18 1174 55T1107 266V818H1021V1030H1114L1129 1265ZM419 1187V735H536Q620 735 659 796T699 966Q699 1073 657 1130T530 1187ZM2034 1051Q2260 1051 2385 904L2243 753Q2192 804 2144 828T2039 852Q1983 852 1950 827T1918 759Q1918 720 1941 696T2000 659T2113 624Q2203 598 2268 563T2375 465T2417 303Q2417 204 2370 131T2235 19T2031 -20Q1904 -20 1806 17T1637 133L1767 296Q1830 236 1889 208T2028 180Q2090 180 2127 205T2165 283Q2165 324 2142 349T2083 390T1980 425L1954 433Q1871 458 1809 492T1707 588T1667 741Q1667 836 1711 906T1838 1013T2034 1051Z" horiz-adv-x="2468" unicode="₧"/>
			<glyph d="M528 1430Q689 1430 775 1355T903 1138L662 1074Q645 1137 617 1171T535 1206Q463 1206 426 1131T377 921H629V770H369V711Q369 668 370 647H629V497H378Q392 357 430 279T539 202Q579 202 604 225T642 282T668 369L914 311Q883 161 795 70T528 -20Q338 -20 237 118T110 497H10V647H100Q99 668 99 711Q99 751 100 770H10V921H109Q135 1161 234 1295T528 1430Z" horiz-adv-x="920" unicode="€"/>
			<glyph d="M60 1409H865V1219H559Q632 1159 655 1065H865V875H657Q639 761 580 683T439 561L724 0H428L189 517H60V707H206Q279 707 323 751T384 875H60V1065H383Q366 1140 319 1179T200 1219H60Z" horiz-adv-x="920" unicode="₹"/>
			<glyph d="M120 1409H393V1064L394 1065L616 1224V1010L394 851L393 850V735L394 736L616 896V682L394 523L393 522V240H457Q589 240 615 428L880 386Q873 279 829 190T715 51T561 0H120V334L20 257V469L120 548V663L20 585V797L120 876Z" horiz-adv-x="881" unicode="₺"/>
			<glyph d="M460 1409H680V1216Q866 1185 964 1050T1063 674V0H827V675Q827 818 790 898T680 1009V205H460V1012Q385 986 349 908T313 687V0H75V689Q75 930 175 1060T460 1218Z" horiz-adv-x="1138" unicode="₼"/>
			<glyph d="M159 1409H589Q792 1409 896 1295T1001 982Q1001 860 956 760T820 601T598 542H441V417H664V212H441V0H159V212H39V417H159V542H40V747H159ZM441 1203V747H556Q640 747 679 809T719 980Q719 1088 677 1145T549 1203Z" horiz-adv-x="1059" unicode="₽"/>
			<glyph d="M383 1431Q478 1431 546 1386T657 1246L501 1178Q482 1223 455 1246T389 1270Q321 1270 291 1209T262 1020Q262 893 293 831T391 770Q429 770 460 791T522 858L650 765Q595 685 528 647T379 609Q215 609 135 716T56 1014Q56 1216 141 1323T383 1431ZM1027 1409H1202L494 0H322ZM1175 751Q1336 751 1416 647T1497 367Q1497 252 1459 165T1348 29T1171 -20Q1073 -20 1001 28T890 165T852 367Q852 480 888 566T998 702T1175 751ZM1177 594Q1115 594 1088 541T1062 367Q1062 245 1088 191T1171 137Q1213 137 1238 160T1274 233T1285 367Q1285 450 1275 499T1241 571T1177 594Z" horiz-adv-x="1541" unicode="℅"/>
			<glyph d="M520 1430Q666 1430 747 1351T828 1131Q828 937 717 790T409 566V352Q409 254 442 205T534 157Q603 157 644 209T706 370H827Q795 194 711 87T466 -20Q316 -20 240 62T165 305V473Q91 442 34 423V578Q119 610 167 630L165 1083Q165 1232 247 1331T520 1430ZM526 1290Q464 1290 439 1243T415 1117V727Q518 778 577 882T636 1113Q636 1194 608 1242T526 1290Z" horiz-adv-x="893" unicode="ℓ"/>
			<glyph d="M136 1409H452L892 351Q892 356 889 431T886 611V1409H1121V0H803L367 1050Q368 1026 370 949T373 811V0H136ZM1569 1085Q1743 1085 1816 982T1890 695Q1890 511 1812 406T1565 301Q1403 301 1325 406T1247 695Q1247 876 1324 980T1569 1085ZM1571 934Q1527 934 1501 910T1463 835T1451 695Q1451 562 1477 507T1563 453Q1608 453 1635 476T1674 551T1687 695Q1687 785 1676 836T1640 911T1571 934ZM1288 167H1849V0H1288Z" horiz-adv-x="1944" unicode="№"/>
			<glyph d="M586 1430Q743 1430 866 1333T1059 1071T1128 707Q1128 508 1059 342T866 80T586 -16Q430 -16 306 80T114 342T45 707Q45 905 114 1071T307 1333T586 1430ZM586 1314Q456 1314 359 1233T212 1014T161 707Q161 537 212 398T359 178T586 97Q718 97 814 178T960 398T1011 707Q1011 876 960 1014T814 1233T586 1314ZM364 1113H627Q755 1113 816 1044T878 850Q878 698 805 634T630 571H539V296H364ZM539 983V698H616Q659 698 682 738T705 849Q705 914 680 948T607 983Z" horiz-adv-x="1176" unicode="℗"/>
			<glyph d="M13 1409H460V1289H307V768H160L161 1289H13ZM502 1409H720L804 1114Q824 1038 845 939Q861 1009 888 1114L969 1409H1185V768H1044V1133Q1044 1172 1046 1230L1047 1281L908 768H780L640 1281Q640 1236 641 1212L642 1139V768H502Z" horiz-adv-x="1251" unicode="™"/>
			<glyph d="M640 1430Q808 1430 932 1355T1124 1140T1192 807Q1192 603 1113 454T901 222L943 224Q1033 229 1062 229H1196V0H721V264Q797 332 837 408T893 571T908 773Q908 974 841 1079T641 1184Q375 1184 375 773Q375 657 389 571T444 408T561 264V0H86V229H219Q263 229 353 224L383 222Q246 304 168 452T90 807Q90 1000 157 1140T348 1355T640 1430Z" horiz-adv-x="1282" unicode="Ω"/>
			<glyph d="M618 1096Q769 1096 890 1027T1080 829T1149 530H322V174Q370 123 450 87T618 51Q760 51 850 108T1014 285L1085 244Q1030 157 971 97T825 1T618 -35Q452 -35 332 43T150 250T88 530Q88 717 165 844T363 1034T618 1096ZM616 1012Q522 1012 449 979T322 895V616H918V893Q871 940 792 976T616 1012Z" horiz-adv-x="1229" unicode="℮"/>
			<glyph d="M235 1409H410V723H543V563H59V723H223V1209L72 1084V1272ZM1011 1409H1187L513 0H336ZM1177 858Q1304 858 1362 794T1421 633Q1421 557 1385 505T1286 436V432Q1358 422 1397 367T1437 235Q1437 117 1374 51T1179 -14Q1053 -14 994 46T924 199L1093 228Q1101 189 1118 167T1175 146Q1215 146 1231 171T1247 249Q1247 351 1146 351H1094V509H1142Q1186 509 1209 530T1232 609Q1232 654 1218 677T1172 700Q1143 700 1129 684T1108 632L936 658Q947 755 1008 806T1177 858Z" horiz-adv-x="1470" unicode="⅓"/>
			<glyph d="M298 1421Q410 1421 474 1359T539 1190Q539 1134 521 1085T478 998T410 903L397 886L273 723H549V563H39V698L226 946Q294 1034 319 1082T345 1185Q345 1259 294 1259Q266 1259 251 1239T229 1175L48 1196Q59 1296 122 1358T298 1421ZM1026 1409H1202L528 0H351ZM1192 858Q1319 858 1377 794T1436 633Q1436 557 1400 505T1301 436V432Q1373 422 1412 367T1452 235Q1452 117 1389 51T1194 -14Q1068 -14 1009 46T939 199L1108 228Q1116 189 1133 167T1190 146Q1230 146 1246 171T1262 249Q1262 351 1161 351H1109V509H1157Q1201 509 1224 530T1247 609Q1247 654 1233 677T1187 700Q1158 700 1144 684T1123 632L951 658Q962 755 1023 806T1192 858Z" horiz-adv-x="1485" unicode="⅔"/>
			<glyph d="M235 1409H410V723H543V563H59V723H223V1209L72 1084V1272ZM1011 1409H1187L513 0H336ZM1176 858Q1307 858 1364 798T1421 638Q1421 571 1388 515T1305 446V444Q1362 429 1399 374T1437 236Q1437 119 1374 53T1176 -12Q1042 -12 978 54T915 236Q915 320 954 374T1046 442V444Q996 460 963 516T930 640Q930 739 990 798T1176 858ZM1176 720Q1145 720 1133 694T1122 619Q1122 570 1133 541T1176 513Q1210 513 1220 541T1231 619Q1231 668 1219 694T1176 720ZM1176 374Q1136 374 1121 341T1106 253Q1106 191 1121 159T1178 128Q1218 128 1231 160T1245 255Q1245 311 1231 342T1176 374Z" horiz-adv-x="1471" unicode="⅛"/>
			<glyph d="M295 1421Q422 1421 480 1357T539 1196Q539 1120 503 1068T404 999V995Q476 985 515 930T555 798Q555 680 492 614T297 549Q171 549 112 609T42 762L211 791Q219 752 236 730T293 709Q333 709 349 734T365 812Q365 914 264 914H212V1072H260Q304 1072 327 1093T350 1172Q350 1217 336 1240T290 1263Q261 1263 247 1247T226 1195L54 1221Q65 1318 126 1369T295 1421ZM963 1409H1139L465 0H288ZM1128 858Q1259 858 1316 798T1373 638Q1373 571 1340 515T1257 446V444Q1314 429 1351 374T1389 236Q1389 119 1326 53T1128 -12Q994 -12 930 54T867 236Q867 320 906 374T998 442V444Q948 460 915 516T882 640Q882 739 942 798T1128 858ZM1128 720Q1097 720 1085 694T1074 619Q1074 570 1085 541T1128 513Q1162 513 1172 541T1183 619Q1183 668 1171 694T1128 720ZM1128 374Q1088 374 1073 341T1058 253Q1058 191 1073 159T1130 128Q1170 128 1183 160T1197 255Q1197 311 1183 342T1128 374Z" horiz-adv-x="1423" unicode="⅜"/>
			<glyph d="M71 1409H513V1249H240L232 1089Q256 1109 284 1120T354 1132Q415 1132 460 1096T531 996T556 847Q556 713 490 632T288 551Q180 551 117 605T43 746L214 783Q225 746 242 728T288 711Q329 711 346 744T364 844Q364 905 347 937T294 969Q270 969 255 959T223 927L55 990ZM964 1409H1140L466 0H289ZM1129 858Q1260 858 1317 798T1374 638Q1374 571 1341 515T1258 446V444Q1315 429 1352 374T1390 236Q1390 119 1327 53T1129 -12Q995 -12 931 54T868 236Q868 320 907 374T999 442V444Q949 460 916 516T883 640Q883 739 943 798T1129 858ZM1129 720Q1098 720 1086 694T1075 619Q1075 570 1086 541T1129 513Q1163 513 1173 541T1184 619Q1184 668 1172 694T1129 720ZM1129 374Q1089 374 1074 341T1059 253Q1059 191 1074 159T1131 128Q1171 128 1184 160T1198 255Q1198 311 1184 342T1129 374Z" horiz-adv-x="1424" unicode="⅝"/>
			<glyph d="M44 1409H538V1256L307 563H110L356 1249H44ZM861 1409H1037L363 0H186ZM1026 858Q1157 858 1214 798T1271 638Q1271 571 1238 515T1155 446V444Q1212 429 1249 374T1287 236Q1287 119 1224 53T1026 -12Q892 -12 828 54T765 236Q765 320 804 374T896 442V444Q846 460 813 516T780 640Q780 739 840 798T1026 858ZM1026 720Q995 720 983 694T972 619Q972 570 983 541T1026 513Q1060 513 1070 541T1081 619Q1081 668 1069 694T1026 720ZM1026 374Q986 374 971 341T956 253Q956 191 971 159T1028 128Q1068 128 1081 160T1095 255Q1095 311 1081 342T1026 374Z" horiz-adv-x="1321" unicode="⅞"/>
			<glyph d="M663 1467Q921 1467 1035 1311T1150 905Q1150 666 1078 454T853 108T470 -25Q323 -25 229 28T92 169T50 370Q50 502 105 643T281 882T585 980Q680 980 752 938T861 820H865Q870 854 870 909Q870 1085 805 1178T606 1271Q542 1271 467 1251T342 1202L398 1411Q527 1467 663 1467ZM641 809Q547 809 479 737T376 564T342 376Q342 281 384 226T507 171Q588 171 654 237T764 412T826 644Q810 717 759 763T641 809Z" horiz-adv-x="1190" unicode="∂"/>
			<glyph d="M397 1409H730L1067 218V0H56V217ZM567 1174Q561 1142 557 1127Q528 979 503 882L335 234H786L626 883Q602 982 574 1138Q571 1150 567 1174Z" horiz-adv-x="1122" unicode="∆"/>
			<glyph d="M136 1409H1114V-426H835V1174H416V-426H136Z" horiz-adv-x="1249" unicode="∏"/>
			<glyph d="M70 1409H939V1174H419L797 499L401 -191H978V-426H55V-265L504 498L70 1257Z" horiz-adv-x="1032" unicode="∑"/>
			<glyph d="M48 794H870V569H48Z" horiz-adv-x="920" unicode="−"/>
			<glyph d="M466 1455H725L265 0H4Z" horiz-adv-x="731" unicode="∕"/>
			<glyph d="M326 968Q387 968 438 929T520 823T551 676Q551 596 520 528T438 421T326 381Q265 381 213 421T132 528T102 676Q102 756 132 823T213 929T326 968Z" horiz-adv-x="653" unicode="∙"/>
			<glyph d="M1061 1620H1250L743 -25H573L302 727H119V895H431L649 262Z" horiz-adv-x="1250" unicode="√"/>
			<glyph d="M437 1007Q684 1007 833 730Q904 847 1009 921T1238 995Q1351 995 1438 944T1575 800T1624 581Q1624 471 1574 377T1436 229T1235 174Q1111 174 1011 242T833 451Q764 335 659 260T436 185Q324 185 235 235T97 380T47 599Q47 711 96 804T235 952T437 1007ZM467 813Q407 813 359 784T285 705T258 595Q258 536 283 487T356 409T470 380Q545 380 611 433T737 597Q677 706 613 759T467 813ZM1200 800Q1125 800 1059 746T934 583Q993 475 1056 421T1204 367Q1264 367 1311 396T1384 474T1411 584Q1411 645 1384 694T1310 771T1200 800Z" horiz-adv-x="1671" unicode="∞"/>
			<glyph d="M711 1471Q752 1471 796 1465T867 1451V1211Q843 1221 811 1228T749 1235Q666 1235 629 1183T592 1047V-45Q592 -162 546 -247T410 -379T191 -426Q152 -426 107 -420T33 -405V-166Q97 -189 153 -189Q236 -189 271 -139T307 -1L306 1090Q306 1207 352 1292T490 1424T711 1471Z" horiz-adv-x="901" unicode="∫"/>
			<glyph d="M254 1081Q312 1081 368 1063T512 1008Q557 988 596 975T669 963Q767 963 868 1055V834Q817 789 769 771T656 754Q602 754 549 771T420 823Q315 868 243 868Q185 868 139 846T40 780V997Q83 1036 137 1058T254 1081ZM254 598Q313 598 372 579T512 526Q562 505 598 493T669 481Q770 481 868 574V353Q816 309 768 291T656 273Q602 273 550 290T420 341Q314 388 243 388Q185 388 139 366T40 300V514Q82 554 136 576T254 598Z" horiz-adv-x="906" unicode="≈"/>
			<glyph d="M587 1326H795L704 1066H870V841H610L494 514H870V288H398L311 36H102L189 288H48V514H284L400 841H48V1066H495Z" horiz-adv-x="922" unicode="≠"/>
			<glyph d="M872 1323V1094L243 793L872 493V263L49 651V935ZM50 225H872V0H50Z" horiz-adv-x="922" unicode="≤"/>
			<glyph d="M48 1323L870 935V651L48 263V493L679 793L48 1094ZM48 225H870V0H48Z" horiz-adv-x="922" unicode="≥"/>
			<glyph d="M514 1445H620L1092 722L620 0H514L44 720ZM568 1201L258 722L568 231L876 722Z" horiz-adv-x="1137" unicode="◊"/>
			<glyph d="M-232 -74Q-171 -74 -136 -108T-101 -205Q-101 -269 -134 -323T-222 -430L-306 -371Q-256 -319 -243 -280Q-292 -274 -321 -246T-351 -178Q-351 -132 -317 -103T-232 -74Z" horiz-adv-x="0" unicode=""/>
			<glyph d="M129 1409H897V0H129ZM256 1282V129H768V1282Z" horiz-adv-x="1024" unicode=""/>
			<glyph d="M1006 1464Q1093 1464 1163 1445L1136 1248Q1115 1255 1086 1255Q1037 1255 1014 1227T991 1132V1030H1153V818H991V0H723V818H421V0H152V818H34V1030H152V1149Q152 1290 221 1368T418 1447Q500 1447 575 1427L548 1231Q527 1238 497 1238Q458 1238 439 1210T421 1115V1030H723V1166Q723 1307 797 1385T1006 1464Z" horiz-adv-x="1178" unicode="ﬀ"/>
			<glyph d="M434 1464Q523 1464 593 1445L566 1248Q545 1255 514 1255Q466 1255 443 1227T421 1132V1030H584V818H421V0H152V818H34V1030H152V1166Q152 1307 226 1385T434 1464ZM850 1492Q921 1492 964 1452T1007 1347Q1007 1283 964 1242T850 1201Q776 1201 733 1241T690 1347Q690 1413 733 1452T850 1492ZM714 1030H983V0H714Z" horiz-adv-x="1089" unicode="ﬁ"/>
			<glyph d="M434 1464Q523 1464 593 1445L566 1248Q545 1255 514 1255Q466 1255 443 1227T421 1132V1030H584V818H421V0H152V818H34V1030H152V1166Q152 1307 226 1385T434 1464ZM714 1454H983V322Q983 263 1002 234T1066 205Q1088 205 1112 211L1126 0Q1082 -7 1051 -10T974 -14Q845 -14 779 68T714 289Z" horiz-adv-x="1141" unicode="ﬂ"/>
			<glyph d="M1006 1464Q1093 1464 1163 1445L1136 1248Q1115 1255 1086 1255Q1037 1255 1014 1227T991 1132V1030H1153V818H991V0H723V818H421V0H152V818H34V1030H152V1149Q152 1290 221 1368T418 1447Q500 1447 575 1427L548 1231Q527 1238 497 1238Q458 1238 439 1210T421 1115V1030H723V1166Q723 1307 797 1385T1006 1464ZM1420 1492Q1491 1492 1534 1452T1577 1347Q1577 1283 1534 1242T1420 1201Q1346 1201 1303 1241T1260 1347Q1260 1413 1303 1452T1420 1492ZM1284 1030H1553V0H1284Z" horiz-adv-x="1659" unicode="ﬃ"/>
			<glyph d="M1006 1464Q1093 1464 1163 1445L1136 1248Q1115 1255 1086 1255Q1037 1255 1014 1227T991 1132V1030H1153V818H991V0H723V818H421V0H152V818H34V1030H152V1149Q152 1290 221 1368T418 1447Q500 1447 575 1427L548 1231Q527 1238 497 1238Q458 1238 439 1210T421 1115V1030H723V1166Q723 1307 797 1385T1006 1464ZM1284 1454H1553V322Q1553 263 1572 234T1636 205Q1658 205 1682 211L1696 0Q1652 -7 1621 -10T1544 -14Q1415 -14 1349 68T1284 289Z" horiz-adv-x="1711" unicode="ﬄ"/>
			<glyph d="" horiz-adv-x="0" unicode="﻿"/>
		</font>
</defs>
</svg>
