<svg xmlns="http://www.w3.org/2000/svg" width="24" height="24" viewBox="0 0 24 24">
    <path fill="#FFF" fill-rule="nonzero" d="M12 0C5.372 0 0 5.508 0 12.304 0 17.739 3.437 22.35 8.207 23.98c.6.11.816-.268.816-.594 0-.292-.01-1.067-.013-2.092-3.338.743-4.043-1.65-4.043-1.65-.544-1.422-1.332-1.8-1.332-1.8-1.09-.764.083-.747.083-.747 1.205.087 1.837 1.269 1.837 1.269 1.07 1.88 2.81 1.337 3.491 1.022.11-.795.423-1.338.764-1.645-2.663-.31-5.464-1.366-5.464-6.082 0-1.34.468-2.441 1.232-3.3-.122-.312-.537-1.564.119-3.256 0 0 1.007-.332 3.299 1.26.96-.274 1.984-.41 3.003-.415 1.021.005 2.046.141 3.003.414 2.293-1.593 3.299-1.26 3.299-1.26.655 1.693.244 2.945.119 3.257.77.859 1.232 1.958 1.232 3.3 0 4.728-2.803 5.767-5.477 6.072.427.38.812 1.13.812 2.277 0 1.646-.014 2.973-.014 3.376 0 .33.214.712.826.591C20.566 22.347 24 17.737 24 12.304 24 5.508 18.628 0 12 0z"/>
</svg>
