<svg xmlns="http://www.w3.org/2000/svg" width="24" height="19" viewBox="0 0 24 19">
    <path fill="#FFF" fill-rule="nonzero" d="M21.534 4.735c.016.208.016.416.016.623C21.55 11.696 16.6 19 7.555 19 4.768 19 2.179 18.213 0 16.847c.396.044.777.06 1.188.06 2.3 0 4.416-.758 6.108-2.05-2.163-.043-3.975-1.424-4.6-3.324.303.044.609.074.929.074.44 0 .884-.06 1.295-.163C2.665 10.999.976 9.069.976 6.738v-.06a5.062 5.062 0 0 0 2.222.61c-1.325-.86-2.193-2.33-2.193-3.993 0-.89.243-1.707.67-2.419 2.421 2.908 6.062 4.809 10.143 5.017a5.316 5.316 0 0 1-.122-1.098c0-2.643 2.193-4.795 4.92-4.795 1.416 0 2.694.578 3.593 1.514A9.873 9.873 0 0 0 23.331.356a4.81 4.81 0 0 1-2.163 2.642c.99-.104 1.95-.37 2.832-.742-.67.95-1.506 1.796-2.466 2.48z"/>
</svg>
