<?xml version="1.0" encoding="UTF-8"?>
<svg height="100%" width="100%" xmlns="http://www.w3.org/2000/svg">
	<defs>
		<font horiz-adv-x="1266" id="web">
			<font-face alphabetic="0" ascent="1853" descent="-432" font-family="" panose-1="2 11 10 4 3 6 3 2 2 4" units-per-em="2048"/>
			<missing-glyph d="M129 1409H897V0H129ZM256 1282V129H768V1282Z" horiz-adv-x="1024"/>
			<glyph d="" horiz-adv-x="512" unicode=" "/>
			<glyph d="M160 1409H561L520 481H201ZM356 391Q453 391 511 335T569 188Q569 129 542 84T468 13T356 -12Q255 -12 197 42T139 188Q139 281 197 336T356 391Z" horiz-adv-x="725" unicode="!"/>
			<glyph d="M84 1409H453L422 807H117ZM573 1409H942L911 807H606Z" horiz-adv-x="1032" unicode="&quot;"/>
			<glyph d="M381 1409H584L506 1044H754L834 1409H1036L956 1044H1094V850H915L854 555H1042V358H815L737 0H535L606 358H360L287 0H84L160 358H31V555H201L262 850H82V1044H301ZM465 850L403 555H653L713 850Z" horiz-adv-x="1139" unicode="#"/>
			<glyph d="M532 1524H666V1384Q807 1376 921 1329T1116 1192L915 967Q855 1020 795 1053T666 1098V877Q818 846 916 806T1080 684T1145 461Q1145 273 1023 161T666 35V-162H532V35Q357 44 221 104T-6 272L209 500Q277 429 352 385T532 332V571Q442 589 334 637T143 772T61 979Q61 1163 187 1266T532 1384ZM532 1102Q416 1086 416 1008Q416 970 443 948T532 907ZM666 537V330Q732 338 762 360T793 424Q793 464 761 491T666 537ZZ" horiz-adv-x="1178" unicode="$"/>
			<glyph d="M403 1430Q784 1430 784 995Q784 768 678 664T399 561Q226 561 123 663T20 995Q20 1234 121 1332T403 1430ZM1257 1409H1524L610 0H344ZM403 1204Q361 1204 338 1186T306 1123T297 995Q297 911 307 865T339 801T401 782Q440 782 462 800T494 864T504 995Q504 1079 494 1124T462 1186T403 1204ZM1468 848Q1642 848 1745 749T1849 414Q1849 187 1743 83T1464 -20Q1291 -20 1188 82T1085 414Q1085 653 1186 750T1468 848ZM1468 623Q1426 623 1403 605T1371 542T1362 414Q1362 330 1372 284T1404 220T1466 201Q1505 201 1527 219T1559 283T1569 414Q1569 498 1559 543T1527 605T1468 623Z" horiz-adv-x="1870" unicode="%"/>
			<glyph d="M627 1432Q815 1432 917 1351T1020 1120Q1020 1015 955 930T764 757L968 523Q1041 635 1079 758L1372 682Q1297 448 1174 287L1421 4V0H1012L944 79Q777 -20 565 -20Q406 -20 294 34T126 184T70 403Q70 543 139 636T339 809Q278 898 248 969T219 1104Q219 1193 259 1267T391 1386T627 1432ZM627 1208Q579 1208 554 1180T530 1112Q530 1078 547 1039T601 952Q663 991 691 1027T719 1112Q719 1158 695 1183T627 1208ZM513 583Q459 538 438 502T418 422Q418 365 443 326T509 269T598 250Q678 250 755 299L629 446Q608 470 609 469Q529 563 513 583Z" horiz-adv-x="1438" unicode="&amp;"/>
			<glyph d="M84 1409H453L422 807H117Z" horiz-adv-x="535" unicode="'"/>
			<glyph d="M330 1501H715Q574 1267 510 1037T446 537Q446 264 510 34T715 -426H330Q190 -207 128 21T66 535Q66 824 127 1051T330 1501Z" horiz-adv-x="692" unicode="("/>
			<glyph d="M-23 1501H365Q505 1277 567 1049T629 535Q629 251 566 23T365 -426H-23Q119 -196 182 33T246 537Q246 809 182 1038T-23 1501Z" horiz-adv-x="692" unicode=")"/>
			<glyph d="M262 1409H549L528 1143L739 1251L829 989L600 936L795 741L543 578L403 827L264 578L10 743L205 936L-25 989L66 1251L283 1143Z" horiz-adv-x="801" unicode="*"/>
			<glyph d="M475 1231H786V836H1174V526H786V131H475V526H92V836H475Z" unicode="+"/>
			<glyph d="M322 418Q426 418 483 350T541 145Q541 -2 477 -139T305 -416L125 -309Q179 -247 225 -169T289 -12Q207 3 159 60T111 199Q111 264 138 313T213 390T322 418Z" horiz-adv-x="651" unicode=","/>
			<glyph d="M82 723H666V387H82Z" horiz-adv-x="748" unicode="-"/>
			<glyph d="M328 422Q425 422 483 363T541 205Q541 141 514 92T440 15T328 -12Q227 -12 169 46T111 205Q111 305 169 363T328 422Z" horiz-adv-x="651" unicode="."/>
			<glyph d="M637 1499H961L348 -63H18Z" horiz-adv-x="979" unicode="/"/>
			<glyph d="M614 1430Q1145 1430 1145 705Q1145 455 1077 293T889 55T604 -20Q355 -20 213 156T72 705Q72 970 137 1130T322 1360T614 1430ZM612 1098Q547 1098 517 1063T479 950T471 705Q471 543 479 464T516 349T606 313Q665 313 694 349T733 466T743 705Q743 869 734 949T697 1063T612 1098Z" horiz-adv-x="1217" unicode="0"/>
			<glyph d="M479 1409H860V297H1167V0H127V297H461V1051L123 829V1180Z" horiz-adv-x="1217" unicode="1"/>
			<glyph d="M606 1430Q778 1430 891 1372T1058 1220T1112 1012Q1112 904 1074 812T969 643T801 481L601 315H1139V0H63V268L543 692Q630 769 668 825T707 946Q707 1007 672 1047T559 1087Q490 1087 427 1051T299 942L61 1184Q146 1298 285 1364T606 1430Z" horiz-adv-x="1217" unicode="2"/>
			<glyph d="M612 1430Q779 1430 890 1381T1056 1247T1110 1049Q1110 793 827 727V723Q993 699 1070 613T1147 393Q1147 271 1087 178T906 32T608 -20Q360 -20 230 79T53 330L350 465Q392 375 446 331T586 287Q665 287 708 325T752 436Q752 513 694 545T555 578H438V848H539Q627 848 675 880T723 991Q723 1059 683 1093T573 1128Q498 1128 452 1089T365 971L78 1114Q135 1274 273 1352T612 1430Z" horiz-adv-x="1217" unicode="3"/>
			<glyph d="M586 1409H1001V530H1167V229H1001V0H639V229H25V541ZM647 1038Q632 1006 609 964T567 893L391 614Q364 568 336 530H639V838Q639 880 641 942T647 1038Z" horiz-adv-x="1217" unicode="4"/>
			<glyph d="M150 1409H1059V1112H470L443 871Q543 956 717 956Q851 956 948 898T1096 737T1147 498Q1147 346 1083 229T892 46T584 -20Q372 -20 241 66T59 299L377 455Q397 409 419 375T480 317T580 293Q658 293 700 342T743 481Q743 567 703 614T588 662Q531 662 488 637T406 553L76 702Z" horiz-adv-x="1217" unicode="5"/>
			<glyph d="M641 1430Q797 1430 915 1364T1110 1149L827 991Q779 1061 734 1088T637 1116Q539 1116 486 1035T434 797Q475 843 553 870T721 897Q848 897 945 843T1097 692T1151 465Q1151 312 1083 202T895 36T623 -20Q447 -20 319 58T122 293T53 684Q53 922 121 1089T321 1343T641 1430ZM618 610Q551 610 508 569T465 451Q465 373 507 333T618 293Q688 293 728 335T768 451Q768 524 730 567T618 610Z" horiz-adv-x="1217" unicode="6"/>
			<glyph d="M111 1409H1114V1114L618 0H223L731 1100H111Z" horiz-adv-x="1217" unicode="7"/>
			<glyph d="M614 1430Q775 1430 890 1382T1064 1249T1124 1051Q1124 971 1094 906T1010 798T887 741V737Q968 725 1029 680T1125 564T1159 399Q1159 270 1094 176T905 31T610 -20Q439 -20 315 30T126 174T61 393Q61 490 98 564T197 682T330 737V741Q223 766 158 849T94 1051Q94 1168 159 1253T341 1384T614 1430ZM608 1161Q544 1161 509 1125T475 1024Q475 960 509 922T608 885Q673 885 707 922T741 1024Q741 1090 706 1125T608 1161ZM608 571Q530 571 493 525T457 408Q457 330 496 290T608 250Q680 250 720 290T760 408Q760 480 723 525T608 571Z" horiz-adv-x="1217" unicode="8"/>
			<glyph d="M582 1430Q757 1430 884 1352T1081 1116T1151 725Q1151 487 1082 320T882 66T563 -20Q408 -20 289 45T94 260L377 418Q425 348 469 320T567 293Q665 293 717 374T770 612Q729 566 650 539T483 512Q356 512 258 565T107 717T53 944Q53 1097 121 1206T310 1373T582 1430ZM586 1116Q517 1116 476 1073T436 958Q436 885 474 842T586 799Q654 799 696 840T739 958Q739 1036 696 1076T586 1116Z" horiz-adv-x="1217" unicode="9"/>
			<glyph d="M412 1120Q510 1120 568 1061T627 903Q627 839 600 789T525 713T412 686Q313 686 255 745T197 903Q197 1003 254 1061T412 1120ZM412 422Q510 422 568 363T627 205Q627 141 600 91T525 15T412 -12Q312 -12 254 46T197 205Q197 305 254 363T412 422Z" horiz-adv-x="823" unicode=":"/>
			<glyph d="M416 1120Q513 1120 572 1061T631 903Q631 839 604 790T528 713T416 686Q315 686 257 745T199 903Q199 1003 257 1061T416 1120ZM406 418Q510 418 567 350T625 145Q625 -2 561 -139T389 -416L209 -309Q263 -247 309 -169T373 -12Q291 3 243 60T195 199Q195 264 222 313T297 390T406 418Z" horiz-adv-x="829" unicode=";"/>
			<glyph d="M1176 1266V958L354 680L1176 401V94L92 455V905Z" unicode="&lt;"/>
			<glyph d="M92 1092H1174V784H92ZM92 578H1174V272H92Z" unicode="="/>
			<glyph d="M92 1266L1174 905V455L92 94V401L911 680L92 958Z" unicode="&gt;"/>
			<glyph d="M643 1430Q805 1430 923 1380T1104 1237T1167 1018Q1167 901 1114 818T973 676Q906 631 869 601T814 542T795 479H455Q455 579 494 649T631 793Q691 837 722 865T769 924T786 995Q786 1058 744 1096T623 1135Q454 1135 356 946L104 1120Q181 1262 307 1346T643 1430ZM639 391Q737 391 795 335T854 188Q854 129 827 84T752 13T639 -12Q540 -12 482 42T424 188Q424 281 482 336T639 391Z" horiz-adv-x="1294" unicode="?"/>
			<glyph d="M1079 1501Q1350 1501 1537 1395T1817 1104T1911 678Q1911 505 1862 378T1719 184T1491 117Q1406 117 1337 145T1223 227H1221Q1163 157 1099 127T944 98Q811 98 722 161T590 335T547 592Q547 752 594 871T731 1054T946 1118Q1038 1118 1094 1082T1188 971H1190Q1190 1051 1202 1098H1456Q1450 1089 1450 817V500Q1450 433 1456 396T1479 341T1532 324Q1576 324 1609 368T1659 489T1677 664Q1677 861 1604 1002T1397 1218T1079 1292Q855 1292 699 1200T466 949T389 592Q389 293 550 121T1047 -51Q1185 -51 1313 -15T1536 90L1642 -100Q1507 -177 1355 -224T1022 -272Q740 -272 545 -163T253 140T156 592Q156 863 261 1068T574 1387T1079 1501ZM997 891Q906 891 863 811T821 592Q821 480 859 408T983 336Q1036 336 1081 366T1155 460T1184 621Q1184 757 1131 824T997 891Z" horiz-adv-x="2075" unicode="@"/>
			<glyph d="M526 1409H1030L1518 0H1100L1018 270H531L449 0H37ZM774 1090Q763 1039 729 922L625 578H925L821 922Q786 1033 774 1090Z" horiz-adv-x="1548" unicode="A"/>
			<glyph d="M113 1409H786Q1053 1409 1184 1320T1315 1053Q1315 921 1252 845T1073 739Q1210 718 1290 636T1370 406Q1370 202 1216 101T799 0H113ZM522 1108V872H717Q811 872 851 899T891 993Q891 1058 852 1083T731 1108ZM522 582V303H764Q856 303 905 333T954 444Q954 508 913 545T788 582Z" horiz-adv-x="1432" unicode="B"/>
			<glyph d="M819 1430Q1060 1430 1217 1336T1466 1059L1128 899Q1085 980 1008 1031T823 1083Q721 1083 643 1037T523 906T481 711Q481 535 566 432T821 330Q947 330 1029 393T1153 547L1487 375Q1414 201 1251 90T821 -20Q574 -20 403 73T147 331T61 711Q61 929 154 1091T418 1342T819 1430Z" horiz-adv-x="1497" unicode="C"/>
			<glyph d="M113 1409H698Q1070 1409 1266 1238T1462 715Q1462 488 1369 327T1108 83T717 0H113ZM522 1069V340H698Q867 340 954 435T1042 711Q1042 884 955 976T692 1069Z" horiz-adv-x="1524" unicode="D"/>
			<glyph d="M113 1409H1180V1079H522V870H1118V537H522V332H1221V0H113Z" unicode="E"/>
			<glyph d="M113 1409H1165V1069H522V825H1147V481H522V0H113Z" horiz-adv-x="1227" unicode="F"/>
			<glyph d="M797 1430Q1026 1430 1169 1353T1401 1157L1112 915Q1056 992 983 1037T795 1083Q689 1083 614 1037T500 905T461 702Q461 585 502 499T619 368T801 322Q901 322 965 355T1058 434T1087 516V522H821V809H1460V0H1122V135Q1058 60 956 20T737 -20Q516 -20 359 71T121 325T41 700Q41 926 128 1090T386 1342T797 1430Z" horiz-adv-x="1563" unicode="G"/>
			<glyph d="M113 1409H522V903H1001V1409H1411V0H1001V535H522V0H113Z" horiz-adv-x="1524" unicode="H"/>
			<glyph d="M113 1409H522V0H113Z" horiz-adv-x="635" unicode="I"/>
			<glyph d="M707 1409H1116V496Q1116 236 965 108T528 -20Q334 -20 199 57T-16 301L307 494Q336 439 364 403T430 347T522 326Q613 326 660 379T707 537Z" horiz-adv-x="1229" unicode="J"/>
			<glyph d="M113 1409H522V838L987 1409H1468L958 817L1495 0H1032L684 555L522 403V0H113Z" horiz-adv-x="1516" unicode="K"/>
			<glyph d="M113 1409H522V340H1114V0H113Z" horiz-adv-x="1135" unicode="L"/>
			<glyph d="M113 1409H719L877 836Q891 783 909 698T940 547Q952 612 971 696T1006 829L1167 1409H1757V0H1378V694Q1378 883 1386 1030Q1353 893 1282 645L1100 0H766L586 645Q514 893 483 1030Q489 843 489 694V0H113Z" horiz-adv-x="1870" unicode="M"/>
			<glyph d="M113 1409H594L1085 465Q1073 554 1073 817V1409H1450V0H963L481 905Q489 709 489 506V0H113Z" horiz-adv-x="1563" unicode="N"/>
			<glyph d="M799 1430Q1032 1430 1202 1341T1463 1090T1554 711Q1554 493 1460 327T1194 70T797 -20Q559 -20 388 73T129 331T41 711Q41 930 132 1092T394 1342T799 1430ZM799 1081Q700 1081 625 1035T511 905T471 711Q471 598 511 511T625 376T797 328Q902 328 975 376T1086 511T1124 711Q1124 821 1083 905T969 1035T799 1081Z" horiz-adv-x="1595" unicode="O"/>
			<glyph d="M104 1409H823Q1012 1409 1136 1348T1320 1179T1380 922Q1380 788 1322 673T1144 488T842 418H514V0H104ZM514 1077V748H788Q876 748 922 795T969 918Q969 994 921 1035T780 1077Z" horiz-adv-x="1421" unicode="P"/>
			<glyph d="M793 1430Q1021 1430 1188 1341T1445 1090T1534 711Q1534 555 1485 423T1344 199L1487 23L1200 -193L1044 18Q1001 1 933 -9T791 -20Q559 -20 393 73T141 331T55 711Q55 930 143 1092T398 1342T793 1430ZM793 1083Q693 1083 619 1037T505 905T465 705Q465 587 507 502T621 372T778 328Q803 328 815 329L731 444L983 641L1086 514Q1118 593 1118 711Q1118 822 1077 906T963 1037T793 1083Z" horiz-adv-x="1589" unicode="Q"/>
			<glyph d="M113 1409H823Q1105 1409 1243 1288T1382 948Q1382 849 1347 766T1251 626T1112 537L1473 0H989L719 455H522V0H113ZM522 1079V782H770Q869 782 920 822T971 934Q971 1011 919 1045T766 1079Z" horiz-adv-x="1481" unicode="R"/>
			<glyph d="M696 1430Q872 1430 1015 1379T1257 1223L1028 979Q949 1050 867 1086T684 1122Q522 1122 522 1024Q522 987 549 965T626 929T772 895Q932 862 1038 819T1213 685T1282 438Q1282 296 1216 193T1017 35T690 -20Q476 -20 311 45T41 238L287 485Q367 399 462 350T696 301Q792 301 837 324T883 399Q883 440 849 467T756 512T588 555Q450 586 349 631T184 765T119 993Q119 1136 190 1234T391 1381T696 1430Z" horiz-adv-x="1329" unicode="S"/>
			<glyph d="M25 1409H1253V1069H844V0H434V1069H25Z" horiz-adv-x="1278" unicode="T"/>
			<glyph d="M88 1409H498V596Q498 464 560 395T748 326Q876 326 941 398T1006 606V1409H1415V578Q1415 381 1333 247T1098 47T735 -20Q424 -20 256 126T88 567Z" horiz-adv-x="1503" unicode="U"/>
			<glyph d="M4 1409H444L655 668Q685 561 702 492T731 354Q761 490 811 666L1020 1409H1456L987 0H461Z" horiz-adv-x="1460" unicode="V"/>
			<glyph d="M4 1409H424L551 756Q588 570 608 399Q627 529 668 756L786 1409H1276L1391 756Q1427 532 1440 399Q1450 485 1461 562T1495 756L1620 1409H2028L1696 0H1192L1069 674Q1039 842 1024 971Q1014 862 977 674L842 0H330Z" horiz-adv-x="2032" unicode="W"/>
			<glyph d="M51 1409H526L737 1021L938 1409H1409L1007 740L1440 0H969L726 452L496 0H20L479 742Z" horiz-adv-x="1460" unicode="X"/>
			<glyph d="M10 1409H455L709 860L971 1409H1413L915 496V0H506V496Z" horiz-adv-x="1423" unicode="Y"/>
			<glyph d="M106 1409H1225V1100L559 344H1276V0H45V313L705 1065H106Z" horiz-adv-x="1321" unicode="Z"/>
			<glyph d="M70 1501H719V1212H438V-133H719V-426H70Z" horiz-adv-x="739" unicode="["/>
			<glyph d="M-10 1499H371L989 -63H602Z" horiz-adv-x="979" unicode="\"/>
			<glyph d="M20 1501H670V-426H20V-133H305V1212H20Z" horiz-adv-x="739" unicode="]"/>
			<glyph d="M406 1409H856L1221 526H909L629 1223L352 526H43Z" unicode="^"/>
			<glyph d="M-25 -115H1223V-406H-25Z" horiz-adv-x="1200" unicode="_"/>
			<glyph d="M123 1542H461L707 1247V1206H467L123 1485Z" horiz-adv-x="819" unicode="`"/>
			<glyph d="M612 1133Q850 1133 975 1026T1100 680V430Q1100 171 1110 0H733Q725 82 725 147H719Q670 70 593 25T395 -20Q291 -20 213 25T94 149T53 330Q53 502 161 590T479 684L698 690V717Q698 838 545 838Q469 838 407 805T283 721L119 958Q211 1033 330 1083T612 1133ZM580 475Q506 475 469 446T432 365Q432 313 461 284T543 256Q588 256 623 285T678 363T698 471V475Z" horiz-adv-x="1190" unicode="a"/>
			<glyph d="M139 1501H528V1116Q528 1029 524 969H528Q574 1045 655 1091T856 1137Q993 1137 1087 1070T1228 879T1276 580Q1276 383 1221 248T1067 47T838 -20Q720 -20 649 20T528 131H526Q522 49 514 0H131Q139 144 139 268ZM702 829Q620 829 572 763T524 553Q524 422 569 353T696 285Q769 285 817 350T866 567Q866 702 819 765T702 829Z" horiz-adv-x="1337" unicode="b"/>
			<glyph d="M639 1137Q813 1137 938 1068T1118 885L846 711Q812 768 771 799T666 831Q575 831 523 764T471 569Q471 434 523 364T664 295Q718 295 758 310T827 349T889 410L1118 203Q1043 103 920 41T637 -20Q455 -20 325 51T128 252T61 553Q61 739 133 870T336 1069T639 1137Z" horiz-adv-x="1118" unicode="c"/>
			<glyph d="M809 1501H1198V268Q1198 144 1206 0H823Q813 75 813 147H809Q764 72 682 26T481 -20Q353 -20 258 47T112 239T61 537Q61 733 117 868T273 1070T500 1137Q615 1137 686 1097T807 989H811Q809 1030 809 1116ZM641 831Q568 831 519 765T471 549Q471 414 517 350T635 287Q717 287 765 353T813 563Q813 694 768 762T641 831Z" horiz-adv-x="1331" unicode="d"/>
			<glyph d="M631 1137Q899 1137 1022 985T1145 584Q1145 530 1139 459H473Q478 361 530 311T692 262Q759 262 816 284T965 365L1112 115Q1013 51 910 15T655 -20Q374 -20 217 120T61 549Q61 747 134 878T336 1073T631 1137ZM627 866Q560 866 520 823T473 696H770Q764 866 627 866Z" horiz-adv-x="1190" unicode="e"/>
			<glyph d="M584 1518Q702 1518 819 1495L791 1233Q739 1251 684 1251Q622 1251 595 1226T569 1143V1116H795V834H569V0H180V834H41V1116H180V1184Q180 1340 277 1429T584 1518Z" horiz-adv-x="799" unicode="f"/>
			<glyph d="M1192 1225H1200L1214 952H1206Q1102 952 1054 917Q1085 845 1085 758Q1085 650 1035 566T877 432T596 383Q508 383 432 397Q422 377 422 362Q422 336 441 323T504 306T649 295Q843 283 958 254T1136 155T1200 -49Q1200 -240 1057 -343T586 -446Q41 -446 41 -154Q41 -81 78 -27T204 77Q117 139 117 266Q117 325 147 378T236 477Q170 525 137 597T104 760Q104 928 221 1032T594 1137Q774 1137 891 1080Q949 1152 1020 1188T1192 1225ZM596 893Q532 893 497 857T463 760Q463 699 497 663T594 627Q656 627 691 663T727 762Q727 823 692 858T596 893ZM394 11Q371 -26 371 -72Q371 -131 423 -162T608 -193Q730 -193 777 -168T825 -96Q825 -69 809 -52T753 -24T641 -10Q471 -1 394 11Z" horiz-adv-x="1204" unicode="g"/>
			<glyph d="M131 1501H520V1108Q520 1010 514 948H518Q573 1043 659 1090T872 1137Q1064 1137 1150 1026T1237 719V0H848V608Q848 706 814 757T700 809Q612 809 566 750T520 582V0H131Z" horiz-adv-x="1350" unicode="h"/>
			<glyph d="M322 1591Q380 1591 427 1565T501 1493T528 1389Q528 1332 501 1287T427 1217T322 1192Q262 1192 214 1216T140 1286T113 1389Q113 1447 140 1493T214 1565T322 1591ZM129 1116H518V0H129Z" horiz-adv-x="643" unicode="i"/>
			<glyph d="M322 1591Q380 1591 427 1565T501 1493T528 1389Q528 1332 501 1287T427 1217T322 1192Q262 1192 214 1216T140 1286T113 1389Q113 1447 140 1493T214 1565T322 1591ZM125 1116H514V-57Q514 -184 465 -271T330 -402T127 -446Q17 -446 -78 -424L-53 -131Q-26 -141 12 -141Q69 -141 97 -108T125 -4Z" horiz-adv-x="643" unicode="j"/>
			<glyph d="M125 1501H514V713L809 1116H1260L881 670L1284 0H831L604 426L514 340V0H125Z" horiz-adv-x="1280" unicode="k"/>
			<glyph d="M115 1501H504V385Q504 340 520 317T582 295Q601 295 635 301L647 4Q555 -14 455 -14Q279 -14 197 69T115 315Z" horiz-adv-x="690" unicode="l"/>
			<glyph d="M856 1137Q978 1137 1051 1086T1157 936H1163Q1211 1034 1293 1085T1499 1137Q1669 1137 1754 1029T1839 733V0H1450V623Q1450 716 1419 762T1323 809Q1255 809 1217 761T1180 618V0H791V623Q791 719 764 764T670 809Q520 809 520 596V0H131V866Q131 935 127 1004T119 1116H496Q502 1082 506 1029T512 934H516Q567 1033 646 1085T856 1137Z" horiz-adv-x="1952" unicode="m"/>
			<glyph d="M872 1137Q1062 1137 1149 1025T1237 719V0H848V608Q848 706 814 757T700 809Q612 809 566 750T520 582V0H131V866Q131 936 127 1004T119 1116H494Q500 1084 506 1023T512 934H516Q574 1039 661 1088T872 1137Z" horiz-adv-x="1350" unicode="n"/>
			<glyph d="M655 1137Q863 1137 995 1058T1188 850T1249 561Q1249 402 1182 270T981 59T649 -20Q460 -20 327 58T128 268T61 561Q61 717 126 848T324 1058T655 1137ZM659 831Q563 831 517 760T471 561Q471 433 516 359T647 285Q745 285 792 357T840 561Q840 689 795 760T659 831Z" horiz-adv-x="1311" unicode="o"/>
			<glyph d="M846 1137Q979 1137 1072 1070T1213 876T1262 565Q1262 380 1209 248T1057 48T819 -20Q713 -20 632 24T514 129H508Q510 105 512 63T514 -18V-426H125V848Q125 972 113 1116H494Q499 1096 504 1050T510 975H514Q563 1045 645 1091T846 1137ZM690 831Q615 831 562 770T510 557Q510 404 559 344T688 285Q757 285 804 350T852 565Q852 660 829 719T769 805T690 831Z" horiz-adv-x="1323" unicode="p"/>
			<glyph d="M500 1137Q613 1137 683 1095T805 985H809Q812 1049 823 1116H1210Q1202 972 1202 848V-426H809V0Q809 98 813 147H809Q764 72 682 26T481 -20Q346 -20 251 46T109 238T61 537Q61 733 117 868T272 1070T500 1137ZM641 831Q568 831 519 765T471 549Q471 414 517 350T635 287Q717 287 765 353T813 563Q813 694 768 762T641 831Z" horiz-adv-x="1319" unicode="q"/>
			<glyph d="M784 1137Q839 1137 887 1118L870 764Q839 772 811 777T748 782Q643 782 581 720T520 518V0H133V860Q133 927 129 1000T121 1116H487Q493 1086 498 1033T504 950H508Q552 1040 616 1088T784 1137Z" horiz-adv-x="897" unicode="r"/>
			<glyph d="M545 1137Q816 1137 999 981L825 766Q695 864 567 864Q513 864 484 847T455 801Q455 778 472 764T522 740T621 717Q746 689 829 652T963 547T1014 365Q1014 244 956 157T787 25T520 -20Q370 -20 245 21T31 137L186 391Q269 330 344 296T516 262Q635 262 635 319Q635 345 612 361T551 389T428 420Q265 458 170 535T76 766Q76 877 130 961T289 1091T545 1137Z" horiz-adv-x="1044" unicode="s"/>
			<glyph d="M537 1399V1116H733V834H537V428Q537 362 557 331T623 301Q674 301 719 311L745 20Q671 0 605 -10T469 -20Q316 -20 231 63T147 311V834H12V1116H168L186 1372Z" horiz-adv-x="766" unicode="t"/>
			<glyph d="M113 1116H502V508Q502 410 536 358T649 307Q738 307 783 366T829 535V1116H1219V250Q1219 181 1222 112T1231 0H856Q850 32 844 92T838 182H834Q776 75 689 25T477 -25Q289 -25 201 88T113 397Z" horiz-adv-x="1350" unicode="u"/>
			<glyph d="M-8 1116H408L541 598Q582 433 600 334Q608 385 622 443T662 594L801 1116H1214L834 0H356Z" horiz-adv-x="1206" unicode="v"/>
			<glyph d="M16 1116H408L498 635Q518 527 541 362Q554 490 584 633L682 1116H1114L1206 633Q1231 507 1249 362Q1264 473 1296 633L1393 1116H1749L1485 0H1028L928 508Q907 608 889 725Q880 647 852 508L750 0H289Z" horiz-adv-x="1765" unicode="w"/>
			<glyph d="M18 1116H455L616 803L776 1116H1212L874 563L1235 0H797L616 330L430 0H0L356 561Z" horiz-adv-x="1235" unicode="x"/>
			<glyph d="M10 1116H430L578 602Q609 488 625 397Q644 497 672 602L813 1116H1212L838 -25Q793 -162 733 -253T581 -395T356 -446Q214 -446 129 -416L178 -111Q197 -119 227 -125T291 -131Q335 -131 364 -112T403 -47L414 0Z" horiz-adv-x="1223" unicode="y"/>
			<glyph d="M96 1116H1010V848L572 317H1038V0H72V266L519 803H96Z" horiz-adv-x="1106" unicode="z"/>
			<glyph d="M590 1501H829V1214H797Q707 1214 665 1163T623 1010V793Q623 726 591 672T506 585T395 541V537Q455 522 507 487T591 401T623 285V68Q623 -37 664 -86T797 -135H829V-426H590Q492 -426 417 -388T301 -281T260 -121V180Q260 387 10 387V686Q128 688 194 736T260 893V1196Q260 1346 349 1423T590 1501Z" horiz-adv-x="879" unicode="{"/>
			<glyph d="M141 1501H508V-426H141Z" horiz-adv-x="651" unicode="|"/>
			<glyph d="M51 1501H289Q442 1501 530 1423T618 1196V893Q618 690 870 686V387Q618 387 618 180V-121Q618 -212 577 -281T461 -388T289 -426H51V-135H82Q175 -135 216 -86T258 68V285Q258 351 289 403T371 489T483 537V543Q426 553 374 587T290 674T258 793V1010Q258 1114 217 1164T84 1214H51Z" horiz-adv-x="881" unicode="}"/>
			<glyph d="M373 874Q451 874 529 855T711 801Q832 758 915 758Q985 758 1053 783T1176 850V555Q1112 511 1047 493T897 475Q820 475 751 491T586 541Q513 566 458 578T356 590Q278 590 217 568T88 502V791Q142 830 215 852T373 874Z" unicode="~"/>
			<glyph d="" horiz-adv-x="512" unicode=" "/>
			<glyph d="M207 635H526L567 -293H166ZM371 1128Q472 1128 530 1074T588 928Q588 835 530 780T371 725Q274 725 216 780T158 928Q158 987 184 1032T259 1102T371 1128Z" horiz-adv-x="725" unicode="¡"/>
			<glyph d="M492 1409H705V1232Q860 1220 971 1157T1135 998L849 834Q813 888 770 917T660 947Q564 947 510 884T456 701Q456 574 511 508T658 443Q715 443 757 457T829 494T894 551L1135 357Q1066 274 956 218T705 150V-31H492V157Q343 180 238 251T79 434T25 686Q25 837 82 950T245 1133T492 1224Z" horiz-adv-x="1178" unicode="¢"/>
			<glyph d="M659 1430Q809 1430 913 1379T1081 1245L846 1038Q804 1092 763 1116T672 1141Q607 1141 582 1101T557 971V827H829V573H557V557Q557 486 539 436T495 353T426 281H666Q841 281 868 428L1188 375Q1168 272 1112 187T967 51T764 0H49V274Q101 308 135 341T191 427T213 553V573H27V827H197V1004Q197 1202 306 1316T659 1430Z" horiz-adv-x="1178" unicode="£"/>
			<glyph d="M893 1204L1112 987L987 868Q1024 784 1024 682Q1024 592 991 502L1112 383L893 164L776 285Q733 267 684 257T588 248Q493 248 399 281L279 158L66 375L186 498Q150 591 150 682Q150 779 188 872L76 987L289 1202L401 1087Q495 1120 588 1120Q694 1120 774 1085ZM588 809Q532 809 498 776T465 686Q465 631 499 597T588 563Q642 563 675 597T709 686Q709 742 675 775T588 809Z" horiz-adv-x="1178" unicode="¤"/>
			<glyph d="M0 1409H393L588 874L786 1409H1178L848 686H1069V477H776V377H1069V164H776V0H399V164H109V377H399V477H109V686H330Z" horiz-adv-x="1178" unicode="¥"/>
			<glyph d="M141 1501H508V723H141ZM141 352H508V-426H141Z" horiz-adv-x="651" unicode="¦"/>
			<glyph d="M643 1501Q760 1501 867 1467T1094 1341L920 1124Q819 1191 752 1218T614 1245Q553 1245 521 1227T489 1176Q489 1134 536 1107T674 1055Q837 1008 922 973T1061 880T1114 725Q1114 632 1067 564T942 459Q1018 417 1054 360T1090 207Q1090 40 979 -58T616 -156Q471 -156 339 -118T82 6L240 258Q357 179 447 142T627 106Q683 106 722 122T762 180Q762 214 732 238T652 283T502 336Q396 371 319 407T184 507T127 666Q127 752 179 808T326 903Q252 943 206 1010T160 1169Q160 1272 219 1347T388 1461T643 1501ZM584 807Q461 790 461 711Q461 663 506 634T655 573Q718 579 753 601T788 676Q788 713 767 735T705 772T584 807Z" horiz-adv-x="1217" unicode="§"/>
			<glyph d="M195 1552Q271 1552 319 1504T367 1378Q367 1327 345 1287T284 1226T195 1204Q112 1204 64 1250T16 1378Q16 1457 64 1504T195 1552ZM627 1552Q704 1552 753 1503T803 1376Q803 1299 753 1251T627 1204Q547 1204 500 1250T453 1376Q453 1456 500 1504T627 1552Z" horiz-adv-x="819" unicode="¨"/>
			<glyph d="M741 1430Q948 1430 1113 1337T1371 1079T1464 707Q1464 500 1371 335T1113 77T741 -16Q535 -16 370 77T111 335T18 707Q18 914 111 1079T369 1337T741 1430ZM741 1303Q571 1303 438 1227T230 1015T156 707Q156 533 230 397T438 185T741 109Q912 109 1046 185T1256 397T1331 707Q1331 880 1256 1015T1046 1227T741 1303ZM752 1116Q875 1116 951 1069T1081 934L895 840Q879 874 842 899T750 924Q669 924 624 866T580 709Q580 609 626 547T752 485Q808 485 844 513T911 588L1096 487Q1046 398 965 345T754 293Q625 293 533 345T392 491T344 709Q344 832 392 923T532 1065T752 1116Z" horiz-adv-x="1479" unicode="©"/>
			<glyph d="M395 1417Q554 1417 637 1349T721 1126V971Q721 831 727 696H477Q473 746 473 793H469Q396 684 256 684Q148 684 89 743T31 907Q31 1135 332 1135H455V1153Q455 1188 430 1203T360 1219Q262 1219 178 1161L74 1319Q198 1417 395 1417ZM385 1001Q331 1001 307 984T283 936Q283 907 302 892T354 877Q402 877 430 910T459 991V1001Z" horiz-adv-x="778" unicode="ª"/>
			<glyph d="M336 940H657V901L408 537L659 180V141H336L80 506V567ZM879 940H1200V901L950 537L1202 180V141H879L623 506V567Z" unicode="«"/>
			<glyph d="M90 836H1174V98H864V526H90Z" unicode="¬"/>
			<glyph d="M82 723H666V387H82Z" horiz-adv-x="748" unicode="­"/>
			<glyph d="M741 1430Q948 1430 1113 1337T1371 1079T1464 707Q1464 500 1371 335T1113 77T741 -16Q535 -16 370 77T111 335T18 707Q18 914 111 1079T369 1337T741 1430ZM741 1305Q571 1305 438 1229T230 1017T156 707Q156 532 230 395T438 182T741 106Q912 106 1046 182T1256 395T1331 707Q1331 881 1256 1017T1046 1229T741 1305ZM416 1104H770Q930 1104 1008 1039T1087 856Q1087 773 1046 716T932 627L1135 305H872L717 596H649V305H416ZM649 932V772H750Q800 772 826 794T852 854Q852 891 823 911T743 932Z" horiz-adv-x="1479" unicode="®"/>
			<glyph d="M-20 1595H1198V1489H-20Z" horiz-adv-x="1178" unicode="¯"/>
			<glyph d="M422 1421Q520 1421 602 1377T732 1253T780 1071Q780 969 732 890T602 767T422 723Q325 723 244 766T115 889T68 1071Q68 1173 115 1253T244 1377T422 1421ZM422 1223Q357 1223 314 1182T272 1071Q272 1026 292 991T346 937T422 918Q487 918 528 960T569 1071Q569 1143 528 1183T422 1223Z" horiz-adv-x="846" unicode="°"/>
			<glyph d="M477 1337H786V1044H1174V737H786V444H477V737H90V1044H477ZM90 307H1174V0H90Z" unicode="±"/>
			<glyph d="M373 1626Q470 1626 539 1593T643 1504T678 1384Q678 1321 659 1271T600 1175T489 1063L407 987H721V768H61V961L311 1194Q372 1252 393 1283T414 1346Q414 1372 396 1388T348 1405Q316 1405 290 1385T225 1323L61 1475Q98 1518 133 1548T228 1602T373 1626Z" horiz-adv-x="778" unicode="²"/>
			<glyph d="M399 1626Q484 1626 554 1598T667 1518T709 1393Q709 1336 681 1285T594 1202V1200Q658 1172 694 1124T731 1008Q731 940 694 883T580 791T389 756Q223 756 140 822T18 993L213 1079Q244 1020 284 990T383 961Q432 961 452 984T473 1038Q473 1108 373 1108H276V1290H367Q455 1290 455 1354Q455 1383 432 1401T373 1419Q323 1419 283 1393T205 1317L41 1417Q82 1519 179 1572T399 1626Z" horiz-adv-x="778" unicode="³"/>
			<glyph d="M354 1542H690V1485L352 1206H104V1247Z" horiz-adv-x="819" unicode="´"/>
			<glyph d="M123 1116H512V520Q512 408 545 355T659 303Q838 303 838 510V1116H1227V344Q1227 301 1242 287T1288 274Q1303 274 1317 281L1341 10Q1233 -20 1128 -20Q1006 -20 940 14T846 129H842Q813 64 761 22T639 -20Q564 -20 514 33H510Q514 -10 514 -72V-426H123Z" horiz-adv-x="1358" unicode="µ"/>
			<glyph d="M438 1409H1139V1221H1008V-264H803V1221H635V-264H430V694Q263 694 165 782T68 1042Q68 1154 112 1236T239 1364T438 1409Z" horiz-adv-x="1192" unicode="¶"/>
			<glyph d="M328 987Q425 987 483 928T541 770Q541 706 514 657T440 580T328 553Q227 553 169 611T111 770Q111 870 169 928T328 987Z" horiz-adv-x="651" unicode="·"/>
			<glyph d="M313 0H496L468 -67Q645 -94 645 -223Q645 -313 575 -369T326 -426Q263 -426 201 -420V-274Q222 -277 252 -279T301 -281Q361 -281 384 -266T408 -225Q408 -193 383 -178T295 -164H254Z" horiz-adv-x="819" unicode="¸"/>
			<glyph d="M336 1614H575V985H752V768H111V985H324V1362L129 1219V1477Z" horiz-adv-x="778" unicode="¹"/>
			<glyph d="M399 1423Q524 1423 605 1375T725 1245T764 1055Q764 948 722 865T596 734T393 686Q278 686 196 733T74 864T33 1055Q33 1162 72 1245T194 1375T399 1423ZM401 1212Q358 1212 332 1173T307 1057Q307 981 330 941T391 901Q437 901 463 941T489 1057Q489 1212 401 1212Z" horiz-adv-x="797" unicode="º"/>
			<glyph d="M607 940H930L1186 575V514L930 141H609V180L858 544L607 901ZM64 940H387L643 575V514L387 141H66V180L316 544L64 901Z" unicode="»"/>
			<glyph d="M336 1409H575V780H752V563H111V780H324V1157L129 1014V1272ZM1378 1409H1644L731 0H465ZM1500 846H1777V326H1904V125H1777V0H1545V125H1166V334ZM1549 569Q1539 549 1533 539L1422 360L1398 326H1545V451Q1545 487 1549 569Z" horiz-adv-x="1924" unicode="¼"/>
			<glyph d="M336 1409H575V780H752V563H111V780H324V1157L129 1014V1272ZM1378 1409H1644L731 0H465ZM1628 858Q1725 858 1794 825T1898 736T1933 616Q1933 553 1914 503T1855 407T1744 295L1662 219H1976V0H1316V193L1566 426Q1627 484 1648 515T1669 578Q1669 604 1651 620T1603 637Q1571 637 1545 617T1480 555L1316 707Q1353 750 1388 780T1483 834T1628 858Z" horiz-adv-x="2033" unicode="½"/>
			<glyph d="M399 1421Q484 1421 554 1393T667 1313T709 1188Q709 1131 681 1080T594 997V995Q658 967 694 919T731 803Q731 735 694 678T580 586T389 551Q223 551 140 617T18 788L213 874Q244 815 284 785T383 756Q432 756 452 779T473 833Q473 903 373 903H276V1085H367Q455 1085 455 1149Q455 1178 432 1196T373 1214Q323 1214 283 1188T205 1112L41 1212Q82 1314 179 1367T399 1421ZM1294 1409H1560L647 0H381ZM1416 846H1693V326H1820V125H1693V0H1461V125H1082V334ZM1465 569Q1455 549 1449 539L1338 360L1314 326H1461V451Q1461 487 1465 569Z" horiz-adv-x="1840" unicode="¾"/>
			<glyph d="M512 637H852Q852 537 813 466T676 323Q616 279 585 250T537 191T521 121Q521 58 562 19T684 -19Q853 -19 951 170L1203 -4Q1126 -146 999 -230T664 -314Q502 -314 383 -264T202 -121T140 98Q140 215 193 298T334 440Q401 485 437 514T493 573T512 637ZM668 1128Q767 1128 825 1074T883 928Q883 835 825 780T668 725Q570 725 511 780T453 928Q453 987 479 1032T554 1102T668 1128Z" horiz-adv-x="1315" unicode="¿"/>
			<glyph d="M526 1409H1030L1518 0H1100L1018 270H531L449 0H37ZM774 1090Q763 1039 729 922L625 578H925L821 922Q786 1033 774 1090ZM421 1833H757L1003 1542V1501H774L421 1776Z" horiz-adv-x="1548" unicode="À"/>
			<glyph d="M526 1409H1030L1518 0H1100L1018 270H531L449 0H37ZM774 1090Q763 1039 729 922L625 578H925L821 922Q786 1033 774 1090ZM796 1833H1132V1776L776 1501H546V1542Z" horiz-adv-x="1548" unicode="Á"/>
			<glyph d="M526 1409H1030L1518 0H1100L1018 270H531L449 0H37ZM774 1090Q763 1039 729 922L625 578H925L821 922Q786 1033 774 1090ZM620 1833H921L1183 1540V1501H954L774 1653H767L593 1501H364V1540Z" horiz-adv-x="1548" unicode="Â"/>
			<glyph d="M526 1409H1030L1518 0H1100L1018 270H531L449 0H37ZM774 1090Q763 1039 729 922L625 578H925L821 922Q786 1033 774 1090ZM595 1845Q643 1845 690 1827T808 1776Q857 1752 885 1740T935 1729Q978 1729 995 1755T1023 1845H1198Q1198 1760 1182 1687T1112 1558T950 1503Q905 1503 857 1521T744 1572Q691 1598 663 1609T612 1620Q580 1620 563 1607T538 1572T522 1503H346Q349 1592 364 1663T434 1789T595 1845Z" horiz-adv-x="1548" unicode="Ã"/>
			<glyph d="M526 1409H1030L1518 0H1100L1018 270H531L449 0H37ZM774 1090Q763 1039 729 922L625 578H925L821 922Q786 1033 774 1090ZM538 1853Q589 1853 630 1831T694 1769T718 1677Q718 1626 694 1585T630 1522T538 1499Q457 1499 407 1548T358 1677Q358 1757 407 1805T538 1853ZM997 1853Q1048 1853 1089 1831T1153 1769T1177 1677Q1177 1626 1153 1585T1089 1522T997 1499Q916 1499 866 1548T817 1677Q817 1757 866 1805T997 1853Z" horiz-adv-x="1548" unicode="Ä"/>
			<glyph d="M783 1795Q859 1795 921 1761T1020 1666T1057 1525Q1057 1458 1032 1403L1518 0H1100L1018 270H531L449 0H37L524 1404Q498 1458 498 1525Q498 1605 536 1666T640 1761T783 1795ZM783 1621Q740 1621 712 1593T684 1525Q684 1483 711 1457T783 1431Q826 1431 851 1456T877 1525Q877 1567 851 1594T783 1621ZM774 1090Q763 1039 729 922L625 578H925L821 922Q786 1033 774 1090Z" horiz-adv-x="1548" unicode="Å"/>
			<glyph d="M729 1409H2083V1069H1399V870H2021V526H1399V340H2124V0H989V283H561L424 0H4ZM944 1083Q918 1016 852 881L711 590H989V1083Z" horiz-adv-x="2169" unicode="Æ"/>
			<glyph d="M819 1430Q1060 1430 1217 1336T1466 1059L1128 899Q1085 980 1008 1031T823 1083Q721 1083 643 1037T523 906T481 711Q481 535 566 432T821 330Q947 330 1029 393T1153 547L1487 375Q1414 201 1251 90T821 -20Q574 -20 403 73T147 331T61 711Q61 929 154 1091T418 1342T819 1430ZM747 0H930L902 -67Q1079 -94 1079 -223Q1079 -313 1009 -369T760 -426Q697 -426 635 -420V-274Q656 -277 686 -279T735 -281Q795 -281 818 -266T842 -225Q842 -193 817 -178T729 -164H688Z" horiz-adv-x="1497" unicode="Ç"/>
			<glyph d="M113 1409H1180V1079H522V870H1118V537H522V332H1221V0H113ZM319 1833H655L901 1542V1501H672L319 1776Z" unicode="È"/>
			<glyph d="M113 1409H1180V1079H522V870H1118V537H522V332H1221V0H113ZM694 1833H1030V1776L674 1501H444V1542Z" unicode="É"/>
			<glyph d="M113 1409H1180V1079H522V870H1118V537H522V332H1221V0H113ZM518 1833H819L1081 1540V1501H852L672 1653H665L491 1501H262V1540Z" unicode="Ê"/>
			<glyph d="M113 1409H1180V1079H522V870H1118V537H522V332H1221V0H113ZM436 1853Q487 1853 528 1831T592 1769T616 1677Q616 1626 592 1585T528 1522T436 1499Q355 1499 305 1548T256 1677Q256 1757 305 1805T436 1853ZM895 1853Q946 1853 987 1831T1051 1769T1075 1677Q1075 1626 1051 1585T987 1522T895 1499Q814 1499 764 1548T715 1677Q715 1757 764 1805T895 1853Z" unicode="Ë"/>
			<glyph d="M113 1409H522V0H113ZM-36 1833H300L546 1542V1501H317L-36 1776Z" horiz-adv-x="635" unicode="Ì"/>
			<glyph d="M113 1409H522V0H113ZM339 1833H675V1776L319 1501H89V1542Z" horiz-adv-x="635" unicode="Í"/>
			<glyph d="M113 1409H522V0H113ZM163 1833H464L726 1540V1501H497L317 1653H310L136 1501H-93V1540Z" horiz-adv-x="635" unicode="Î"/>
			<glyph d="M113 1409H522V0H113ZM81 1853Q132 1853 173 1831T237 1769T261 1677Q261 1626 237 1585T173 1522T81 1499Q0 1499 -49 1548T-99 1677Q-99 1757 -49 1805T81 1853ZM540 1853Q591 1853 632 1831T696 1769T720 1677Q720 1626 696 1585T632 1522T540 1499Q459 1499 409 1548T360 1677Q360 1757 409 1805T540 1853Z" horiz-adv-x="635" unicode="Ï"/>
			<glyph d="M127 1409H712Q1084 1409 1280 1238T1476 715Q1476 488 1383 327T1122 83T731 0H127V559H20V856H127ZM536 1069V856H854V559H536V340H712Q881 340 968 435T1056 711Q1056 884 969 976T706 1069ZZ" horiz-adv-x="1538" unicode="Ð"/>
			<glyph d="M113 1409H594L1085 465Q1073 554 1073 817V1409H1450V0H963L481 905Q489 709 489 506V0H113ZM603 1845Q651 1845 698 1827T816 1776Q865 1752 893 1740T943 1729Q986 1729 1003 1755T1031 1845H1206Q1206 1760 1190 1687T1120 1558T958 1503Q913 1503 865 1521T752 1572Q699 1598 671 1609T620 1620Q588 1620 571 1607T546 1572T530 1503H354Q357 1592 372 1663T442 1789T603 1845Z" horiz-adv-x="1563" unicode="Ñ"/>
			<glyph d="M799 1430Q1032 1430 1202 1341T1463 1090T1554 711Q1554 493 1460 327T1194 70T797 -20Q559 -20 388 73T129 331T41 711Q41 930 132 1092T394 1342T799 1430ZM799 1081Q700 1081 625 1035T511 905T471 711Q471 598 511 511T625 376T797 328Q902 328 975 376T1086 511T1124 711Q1124 821 1083 905T969 1035T799 1081ZM458 1833H794L1040 1542V1501H811L458 1776Z" horiz-adv-x="1595" unicode="Ò"/>
			<glyph d="M799 1430Q1032 1430 1202 1341T1463 1090T1554 711Q1554 493 1460 327T1194 70T797 -20Q559 -20 388 73T129 331T41 711Q41 930 132 1092T394 1342T799 1430ZM799 1081Q700 1081 625 1035T511 905T471 711Q471 598 511 511T625 376T797 328Q902 328 975 376T1086 511T1124 711Q1124 821 1083 905T969 1035T799 1081ZM833 1833H1169V1776L813 1501H583V1542Z" horiz-adv-x="1595" unicode="Ó"/>
			<glyph d="M799 1430Q1032 1430 1202 1341T1463 1090T1554 711Q1554 493 1460 327T1194 70T797 -20Q559 -20 388 73T129 331T41 711Q41 930 132 1092T394 1342T799 1430ZM799 1081Q700 1081 625 1035T511 905T471 711Q471 598 511 511T625 376T797 328Q902 328 975 376T1086 511T1124 711Q1124 821 1083 905T969 1035T799 1081ZM657 1833H958L1220 1540V1501H991L811 1653H804L630 1501H401V1540Z" horiz-adv-x="1595" unicode="Ô"/>
			<glyph d="M799 1430Q1032 1430 1202 1341T1463 1090T1554 711Q1554 493 1460 327T1194 70T797 -20Q559 -20 388 73T129 331T41 711Q41 930 132 1092T394 1342T799 1430ZM799 1081Q700 1081 625 1035T511 905T471 711Q471 598 511 511T625 376T797 328Q902 328 975 376T1086 511T1124 711Q1124 821 1083 905T969 1035T799 1081ZM632 1845Q680 1845 727 1827T845 1776Q894 1752 922 1740T972 1729Q1015 1729 1032 1755T1060 1845H1235Q1235 1760 1219 1687T1149 1558T987 1503Q942 1503 894 1521T781 1572Q728 1598 700 1609T649 1620Q617 1620 600 1607T575 1572T559 1503H383Q386 1592 401 1663T471 1789T632 1845Z" horiz-adv-x="1595" unicode="Õ"/>
			<glyph d="M799 1430Q1032 1430 1202 1341T1463 1090T1554 711Q1554 493 1460 327T1194 70T797 -20Q559 -20 388 73T129 331T41 711Q41 930 132 1092T394 1342T799 1430ZM799 1081Q700 1081 625 1035T511 905T471 711Q471 598 511 511T625 376T797 328Q902 328 975 376T1086 511T1124 711Q1124 821 1083 905T969 1035T799 1081ZM575 1853Q626 1853 667 1831T731 1769T755 1677Q755 1626 731 1585T667 1522T575 1499Q494 1499 444 1548T395 1677Q395 1757 444 1805T575 1853ZM1034 1853Q1085 1853 1126 1831T1190 1769T1214 1677Q1214 1626 1190 1585T1126 1522T1034 1499Q953 1499 903 1548T854 1677Q854 1757 903 1805T1034 1853Z" horiz-adv-x="1595" unicode="Ö"/>
			<glyph d="M954 1196L1149 1001L827 680L1145 365L950 172L633 487L313 166L117 358L436 680L125 995L319 1192L633 879Z" unicode="×"/>
			<glyph d="M1159 1481H1403L1284 1292Q1415 1198 1484 1049T1554 711Q1554 493 1460 327T1194 70T797 -20Q628 -20 490 29L418 -86H174L307 125Q177 222 109 373T41 711Q41 930 132 1092T394 1342T799 1430Q961 1430 1099 1385ZM799 1081Q700 1081 625 1035T511 905T471 711Q471 574 528 478L899 1067Q851 1081 799 1081ZM1064 941L689 345Q740 328 797 328Q902 328 975 376T1086 511T1124 711Q1124 847 1064 941Z" horiz-adv-x="1595" unicode="Ø"/>
			<glyph d="M88 1409H498V596Q498 464 560 395T748 326Q876 326 941 398T1006 606V1409H1415V578Q1415 381 1333 247T1098 47T735 -20Q424 -20 256 126T88 567ZM399 1833H735L981 1542V1501H752L399 1776Z" horiz-adv-x="1503" unicode="Ù"/>
			<glyph d="M88 1409H498V596Q498 464 560 395T748 326Q876 326 941 398T1006 606V1409H1415V578Q1415 381 1333 247T1098 47T735 -20Q424 -20 256 126T88 567ZM774 1833H1110V1776L754 1501H524V1542Z" horiz-adv-x="1503" unicode="Ú"/>
			<glyph d="M88 1409H498V596Q498 464 560 395T748 326Q876 326 941 398T1006 606V1409H1415V578Q1415 381 1333 247T1098 47T735 -20Q424 -20 256 126T88 567ZM598 1833H899L1161 1540V1501H932L752 1653H745L571 1501H342V1540Z" horiz-adv-x="1503" unicode="Û"/>
			<glyph d="M88 1409H498V596Q498 464 560 395T748 326Q876 326 941 398T1006 606V1409H1415V578Q1415 381 1333 247T1098 47T735 -20Q424 -20 256 126T88 567ZM516 1853Q567 1853 608 1831T672 1769T696 1677Q696 1626 672 1585T608 1522T516 1499Q435 1499 385 1548T336 1677Q336 1757 385 1805T516 1853ZM975 1853Q1026 1853 1067 1831T1131 1769T1155 1677Q1155 1626 1131 1585T1067 1522T975 1499Q894 1499 844 1548T795 1677Q795 1757 844 1805T975 1853Z" horiz-adv-x="1503" unicode="Ü"/>
			<glyph d="M10 1409H455L709 860L971 1409H1413L915 496V0H506V496ZM733 1833H1069V1776L713 1501H483V1542Z" horiz-adv-x="1423" unicode="Ý"/>
			<glyph d="M104 1409H514V1227H823Q1105 1227 1242 1098T1380 741Q1380 600 1322 486T1142 304T836 236H514V0H104ZM514 893V571H788Q878 571 923 615T969 735Q969 810 921 851T780 893Z" horiz-adv-x="1421" unicode="Þ"/>
			<glyph d="M672 1518Q843 1518 958 1468T1128 1339T1184 1165Q1184 1087 1149 1019T1061 911Q1009 872 989 849T969 793Q969 769 981 749T1017 709T1092 651Q1175 590 1221 517T1268 338Q1268 240 1224 158T1085 26T846 -23Q764 -23 693 -8T573 29L645 301Q724 252 799 252Q846 252 870 272T895 332Q895 359 881 381T844 422T772 475Q713 516 680 546T626 621T606 731Q606 792 626 840T675 922T748 997Q773 1021 789 1051T805 1112Q805 1160 768 1186T668 1212Q586 1212 550 1164T514 1018V0H125V1006Q125 1245 256 1381T672 1518Z" horiz-adv-x="1307" unicode="ß"/>
			<glyph d="M612 1133Q850 1133 975 1026T1100 680V430Q1100 171 1110 0H733Q725 82 725 147H719Q670 70 593 25T395 -20Q291 -20 213 25T94 149T53 330Q53 502 161 590T479 684L698 690V717Q698 838 545 838Q469 838 407 805T283 721L119 958Q211 1033 330 1083T612 1133ZM580 475Q506 475 469 446T432 365Q432 313 461 284T543 256Q588 256 623 285T678 363T698 471V475ZM274 1542H612L858 1247V1206H618L274 1485Z" horiz-adv-x="1190" unicode="à"/>
			<glyph d="M612 1133Q850 1133 975 1026T1100 680V430Q1100 171 1110 0H733Q725 82 725 147H719Q670 70 593 25T395 -20Q291 -20 213 25T94 149T53 330Q53 502 161 590T479 684L698 690V717Q698 838 545 838Q469 838 407 805T283 721L119 958Q211 1033 330 1083T612 1133ZM580 475Q506 475 469 446T432 365Q432 313 461 284T543 256Q588 256 623 285T678 363T698 471V475ZM683 1542H1019V1485L681 1206H433V1247Z" horiz-adv-x="1190" unicode="á"/>
			<glyph d="M612 1133Q850 1133 975 1026T1100 680V430Q1100 171 1110 0H733Q725 82 725 147H719Q670 70 593 25T395 -20Q291 -20 213 25T94 149T53 330Q53 502 161 590T479 684L698 690V717Q698 838 545 838Q469 838 407 805T283 721L119 958Q211 1033 330 1083T612 1133ZM580 475Q506 475 469 446T432 365Q432 313 461 284T543 256Q588 256 623 285T678 363T698 471V475ZM466 1542H765L1015 1233V1198H784L618 1350H612L444 1198H212V1233Z" horiz-adv-x="1190" unicode="â"/>
			<glyph d="M612 1133Q850 1133 975 1026T1100 680V430Q1100 171 1110 0H733Q725 82 725 147H719Q670 70 593 25T395 -20Q291 -20 213 25T94 149T53 330Q53 502 161 590T479 684L698 690V717Q698 838 545 838Q469 838 407 805T283 721L119 958Q211 1033 330 1083T612 1133ZM580 475Q506 475 469 446T432 365Q432 313 461 284T543 256Q588 256 623 285T678 363T698 471V475ZM425 1542Q473 1542 520 1524T638 1473Q689 1448 716 1437T765 1427Q807 1427 825 1453T854 1542H1028Q1028 1404 980 1300T780 1196Q735 1196 689 1213T574 1263Q526 1287 495 1299T442 1311Q410 1311 393 1298T368 1263T352 1196H176Q179 1285 194 1357T264 1485T425 1542Z" horiz-adv-x="1190" unicode="ã"/>
			<glyph d="M612 1133Q850 1133 975 1026T1100 680V430Q1100 171 1110 0H733Q725 82 725 147H719Q670 70 593 25T395 -20Q291 -20 213 25T94 149T53 330Q53 502 161 590T479 684L698 690V717Q698 838 545 838Q469 838 407 805T283 721L119 958Q211 1033 330 1083T612 1133ZM580 475Q506 475 469 446T432 365Q432 313 461 284T543 256Q588 256 623 285T678 363T698 471V475ZM399 1552Q475 1552 523 1504T571 1378Q571 1327 549 1287T488 1226T399 1204Q316 1204 268 1250T220 1378Q220 1457 268 1504T399 1552ZM831 1552Q908 1552 957 1503T1007 1376Q1007 1299 957 1251T831 1204Q751 1204 704 1250T657 1376Q657 1456 704 1504T831 1552Z" horiz-adv-x="1190" unicode="ä"/>
			<glyph d="M612 1133Q850 1133 975 1026T1100 680V430Q1100 171 1110 0H733Q725 82 725 147H719Q670 70 593 25T395 -20Q291 -20 213 25T94 149T53 330Q53 502 161 590T479 684L698 690V717Q698 838 545 838Q469 838 407 805T283 721L119 958Q211 1033 330 1083T612 1133ZM580 475Q506 475 469 446T432 365Q432 313 461 284T543 256Q588 256 623 285T678 363T698 471V475ZM618 1703Q694 1703 756 1669T855 1574T892 1433Q892 1350 855 1289T756 1197T618 1165Q540 1165 475 1197T371 1290T333 1433Q333 1513 371 1574T475 1669T618 1703ZM618 1529Q575 1529 547 1501T519 1433Q519 1391 546 1365T618 1339Q661 1339 686 1364T712 1433Q712 1475 686 1502T618 1529Z" horiz-adv-x="1190" unicode="å"/>
			<glyph d="M1253 1137Q1427 1137 1538 1065T1700 869T1751 584Q1751 522 1745 451H1079Q1083 359 1140 314T1298 270Q1375 270 1434 290T1583 365L1731 115Q1629 50 1519 15T1274 -20Q1115 -20 1015 19T844 143Q773 65 682 22T457 -20Q326 -20 235 24T99 149T53 338Q53 505 170 592T535 686L698 690V717Q698 770 659 804T541 838Q485 838 437 821T352 780T272 721L109 958Q191 1027 313 1080T594 1133Q701 1133 780 1104T922 1016Q989 1077 1066 1107T1253 1137ZM1233 858Q1096 858 1079 696H1376Q1373 780 1335 819T1233 858ZM580 475Q507 475 469 446T432 362Q432 313 461 284T543 256Q619 256 658 317T698 471V475Z" horiz-adv-x="1796" unicode="æ"/>
			<glyph d="M639 1137Q813 1137 938 1068T1118 885L846 711Q812 768 771 799T666 831Q575 831 523 764T471 569Q471 434 523 364T664 295Q718 295 758 310T827 349T889 410L1118 203Q1043 103 920 41T637 -20Q455 -20 325 51T128 252T61 553Q61 739 133 870T336 1069T639 1137ZM557 0H740L712 -67Q889 -94 889 -223Q889 -313 819 -369T570 -426Q507 -426 445 -420V-274Q466 -277 496 -279T545 -281Q605 -281 628 -266T652 -225Q652 -193 627 -178T539 -164H498Z" horiz-adv-x="1118" unicode="ç"/>
			<glyph d="M631 1137Q899 1137 1022 985T1145 584Q1145 530 1139 459H473Q478 361 530 311T692 262Q759 262 816 284T965 365L1112 115Q1013 51 910 15T655 -20Q374 -20 217 120T61 549Q61 747 134 878T336 1073T631 1137ZM627 866Q560 866 520 823T473 696H770Q764 866 627 866ZM278 1542H616L862 1247V1206H622L278 1485Z" horiz-adv-x="1190" unicode="è"/>
			<glyph d="M631 1137Q899 1137 1022 985T1145 584Q1145 530 1139 459H473Q478 361 530 311T692 262Q759 262 816 284T965 365L1112 115Q1013 51 910 15T655 -20Q374 -20 217 120T61 549Q61 747 134 878T336 1073T631 1137ZM627 866Q560 866 520 823T473 696H770Q764 866 627 866ZM687 1542H1023V1485L685 1206H437V1247Z" horiz-adv-x="1190" unicode="é"/>
			<glyph d="M631 1137Q899 1137 1022 985T1145 584Q1145 530 1139 459H473Q478 361 530 311T692 262Q759 262 816 284T965 365L1112 115Q1013 51 910 15T655 -20Q374 -20 217 120T61 549Q61 747 134 878T336 1073T631 1137ZM627 866Q560 866 520 823T473 696H770Q764 866 627 866ZM470 1542H769L1019 1233V1198H788L622 1350H616L448 1198H216V1233Z" horiz-adv-x="1190" unicode="ê"/>
			<glyph d="M631 1137Q899 1137 1022 985T1145 584Q1145 530 1139 459H473Q478 361 530 311T692 262Q759 262 816 284T965 365L1112 115Q1013 51 910 15T655 -20Q374 -20 217 120T61 549Q61 747 134 878T336 1073T631 1137ZM627 866Q560 866 520 823T473 696H770Q764 866 627 866ZM403 1552Q479 1552 527 1504T575 1378Q575 1327 553 1287T492 1226T403 1204Q320 1204 272 1250T224 1378Q224 1457 272 1504T403 1552ZM835 1552Q912 1552 961 1503T1011 1376Q1011 1299 961 1251T835 1204Q755 1204 708 1250T661 1376Q661 1456 708 1504T835 1552Z" horiz-adv-x="1190" unicode="ë"/>
			<glyph d="M129 1116H518V0H129ZM-18 1542H320L566 1247V1206H326L-18 1485Z" horiz-adv-x="643" unicode="ì"/>
			<glyph d="M129 1116H518V0H129ZM391 1542H727V1485L389 1206H141V1247Z" horiz-adv-x="643" unicode="í"/>
			<glyph d="M129 1116H518V0H129ZM174 1542H473L723 1233V1198H492L326 1350H320L152 1198H-80V1233Z" horiz-adv-x="643" unicode="î"/>
			<glyph d="M129 1116H518V0H129ZM107 1552Q183 1552 231 1504T279 1378Q279 1327 257 1287T196 1226T107 1204Q24 1204 -24 1250T-72 1378Q-72 1457 -23 1504T107 1552ZM539 1552Q616 1552 665 1503T715 1376Q715 1299 665 1251T539 1204Q459 1204 412 1250T365 1376Q365 1456 412 1504T539 1552Z" horiz-adv-x="643" unicode="ï"/>
			<glyph d="M446 1559Q609 1491 731 1413L1044 1530V1290L933 1249Q1060 1118 1124 950T1188 571V569Q1188 401 1127 270T938 64T612 -12Q432 -12 308 52T122 231T61 494Q61 638 117 745T282 912T539 971Q688 971 809 909Q749 1033 629 1136L283 1008V1245L394 1287Q313 1326 221 1354ZM625 676Q544 676 502 624T461 483Q461 395 503 345T627 295Q706 295 747 344T788 483Q788 573 746 624T625 676Z" horiz-adv-x="1249" unicode="ð"/>
			<glyph d="M872 1137Q1062 1137 1149 1025T1237 719V0H848V608Q848 706 814 757T700 809Q612 809 566 750T520 582V0H131V866Q131 936 127 1004T119 1116H494Q500 1084 506 1023T512 934H516Q574 1039 661 1088T872 1137ZM516 1542Q564 1542 611 1524T729 1473Q780 1448 807 1437T856 1427Q898 1427 916 1453T945 1542H1119Q1119 1404 1071 1300T871 1196Q826 1196 780 1213T665 1263Q617 1287 586 1299T533 1311Q501 1311 484 1298T459 1263T443 1196H267Q270 1285 285 1357T355 1485T516 1542Z" horiz-adv-x="1350" unicode="ñ"/>
			<glyph d="M655 1137Q863 1137 995 1058T1188 850T1249 561Q1249 402 1182 270T981 59T649 -20Q460 -20 327 58T128 268T61 561Q61 717 126 848T324 1058T655 1137ZM659 831Q563 831 517 760T471 561Q471 433 516 359T647 285Q745 285 792 357T840 561Q840 689 795 760T659 831ZM354 1542H692L938 1247V1206H698L354 1485Z" horiz-adv-x="1311" unicode="ò"/>
			<glyph d="M655 1137Q863 1137 995 1058T1188 850T1249 561Q1249 402 1182 270T981 59T649 -20Q460 -20 327 58T128 268T61 561Q61 717 126 848T324 1058T655 1137ZM659 831Q563 831 517 760T471 561Q471 433 516 359T647 285Q745 285 792 357T840 561Q840 689 795 760T659 831ZM724 1542H1060V1485L722 1206H474V1247Z" horiz-adv-x="1311" unicode="ó"/>
			<glyph d="M655 1137Q863 1137 995 1058T1188 850T1249 561Q1249 402 1182 270T981 59T649 -20Q460 -20 327 58T128 268T61 561Q61 717 126 848T324 1058T655 1137ZM659 831Q563 831 517 760T471 561Q471 433 516 359T647 285Q745 285 792 357T840 561Q840 689 795 760T659 831ZM507 1542H806L1056 1233V1198H825L659 1350H653L485 1198H253V1233Z" horiz-adv-x="1311" unicode="ô"/>
			<glyph d="M655 1137Q863 1137 995 1058T1188 850T1249 561Q1249 402 1182 270T981 59T649 -20Q460 -20 327 58T128 268T61 561Q61 717 126 848T324 1058T655 1137ZM659 831Q563 831 517 760T471 561Q471 433 516 359T647 285Q745 285 792 357T840 561Q840 689 795 760T659 831ZM466 1542Q514 1542 561 1524T679 1473Q730 1448 757 1437T806 1427Q848 1427 866 1453T895 1542H1069Q1069 1404 1021 1300T821 1196Q776 1196 730 1213T615 1263Q567 1287 536 1299T483 1311Q451 1311 434 1298T409 1263T393 1196H217Q220 1285 235 1357T305 1485T466 1542Z" horiz-adv-x="1311" unicode="õ"/>
			<glyph d="M655 1137Q863 1137 995 1058T1188 850T1249 561Q1249 402 1182 270T981 59T649 -20Q460 -20 327 58T128 268T61 561Q61 717 126 848T324 1058T655 1137ZM659 831Q563 831 517 760T471 561Q471 433 516 359T647 285Q745 285 792 357T840 561Q840 689 795 760T659 831ZM440 1552Q516 1552 564 1504T612 1378Q612 1327 590 1287T529 1226T440 1204Q357 1204 309 1250T261 1378Q261 1457 309 1504T440 1552ZM872 1552Q949 1552 998 1503T1048 1376Q1048 1299 998 1251T872 1204Q792 1204 745 1250T698 1376Q698 1456 745 1504T872 1552Z" horiz-adv-x="1311" unicode="ö"/>
			<glyph d="M635 1288Q716 1288 765 1238T815 1106Q815 1025 765 974T635 924Q551 924 502 973T453 1106Q453 1190 502 1239T635 1288ZM92 836H1176V526H92ZM635 438Q716 438 765 388T815 256Q815 203 792 162T729 97T635 74Q551 74 502 123T453 256Q453 340 502 389T635 438Z" unicode="÷"/>
			<glyph d="M1102 1178H1335L1123 946Q1184 870 1213 771T1243 561Q1243 402 1176 270T975 59T643 -20Q453 -20 316 62L199 -66H-37L183 175Q120 252 87 351T55 561Q55 717 120 848T318 1058T649 1137Q854 1137 992 1057ZM653 831Q557 831 511 760T465 561Q465 518 469 487L755 799Q714 831 653 831ZM831 626L548 316Q587 285 641 285Q739 285 786 357T834 561Q834 595 831 626Z" horiz-adv-x="1300" unicode="ø"/>
			<glyph d="M113 1116H502V508Q502 410 536 358T649 307Q738 307 783 366T829 535V1116H1219V250Q1219 181 1222 112T1231 0H856Q850 32 844 92T838 182H834Q776 75 689 25T477 -25Q289 -25 201 88T113 397ZM322 1542H660L906 1247V1206H666L322 1485Z" horiz-adv-x="1350" unicode="ù"/>
			<glyph d="M113 1116H502V508Q502 410 536 358T649 307Q738 307 783 366T829 535V1116H1219V250Q1219 181 1222 112T1231 0H856Q850 32 844 92T838 182H834Q776 75 689 25T477 -25Q289 -25 201 88T113 397ZM731 1542H1067V1485L729 1206H481V1247Z" horiz-adv-x="1350" unicode="ú"/>
			<glyph d="M113 1116H502V508Q502 410 536 358T649 307Q738 307 783 366T829 535V1116H1219V250Q1219 181 1222 112T1231 0H856Q850 32 844 92T838 182H834Q776 75 689 25T477 -25Q289 -25 201 88T113 397ZM514 1542H813L1063 1233V1198H832L666 1350H660L492 1198H260V1233Z" horiz-adv-x="1350" unicode="û"/>
			<glyph d="M113 1116H502V508Q502 410 536 358T649 307Q738 307 783 366T829 535V1116H1219V250Q1219 181 1222 112T1231 0H856Q850 32 844 92T838 182H834Q776 75 689 25T477 -25Q289 -25 201 88T113 397ZM447 1552Q523 1552 571 1504T619 1378Q619 1327 597 1287T536 1226T447 1204Q364 1204 316 1250T268 1378Q268 1457 316 1504T447 1552ZM879 1552Q956 1552 1005 1503T1055 1376Q1055 1299 1005 1251T879 1204Q799 1204 752 1250T705 1376Q705 1456 752 1504T879 1552Z" horiz-adv-x="1350" unicode="ü"/>
			<glyph d="M10 1116H430L578 602Q609 488 625 397Q644 497 672 602L813 1116H1212L838 -25Q793 -162 733 -253T581 -395T356 -446Q214 -446 129 -416L178 -111Q197 -119 227 -125T291 -131Q335 -131 364 -112T403 -47L414 0ZM692 1542H1028V1485L690 1206H442V1247Z" horiz-adv-x="1223" unicode="ý"/>
			<glyph d="M125 1501H514V1178Q514 1037 508 981H512Q644 1139 846 1139Q978 1139 1071 1072T1213 876T1262 565Q1262 380 1209 248T1057 48T819 -20Q713 -20 632 24T514 129H508Q510 105 512 63T514 -18V-426H125ZM690 831Q615 831 562 770T510 557Q510 404 559 344T688 285Q757 285 804 350T852 565Q852 660 829 719T769 805T690 831Z" horiz-adv-x="1323" unicode="þ"/>
			<glyph d="M10 1116H430L578 602Q609 488 625 397Q644 497 672 602L813 1116H1212L838 -25Q793 -162 733 -253T581 -395T356 -446Q214 -446 129 -416L178 -111Q197 -119 227 -125T291 -131Q335 -131 364 -112T403 -47L414 0ZM408 1552Q484 1552 532 1504T580 1378Q580 1327 558 1287T497 1226T408 1204Q325 1204 277 1250T229 1378Q229 1457 277 1504T408 1552ZM840 1552Q917 1552 966 1503T1016 1376Q1016 1299 966 1251T840 1204Q760 1204 713 1250T666 1376Q666 1456 713 1504T840 1552Z" horiz-adv-x="1223" unicode="ÿ"/>
			<glyph d="M526 1409H1030L1518 0H1100L1018 270H531L449 0H37ZM774 1090Q763 1039 729 922L625 578H925L821 922Q786 1033 774 1090ZM456 1763H1091V1542H456Z" horiz-adv-x="1548" unicode="Ā"/>
			<glyph d="M612 1133Q850 1133 975 1026T1100 680V430Q1100 171 1110 0H733Q725 82 725 147H719Q670 70 593 25T395 -20Q291 -20 213 25T94 149T53 330Q53 502 161 590T479 684L698 690V717Q698 838 545 838Q469 838 407 805T283 721L119 958Q211 1033 330 1083T612 1133ZM580 475Q506 475 469 446T432 365Q432 313 461 284T543 256Q588 256 623 285T678 363T698 471V475ZM274 1487H954V1253H274Z" horiz-adv-x="1190" unicode="ā"/>
			<glyph d="M526 1409H1030L1518 0H1100L1018 270H531L449 0H37ZM774 1090Q763 1039 729 922L625 578H925L821 922Q786 1033 774 1090ZM380 1833H591Q608 1767 658 1733T776 1700Q844 1700 896 1734T960 1833H1175Q1164 1742 1116 1668T981 1549T774 1505Q657 1505 568 1550T430 1670T380 1833Z" horiz-adv-x="1548" unicode="Ă"/>
			<glyph d="M612 1133Q850 1133 975 1026T1100 680V430Q1100 171 1110 0H733Q725 82 725 147H719Q670 70 593 25T395 -20Q291 -20 213 25T94 149T53 330Q53 502 161 590T479 684L698 690V717Q698 838 545 838Q469 838 407 805T283 721L119 958Q211 1033 330 1083T612 1133ZM580 475Q506 475 469 446T432 365Q432 313 461 284T543 256Q588 256 623 285T678 363T698 471V475ZM231 1542H446Q468 1476 506 1446T618 1417Q694 1417 733 1447T792 1542H1005Q981 1382 884 1291T614 1200Q504 1200 421 1243T289 1363T231 1542Z" horiz-adv-x="1190" unicode="ă"/>
			<glyph d="M526 1409H1030L1518 0H1100L1018 270H531L449 0H37ZM774 1090Q763 1039 729 922L625 578H925L821 922Q786 1033 774 1090ZM1224 0H1433Q1361 -54 1327 -94T1294 -186Q1294 -228 1319 -251T1392 -274Q1438 -274 1493 -250V-422Q1461 -439 1407 -452T1292 -465Q1182 -465 1117 -410T1052 -254Q1052 -169 1094 -112T1224 0Z" horiz-adv-x="1548" unicode="Ą"/>
			<glyph d="M612 1133Q850 1133 975 1026T1100 680V430Q1100 171 1110 0H733Q725 82 725 147H719Q670 70 593 25T395 -20Q291 -20 213 25T94 149T53 330Q53 502 161 590T479 684L698 690V717Q698 838 545 838Q469 838 407 805T283 721L119 958Q211 1033 330 1083T612 1133ZM580 475Q506 475 469 446T432 365Q432 313 461 284T543 256Q588 256 623 285T678 363T698 471V475ZM839 0H1048Q976 -54 942 -94T909 -186Q909 -228 934 -251T1007 -274Q1053 -274 1108 -250V-422Q1076 -439 1022 -452T907 -465Q797 -465 732 -410T667 -254Q667 -169 709 -112T839 0Z" horiz-adv-x="1190" unicode="ą"/>
			<glyph d="M819 1430Q1060 1430 1217 1336T1466 1059L1128 899Q1085 980 1008 1031T823 1083Q721 1083 643 1037T523 906T481 711Q481 535 566 432T821 330Q947 330 1029 393T1153 547L1487 375Q1414 201 1251 90T821 -20Q574 -20 403 73T147 331T61 711Q61 929 154 1091T418 1342T819 1430ZM833 1833H1169V1776L813 1501H583V1542Z" horiz-adv-x="1497" unicode="Ć"/>
			<glyph d="M639 1137Q813 1137 938 1068T1118 885L846 711Q812 768 771 799T666 831Q575 831 523 764T471 569Q471 434 523 364T664 295Q718 295 758 310T827 349T889 410L1118 203Q1043 103 920 41T637 -20Q455 -20 325 51T128 252T61 553Q61 739 133 870T336 1069T639 1137ZM706 1542H1042V1485L704 1206H456V1247Z" horiz-adv-x="1118" unicode="ć"/>
			<glyph d="M819 1430Q1060 1430 1217 1336T1466 1059L1128 899Q1085 980 1008 1031T823 1083Q721 1083 643 1037T523 906T481 711Q481 535 566 432T821 330Q947 330 1029 393T1153 547L1487 375Q1414 201 1251 90T821 -20Q574 -20 403 73T147 331T61 711Q61 929 154 1091T418 1342T819 1430ZM657 1833H958L1220 1540V1501H991L811 1653H804L630 1501H401V1540Z" horiz-adv-x="1497" unicode="Ĉ"/>
			<glyph d="M639 1137Q813 1137 938 1068T1118 885L846 711Q812 768 771 799T666 831Q575 831 523 764T471 569Q471 434 523 364T664 295Q718 295 758 310T827 349T889 410L1118 203Q1043 103 920 41T637 -20Q455 -20 325 51T128 252T61 553Q61 739 133 870T336 1069T639 1137ZM489 1542H788L1038 1233V1198H807L641 1350H635L467 1198H235V1233Z" horiz-adv-x="1118" unicode="ĉ"/>
			<glyph d="M819 1430Q1060 1430 1217 1336T1466 1059L1128 899Q1085 980 1008 1031T823 1083Q721 1083 643 1037T523 906T481 711Q481 535 566 432T821 330Q947 330 1029 393T1153 547L1487 375Q1414 201 1251 90T821 -20Q574 -20 403 73T147 331T61 711Q61 929 154 1091T418 1342T819 1430ZM811 1855Q866 1855 910 1830T980 1762T1005 1663Q1005 1609 980 1567T910 1501T811 1477Q754 1477 709 1500T639 1565T614 1663Q614 1719 639 1762T709 1830T811 1855Z" horiz-adv-x="1497" unicode="Ċ"/>
			<glyph d="M639 1137Q813 1137 938 1068T1118 885L846 711Q812 768 771 799T666 831Q575 831 523 764T471 569Q471 434 523 364T664 295Q718 295 758 310T827 349T889 410L1118 203Q1043 103 920 41T637 -20Q455 -20 325 51T128 252T61 553Q61 739 133 870T336 1069T639 1137ZM637 1591Q695 1591 742 1565T816 1493T843 1389Q843 1332 816 1287T742 1217T637 1192Q577 1192 529 1216T455 1286T428 1389Q428 1447 455 1493T529 1565T637 1591Z" horiz-adv-x="1118" unicode="ċ"/>
			<glyph d="M819 1430Q1060 1430 1217 1336T1466 1059L1128 899Q1085 980 1008 1031T823 1083Q721 1083 643 1037T523 906T481 711Q481 535 566 432T821 330Q947 330 1029 393T1153 547L1487 375Q1414 201 1251 90T821 -20Q574 -20 403 73T147 331T61 711Q61 929 154 1091T418 1342T819 1430ZM401 1833H630L811 1679H817L991 1833H1220V1794L964 1499H663L401 1794Z" horiz-adv-x="1497" unicode="Č"/>
			<glyph d="M639 1137Q813 1137 938 1068T1118 885L846 711Q812 768 771 799T666 831Q575 831 523 764T471 569Q471 434 523 364T664 295Q718 295 758 310T827 349T889 410L1118 203Q1043 103 920 41T637 -20Q455 -20 325 51T128 252T61 553Q61 739 133 870T336 1069T639 1137ZM247 1542H467L633 1391H639L807 1542H1026V1507L784 1198H485L247 1507Z" horiz-adv-x="1118" unicode="č"/>
			<glyph d="M113 1409H698Q1070 1409 1266 1238T1462 715Q1462 488 1369 327T1108 83T717 0H113ZM522 1069V340H698Q867 340 954 435T1042 711Q1042 884 955 976T692 1069ZM307 1833H536L717 1679H723L897 1833H1126V1794L870 1499H569L307 1794Z" horiz-adv-x="1524" unicode="Ď"/>
			<glyph d="M809 1501H1198V268Q1198 144 1206 0H823Q813 75 813 147H809Q764 72 682 26T481 -20Q353 -20 258 47T112 239T61 537Q61 733 117 868T273 1070T500 1137Q615 1137 686 1097T807 989H811Q809 1030 809 1116ZM641 831Q568 831 519 765T471 549Q471 414 517 350T635 287Q717 287 765 353T813 563Q813 694 768 762T641 831ZM1415 1517Q1495 1517 1542 1470T1589 1337Q1589 1240 1544 1163T1421 1013L1319 1106Q1347 1134 1368 1170T1395 1247Q1335 1256 1299 1292T1264 1380Q1264 1418 1284 1449T1338 1499T1415 1517Z" horiz-adv-x="1384" unicode="ď"/>
			<glyph d="M127 1409H712Q1084 1409 1280 1238T1476 715Q1476 488 1383 327T1122 83T731 0H127V559H20V856H127ZM536 1069V856H854V559H536V340H712Q881 340 968 435T1056 711Q1056 884 969 976T706 1069ZZ" horiz-adv-x="1538" unicode="Đ"/>
			<glyph d="M809 1501H1198V1401H1311V1178H1198V268Q1198 144 1206 0H823Q813 75 813 147H809Q764 72 682 26T481 -20Q353 -20 258 47T112 239T61 537Q61 733 117 868T273 1070T500 1137Q615 1137 686 1097T807 989H811Q809 1030 809 1116V1178H551V1401H809ZM641 831Q568 831 519 765T471 549Q471 414 517 350T635 287Q717 287 765 353T813 563Q813 694 768 762T641 831Z" horiz-adv-x="1311" unicode="đ"/>
			<glyph d="M113 1409H1180V1079H522V870H1118V537H522V332H1221V0H113ZM354 1763H989V1542H354Z" unicode="Ē"/>
			<glyph d="M631 1137Q899 1137 1022 985T1145 584Q1145 530 1139 459H473Q478 361 530 311T692 262Q759 262 816 284T965 365L1112 115Q1013 51 910 15T655 -20Q374 -20 217 120T61 549Q61 747 134 878T336 1073T631 1137ZM627 866Q560 866 520 823T473 696H770Q764 866 627 866ZM278 1487H958V1253H278Z" horiz-adv-x="1190" unicode="ē"/>
			<glyph d="M113 1409H1180V1079H522V870H1118V537H522V332H1221V0H113ZM278 1833H489Q506 1767 556 1733T674 1700Q742 1700 794 1734T858 1833H1073Q1062 1742 1014 1668T879 1549T672 1505Q555 1505 466 1550T328 1670T278 1833Z" unicode="Ĕ"/>
			<glyph d="M631 1137Q899 1137 1022 985T1145 584Q1145 530 1139 459H473Q478 361 530 311T692 262Q759 262 816 284T965 365L1112 115Q1013 51 910 15T655 -20Q374 -20 217 120T61 549Q61 747 134 878T336 1073T631 1137ZM627 866Q560 866 520 823T473 696H770Q764 866 627 866ZM235 1542H450Q472 1476 510 1446T622 1417Q698 1417 737 1447T796 1542H1009Q985 1382 888 1291T618 1200Q508 1200 425 1243T293 1363T235 1542Z" horiz-adv-x="1190" unicode="ĕ"/>
			<glyph d="M113 1409H1180V1079H522V870H1118V537H522V332H1221V0H113ZM672 1855Q727 1855 771 1830T841 1762T866 1663Q866 1609 841 1567T771 1501T672 1477Q615 1477 570 1500T500 1565T475 1663Q475 1719 500 1762T570 1830T672 1855Z" unicode="Ė"/>
			<glyph d="M631 1137Q899 1137 1022 985T1145 584Q1145 530 1139 459H473Q478 361 530 311T692 262Q759 262 816 284T965 365L1112 115Q1013 51 910 15T655 -20Q374 -20 217 120T61 549Q61 747 134 878T336 1073T631 1137ZM627 866Q560 866 520 823T473 696H770Q764 866 627 866ZM618 1591Q676 1591 723 1565T797 1493T824 1389Q824 1332 797 1287T723 1217T618 1192Q558 1192 510 1216T436 1286T409 1389Q409 1447 436 1493T510 1565T618 1591Z" horiz-adv-x="1190" unicode="ė"/>
			<glyph d="M113 1409H1180V1079H522V870H1118V537H522V332H1221V0H113ZM940 0H1149Q1077 -54 1043 -94T1010 -186Q1010 -228 1035 -251T1108 -274Q1154 -274 1209 -250V-422Q1177 -439 1123 -452T1008 -465Q898 -465 833 -410T768 -254Q768 -169 810 -112T940 0Z" unicode="Ę"/>
			<glyph d="M631 1137Q899 1137 1022 985T1145 584Q1145 530 1139 459H473Q478 361 530 311T692 262Q759 262 816 284T965 365L1112 115Q1013 51 910 15T655 -20Q374 -20 217 120T61 549Q61 747 134 878T336 1073T631 1137ZM627 866Q560 866 520 823T473 696H770Q764 866 627 866ZM643 0H852Q780 -54 746 -94T713 -186Q713 -228 738 -251T811 -274Q857 -274 912 -250V-422Q880 -439 826 -452T711 -465Q601 -465 536 -410T471 -254Q471 -169 513 -112T643 0Z" horiz-adv-x="1190" unicode="ę"/>
			<glyph d="M113 1409H1180V1079H522V870H1118V537H522V332H1221V0H113ZM262 1833H491L672 1679H678L852 1833H1081V1794L825 1499H524L262 1794Z" unicode="Ě"/>
			<glyph d="M631 1137Q899 1137 1022 985T1145 584Q1145 530 1139 459H473Q478 361 530 311T692 262Q759 262 816 284T965 365L1112 115Q1013 51 910 15T655 -20Q374 -20 217 120T61 549Q61 747 134 878T336 1073T631 1137ZM627 866Q560 866 520 823T473 696H770Q764 866 627 866ZM228 1542H448L614 1391H620L788 1542H1007V1507L765 1198H466L228 1507Z" horiz-adv-x="1190" unicode="ě"/>
			<glyph d="M797 1430Q1026 1430 1169 1353T1401 1157L1112 915Q1056 992 983 1037T795 1083Q689 1083 614 1037T500 905T461 702Q461 585 502 499T619 368T801 322Q901 322 965 355T1058 434T1087 516V522H821V809H1460V0H1122V135Q1058 60 956 20T737 -20Q516 -20 359 71T121 325T41 700Q41 926 128 1090T386 1342T797 1430ZM667 1833H968L1230 1540V1501H1001L821 1653H814L640 1501H411V1540Z" horiz-adv-x="1563" unicode="Ĝ"/>
			<glyph d="M1192 1225H1200L1214 952H1206Q1102 952 1054 917Q1085 845 1085 758Q1085 650 1035 566T877 432T596 383Q508 383 432 397Q422 377 422 362Q422 336 441 323T504 306T649 295Q843 283 958 254T1136 155T1200 -49Q1200 -240 1057 -343T586 -446Q41 -446 41 -154Q41 -81 78 -27T204 77Q117 139 117 266Q117 325 147 378T236 477Q170 525 137 597T104 760Q104 928 221 1032T594 1137Q774 1137 891 1080Q949 1152 1020 1188T1192 1225ZM596 893Q532 893 497 857T463 760Q463 699 497 663T594 627Q656 627 691 663T727 762Q727 823 692 858T596 893ZM394 11Q371 -26 371 -72Q371 -131 423 -162T608 -193Q730 -193 777 -168T825 -96Q825 -69 809 -52T753 -24T641 -10Q471 -1 394 11ZM460 1542H759L1009 1233V1198H778L612 1350H606L438 1198H206V1233Z" horiz-adv-x="1204" unicode="ĝ"/>
			<glyph d="M797 1430Q1026 1430 1169 1353T1401 1157L1112 915Q1056 992 983 1037T795 1083Q689 1083 614 1037T500 905T461 702Q461 585 502 499T619 368T801 322Q901 322 965 355T1058 434T1087 516V522H821V809H1460V0H1122V135Q1058 60 956 20T737 -20Q516 -20 359 71T121 325T41 700Q41 926 128 1090T386 1342T797 1430ZM427 1833H638Q655 1767 705 1733T823 1700Q891 1700 943 1734T1007 1833H1222Q1211 1742 1163 1668T1028 1549T821 1505Q704 1505 615 1550T477 1670T427 1833Z" horiz-adv-x="1563" unicode="Ğ"/>
			<glyph d="M1192 1225H1200L1214 952H1206Q1102 952 1054 917Q1085 845 1085 758Q1085 650 1035 566T877 432T596 383Q508 383 432 397Q422 377 422 362Q422 336 441 323T504 306T649 295Q843 283 958 254T1136 155T1200 -49Q1200 -240 1057 -343T586 -446Q41 -446 41 -154Q41 -81 78 -27T204 77Q117 139 117 266Q117 325 147 378T236 477Q170 525 137 597T104 760Q104 928 221 1032T594 1137Q774 1137 891 1080Q949 1152 1020 1188T1192 1225ZM596 893Q532 893 497 857T463 760Q463 699 497 663T594 627Q656 627 691 663T727 762Q727 823 692 858T596 893ZM394 11Q371 -26 371 -72Q371 -131 423 -162T608 -193Q730 -193 777 -168T825 -96Q825 -69 809 -52T753 -24T641 -10Q471 -1 394 11ZM225 1542H440Q462 1476 500 1446T612 1417Q688 1417 727 1447T786 1542H999Q975 1382 878 1291T608 1200Q498 1200 415 1243T283 1363T225 1542Z" horiz-adv-x="1204" unicode="ğ"/>
			<glyph d="M797 1430Q1026 1430 1169 1353T1401 1157L1112 915Q1056 992 983 1037T795 1083Q689 1083 614 1037T500 905T461 702Q461 585 502 499T619 368T801 322Q901 322 965 355T1058 434T1087 516V522H821V809H1460V0H1122V135Q1058 60 956 20T737 -20Q516 -20 359 71T121 325T41 700Q41 926 128 1090T386 1342T797 1430ZM821 1855Q876 1855 920 1830T990 1762T1015 1663Q1015 1609 990 1567T920 1501T821 1477Q764 1477 719 1500T649 1565T624 1663Q624 1719 649 1762T719 1830T821 1855Z" horiz-adv-x="1563" unicode="Ġ"/>
			<glyph d="M1192 1225H1200L1214 952H1206Q1102 952 1054 917Q1085 845 1085 758Q1085 650 1035 566T877 432T596 383Q508 383 432 397Q422 377 422 362Q422 336 441 323T504 306T649 295Q843 283 958 254T1136 155T1200 -49Q1200 -240 1057 -343T586 -446Q41 -446 41 -154Q41 -81 78 -27T204 77Q117 139 117 266Q117 325 147 378T236 477Q170 525 137 597T104 760Q104 928 221 1032T594 1137Q774 1137 891 1080Q949 1152 1020 1188T1192 1225ZM596 893Q532 893 497 857T463 760Q463 699 497 663T594 627Q656 627 691 663T727 762Q727 823 692 858T596 893ZM394 11Q371 -26 371 -72Q371 -131 423 -162T608 -193Q730 -193 777 -168T825 -96Q825 -69 809 -52T753 -24T641 -10Q471 -1 394 11ZM608 1591Q666 1591 713 1565T787 1493T814 1389Q814 1332 787 1287T713 1217T608 1192Q548 1192 500 1216T426 1286T399 1389Q399 1447 426 1493T500 1565T608 1591Z" horiz-adv-x="1204" unicode="ġ"/>
			<glyph d="M797 1430Q1026 1430 1169 1353T1401 1157L1112 915Q1056 992 983 1037T795 1083Q689 1083 614 1037T500 905T461 702Q461 585 502 499T619 368T801 322Q901 322 965 355T1058 434T1087 516V522H821V809H1460V0H1122V135Q1058 60 956 20T737 -20Q516 -20 359 71T121 325T41 700Q41 926 128 1090T386 1342T797 1430ZM793 -61Q867 -61 912 -105T958 -229Q958 -308 914 -370T793 -496L692 -408Q714 -389 734 -362T766 -309Q708 -300 673 -266T639 -184Q639 -130 682 -95T793 -61Z" horiz-adv-x="1563" unicode="Ģ"/>
			<glyph d="M1192 1225H1200L1214 952H1206Q1102 952 1054 917Q1085 845 1085 758Q1085 650 1035 566T877 432T596 383Q508 383 432 397Q422 377 422 362Q422 336 441 323T504 306T649 295Q843 283 958 254T1136 155T1200 -49Q1200 -240 1057 -343T586 -446Q41 -446 41 -154Q41 -81 78 -27T204 77Q117 139 117 266Q117 325 147 378T236 477Q170 525 137 597T104 760Q104 928 221 1032T594 1137Q774 1137 891 1080Q949 1152 1020 1188T1192 1225ZM596 893Q532 893 497 857T463 760Q463 699 497 663T594 627Q656 627 691 663T727 762Q727 823 692 858T596 893ZM394 11Q371 -26 371 -72Q371 -131 423 -162T608 -193Q730 -193 777 -168T825 -96Q825 -69 809 -52T753 -24T641 -10Q471 -1 394 11ZM610 1679L725 1579Q701 1559 678 1528T641 1468Q706 1459 745 1421T784 1329Q784 1268 735 1229T612 1190Q528 1190 476 1239T424 1378Q424 1466 473 1536T610 1679Z" horiz-adv-x="1204" unicode="ģ"/>
			<glyph d="M113 1409H522V903H1001V1409H1411V0H1001V535H522V0H113ZM610 1833H911L1173 1540V1501H944L764 1653H757L583 1501H354V1540Z" horiz-adv-x="1524" unicode="Ĥ"/>
			<glyph d="M131 1501H520V1108Q520 1010 514 948H518Q573 1043 659 1090T872 1137Q1064 1137 1150 1026T1237 719V0H848V608Q848 706 814 757T700 809Q612 809 566 750T520 582V0H131ZM182 1927H481L731 1618V1583H500L334 1735H328L160 1583H-72V1618Z" horiz-adv-x="1350" unicode="ĥ"/>
			<glyph d="M113 1409H522V1264H1001V1409H1411V1264H1491V1042H1411V0H1001V535H522V0H113V1042H-6V1264H113ZM522 1042V903H1001V1042Z" horiz-adv-x="1485" unicode="Ħ"/>
			<glyph d="M131 1501H520V1393H793V1169H520V1108Q520 1010 514 948H518Q573 1043 659 1090T872 1137Q1064 1137 1150 1026T1237 719V0H848V608Q848 706 814 757T700 809Q612 809 566 750T520 582V0H131V1169H12V1393H131Z" horiz-adv-x="1350" unicode="ħ"/>
			<glyph d="M113 1409H522V0H113ZM138 1845Q186 1845 233 1827T351 1776Q400 1752 428 1740T478 1729Q521 1729 538 1755T566 1845H741Q741 1760 725 1687T655 1558T493 1503Q448 1503 400 1521T287 1572Q234 1598 206 1609T155 1620Q123 1620 106 1607T81 1572T65 1503H-111Q-108 1592 -92 1663T-23 1789T138 1845Z" horiz-adv-x="635" unicode="Ĩ"/>
			<glyph d="M129 1116H518V0H129ZM133 1542Q181 1542 228 1524T346 1473Q397 1448 424 1437T473 1427Q515 1427 533 1453T562 1542H736Q736 1404 688 1300T488 1196Q443 1196 397 1213T282 1263Q234 1287 203 1299T150 1311Q118 1311 101 1298T76 1263T60 1196H-116Q-113 1285 -97 1357T-28 1485T133 1542Z" horiz-adv-x="643" unicode="ĩ"/>
			<glyph d="M113 1409H522V0H113ZM-1 1763H634V1542H-1Z" horiz-adv-x="635" unicode="Ī"/>
			<glyph d="M129 1116H518V0H129ZM-18 1487H662V1253H-18Z" horiz-adv-x="643" unicode="ī"/>
			<glyph d="M113 1409H522V0H113ZM-77 1833H134Q151 1767 201 1733T319 1700Q387 1700 439 1734T503 1833H718Q707 1742 659 1668T524 1549T317 1505Q200 1505 111 1550T-26 1670T-77 1833Z" horiz-adv-x="635" unicode="Ĭ"/>
			<glyph d="M129 1116H518V0H129ZM-61 1542H154Q176 1476 214 1446T326 1417Q402 1417 441 1447T500 1542H713Q689 1382 592 1291T322 1200Q212 1200 129 1243T-2 1363T-61 1542Z" horiz-adv-x="643" unicode="ĭ"/>
			<glyph d="M104 1409H514V0H453Q378 -58 344 -98T311 -186Q311 -229 336 -251T410 -274Q456 -274 514 -248V-420Q477 -440 426 -452T319 -465Q204 -465 138 -412T72 -256Q72 -95 246 0H104Z" horiz-adv-x="618" unicode="Į"/>
			<glyph d="M322 1587Q423 1587 483 1531T543 1380Q543 1287 483 1231T322 1176Q219 1176 159 1231T100 1380Q100 1476 159 1531T322 1587ZM125 1116H514V0H428Q315 -78 315 -164Q315 -209 340 -232T416 -256Q444 -256 473 -248T545 -221V-393Q460 -446 330 -446Q212 -446 144 -392T76 -233Q76 -164 114 -106T239 0H125Z" horiz-adv-x="643" unicode="į"/>
			<glyph d="M113 1409H522V0H113ZM317 1855Q372 1855 416 1830T486 1762T511 1663Q511 1609 486 1567T416 1501T317 1477Q260 1477 215 1500T145 1565T120 1663Q120 1719 145 1762T215 1830T317 1855Z" horiz-adv-x="635" unicode="İ"/>
			<glyph d="M129 1116H518V0H129Z" horiz-adv-x="643" unicode="ı"/>
			<glyph d="M113 1409H522V0H113ZM1342 1409H1751V496Q1751 236 1600 108T1163 -20Q969 -20 834 57T619 301L942 494Q971 439 999 403T1065 347T1157 326Q1248 326 1295 379T1342 537Z" horiz-adv-x="1864" unicode="Ĳ"/>
			<glyph d="M322 1591Q380 1591 427 1565T501 1493T528 1389Q528 1332 501 1287T427 1217T322 1192Q262 1192 214 1216T140 1286T113 1389Q113 1447 140 1493T214 1565T322 1591ZM129 1116H518V0H129ZM965 1591Q1023 1591 1070 1565T1144 1493T1171 1389Q1171 1332 1144 1287T1070 1217T965 1192Q905 1192 857 1216T783 1286T756 1389Q756 1447 783 1493T857 1565T965 1591ZM768 1116H1157V-57Q1157 -184 1108 -271T973 -402T770 -446Q660 -446 565 -424L590 -131Q617 -141 655 -141Q712 -141 740 -108T768 -4Z" horiz-adv-x="1286" unicode="ĳ"/>
			<glyph d="M707 1409H1116V496Q1116 236 965 108T528 -20Q334 -20 199 57T-16 301L307 494Q336 439 364 403T430 347T522 326Q613 326 660 379T707 537ZM757 1833H1058L1320 1540V1501H1091L911 1653H904L730 1501H501V1540Z" horiz-adv-x="1229" unicode="Ĵ"/>
			<glyph d="M125 1116H514V-57Q514 -184 465 -271T330 -402T127 -446Q17 -446 -78 -424L-53 -131Q-26 -141 12 -141Q69 -141 97 -108T125 -4ZM174 1542H473L723 1233V1198H492L326 1350H320L152 1198H-80V1233Z" horiz-adv-x="643" unicode="ĵ"/>
			<glyph d="M113 1409H522V838L987 1409H1468L958 817L1495 0H1032L684 555L522 403V0H113ZM742 -61Q816 -61 861 -105T907 -229Q907 -308 863 -370T742 -496L641 -408Q663 -389 683 -362T715 -309Q657 -300 622 -266T588 -184Q588 -130 631 -95T742 -61Z" horiz-adv-x="1516" unicode="Ķ"/>
			<glyph d="M125 1501H514V713L809 1116H1260L881 670L1284 0H831L604 426L514 340V0H125ZM654 -61Q728 -61 773 -105T819 -229Q819 -308 775 -370T654 -496L553 -408Q575 -389 595 -362T627 -309Q569 -300 534 -266T500 -184Q500 -130 543 -95T654 -61Z" horiz-adv-x="1280" unicode="ķ"/>
			<glyph d="M125 1116H514V713L809 1116H1260L881 670L1284 0H831L604 426L514 340V0H125Z" horiz-adv-x="1280" unicode="ĸ"/>
			<glyph d="M113 1409H522V340H1114V0H113ZM397 1833H733V1776L377 1501H147V1542Z" horiz-adv-x="1135" unicode="Ĺ"/>
			<glyph d="M115 1501H504V385Q504 340 520 317T582 295Q601 295 635 301L647 4Q555 -14 455 -14Q279 -14 197 69T115 315ZM335 1925H671V1868L315 1593H85V1634Z" horiz-adv-x="690" unicode="ĺ"/>
			<glyph d="M113 1409H522V340H1114V0H113ZM639 -61Q713 -61 758 -105T804 -229Q804 -308 760 -370T639 -496L538 -408Q560 -389 580 -362T612 -309Q554 -300 519 -266T485 -184Q485 -130 528 -95T639 -61Z" horiz-adv-x="1135" unicode="Ļ"/>
			<glyph d="M115 1501H504V385Q504 340 520 317T582 295Q601 295 635 301L647 4Q555 -14 455 -14Q279 -14 197 69T115 315ZM383 -61Q457 -61 502 -105T548 -229Q548 -308 504 -370T383 -496L282 -408Q304 -389 324 -362T356 -309Q298 -300 263 -266T229 -184Q229 -130 272 -95T383 -61Z" horiz-adv-x="690" unicode="ļ"/>
			<glyph d="M113 1409H522V340H1114V0H113ZM925 1423Q1005 1423 1052 1376T1099 1243Q1099 1146 1054 1069T931 919L829 1012Q857 1040 878 1076T905 1153Q845 1162 809 1198T774 1286Q774 1324 794 1355T848 1405T925 1423Z" horiz-adv-x="1135" unicode="Ľ"/>
			<glyph d="M115 1501H504V385Q504 340 520 317T582 295Q601 295 635 301L647 4Q555 -14 455 -14Q279 -14 197 69T115 315ZM723 1517Q803 1517 850 1470T897 1337Q897 1240 852 1163T729 1013L627 1106Q655 1134 676 1170T703 1247Q643 1256 607 1292T572 1380Q572 1418 592 1449T646 1499T723 1517Z" horiz-adv-x="690" unicode="ľ"/>
			<glyph d="M113 1409H522V340H1114V0H113ZM975 1042Q1033 1042 1080 1016T1154 944T1181 840Q1181 783 1154 738T1080 668T975 643Q915 643 867 667T793 737T766 840Q766 898 793 944T867 1016T975 1042Z" horiz-adv-x="1202" unicode="Ŀ"/>
			<glyph d="M115 1501H504V385Q504 340 520 317T582 295Q601 295 635 301L647 4Q555 -14 455 -14Q279 -14 197 69T115 315ZM807 1044Q865 1044 912 1018T986 946T1013 842Q1013 785 986 740T912 670T807 645Q747 645 699 669T625 739T598 842Q598 900 625 946T699 1018T807 1044Z" horiz-adv-x="915" unicode="ŀ"/>
			<glyph d="M113 1409H522V942L766 1051V748L522 641V340H1114V0H113V460L-6 408V707L113 760Z" horiz-adv-x="1135" unicode="Ł"/>
			<glyph d="M125 1501H514V1045L635 1112V827L514 760V385Q514 340 530 317T592 295Q611 295 645 301L657 4Q565 -14 465 -14Q289 -14 207 69T125 315V543L10 479V766L125 830Z" horiz-adv-x="700" unicode="ł"/>
			<glyph d="M113 1409H594L1085 465Q1073 554 1073 817V1409H1450V0H963L481 905Q489 709 489 506V0H113ZM804 1833H1140V1776L784 1501H554V1542Z" horiz-adv-x="1563" unicode="Ń"/>
			<glyph d="M872 1137Q1062 1137 1149 1025T1237 719V0H848V608Q848 706 814 757T700 809Q612 809 566 750T520 582V0H131V866Q131 936 127 1004T119 1116H494Q500 1084 506 1023T512 934H516Q574 1039 661 1088T872 1137ZM774 1542H1110V1485L772 1206H524V1247Z" horiz-adv-x="1350" unicode="ń"/>
			<glyph d="M113 1409H594L1085 465Q1073 554 1073 817V1409H1450V0H963L481 905Q489 709 489 506V0H113ZM721 -61Q795 -61 840 -105T886 -229Q886 -308 842 -370T721 -496L620 -408Q642 -389 662 -362T694 -309Q636 -300 601 -266T567 -184Q567 -130 610 -95T721 -61Z" horiz-adv-x="1563" unicode="Ņ"/>
			<glyph d="M872 1137Q1062 1137 1149 1025T1237 719V0H848V608Q848 706 814 757T700 809Q612 809 566 750T520 582V0H131V866Q131 936 127 1004T119 1116H494Q500 1084 506 1023T512 934H516Q574 1039 661 1088T872 1137ZM670 -61Q744 -61 789 -105T835 -229Q835 -308 791 -370T670 -496L569 -408Q591 -389 611 -362T643 -309Q585 -300 550 -266T516 -184Q516 -130 559 -95T670 -61Z" horiz-adv-x="1350" unicode="ņ"/>
			<glyph d="M113 1409H594L1085 465Q1073 554 1073 817V1409H1450V0H963L481 905Q489 709 489 506V0H113ZM372 1833H601L782 1679H788L962 1833H1191V1794L935 1499H634L372 1794Z" horiz-adv-x="1563" unicode="Ň"/>
			<glyph d="M872 1137Q1062 1137 1149 1025T1237 719V0H848V608Q848 706 814 757T700 809Q612 809 566 750T520 582V0H131V866Q131 936 127 1004T119 1116H494Q500 1084 506 1023T512 934H516Q574 1039 661 1088T872 1137ZM315 1542H535L701 1391H707L875 1542H1094V1507L852 1198H553L315 1507Z" horiz-adv-x="1350" unicode="ň"/>
			<glyph d="M1179 1137Q1369 1137 1456 1025T1544 719V0H1155V608Q1155 706 1121 757T1007 809Q919 809 873 750T827 582V0H438V866Q438 936 434 1004T426 1116H801Q807 1084 813 1023T819 934H823Q881 1039 968 1088T1179 1137ZM151 1432Q251 1432 306 1371T362 1192Q362 1095 327 1001T244 828T121 647L-33 754Q24 827 66 899T127 1051Q44 1063 -5 1113T-54 1235Q-54 1293 -28 1337T44 1407T151 1432Z" horiz-adv-x="1657" unicode="ŉ"/>
			<glyph d="M113 1409H594L1085 465Q1073 554 1073 817V1409H1450V377H1452V-12Q1452 -147 1396 -244T1232 -394T975 -446Q778 -446 612 -340L770 -66Q860 -127 944 -127Q1013 -127 1047 -96T1081 -14V0H963L481 905Q489 709 489 506V0H113Z" horiz-adv-x="1565" unicode="Ŋ"/>
			<glyph d="M872 1137Q1062 1137 1149 1025T1237 719V-57Q1237 -184 1186 -271T1046 -402T838 -446Q723 -446 641 -430L668 -129Q704 -133 741 -133Q795 -133 821 -106T848 -8V608Q848 706 814 757T700 809Q612 809 566 750T520 582V0H131V866Q131 936 127 1004T119 1116H494Q500 1084 506 1023T512 934H516Q574 1039 661 1088T872 1137Z" horiz-adv-x="1350" unicode="ŋ"/>
			<glyph d="M799 1430Q1032 1430 1202 1341T1463 1090T1554 711Q1554 493 1460 327T1194 70T797 -20Q559 -20 388 73T129 331T41 711Q41 930 132 1092T394 1342T799 1430ZM799 1081Q700 1081 625 1035T511 905T471 711Q471 598 511 511T625 376T797 328Q902 328 975 376T1086 511T1124 711Q1124 821 1083 905T969 1035T799 1081ZM493 1763H1128V1542H493Z" horiz-adv-x="1595" unicode="Ō"/>
			<glyph d="M655 1137Q863 1137 995 1058T1188 850T1249 561Q1249 402 1182 270T981 59T649 -20Q460 -20 327 58T128 268T61 561Q61 717 126 848T324 1058T655 1137ZM659 831Q563 831 517 760T471 561Q471 433 516 359T647 285Q745 285 792 357T840 561Q840 689 795 760T659 831ZM315 1487H995V1253H315Z" horiz-adv-x="1311" unicode="ō"/>
			<glyph d="M799 1430Q1032 1430 1202 1341T1463 1090T1554 711Q1554 493 1460 327T1194 70T797 -20Q559 -20 388 73T129 331T41 711Q41 930 132 1092T394 1342T799 1430ZM799 1081Q700 1081 625 1035T511 905T471 711Q471 598 511 511T625 376T797 328Q902 328 975 376T1086 511T1124 711Q1124 821 1083 905T969 1035T799 1081ZM417 1833H628Q645 1767 695 1733T813 1700Q881 1700 933 1734T997 1833H1212Q1201 1742 1153 1668T1018 1549T811 1505Q694 1505 605 1550T467 1670T417 1833Z" horiz-adv-x="1595" unicode="Ŏ"/>
			<glyph d="M655 1137Q863 1137 995 1058T1188 850T1249 561Q1249 402 1182 270T981 59T649 -20Q460 -20 327 58T128 268T61 561Q61 717 126 848T324 1058T655 1137ZM659 831Q563 831 517 760T471 561Q471 433 516 359T647 285Q745 285 792 357T840 561Q840 689 795 760T659 831ZM272 1542H487Q509 1476 547 1446T659 1417Q735 1417 774 1447T833 1542H1046Q1022 1382 925 1291T655 1200Q545 1200 462 1243T330 1363T272 1542Z" horiz-adv-x="1311" unicode="ŏ"/>
			<glyph d="M799 1430Q1032 1430 1202 1341T1463 1090T1554 711Q1554 493 1460 327T1194 70T797 -20Q559 -20 388 73T129 331T41 711Q41 930 132 1092T394 1342T799 1430ZM799 1081Q700 1081 625 1035T511 905T471 711Q471 598 511 511T625 376T797 328Q902 328 975 376T1086 511T1124 711Q1124 821 1083 905T969 1035T799 1081ZM572 1833H875V1776L553 1501H383V1548ZM1045 1833H1348V1776L1029 1501H857V1548Z" horiz-adv-x="1595" unicode="Ő"/>
			<glyph d="M655 1137Q863 1137 995 1058T1188 850T1249 561Q1249 402 1182 270T981 59T649 -20Q460 -20 327 58T128 268T61 561Q61 717 126 848T324 1058T655 1137ZM659 831Q563 831 517 760T471 561Q471 433 516 359T647 285Q745 285 792 357T840 561Q840 689 795 760T659 831ZM405 1540H749V1483L487 1206H250V1247ZM864 1540H1208V1483L946 1206H708V1247Z" horiz-adv-x="1311" unicode="ő"/>
			<glyph d="M795 1423Q887 1423 1008 1409H1993V1069H1364V870H1931V526H1364V340H2034V0H1010Q889 -14 793 -14Q553 -14 383 77T127 333T41 711Q41 930 131 1090T391 1337T795 1423ZM809 1083Q703 1083 624 1040T503 914T461 711Q461 587 505 500T627 370T807 326Q900 326 954 344V1067Q886 1083 809 1083Z" horiz-adv-x="2079" unicode="Œ"/>
			<glyph d="M655 1137Q783 1137 885 1093T1044 975Q1104 1055 1201 1096T1427 1137Q1598 1137 1707 1065T1867 871T1917 592Q1917 522 1911 451H1245Q1248 365 1295 317T1438 270Q1496 270 1536 277T1620 304T1737 365L1884 115Q1813 70 1750 41T1606 -3T1417 -20Q1294 -20 1194 21T1034 143Q973 66 873 23T649 -20Q457 -20 325 50T127 251T61 561Q61 726 125 856T323 1061T655 1137ZM1397 858Q1331 858 1291 817T1245 696H1542Q1539 784 1502 821T1397 858ZM659 831Q563 831 517 760T471 561Q471 433 516 359T647 285Q745 285 792 357T840 561Q840 689 795 760T659 831Z" horiz-adv-x="1962" unicode="œ"/>
			<glyph d="M113 1409H823Q1105 1409 1243 1288T1382 948Q1382 849 1347 766T1251 626T1112 537L1473 0H989L719 455H522V0H113ZM522 1079V782H770Q869 782 920 822T971 934Q971 1011 919 1045T766 1079ZM770 1833H1106V1776L750 1501H520V1542Z" horiz-adv-x="1481" unicode="Ŕ"/>
			<glyph d="M784 1137Q839 1137 887 1118L870 764Q839 772 811 777T748 782Q643 782 581 720T520 518V0H133V860Q133 927 129 1000T121 1116H487Q493 1086 498 1033T504 950H508Q552 1040 616 1088T784 1137ZM561 1542H897V1485L559 1206H311V1247Z" horiz-adv-x="897" unicode="ŕ"/>
			<glyph d="M113 1409H823Q1105 1409 1243 1288T1382 948Q1382 849 1347 766T1251 626T1112 537L1473 0H989L719 455H522V0H113ZM522 1079V782H770Q869 782 920 822T971 934Q971 1011 919 1045T766 1079ZM730 -61Q804 -61 849 -105T895 -229Q895 -308 851 -370T730 -496L629 -408Q651 -389 671 -362T703 -309Q645 -300 610 -266T576 -184Q576 -130 619 -95T730 -61Z" horiz-adv-x="1481" unicode="Ŗ"/>
			<glyph d="M784 1137Q839 1137 887 1118L870 764Q839 772 811 777T748 782Q643 782 581 720T520 518V0H133V860Q133 927 129 1000T121 1116H487Q493 1086 498 1033T504 950H508Q552 1040 616 1088T784 1137ZM316 -61Q390 -61 435 -105T481 -229Q481 -308 437 -370T316 -496L215 -408Q237 -389 257 -362T289 -309Q231 -300 196 -266T162 -184Q162 -130 205 -95T316 -61Z" horiz-adv-x="897" unicode="ŗ"/>
			<glyph d="M113 1409H823Q1105 1409 1243 1288T1382 948Q1382 849 1347 766T1251 626T1112 537L1473 0H989L719 455H522V0H113ZM522 1079V782H770Q869 782 920 822T971 934Q971 1011 919 1045T766 1079ZM338 1833H567L748 1679H754L928 1833H1157V1794L901 1499H600L338 1794Z" horiz-adv-x="1481" unicode="Ř"/>
			<glyph d="M784 1137Q839 1137 887 1118L870 764Q839 772 811 777T748 782Q643 782 581 720T520 518V0H133V860Q133 927 129 1000T121 1116H487Q493 1086 498 1033T504 950H508Q552 1040 616 1088T784 1137ZM102 1542H322L488 1391H494L662 1542H881V1507L639 1198H340L102 1507Z" horiz-adv-x="897" unicode="ř"/>
			<glyph d="M696 1430Q872 1430 1015 1379T1257 1223L1028 979Q949 1050 867 1086T684 1122Q522 1122 522 1024Q522 987 549 965T626 929T772 895Q932 862 1038 819T1213 685T1282 438Q1282 296 1216 193T1017 35T690 -20Q476 -20 311 45T41 238L287 485Q367 399 462 350T696 301Q792 301 837 324T883 399Q883 440 849 467T756 512T588 555Q450 586 349 631T184 765T119 993Q119 1136 190 1234T391 1381T696 1430ZM710 1833H1046V1776L690 1501H460V1542Z" horiz-adv-x="1329" unicode="Ś"/>
			<glyph d="M545 1137Q816 1137 999 981L825 766Q695 864 567 864Q513 864 484 847T455 801Q455 778 472 764T522 740T621 717Q746 689 829 652T963 547T1014 365Q1014 244 956 157T787 25T520 -20Q370 -20 245 21T31 137L186 391Q269 330 344 296T516 262Q635 262 635 319Q635 345 612 361T551 389T428 420Q265 458 170 535T76 766Q76 877 130 961T289 1091T545 1137ZM614 1542H950V1485L612 1206H364V1247Z" horiz-adv-x="1044" unicode="ś"/>
			<glyph d="M696 1430Q872 1430 1015 1379T1257 1223L1028 979Q949 1050 867 1086T684 1122Q522 1122 522 1024Q522 987 549 965T626 929T772 895Q932 862 1038 819T1213 685T1282 438Q1282 296 1216 193T1017 35T690 -20Q476 -20 311 45T41 238L287 485Q367 399 462 350T696 301Q792 301 837 324T883 399Q883 440 849 467T756 512T588 555Q450 586 349 631T184 765T119 993Q119 1136 190 1234T391 1381T696 1430ZM534 1833H835L1097 1540V1501H868L688 1653H681L507 1501H278V1540Z" horiz-adv-x="1329" unicode="Ŝ"/>
			<glyph d="M545 1137Q816 1137 999 981L825 766Q695 864 567 864Q513 864 484 847T455 801Q455 778 472 764T522 740T621 717Q746 689 829 652T963 547T1014 365Q1014 244 956 157T787 25T520 -20Q370 -20 245 21T31 137L186 391Q269 330 344 296T516 262Q635 262 635 319Q635 345 612 361T551 389T428 420Q265 458 170 535T76 766Q76 877 130 961T289 1091T545 1137ZM397 1542H696L946 1233V1198H715L549 1350H543L375 1198H143V1233Z" horiz-adv-x="1044" unicode="ŝ"/>
			<glyph d="M696 1430Q872 1430 1015 1379T1257 1223L1028 979Q949 1050 867 1086T684 1122Q522 1122 522 1024Q522 987 549 965T626 929T772 895Q932 862 1038 819T1213 685T1282 438Q1282 296 1216 193T1017 35T690 -20Q476 -20 311 45T41 238L287 485Q367 399 462 350T696 301Q792 301 837 324T883 399Q883 440 849 467T756 512T588 555Q450 586 349 631T184 765T119 993Q119 1136 190 1234T391 1381T696 1430ZM620 0H803L775 -67Q952 -94 952 -223Q952 -313 882 -369T633 -426Q570 -426 508 -420V-274Q529 -277 559 -279T608 -281Q668 -281 691 -266T715 -225Q715 -193 690 -178T602 -164H561Z" horiz-adv-x="1329" unicode="Ş"/>
			<glyph d="M545 1137Q816 1137 999 981L825 766Q695 864 567 864Q513 864 484 847T455 801Q455 778 472 764T522 740T621 717Q746 689 829 652T963 547T1014 365Q1014 244 956 157T787 25T520 -20Q370 -20 245 21T31 137L186 391Q269 330 344 296T516 262Q635 262 635 319Q635 345 612 361T551 389T428 420Q265 458 170 535T76 766Q76 877 130 961T289 1091T545 1137ZM473 0H656L628 -67Q805 -94 805 -223Q805 -313 735 -369T486 -426Q423 -426 361 -420V-274Q382 -277 412 -279T461 -281Q521 -281 544 -266T568 -225Q568 -193 543 -178T455 -164H414Z" horiz-adv-x="1044" unicode="ş"/>
			<glyph d="M696 1430Q872 1430 1015 1379T1257 1223L1028 979Q949 1050 867 1086T684 1122Q522 1122 522 1024Q522 987 549 965T626 929T772 895Q932 862 1038 819T1213 685T1282 438Q1282 296 1216 193T1017 35T690 -20Q476 -20 311 45T41 238L287 485Q367 399 462 350T696 301Q792 301 837 324T883 399Q883 440 849 467T756 512T588 555Q450 586 349 631T184 765T119 993Q119 1136 190 1234T391 1381T696 1430ZM278 1833H507L688 1679H694L868 1833H1097V1794L841 1499H540L278 1794Z" horiz-adv-x="1329" unicode="Š"/>
			<glyph d="M545 1137Q816 1137 999 981L825 766Q695 864 567 864Q513 864 484 847T455 801Q455 778 472 764T522 740T621 717Q746 689 829 652T963 547T1014 365Q1014 244 956 157T787 25T520 -20Q370 -20 245 21T31 137L186 391Q269 330 344 296T516 262Q635 262 635 319Q635 345 612 361T551 389T428 420Q265 458 170 535T76 766Q76 877 130 961T289 1091T545 1137ZM155 1542H375L541 1391H547L715 1542H934V1507L692 1198H393L155 1507Z" horiz-adv-x="1044" unicode="š"/>
			<glyph d="M25 1409H1253V1069H844V0H752L723 -68Q903 -94 903 -223Q903 -313 833 -369T584 -426Q520 -426 459 -420V-274Q481 -277 510 -279T559 -281Q619 -281 642 -266T666 -225Q666 -193 641 -178T553 -164H512L569 0H434V1069H25Z" horiz-adv-x="1278" unicode="Ţ"/>
			<glyph d="M537 1399V1116H733V834H537V428Q537 362 557 331T623 301Q674 301 719 311L745 20Q671 0 605 -10T469 -20Q316 -20 231 63T147 311V834H12V1116H168L186 1372ZM389 0H572L544 -67Q721 -94 721 -223Q721 -313 651 -369T402 -426Q339 -426 277 -420V-274Q298 -277 328 -279T377 -281Q437 -281 460 -266T484 -225Q484 -193 459 -178T371 -164H330Z" horiz-adv-x="766" unicode="ţ"/>
			<glyph d="M25 1409H1253V1069H844V0H434V1069H25ZM229 1833H458L639 1679H645L819 1833H1048V1794L792 1499H491L229 1794Z" horiz-adv-x="1278" unicode="Ť"/>
			<glyph d="M537 1399V1116H733V834H537V428Q537 362 557 331T623 301Q674 301 719 311L745 20Q671 0 605 -10T469 -20Q316 -20 231 63T147 311V834H12V1116H168L186 1372ZM876 1517Q956 1517 1003 1470T1050 1337Q1050 1240 1005 1163T882 1013L780 1106Q808 1134 829 1170T856 1247Q796 1256 760 1292T725 1380Q725 1418 745 1449T799 1499T876 1517Z" horiz-adv-x="846" unicode="ť"/>
			<glyph d="M25 1409H1253V1069H844V750H1069V469H844V0H434V469H207V750H434V1069H25Z" horiz-adv-x="1278" unicode="Ŧ"/>
			<glyph d="M537 1399V1116H733V834H537V707H707V453H537V428Q537 362 557 331T623 301Q674 301 719 311L745 20Q671 0 605 -10T469 -20Q316 -20 231 63T147 311V453H18V707H147V834H12V1116H168L186 1372Z" horiz-adv-x="766" unicode="ŧ"/>
			<glyph d="M88 1409H498V596Q498 464 560 395T748 326Q876 326 941 398T1006 606V1409H1415V578Q1415 381 1333 247T1098 47T735 -20Q424 -20 256 126T88 567ZM573 1845Q621 1845 668 1827T786 1776Q835 1752 863 1740T913 1729Q956 1729 973 1755T1001 1845H1176Q1176 1760 1160 1687T1090 1558T928 1503Q883 1503 835 1521T722 1572Q669 1598 641 1609T590 1620Q558 1620 541 1607T516 1572T500 1503H324Q327 1592 342 1663T412 1789T573 1845Z" horiz-adv-x="1503" unicode="Ũ"/>
			<glyph d="M113 1116H502V508Q502 410 536 358T649 307Q738 307 783 366T829 535V1116H1219V250Q1219 181 1222 112T1231 0H856Q850 32 844 92T838 182H834Q776 75 689 25T477 -25Q289 -25 201 88T113 397ZM473 1542Q521 1542 568 1524T686 1473Q737 1448 764 1437T813 1427Q855 1427 873 1453T902 1542H1076Q1076 1404 1028 1300T828 1196Q783 1196 737 1213T622 1263Q574 1287 543 1299T490 1311Q458 1311 441 1298T416 1263T400 1196H224Q227 1285 242 1357T312 1485T473 1542Z" horiz-adv-x="1350" unicode="ũ"/>
			<glyph d="M88 1409H498V596Q498 464 560 395T748 326Q876 326 941 398T1006 606V1409H1415V578Q1415 381 1333 247T1098 47T735 -20Q424 -20 256 126T88 567ZM434 1763H1069V1542H434Z" horiz-adv-x="1503" unicode="Ū"/>
			<glyph d="M113 1116H502V508Q502 410 536 358T649 307Q738 307 783 366T829 535V1116H1219V250Q1219 181 1222 112T1231 0H856Q850 32 844 92T838 182H834Q776 75 689 25T477 -25Q289 -25 201 88T113 397ZM322 1487H1002V1253H322Z" horiz-adv-x="1350" unicode="ū"/>
			<glyph d="M88 1409H498V596Q498 464 560 395T748 326Q876 326 941 398T1006 606V1409H1415V578Q1415 381 1333 247T1098 47T735 -20Q424 -20 256 126T88 567ZM358 1833H569Q586 1767 636 1733T754 1700Q822 1700 874 1734T938 1833H1153Q1142 1742 1094 1668T959 1549T752 1505Q635 1505 546 1550T408 1670T358 1833Z" horiz-adv-x="1503" unicode="Ŭ"/>
			<glyph d="M113 1116H502V508Q502 410 536 358T649 307Q738 307 783 366T829 535V1116H1219V250Q1219 181 1222 112T1231 0H856Q850 32 844 92T838 182H834Q776 75 689 25T477 -25Q289 -25 201 88T113 397ZM279 1542H494Q516 1476 554 1446T666 1417Q742 1417 781 1447T840 1542H1053Q1029 1382 932 1291T662 1200Q552 1200 469 1243T337 1363T279 1542Z" horiz-adv-x="1350" unicode="ŭ"/>
			<glyph d="M88 1409H498V596Q498 464 560 395T748 326Q876 326 941 398T1006 606V1409H1415V578Q1415 381 1333 247T1098 47T735 -20Q424 -20 256 126T88 567ZM751 1892Q819 1892 875 1862T965 1776T998 1649Q998 1575 965 1520T875 1437T751 1408Q681 1408 622 1437T529 1520T495 1649Q495 1721 529 1776T623 1862T751 1892ZM751 1746Q708 1746 680 1718T653 1649Q653 1607 680 1581T751 1556Q793 1556 819 1581T845 1649Q845 1691 819 1718T751 1746Z" horiz-adv-x="1503" unicode="Ů"/>
			<glyph d="M113 1116H502V508Q502 410 536 358T649 307Q738 307 783 366T829 535V1116H1219V250Q1219 181 1222 112T1231 0H856Q850 32 844 92T838 182H834Q776 75 689 25T477 -25Q289 -25 201 88T113 397ZM666 1703Q742 1703 804 1669T903 1574T940 1433Q940 1350 903 1289T804 1197T666 1165Q588 1165 523 1197T419 1290T381 1433Q381 1513 419 1574T523 1669T666 1703ZM666 1529Q623 1529 595 1501T567 1433Q567 1391 594 1365T666 1339Q709 1339 734 1364T760 1433Q760 1475 734 1502T666 1529Z" horiz-adv-x="1350" unicode="ů"/>
			<glyph d="M88 1409H498V596Q498 464 560 395T748 326Q876 326 941 398T1006 606V1409H1415V578Q1415 381 1333 247T1098 47T735 -20Q424 -20 256 126T88 567ZM513 1833H816V1776L494 1501H324V1548ZM986 1833H1289V1776L970 1501H798V1548Z" horiz-adv-x="1503" unicode="Ű"/>
			<glyph d="M113 1116H502V508Q502 410 536 358T649 307Q738 307 783 366T829 535V1116H1219V250Q1219 181 1222 112T1231 0H856Q850 32 844 92T838 182H834Q776 75 689 25T477 -25Q289 -25 201 88T113 397ZM412 1540H756V1483L494 1206H257V1247ZM871 1540H1215V1483L953 1206H715V1247Z" horiz-adv-x="1350" unicode="ű"/>
			<glyph d="M88 1409H498V596Q498 464 560 395T748 326Q876 326 941 398T1006 606V1409H1415V578Q1415 381 1333 247T1098 47T735 -20Q424 -20 256 126T88 567ZM731 0H940Q868 -54 834 -94T801 -186Q801 -228 826 -251T899 -274Q945 -274 1000 -250V-422Q968 -439 914 -452T799 -465Q689 -465 624 -410T559 -254Q559 -169 601 -112T731 0Z" horiz-adv-x="1503" unicode="Ų"/>
			<glyph d="M113 1116H502V508Q502 410 536 358T649 307Q738 307 783 366T829 535V1116H1219V250Q1219 181 1222 112T1231 0H1145Q1078 -58 1054 -92T1030 -168Q1030 -209 1053 -232T1120 -256Q1149 -256 1174 -250T1229 -231V-403Q1198 -420 1144 -433T1028 -446Q918 -446 853 -391T788 -236Q788 -152 836 -92T972 0H856Q850 32 844 92T838 182H834Q776 75 689 25T477 -25Q289 -25 201 88T113 397Z" horiz-adv-x="1350" unicode="ų"/>
			<glyph d="M4 1409H424L551 756Q588 570 608 399Q627 529 668 756L786 1409H1276L1391 756Q1427 532 1440 399Q1450 485 1461 562T1495 756L1620 1409H2028L1696 0H1192L1069 674Q1039 842 1024 971Q1014 862 977 674L842 0H330ZM866 1833H1167L1429 1540V1501H1200L1020 1653H1013L839 1501H610V1540Z" horiz-adv-x="2032" unicode="Ŵ"/>
			<glyph d="M16 1116H408L498 635Q518 527 541 362Q554 490 584 633L682 1116H1114L1206 633Q1231 507 1249 362Q1264 473 1296 633L1393 1116H1749L1485 0H1028L928 508Q907 608 889 725Q880 647 852 508L750 0H289ZM745 1542H1044L1294 1233V1198H1063L897 1350H891L723 1198H491V1233Z" horiz-adv-x="1765" unicode="ŵ"/>
			<glyph d="M10 1409H455L709 860L971 1409H1413L915 496V0H506V496ZM557 1833H858L1120 1540V1501H891L711 1653H704L530 1501H301V1540Z" horiz-adv-x="1423" unicode="Ŷ"/>
			<glyph d="M10 1116H430L578 602Q609 488 625 397Q644 497 672 602L813 1116H1212L838 -25Q793 -162 733 -253T581 -395T356 -446Q214 -446 129 -416L178 -111Q197 -119 227 -125T291 -131Q335 -131 364 -112T403 -47L414 0ZM475 1542H774L1024 1233V1198H793L627 1350H621L453 1198H221V1233Z" horiz-adv-x="1223" unicode="ŷ"/>
			<glyph d="M10 1409H455L709 860L971 1409H1413L915 496V0H506V496ZM475 1853Q526 1853 567 1831T631 1769T655 1677Q655 1626 631 1585T567 1522T475 1499Q394 1499 344 1548T295 1677Q295 1757 344 1805T475 1853ZM934 1853Q985 1853 1026 1831T1090 1769T1114 1677Q1114 1626 1090 1585T1026 1522T934 1499Q853 1499 803 1548T754 1677Q754 1757 803 1805T934 1853Z" horiz-adv-x="1423" unicode="Ÿ"/>
			<glyph d="M106 1409H1225V1100L559 344H1276V0H45V313L705 1065H106ZM696 1833H1032V1776L676 1501H446V1542Z" horiz-adv-x="1321" unicode="Ź"/>
			<glyph d="M96 1116H1010V848L572 317H1038V0H72V266L519 803H96ZM628 1542H964V1485L626 1206H378V1247Z" horiz-adv-x="1106" unicode="ź"/>
			<glyph d="M106 1409H1225V1100L559 344H1276V0H45V313L705 1065H106ZM674 1855Q729 1855 773 1830T843 1762T868 1663Q868 1609 843 1567T773 1501T674 1477Q617 1477 572 1500T502 1565T477 1663Q477 1719 502 1762T572 1830T674 1855Z" horiz-adv-x="1321" unicode="Ż"/>
			<glyph d="M96 1116H1010V848L572 317H1038V0H72V266L519 803H96ZM559 1591Q617 1591 664 1565T738 1493T765 1389Q765 1332 738 1287T664 1217T559 1192Q499 1192 451 1216T377 1286T350 1389Q350 1447 377 1493T451 1565T559 1591Z" horiz-adv-x="1106" unicode="ż"/>
			<glyph d="M106 1409H1225V1100L559 344H1276V0H45V313L705 1065H106ZM264 1833H493L674 1679H680L854 1833H1083V1794L827 1499H526L264 1794Z" horiz-adv-x="1321" unicode="Ž"/>
			<glyph d="M96 1116H1010V848L572 317H1038V0H72V266L519 803H96ZM169 1542H389L555 1391H561L729 1542H948V1507L706 1198H407L169 1507Z" horiz-adv-x="1106" unicode="ž"/>
			<glyph d="M514 1518Q630 1518 750 1495L721 1233Q669 1251 625 1251Q571 1251 545 1221T520 1128V0H131V1169Q131 1331 223 1424T514 1518Z" horiz-adv-x="700" unicode="ſ"/>
			<glyph d="M868 1475Q917 1475 975 1463T1067 1438L1012 1171Q997 1176 968 1180T924 1184Q871 1184 847 1166T815 1110L805 1059H1006L954 772H748L510 -426H119L358 772H225L283 1059H414L438 1176Q467 1314 568 1394T868 1475Z" horiz-adv-x="1178" unicode="ƒ"/>
			<glyph d="M729 1853H1067V1796L931 1731Q994 1696 1031 1638T1069 1511Q1069 1448 1036 1391L1518 0H1100L1018 270H531L449 0H37L522 1396Q492 1450 492 1511Q492 1561 512 1606T567 1686ZM780 1620Q726 1620 691 1590T657 1511Q657 1463 691 1436T780 1409Q836 1409 871 1436T907 1511Q907 1561 871 1590T780 1620ZM774 1090Q763 1039 729 922L625 578H925L821 922Q786 1033 774 1090Z" horiz-adv-x="1548" unicode="Ǻ"/>
			<glyph d="M612 1133Q850 1133 975 1026T1100 680V430Q1100 171 1110 0H733Q725 82 725 147H719Q670 70 593 25T395 -20Q291 -20 213 25T94 149T53 330Q53 502 161 590T479 684L698 690V717Q698 838 545 838Q469 838 407 805T283 721L119 958Q211 1033 330 1083T612 1133ZM580 475Q506 475 469 446T432 365Q432 313 461 284T543 256Q588 256 623 285T678 363T698 471V475ZM618 1703Q694 1703 756 1669T855 1574T892 1433Q892 1350 855 1289T756 1197T618 1165Q540 1165 475 1197T371 1290T333 1433Q333 1513 371 1574T475 1669T618 1703ZM618 1529Q575 1529 547 1501T519 1433Q519 1391 546 1365T618 1339Q661 1339 686 1364T712 1433Q712 1475 686 1502T618 1529ZM633 1843H969V1794L631 1557H383V1592Z" horiz-adv-x="1190" unicode="ǻ"/>
			<glyph d="M729 1409H2083V1069H1399V870H2021V526H1399V340H2124V0H989V283H561L424 0H4ZM944 1083Q918 1016 852 881L711 590H989V1083ZM1361 1833H1697V1776L1341 1501H1111V1542Z" horiz-adv-x="2169" unicode="Ǽ"/>
			<glyph d="M1253 1137Q1427 1137 1538 1065T1700 869T1751 584Q1751 522 1745 451H1079Q1083 359 1140 314T1298 270Q1375 270 1434 290T1583 365L1731 115Q1629 50 1519 15T1274 -20Q1115 -20 1015 19T844 143Q773 65 682 22T457 -20Q326 -20 235 24T99 149T53 338Q53 505 170 592T535 686L698 690V717Q698 770 659 804T541 838Q485 838 437 821T352 780T272 721L109 958Q191 1027 313 1080T594 1133Q701 1133 780 1104T922 1016Q989 1077 1066 1107T1253 1137ZM1233 858Q1096 858 1079 696H1376Q1373 780 1335 819T1233 858ZM580 475Q507 475 469 446T432 362Q432 313 461 284T543 256Q619 256 658 317T698 471V475ZM991 1542H1327V1485L989 1206H741V1247Z" horiz-adv-x="1796" unicode="ǽ"/>
			<glyph d="M1159 1481H1403L1284 1292Q1415 1198 1484 1049T1554 711Q1554 493 1460 327T1194 70T797 -20Q628 -20 490 29L418 -86H174L307 125Q177 222 109 373T41 711Q41 930 132 1092T394 1342T799 1430Q961 1430 1099 1385ZM799 1081Q700 1081 625 1035T511 905T471 711Q471 574 528 478L899 1067Q851 1081 799 1081ZM1064 941L689 345Q740 328 797 328Q902 328 975 376T1086 511T1124 711Q1124 847 1064 941ZM827 1833H1163V1776L807 1501H577V1542Z" horiz-adv-x="1595" unicode="Ǿ"/>
			<glyph d="M1102 1178H1335L1123 946Q1184 870 1213 771T1243 561Q1243 402 1176 270T975 59T643 -20Q453 -20 316 62L199 -66H-37L183 175Q120 252 87 351T55 561Q55 717 120 848T318 1058T649 1137Q854 1137 992 1057ZM653 831Q557 831 511 760T465 561Q465 518 469 487L755 799Q714 831 653 831ZM831 626L548 316Q587 285 641 285Q739 285 786 357T834 561Q834 595 831 626ZM720 1542H1056V1485L718 1206H470V1247Z" horiz-adv-x="1300" unicode="ǿ"/>
			<glyph d="M696 1430Q872 1430 1015 1379T1257 1223L1028 979Q949 1050 867 1086T684 1122Q522 1122 522 1024Q522 987 549 965T626 929T772 895Q932 862 1038 819T1213 685T1282 438Q1282 296 1216 193T1017 35T690 -20Q476 -20 311 45T41 238L287 485Q367 399 462 350T696 301Q792 301 837 324T883 399Q883 440 849 467T756 512T588 555Q450 586 349 631T184 765T119 993Q119 1136 190 1234T391 1381T696 1430ZM676 -61Q750 -61 795 -105T841 -229Q841 -308 797 -370T676 -496L575 -408Q597 -389 617 -362T649 -309Q591 -300 556 -266T522 -184Q522 -130 565 -95T676 -61Z" horiz-adv-x="1329" unicode="Ș"/>
			<glyph d="M545 1137Q816 1137 999 981L825 766Q695 864 567 864Q513 864 484 847T455 801Q455 778 472 764T522 740T621 717Q746 689 829 652T963 547T1014 365Q1014 244 956 157T787 25T520 -20Q370 -20 245 21T31 137L186 391Q269 330 344 296T516 262Q635 262 635 319Q635 345 612 361T551 389T428 420Q265 458 170 535T76 766Q76 877 130 961T289 1091T545 1137ZM529 -61Q603 -61 648 -105T694 -229Q694 -308 650 -370T529 -496L428 -408Q450 -389 470 -362T502 -309Q444 -300 409 -266T375 -184Q375 -130 418 -95T529 -61Z" horiz-adv-x="1044" unicode="ș"/>
			<glyph d="M25 1409H1253V1069H844V0H434V1069H25ZM627 -61Q701 -61 746 -105T792 -229Q792 -308 748 -370T627 -496L526 -408Q548 -389 568 -362T600 -309Q542 -300 507 -266T473 -184Q473 -130 516 -95T627 -61Z" horiz-adv-x="1278" unicode="Ț"/>
			<glyph d="M537 1399V1116H733V834H537V428Q537 362 557 331T623 301Q674 301 719 311L745 20Q671 0 605 -10T469 -20Q316 -20 231 63T147 311V834H12V1116H168L186 1372ZM418 -61Q492 -61 537 -105T583 -229Q583 -308 539 -370T418 -496L317 -408Q339 -389 359 -362T391 -309Q333 -300 298 -266T264 -184Q264 -130 307 -95T418 -61Z" horiz-adv-x="766" unicode="ț"/>
			<glyph d="M125 1116H514V-57Q514 -184 465 -271T330 -402T127 -446Q17 -446 -78 -424L-53 -131Q-26 -141 12 -141Q69 -141 97 -108T125 -4Z" horiz-adv-x="643" unicode="ȷ"/>
			<glyph d="M266 1409H682L492 858H203Z" horiz-adv-x="819" unicode="ʼ"/>
			<glyph d="M262 1542H561L811 1233V1198H580L414 1350H408L240 1198H8V1233Z" horiz-adv-x="819" unicode="ˆ"/>
			<glyph d="M20 1542H240L406 1391H412L580 1542H799V1507L557 1198H258L20 1507Z" horiz-adv-x="819" unicode="ˇ"/>
			<glyph d="M70 1487H750V1253H70Z" horiz-adv-x="819" unicode="ˉ"/>
			<glyph d="M23 1542H238Q260 1476 298 1446T410 1417Q486 1417 525 1447T584 1542H797Q773 1382 676 1291T406 1200Q296 1200 213 1243T81 1363T23 1542Z" horiz-adv-x="819" unicode="˘"/>
			<glyph d="M410 1591Q468 1591 515 1565T589 1493T616 1389Q616 1332 589 1287T515 1217T410 1192Q350 1192 302 1216T228 1286T201 1389Q201 1447 228 1493T302 1565T410 1591Z" horiz-adv-x="819" unicode="˙"/>
			<glyph d="M416 1683Q492 1683 554 1649T653 1554T690 1413Q690 1330 653 1269T554 1177T416 1145Q338 1145 273 1177T169 1270T131 1413Q131 1493 169 1554T273 1649T416 1683ZM416 1509Q373 1509 345 1481T317 1413Q317 1371 344 1345T416 1319Q459 1319 484 1344T510 1413Q510 1455 484 1482T416 1509Z" horiz-adv-x="819" unicode="˚"/>
			<glyph d="M360 0H569Q497 -54 463 -94T430 -186Q430 -228 455 -251T528 -274Q574 -274 629 -250V-422Q597 -439 543 -452T428 -465Q318 -465 253 -410T188 -254Q188 -169 230 -112T360 0Z" horiz-adv-x="819" unicode="˛"/>
			<glyph d="M233 1542Q281 1542 328 1524T446 1473Q497 1448 524 1437T573 1427Q615 1427 633 1453T662 1542H836Q836 1404 788 1300T588 1196Q543 1196 497 1213T382 1263Q334 1287 303 1299T250 1311Q218 1311 201 1298T176 1263T160 1196H-16Q-13 1285 2 1357T72 1485T233 1542Z" horiz-adv-x="819" unicode="˜"/>
			<glyph d="M92 1540H436V1483L174 1206H-63V1247ZM551 1540H895V1483L633 1206H395V1247Z" horiz-adv-x="819" unicode="˝"/>
			<glyph d="M-682 1542H-344L-98 1247V1206H-338L-682 1485Z" horiz-adv-x="0" unicode="̀"/>
			<glyph d="M-465 1542H-129V1485L-467 1206H-715V1247Z" horiz-adv-x="0" unicode="́"/>
			<glyph d="M-557 1542H-258L-8 1233V1198H-239L-405 1350H-411L-579 1198H-811V1233Z" horiz-adv-x="0" unicode="̂"/>
			<glyph d="M-586 1542Q-538 1542 -490 1524T-373 1473Q-322 1448 -295 1437T-246 1427Q-204 1427 -186 1453T-157 1542H17Q17 1404 -31 1300T-231 1196Q-276 1196 -321 1213T-437 1263Q-485 1287 -515 1299T-569 1311Q-601 1311 -618 1298T-643 1263T-659 1196H-835Q-832 1285 -816 1357T-747 1485T-586 1542Z" horiz-adv-x="0" unicode="̃"/>
			<glyph d="M-749 1487H-69V1253H-749Z" horiz-adv-x="0" unicode="̄"/>
			<glyph d="M-796 1542H-581Q-559 1476 -521 1446T-409 1417Q-333 1417 -293 1447T-235 1542H-22Q-46 1382 -143 1291T-413 1200Q-523 1200 -606 1243T-737 1363T-796 1542Z" horiz-adv-x="0" unicode="̆"/>
			<glyph d="M-409 1591Q-351 1591 -304 1565T-230 1493T-203 1389Q-203 1332 -230 1287T-304 1217T-409 1192Q-469 1192 -516 1216T-591 1286T-618 1389Q-618 1447 -591 1493T-516 1565T-409 1591Z" horiz-adv-x="0" unicode="̇"/>
			<glyph d="M-624 1552Q-548 1552 -500 1504T-452 1378Q-452 1327 -474 1287T-535 1226T-624 1204Q-707 1204 -755 1250T-803 1378Q-803 1457 -754 1504T-624 1552ZM-192 1552Q-115 1552 -65 1503T-16 1376Q-16 1299 -65 1251T-192 1204Q-272 1204 -319 1250T-366 1376Q-366 1456 -318 1504T-192 1552Z" horiz-adv-x="0" unicode="̈"/>
			<glyph d="M-403 1703Q-327 1703 -264 1669T-165 1574T-129 1433Q-129 1350 -165 1289T-264 1197T-403 1165Q-481 1165 -546 1197T-649 1290T-688 1433Q-688 1513 -649 1574T-545 1669T-403 1703ZM-403 1529Q-446 1529 -474 1501T-502 1433Q-502 1391 -474 1365T-403 1339Q-360 1339 -334 1364T-309 1433Q-309 1475 -335 1502T-403 1529Z" horiz-adv-x="0" unicode="̊"/>
			<glyph d="M-717 1540H-373V1483L-635 1206H-872V1247ZM-258 1540H86V1483L-176 1206H-414V1247Z" horiz-adv-x="0" unicode="̋"/>
			<glyph d="M-799 1542H-579L-413 1391H-407L-239 1542H-20V1507L-262 1198H-561L-799 1507Z" horiz-adv-x="0" unicode="̌"/>
			<glyph d="M-397 1679L-282 1579Q-306 1559 -329 1528T-366 1468Q-301 1459 -262 1421T-223 1329Q-223 1268 -271 1229T-395 1190Q-479 1190 -531 1239T-583 1378Q-583 1466 -533 1536T-397 1679Z" horiz-adv-x="0" unicode="̒"/>
			<glyph d="M-409 -21Q-351 -21 -304 -47T-230 -119T-203 -223Q-203 -280 -230 -324T-304 -394T-409 -420Q-469 -420 -516 -395T-591 -326T-618 -223Q-618 -165 -591 -119T-516 -47T-409 -21Z" horiz-adv-x="0" unicode="̣"/>
			<glyph d="M-421 -61Q-347 -61 -301 -105T-256 -229Q-256 -308 -300 -370T-421 -496L-522 -408Q-500 -389 -480 -362T-448 -309Q-506 -300 -540 -266T-575 -184Q-575 -130 -532 -95T-421 -61Z" horiz-adv-x="0" unicode="̦"/>
			<glyph d="M-506 0H-323L-351 -67Q-174 -94 -174 -223Q-174 -313 -243 -369T-493 -426Q-556 -426 -618 -420V-274Q-597 -277 -567 -279T-518 -281Q-458 -281 -434 -266T-411 -225Q-411 -193 -435 -178T-524 -164H-565Z" horiz-adv-x="0" unicode="̧"/>
			<glyph d="M-459 0H-250Q-322 -54 -355 -94T-389 -186Q-389 -228 -364 -251T-291 -274Q-245 -274 -190 -250V-422Q-222 -439 -276 -452T-391 -465Q-501 -465 -566 -410T-631 -254Q-631 -169 -589 -112T-459 0Z" horiz-adv-x="0" unicode="̨"/>
			<glyph d="M104 1409H520L330 858H41Z" horiz-adv-x="520" unicode="ʹ"/>
			<glyph d="M104 274H520L330 -277H41Z" horiz-adv-x="520" unicode="͵"/>
			<glyph d="M416 1120Q513 1120 572 1061T631 903Q631 839 604 790T528 713T416 686Q315 686 257 745T199 903Q199 1003 257 1061T416 1120ZM406 418Q510 418 567 350T625 145Q625 -2 561 -139T389 -416L209 -309Q263 -247 309 -169T373 -12Q291 3 243 60T195 199Q195 264 222 313T297 390T406 418Z" horiz-adv-x="829" unicode=";"/>
			<glyph d="M289 1546H627V1497L471 1208H252V1251Z" horiz-adv-x="819" unicode="΄"/>
			<glyph d="M324 1690H612V1636L446 1206H285V1251ZM90 1528Q156 1528 198 1486T240 1380Q240 1316 198 1274T88 1233Q21 1233 -20 1273T-61 1378Q-61 1444 -19 1486T90 1528ZM721 1528Q786 1528 829 1486T872 1380Q872 1317 829 1275T719 1233Q654 1233 612 1273T571 1378Q571 1444 613 1486T721 1528Z" horiz-adv-x="819" unicode="΅"/>
			<glyph d="M526 1409H1030L1518 0H1100L1018 270H531L449 0H37ZM774 1090Q763 1039 729 922L625 578H925L821 922Q786 1033 774 1090ZM111 1546H449V1497L293 1208H74V1251Z" horiz-adv-x="1548" unicode="Ά"/>
			<glyph d="M416 975Q514 975 572 915T631 758Q631 694 604 644T529 568T416 541Q316 541 258 599T201 758Q201 857 259 916T416 975Z" horiz-adv-x="829" unicode="·"/>
			<glyph d="M113 1409H1180V1079H522V870H1118V537H522V332H1221V0H113ZM-258 1546H80V1497L-76 1208H-295V1251Z" unicode="Έ"/>
			<glyph d="M113 1409H522V903H1001V1409H1411V0H1001V535H522V0H113ZM-258 1546H80V1497L-76 1208H-295V1251Z" horiz-adv-x="1524" unicode="Ή"/>
			<glyph d="M113 1409H522V0H113ZM-258 1546H80V1497L-76 1208H-295V1251Z" horiz-adv-x="635" unicode="Ί"/>
			<glyph d="M799 1430Q1032 1430 1202 1341T1463 1090T1554 711Q1554 493 1460 327T1194 70T797 -20Q559 -20 388 73T129 331T41 711Q41 930 132 1092T394 1342T799 1430ZM799 1081Q700 1081 625 1035T511 905T471 711Q471 598 511 511T625 376T797 328Q902 328 975 376T1086 511T1124 711Q1124 821 1083 905T969 1035T799 1081ZM-92 1546H246V1497L90 1208H-129V1251Z" horiz-adv-x="1595" unicode="Ό"/>
			<glyph d="M10 1409H455L709 860L971 1409H1413L915 496V0H506V496ZM-321 1546H17V1497L-139 1208H-358V1251Z" horiz-adv-x="1423" unicode="Ύ"/>
			<glyph d="M846 1430Q1058 1430 1214 1361T1453 1162T1536 856Q1536 728 1504 633T1394 463T1180 328Q1262 340 1356 340H1577V0H909V463Q1038 523 1086 598T1135 776Q1135 920 1059 1001T846 1083Q709 1083 634 1001T559 776Q559 675 609 599T793 463V0H113V340H336Q393 340 444 336T520 328Q374 388 294 463T183 633T152 858Q152 1034 236 1163T477 1361T846 1430ZM-38 1546H300V1497L144 1208H-75V1251Z" horiz-adv-x="1690" unicode="Ώ"/>
			<glyph d="M113 1116H502V387Q502 328 521 302T594 276Q606 276 624 279T651 285L684 12Q639 -2 574 -11T453 -20Q281 -20 197 64T113 307ZM238 1690H526V1636L360 1206H199V1251ZM4 1528Q70 1528 112 1486T154 1380Q154 1316 112 1274T2 1233Q-65 1233 -106 1273T-147 1378Q-147 1444 -105 1486T4 1528ZM635 1528Q700 1528 743 1486T786 1380Q786 1317 743 1275T633 1233Q568 1233 526 1273T485 1378Q485 1444 527 1486T635 1528Z" horiz-adv-x="684" unicode="ΐ"/>
			<glyph d="M526 1409H1030L1518 0H1100L1018 270H531L449 0H37ZM774 1090Q763 1039 729 922L625 578H925L821 922Q786 1033 774 1090Z" horiz-adv-x="1548" unicode="Α"/>
			<glyph d="M113 1409H786Q1053 1409 1184 1320T1315 1053Q1315 921 1252 845T1073 739Q1210 718 1290 636T1370 406Q1370 202 1216 101T799 0H113ZM522 1108V872H717Q811 872 851 899T891 993Q891 1058 852 1083T731 1108ZM522 582V303H764Q856 303 905 333T954 444Q954 508 913 545T788 582Z" horiz-adv-x="1432" unicode="Β"/>
			<glyph d="M113 1409H1034V1069H522V0H113Z" horiz-adv-x="1055" unicode="Γ"/>
			<glyph d="M498 1409H999L1413 291V0H82V293ZM744 1102Q713 988 684 905L483 315H1012L807 905Q770 1015 744 1102Z" horiz-adv-x="1495" unicode="Δ"/>
			<glyph d="M113 1409H1180V1079H522V870H1118V537H522V332H1221V0H113Z" unicode="Ε"/>
			<glyph d="M106 1409H1225V1100L559 344H1276V0H45V313L705 1065H106Z" horiz-adv-x="1321" unicode="Ζ"/>
			<glyph d="M113 1409H522V903H1001V1409H1411V0H1001V535H522V0H113Z" horiz-adv-x="1524" unicode="Η"/>
			<glyph d="M786 1430Q1017 1430 1186 1341T1445 1090T1536 711Q1536 493 1443 327T1179 70T784 -20Q550 -20 382 73T128 331T41 711Q41 930 131 1092T389 1342T786 1430ZM786 1083Q686 1083 610 1037T494 907T453 711Q453 599 494 512T610 378T784 330Q891 330 967 378T1081 513T1120 711Q1120 822 1078 906T961 1037T786 1083ZM594 870H979V557H594Z" horiz-adv-x="1577" unicode="Θ"/>
			<glyph d="M113 1409H522V0H113Z" horiz-adv-x="635" unicode="Ι"/>
			<glyph d="M113 1409H522V838L987 1409H1468L958 817L1495 0H1032L684 555L522 403V0H113Z" horiz-adv-x="1516" unicode="Κ"/>
			<glyph d="M479 1409H1012L1448 0H1008L815 741Q770 915 741 1055Q724 975 677 792L664 741L473 0H37Z" horiz-adv-x="1479" unicode="Λ"/>
			<glyph d="M113 1409H719L877 836Q891 783 909 698T940 547Q952 612 971 696T1006 829L1167 1409H1757V0H1378V694Q1378 883 1386 1030Q1353 893 1282 645L1100 0H766L586 645Q514 893 483 1030Q489 843 489 694V0H113Z" horiz-adv-x="1870" unicode="Μ"/>
			<glyph d="M113 1409H594L1085 465Q1073 554 1073 817V1409H1450V0H963L481 905Q489 709 489 506V0H113Z" horiz-adv-x="1563" unicode="Ν"/>
			<glyph d="M109 1409H1171V1069H109ZM256 877H1030V532H256ZM76 340H1202V0H76Z" horiz-adv-x="1280" unicode="Ξ"/>
			<glyph d="M799 1430Q1032 1430 1202 1341T1463 1090T1554 711Q1554 493 1460 327T1194 70T797 -20Q559 -20 388 73T129 331T41 711Q41 930 132 1092T394 1342T799 1430ZM799 1081Q700 1081 625 1035T511 905T471 711Q471 598 511 511T625 376T797 328Q902 328 975 376T1086 511T1124 711Q1124 821 1083 905T969 1035T799 1081Z" horiz-adv-x="1595" unicode="Ο"/>
			<glyph d="M113 1409H1382V0H973V1042H522V0H113Z" horiz-adv-x="1495" unicode="Π"/>
			<glyph d="M104 1409H823Q1012 1409 1136 1348T1320 1179T1380 922Q1380 788 1322 673T1144 488T842 418H514V0H104ZM514 1077V748H788Q876 748 922 795T969 918Q969 994 921 1035T780 1077Z" horiz-adv-x="1421" unicode="Ρ"/>
			<glyph d="M76 1409H1104V1065H584L866 823V645L556 344H1176V0H61V313L492 735L76 1100Z" horiz-adv-x="1237" unicode="Σ"/>
			<glyph d="M25 1409H1253V1069H844V0H434V1069H25Z" horiz-adv-x="1278" unicode="Τ"/>
			<glyph d="M10 1409H455L709 860L971 1409H1413L915 496V0H506V496Z" horiz-adv-x="1423" unicode="Υ"/>
			<glyph d="M705 1409H1073V1284H1114Q1332 1284 1476 1216T1690 1027T1759 743Q1759 591 1691 462T1480 254T1126 176H1073V0H705V176H647Q435 176 294 254T86 461T20 743Q20 906 88 1027T299 1216T659 1284H705ZM678 981Q545 981 482 915T420 737Q420 669 445 610T528 515T678 479H705V981ZM1073 981V479H1102Q1195 479 1252 515T1335 610T1360 737Q1360 847 1295 914T1102 981Z" horiz-adv-x="1780" unicode="Φ"/>
			<glyph d="M51 1409H526L737 1021L938 1409H1409L1007 740L1440 0H969L726 452L496 0H20L479 742Z" horiz-adv-x="1460" unicode="Χ"/>
			<glyph d="M41 1409H430V944Q430 870 452 827T521 766T647 748H657V1409H1047V748H1057Q1136 748 1183 766T1253 827T1276 944V1409H1665V950Q1665 775 1611 657T1434 478T1104 416H1047V0H657V416H600Q390 416 267 477T92 656T41 950Z" horiz-adv-x="1706" unicode="Ψ"/>
			<glyph d="M846 1430Q1058 1430 1214 1361T1453 1162T1536 856Q1536 728 1504 633T1394 463T1180 328Q1262 340 1356 340H1577V0H909V463Q1038 523 1086 598T1135 776Q1135 920 1059 1001T846 1083Q709 1083 634 1001T559 776Q559 675 609 599T793 463V0H113V340H336Q393 340 444 336T520 328Q374 388 294 463T183 633T152 858Q152 1034 236 1163T477 1361T846 1430Z" horiz-adv-x="1690" unicode="Ω"/>
			<glyph d="M113 1409H522V0H113ZM73 1853Q124 1853 165 1831T229 1769T253 1677Q253 1626 229 1585T165 1522T73 1499Q-8 1499 -57 1548T-107 1677Q-107 1757 -57 1805T73 1853ZM532 1853Q583 1853 624 1831T688 1769T712 1677Q712 1626 688 1585T624 1522T532 1499Q451 1499 401 1548T352 1677Q352 1757 401 1805T532 1853Z" horiz-adv-x="635" unicode="Ϊ"/>
			<glyph d="M10 1409H455L709 860L971 1409H1413L915 496V0H506V496ZM512 1853Q563 1853 604 1831T668 1769T692 1677Q692 1626 668 1585T604 1522T512 1499Q431 1499 381 1548T332 1677Q332 1757 381 1805T512 1853ZM971 1853Q1022 1853 1063 1831T1127 1769T1151 1677Q1151 1626 1127 1585T1063 1522T971 1499Q890 1499 840 1548T791 1677Q791 1757 840 1805T971 1853Z" horiz-adv-x="1423" unicode="Ϋ"/>
			<glyph d="M545 1137Q824 1137 926 915L936 893L961 989L991 1116H1395Q1234 724 1167 565L1143 506L1182 397Q1200 347 1216 322T1253 288T1309 279Q1328 279 1356 285L1386 14Q1279 -20 1196 -20Q1112 -20 1055 19T954 158L942 184L909 141Q845 57 753 18T543 -20Q329 -20 195 109T61 541Q61 712 109 845T265 1058T545 1137ZM629 831Q463 831 463 559Q463 421 504 353T625 285Q661 285 688 302T741 358T793 469L811 518L791 604Q770 695 747 743T697 811T629 831ZM674 1546H1012V1497L856 1208H637V1251Z" horiz-adv-x="1436" unicode="ά"/>
			<glyph d="M530 1137Q670 1137 776 1096T979 967L786 758Q724 813 669 836T559 860Q442 860 442 795Q442 759 472 739T565 712T735 705V449Q586 449 515 423T444 340Q444 306 483 286T586 266Q650 266 702 293T813 367L1008 129Q914 49 806 14T561 -20Q395 -20 278 21T102 134T43 301Q43 389 90 447T211 533T369 569V573Q238 593 156 651T74 842Q74 938 131 1004T290 1103T530 1137ZM455 1546H793V1497L637 1208H418V1251Z" horiz-adv-x="997" unicode="έ"/>
			<glyph d="M877 1137Q1066 1137 1153 1025T1241 719V-426H852V608Q852 706 818 757T705 809Q616 809 570 750T524 582V0H135V760Q135 803 119 816T74 829Q60 829 45 823L20 1094Q130 1124 233 1124Q356 1124 421 1080T516 934H520Q578 1039 665 1088T877 1137ZM580 1546H918V1497L762 1208H543V1251Z" horiz-adv-x="1354" unicode="ή"/>
			<glyph d="M113 1116H502V387Q502 328 521 302T594 276Q606 276 624 279T651 285L684 12Q639 -2 574 -11T453 -20Q281 -20 197 64T113 307ZM236 1546H574V1497L418 1208H199V1251Z" horiz-adv-x="684" unicode="ί"/>
			<glyph d="M102 1116H492V489Q492 388 520 339T621 291Q686 291 721 329T768 430T780 586Q780 683 760 786T710 977T649 1116H1044Q1098 1012 1133 875T1169 575Q1169 289 1033 134T594 -20Q341 -20 221 89T102 424ZM512 1690H800V1636L634 1206H473V1251ZM278 1528Q344 1528 386 1486T428 1380Q428 1316 386 1274T276 1233Q209 1233 168 1273T127 1378Q127 1444 169 1486T278 1528ZM909 1528Q974 1528 1017 1486T1060 1380Q1060 1317 1017 1275T907 1233Q842 1233 800 1273T759 1378Q759 1444 801 1486T909 1528Z" horiz-adv-x="1231" unicode="ΰ"/>
			<glyph d="M545 1137Q824 1137 926 915L936 893L961 989L991 1116H1395Q1234 724 1167 565L1143 506L1182 397Q1200 347 1216 322T1253 288T1309 279Q1328 279 1356 285L1386 14Q1279 -20 1196 -20Q1112 -20 1055 19T954 158L942 184L909 141Q845 57 753 18T543 -20Q329 -20 195 109T61 541Q61 712 109 845T265 1058T545 1137ZM629 831Q463 831 463 559Q463 421 504 353T625 285Q661 285 688 302T741 358T793 469L811 518L791 604Q770 695 747 743T697 811T629 831Z" horiz-adv-x="1436" unicode="α"/>
			<glyph d="M672 1501Q926 1501 1059 1406T1192 1130Q1192 1001 1131 924T979 805Q1059 787 1131 742T1252 616T1300 418Q1300 297 1246 199T1082 43T811 -14Q716 -14 645 5T518 55H506Q510 -6 512 -52T514 -156V-426H125V1034Q125 1269 259 1385T672 1501ZM676 1212Q596 1212 555 1162T514 1012V309Q549 290 607 277T715 264Q810 264 858 311T907 438Q907 528 843 586T639 645V911Q725 938 768 981T811 1090Q811 1150 775 1181T676 1212Z" horiz-adv-x="1321" unicode="β"/>
			<glyph d="M152 1137Q304 1137 399 1082T543 905Q560 862 588 744T641 508T666 371Q710 491 744 709T778 1116H1221Q1221 984 1166 786T1019 371T819 -41Q768 -134 742 -234T717 -426H313Q313 -326 343 -206T422 2Q412 66 337 327T236 662Q206 740 168 778T66 817Q51 817 27 813L0 1124Q17 1128 69 1132T152 1137Z" horiz-adv-x="1278" unicode="γ"/>
			<glyph d="M217 1501H1135V1212H866Q797 1212 733 1216L973 995Q1217 767 1217 475Q1217 329 1148 216T949 42T643 -20Q460 -20 329 39T129 209T61 473Q61 605 113 704T253 877T469 1020L217 1274ZM649 834Q564 762 515 678T467 473Q467 388 509 332T643 276Q733 276 774 334T815 481Q815 582 773 663T649 834Z" horiz-adv-x="1278" unicode="δ"/>
			<glyph d="M530 1137Q670 1137 776 1096T979 967L786 758Q724 813 669 836T559 860Q442 860 442 795Q442 759 472 739T565 712T735 705V449Q586 449 515 423T444 340Q444 306 483 286T586 266Q650 266 702 293T813 367L1008 129Q914 49 806 14T561 -20Q395 -20 278 21T102 134T43 301Q43 389 90 447T211 533T369 569V573Q238 593 156 651T74 842Q74 938 131 1004T290 1103T530 1137Z" horiz-adv-x="997" unicode="ε"/>
			<glyph d="M166 1501H942V1239Q695 1016 554 835T414 498Q414 435 440 396T516 332T659 279Q759 247 829 209T948 99T997 -86Q997 -200 957 -293T874 -446L604 -336Q630 -294 644 -258T659 -188Q659 -140 630 -108T557 -57T438 -14Q300 28 216 70T76 198T20 428Q20 590 90 732T263 986T503 1213Q482 1212 449 1212H166Z" horiz-adv-x="991" unicode="ζ"/>
			<glyph d="M877 1137Q1066 1137 1153 1025T1241 719V-426H852V608Q852 706 818 757T705 809Q616 809 570 750T524 582V0H135V760Q135 803 119 816T74 829Q60 829 45 823L20 1094Q130 1124 233 1124Q356 1124 421 1080T516 934H520Q578 1039 665 1088T877 1137Z" horiz-adv-x="1354" unicode="η"/>
			<glyph d="M563 1501Q735 1501 848 1440T1024 1214T1087 743Q1087 427 1016 259T833 36T563 -20Q412 -20 299 37T113 262T41 743Q41 1041 110 1208T293 1438T563 1501ZM563 1225Q511 1225 480 1194T433 1092T410 895H723Q714 1021 695 1092T645 1194T563 1225ZM412 608Q419 465 435 389T482 284T565 254Q617 254 649 284T698 391T721 608Z" horiz-adv-x="1128" unicode="θ"/>
			<glyph d="M113 1116H502V387Q502 328 521 302T594 276Q606 276 624 279T651 285L684 12Q639 -2 574 -11T453 -20Q281 -20 197 64T113 307Z" horiz-adv-x="684" unicode="ι"/>
			<glyph d="M125 1116H514V713L809 1116H1260L881 670L1284 0H831L604 426L514 340V0H125Z" horiz-adv-x="1280" unicode="κ"/>
			<glyph d="M356 1518Q484 1518 573 1472T721 1343T825 1135L1059 481Q1085 409 1109 370T1160 317T1221 303L1243 -20Q1079 -20 989 3T839 95T735 311L719 365Q663 540 641 627Q626 573 588 459T532 295L422 0H10L463 995L453 1026Q429 1098 407 1136T355 1191T281 1208Q257 1208 223 1200T168 1184L96 1477Q138 1494 209 1506T356 1518Z" horiz-adv-x="1233" unicode="λ"/>
			<glyph d="M123 1116H512V520Q512 408 545 355T659 303Q838 303 838 510V1116H1227V344Q1227 301 1242 287T1288 274Q1303 274 1317 281L1341 10Q1233 -20 1128 -20Q1006 -20 940 14T846 129H842Q813 64 761 22T639 -20Q564 -20 514 33H510Q514 -10 514 -72V-426H123Z" horiz-adv-x="1358" unicode="μ"/>
			<glyph d="M190 1137Q327 1137 402 1100T515 994T592 793Q613 717 700 367Q770 492 806 604T854 833T866 1116H1268Q1268 924 1211 732T1068 366T862 0H473Q388 253 303 520Q274 612 252 664T198 750T119 784Q93 784 66 778L33 1122Q103 1137 190 1137Z" horiz-adv-x="1329" unicode="ν"/>
			<glyph d="M115 1501H948V1233Q808 1225 726 1214T590 1173T537 1087Q537 1036 583 1008T703 969T903 948V676Q729 671 627 656T470 600T414 479Q414 424 444 392T537 336T743 274Q832 250 901 216T1021 109T1073 -86Q1073 -200 1033 -293T950 -446L680 -336Q705 -294 720 -259T735 -188Q735 -118 677 -80T522 -14Q361 30 264 72T104 196T41 412Q41 566 134 680T455 815V817Q329 826 252 881T176 1032Q176 1164 328 1216Q234 1212 197 1212H115Z" horiz-adv-x="1032" unicode="ξ"/>
			<glyph d="M655 1137Q863 1137 995 1058T1188 850T1249 561Q1249 402 1182 270T981 59T649 -20Q460 -20 327 58T128 268T61 561Q61 717 126 848T324 1058T655 1137ZM659 831Q563 831 517 760T471 561Q471 433 516 359T647 285Q745 285 792 357T840 561Q840 689 795 760T659 831Z" horiz-adv-x="1311" unicode="ο"/>
			<glyph d="M231 1116H1665V831H1364V395Q1364 329 1392 302T1473 276Q1492 276 1516 280T1559 289L1608 16Q1537 -1 1476 -10T1339 -20Q1156 -20 1065 72T975 334V831H727V723Q727 486 707 324T645 0H248Q281 134 300 227T333 442T346 711V831H303Q219 831 166 825T68 803L41 1094Q73 1105 129 1110T231 1116Z" horiz-adv-x="1704" unicode="π"/>
			<glyph d="M633 1137Q806 1137 938 1066T1143 861T1217 541Q1217 380 1162 252T1002 52T754 -20Q683 -20 633 -3T553 38T487 100H483Q485 53 485 -8V-426H96V555Q96 744 160 874T344 1071T633 1137ZM635 846Q553 846 519 783T485 598V362Q521 321 568 296T666 272Q746 272 776 343T807 539Q807 694 765 770T635 846Z" horiz-adv-x="1257" unicode="ρ"/>
			<glyph d="M627 1137Q820 1137 931 1068T1110 885L838 711Q808 769 765 800T659 831Q562 831 515 758T469 557Q469 462 494 408T564 327T688 272Q790 236 869 194T1007 76T1067 -109Q1067 -205 1027 -291T944 -438L674 -328Q729 -237 729 -184Q729 -142 696 -113T609 -65T455 -18Q287 29 173 155T59 543Q59 706 112 839T292 1054T627 1137Z" horiz-adv-x="1110" unicode="ς"/>
			<glyph d="M745 1116H1380V834H1249Q1187 834 1053 838V836Q1137 752 1182 658T1227 446Q1227 312 1165 207T975 41T653 -20Q365 -20 214 122T63 530Q63 828 243 972T745 1116ZM715 831Q599 831 536 760T473 532Q473 401 517 335T647 270Q740 270 779 338T819 528Q819 617 800 697T745 831Z" horiz-adv-x="1401" unicode="σ"/>
			<glyph d="M268 1116H911V831H645V371Q645 316 670 296T754 276Q765 276 791 280T827 289L879 12Q746 -20 621 -20Q433 -20 344 67T256 330V831H240Q202 831 133 820T35 793L8 1081Q39 1096 115 1106T268 1116Z" horiz-adv-x="944" unicode="τ"/>
			<glyph d="M102 1116H492V489Q492 388 520 339T621 291Q686 291 721 329T768 430T780 586Q780 683 760 786T710 977T649 1116H1044Q1098 1012 1133 875T1169 575Q1169 289 1033 134T594 -20Q341 -20 221 89T102 424Z" horiz-adv-x="1231" unicode="υ"/>
			<glyph d="M522 1137L588 854Q499 831 464 747T430 541Q430 405 488 333T643 256V680Q643 822 693 924T836 1082T1059 1137Q1234 1137 1358 1067T1547 871T1612 573Q1612 283 1442 140T989 -16V-426H643V-20Q356 -6 193 139T31 575Q31 834 158 967T522 1137ZM1087 858Q1033 858 1011 815T989 676V252Q1069 260 1117 298T1189 411T1212 606Q1212 742 1182 800T1087 858Z" horiz-adv-x="1642" unicode="φ"/>
			<glyph d="M39 1137Q241 1137 348 1112T532 1007T679 752L815 1116H1237L860 414L1278 -426H862L639 96L416 -426H0L442 434L360 618Q326 695 289 734T200 789T61 805Z" horiz-adv-x="1235" unicode="χ"/>
			<glyph d="M662 1333H1030V276Q1123 276 1171 307T1235 398T1251 557V1116H1620V535Q1620 357 1566 235T1384 47T1034 -20V-426H662V-20Q350 -20 211 124T72 535V1116H440V559Q440 419 491 347T662 276Z" horiz-adv-x="1692" unicode="ψ"/>
			<glyph d="M215 1116H614Q471 895 471 575Q471 423 496 349T588 276Q647 276 669 329T692 502V782H1067V502Q1067 383 1090 329T1174 276Q1238 276 1263 349T1288 573Q1288 713 1253 853T1135 1116H1546Q1627 990 1662 857T1698 575Q1698 282 1580 131T1239 -20Q952 -20 879 180H872Q839 82 753 31T520 -20Q295 -20 178 130T61 573Q61 725 97 857T215 1116Z" horiz-adv-x="1759" unicode="ω"/>
			<glyph d="M113 1116H502V387Q502 328 521 302T594 276Q606 276 624 279T651 285L684 12Q639 -2 574 -11T453 -20Q281 -20 197 64T113 307ZM109 1552Q185 1552 233 1504T281 1378Q281 1327 259 1287T198 1226T109 1204Q26 1204 -22 1250T-70 1378Q-70 1457 -21 1504T109 1552ZM541 1552Q618 1552 667 1503T717 1376Q717 1299 667 1251T541 1204Q461 1204 414 1250T367 1376Q367 1456 414 1504T541 1552Z" horiz-adv-x="684" unicode="ϊ"/>
			<glyph d="M102 1116H492V489Q492 388 520 339T621 291Q686 291 721 329T768 430T780 586Q780 683 760 786T710 977T649 1116H1044Q1098 1012 1133 875T1169 575Q1169 289 1033 134T594 -20Q341 -20 221 89T102 424ZM383 1552Q459 1552 507 1504T555 1378Q555 1327 533 1287T472 1226T383 1204Q300 1204 252 1250T204 1378Q204 1457 252 1504T383 1552ZM815 1552Q892 1552 941 1503T991 1376Q991 1299 941 1251T815 1204Q735 1204 688 1250T641 1376Q641 1456 688 1504T815 1552Z" horiz-adv-x="1231" unicode="ϋ"/>
			<glyph d="M655 1137Q863 1137 995 1058T1188 850T1249 561Q1249 402 1182 270T981 59T649 -20Q460 -20 327 58T128 268T61 561Q61 717 126 848T324 1058T655 1137ZM659 831Q563 831 517 760T471 561Q471 433 516 359T647 285Q745 285 792 357T840 561Q840 689 795 760T659 831ZM567 1546H905V1497L749 1208H530V1251Z" horiz-adv-x="1311" unicode="ό"/>
			<glyph d="M102 1116H492V489Q492 388 520 339T621 291Q686 291 721 329T768 430T780 586Q780 683 760 786T710 977T649 1116H1044Q1098 1012 1133 875T1169 575Q1169 289 1033 134T594 -20Q341 -20 221 89T102 424ZM510 1546H848V1497L692 1208H473V1251Z" horiz-adv-x="1231" unicode="ύ"/>
			<glyph d="M215 1116H614Q471 895 471 575Q471 423 496 349T588 276Q647 276 669 329T692 502V782H1067V502Q1067 383 1090 329T1174 276Q1238 276 1263 349T1288 573Q1288 713 1253 853T1135 1116H1546Q1627 990 1662 857T1698 575Q1698 282 1580 131T1239 -20Q952 -20 879 180H872Q839 82 753 31T520 -20Q295 -20 178 130T61 573Q61 725 97 857T215 1116ZM791 1546H1129V1497L973 1208H754V1251Z" horiz-adv-x="1759" unicode="ώ"/>
			<glyph d="M113 1409H1180V1079H522V870H1118V537H522V332H1221V0H113ZM319 1833H655L901 1542V1501H672L319 1776Z" unicode="Ѐ"/>
			<glyph d="M113 1409H1180V1079H522V870H1118V537H522V332H1221V0H113ZM436 1853Q487 1853 528 1831T592 1769T616 1677Q616 1626 592 1585T528 1522T436 1499Q355 1499 305 1548T256 1677Q256 1757 305 1805T436 1853ZM895 1853Q946 1853 987 1831T1051 1769T1075 1677Q1075 1626 1051 1585T987 1522T895 1499Q814 1499 764 1548T715 1677Q715 1757 764 1805T895 1853Z" unicode="Ё"/>
			<glyph d="M25 1409H1245V1100H844V887Q956 926 1067 949T1292 973Q1528 973 1652 853T1776 483Q1776 240 1658 110T1313 -20Q1201 -20 1120 11T982 96T874 233L1128 436Q1162 378 1199 344T1290 311Q1346 311 1373 351T1401 463Q1401 562 1349 607T1192 653Q1113 653 1016 632T844 582V0H434V1100H25Z" horiz-adv-x="1860" unicode="Ђ"/>
			<glyph d="M113 1409H1034V1069H522V0H113ZM716 1833H1052V1776L696 1501H466V1542Z" horiz-adv-x="1055" unicode="Ѓ"/>
			<glyph d="M791 1430Q1031 1430 1188 1336T1438 1059L1100 899Q1057 979 980 1031T795 1083Q671 1083 584 1027T463 866H893V547H461Q493 442 575 386T793 330Q918 330 1000 393T1124 547L1458 375Q1385 201 1223 90T793 -20Q549 -20 380 73T126 331T41 711Q41 929 133 1091T394 1342T791 1430Z" horiz-adv-x="1468" unicode="Є"/>
			<glyph d="M696 1430Q872 1430 1015 1379T1257 1223L1028 979Q949 1050 867 1086T684 1122Q522 1122 522 1024Q522 987 549 965T626 929T772 895Q932 862 1038 819T1213 685T1282 438Q1282 296 1216 193T1017 35T690 -20Q476 -20 311 45T41 238L287 485Q367 399 462 350T696 301Q792 301 837 324T883 399Q883 440 849 467T756 512T588 555Q450 586 349 631T184 765T119 993Q119 1136 190 1234T391 1381T696 1430Z" horiz-adv-x="1329" unicode="Ѕ"/>
			<glyph d="M113 1409H522V0H113Z" horiz-adv-x="635" unicode="І"/>
			<glyph d="M113 1409H522V0H113ZM81 1853Q132 1853 173 1831T237 1769T261 1677Q261 1626 237 1585T173 1522T81 1499Q0 1499 -49 1548T-99 1677Q-99 1757 -49 1805T81 1853ZM540 1853Q591 1853 632 1831T696 1769T720 1677Q720 1626 696 1585T632 1522T540 1499Q459 1499 409 1548T360 1677Q360 1757 409 1805T540 1853Z" horiz-adv-x="635" unicode="Ї"/>
			<glyph d="M707 1409H1116V496Q1116 236 965 108T528 -20Q334 -20 199 57T-16 301L307 494Q336 439 364 403T430 347T522 326Q613 326 660 379T707 537Z" horiz-adv-x="1229" unicode="Ј"/>
			<glyph d="M344 1409H1348V903H1761Q2010 903 2135 790T2261 473Q2261 248 2121 124T1708 0H938V1042H692L621 526Q593 326 538 209T391 39T152 -14Q96 -14 66 -8T10 8L37 350Q61 342 88 342Q137 342 176 391T229 551ZM1348 584V322H1663Q1757 322 1803 352T1849 451Q1849 516 1801 550T1659 584Z" horiz-adv-x="2302" unicode="Љ"/>
			<glyph d="M113 1409H522V903H1001V1409H1411V903H1827Q2076 903 2201 790T2327 473Q2327 248 2187 124T1774 0H1001V584H522V0H113ZM1411 584V322H1729Q1823 322 1869 352T1915 451Q1915 516 1867 550T1724 584Z" horiz-adv-x="2367" unicode="Њ"/>
			<glyph d="M25 1409H1163V1100H803V887Q1019 936 1217 936Q1456 936 1573 815T1690 438V0H1300V389Q1300 503 1246 557T1061 612Q1008 612 935 600T803 571V0H393V1100H25Z" horiz-adv-x="1784" unicode="Ћ"/>
			<glyph d="M113 1409H522V864Q562 864 594 881T662 947T745 1092L903 1409H1348L1102 965Q1070 907 1021 840T956 760L1368 0H920L629 547Q610 538 579 533T522 528V0H113ZM700 1833H1036V1776L680 1501H450V1542Z" horiz-adv-x="1368" unicode="Ќ"/>
			<glyph d="M113 1409H489V838Q489 574 477 485L920 1409H1399V0H1022V485Q1022 688 1030 885L604 0H113ZM417 1833H753L999 1542V1501H770L417 1776Z" horiz-adv-x="1511" unicode="Ѝ"/>
			<glyph d="M12 1409H436L739 850L958 1409H1370L852 268Q723 -20 414 -20Q329 -20 241 2T96 63L211 403Q263 373 298 359T373 346Q422 346 462 372T530 467L547 506ZM280 1851H555V1821Q555 1756 584 1727T684 1698Q753 1698 785 1727T817 1821V1851H1089V1821Q1089 1745 1066 1678T954 1558T684 1505Q503 1505 414 1558T302 1678T280 1821Z" horiz-adv-x="1341" unicode="Ў"/>
			<glyph d="M113 1409H522V340H969V1409H1378V0H913V-418H573V0H113Z" horiz-adv-x="1491" unicode="Џ"/>
			<glyph d="M526 1409H1030L1518 0H1100L1018 270H531L449 0H37ZM774 1090Q763 1039 729 922L625 578H925L821 922Q786 1033 774 1090Z" horiz-adv-x="1548" unicode="А"/>
			<glyph d="M113 1409H1221V1077H522V883H938Q1104 883 1216 832T1383 687T1438 465Q1438 320 1376 216T1191 56T885 0H113ZM522 573V311H858Q944 311 985 343T1026 442Q1026 505 982 539T854 573Z" horiz-adv-x="1483" unicode="Б"/>
			<glyph d="M113 1409H786Q1053 1409 1184 1320T1315 1053Q1315 921 1252 845T1073 739Q1210 718 1290 636T1370 406Q1370 202 1216 101T799 0H113ZM522 1108V872H717Q811 872 851 899T891 993Q891 1058 852 1083T731 1108ZM522 582V303H764Q856 303 905 333T954 444Q954 508 913 545T788 582Z" horiz-adv-x="1432" unicode="В"/>
			<glyph d="M113 1409H1034V1069H522V0H113Z" horiz-adv-x="1055" unicode="Г"/>
			<glyph d="M377 1409H1362V319H1567V-426H1227V0H350V-426H10V319H162Q226 475 266 659T338 1098ZM719 1042L692 856Q658 618 575 319H973V1042Z" horiz-adv-x="1577" unicode="Д"/>
			<glyph d="M113 1409H1180V1079H522V870H1118V537H522V332H1221V0H113Z" unicode="Е"/>
			<glyph d="M20 1409H465L623 1092Q670 997 706 947T774 881T846 864V1409H1255V864Q1295 864 1327 881T1395 947T1479 1092L1636 1409H2081L1833 971Q1800 913 1751 846T1688 766L2101 0H1653L1362 563Q1343 555 1312 550T1255 545V0H846V545Q819 545 788 550T739 563L449 0H0L414 766Q399 778 350 845T268 971Z" horiz-adv-x="2101" unicode="Ж"/>
			<glyph d="M627 1432Q778 1432 898 1389T1089 1260T1159 1051Q1159 931 1096 849T934 730Q1045 707 1119 629T1194 416Q1194 292 1126 193T924 37T600 -20Q406 -20 256 44T10 240L264 483Q326 424 374 388T483 330T618 309Q793 309 793 428Q793 480 748 512T578 545H465V887H578Q764 887 764 1006Q764 1061 724 1088T618 1116Q555 1116 499 1092T402 1036T311 958L72 1190Q174 1301 303 1366T627 1432Z" horiz-adv-x="1255" unicode="З"/>
			<glyph d="M113 1409H489V838Q489 574 477 485L920 1409H1399V0H1022V485Q1022 688 1030 885L604 0H113Z" horiz-adv-x="1511" unicode="И"/>
			<glyph d="M113 1409H489V838Q489 574 477 485L920 1409H1399V0H1022V485Q1022 688 1030 885L604 0H113ZM366 1851H641V1821Q641 1756 670 1727T770 1698Q839 1698 871 1727T903 1821V1851H1175V1821Q1175 1745 1152 1678T1040 1558T770 1505Q589 1505 500 1558T388 1678T366 1821Z" horiz-adv-x="1511" unicode="Й"/>
			<glyph d="M113 1409H522V864Q562 864 594 881T662 947T745 1092L903 1409H1348L1102 965Q1070 907 1021 840T956 760L1368 0H920L629 547Q610 538 579 533T522 528V0H113Z" horiz-adv-x="1368" unicode="К"/>
			<glyph d="M344 1409H1350V0H940V1042H692L621 526Q593 326 538 209T391 39T152 -14Q96 -14 66 -8T10 8L37 350Q61 342 88 342Q137 342 176 391T229 551Z" horiz-adv-x="1462" unicode="Л"/>
			<glyph d="M113 1409H719L877 836Q891 783 909 698T940 547Q952 612 971 696T1006 829L1167 1409H1757V0H1378V694Q1378 883 1386 1030Q1353 893 1282 645L1100 0H766L586 645Q514 893 483 1030Q489 843 489 694V0H113Z" horiz-adv-x="1870" unicode="М"/>
			<glyph d="M113 1409H522V903H1001V1409H1411V0H1001V535H522V0H113Z" horiz-adv-x="1524" unicode="Н"/>
			<glyph d="M799 1430Q1032 1430 1202 1341T1463 1090T1554 711Q1554 493 1460 327T1194 70T797 -20Q559 -20 388 73T129 331T41 711Q41 930 132 1092T394 1342T799 1430ZM799 1081Q700 1081 625 1035T511 905T471 711Q471 598 511 511T625 376T797 328Q902 328 975 376T1086 511T1124 711Q1124 821 1083 905T969 1035T799 1081Z" horiz-adv-x="1595" unicode="О"/>
			<glyph d="M113 1409H1382V0H973V1042H522V0H113Z" horiz-adv-x="1495" unicode="П"/>
			<glyph d="M104 1409H823Q1012 1409 1136 1348T1320 1179T1380 922Q1380 788 1322 673T1144 488T842 418H514V0H104ZM514 1077V748H788Q876 748 922 795T969 918Q969 994 921 1035T780 1077Z" horiz-adv-x="1421" unicode="Р"/>
			<glyph d="M819 1430Q1060 1430 1217 1336T1466 1059L1128 899Q1085 980 1008 1031T823 1083Q721 1083 643 1037T523 906T481 711Q481 535 566 432T821 330Q947 330 1029 393T1153 547L1487 375Q1414 201 1251 90T821 -20Q574 -20 403 73T147 331T61 711Q61 929 154 1091T418 1342T819 1430Z" horiz-adv-x="1497" unicode="С"/>
			<glyph d="M25 1409H1253V1069H844V0H434V1069H25Z" horiz-adv-x="1278" unicode="Т"/>
			<glyph d="M12 1409H436L739 850L958 1409H1370L852 268Q723 -20 414 -20Q329 -20 241 2T96 63L211 403Q263 373 298 359T373 346Q422 346 462 372T530 467L547 506Z" horiz-adv-x="1341" unicode="У"/>
			<glyph d="M705 1409H1073V1284H1114Q1332 1284 1476 1216T1690 1027T1759 743Q1759 591 1691 462T1480 254T1126 176H1073V0H705V176H647Q435 176 294 254T86 461T20 743Q20 906 88 1027T299 1216T659 1284H705ZM678 981Q545 981 482 915T420 737Q420 669 445 610T528 515T678 479H705V981ZM1073 981V479H1102Q1195 479 1252 515T1335 610T1360 737Q1360 847 1295 914T1102 981Z" horiz-adv-x="1780" unicode="Ф"/>
			<glyph d="M51 1409H526L737 1021L938 1409H1409L1007 740L1440 0H969L726 452L496 0H20L479 742Z" horiz-adv-x="1460" unicode="Х"/>
			<glyph d="M113 1409H522V340H897V1409H1307V340H1538V-418H1198V0H113Z" horiz-adv-x="1548" unicode="Ц"/>
			<glyph d="M74 1409H463V1020Q463 906 516 851T702 797Q755 797 828 808T961 838V1409H1370V0H961V522Q743 473 547 473Q308 473 191 593T74 971Z" horiz-adv-x="1483" unicode="Ч"/>
			<glyph d="M113 1409H502V340H877V1409H1266V340H1640V1409H2030V0H113Z" horiz-adv-x="2142" unicode="Ш"/>
			<glyph d="M113 1409H502V340H877V1409H1266V340H1640V1409H2030V340H2257V-426H1915V0H113ZZ" horiz-adv-x="2267" unicode="Щ"/>
			<glyph d="M25 1409H838V903H1253Q1502 903 1627 790T1753 473Q1753 248 1613 124T1200 0H428V1069H25ZM838 582V319H1155Q1249 319 1295 350T1341 449Q1341 514 1293 548T1151 582Z" horiz-adv-x="1794" unicode="Ъ"/>
			<glyph d="M113 1409H522V903H938Q1187 903 1312 790T1438 473Q1438 248 1298 124T885 0H113ZM1581 1409H1991V0H1581ZM522 584V322H840Q934 322 980 352T1026 451Q1026 516 978 550T836 584Z" horiz-adv-x="2103" unicode="Ы"/>
			<glyph d="M113 1409H522V903H938Q1187 903 1312 790T1438 473Q1438 248 1298 124T885 0H113ZM522 584V322H840Q934 322 980 352T1026 451Q1026 516 978 550T836 584Z" horiz-adv-x="1479" unicode="Ь"/>
			<glyph d="M676 1430Q903 1430 1072 1342T1333 1091T1425 711Q1425 496 1340 331T1086 73T674 -20Q406 -20 243 90T8 375L342 547Q384 456 466 393T674 330Q809 330 892 386T1006 547H573V866H1004Q968 972 882 1027T672 1083Q563 1083 486 1031T367 899L29 1059Q120 1243 277 1336T676 1430Z" horiz-adv-x="1466" unicode="Э"/>
			<glyph d="M1458 1430Q1675 1430 1830 1336T2066 1079T2146 711Q2146 505 2062 338T1823 76T1456 -20Q1264 -20 1120 54T889 254T776 535H522V0H113V1409H522V901H778Q809 1054 897 1173T1128 1361T1458 1430ZM1458 1083Q1366 1083 1304 1033T1212 900T1182 711Q1182 605 1212 519T1304 381T1458 330Q1599 330 1665 438T1731 711Q1731 816 1701 900T1610 1033T1458 1083Z" horiz-adv-x="2206" unicode="Ю"/>
			<glyph d="M657 1409H1368V0H958V455H756L485 0H8L369 537Q291 568 230 626T133 767T98 948Q98 1167 236 1288T657 1409ZM715 1085Q613 1085 561 1051T510 940Q510 869 561 828T711 788H958V1085Z" horiz-adv-x="1481" unicode="Я"/>
			<glyph d="M612 1133Q850 1133 975 1026T1100 680V430Q1100 171 1110 0H733Q725 82 725 147H719Q670 70 593 25T395 -20Q291 -20 213 25T94 149T53 330Q53 502 161 590T479 684L698 690V717Q698 838 545 838Q469 838 407 805T283 721L119 958Q211 1033 330 1083T612 1133ZM580 475Q506 475 469 446T432 365Q432 313 461 284T543 256Q588 256 623 285T678 363T698 471V475Z" horiz-adv-x="1190" unicode="а"/>
			<glyph d="M1180 1516V1200Q1046 1190 969 1183T821 1165Q656 1142 570 1113T433 1019T362 828Q426 917 527 969T762 1022Q901 1022 1011 963T1184 789T1247 512Q1247 338 1174 218T971 39T670 -20Q396 -20 239 143T82 674Q82 978 186 1146T434 1377T764 1470Q831 1481 908 1489T1180 1516ZM676 731Q628 731 585 706T516 628T489 492Q489 373 541 321T668 270Q743 270 791 325T840 502Q840 622 793 676T676 731Z" horiz-adv-x="1309" unicode="б"/>
			<glyph d="M123 1116H729Q861 1116 951 1095T1095 1016T1149 850Q1149 735 1083 675T922 596V586Q1046 563 1121 506T1196 326Q1196 164 1086 82T745 0H123ZM512 879V707H657Q707 707 736 727T766 788Q766 835 737 857T657 879ZM512 455V246H668Q744 246 777 269T811 350Q811 406 775 430T668 455Z" horiz-adv-x="1260" unicode="в"/>
			<glyph d="M123 1116H780V834H512V0H123Z" horiz-adv-x="811" unicode="г"/>
			<glyph d="M371 1116H1268V287H1430V-426H1096V0H379V-426H45V287H199Q232 362 275 563T354 1008ZM692 834L684 778Q640 484 596 287H889V834Z" horiz-adv-x="1440" unicode="д"/>
			<glyph d="M631 1137Q899 1137 1022 985T1145 584Q1145 530 1139 459H473Q478 361 530 311T692 262Q759 262 816 284T965 365L1112 115Q1013 51 910 15T655 -20Q374 -20 217 120T61 549Q61 747 134 878T336 1073T631 1137ZM627 866Q560 866 520 823T473 696H770Q764 866 627 866Z" horiz-adv-x="1190" unicode="е"/>
			<glyph d="M41 1116H426L545 829Q571 766 611 735T709 705V1116H1079V705Q1136 705 1176 735T1243 829L1362 1116H1747L1595 764Q1550 659 1483 580L1778 0H1356L1178 414Q1155 412 1079 412V0H709V412Q641 412 610 414L432 0H10L305 580Q238 659 193 764Z" horiz-adv-x="1788" unicode="ж"/>
			<glyph d="M489 1137Q620 1137 718 1103T871 1004T926 842Q926 717 842 661T629 588V584Q712 577 786 546T908 455T956 301Q956 206 902 133T741 20T475 -20Q337 -20 226 15T20 129L215 367Q270 322 327 294T451 266Q502 266 528 285T555 340Q555 449 289 449H264V705H289Q390 705 448 714T532 743T557 795Q557 860 461 860Q405 860 350 836T233 758L41 967Q137 1056 243 1096T489 1137Z" horiz-adv-x="997" unicode="з"/>
			<glyph d="M123 1116H487V756Q487 621 481 442Q512 509 563 608L821 1116H1214V0H854V346Q854 496 864 645Q829 550 793 483L543 0H123Z" horiz-adv-x="1337" unicode="и"/>
			<glyph d="M123 1116H487V756Q487 621 481 442Q512 509 563 608L821 1116H1214V0H854V346Q854 496 864 645Q829 550 793 483L543 0H123ZM235 1559H530V1520Q530 1442 558 1411T651 1380Q714 1380 743 1412T773 1520V1559H1068V1520Q1068 1440 1044 1371T929 1247T651 1192Q465 1192 373 1247T258 1371T235 1520Z" horiz-adv-x="1337" unicode="й"/>
			<glyph d="M123 1116H492V705Q605 705 655 829L774 1116H1159L1008 764Q961 657 895 580L1190 0H768L590 414Q578 412 492 412V0H123Z" horiz-adv-x="1200" unicode="к"/>
			<glyph d="M315 1116H1237V0H848V834H643L582 358Q566 242 533 161T427 30T229 -20Q179 -20 121 -15T31 -4L63 279Q84 272 100 272Q136 272 162 285T208 341T238 463Z" horiz-adv-x="1356" unicode="л"/>
			<glyph d="M123 1116H655L745 743Q787 570 821 401L827 428Q870 635 895 743L981 1116H1503V0H1161V543Q1161 654 1174 809L963 0H678L453 805Q461 646 461 553V0H123Z" horiz-adv-x="1626" unicode="м"/>
			<glyph d="M123 1116H512V727H788V1116H1178V0H788V440H512V0H123Z" horiz-adv-x="1300" unicode="н"/>
			<glyph d="M655 1137Q863 1137 995 1058T1188 850T1249 561Q1249 402 1182 270T981 59T649 -20Q460 -20 327 58T128 268T61 561Q61 717 126 848T324 1058T655 1137ZM659 831Q563 831 517 760T471 561Q471 433 516 359T647 285Q745 285 792 357T840 561Q840 689 795 760T659 831Z" horiz-adv-x="1311" unicode="о"/>
			<glyph d="M123 1116H1157V0H768V834H512V0H123Z" horiz-adv-x="1280" unicode="п"/>
			<glyph d="M846 1137Q979 1137 1072 1070T1213 876T1262 565Q1262 380 1209 248T1057 48T819 -20Q713 -20 632 24T514 129H508Q510 105 512 63T514 -18V-426H125V848Q125 972 113 1116H494Q499 1096 504 1050T510 975H514Q563 1045 645 1091T846 1137ZM690 831Q615 831 562 770T510 557Q510 404 559 344T688 285Q757 285 804 350T852 565Q852 660 829 719T769 805T690 831Z" horiz-adv-x="1323" unicode="р"/>
			<glyph d="M639 1137Q813 1137 938 1068T1118 885L846 711Q812 768 771 799T666 831Q575 831 523 764T471 569Q471 434 523 364T664 295Q718 295 758 310T827 349T889 410L1118 203Q1043 103 920 41T637 -20Q455 -20 325 51T128 252T61 553Q61 739 133 870T336 1069T639 1137Z" horiz-adv-x="1118" unicode="с"/>
			<glyph d="M41 1116H969V834H700V0H311V834H41Z" horiz-adv-x="1010" unicode="т"/>
			<glyph d="M10 1116H430L578 602Q609 488 625 397Q644 497 672 602L813 1116H1212L838 -25Q793 -162 733 -253T581 -395T356 -446Q214 -446 129 -416L178 -111Q197 -119 227 -125T291 -131Q335 -131 364 -112T403 -47L414 0Z" horiz-adv-x="1223" unicode="у"/>
			<glyph d="M752 1501H1110V1143Q1110 1038 1108 995H1114Q1184 1143 1384 1143Q1600 1143 1699 989T1798 567Q1798 294 1696 137T1380 -20Q1306 -20 1228 10T1114 121H1110Q1112 45 1112 -18V-426H752V-18Q752 39 754 119H750Q677 -20 500 -20Q271 -20 166 131T61 551Q61 824 166 980T494 1137Q685 1137 752 1006H754Q752 1053 752 1139ZM618 836Q469 836 469 557Q469 421 505 352T612 283Q752 283 752 567Q752 722 715 779T618 836ZM1247 834Q1108 834 1108 559Q1108 283 1247 283Q1314 283 1352 348T1391 559Q1391 834 1247 834Z" horiz-adv-x="1860" unicode="ф"/>
			<glyph d="M18 1116H455L616 803L776 1116H1212L874 563L1235 0H797L616 330L430 0H0L356 561Z" horiz-adv-x="1235" unicode="х"/>
			<glyph d="M123 1116H512V287H748V1116H1137V287H1298V-426H965V0H123Z" horiz-adv-x="1313" unicode="ц"/>
			<glyph d="M70 1116H459V727Q459 621 580 621Q624 621 654 627T721 655V1116H1110V0H721V330Q629 314 570 307T465 301Q264 301 167 391T70 647Z" horiz-adv-x="1233" unicode="ч"/>
			<glyph d="M123 1116H485V287H700V1116H1063V287H1278V1116H1640V0H123Z" horiz-adv-x="1763" unicode="ш"/>
			<glyph d="M123 1116H485V287H700V1116H1063V287H1278V1116H1640V287H1776V-426H1440V0H123Z" horiz-adv-x="1786" unicode="щ"/>
			<glyph d="M41 1116H700V735H942Q1175 735 1288 650T1401 377Q1401 187 1287 93T944 0H311V834H41ZM700 477V262H838Q925 262 964 286T1004 371Q1004 432 965 454T838 477Z" horiz-adv-x="1432" unicode="ъ"/>
			<glyph d="M123 1116H512V735H754Q987 735 1099 651T1212 377Q1212 187 1098 93T756 0H123ZM1341 1116H1731V0H1341ZM512 477V262H649Q737 262 776 286T815 371Q815 432 776 454T649 477Z" horiz-adv-x="1853" unicode="ы"/>
			<glyph d="M123 1116H514V735H756Q989 735 1101 651T1214 377Q1214 187 1100 93T758 0H123ZM514 477V262H651Q739 262 778 286T817 371Q817 432 778 454T651 477Z" horiz-adv-x="1245" unicode="ь"/>
			<glyph d="M489 1137Q671 1137 805 1069T1012 871T1085 557Q1085 382 1018 252T819 51T500 -20Q189 -20 2 184L223 416Q261 371 293 344T366 303T463 289Q551 289 604 325T682 434H412V692H682Q664 763 612 797T483 831Q431 831 394 815T333 774T283 709L14 895Q94 1017 207 1077T489 1137Z" horiz-adv-x="1145" unicode="э"/>
			<glyph d="M1260 1137Q1460 1137 1588 1058T1774 850T1833 561Q1833 402 1768 270T1573 59T1253 -20Q1097 -20 979 39T789 202T694 436H512V0H123V1116H512V717H700Q729 837 800 931T987 1081T1260 1137ZM1264 831Q1178 831 1137 760T1096 561Q1096 434 1136 359T1251 285Q1339 285 1381 357T1423 561Q1423 689 1384 760T1264 831Z" horiz-adv-x="1894" unicode="ю"/>
			<glyph d="M565 1116H1165V0H776V399H659L426 0H10L305 457Q225 498 175 568T125 768Q125 939 235 1027T565 1116ZM657 856Q584 856 552 832T520 760Q520 710 554 686T657 662H778V856Z" horiz-adv-x="1288" unicode="я"/>
			<glyph d="M631 1137Q899 1137 1022 985T1145 584Q1145 530 1139 459H473Q478 361 530 311T692 262Q759 262 816 284T965 365L1112 115Q1013 51 910 15T655 -20Q374 -20 217 120T61 549Q61 747 134 878T336 1073T631 1137ZM627 866Q560 866 520 823T473 696H770Q764 866 627 866ZM262 1542H600L846 1247V1206H606L262 1485Z" horiz-adv-x="1190" unicode="ѐ"/>
			<glyph d="M631 1137Q899 1137 1022 985T1145 584Q1145 530 1139 459H473Q478 361 530 311T692 262Q759 262 816 284T965 365L1112 115Q1013 51 910 15T655 -20Q374 -20 217 120T61 549Q61 747 134 878T336 1073T631 1137ZM627 866Q560 866 520 823T473 696H770Q764 866 627 866ZM387 1552Q463 1552 511 1504T559 1378Q559 1327 537 1287T476 1226T387 1204Q304 1204 256 1250T208 1378Q208 1457 256 1504T387 1552ZM819 1552Q896 1552 945 1503T995 1376Q995 1299 945 1251T819 1204Q739 1204 692 1250T645 1376Q645 1456 692 1504T819 1552Z" horiz-adv-x="1190" unicode="ё"/>
			<glyph d="M131 1501H520V1393H793V1169H520V1108Q520 1010 514 948H518Q573 1043 659 1090T872 1137Q1064 1137 1150 1026T1237 719V-123Q1237 -213 1197 -281T1081 -388T897 -426Q762 -426 674 -410L705 -109Q737 -113 754 -113Q795 -113 815 -99T841 -57T848 27V608Q848 706 814 757T700 809Q612 809 566 750T520 582V0H131V1169H12V1393H131Z" horiz-adv-x="1350" unicode="ђ"/>
			<glyph d="M123 1116H780V834H512V0H123ZM520 1542H856V1485L518 1206H270V1247Z" horiz-adv-x="811" unicode="ѓ"/>
			<glyph d="M655 1137Q825 1137 938 1077T1130 895L862 709Q836 749 811 774T750 815T662 831Q585 831 532 797T463 692H733V434H463Q487 361 540 325T682 289Q738 289 779 303T852 344T922 416L1143 184Q956 -20 645 -20Q457 -20 325 51T126 252T59 557Q59 741 132 871T339 1069T655 1137Z" horiz-adv-x="1145" unicode="є"/>
			<glyph d="M545 1137Q816 1137 999 981L825 766Q695 864 567 864Q513 864 484 847T455 801Q455 778 472 764T522 740T621 717Q746 689 829 652T963 547T1014 365Q1014 244 956 157T787 25T520 -20Q370 -20 245 21T31 137L186 391Q269 330 344 296T516 262Q635 262 635 319Q635 345 612 361T551 389T428 420Q265 458 170 535T76 766Q76 877 130 961T289 1091T545 1137Z" horiz-adv-x="1044" unicode="ѕ"/>
			<glyph d="M322 1591Q380 1591 427 1565T501 1493T528 1389Q528 1332 501 1287T427 1217T322 1192Q262 1192 214 1216T140 1286T113 1389Q113 1447 140 1493T214 1565T322 1591ZM129 1116H518V0H129Z" horiz-adv-x="643" unicode="і"/>
			<glyph d="M129 1116H518V0H129ZM107 1552Q183 1552 231 1504T279 1378Q279 1327 257 1287T196 1226T107 1204Q24 1204 -24 1250T-72 1378Q-72 1457 -23 1504T107 1552ZM539 1552Q616 1552 665 1503T715 1376Q715 1299 665 1251T539 1204Q459 1204 412 1250T365 1376Q365 1456 412 1504T539 1552Z" horiz-adv-x="643" unicode="ї"/>
			<glyph d="M322 1591Q380 1591 427 1565T501 1493T528 1389Q528 1332 501 1287T427 1217T322 1192Q262 1192 214 1216T140 1286T113 1389Q113 1447 140 1493T214 1565T322 1591ZM125 1116H514V-57Q514 -184 465 -271T330 -402T127 -446Q17 -446 -78 -424L-53 -131Q-26 -141 12 -141Q69 -141 97 -108T125 -4Z" horiz-adv-x="643" unicode="ј"/>
			<glyph d="M315 1116H1237V735H1479Q1712 735 1824 651T1937 377Q1937 187 1823 93T1481 0H848V834H643L582 358Q566 242 533 161T427 30T229 -20Q179 -20 121 -15T31 -4L63 279Q84 272 100 272Q136 272 162 285T208 341T238 463ZM1237 477V262H1374Q1462 262 1501 286T1540 371Q1540 432 1501 454T1374 477Z" horiz-adv-x="1968" unicode="љ"/>
			<glyph d="M123 1116H512V727H788V1116H1178V735H1419Q1652 735 1765 650T1878 377Q1878 187 1764 93T1421 0H788V440H512V0H123ZM1178 477V262H1315Q1402 262 1441 286T1481 371Q1481 432 1442 454T1315 477Z" horiz-adv-x="1909" unicode="њ"/>
			<glyph d="M131 1501H520V1393H793V1169H520V1108Q520 1010 514 948H518Q573 1043 659 1090T872 1137Q1064 1137 1150 1026T1237 719V0H848V608Q848 706 814 757T700 809Q612 809 566 750T520 582V0H131V1169H12V1393H131Z" horiz-adv-x="1350" unicode="ћ"/>
			<glyph d="M123 1116H492V705Q605 705 655 829L774 1116H1159L1008 764Q961 657 895 580L1190 0H768L590 414Q578 412 492 412V0H123ZM677 1542H1013V1485L675 1206H427V1247Z" horiz-adv-x="1200" unicode="ќ"/>
			<glyph d="M123 1116H487V756Q487 621 481 442Q512 509 563 608L821 1116H1214V0H854V346Q854 496 864 645Q829 550 793 483L543 0H123ZM311 1542H649L895 1247V1206H655L311 1485Z" horiz-adv-x="1337" unicode="ѝ"/>
			<glyph d="M10 1116H430L578 602Q609 488 625 397Q644 497 672 602L813 1116H1212L838 -25Q793 -162 733 -253T581 -395T356 -446Q214 -446 129 -416L178 -111Q197 -119 227 -125T291 -131Q335 -131 364 -112T403 -47L414 0ZM209 1559H504V1520Q504 1442 532 1411T625 1380Q688 1380 717 1412T747 1520V1559H1042V1520Q1042 1440 1018 1371T903 1247T625 1192Q439 1192 347 1247T232 1371T209 1520Z" horiz-adv-x="1223" unicode="ў"/>
			<glyph d="M123 1116H512V287H768V1116H1157V0H809V-426H471V0H123Z" horiz-adv-x="1280" unicode="џ"/>
			<glyph d="M670 1853H997V1069H522V0H113V1409H670Z" horiz-adv-x="1038" unicode="Ґ"/>
			<glyph d="M522 1516H846V834H512V0H123V1116H522Z" horiz-adv-x="877" unicode="ґ"/>
			<glyph d="M4 1409H424L551 756Q588 570 608 399Q627 529 668 756L786 1409H1276L1391 756Q1427 532 1440 399Q1450 485 1461 562T1495 756L1620 1409H2028L1696 0H1192L1069 674Q1039 842 1024 971Q1014 862 977 674L842 0H330ZM667 1833H1003L1249 1542V1501H1020L667 1776Z" horiz-adv-x="2032" unicode="Ẁ"/>
			<glyph d="M16 1116H408L498 635Q518 527 541 362Q554 490 584 633L682 1116H1114L1206 633Q1231 507 1249 362Q1264 473 1296 633L1393 1116H1749L1485 0H1028L928 508Q907 608 889 725Q880 647 852 508L750 0H289ZM553 1542H891L1137 1247V1206H897L553 1485Z" horiz-adv-x="1765" unicode="ẁ"/>
			<glyph d="M4 1409H424L551 756Q588 570 608 399Q627 529 668 756L786 1409H1276L1391 756Q1427 532 1440 399Q1450 485 1461 562T1495 756L1620 1409H2028L1696 0H1192L1069 674Q1039 842 1024 971Q1014 862 977 674L842 0H330ZM1042 1833H1378V1776L1022 1501H792V1542Z" horiz-adv-x="2032" unicode="Ẃ"/>
			<glyph d="M16 1116H408L498 635Q518 527 541 362Q554 490 584 633L682 1116H1114L1206 633Q1231 507 1249 362Q1264 473 1296 633L1393 1116H1749L1485 0H1028L928 508Q907 608 889 725Q880 647 852 508L750 0H289ZM962 1542H1298V1485L960 1206H712V1247Z" horiz-adv-x="1765" unicode="ẃ"/>
			<glyph d="M4 1409H424L551 756Q588 570 608 399Q627 529 668 756L786 1409H1276L1391 756Q1427 532 1440 399Q1450 485 1461 562T1495 756L1620 1409H2028L1696 0H1192L1069 674Q1039 842 1024 971Q1014 862 977 674L842 0H330ZM784 1853Q835 1853 876 1831T940 1769T964 1677Q964 1626 940 1585T876 1522T784 1499Q703 1499 653 1548T604 1677Q604 1757 653 1805T784 1853ZM1243 1853Q1294 1853 1335 1831T1399 1769T1423 1677Q1423 1626 1399 1585T1335 1522T1243 1499Q1162 1499 1112 1548T1063 1677Q1063 1757 1112 1805T1243 1853Z" horiz-adv-x="2032" unicode="Ẅ"/>
			<glyph d="M16 1116H408L498 635Q518 527 541 362Q554 490 584 633L682 1116H1114L1206 633Q1231 507 1249 362Q1264 473 1296 633L1393 1116H1749L1485 0H1028L928 508Q907 608 889 725Q880 647 852 508L750 0H289ZM678 1552Q754 1552 802 1504T850 1378Q850 1327 828 1287T767 1226T678 1204Q595 1204 547 1250T499 1378Q499 1457 547 1504T678 1552ZM1110 1552Q1187 1552 1236 1503T1286 1376Q1286 1299 1236 1251T1110 1204Q1030 1204 983 1250T936 1376Q936 1456 983 1504T1110 1552Z" horiz-adv-x="1765" unicode="ẅ"/>
			<glyph d="M750 1430Q929 1430 1054 1381T1259 1259T1409 1081L1164 808Q1281 775 1357 685T1434 436Q1434 291 1368 188T1183 33T903 -20Q765 -20 641 8L698 315Q733 302 777 294T862 287Q952 287 997 324T1042 430Q1042 495 993 530T848 565H754V825L948 1027Q911 1074 860 1098T739 1122Q624 1122 572 1055T520 834V0H111V836Q111 1009 174 1141T380 1352T750 1430Z" horiz-adv-x="1501" unicode="ẞ"/>
			<glyph d="M10 1409H455L709 860L971 1409H1413L915 496V0H506V496ZM358 1833H694L940 1542V1501H711L358 1776Z" horiz-adv-x="1423" unicode="Ỳ"/>
			<glyph d="M10 1116H430L578 602Q609 488 625 397Q644 497 672 602L813 1116H1212L838 -25Q793 -162 733 -253T581 -395T356 -446Q214 -446 129 -416L178 -111Q197 -119 227 -125T291 -131Q335 -131 364 -112T403 -47L414 0ZM283 1542H621L867 1247V1206H627L283 1485Z" horiz-adv-x="1223" unicode="ỳ"/>
			<glyph d="M82 723H666V387H82Z" horiz-adv-x="748" unicode="‐"/>
			<glyph d="M76 723H1137V387H76Z" horiz-adv-x="1212" unicode="–"/>
			<glyph d="M76 723H1972V387H76Z" horiz-adv-x="2048" unicode="—"/>
			<glyph d="M76 723H1972V387H76Z" horiz-adv-x="2048" unicode="―"/>
			<glyph d="M-20 -59H1217V-203H-20ZM-20 -289H1217V-432H-20Z" horiz-adv-x="1186" unicode="‗"/>
			<glyph d="M303 1442L457 1335Q401 1264 358 1191T297 1038Q380 1026 428 976T477 854Q477 796 451 751T378 682T272 657Q172 657 116 718T61 897Q61 994 95 1088T179 1261T303 1442Z" horiz-adv-x="539" unicode="‘"/>
			<glyph d="M266 1432Q366 1432 421 1371T477 1192Q477 1095 442 1001T359 828T236 647L82 754Q139 827 181 899T242 1051Q159 1063 110 1113T61 1235Q61 1293 87 1337T159 1407T266 1432Z" horiz-adv-x="539" unicode="’"/>
			<glyph d="M266 369Q366 369 421 308T477 129Q477 32 442 -62T359 -235T236 -416L82 -309Q139 -236 181 -163T242 -12Q159 0 110 50T61 172Q61 230 87 274T159 344T266 369Z" horiz-adv-x="539" unicode="‚"/>
			<glyph d="M272 1432Q332 1432 378 1407T451 1337T477 1235Q477 1163 428 1113T297 1051Q315 971 358 898T457 754L303 647Q229 748 179 827T95 1001T61 1192Q61 1310 116 1371T272 1432Z" horiz-adv-x="539" unicode="‛"/>
			<glyph d="M303 1444L457 1337Q401 1266 358 1193T297 1040Q380 1028 428 978T477 856Q477 798 451 753T378 684T272 659Q172 659 116 720T61 899Q61 996 95 1090T179 1263T303 1444ZM836 1444L989 1337Q932 1264 889 1191T829 1040Q912 1028 961 978T1010 856Q1010 798 984 753T911 684T805 659Q705 659 649 720T594 899Q594 996 628 1090T712 1263T836 1444Z" horiz-adv-x="1071" unicode="“"/>
			<glyph d="M266 1432Q366 1432 421 1371T477 1192Q477 1095 442 1001T359 828T236 647L82 754Q139 827 181 899T242 1051Q159 1063 110 1113T61 1235Q61 1293 87 1337T159 1407T266 1432ZM799 1432Q899 1432 954 1371T1010 1192Q1010 1095 975 1001T891 827T768 647L614 754Q671 826 714 898T774 1051Q692 1063 643 1113T594 1235Q594 1293 620 1337T692 1407T799 1432Z" horiz-adv-x="1071" unicode="”"/>
			<glyph d="M266 369Q366 369 421 308T477 129Q477 32 442 -62T359 -235T236 -416L82 -309Q139 -236 181 -163T242 -12Q159 0 110 50T61 172Q61 230 87 274T159 344T266 369ZM799 369Q899 369 954 308T1010 129Q1010 32 975 -62T891 -235T768 -416L614 -309Q671 -237 714 -164T774 -12Q692 0 643 50T594 172Q594 230 620 274T692 344T799 369Z" horiz-adv-x="1071" unicode="„"/>
			<glyph d="M477 1501H764L754 1186H1040L1067 909H754V8L696 -164H545L487 8V909H174L201 1186H487Z" horiz-adv-x="1243" unicode="†"/>
			<glyph d="M477 1501H764L754 1186H1040L1067 909H758L754 831L696 659L756 489V408H1067L1040 133H754L764 -182H477L487 133H201L174 408H485V489L545 659L487 831L483 909H174L201 1186H487Z" horiz-adv-x="1243" unicode="‡"/>
			<glyph d="M315 981Q411 981 481 943T589 835T627 670Q627 574 589 503T481 394T315 356Q221 356 151 394T43 503T6 670Q6 765 43 835T151 943T315 981Z" horiz-adv-x="635" unicode="•"/>
			<glyph d="M328 422Q425 422 483 363T541 205Q541 141 514 92T440 15T328 -12Q227 -12 169 46T111 205Q111 305 169 363T328 422ZM1051 422Q1148 422 1206 363T1264 205Q1264 141 1237 92T1163 15T1051 -12Q950 -12 892 46T834 205Q834 305 892 363T1051 422ZM1774 422Q1871 422 1929 363T1987 205Q1987 141 1960 92T1886 15T1774 -12Q1673 -12 1615 46T1557 205Q1557 305 1615 363T1774 422Z" horiz-adv-x="2097" unicode="…"/>
			<glyph d="M403 1430Q784 1430 784 995Q784 768 678 664T399 561Q226 561 123 663T20 995Q20 1234 121 1332T403 1430ZM1257 1409H1524L610 0H344ZM403 1204Q361 1204 338 1186T306 1123T297 995Q297 911 307 865T339 801T401 782Q440 782 462 800T494 864T504 995Q504 1079 494 1124T462 1186T403 1204ZM1468 848Q1642 848 1745 749T1849 414Q1849 187 1743 83T1464 -20Q1291 -20 1188 82T1085 414Q1085 653 1186 750T1468 848ZM2298 848Q2472 848 2575 749T2679 414Q2679 187 2573 83T2294 -20Q2121 -20 2018 82T1915 414Q1915 653 2016 750T2298 848ZM1468 623Q1426 623 1403 605T1371 542T1362 414Q1362 330 1372 284T1404 220T1466 201Q1505 201 1527 219T1559 283T1569 414Q1569 498 1559 543T1527 605T1468 623ZM2298 623Q2256 623 2233 605T2200 542T2191 414Q2191 330 2201 284T2233 220T2296 201Q2335 201 2357 219T2388 282T2398 414Q2398 498 2388 543T2357 605T2298 623Z" horiz-adv-x="2699" unicode="‰"/>
			<glyph d="M104 1409H520L330 858H41Z" horiz-adv-x="520" unicode="′"/>
			<glyph d="M104 1409H520L330 858H41ZM637 1409H1053L862 858H573Z" horiz-adv-x="1053" unicode="″"/>
			<glyph d="M336 940H657V901L408 537L659 180V141H336L80 506V567Z" horiz-adv-x="723" unicode="‹"/>
			<glyph d="M63 940H387L643 575V514L387 141H66V180L315 545L63 901Z" horiz-adv-x="723" unicode="›"/>
			<glyph d="M160 1409H561L520 481H201ZM356 391Q453 391 511 335T569 188Q569 129 542 84T468 13T356 -12Q255 -12 197 42T139 188Q139 281 197 336T356 391ZM817 1409H1218L1177 481H858ZM1013 391Q1110 391 1168 335T1226 188Q1226 129 1199 84T1125 13T1013 -12Q912 -12 854 42T796 188Q796 281 854 336T1013 391Z" horiz-adv-x="1382" unicode="‼"/>
			<glyph d="M651 1430Q807 1430 923 1380T1103 1237T1167 1018Q1167 938 1141 877T1075 771T973 676Q917 630 888 601T841 537T821 457H455L414 952H719V745H731Q764 825 782 877Q801 929 801 977Q801 1046 758 1083T629 1120Q568 1120 524 1101T445 1046T369 950L84 1098Q163 1246 297 1338T651 1430ZM639 391Q737 391 795 336T854 190Q854 99 795 43T637 -12Q539 -12 481 42T424 188Q424 281 482 336T639 391Z" horiz-adv-x="1294" unicode="‽"/>
			<glyph d="M-20 1595H1198V1489H-20Z" horiz-adv-x="1186" unicode="‾"/>
			<glyph d="M516 1409H782L-131 0H-397Z" horiz-adv-x="393" unicode="⁄"/>
			<glyph d="M551 1421Q667 1421 720 1350T774 1157V696H487V1100Q487 1150 471 1170T426 1190Q388 1190 369 1165T350 1083V696H63V1260Q63 1370 61 1405H330Q336 1365 336 1298H338Q376 1356 426 1388T551 1421Z" horiz-adv-x="825" unicode="ⁿ"/>
			<glyph d="M162 1409H1139V1128H555V858H1104V580H555V449H784V233H555V0H162V233H55V449H162Z" horiz-adv-x="1178" unicode="₣"/>
			<glyph d="M659 1430Q809 1430 913 1379T1081 1245L846 1038Q804 1092 763 1116T672 1141Q610 1141 584 1105T557 987H829V784H557V698H829V496H557V475Q557 416 520 367T426 281H666Q841 281 868 428L1188 375Q1168 272 1112 187T967 51T764 0H49V274Q120 306 166 357T213 471V496H27V698H197V784H27V987H197V1004Q197 1202 306 1316T659 1430Z" horiz-adv-x="1178" unicode="₤"/>
			<glyph d="M113 1409H709Q959 1409 1081 1278T1204 922Q1204 788 1152 673T993 488T727 418H522V0H113ZM1759 1399V1116H1956V834H1759V428Q1759 363 1779 332T1845 301Q1897 301 1942 311L1968 20Q1894 0 1828 -10T1692 -20Q1540 -20 1457 63T1374 311V834H1239V1116H1395L1413 1372ZM2542 1137Q2815 1137 2998 981L2824 756Q2694 854 2566 854Q2454 854 2454 797Q2454 767 2491 751T2619 717Q2738 692 2822 655T2959 549T3013 371Q3013 248 2955 160T2789 26T2527 -20Q2221 -20 2030 137L2185 401Q2268 341 2343 306T2511 272Q2634 272 2634 332Q2634 352 2611 365T2550 390T2427 420Q2321 444 2245 483T2122 592T2075 770Q2075 879 2129 961T2288 1090T2542 1137ZM522 1065V758H674Q732 758 762 801T793 918Q793 1065 666 1065Z" horiz-adv-x="3043" unicode="₧"/>
			<glyph d="M686 1430Q871 1430 987 1360T1163 1157L821 995Q776 1100 682 1100Q622 1100 588 1061T538 946H758V752H522V715V682H758V487H538Q556 401 596 355T711 309Q758 309 796 333T872 414L1171 244Q1118 120 1001 50T700 -20Q214 -20 131 487H37V682H113V721V752H37V946H129Q168 1184 303 1307T686 1430Z" horiz-adv-x="1178" unicode="€"/>
			<glyph d="M80 1409H1133V1130H881Q914 1084 928 1030H1133V772H944Q929 661 864 590T696 475L1057 0H608L324 393H80V672H375Q492 672 533 772H80V1030H536Q517 1082 476 1106T371 1130H80Z" horiz-adv-x="1178" unicode="₹"/>
			<glyph d="M125 1409H535V1153L827 1276V1030L535 907V780L827 901V655L535 532V313H608Q693 313 745 349T811 469L1163 416Q1141 302 1081 207T926 56T709 0H125V336L14 293V545L125 588V711L14 666V918L125 961Z" horiz-adv-x="1178" unicode="₺"/>
			<glyph d="M580 1409H920V1213Q1152 1178 1279 1037T1407 647V0H1038V635Q1038 830 920 899V205H580V901Q521 869 491 806T461 643V0H92V657Q92 897 224 1035T580 1211Z" horiz-adv-x="1499" unicode="₼"/>
			<glyph d="M137 1409H618Q909 1409 1052 1288T1196 958Q1196 839 1135 737T948 572T635 510H547V399H809V152H547V0H137V152H8V399H137V510H14V799H137ZM547 1096V799H602Q692 799 738 841T784 952Q784 1023 738 1059T618 1096Z" horiz-adv-x="1178" unicode="₽"/>
			<glyph d="M444 1423Q544 1423 626 1382T772 1270L565 1104Q537 1138 513 1152T453 1167Q383 1167 351 1119T319 977Q319 778 459 778Q506 778 538 798T610 862L780 690Q717 615 630 569T430 524Q298 524 208 586T75 753T31 985Q31 1143 94 1241T251 1381T444 1423ZM1282 1409H1556L647 0H375ZM1475 877Q1581 877 1668 834T1810 692T1864 436Q1864 281 1811 180T1670 32T1477 -14Q1368 -14 1281 34T1144 183T1094 438Q1094 592 1145 690T1282 832T1475 877ZM1479 643Q1423 643 1404 588T1386 420Q1386 330 1403 278T1479 227Q1531 227 1552 278T1573 438Q1573 538 1553 590T1479 643Z" horiz-adv-x="1894" unicode="℅"/>
			<glyph d="M668 1430Q868 1430 980 1352T1092 1120Q1092 943 943 807T524 596V418Q524 333 559 294T668 256Q753 256 801 308T877 469H1081Q1046 332 993 228T832 52T549 -20Q365 -20 273 65T182 317V479Q132 461 53 436V696Q115 715 186 739V1024Q186 1129 227 1219T376 1370T668 1430ZM657 1210Q594 1210 565 1180T537 1104V858Q648 890 711 955T774 1102Q774 1210 657 1210Z" horiz-adv-x="1182" unicode="ℓ"/>
			<glyph d="M104 1409H561L1004 485Q991 572 991 838V1409H1337V0H868L440 885Q449 663 449 485V0H104ZM1800 1090Q1921 1090 2000 1038T2117 902T2154 723Q2154 627 2113 542T1992 404T1798 352Q1687 352 1607 404T1488 542T1448 723Q1448 818 1486 901T1603 1037T1800 1090ZM1802 881Q1759 881 1735 840T1712 723Q1712 561 1798 561Q1844 561 1865 601T1886 723Q1886 806 1868 843T1802 881ZM1481 250H2120V0H1481Z" horiz-adv-x="2226" unicode="№"/>
			<glyph d="M741 1430Q948 1430 1113 1337T1371 1079T1464 707Q1464 500 1371 335T1113 77T741 -16Q535 -16 370 77T111 335T18 707Q18 914 111 1079T369 1337T741 1430ZM741 1307Q571 1307 438 1230T230 1017T156 707Q156 532 230 395T438 182T741 106Q912 106 1046 182T1256 395T1331 707Q1331 881 1256 1017T1046 1230T741 1307ZM449 1104H803Q963 1104 1041 1033T1120 836Q1120 736 1073 673T957 582T815 555H682V305H449ZM682 928V733H782Q833 733 859 760T885 834Q885 878 856 903T776 928Z" horiz-adv-x="1479" unicode="℗"/>
			<glyph d="M123 1409H754V1214H553V705H315V1214H123ZM825 1409H1163L1255 1135Q1271 1090 1288 1032T1315 936H1317Q1332 993 1376 1135L1466 1409H1794V705H1581V1067Q1581 1145 1589 1217L1403 705H1219L1036 1217Q1042 1156 1042 1063V705H825Z" horiz-adv-x="2040" unicode="™"/>
			<glyph d="M846 1430Q1058 1430 1214 1361T1453 1162T1536 856Q1536 728 1504 633T1394 463T1180 328Q1262 340 1356 340H1577V0H909V463Q1038 523 1086 598T1135 776Q1135 920 1059 1001T846 1083Q709 1083 634 1001T559 776Q559 675 609 599T793 463V0H113V340H336Q393 340 444 336T520 328Q374 388 294 463T183 633T152 858Q152 1034 236 1163T477 1361T846 1430Z" horiz-adv-x="1690" unicode="Ω"/>
			<glyph d="M618 1096Q769 1096 890 1027T1080 829T1149 530H322V174Q370 123 450 87T618 51Q760 51 850 108T1014 285L1085 244Q1030 157 971 97T825 1T618 -35Q452 -35 332 43T150 250T88 530Q88 717 165 844T363 1034T618 1096ZM616 1012Q522 1012 449 979T322 895V616H918V893Q871 940 792 976T616 1012Z" horiz-adv-x="1229" unicode="℮"/>
			<glyph d="M336 1409H575V780H752V563H111V780H324V1157L129 1014V1272ZM1378 1409H1644L731 0H465ZM1654 858Q1739 858 1809 830T1922 750T1964 625Q1964 568 1936 517T1849 434V432Q1913 404 1949 356T1986 240Q1986 172 1949 115T1835 23T1644 -12Q1478 -12 1395 54T1273 225L1468 311Q1499 252 1539 222T1638 193Q1687 193 1707 216T1728 270Q1728 340 1628 340H1531V522H1622Q1710 522 1710 586Q1710 615 1687 633T1628 651Q1578 651 1538 625T1460 549L1296 649Q1337 751 1434 804T1654 858Z" horiz-adv-x="2033" unicode="⅓"/>
			<glyph d="M373 1421Q470 1421 539 1388T643 1299T678 1179Q678 1116 659 1066T600 970T489 858L407 782H721V563H61V756L311 989Q372 1047 393 1078T414 1141Q414 1167 396 1183T348 1200Q316 1200 290 1180T225 1118L61 1270Q98 1313 133 1343T228 1397T373 1421ZM1345 1409H1611L698 0H432ZM1621 858Q1706 858 1776 830T1889 750T1931 625Q1931 568 1903 517T1816 434V432Q1880 404 1916 356T1953 240Q1953 172 1916 115T1802 23T1611 -12Q1445 -12 1362 54T1240 225L1435 311Q1466 252 1506 222T1605 193Q1654 193 1674 216T1695 270Q1695 340 1595 340H1498V522H1589Q1677 522 1677 586Q1677 615 1654 633T1595 651Q1545 651 1505 625T1427 549L1263 649Q1304 751 1401 804T1621 858Z" horiz-adv-x="2000" unicode="⅔"/>
			<glyph d="M336 1409H575V780H752V563H111V780H324V1157L129 1014V1272ZM1378 1409H1644L731 0H465ZM1640 858Q1735 858 1809 828T1925 743T1968 612Q1968 558 1943 517T1869 442V440Q1924 408 1956 358T1988 246Q1988 172 1948 113T1829 21T1638 -12Q1528 -12 1451 20T1336 110T1298 242Q1298 305 1330 357T1417 442V444Q1370 478 1345 519T1321 616Q1321 690 1361 744T1473 828T1640 858ZM1642 670Q1607 670 1586 653T1566 602Q1566 568 1586 550T1642 532Q1675 532 1694 550T1714 602Q1714 636 1695 653T1642 670ZM1642 350Q1600 350 1577 327T1554 266Q1554 227 1577 204T1642 182Q1685 182 1706 205T1728 266Q1728 304 1706 327T1642 350Z" horiz-adv-x="2033" unicode="⅛"/>
			<glyph d="M399 1421Q484 1421 554 1393T667 1313T709 1188Q709 1131 681 1080T594 997V995Q658 967 694 919T731 803Q731 735 694 678T580 586T389 551Q223 551 140 617T18 788L213 874Q244 815 284 785T383 756Q432 756 452 779T473 833Q473 903 373 903H276V1085H367Q455 1085 455 1149Q455 1178 432 1196T373 1214Q323 1214 283 1188T205 1112L41 1212Q82 1314 179 1367T399 1421ZM1294 1409H1560L647 0H381ZM1556 858Q1651 858 1725 828T1841 743T1884 612Q1884 558 1859 517T1785 442V440Q1840 408 1872 358T1904 246Q1904 172 1864 113T1745 21T1554 -12Q1444 -12 1367 20T1252 110T1214 242Q1214 305 1246 357T1333 442V444Q1286 478 1261 519T1237 616Q1237 690 1277 744T1389 828T1556 858ZM1558 670Q1523 670 1502 653T1482 602Q1482 568 1502 550T1558 532Q1591 532 1610 550T1630 602Q1630 636 1611 653T1558 670ZM1558 350Q1516 350 1493 327T1470 266Q1470 227 1493 204T1558 182Q1601 182 1622 205T1644 266Q1644 304 1622 327T1558 350Z" horiz-adv-x="1949" unicode="⅜"/>
			<glyph d="M115 1409H686V1210H329L317 1102Q378 1143 459 1143Q544 1143 606 1105T702 1001T735 852Q735 765 695 697T576 590T383 551Q259 551 178 596T43 723L231 848Q258 805 291 786T371 768Q422 768 449 790T477 856Q477 940 387 940Q353 940 329 927T279 885L72 969ZM1294 1409H1560L647 0H381ZM1556 858Q1651 858 1725 828T1841 743T1884 612Q1884 558 1859 517T1785 442V440Q1840 408 1872 358T1904 246Q1904 172 1864 113T1745 21T1554 -12Q1444 -12 1367 20T1252 110T1214 242Q1214 305 1246 357T1333 442V444Q1286 478 1261 519T1237 616Q1237 690 1277 744T1389 828T1556 858ZM1558 670Q1523 670 1502 653T1482 602Q1482 568 1502 550T1558 532Q1591 532 1610 550T1630 602Q1630 636 1611 653T1558 670ZM1558 350Q1516 350 1493 327T1470 266Q1470 227 1493 204T1558 182Q1601 182 1622 205T1644 266Q1644 304 1622 327T1558 350Z" horiz-adv-x="1949" unicode="⅝"/>
			<glyph d="M88 1409H711V1218L434 563H160L431 1190H88ZZZM1161 1409H1427L514 0H248ZM1423 858Q1518 858 1592 828T1708 743T1751 612Q1751 558 1726 517T1652 442V440Q1707 408 1739 358T1771 246Q1771 172 1731 113T1612 21T1421 -12Q1311 -12 1234 20T1119 110T1081 242Q1081 305 1113 357T1200 442V444Q1153 478 1128 519T1104 616Q1104 690 1144 744T1256 828T1423 858ZM1425 670Q1390 670 1369 653T1349 602Q1349 568 1369 550T1425 532Q1458 532 1477 550T1497 602Q1497 636 1478 653T1425 670ZM1425 350Q1383 350 1360 327T1337 266Q1337 227 1360 204T1425 182Q1468 182 1489 205T1511 266Q1511 304 1489 327T1425 350Z" horiz-adv-x="1816" unicode="⅞"/>
			<glyph d="M516 1460Q657 1460 748 1381T880 1170T922 874Q922 637 874 455Q834 300 779 197T629 36T383 -23Q252 -23 166 31T40 178T0 385Q0 533 41 663T175 877T412 961Q479 961 526 927T596 827H600Q604 862 606 888T608 948Q608 1064 563 1130T428 1196Q370 1196 317 1180T229 1139L287 1407Q325 1430 388 1445T516 1460ZM469 737Q393 737 357 636T322 391Q322 318 347 278T412 238Q479 238 510 335T557 606Q550 673 531 705T469 737Z" horiz-adv-x="963" unicode="∂"/>
			<glyph d="M498 1409H999L1413 291V0H82V293ZM744 1102Q713 988 684 905L483 315H1012L807 905Q770 1015 744 1102Z" horiz-adv-x="1495" unicode="∆"/>
			<glyph d="M209 1409H1552V-426H1155V1075H612V-426H209Z" horiz-adv-x="1757" unicode="∏"/>
			<glyph d="M178 1409H1368V1100H688L1155 504L668 -115H1411V-426H154V-211L727 498L178 1208Z" horiz-adv-x="1571" unicode="∑"/>
			<glyph d="M92 836H1174V526H92Z" unicode="−"/>
			<glyph d="M125 1499H449L348 -63H18Z" horiz-adv-x="469" unicode="∕"/>
			<glyph d="M315 981Q411 981 481 943T589 835T627 670Q627 574 589 503T481 394T315 356Q221 356 151 394T43 503T6 670Q6 765 43 835T151 943T315 981Z" horiz-adv-x="635" unicode="∙"/>
			<glyph d="M920 1620H1169L655 -37H420L164 676H-25V895H332L526 322Z" horiz-adv-x="1122" unicode="√"/>
			<glyph d="M385 969Q489 969 563 917T694 754Q742 841 815 896T989 952Q1089 952 1164 906T1281 775T1323 575Q1323 476 1282 391T1170 255T1010 205Q904 205 828 256T696 420Q588 221 385 221Q294 221 222 267T109 399T68 602Q68 702 109 786T223 919T385 969ZM436 739Q406 739 380 720T340 669T326 598Q326 535 355 494T436 453Q472 453 501 487T561 596Q538 647 522 676T485 722T436 739ZM973 723Q893 723 827 580Q852 530 870 500T913 453T969 436Q1013 436 1040 476T1067 578Q1067 643 1044 683T973 723Z" horiz-adv-x="1391" unicode="∞"/>
			<glyph d="M772 1503Q816 1503 867 1498T952 1485V1157Q894 1182 831 1182Q758 1182 724 1149T690 1059V-16Q690 -129 640 -221T486 -370T221 -426Q179 -426 127 -419T41 -403V-78Q107 -102 164 -102Q301 -102 301 23V1096Q301 1208 351 1300T507 1448T772 1503Z" horiz-adv-x="993" unicode="∫"/>
			<glyph d="M373 1153Q489 1153 711 1079Q774 1059 823 1047T920 1036Q988 1036 1055 1060T1180 1128V834Q1112 788 1050 771T897 754Q822 754 750 770T586 819Q447 868 358 868Q279 868 219 847T88 780V1069Q144 1109 216 1131T373 1153ZM373 606Q450 606 528 587T711 535Q775 514 825 501T920 489Q988 489 1055 514T1180 582V287Q1111 242 1048 224T897 207Q824 207 757 223T586 276Q455 322 358 322Q279 322 220 301T88 233V522Q144 562 216 584T373 606Z" unicode="≈"/>
			<glyph d="M809 1354H1096L969 1092H1174V784H819L719 578H1174V272H571L446 14H158L283 272H92V578H432L532 784H92V1092H682Z" unicode="≠"/>
			<glyph d="M1174 1372V1065L354 854L1174 647V338L92 631V1081ZM92 307H1171V0H92Z" unicode="≤"/>
			<glyph d="M90 1372L1174 1081V631L90 338V647L909 854L90 1065ZM90 307H1174V0H90Z" unicode="≥"/>
			<glyph d="M428 1452H553L1016 727L553 0H428L-31 725ZM494 1116L260 727L494 319L725 727Z" horiz-adv-x="981" unicode="◊"/>
			<glyph d="M-409 -61Q-335 -61 -289 -105T-244 -229Q-244 -308 -288 -370T-409 -496L-510 -408Q-488 -389 -468 -362T-436 -309Q-494 -300 -528 -266T-563 -184Q-563 -130 -520 -95T-409 -61Z" horiz-adv-x="0" unicode=""/>
			<glyph d="M129 1409H897V0H129ZM256 1282V129H768V1282Z" horiz-adv-x="1024" unicode=""/>
			<glyph d="M565 1518Q684 1518 801 1495L772 1233Q747 1242 722 1246T666 1251Q615 1251 593 1226T571 1143V1116H879V1184Q879 1340 971 1429T1264 1518Q1382 1518 1499 1495L1470 1233Q1420 1251 1364 1251Q1313 1251 1291 1226T1270 1143V1116H1475V834H1270V0H879V834H571V0H180V834H41V1116H180V1184Q180 1340 273 1429T565 1518Z" horiz-adv-x="1479" unicode="ﬀ"/>
			<glyph d="M584 1518Q702 1518 819 1495L791 1233Q739 1251 684 1251Q622 1251 595 1226T569 1143V1116H795V834H569V0H180V834H41V1116H180V1184Q180 1340 277 1429T584 1518ZM1121 1591Q1179 1591 1226 1565T1300 1493T1327 1389Q1327 1332 1300 1287T1226 1217T1121 1192Q1061 1192 1013 1216T939 1286T912 1389Q912 1447 939 1493T1013 1565T1121 1591ZM928 1116H1317V0H928Z" horiz-adv-x="1442" unicode="ﬁ"/>
			<glyph d="M584 1518Q702 1518 819 1495L791 1233Q739 1251 684 1251Q622 1251 595 1226T569 1143V1116H795V834H569V0H180V834H41V1116H180V1184Q180 1340 277 1429T584 1518ZM914 1501H1303V385Q1303 340 1319 317T1381 295Q1400 295 1434 301L1446 4Q1354 -14 1254 -14Q1078 -14 996 69T914 315Z" horiz-adv-x="1489" unicode="ﬂ"/>
			<glyph d="M565 1518Q684 1518 801 1495L772 1233Q747 1242 722 1246T666 1251Q615 1251 593 1226T571 1143V1116H879V1184Q879 1340 971 1429T1264 1518Q1382 1518 1499 1495L1470 1233Q1420 1251 1364 1251Q1313 1251 1291 1226T1270 1143V1116H1475V834H1270V0H879V834H571V0H180V834H41V1116H180V1184Q180 1340 273 1429T565 1518ZM1801 1591Q1859 1591 1906 1565T1980 1493T2007 1389Q2007 1332 1980 1287T1906 1217T1801 1192Q1741 1192 1693 1216T1619 1286T1592 1389Q1592 1447 1619 1493T1693 1565T1801 1591ZM1608 1116H1997V0H1608Z" horiz-adv-x="2122" unicode="ﬃ"/>
			<glyph d="M565 1518Q684 1518 801 1495L772 1233Q747 1242 722 1246T666 1251Q615 1251 593 1226T571 1143V1116H879V1184Q879 1340 971 1429T1264 1518Q1382 1518 1499 1495L1470 1233Q1420 1251 1364 1251Q1313 1251 1291 1226T1270 1143V1116H1475V834H1270V0H879V834H571V0H180V834H41V1116H180V1184Q180 1340 273 1429T565 1518ZM1594 1501H1983V385Q1983 340 1999 317T2061 295Q2080 295 2114 301L2126 4Q2034 -14 1934 -14Q1758 -14 1676 69T1594 315Z" horiz-adv-x="2169" unicode="ﬄ"/>
			<glyph d="" horiz-adv-x="0" unicode="﻿"/>
		</font>
</defs>
</svg>
