<?xml version="1.0" encoding="UTF-8"?>
<svg height="100%" width="100%" xmlns="http://www.w3.org/2000/svg">
	<defs>
		<font horiz-adv-x="1139" id="web">
			<font-face alphabetic="0" ascent="1854" descent="-434" font-family="" panose-1="2 11 5 3 3 0 0 0 0 3" units-per-em="2048"/>
			<missing-glyph d="M129 1409H897V0H129ZM256 1282V129H768V1282Z" horiz-adv-x="1024"/>
			<glyph d="" horiz-adv-x="569" unicode=" "/>
			<glyph d="M186 1409H383L358 397H211ZM285 236Q338 236 373 201T408 113Q408 58 373 23T285 -12Q230 -12 195 23T160 113Q160 167 195 201T285 236Z" horiz-adv-x="569" unicode="!"/>
			<glyph d="M86 1409H270L250 967H109ZM457 1409H641L618 967H475Z" horiz-adv-x="727" unicode="&quot;"/>
			<glyph d="M424 1401H532L444 993H809L897 1401H1006L918 993H1128V885H897L817 516H1077V408H795L707 0H598L682 408H319L236 0H127L211 408H8V516H233L311 885H59V993H334ZM426 885L344 516H707L784 885Z" unicode="#"/>
			<glyph d="M518 1516H641V1384Q777 1375 878 1329T1053 1202L928 1083Q866 1146 800 1180T641 1223V801Q822 762 922 711T1064 587T1106 399Q1106 285 1050 203T889 75T641 23V-141H518V23Q366 32 249 83T57 219L170 352Q247 278 327 238T518 190V655Q354 696 261 744T127 861T86 1034Q86 1136 139 1212T289 1332T518 1384ZM518 1223Q389 1215 323 1169T258 1038Q258 976 285 938T367 875T518 827ZM641 629V190Q782 198 858 250T934 397Q934 469 899 513T803 583T641 629Z" unicode="$"/>
			<glyph d="M393 1421Q534 1421 620 1314T707 975Q707 823 665 721T552 572T389 524Q298 524 227 572T115 721T74 975Q74 1209 160 1315T393 1421ZM1294 1409H1450L526 0H373ZM393 1292Q306 1292 262 1215T219 975Q219 815 263 736T391 657Q470 657 514 736T559 975Q559 1141 517 1216T393 1292ZM1432 885Q1576 885 1662 777T1749 434Q1749 283 1706 183T1591 35T1427 -12Q1336 -12 1265 35T1153 182T1112 434Q1112 671 1198 778T1432 885ZM1432 754Q1347 754 1303 676T1260 434Q1260 276 1304 197T1430 119Q1511 119 1555 197T1599 434Q1599 600 1556 677T1432 754Z" horiz-adv-x="1821" unicode="%"/>
			<glyph d="M594 1417Q697 1417 778 1378T905 1268T952 1100Q952 1007 909 941T805 833T634 732Q691 679 739 629L954 410Q1035 548 1083 745L1235 711Q1174 468 1063 299L1350 8V0H1147L969 178Q784 -20 520 -20Q375 -20 277 30T133 163T86 350Q86 455 129 528T236 649T402 750Q311 848 268 926T225 1094Q225 1179 264 1252T387 1371T594 1417ZM592 1286Q526 1286 478 1261T407 1193T383 1098Q383 1032 422 968T541 825L564 838Q646 883 691 914T765 991T795 1100Q795 1153 769 1195T697 1262T592 1286ZM493 656Q414 614 365 577T285 488T254 362Q254 299 284 246T376 161T526 129Q609 129 696 164T863 285L610 539Z" horiz-adv-x="1366" unicode="&amp;"/>
			<glyph d="M104 1409H289L266 967H125Z" horiz-adv-x="391" unicode="'"/>
			<glyph d="M496 1485H670Q483 1273 395 1041T307 530Q307 251 395 18T670 -424H496Q305 -216 216 14T127 532Q127 813 215 1043T496 1485Z" horiz-adv-x="682" unicode="("/>
			<glyph d="M12 1485H186Q377 1277 466 1046T555 528Q555 247 466 16T186 -424H12Q199 -214 287 18T375 530Q375 809 287 1041T12 1485Z" horiz-adv-x="682" unicode=")"/>
			<glyph d="M334 1409H469L457 1114L721 1217L766 1085L483 1012L668 762L549 690L399 948L244 692L125 764L313 1012L33 1085L78 1219L344 1112Z" horiz-adv-x="797" unicode="*"/>
			<glyph d="M524 1182H672V754H1096V608H672V180H524V608H100V754H524Z" horiz-adv-x="1196" unicode="+"/>
			<glyph d="M295 236Q354 236 387 198T420 90Q420 -11 377 -95T260 -276L172 -211Q208 -161 236 -112T274 -12Q227 -5 199 28T172 109Q172 165 206 200T295 236Z" horiz-adv-x="569" unicode=","/>
			<glyph d="M90 625H592V465H90Z" horiz-adv-x="682" unicode="-"/>
			<glyph d="M287 236Q340 236 375 201T410 113Q410 58 375 23T287 -12Q232 -12 197 23T162 113Q162 167 197 201T287 236Z" horiz-adv-x="569" unicode="."/>
			<glyph d="M412 1485H569L162 -20H0Z" horiz-adv-x="569" unicode="/"/>
			<glyph d="M573 1430Q794 1430 926 1259T1059 705Q1059 454 995 292T820 55T567 -20Q424 -20 315 54T143 291T80 705Q80 1430 573 1430ZM573 1264Q469 1264 400 1208T297 1029T262 705Q262 415 340 281T569 147Q717 147 797 282T877 705Q877 1003 800 1133T573 1264Z" unicode="0"/>
			<glyph d="M530 1409H696V168H1038V0H156V168H514V1210L197 983V1180Z" unicode="1"/>
			<glyph d="M571 1430Q709 1430 809 1382T961 1246T1014 1044Q1014 962 986 895T909 766T762 602L350 168H1036V0H102V141L643 715Q714 791 751 837T808 932T829 1042Q829 1104 798 1154T711 1233T578 1262Q471 1262 398 1215T254 1061L102 1163Q150 1238 207 1295T355 1391T571 1430Z" unicode="2"/>
			<glyph d="M571 1430Q719 1430 817 1381T963 1250T1010 1065Q1010 941 946 852T762 723V719Q851 701 916 652T1015 533T1049 379Q1049 255 993 165T828 28T565 -20Q383 -20 272 48T84 233L236 344Q287 274 324 236T419 174T565 150Q705 150 783 211T862 385Q862 473 812 527T689 605T539 629H416V805H535Q608 805 674 830T783 910T825 1047Q825 1147 758 1204T569 1262Q496 1262 441 1240T346 1180T264 1083L111 1180Q177 1299 297 1364T571 1430Z" unicode="3"/>
			<glyph d="M692 1409H881V461H1079V305H881V0H711V305H47V459ZM713 1171L643 1067L297 555L282 534Q239 471 231 461H711V997Q711 1108 713 1171Z" unicode="4"/>
			<glyph d="M162 1409H971V1241H326L307 840Q420 909 594 909Q731 909 835 851T996 690T1053 459Q1053 316 995 208T823 40T549 -20Q388 -20 275 36T84 193L233 307Q276 255 315 222T412 168T553 147Q647 147 717 183T827 288T866 455Q866 537 829 603T723 707T561 745Q473 745 406 717T266 627L125 694Z" unicode="5"/>
			<glyph d="M610 1430Q739 1430 830 1384T997 1239L860 1135Q803 1203 745 1233T608 1264Q508 1264 436 1204T325 1027T287 737Q335 820 425 865T627 911Q753 911 849 852T998 691T1051 461Q1051 330 994 220T834 45T596 -20Q354 -20 230 160T106 672Q106 920 166 1089T339 1344T610 1430ZM584 752Q523 752 459 724T351 630T307 461Q307 380 341 307T440 189T590 145Q675 145 738 186T834 297T868 453Q868 535 835 603T738 711T584 752Z" unicode="6"/>
			<glyph d="M104 1409H1036V1264L502 0H299L842 1241H104Z" unicode="7"/>
			<glyph d="M565 1430Q704 1430 806 1381T962 1249T1016 1067Q1016 946 963 866T807 743V739Q877 715 932 665T1019 546T1051 393Q1051 272 995 178T830 32T569 -20Q418 -20 309 32T144 178T88 391Q88 474 121 544T210 664T330 737V741Q228 789 175 868T123 1069Q123 1168 178 1250T333 1381T565 1430ZM565 1276Q484 1276 425 1248T335 1171T305 1057Q305 1002 332 947T418 856T567 819Q664 819 722 856T803 947T827 1057Q827 1157 760 1216T565 1276ZM565 664Q475 664 409 626T308 528T274 406Q274 325 308 264T408 169T571 135Q717 135 789 208T862 410Q862 472 830 530T731 626T565 664Z" unicode="8"/>
			<glyph d="M553 1430Q798 1430 920 1255T1042 737Q1042 490 982 320T810 65T539 -20Q408 -20 313 25T147 170L279 283Q336 209 397 177T541 145Q641 145 713 204T823 382T862 672Q814 581 723 531T522 481Q395 481 298 539T149 703T96 946Q96 1083 152 1193T312 1367T553 1430ZM559 1264Q473 1264 409 1223T312 1109T279 946Q279 856 311 787T408 679T565 641Q626 641 689 670T797 769T842 948Q842 1029 807 1102T708 1219T559 1264Z" unicode="9"/>
			<glyph d="M287 1094Q340 1094 375 1059T410 971Q410 916 375 881T287 846Q232 846 197 881T162 971Q162 1025 197 1059T287 1094ZM287 236Q340 236 375 201T410 113Q410 58 375 23T287 -12Q232 -12 197 23T162 113Q162 167 197 201T287 236Z" horiz-adv-x="569" unicode=":"/>
			<glyph d="M287 1094Q340 1094 375 1059T410 971Q410 916 375 881T287 846Q232 846 197 881T162 971Q162 1025 197 1059T287 1094ZM289 236Q348 236 381 198T414 90Q414 -11 371 -95T254 -276L166 -211Q202 -161 230 -112T268 -12Q221 -5 193 28T166 109Q166 165 200 200T289 236Z" horiz-adv-x="569" unicode=";"/>
			<glyph d="M1096 1194V1040L238 674L1096 307V154L100 571V776Z" horiz-adv-x="1196" unicode="&lt;"/>
			<glyph d="M100 1004H1096V856H100ZM100 492H1096V344H100Z" horiz-adv-x="1196" unicode="="/>
			<glyph d="M100 1194L1096 776V571L100 154V307L958 674L100 1040Z" horiz-adv-x="1196" unicode="&gt;"/>
			<glyph d="M565 1430Q701 1430 805 1381T966 1242T1024 1032Q1024 935 990 863T906 743T780 639Q719 591 687 560T632 483T608 377H434Q436 468 466 533T540 641T654 738Q682 760 680 758Q733 798 766 832T821 913T842 1024Q842 1100 805 1156T705 1241T567 1270Q448 1270 370 1214T231 1053L84 1141Q149 1274 270 1352T565 1430ZM524 236Q578 236 612 201T647 113Q647 58 612 23T524 -12Q469 -12 434 23T399 113Q399 166 434 201T524 236Z" horiz-adv-x="1100" unicode="?"/>
			<glyph d="M1085 1485Q1342 1485 1527 1378T1807 1086T1903 670Q1903 495 1855 367T1720 172T1513 104Q1431 104 1379 141T1303 264H1300Q1245 171 1165 126T971 82Q842 82 750 148T610 329T563 592Q563 740 614 856T760 1037T975 1102Q1087 1102 1159 1060T1278 934H1280Q1280 975 1283 1025T1290 1081H1438Q1434 1037 1434 801V449Q1434 360 1439 315T1466 245T1534 221Q1606 221 1658 275T1737 431T1765 668Q1765 872 1680 1028T1442 1271T1087 1358Q835 1358 657 1251T390 966T301 573Q301 371 385 205T632 -58T1016 -156Q1188 -156 1327 -107T1571 6L1632 -104Q1516 -178 1359 -230T1016 -283Q751 -283 558 -169T263 139T162 573Q162 833 268 1040T582 1366T1085 1485ZM1001 969Q914 969 853 919T761 786T731 598Q731 423 796 322T993 221Q1063 221 1128 264T1236 392T1278 596Q1278 726 1240 809T1139 931T1001 969Z" horiz-adv-x="2079" unicode="@"/>
			<glyph d="M535 1409H760L1280 0H1085L952 381H336L203 0H4ZM645 1257Q636 1225 612 1158T561 1024L394 547H894L727 1026Q700 1096 676 1162T645 1257Z" horiz-adv-x="1284" unicode="A"/>
			<glyph d="M168 1409H686Q1161 1409 1161 1063Q1161 940 1097 850T913 733Q1009 720 1077 674T1181 557T1217 397Q1217 260 1150 171T972 41T719 0H168ZM358 1235V811H680Q834 811 902 869T971 1036Q971 1140 899 1187T686 1235ZM358 641V174H709Q861 174 943 227T1026 412Q1026 529 939 585T694 641Z" horiz-adv-x="1325" unicode="B"/>
			<glyph d="M760 1430Q952 1430 1089 1347T1307 1130L1153 1032Q1106 1100 1055 1147T932 1223T762 1253Q614 1253 508 1182T347 989T293 711Q293 557 350 431T516 231T770 158Q901 158 997 222T1174 403L1327 307Q1242 162 1099 71T760 -20Q548 -20 398 76T173 339T98 711Q98 922 176 1084T403 1338T760 1430Z" horiz-adv-x="1405" unicode="C"/>
			<glyph d="M168 1409H614Q825 1409 983 1335T1230 1106T1319 719Q1319 491 1234 329T1004 83T674 0H168ZM358 1235V174H653Q792 174 899 236T1067 421T1128 719Q1128 982 989 1108T610 1235Z" horiz-adv-x="1417" unicode="D"/>
			<glyph d="M168 1409H1073V1233H358V811H1014V637H358V176H1114V0H168Z" horiz-adv-x="1202" unicode="E"/>
			<glyph d="M168 1409H1026V1233H358V776H1001V598H358V0H168Z" horiz-adv-x="1108" unicode="F"/>
			<glyph d="M760 1430Q939 1430 1069 1366T1303 1178L1153 1059Q1078 1155 982 1204T754 1253Q613 1253 508 1186T347 996T291 711Q291 549 347 423T507 226T745 156Q882 156 975 211T1114 360T1161 567V573H797V750H1358V0H1190V202Q1117 100 1004 40T743 -20Q545 -20 398 73T174 333T96 711Q96 929 177 1091T408 1342T760 1430Z" horiz-adv-x="1491" unicode="G"/>
			<glyph d="M168 1409H358V823H1061V1409H1251V0H1061V643H358V0H168Z" horiz-adv-x="1419" unicode="H"/>
			<glyph d="M188 1409H381V0H188Z" horiz-adv-x="569" unicode="I"/>
			<glyph d="M682 1409H872V420Q872 287 821 187T676 34T451 -20Q363 -20 295 0T166 73T45 221L201 330Q261 235 318 195T453 156Q558 156 620 223T682 416Z" horiz-adv-x="1024" unicode="J"/>
			<glyph d="M168 1409H358V727L971 1409H1202L643 803L1282 0H1044L525 677L358 518V0H168Z" horiz-adv-x="1298" unicode="K"/>
			<glyph d="M168 1409H358V176H1010V0H168Z" horiz-adv-x="1077" unicode="L"/>
			<glyph d="M168 1409H420L795 432Q811 388 831 324T856 238Q862 262 885 327T926 432L1292 1409H1538V0H1366V940Q1366 1108 1372 1208Q1369 1194 1340 1107T1286 961L924 0H788L420 961Q400 1006 369 1099T334 1208L335 1157Q338 986 338 940V0H168Z" horiz-adv-x="1706" unicode="M"/>
			<glyph d="M168 1409H393L1106 211Q1105 237 1102 324T1100 485V1409H1272V0H1036L334 1190Q335 1163 336 1089T338 936V0H168Z" horiz-adv-x="1440" unicode="N"/>
			<glyph d="M756 1430Q955 1430 1104 1341T1333 1090T1413 711Q1413 493 1331 327T1099 70T754 -20Q550 -20 401 73T174 332T96 711Q96 929 176 1091T406 1342T756 1430ZM756 1253Q612 1253 507 1186T347 996T291 711Q291 549 348 423T510 226T754 156Q903 156 1007 226T1165 422T1219 711Q1219 873 1162 996T1000 1186T756 1253Z" horiz-adv-x="1509" unicode="O"/>
			<glyph d="M168 1409H700Q863 1409 974 1356T1140 1207T1196 981Q1196 854 1141 754T977 596T711 539H358V0H168ZM358 1235V711H684Q846 711 926 779T1006 979Q1006 1105 922 1170T676 1235Z" horiz-adv-x="1305" unicode="P"/>
			<glyph d="M756 1430Q955 1430 1104 1341T1333 1090T1413 711Q1413 519 1349 367T1167 119L1298 -53L1151 -160L1015 29Q896 -20 754 -20Q550 -20 401 73T174 332T96 711Q96 929 176 1091T406 1342T756 1430ZM756 1253Q612 1253 507 1186T347 996T291 711Q291 549 348 423T510 226T754 156Q836 156 908 179L807 319L942 416L1057 265Q1137 339 1178 453T1219 711Q1219 873 1162 996T1000 1186T756 1253Z" horiz-adv-x="1509" unicode="Q"/>
			<glyph d="M168 1409H709Q867 1409 978 1359T1146 1216T1204 993Q1204 899 1167 814T1054 669T860 586L1262 0H1040L674 565H358V0H168ZM358 1235V735H696Q803 735 874 768T980 859T1014 991Q1014 1112 929 1173T688 1235Z" horiz-adv-x="1356" unicode="R"/>
			<glyph d="M629 1430Q792 1430 908 1378T1108 1225L977 1104Q909 1180 825 1222T627 1264Q480 1264 406 1208T332 1063Q332 991 370 947T467 878T631 825L672 813L724 798Q867 757 952 718T1096 601T1155 389Q1155 269 1094 176T913 32T625 -20Q270 -20 98 215L233 336Q286 274 335 234T457 170T631 147Q777 147 872 205T967 379Q967 458 928 504T826 575T640 633Q622 637 586 647Q444 686 356 724T206 842T145 1053Q145 1181 210 1266T384 1390T629 1430Z" horiz-adv-x="1249" unicode="S"/>
			<glyph d="M45 1409H1122V1233H680V0H489V1233H45Z" horiz-adv-x="1167" unicode="T"/>
			<glyph d="M158 1409H348V528Q348 335 445 245T709 156Q879 156 984 249T1090 541V1409H1280V530Q1280 349 1205 225T1001 40T711 -20Q556 -20 431 37T232 215T158 512Z" horiz-adv-x="1438" unicode="U"/>
			<glyph d="M8 1409H211L559 418Q589 332 612 267T643 182Q650 201 673 264T727 418L1073 1409H1276L748 0H537Z" horiz-adv-x="1284" unicode="V"/>
			<glyph d="M8 1409H209L426 514Q476 311 506 182Q537 328 590 532L807 1409H1008L1227 532Q1292 257 1311 182Q1318 214 1357 374L1391 514L1604 1409H1802L1438 0H1200L973 895Q958 953 923 1111L907 1186Q867 1000 840 895L610 0H375Z" horiz-adv-x="1810" unicode="W"/>
			<glyph d="M86 1409H305L649 869L983 1409H1200L757 739L1241 0H1024L647 604L262 0H45L546 731Z" horiz-adv-x="1286" unicode="X"/>
			<glyph d="M45 1409H256L643 696L1028 1409H1239L737 539V0H547V539Z" horiz-adv-x="1284" unicode="Y"/>
			<glyph d="M86 1409H1028V1262L257 170H1065V0H25V152L796 1239H86Z" horiz-adv-x="1087" unicode="Z"/>
			<glyph d="M145 1485H553V1335H319V-276H553V-426H145Z" horiz-adv-x="569" unicode="["/>
			<glyph d="M0 1485H158L569 -20H408Z" horiz-adv-x="569" unicode="\"/>
			<glyph d="M16 1485H424V-426H16V-276H250V1335H16Z" horiz-adv-x="569" unicode="]"/>
			<glyph d="M379 1409H582L950 674H786L477 1307L172 674H10Z" horiz-adv-x="961" unicode="^"/>
			<glyph d="M-23 -215H1161V-346H-23Z" unicode="_"/>
			<glyph d="M106 1507H313L530 1221V1200H395L106 1479Z" horiz-adv-x="682" unicode="`"/>
			<glyph d="M555 1102Q680 1102 769 1054T904 922T950 729V229Q950 101 958 0H784Q776 73 776 160H772Q711 71 631 25T424 -20Q259 -20 172 65T86 301Q86 482 221 560T557 643L772 647V711Q772 823 714 886T551 950Q465 950 395 914T242 788L129 905Q199 991 306 1046T555 1102ZM772 506L602 502Q453 498 362 453T272 299Q272 222 323 176T465 131Q561 131 630 169T736 270T772 403Z" horiz-adv-x="1094" unicode="a"/>
			<glyph d="M137 1485H317V1061Q317 1015 315 976T313 926H317Q375 1017 462 1059T666 1102Q797 1102 891 1036T1034 846T1083 547Q1083 369 1031 241T883 47T655 -20Q534 -20 451 22T317 156H315Q315 113 311 62T305 0H131Q133 31 135 92T137 223ZM621 942Q534 942 466 900T357 765T317 528Q317 396 356 307T463 176T618 133Q747 133 821 236T895 541Q895 737 824 839T621 942Z" horiz-adv-x="1169" unicode="b"/>
			<glyph d="M578 1102Q707 1102 795 1058T961 926L834 811Q774 881 717 912T575 944Q429 944 351 837T274 547Q274 369 344 255T573 141Q632 141 680 157T771 200T872 272L969 139Q900 75 803 27T578 -20Q408 -20 297 57T136 262T86 543Q86 735 155 860T336 1044T578 1102Z" horiz-adv-x="1004" unicode="c"/>
			<glyph d="M852 1485H1032V223Q1032 153 1034 92T1038 0H866Q862 17 859 65T856 162H852Q804 71 718 25T522 -20Q305 -20 195 129T86 537Q86 708 137 835T290 1032T541 1102Q645 1102 727 1060T852 934H854Q852 956 852 1065ZM563 948Q274 948 274 543Q274 351 340 245T549 139Q689 139 770 238T852 555Q852 762 773 855T563 948Z" horiz-adv-x="1169" unicode="d"/>
			<glyph d="M557 1102Q720 1102 822 1025T969 831T1014 580Q1014 546 1010 494H276Q276 407 309 324T412 188T582 135Q645 135 696 152T789 198T881 270L979 141Q928 98 878 65T751 6T582 -20Q424 -20 312 50T143 248T86 545Q86 722 147 847T316 1037T557 1102ZM557 948Q490 948 428 916T325 817T279 645H829Q816 799 748 873T557 948Z" horiz-adv-x="1106" unicode="e"/>
			<glyph d="M461 1485Q539 1485 612 1468L596 1313Q564 1318 542 1320T483 1323Q412 1323 386 1285T360 1161V1081H600V930H360V0H180V930H39V1081H180V1186Q180 1323 248 1404T461 1485Z" horiz-adv-x="612" unicode="f"/>
			<glyph d="M1042 1182H1047L1057 1001H1053Q948 1001 879 968Q920 918 940 854T961 717Q961 613 911 527T765 391T535 340Q428 340 341 374Q325 356 317 340T309 301Q309 255 343 233T432 202T602 186Q761 177 853 158T1009 79T1073 -106Q1073 -264 938 -345T543 -426Q297 -426 181 -359T66 -156Q66 -84 104 -27T218 86Q141 138 141 242Q141 300 168 348T242 431Q181 481 149 554T117 717Q117 824 165 911T308 1050T541 1102Q687 1102 787 1045Q837 1113 897 1147T1042 1182ZM543 961Q431 961 366 895T301 717Q301 601 364 541T532 481Q606 481 661 511T746 594T776 717Q776 829 713 895T543 961ZM322 42Q279 -5 260 -42T242 -129Q242 -192 280 -225T384 -271T553 -283Q720 -283 802 -246T885 -115Q885 -65 847 -38T742 -1T553 16Q478 20 423 25T322 42Z" horiz-adv-x="1094" unicode="g"/>
			<glyph d="M141 1485H322V1098Q322 1041 318 980T313 897H317Q377 1006 459 1054T664 1102Q853 1102 929 993T1006 721V0H825V686Q825 802 778 872T602 942Q518 942 454 905T356 799T322 639V0H141Z" unicode="h"/>
			<glyph d="M227 1524Q278 1524 312 1489T346 1403Q346 1352 312 1317T227 1282Q175 1282 140 1316T106 1403Q106 1455 140 1489T227 1524ZM137 1081H317V0H137Z" horiz-adv-x="455" unicode="i"/>
			<glyph d="M227 1524Q278 1524 312 1489T346 1403Q346 1352 312 1317T227 1282Q175 1282 140 1316T106 1403Q106 1455 140 1489T227 1524ZM137 1081H317V-133Q317 -271 264 -348T78 -426Q-3 -426 -49 -416L-37 -256Q-8 -262 20 -262Q67 -262 92 -246T127 -196T137 -106Z" horiz-adv-x="455" unicode="j"/>
			<glyph d="M137 1485H317V567L782 1081H1004L565 616L1026 0H811L451 494L317 377V0H137Z" horiz-adv-x="1024" unicode="k"/>
			<glyph d="M131 1485H311V289Q311 210 328 178T389 147Q412 147 433 150T487 162L510 8Q468 -4 431 -10T348 -16Q131 -16 131 250Z" horiz-adv-x="524" unicode="l"/>
			<glyph d="M633 1102Q745 1102 823 1050T928 897H930Q978 994 1062 1048T1257 1102Q1412 1102 1491 1010T1571 721V0H1393V686Q1393 827 1344 884T1194 942Q1128 942 1071 906T980 798T946 627V0H768V686Q768 827 719 884T569 942Q503 942 446 904T356 795T322 627V0H141V852Q141 914 139 991T135 1081H305Q308 1054 310 994T313 897H317Q420 1102 633 1102Z" horiz-adv-x="1706" unicode="m"/>
			<glyph d="M664 1102Q837 1102 921 1000T1006 721V0H825V686Q825 811 773 876T602 942Q517 942 454 905T356 797T322 627V0H141V852Q141 914 139 991T135 1081H305Q308 1054 310 994T313 897H317Q372 999 451 1050T664 1102Z" unicode="n"/>
			<glyph d="M571 1102Q814 1102 933 952T1053 543Q1053 373 997 246T831 49T565 -20Q416 -20 308 49T143 246T86 543Q86 710 141 836T305 1032T571 1102ZM573 948Q432 948 353 845T274 543Q274 407 311 315T414 178T563 133Q706 133 785 234T864 543Q864 747 788 847T573 948Z" unicode="o"/>
			<glyph d="M657 1102Q801 1102 896 1030T1037 833T1083 547Q1083 386 1036 258T891 55T647 -20Q542 -20 451 21T319 147H313Q314 143 315 96T317 -2V-426H137V860Q137 931 135 995T131 1081H305Q307 1073 311 1020T315 928H319Q424 1102 657 1102ZM621 942Q491 942 404 848T317 528Q317 327 399 230T618 133Q757 133 826 243T895 543Q895 726 826 834T621 942Z" horiz-adv-x="1169" unicode="p"/>
			<glyph d="M532 1102Q652 1102 727 1060T852 934H854Q854 975 857 1025T864 1081H1036Q1032 1037 1032 801V-426H852V14Q852 53 853 100T856 162H854Q800 67 718 23T512 -20Q377 -20 281 46T136 237T86 537Q86 712 140 839T294 1034T532 1102ZM569 948Q421 948 347 844T274 543Q274 348 343 243T555 139Q681 139 766 232T852 555Q852 764 773 856T569 948Z" horiz-adv-x="1169" unicode="q"/>
			<glyph d="M563 1102Q618 1102 653 1092L639 915Q603 926 553 926Q434 926 378 828T322 563V0H141V829Q141 993 135 1081H305Q308 1038 310 985T313 901H317Q357 1002 420 1052T563 1102Z" horiz-adv-x="682" unicode="r"/>
			<glyph d="M471 1100Q577 1100 676 1063T844 961L741 834Q685 887 612 917T471 948Q375 948 319 913T264 809Q264 760 292 730T367 683T504 641L539 631Q643 602 712 570T831 472T881 299Q881 199 829 127T685 17T473 -20Q346 -20 233 21T41 147L147 276Q220 202 300 165T473 129Q573 129 639 165T705 285Q705 341 678 374T607 427T477 473L432 487Q329 516 258 549T138 643T90 801Q90 896 137 963T271 1065T471 1100Z" horiz-adv-x="946" unicode="s"/>
			<glyph d="M344 1323V1081H578V930H344V268Q344 200 371 173T467 147Q489 147 515 150T557 157T580 162L596 8Q549 -4 508 -10T416 -16Q164 -16 164 229V930H31V1081H168L176 1305Z" horiz-adv-x="621" unicode="t"/>
			<glyph d="M133 1081H313V416Q313 268 366 203T537 139Q615 139 679 180T780 297T817 469V1081H997V231Q997 165 999 89T1004 0H834Q832 11 828 77T825 178H821Q768 83 684 31T475 -20Q305 -20 219 82T133 381Z" unicode="u"/>
			<glyph d="M6 1081H199L430 379Q458 300 500 158Q524 243 573 377L813 1081H1006L610 0H389Z" horiz-adv-x="1012" unicode="v"/>
			<glyph d="M-2 1081H176L360 346Q370 308 382 247T401 154L420 232L446 340L641 1081H840L1028 340L1038 296Q1066 184 1071 154Q1073 163 1076 177T1084 211Q1096 271 1114 346L1307 1081H1485L1174 0H965L793 698Q781 744 763 820T739 930Q737 915 719 833T686 694L508 0H299Z" horiz-adv-x="1479" unicode="w"/>
			<glyph d="M41 1081H244L510 666L774 1081H979L614 557L1001 0H797L510 440L223 0H23L406 555Z" horiz-adv-x="1024" unicode="x"/>
			<glyph d="M4 1081H197L426 483Q447 427 482 325T522 203Q526 217 561 309Q604 423 618 465L829 1081H1020L604 0Q549 -142 494 -233T365 -375T190 -426Q153 -426 125 -423T68 -414L80 -268Q116 -274 152 -274Q321 -274 418 -39L434 4Z" horiz-adv-x="1024" unicode="y"/>
			<glyph d="M123 1081H907V938L308 154H928V0H90V143L688 928H123Z" horiz-adv-x="1024" unicode="z"/>
			<glyph d="M512 1485H647V1335H586Q497 1335 457 1282T418 1120V784Q418 687 363 619T223 532V530Q311 510 364 443T418 276V-61Q418 -169 457 -222T586 -276H647V-426H512Q385 -426 317 -347T250 -131V229Q250 349 196 400T35 457V606Q142 608 196 659T250 829V1192Q250 1333 317 1409T512 1485Z" horiz-adv-x="684" unicode="{"/>
			<glyph d="M182 1485H348V-426H182Z" horiz-adv-x="532" unicode="|"/>
			<glyph d="M35 1485H166Q295 1485 362 1409T430 1192V829Q430 710 483 659T647 606V457Q537 452 483 401T430 229V-131Q430 -269 362 -347T166 -426H35V-276H94Q183 -276 223 -222T264 -61V276Q264 376 316 443T457 530V532Q372 551 318 619T264 784V1120Q264 1229 223 1282T94 1335H35Z" horiz-adv-x="684" unicode="}"/>
			<glyph d="M354 807Q426 807 494 789T664 735Q792 690 860 690Q925 690 987 714T1104 782V633Q1042 589 983 571T844 553Q782 553 716 571T557 623Q428 668 340 668Q268 668 212 646T92 580V723Q143 763 210 785T354 807Z" horiz-adv-x="1196" unicode="~"/>
			<glyph d="" horiz-adv-x="569" unicode=" "/>
			<glyph d="M340 1093Q396 1093 430 1058T465 968Q465 914 430 879T340 845Q287 845 252 880T217 968Q217 1023 251 1058T340 1093ZM267 684H414L439 -328H242Z" horiz-adv-x="682" unicode="¡"/>
			<glyph d="M528 1409H670V1254Q778 1246 855 1203T1002 1080L875 965Q815 1035 758 1066T616 1098Q470 1098 392 991T315 701Q315 523 385 409T614 295Q673 295 721 311T812 354T913 426L1010 293Q858 153 670 136V-31H528V140Q390 161 300 241T168 439T127 697Q127 866 181 983T326 1165T528 1249Z" unicode="¢"/>
			<glyph d="M645 1430Q759 1430 849 1392T1016 1270L889 1147Q833 1206 778 1234T649 1262Q536 1262 480 1208T424 1042V764H831V614H424V500Q424 384 385 289T276 154H737Q819 154 872 196T940 330L1104 311Q1087 157 996 78T768 0H70V154Q158 200 201 280T244 481V614H57V764H244V1034Q244 1223 344 1326T645 1430Z" unicode="£"/>
			<glyph d="M219 1139L317 1038Q431 1120 571 1120Q709 1120 823 1040L920 1137L1024 1032L928 936Q1008 818 1008 684Q1008 615 986 550T926 432L1026 332L924 227L823 328Q710 250 571 250Q501 250 436 270T319 330L215 225L113 330L215 432Q137 547 137 684Q137 821 215 936L115 1036ZM571 967Q496 967 431 929T329 826T291 686Q291 610 329 546T431 444T571 406Q647 406 711 444T814 546T852 686Q852 762 814 826T711 929T571 967Z" unicode="¤"/>
			<glyph d="M-2 1409H197L567 762L942 1409H1143L721 709H1040V584H657V430H1040V303H657V0H479V303H98V430H479L481 584H98V709H420Z" unicode="¥"/>
			<glyph d="M182 1485H348V707H182ZM182 352H348V-426H182Z" horiz-adv-x="532" unicode="¦"/>
			<glyph d="M582 1485Q697 1485 791 1453T963 1352L860 1241Q800 1294 733 1321T582 1348Q465 1348 399 1310T334 1204Q334 1147 374 1109T477 1048T635 1004Q746 978 829 942T968 844T1024 686Q1024 624 999 568T924 472T805 414Q911 367 964 305T1018 145Q1018 48 967 -23T817 -133T578 -172Q443 -172 336 -134T131 -8L240 115Q323 31 405 -2T578 -35Q703 -35 780 4T858 129Q858 196 812 238T699 305T518 358Q358 394 256 466T154 672Q154 731 181 785T260 879T381 938Q291 968 232 1034T174 1190Q174 1282 222 1348T362 1449T582 1485ZM551 881Q476 877 422 850T341 780T313 684Q313 626 352 586T455 522T612 475Q725 477 795 526T866 664Q866 750 782 798T551 881Z" unicode="§"/>
			<glyph d="M133 1444Q176 1444 206 1413T236 1339Q236 1296 206 1266T133 1237Q90 1237 60 1266T31 1339Q31 1383 60 1413T133 1444ZM516 1444Q559 1444 588 1413T618 1339Q618 1296 588 1266T516 1237Q473 1237 443 1266T414 1339Q414 1383 443 1413T516 1444Z" horiz-adv-x="682" unicode="¨"/>
			<glyph d="M754 1430Q950 1430 1116 1332T1379 1069T1477 707Q1477 510 1379 344T1116 81T754 -16Q558 -16 392 81T128 344T31 707Q31 903 128 1069T391 1332T754 1430ZM754 1335Q584 1335 440 1250T211 1021T127 707Q127 535 211 391T440 162T754 78Q925 78 1070 162T1299 391T1384 707Q1384 877 1299 1021T1069 1250T754 1335ZM758 1133Q864 1133 939 1092T1063 987L973 920Q939 966 885 995T760 1024Q679 1024 620 985T529 875T498 709Q498 614 531 541T626 427T766 387Q847 387 901 425T995 524L1090 461Q980 279 766 279Q644 279 554 334T416 486T369 709Q369 838 416 934T550 1081T758 1133Z" horiz-adv-x="1509" unicode="©"/>
			<glyph d="M418 1432Q556 1432 635 1361T715 1161V801V670H582L580 724Q580 742 578 778H573Q499 651 315 651Q208 651 145 709T82 870Q82 993 169 1053T393 1116L571 1120V1155Q571 1317 414 1317Q356 1317 308 1295T199 1217L119 1313Q183 1371 253 1401T418 1432ZM571 1016L434 1012Q231 1005 231 883Q231 829 261 799T354 770Q416 770 465 795T543 862T571 958Z" horiz-adv-x="821" unicode="ª"/>
			<glyph d="M420 940H586V909L252 537L588 170V141H420L84 506V569ZM887 940H1055V909L717 537L1057 170V141H887L549 506V569Z" unicode="«"/>
			<glyph d="M100 754H1096V180H950V608H100Z" horiz-adv-x="1196" unicode="¬"/>
			<glyph d="M90 625H592V465H90Z" horiz-adv-x="682" unicode="­"/>
			<glyph d="M754 1430Q950 1430 1116 1332T1379 1069T1477 707Q1477 510 1379 344T1116 81T754 -16Q558 -16 392 81T128 344T31 707Q31 903 128 1069T391 1332T754 1430ZM754 1335Q584 1335 440 1250T211 1021T127 707Q127 535 211 391T440 162T754 78Q925 78 1070 162T1299 391T1384 707Q1384 877 1299 1021T1069 1250T754 1335ZM469 1120H774Q914 1120 990 1057T1067 883Q1067 784 1016 721T879 639L1100 289H954L756 625H596V289H469ZM596 1022V721H776Q855 721 897 763T940 881Q940 949 893 985T766 1022Z" horiz-adv-x="1509" unicode="®"/>
			<glyph d="M-16 1546H1149V1452H-16Z" horiz-adv-x="1130" unicode="¯"/>
			<glyph d="M410 1430Q487 1430 553 1392T657 1288T696 1145Q696 1067 657 1002T553 898T410 860Q332 860 266 898T161 1001T123 1145Q123 1224 161 1289T266 1392T410 1430ZM410 1325Q361 1325 320 1301T255 1235T231 1145Q231 1097 255 1055T320 989T410 965Q459 965 500 989T564 1055T588 1145Q588 1194 564 1235T500 1301T410 1325Z" horiz-adv-x="819" unicode="°"/>
			<glyph d="M489 1219H637V825H1061V680H637V285H489V680H66V825H489ZM66 145H1061V0H66Z" horiz-adv-x="1124" unicode="±"/>
			<glyph d="M346 1626Q419 1626 476 1599T565 1520T598 1393Q598 1339 576 1291T522 1203T428 1097L387 1053L226 877H614V768H49V856L301 1137Q364 1207 395 1246T441 1320T457 1393Q457 1449 425 1480T340 1511Q286 1511 237 1481T135 1393L49 1481Q107 1552 183 1589T346 1626Z" horiz-adv-x="674" unicode="²"/>
			<glyph d="M338 1626Q424 1626 482 1596T568 1515T596 1399Q596 1321 552 1269T426 1204V1200Q523 1192 569 1137T616 1004Q616 886 540 820T332 754Q218 754 147 799T47 920L172 975Q222 868 330 868Q475 868 475 1006Q475 1082 419 1109T291 1137H246V1255H289Q354 1255 404 1286T455 1391Q455 1446 422 1477T330 1509Q238 1509 176 1411L66 1479Q112 1553 183 1589T338 1626Z" horiz-adv-x="674" unicode="³"/>
			<glyph d="M289 1507H496V1479L207 1200H72V1221Z" horiz-adv-x="682" unicode="´"/>
			<glyph d="M137 1081H319V438Q319 298 378 219T575 141Q655 141 710 182T794 297T823 465V1081H1004V266Q1004 189 1021 160T1077 131Q1103 131 1137 139L1157 0Q1082 -20 1020 -20Q926 -20 882 22T831 162H827Q775 67 714 23T555 -20Q473 -20 412 10T319 94H315Q319 53 319 -20V-426H137Z" horiz-adv-x="1163" unicode="µ"/>
			<glyph d="M451 1409H1014V1307H885V-264H772V1307H555V-264H442V694Q334 694 252 734T125 854T80 1049Q80 1160 124 1241T251 1365T451 1409Z" horiz-adv-x="1100" unicode="¶"/>
			<glyph d="M287 689Q340 689 375 654T410 566Q410 511 375 476T287 441Q232 441 197 476T162 566Q162 620 197 654T287 689Z" horiz-adv-x="569" unicode="·"/>
			<glyph d="M227 0H350L311 -102Q396 -108 439 -146T483 -248Q483 -426 209 -426Q152 -426 119 -422V-309Q169 -315 205 -315Q284 -315 318 -299T352 -252Q352 -195 213 -195Q174 -195 156 -197Z" horiz-adv-x="682" unicode="¸"/>
			<glyph d="M309 1614H438V868H623V768H84V868H299V1493L86 1362V1477Z" horiz-adv-x="674" unicode="¹"/>
			<glyph d="M412 1432Q530 1432 607 1380T721 1240T758 1042Q758 929 718 840T600 701T408 651Q299 651 220 702T101 841T61 1042Q61 1150 100 1238T219 1379T412 1432ZM414 1307Q319 1307 266 1237T213 1042Q213 912 265 844T406 776Q505 776 556 843T608 1042Q608 1170 558 1238T414 1307Z" horiz-adv-x="819" unicode="º"/>
			<glyph d="M86 940H254L588 569V506L254 141H84V170L422 537L86 909ZM553 940H719L1057 569V506L719 141H551V170L889 537L553 909Z" unicode="»"/>
			<glyph d="M309 1409H438V663H623V563H84V663H299V1288L86 1157V1272ZM1241 1409H1387L508 0H361ZM1331 846H1487V287H1593V190H1487V0H1352V190H965V287ZM1356 713Q1347 700 1319 653Q1310 639 1301 624T1282 594L1116 346Q1103 327 1075 287H1352V604Q1352 655 1356 713Z" horiz-adv-x="1606" unicode="¼"/>
			<glyph d="M309 1409H438V663H623V563H84V663H299V1288L86 1157V1272ZM1241 1409H1387L508 0H361ZM1403 858Q1476 858 1533 831T1622 752T1655 625Q1655 571 1633 523T1579 435T1485 329L1444 285L1283 109H1671V0H1106V88L1358 369Q1421 439 1452 478T1498 552T1514 625Q1514 681 1482 712T1397 743Q1343 743 1294 713T1192 625L1106 713Q1164 784 1240 821T1403 858Z" horiz-adv-x="1731" unicode="½"/>
			<glyph d="M338 1421Q424 1421 482 1391T568 1310T596 1194Q596 1116 552 1064T426 999V995Q523 987 569 932T616 799Q616 681 540 615T332 549Q218 549 147 594T47 715L172 770Q222 663 330 663Q475 663 475 801Q475 877 419 904T291 932H246V1050H289Q354 1050 404 1081T455 1186Q455 1241 422 1272T330 1304Q238 1304 176 1206L66 1274Q112 1348 183 1384T338 1421ZM1200 1409H1346L467 0H320ZM1290 846H1446V287H1552V190H1446V0H1311V190H924V287ZM1315 713Q1306 700 1278 653Q1269 639 1260 624T1241 594L1075 346Q1062 327 1034 287H1311V604Q1311 655 1315 713Z" horiz-adv-x="1565" unicode="¾"/>
			<glyph d="M660 1093Q715 1093 750 1058T785 968Q785 915 750 880T660 845Q606 845 571 880T537 968Q537 1023 571 1058T660 1093ZM576 704H750Q748 613 717 547T644 439T530 343Q502 321 504 323Q451 283 417 249T363 168T342 57Q342 -19 379 -75T479 -160T617 -189Q736 -189 813 -133T953 28L1100 -60Q1035 -193 913 -271T619 -349Q483 -349 379 -300T217 -161T160 49Q160 146 194 218T277 337T404 442Q465 490 497 521T552 597T576 704Z" horiz-adv-x="1251" unicode="¿"/>
			<glyph d="M535 1409H760L1280 0H1085L952 381H336L203 0H4ZM645 1257Q636 1225 612 1158T561 1024L394 547H894L727 1026Q700 1096 676 1162T645 1257ZM376 1776H583L800 1550V1530H645L376 1747Z" horiz-adv-x="1284" unicode="À"/>
			<glyph d="M535 1409H760L1280 0H1085L952 381H336L203 0H4ZM645 1257Q636 1225 612 1158T561 1024L394 547H894L727 1026Q700 1096 676 1162T645 1257ZM717 1776H924V1747L655 1530H500V1550Z" horiz-adv-x="1284" unicode="Á"/>
			<glyph d="M535 1409H760L1280 0H1085L952 381H336L203 0H4ZM645 1257Q636 1225 612 1158T561 1024L394 547H894L727 1026Q700 1096 676 1162T645 1257ZM544 1790H749L973 1550V1530H827L649 1669H647L456 1530H311V1550Z" horiz-adv-x="1284" unicode="Â"/>
			<glyph d="M535 1409H760L1280 0H1085L952 381H336L203 0H4ZM645 1257Q636 1225 612 1158T561 1024L394 547H894L727 1026Q700 1096 676 1162T645 1257ZM487 1798Q529 1798 570 1780T669 1730Q714 1704 741 1691T792 1679Q831 1679 851 1709T878 1798H1001Q992 1723 974 1666T915 1569T799 1530Q759 1530 719 1547T622 1597Q576 1623 547 1636T493 1649Q453 1649 432 1619T405 1530H284Q297 1647 339 1722T487 1798Z" horiz-adv-x="1284" unicode="Ã"/>
			<glyph d="M535 1409H760L1280 0H1085L952 381H336L203 0H4ZM645 1257Q636 1225 612 1158T561 1024L394 547H894L727 1026Q700 1096 676 1162T645 1257ZM452 1741Q495 1741 526 1710T557 1634Q557 1590 526 1560T452 1530Q409 1530 378 1560T348 1634Q348 1679 378 1710T452 1741ZM835 1741Q878 1741 909 1710T940 1634Q940 1590 909 1560T835 1530Q792 1530 761 1560T731 1634Q731 1679 761 1710T835 1741Z" horiz-adv-x="1284" unicode="Ä"/>
			<glyph d="M643 1786Q708 1786 764 1753T852 1665T885 1544Q885 1485 857 1433T783 1347L1280 0H1085L952 381H336L203 0H4L510 1343Q460 1377 430 1430T401 1544Q401 1609 433 1665T522 1753T643 1786ZM643 1679Q586 1679 547 1640T508 1544Q508 1487 547 1448T643 1409Q700 1409 738 1448T776 1544Q776 1602 738 1640T643 1679ZM645 1257Q636 1225 612 1158T561 1024L394 547H894L727 1026Q700 1096 676 1162T645 1257Z" horiz-adv-x="1284" unicode="Å"/>
			<glyph d="M711 1409H1874V1233H1159V811H1815V637H1159V176H1915V0H969V397H413L223 0H25ZM821 1262L759 1127L711 1022L491 561H969V1262Z" horiz-adv-x="2003" unicode="Æ"/>
			<glyph d="M760 1430Q952 1430 1089 1347T1307 1130L1153 1032Q1106 1100 1055 1147T932 1223T762 1253Q614 1253 508 1182T347 989T293 711Q293 557 350 431T516 231T770 158Q901 158 997 222T1174 403L1327 307Q1252 179 1131 92T846 -15L813 -102Q898 -108 941 -146T985 -248Q985 -426 711 -426Q654 -426 621 -422V-309Q671 -315 707 -315Q786 -315 820 -299T854 -252Q854 -195 715 -195Q676 -195 658 -197L722 -19Q522 -10 381 88T169 348T98 711Q98 922 176 1084T403 1338T760 1430Z" horiz-adv-x="1405" unicode="Ç"/>
			<glyph d="M168 1409H1073V1233H358V811H1014V637H358V176H1114V0H168ZM378 1776H585L802 1550V1530H647L378 1747Z" horiz-adv-x="1202" unicode="È"/>
			<glyph d="M168 1409H1073V1233H358V811H1014V637H358V176H1114V0H168ZM719 1776H926V1747L657 1530H502V1550Z" horiz-adv-x="1202" unicode="É"/>
			<glyph d="M168 1409H1073V1233H358V811H1014V637H358V176H1114V0H168ZM546 1790H751L975 1550V1530H829L651 1669H649L458 1530H313V1550Z" horiz-adv-x="1202" unicode="Ê"/>
			<glyph d="M168 1409H1073V1233H358V811H1014V637H358V176H1114V0H168ZM454 1741Q497 1741 528 1710T559 1634Q559 1590 528 1560T454 1530Q411 1530 380 1560T350 1634Q350 1679 380 1710T454 1741ZM837 1741Q880 1741 911 1710T942 1634Q942 1590 911 1560T837 1530Q794 1530 763 1560T733 1634Q733 1679 763 1710T837 1741Z" horiz-adv-x="1202" unicode="Ë"/>
			<glyph d="M188 1409H381V0H188ZM18 1776H225L442 1550V1530H287L18 1747Z" horiz-adv-x="569" unicode="Ì"/>
			<glyph d="M188 1409H381V0H188ZM359 1776H566V1747L297 1530H142V1550Z" horiz-adv-x="569" unicode="Í"/>
			<glyph d="M188 1409H381V0H188ZM186 1790H391L615 1550V1530H469L291 1669H289L98 1530H-47V1550Z" horiz-adv-x="569" unicode="Î"/>
			<glyph d="M188 1409H381V0H188ZM94 1741Q137 1741 168 1710T199 1634Q199 1590 168 1560T94 1530Q51 1530 20 1560T-10 1634Q-10 1679 20 1710T94 1741ZM477 1741Q520 1741 551 1710T582 1634Q582 1590 551 1560T477 1530Q434 1530 403 1560T373 1634Q373 1679 403 1710T477 1741Z" horiz-adv-x="569" unicode="Ï"/>
			<glyph d="M168 1409H614Q825 1409 983 1335T1230 1106T1319 719Q1319 491 1234 329T1004 83T674 0H168V647H14V801H168ZM358 1235V801H766V647H358V174H653Q792 174 899 236T1067 421T1128 719Q1128 982 989 1108T610 1235Z" horiz-adv-x="1417" unicode="Ð"/>
			<glyph d="M168 1409H393L1106 211Q1105 237 1102 324T1100 485V1409H1272V0H1036L334 1190Q335 1163 336 1089T338 936V0H168ZM581 1798Q623 1798 664 1780T763 1730Q808 1704 835 1691T886 1679Q925 1679 945 1709T972 1798H1095Q1086 1723 1068 1666T1009 1569T893 1530Q853 1530 813 1547T716 1597Q670 1623 641 1636T587 1649Q547 1649 526 1619T499 1530H378Q391 1647 433 1722T581 1798Z" horiz-adv-x="1440" unicode="Ñ"/>
			<glyph d="M756 1430Q955 1430 1104 1341T1333 1090T1413 711Q1413 493 1331 327T1099 70T754 -20Q550 -20 401 73T174 332T96 711Q96 929 176 1091T406 1342T756 1430ZM756 1253Q612 1253 507 1186T347 996T291 711Q291 549 348 423T510 226T754 156Q903 156 1007 226T1165 422T1219 711Q1219 873 1162 996T1000 1186T756 1253ZM489 1776H696L913 1550V1530H758L489 1747Z" horiz-adv-x="1509" unicode="Ò"/>
			<glyph d="M756 1430Q955 1430 1104 1341T1333 1090T1413 711Q1413 493 1331 327T1099 70T754 -20Q550 -20 401 73T174 332T96 711Q96 929 176 1091T406 1342T756 1430ZM756 1253Q612 1253 507 1186T347 996T291 711Q291 549 348 423T510 226T754 156Q903 156 1007 226T1165 422T1219 711Q1219 873 1162 996T1000 1186T756 1253ZM830 1776H1037V1747L768 1530H613V1550Z" horiz-adv-x="1509" unicode="Ó"/>
			<glyph d="M756 1430Q955 1430 1104 1341T1333 1090T1413 711Q1413 493 1331 327T1099 70T754 -20Q550 -20 401 73T174 332T96 711Q96 929 176 1091T406 1342T756 1430ZM756 1253Q612 1253 507 1186T347 996T291 711Q291 549 348 423T510 226T754 156Q903 156 1007 226T1165 422T1219 711Q1219 873 1162 996T1000 1186T756 1253ZM657 1790H862L1086 1550V1530H940L762 1669H760L569 1530H424V1550Z" horiz-adv-x="1509" unicode="Ô"/>
			<glyph d="M756 1430Q955 1430 1104 1341T1333 1090T1413 711Q1413 493 1331 327T1099 70T754 -20Q550 -20 401 73T174 332T96 711Q96 929 176 1091T406 1342T756 1430ZM756 1253Q612 1253 507 1186T347 996T291 711Q291 549 348 423T510 226T754 156Q903 156 1007 226T1165 422T1219 711Q1219 873 1162 996T1000 1186T756 1253ZM600 1798Q642 1798 683 1780T782 1730Q827 1704 854 1691T905 1679Q944 1679 964 1709T991 1798H1114Q1105 1723 1087 1666T1028 1569T912 1530Q872 1530 832 1547T735 1597Q689 1623 660 1636T606 1649Q566 1649 545 1619T518 1530H397Q410 1647 452 1722T600 1798Z" horiz-adv-x="1509" unicode="Õ"/>
			<glyph d="M756 1430Q955 1430 1104 1341T1333 1090T1413 711Q1413 493 1331 327T1099 70T754 -20Q550 -20 401 73T174 332T96 711Q96 929 176 1091T406 1342T756 1430ZM756 1253Q612 1253 507 1186T347 996T291 711Q291 549 348 423T510 226T754 156Q903 156 1007 226T1165 422T1219 711Q1219 873 1162 996T1000 1186T756 1253ZM565 1741Q608 1741 639 1710T670 1634Q670 1590 639 1560T565 1530Q522 1530 491 1560T461 1634Q461 1679 491 1710T565 1741ZM948 1741Q991 1741 1022 1710T1053 1634Q1053 1590 1022 1560T948 1530Q905 1530 874 1560T844 1634Q844 1679 874 1710T948 1741Z" horiz-adv-x="1509" unicode="Ö"/>
			<glyph d="M248 1139L598 786L948 1137L1053 1032L702 684L1055 332L952 227L600 580L244 225L141 330L496 684L143 1036Z" horiz-adv-x="1196" unicode="×"/>
			<glyph d="M1237 1466H1430L1245 1224Q1327 1129 1370 999T1413 711Q1413 493 1331 327T1099 70T754 -20Q534 -20 377 89L268 -53H80L266 191Q183 288 139 420T96 711Q96 929 176 1091T406 1342T756 1430Q972 1430 1130 1325ZM756 1253Q612 1253 507 1186T347 996T291 711Q291 605 315 513T387 351L1016 1176Q905 1253 756 1253ZM1123 1065L492 239Q603 156 754 156Q903 156 1007 226T1165 422T1219 711Q1219 817 1194 906T1123 1065Z" horiz-adv-x="1509" unicode="Ø"/>
			<glyph d="M158 1409H348V528Q348 335 445 245T709 156Q879 156 984 249T1090 541V1409H1280V530Q1280 349 1205 225T1001 40T711 -20Q556 -20 431 37T232 215T158 512ZM452 1776H659L876 1550V1530H721L452 1747Z" horiz-adv-x="1438" unicode="Ù"/>
			<glyph d="M158 1409H348V528Q348 335 445 245T709 156Q879 156 984 249T1090 541V1409H1280V530Q1280 349 1205 225T1001 40T711 -20Q556 -20 431 37T232 215T158 512ZM793 1776H1000V1747L731 1530H576V1550Z" horiz-adv-x="1438" unicode="Ú"/>
			<glyph d="M158 1409H348V528Q348 335 445 245T709 156Q879 156 984 249T1090 541V1409H1280V530Q1280 349 1205 225T1001 40T711 -20Q556 -20 431 37T232 215T158 512ZM620 1790H825L1049 1550V1530H903L725 1669H723L532 1530H387V1550Z" horiz-adv-x="1438" unicode="Û"/>
			<glyph d="M158 1409H348V528Q348 335 445 245T709 156Q879 156 984 249T1090 541V1409H1280V530Q1280 349 1205 225T1001 40T711 -20Q556 -20 431 37T232 215T158 512ZM528 1741Q571 1741 602 1710T633 1634Q633 1590 602 1560T528 1530Q485 1530 454 1560T424 1634Q424 1679 454 1710T528 1741ZM911 1741Q954 1741 985 1710T1016 1634Q1016 1590 985 1560T911 1530Q868 1530 837 1560T807 1634Q807 1679 837 1710T911 1741Z" horiz-adv-x="1438" unicode="Ü"/>
			<glyph d="M45 1409H256L643 696L1028 1409H1239L737 539V0H547V539ZM717 1776H924V1747L655 1530H500V1550Z" horiz-adv-x="1284" unicode="Ý"/>
			<glyph d="M168 1409H358V1161H700Q863 1161 974 1108T1140 960T1196 735Q1196 613 1142 512T978 352T711 293H358V0H168ZM358 987V465H684Q790 465 862 499T970 594T1006 731Q1006 854 921 920T676 987Z" horiz-adv-x="1305" unicode="Þ"/>
			<glyph d="M608 1485Q740 1485 834 1446T976 1339T1024 1188Q1024 1106 994 1049T913 942L882 913Q839 874 819 848T799 791Q799 762 816 737T859 692T936 637Q1007 590 1053 548T1133 443T1167 295Q1167 204 1129 133T1011 21T809 -20Q723 -20 643 -2T510 43L565 205Q621 181 649 170T717 152T805 145Q897 145 946 182T995 289Q995 341 970 380T911 445T811 514Q755 551 717 584T655 667T631 784Q631 835 648 874T689 940T755 1003L776 1022Q813 1059 832 1093T852 1174Q852 1217 822 1251T737 1304T608 1323Q467 1323 394 1252T322 1022V0H141V1026Q141 1258 262 1371T608 1485Z" horiz-adv-x="1251" unicode="ß"/>
			<glyph d="M555 1102Q680 1102 769 1054T904 922T950 729V229Q950 101 958 0H784Q776 73 776 160H772Q711 71 631 25T424 -20Q259 -20 172 65T86 301Q86 482 221 560T557 643L772 647V711Q772 823 714 886T551 950Q465 950 395 914T242 788L129 905Q199 991 306 1046T555 1102ZM772 506L602 502Q453 498 362 453T272 299Q272 222 323 176T465 131Q561 131 630 169T736 270T772 403ZM268 1507H475L692 1221V1200H557L268 1479Z" horiz-adv-x="1094" unicode="à"/>
			<glyph d="M555 1102Q680 1102 769 1054T904 922T950 729V229Q950 101 958 0H784Q776 73 776 160H772Q711 71 631 25T424 -20Q259 -20 172 65T86 301Q86 482 221 560T557 643L772 647V711Q772 823 714 886T551 950Q465 950 395 914T242 788L129 905Q199 991 306 1046T555 1102ZM772 506L602 502Q453 498 362 453T272 299Q272 222 323 176T465 131Q561 131 630 169T736 270T772 403ZM637 1507H844V1479L555 1200H420V1221Z" horiz-adv-x="1094" unicode="á"/>
			<glyph d="M555 1102Q680 1102 769 1054T904 922T950 729V229Q950 101 958 0H784Q776 73 776 160H772Q711 71 631 25T424 -20Q259 -20 172 65T86 301Q86 482 221 560T557 643L772 647V711Q772 823 714 886T551 950Q465 950 395 914T242 788L129 905Q199 991 306 1046T555 1102ZM772 506L602 502Q453 498 362 453T272 299Q272 222 323 176T465 131Q561 131 630 169T736 270T772 403ZM459 1491H651L881 1221V1200H735L557 1370H555L364 1200H219V1221Z" horiz-adv-x="1094" unicode="â"/>
			<glyph d="M555 1102Q680 1102 769 1054T904 922T950 729V229Q950 101 958 0H784Q776 73 776 160H772Q711 71 631 25T424 -20Q259 -20 172 65T86 301Q86 482 221 560T557 643L772 647V711Q772 823 714 886T551 950Q465 950 395 914T242 788L129 905Q199 991 306 1046T555 1102ZM772 506L602 502Q453 498 362 453T272 299Q272 222 323 176T465 131Q561 131 630 169T736 270T772 403ZM395 1468Q437 1468 478 1450T577 1400Q624 1374 650 1362T700 1350Q766 1350 776 1468H909Q900 1393 882 1336T823 1240T707 1200Q666 1200 626 1217T530 1268Q482 1295 454 1308T401 1321Q366 1321 348 1291T324 1200H192Q205 1318 247 1393T395 1468Z" horiz-adv-x="1094" unicode="ã"/>
			<glyph d="M555 1102Q680 1102 769 1054T904 922T950 729V229Q950 101 958 0H784Q776 73 776 160H772Q711 71 631 25T424 -20Q259 -20 172 65T86 301Q86 482 221 560T557 643L772 647V711Q772 823 714 886T551 950Q465 950 395 914T242 788L129 905Q199 991 306 1046T555 1102ZM772 506L602 502Q453 498 362 453T272 299Q272 222 323 176T465 131Q561 131 630 169T736 270T772 403ZM358 1444Q401 1444 431 1413T461 1339Q461 1296 431 1266T358 1237Q315 1237 285 1266T256 1339Q256 1383 285 1413T358 1444ZM741 1444Q784 1444 813 1413T843 1339Q843 1296 813 1266T741 1237Q698 1237 668 1266T639 1339Q639 1383 668 1413T741 1444Z" horiz-adv-x="1094" unicode="ä"/>
			<glyph d="M555 1102Q680 1102 769 1054T904 922T950 729V229Q950 101 958 0H784Q776 73 776 160H772Q711 71 631 25T424 -20Q259 -20 172 65T86 301Q86 482 221 560T557 643L772 647V711Q772 823 714 886T551 950Q465 950 395 914T242 788L129 905Q199 991 306 1046T555 1102ZM772 506L602 502Q453 498 362 453T272 299Q272 222 323 176T465 131Q561 131 630 169T736 270T772 403ZM551 1651Q616 1651 672 1618T760 1530T793 1409Q793 1344 760 1288T672 1200T551 1167Q486 1167 430 1200T341 1288T309 1409Q309 1474 341 1530T430 1618T551 1651ZM551 1544Q494 1544 455 1505T416 1409Q416 1352 455 1313T551 1274Q608 1274 646 1313T684 1409Q684 1467 646 1505T551 1544Z" horiz-adv-x="1094" unicode="å"/>
			<glyph d="M551 1102Q673 1102 760 1057T905 922Q968 1010 1061 1056T1266 1102Q1427 1102 1528 1025T1673 830T1718 580Q1718 546 1714 494H977Q977 407 1011 324T1114 188T1286 135Q1349 135 1400 152T1493 198T1585 270L1683 141Q1633 99 1583 65T1456 6T1286 -20Q1147 -20 1044 37T881 203Q826 129 768 81T630 6T442 -20Q271 -20 178 65T86 301Q86 490 221 564T571 643L791 647V702Q791 821 729 885T549 950Q470 950 394 913T242 788L129 905Q210 995 311 1048T551 1102ZM1262 948Q1194 948 1131 916T1026 816T979 645H1534Q1508 948 1262 948ZM791 506L596 502Q456 500 364 459T272 299Q272 221 328 176T485 131Q584 131 653 179T757 299T791 444Z" horiz-adv-x="1810" unicode="æ"/>
			<glyph d="M578 1102Q707 1102 795 1058T961 926L834 811Q774 881 717 912T575 944Q429 944 351 837T274 547Q274 369 344 255T573 141Q632 141 680 157T771 200T872 272L969 139Q811 -6 615 -19L583 -102Q668 -108 711 -146T755 -248Q755 -426 481 -426Q424 -426 391 -422V-309Q440 -315 477 -315Q556 -315 590 -299T624 -252Q624 -195 485 -195Q446 -195 428 -197L494 -15Q353 4 262 84T128 283T86 543Q86 735 155 860T336 1044T578 1102Z" horiz-adv-x="1004" unicode="ç"/>
			<glyph d="M557 1102Q720 1102 822 1025T969 831T1014 580Q1014 546 1010 494H276Q276 407 309 324T412 188T582 135Q645 135 696 152T789 198T881 270L979 141Q928 98 878 65T751 6T582 -20Q424 -20 312 50T143 248T86 545Q86 722 147 847T316 1037T557 1102ZM557 948Q490 948 428 916T325 817T279 645H829Q816 799 748 873T557 948ZM272 1507H479L696 1221V1200H561L272 1479Z" horiz-adv-x="1106" unicode="è"/>
			<glyph d="M557 1102Q720 1102 822 1025T969 831T1014 580Q1014 546 1010 494H276Q276 407 309 324T412 188T582 135Q645 135 696 152T789 198T881 270L979 141Q928 98 878 65T751 6T582 -20Q424 -20 312 50T143 248T86 545Q86 722 147 847T316 1037T557 1102ZM557 948Q490 948 428 916T325 817T279 645H829Q816 799 748 873T557 948ZM641 1507H848V1479L559 1200H424V1221Z" horiz-adv-x="1106" unicode="é"/>
			<glyph d="M557 1102Q720 1102 822 1025T969 831T1014 580Q1014 546 1010 494H276Q276 407 309 324T412 188T582 135Q645 135 696 152T789 198T881 270L979 141Q928 98 878 65T751 6T582 -20Q424 -20 312 50T143 248T86 545Q86 722 147 847T316 1037T557 1102ZM557 948Q490 948 428 916T325 817T279 645H829Q816 799 748 873T557 948ZM463 1491H655L885 1221V1200H739L561 1370H559L368 1200H223V1221Z" horiz-adv-x="1106" unicode="ê"/>
			<glyph d="M557 1102Q720 1102 822 1025T969 831T1014 580Q1014 546 1010 494H276Q276 407 309 324T412 188T582 135Q645 135 696 152T789 198T881 270L979 141Q928 98 878 65T751 6T582 -20Q424 -20 312 50T143 248T86 545Q86 722 147 847T316 1037T557 1102ZM557 948Q490 948 428 916T325 817T279 645H829Q816 799 748 873T557 948ZM362 1444Q405 1444 435 1413T465 1339Q465 1296 435 1266T362 1237Q319 1237 289 1266T260 1339Q260 1383 289 1413T362 1444ZM745 1444Q788 1444 817 1413T847 1339Q847 1296 817 1266T745 1237Q702 1237 672 1266T643 1339Q643 1383 672 1413T745 1444Z" horiz-adv-x="1106" unicode="ë"/>
			<glyph d="M137 1081H317V0H137ZM2 1507H209L426 1221V1200H291L2 1479Z" horiz-adv-x="569" unicode="ì"/>
			<glyph d="M137 1081H317V0H137ZM371 1507H578V1479L289 1200H154V1221Z" horiz-adv-x="569" unicode="í"/>
			<glyph d="M137 1081H317V0H137ZM193 1491H385L615 1221V1200H469L291 1370H289L98 1200H-47V1221Z" horiz-adv-x="569" unicode="î"/>
			<glyph d="M137 1081H317V0H137ZM92 1444Q135 1444 165 1413T195 1339Q195 1296 165 1266T92 1237Q49 1237 19 1266T-10 1339Q-10 1383 19 1413T92 1444ZM475 1444Q518 1444 547 1413T577 1339Q577 1296 547 1266T475 1237Q432 1237 402 1266T373 1339Q373 1383 402 1413T475 1444Z" horiz-adv-x="569" unicode="ï"/>
			<glyph d="M424 1501Q535 1446 637 1369L930 1493V1362L740 1280Q900 1126 981 930T1063 516V510Q1063 356 1006 236T838 48T565 -20Q414 -20 306 46T142 227T86 481Q86 618 139 731T302 911T573 979Q642 979 701 963T805 920Q715 1097 604 1222L268 1077V1212L511 1315Q432 1382 356 1419ZM578 825Q432 825 353 732T274 481Q274 374 310 295T412 175T563 133Q711 133 792 224T874 481Q874 644 797 734T578 825Z" unicode="ð"/>
			<glyph d="M664 1102Q837 1102 921 1000T1006 721V0H825V686Q825 811 773 876T602 942Q517 942 454 905T356 797T322 627V0H141V852Q141 914 139 991T135 1081H305Q308 1054 310 994T313 897H317Q372 999 451 1050T664 1102ZM446 1468Q488 1468 529 1450T628 1400Q675 1374 701 1362T751 1350Q817 1350 827 1468H960Q951 1393 933 1336T874 1240T758 1200Q717 1200 677 1217T581 1268Q533 1295 505 1308T452 1321Q417 1321 399 1291T375 1200H243Q256 1318 298 1393T446 1468Z" unicode="ñ"/>
			<glyph d="M571 1102Q814 1102 933 952T1053 543Q1053 373 997 246T831 49T565 -20Q416 -20 308 49T143 246T86 543Q86 710 141 836T305 1032T571 1102ZM573 948Q432 948 353 845T274 543Q274 407 311 315T414 178T563 133Q706 133 785 234T864 543Q864 747 788 847T573 948ZM286 1507H493L710 1221V1200H575L286 1479Z" unicode="ò"/>
			<glyph d="M571 1102Q814 1102 933 952T1053 543Q1053 373 997 246T831 49T565 -20Q416 -20 308 49T143 246T86 543Q86 710 141 836T305 1032T571 1102ZM573 948Q432 948 353 845T274 543Q274 407 311 315T414 178T563 133Q706 133 785 234T864 543Q864 747 788 847T573 948ZM655 1507H862V1479L573 1200H438V1221Z" unicode="ó"/>
			<glyph d="M571 1102Q814 1102 933 952T1053 543Q1053 373 997 246T831 49T565 -20Q416 -20 308 49T143 246T86 543Q86 710 141 836T305 1032T571 1102ZM573 948Q432 948 353 845T274 543Q274 407 311 315T414 178T563 133Q706 133 785 234T864 543Q864 747 788 847T573 948ZM477 1491H669L899 1221V1200H753L575 1370H573L382 1200H237V1221Z" unicode="ô"/>
			<glyph d="M571 1102Q814 1102 933 952T1053 543Q1053 373 997 246T831 49T565 -20Q416 -20 308 49T143 246T86 543Q86 710 141 836T305 1032T571 1102ZM573 948Q432 948 353 845T274 543Q274 407 311 315T414 178T563 133Q706 133 785 234T864 543Q864 747 788 847T573 948ZM413 1468Q455 1468 496 1450T595 1400Q642 1374 668 1362T718 1350Q784 1350 794 1468H927Q918 1393 900 1336T841 1240T725 1200Q684 1200 644 1217T548 1268Q500 1295 472 1308T419 1321Q384 1321 366 1291T342 1200H210Q223 1318 265 1393T413 1468Z" unicode="õ"/>
			<glyph d="M571 1102Q814 1102 933 952T1053 543Q1053 373 997 246T831 49T565 -20Q416 -20 308 49T143 246T86 543Q86 710 141 836T305 1032T571 1102ZM573 948Q432 948 353 845T274 543Q274 407 311 315T414 178T563 133Q706 133 785 234T864 543Q864 747 788 847T573 948ZM376 1444Q419 1444 449 1413T479 1339Q479 1296 449 1266T376 1237Q333 1237 303 1266T274 1339Q274 1383 303 1413T376 1444ZM759 1444Q802 1444 831 1413T861 1339Q861 1296 831 1266T759 1237Q716 1237 686 1266T657 1339Q657 1383 686 1413T759 1444Z" unicode="ö"/>
			<glyph d="M563 1155Q606 1155 637 1124T668 1051Q668 1006 637 975T563 944Q519 944 488 975T457 1051Q457 1094 488 1124T563 1155ZM66 754H1061V608H66ZM563 420Q607 420 637 389T668 315Q668 271 637 240T563 209Q519 209 488 240T457 315Q457 359 488 389T563 420Z" horiz-adv-x="1124" unicode="÷"/>
			<glyph d="M995 1116H1163L999 917Q1092 775 1092 543Q1092 373 1036 246T870 49T604 -20Q427 -20 307 78L211 -39H43L220 176Q125 322 125 543Q125 710 180 836T344 1032T610 1102Q793 1102 910 1013ZM612 948Q471 948 392 845T313 543Q313 421 345 328L800 879Q730 948 612 948ZM872 762L416 210Q490 133 602 133Q745 133 824 234T903 543Q903 672 872 762Z" horiz-adv-x="1206" unicode="ø"/>
			<glyph d="M133 1081H313V416Q313 268 366 203T537 139Q615 139 679 180T780 297T817 469V1081H997V231Q997 165 999 89T1004 0H834Q832 11 828 77T825 178H821Q768 83 684 31T475 -20Q305 -20 219 82T133 381ZM286 1507H493L710 1221V1200H575L286 1479Z" unicode="ù"/>
			<glyph d="M133 1081H313V416Q313 268 366 203T537 139Q615 139 679 180T780 297T817 469V1081H997V231Q997 165 999 89T1004 0H834Q832 11 828 77T825 178H821Q768 83 684 31T475 -20Q305 -20 219 82T133 381ZM655 1507H862V1479L573 1200H438V1221Z" unicode="ú"/>
			<glyph d="M133 1081H313V416Q313 268 366 203T537 139Q615 139 679 180T780 297T817 469V1081H997V231Q997 165 999 89T1004 0H834Q832 11 828 77T825 178H821Q768 83 684 31T475 -20Q305 -20 219 82T133 381ZM477 1491H669L899 1221V1200H753L575 1370H573L382 1200H237V1221Z" unicode="û"/>
			<glyph d="M133 1081H313V416Q313 268 366 203T537 139Q615 139 679 180T780 297T817 469V1081H997V231Q997 165 999 89T1004 0H834Q832 11 828 77T825 178H821Q768 83 684 31T475 -20Q305 -20 219 82T133 381ZM376 1444Q419 1444 449 1413T479 1339Q479 1296 449 1266T376 1237Q333 1237 303 1266T274 1339Q274 1383 303 1413T376 1444ZM759 1444Q802 1444 831 1413T861 1339Q861 1296 831 1266T759 1237Q716 1237 686 1266T657 1339Q657 1383 686 1413T759 1444Z" unicode="ü"/>
			<glyph d="M4 1081H197L426 483Q447 427 482 325T522 203Q526 217 561 309Q604 423 618 465L829 1081H1020L604 0Q549 -142 494 -233T365 -375T190 -426Q153 -426 125 -423T68 -414L80 -268Q116 -274 152 -274Q321 -274 418 -39L434 4ZM598 1507H805V1479L516 1200H381V1221Z" horiz-adv-x="1024" unicode="ý"/>
			<glyph d="M137 1485H317V1057L315 928H319Q424 1102 657 1102Q801 1102 896 1030T1037 833T1083 547Q1083 386 1036 258T891 55T647 -20Q542 -20 451 21T319 147H313Q314 143 315 96T317 -2V-426H137ZM621 942Q491 942 404 848T317 528Q317 327 399 230T618 133Q757 133 826 243T895 543Q895 726 826 834T621 942Z" horiz-adv-x="1169" unicode="þ"/>
			<glyph d="M4 1081H197L426 483Q447 427 482 325T522 203Q526 217 561 309Q604 423 618 465L829 1081H1020L604 0Q549 -142 494 -233T365 -375T190 -426Q153 -426 125 -423T68 -414L80 -268Q116 -274 152 -274Q321 -274 418 -39L434 4ZM319 1444Q362 1444 392 1413T422 1339Q422 1296 392 1266T319 1237Q276 1237 246 1266T217 1339Q217 1383 246 1413T319 1444ZM702 1444Q745 1444 774 1413T804 1339Q804 1296 774 1266T702 1237Q659 1237 629 1266T600 1339Q600 1383 629 1413T702 1444Z" horiz-adv-x="1024" unicode="ÿ"/>
			<glyph d="M535 1409H760L1280 0H1085L952 381H336L203 0H4ZM645 1257Q636 1225 612 1158T561 1024L394 547H894L727 1026Q700 1096 676 1162T645 1257ZM368 1692H917V1565H368Z" horiz-adv-x="1284" unicode="Ā"/>
			<glyph d="M555 1102Q680 1102 769 1054T904 922T950 729V229Q950 101 958 0H784Q776 73 776 160H772Q711 71 631 25T424 -20Q259 -20 172 65T86 301Q86 482 221 560T557 643L772 647V711Q772 823 714 886T551 950Q465 950 395 914T242 788L129 905Q199 991 306 1046T555 1102ZM772 506L602 502Q453 498 362 453T272 299Q272 222 323 176T465 131Q561 131 630 169T736 270T772 403ZM276 1364H825V1237H276Z" horiz-adv-x="1094" unicode="ā"/>
			<glyph d="M535 1409H760L1280 0H1085L952 381H336L203 0H4ZM645 1257Q636 1225 612 1158T561 1024L394 547H894L727 1026Q700 1096 676 1162T645 1257ZM309 1780H426Q444 1725 499 1695T643 1665Q732 1665 787 1695T858 1780H975Q962 1711 921 1654T809 1564T641 1530Q547 1530 476 1564T363 1655T309 1780Z" horiz-adv-x="1284" unicode="Ă"/>
			<glyph d="M555 1102Q680 1102 769 1054T904 922T950 729V229Q950 101 958 0H784Q776 73 776 160H772Q711 71 631 25T424 -20Q259 -20 172 65T86 301Q86 482 221 560T557 643L772 647V711Q772 823 714 886T551 950Q465 950 395 914T242 788L129 905Q199 991 306 1046T555 1102ZM772 506L602 502Q453 498 362 453T272 299Q272 222 323 176T465 131Q561 131 630 169T736 270T772 403ZM217 1509H375Q388 1428 433 1393T551 1358Q623 1358 667 1393T725 1509H883Q870 1424 829 1354T717 1242T549 1200Q455 1200 383 1242T270 1355T217 1509Z" horiz-adv-x="1094" unicode="ă"/>
			<glyph d="M535 1409H760L1280 0H1260Q1206 -36 1167 -91T1128 -207Q1128 -248 1152 -269T1222 -291Q1275 -291 1337 -266V-389Q1278 -416 1198 -416Q1096 -416 1041 -366T987 -230Q987 -154 1028 -94T1122 0H1085L952 381H336L203 0H4ZM645 1257Q636 1225 612 1158T561 1024L394 547H894L727 1026Q700 1096 676 1162T645 1257Z" horiz-adv-x="1284" unicode="Ą"/>
			<glyph d="M555 1102Q680 1102 769 1054T904 922T950 729V229Q950 101 958 0H948Q890 -34 845 -93T801 -217Q801 -258 825 -279T895 -301Q948 -301 1010 -276V-399Q951 -426 870 -426Q768 -426 713 -376T659 -240Q659 -183 684 -134T745 -51T811 0H784Q776 73 776 160H772Q711 71 631 25T424 -20Q259 -20 172 65T86 301Q86 482 221 560T557 643L772 647V711Q772 823 714 886T551 950Q465 950 395 914T242 788L129 905Q199 991 306 1046T555 1102ZM772 506L602 502Q453 498 362 453T272 299Q272 222 323 176T465 131Q561 131 630 169T736 270T772 403Z" horiz-adv-x="1094" unicode="ą"/>
			<glyph d="M760 1430Q952 1430 1089 1347T1307 1130L1153 1032Q1106 1100 1055 1147T932 1223T762 1253Q614 1253 508 1182T347 989T293 711Q293 557 350 431T516 231T770 158Q901 158 997 222T1174 403L1327 307Q1242 162 1099 71T760 -20Q548 -20 398 76T173 339T98 711Q98 922 176 1084T403 1338T760 1430ZM846 1776H1053V1747L784 1530H629V1550Z" horiz-adv-x="1405" unicode="Ć"/>
			<glyph d="M578 1102Q707 1102 795 1058T961 926L834 811Q774 881 717 912T575 944Q429 944 351 837T274 547Q274 369 344 255T573 141Q632 141 680 157T771 200T872 272L969 139Q900 75 803 27T578 -20Q408 -20 297 57T136 262T86 543Q86 735 155 860T336 1044T578 1102ZM647 1507H854V1479L565 1200H430V1221Z" horiz-adv-x="1004" unicode="ć"/>
			<glyph d="M760 1430Q952 1430 1089 1347T1307 1130L1153 1032Q1106 1100 1055 1147T932 1223T762 1253Q614 1253 508 1182T347 989T293 711Q293 557 350 431T516 231T770 158Q901 158 997 222T1174 403L1327 307Q1242 162 1099 71T760 -20Q548 -20 398 76T173 339T98 711Q98 922 176 1084T403 1338T760 1430ZM673 1790H878L1102 1550V1530H956L778 1669H776L585 1530H440V1550Z" horiz-adv-x="1405" unicode="Ĉ"/>
			<glyph d="M578 1102Q707 1102 795 1058T961 926L834 811Q774 881 717 912T575 944Q429 944 351 837T274 547Q274 369 344 255T573 141Q632 141 680 157T771 200T872 272L969 139Q900 75 803 27T578 -20Q408 -20 297 57T136 262T86 543Q86 735 155 860T336 1044T578 1102ZM461 1491H653L883 1221V1200H737L559 1370H557L366 1200H221V1221Z" horiz-adv-x="1004" unicode="ĉ"/>
			<glyph d="M760 1430Q952 1430 1089 1347T1307 1130L1153 1032Q1106 1100 1055 1147T932 1223T762 1253Q614 1253 508 1182T347 989T293 711Q293 557 350 431T516 231T770 158Q901 158 997 222T1174 403L1327 307Q1242 162 1099 71T760 -20Q548 -20 398 76T173 339T98 711Q98 922 176 1084T403 1338T760 1430ZM772 1743Q815 1743 845 1712T876 1636Q876 1592 845 1562T772 1532Q728 1532 697 1562T667 1636Q667 1681 697 1712T772 1743Z" horiz-adv-x="1405" unicode="Ċ"/>
			<glyph d="M578 1102Q707 1102 795 1058T961 926L834 811Q774 881 717 912T575 944Q429 944 351 837T274 547Q274 369 344 255T573 141Q632 141 680 157T771 200T872 272L969 139Q900 75 803 27T578 -20Q408 -20 297 57T136 262T86 543Q86 735 155 860T336 1044T578 1102ZM553 1446Q599 1446 631 1414T663 1337Q663 1290 631 1258T553 1227Q506 1227 474 1258T442 1337Q442 1382 474 1414T553 1446Z" horiz-adv-x="1004" unicode="ċ"/>
			<glyph d="M760 1430Q952 1430 1089 1347T1307 1130L1153 1032Q1106 1100 1055 1147T932 1223T762 1253Q614 1253 508 1182T347 989T293 711Q293 557 350 431T516 231T770 158Q901 158 997 222T1174 403L1327 307Q1242 162 1099 71T760 -20Q548 -20 398 76T173 339T98 711Q98 922 176 1084T403 1338T760 1430ZM440 1790H585L776 1651H778L956 1790H1102V1769L878 1530H673L440 1769Z" horiz-adv-x="1405" unicode="Č"/>
			<glyph d="M578 1102Q707 1102 795 1058T961 926L834 811Q774 881 717 912T575 944Q429 944 351 837T274 547Q274 369 344 255T573 141Q632 141 680 157T771 200T872 272L969 139Q900 75 803 27T578 -20Q408 -20 297 57T136 262T86 543Q86 735 155 860T336 1044T578 1102ZM221 1491H366L557 1323H559L737 1491H883V1470L653 1200H461L221 1470Z" horiz-adv-x="1004" unicode="č"/>
			<glyph d="M168 1409H614Q825 1409 983 1335T1230 1106T1319 719Q1319 491 1234 329T1004 83T674 0H168ZM358 1235V174H653Q792 174 899 236T1067 421T1128 719Q1128 982 989 1108T610 1235ZM338 1790H483L674 1651H676L854 1790H1000V1769L776 1530H571L338 1769Z" horiz-adv-x="1417" unicode="Ď"/>
			<glyph d="M852 1485H1032V223Q1032 153 1034 92T1038 0H866Q862 17 859 65T856 162H852Q804 71 718 25T522 -20Q305 -20 195 129T86 537Q86 708 137 835T290 1032T541 1102Q645 1102 727 1060T852 934H854Q852 956 852 1065ZM563 948Q274 948 274 543Q274 351 340 245T549 139Q689 139 770 238T852 555Q852 762 773 855T563 948ZM1208 1485Q1258 1485 1286 1454T1315 1368Q1315 1302 1285 1247T1208 1139L1138 1196Q1187 1259 1196 1305Q1158 1312 1139 1336T1120 1397Q1120 1434 1145 1459T1208 1485Z" horiz-adv-x="1274" unicode="ď"/>
			<glyph d="M168 1409H614Q825 1409 983 1335T1230 1106T1319 719Q1319 491 1234 329T1004 83T674 0H168V647H14V801H168ZM358 1235V801H766V647H358V174H653Q792 174 899 236T1067 421T1128 719Q1128 982 989 1108T610 1235Z" horiz-adv-x="1417" unicode="Đ"/>
			<glyph d="M852 1485H1032V1337H1163V1206H1032V223Q1032 153 1034 92T1038 0H866Q862 17 859 65T856 162H852Q804 71 718 25T522 -20Q305 -20 195 129T86 537Q86 708 137 835T290 1032T541 1102Q645 1102 727 1060T852 934H854Q852 956 852 1065V1206H551V1337H852ZM563 948Q274 948 274 543Q274 351 340 245T549 139Q689 139 770 238T852 555Q852 762 773 855T563 948Z" horiz-adv-x="1169" unicode="đ"/>
			<glyph d="M168 1409H1073V1233H358V811H1014V637H358V176H1114V0H168ZM370 1692H919V1565H370Z" horiz-adv-x="1202" unicode="Ē"/>
			<glyph d="M557 1102Q720 1102 822 1025T969 831T1014 580Q1014 546 1010 494H276Q276 407 309 324T412 188T582 135Q645 135 696 152T789 198T881 270L979 141Q928 98 878 65T751 6T582 -20Q424 -20 312 50T143 248T86 545Q86 722 147 847T316 1037T557 1102ZM557 948Q490 948 428 916T325 817T279 645H829Q816 799 748 873T557 948ZM280 1364H829V1237H280Z" horiz-adv-x="1106" unicode="ē"/>
			<glyph d="M168 1409H1073V1233H358V811H1014V637H358V176H1114V0H168ZM311 1780H428Q446 1725 501 1695T645 1665Q734 1665 789 1695T860 1780H977Q964 1711 923 1654T811 1564T643 1530Q549 1530 478 1564T365 1655T311 1780Z" horiz-adv-x="1202" unicode="Ĕ"/>
			<glyph d="M557 1102Q720 1102 822 1025T969 831T1014 580Q1014 546 1010 494H276Q276 407 309 324T412 188T582 135Q645 135 696 152T789 198T881 270L979 141Q928 98 878 65T751 6T582 -20Q424 -20 312 50T143 248T86 545Q86 722 147 847T316 1037T557 1102ZM557 948Q490 948 428 916T325 817T279 645H829Q816 799 748 873T557 948ZM221 1509H379Q392 1428 437 1393T555 1358Q627 1358 671 1393T729 1509H887Q874 1424 833 1354T721 1242T553 1200Q459 1200 387 1242T274 1355T221 1509Z" horiz-adv-x="1106" unicode="ĕ"/>
			<glyph d="M168 1409H1073V1233H358V811H1014V637H358V176H1114V0H168ZM645 1743Q688 1743 718 1712T749 1636Q749 1592 718 1562T645 1532Q601 1532 570 1562T540 1636Q540 1681 570 1712T645 1743Z" horiz-adv-x="1202" unicode="Ė"/>
			<glyph d="M557 1102Q720 1102 822 1025T969 831T1014 580Q1014 546 1010 494H276Q276 407 309 324T412 188T582 135Q645 135 696 152T789 198T881 270L979 141Q928 98 878 65T751 6T582 -20Q424 -20 312 50T143 248T86 545Q86 722 147 847T316 1037T557 1102ZM557 948Q490 948 428 916T325 817T279 645H829Q816 799 748 873T557 948ZM555 1446Q601 1446 633 1414T665 1337Q665 1290 633 1258T555 1227Q508 1227 476 1258T444 1337Q444 1382 476 1414T555 1446Z" horiz-adv-x="1106" unicode="ė"/>
			<glyph d="M168 1409H1073V1233H358V811H1014V637H358V176H1114V0H168ZM931 0H1069Q1011 -33 966 -92T921 -217Q921 -258 945 -279T1015 -301Q1068 -301 1130 -276V-399Q1071 -426 991 -426Q889 -426 834 -376T780 -240Q780 -183 805 -134T865 -51T931 0Z" horiz-adv-x="1202" unicode="Ę"/>
			<glyph d="M557 1102Q720 1102 822 1025T969 831T1014 580Q1014 546 1010 494H276Q276 407 309 324T412 188T582 135Q645 135 696 152T789 198T881 270L979 141Q922 93 865 57T731 0H734Q676 -33 631 -92T586 -217Q586 -258 610 -279T680 -301Q733 -301 795 -276V-399Q736 -426 656 -426Q554 -426 499 -376T445 -240Q445 -170 481 -114T566 -20Q413 -16 305 55T141 253T86 545Q86 722 147 847T316 1037T557 1102ZM557 948Q490 948 428 916T325 817T279 645H829Q816 799 748 873T557 948Z" horiz-adv-x="1106" unicode="ę"/>
			<glyph d="M168 1409H1073V1233H358V811H1014V637H358V176H1114V0H168ZM313 1790H458L649 1651H651L829 1790H975V1769L751 1530H546L313 1769Z" horiz-adv-x="1202" unicode="Ě"/>
			<glyph d="M557 1102Q720 1102 822 1025T969 831T1014 580Q1014 546 1010 494H276Q276 407 309 324T412 188T582 135Q645 135 696 152T789 198T881 270L979 141Q928 98 878 65T751 6T582 -20Q424 -20 312 50T143 248T86 545Q86 722 147 847T316 1037T557 1102ZM557 948Q490 948 428 916T325 817T279 645H829Q816 799 748 873T557 948ZM223 1491H368L559 1323H561L739 1491H885V1470L655 1200H463L223 1470Z" horiz-adv-x="1106" unicode="ě"/>
			<glyph d="M760 1430Q939 1430 1069 1366T1303 1178L1153 1059Q1078 1155 982 1204T754 1253Q613 1253 508 1186T347 996T291 711Q291 549 347 423T507 226T745 156Q882 156 975 211T1114 360T1161 567V573H797V750H1358V0H1190V202Q1117 100 1004 40T743 -20Q545 -20 398 73T174 333T96 711Q96 929 177 1091T408 1342T760 1430ZM657 1790H862L1086 1550V1530H940L762 1669H760L569 1530H424V1550Z" horiz-adv-x="1491" unicode="Ĝ"/>
			<glyph d="M1042 1182H1047L1057 1001H1053Q948 1001 879 968Q920 918 940 854T961 717Q961 613 911 527T765 391T535 340Q428 340 341 374Q325 356 317 340T309 301Q309 255 343 233T432 202T602 186Q761 177 853 158T1009 79T1073 -106Q1073 -264 938 -345T543 -426Q297 -426 181 -359T66 -156Q66 -84 104 -27T218 86Q141 138 141 242Q141 300 168 348T242 431Q181 481 149 554T117 717Q117 824 165 911T308 1050T541 1102Q687 1102 787 1045Q837 1113 897 1147T1042 1182ZM543 961Q431 961 366 895T301 717Q301 601 364 541T532 481Q606 481 661 511T746 594T776 717Q776 829 713 895T543 961ZM322 42Q279 -5 260 -42T242 -129Q242 -192 280 -225T384 -271T553 -283Q720 -283 802 -246T885 -115Q885 -65 847 -38T742 -1T553 16Q478 20 423 25T322 42ZM434 1491H626L856 1221V1200H710L532 1370H530L339 1200H194V1221Z" horiz-adv-x="1094" unicode="ĝ"/>
			<glyph d="M760 1430Q939 1430 1069 1366T1303 1178L1153 1059Q1078 1155 982 1204T754 1253Q613 1253 508 1186T347 996T291 711Q291 549 347 423T507 226T745 156Q882 156 975 211T1114 360T1161 567V573H797V750H1358V0H1190V202Q1117 100 1004 40T743 -20Q545 -20 398 73T174 333T96 711Q96 929 177 1091T408 1342T760 1430ZM422 1780H539Q557 1725 612 1695T756 1665Q845 1665 900 1695T971 1780H1088Q1075 1711 1034 1654T922 1564T754 1530Q660 1530 589 1564T476 1655T422 1780Z" horiz-adv-x="1491" unicode="Ğ"/>
			<glyph d="M1042 1182H1047L1057 1001H1053Q948 1001 879 968Q920 918 940 854T961 717Q961 613 911 527T765 391T535 340Q428 340 341 374Q325 356 317 340T309 301Q309 255 343 233T432 202T602 186Q761 177 853 158T1009 79T1073 -106Q1073 -264 938 -345T543 -426Q297 -426 181 -359T66 -156Q66 -84 104 -27T218 86Q141 138 141 242Q141 300 168 348T242 431Q181 481 149 554T117 717Q117 824 165 911T308 1050T541 1102Q687 1102 787 1045Q837 1113 897 1147T1042 1182ZM543 961Q431 961 366 895T301 717Q301 601 364 541T532 481Q606 481 661 511T746 594T776 717Q776 829 713 895T543 961ZM322 42Q279 -5 260 -42T242 -129Q242 -192 280 -225T384 -271T553 -283Q720 -283 802 -246T885 -115Q885 -65 847 -38T742 -1T553 16Q478 20 423 25T322 42ZM192 1509H350Q363 1428 408 1393T526 1358Q598 1358 642 1393T700 1509H858Q845 1424 804 1354T692 1242T524 1200Q430 1200 358 1242T245 1355T192 1509Z" horiz-adv-x="1094" unicode="ğ"/>
			<glyph d="M760 1430Q939 1430 1069 1366T1303 1178L1153 1059Q1078 1155 982 1204T754 1253Q613 1253 508 1186T347 996T291 711Q291 549 347 423T507 226T745 156Q882 156 975 211T1114 360T1161 567V573H797V750H1358V0H1190V202Q1117 100 1004 40T743 -20Q545 -20 398 73T174 333T96 711Q96 929 177 1091T408 1342T760 1430ZM756 1743Q799 1743 829 1712T860 1636Q860 1592 829 1562T756 1532Q712 1532 681 1562T651 1636Q651 1681 681 1712T756 1743Z" horiz-adv-x="1491" unicode="Ġ"/>
			<glyph d="M1042 1182H1047L1057 1001H1053Q948 1001 879 968Q920 918 940 854T961 717Q961 613 911 527T765 391T535 340Q428 340 341 374Q325 356 317 340T309 301Q309 255 343 233T432 202T602 186Q761 177 853 158T1009 79T1073 -106Q1073 -264 938 -345T543 -426Q297 -426 181 -359T66 -156Q66 -84 104 -27T218 86Q141 138 141 242Q141 300 168 348T242 431Q181 481 149 554T117 717Q117 824 165 911T308 1050T541 1102Q687 1102 787 1045Q837 1113 897 1147T1042 1182ZM543 961Q431 961 366 895T301 717Q301 601 364 541T532 481Q606 481 661 511T746 594T776 717Q776 829 713 895T543 961ZM322 42Q279 -5 260 -42T242 -129Q242 -192 280 -225T384 -271T553 -283Q720 -283 802 -246T885 -115Q885 -65 847 -38T742 -1T553 16Q478 20 423 25T322 42ZM526 1446Q572 1446 604 1414T636 1337Q636 1290 604 1258T526 1227Q479 1227 447 1258T415 1337Q415 1382 447 1414T526 1446Z" horiz-adv-x="1094" unicode="ġ"/>
			<glyph d="M760 1430Q939 1430 1069 1366T1303 1178L1153 1059Q1078 1155 982 1204T754 1253Q613 1253 508 1186T347 996T291 711Q291 549 347 423T507 226T745 156Q882 156 975 211T1114 360T1161 567V573H797V750H1358V0H1190V202Q1117 100 1004 40T743 -20Q545 -20 398 73T174 333T96 711Q96 929 177 1091T408 1342T760 1430ZM750 -84Q799 -84 827 -116T855 -207Q855 -270 829 -322T760 -430L687 -377Q708 -347 722 -319T740 -264Q703 -258 680 -233T658 -172Q658 -134 684 -109T750 -84Z" horiz-adv-x="1491" unicode="Ģ"/>
			<glyph d="M1042 1182H1047L1057 1001H1053Q948 1001 879 968Q920 918 940 854T961 717Q961 613 911 527T765 391T535 340Q428 340 341 374Q325 356 317 340T309 301Q309 255 343 233T432 202T602 186Q761 177 853 158T1009 79T1073 -106Q1073 -264 938 -345T543 -426Q297 -426 181 -359T66 -156Q66 -84 104 -27T218 86Q141 138 141 242Q141 300 168 348T242 431Q181 481 149 554T117 717Q117 824 165 911T308 1050T541 1102Q687 1102 787 1045Q837 1113 897 1147T1042 1182ZM543 961Q431 961 366 895T301 717Q301 601 364 541T532 481Q606 481 661 511T746 594T776 717Q776 829 713 895T543 961ZM322 42Q279 -5 260 -42T242 -129Q242 -192 280 -225T384 -271T553 -283Q720 -283 802 -246T885 -115Q885 -65 847 -38T742 -1T553 16Q478 20 423 25T322 42ZM541 1571L610 1513Q562 1450 553 1405Q591 1398 610 1374T629 1313Q629 1275 603 1250T537 1225Q489 1225 461 1255T434 1341Q434 1408 463 1462T541 1571Z" horiz-adv-x="1094" unicode="ģ"/>
			<glyph d="M168 1409H358V823H1061V1409H1251V0H1061V643H358V0H168ZM612 1790H817L1041 1550V1530H895L717 1669H715L524 1530H379V1550Z" horiz-adv-x="1419" unicode="Ĥ"/>
			<glyph d="M141 1485H322V1098Q322 1041 318 980T313 897H317Q377 1006 459 1054T664 1102Q853 1102 929 993T1006 721V0H825V686Q825 802 778 872T602 942Q518 942 454 905T356 799T322 639V0H141ZM533 1790H738L962 1550V1530H816L638 1669H636L445 1530H300V1550Z" unicode="ĥ"/>
			<glyph d="M168 1409H358V1180H1061V1409H1251V1180H1401V1024H1251V0H1061V643H358V0H168V1024H14V1180H168ZM358 1024V823H1061V1024Z" horiz-adv-x="1415" unicode="Ħ"/>
			<glyph d="M141 1485H322V1337H623V1206H322V1098Q322 1041 318 980T313 897H317Q377 1006 459 1054T664 1102Q853 1102 929 993T1006 721V0H825V686Q825 802 778 872T602 942Q518 942 454 905T356 799T322 639V0H141V1206H10V1337H141Z" unicode="ħ"/>
			<glyph d="M188 1409H381V0H188ZM129 1798Q171 1798 212 1780T311 1730Q356 1704 383 1691T434 1679Q473 1679 493 1709T520 1798H643Q634 1723 616 1666T557 1569T441 1530Q401 1530 361 1547T264 1597Q218 1623 189 1636T135 1649Q95 1649 74 1619T47 1530H-74Q-61 1647 -18 1722T129 1798Z" horiz-adv-x="569" unicode="Ĩ"/>
			<glyph d="M137 1081H317V0H137ZM129 1468Q171 1468 212 1450T311 1400Q358 1374 384 1362T434 1350Q500 1350 510 1468H643Q634 1393 616 1336T557 1240T441 1200Q400 1200 360 1217T264 1268Q216 1295 188 1308T135 1321Q100 1321 82 1291T58 1200H-74Q-61 1318 -18 1393T129 1468Z" horiz-adv-x="569" unicode="ĩ"/>
			<glyph d="M188 1409H381V0H188ZM10 1692H559V1565H10Z" horiz-adv-x="569" unicode="Ī"/>
			<glyph d="M137 1081H317V0H137ZM10 1364H559V1237H10Z" horiz-adv-x="569" unicode="ī"/>
			<glyph d="M188 1409H381V0H188ZM-49 1780H68Q86 1725 141 1695T285 1665Q374 1665 429 1695T500 1780H617Q604 1711 563 1654T451 1564T283 1530Q189 1530 118 1564T5 1655T-49 1780Z" horiz-adv-x="569" unicode="Ĭ"/>
			<glyph d="M137 1081H317V0H137ZM-49 1509H109Q122 1428 167 1393T285 1358Q357 1358 401 1393T459 1509H617Q604 1424 563 1354T451 1242T283 1200Q189 1200 117 1242T4 1355T-49 1509Z" horiz-adv-x="569" unicode="ĭ"/>
			<glyph d="M188 1409H381V0H379Q321 -33 277 -92T233 -217Q233 -258 258 -279T328 -301Q382 -301 442 -276V-399Q385 -426 303 -426Q201 -426 146 -376T92 -240Q92 -183 117 -134T178 -51T244 0H188Z" horiz-adv-x="569" unicode="Į"/>
			<glyph d="M227 1524Q278 1524 312 1489T346 1403Q346 1352 312 1317T227 1282Q175 1282 140 1316T106 1403Q106 1455 140 1489T227 1524ZM137 1081H317V0H315Q258 -33 214 -92T170 -217Q170 -258 194 -279T264 -301Q317 -301 379 -276V-399Q320 -426 240 -426Q137 -426 83 -376T29 -240Q29 -163 72 -102T174 0H137Z" horiz-adv-x="455" unicode="į"/>
			<glyph d="M188 1409H381V0H188ZM285 1743Q328 1743 358 1712T389 1636Q389 1592 358 1562T285 1532Q241 1532 210 1562T180 1636Q180 1681 210 1712T285 1743Z" horiz-adv-x="569" unicode="İ"/>
			<glyph d="M137 1081H317V0H137Z" horiz-adv-x="455" unicode="ı"/>
			<glyph d="M188 1409H381V0H188ZM1251 1409H1441V420Q1441 287 1390 187T1245 34T1020 -20Q932 -20 864 0T735 73T614 221L770 330Q830 235 887 195T1022 156Q1127 156 1189 223T1251 416Z" horiz-adv-x="1593" unicode="Ĳ"/>
			<glyph d="M227 1524Q278 1524 312 1489T346 1403Q346 1352 312 1317T227 1282Q175 1282 140 1316T106 1403Q106 1455 140 1489T227 1524ZM137 1081H317V0H137ZM682 1524Q733 1524 767 1489T801 1403Q801 1352 767 1317T682 1282Q630 1282 595 1316T561 1403Q561 1455 595 1489T682 1524ZM592 1081H772V-133Q772 -271 719 -348T533 -426Q452 -426 406 -416L418 -256Q447 -262 475 -262Q522 -262 547 -246T582 -196T592 -106Z" horiz-adv-x="910" unicode="ĳ"/>
			<glyph d="M682 1409H872V420Q872 287 821 187T676 34T451 -20Q363 -20 295 0T166 73T45 221L201 330Q261 235 318 195T453 156Q558 156 620 223T682 416ZM644 1790H849L1073 1550V1530H927L749 1669H747L556 1530H411V1550Z" horiz-adv-x="1024" unicode="Ĵ"/>
			<glyph d="M137 1081H317V-133Q317 -271 264 -348T78 -426Q-3 -426 -49 -416L-37 -256Q-8 -262 20 -262Q67 -262 92 -246T127 -196T137 -106ZM135 1491H327L557 1221V1200H411L233 1370H231L40 1200H-105V1221Z" horiz-adv-x="455" unicode="ĵ"/>
			<glyph d="M168 1409H358V727L971 1409H1202L643 803L1282 0H1044L525 677L358 518V0H168ZM686 -84Q735 -84 763 -116T791 -207Q791 -270 765 -322T696 -430L623 -377Q644 -347 658 -319T676 -264Q639 -258 616 -233T594 -172Q594 -134 620 -109T686 -84Z" horiz-adv-x="1298" unicode="Ķ"/>
			<glyph d="M137 1485H317V567L782 1081H1004L565 616L1026 0H811L451 494L317 377V0H137ZM547 -84Q596 -84 624 -116T652 -207Q652 -270 626 -322T557 -430L484 -377Q505 -347 519 -319T537 -264Q500 -258 477 -233T455 -172Q455 -134 481 -109T547 -84Z" horiz-adv-x="1024" unicode="ķ"/>
			<glyph d="M137 1081H317V565L784 1081H1004L565 616L1026 0H815L451 494L317 377V0H137Z" horiz-adv-x="1024" unicode="ĸ"/>
			<glyph d="M168 1409H358V176H1010V0H168ZM643 1776H850V1747L581 1530H426V1550Z" horiz-adv-x="1077" unicode="Ĺ"/>
			<glyph d="M131 1485H311V289Q311 210 328 178T389 147Q412 147 433 150T487 162L510 8Q468 -4 431 -10T348 -16Q131 -16 131 250ZM295 1776H502V1747L233 1530H78V1550Z" horiz-adv-x="524" unicode="ĺ"/>
			<glyph d="M168 1409H358V176H1010V0H168ZM600 -84Q649 -84 677 -116T705 -207Q705 -270 679 -322T610 -430L537 -377Q558 -347 572 -319T590 -264Q553 -258 530 -233T508 -172Q508 -134 534 -109T600 -84Z" horiz-adv-x="1077" unicode="Ļ"/>
			<glyph d="M131 1485H311V289Q311 210 328 178T389 147Q412 147 433 150T487 162L510 8Q468 -4 431 -10T348 -16Q131 -16 131 250ZM297 -84Q346 -84 374 -116T402 -207Q402 -270 376 -322T307 -430L234 -377Q255 -347 269 -319T287 -264Q250 -258 227 -233T205 -172Q205 -134 231 -109T297 -84Z" horiz-adv-x="524" unicode="ļ"/>
			<glyph d="M168 1409H358V176H1010V0H168ZM749 1409Q799 1409 827 1378T856 1292Q856 1226 826 1171T749 1063L679 1120Q728 1183 737 1229Q699 1236 680 1260T661 1321Q661 1358 686 1383T749 1409Z" horiz-adv-x="1077" unicode="Ľ"/>
			<glyph d="M131 1485H311V289Q311 210 328 178T389 147Q412 147 433 150T487 162L510 8Q468 -4 431 -10T348 -16Q131 -16 131 250ZM489 1485Q539 1485 567 1454T596 1368Q596 1302 566 1247T489 1139L419 1196Q468 1259 477 1305Q439 1312 420 1336T401 1397Q401 1434 426 1459T489 1485Z" horiz-adv-x="555" unicode="ľ"/>
			<glyph d="M168 1409H358V176H1010V0H168ZM713 819Q759 819 791 787T823 710Q823 663 791 631T713 600Q666 600 634 631T602 710Q602 755 634 787T713 819Z" horiz-adv-x="1077" unicode="Ŀ"/>
			<glyph d="M131 1485H311V289Q311 210 328 178T389 147Q412 147 433 150T487 162L510 8Q468 -4 431 -10T348 -16Q131 -16 131 250ZM566 819Q612 819 644 787T676 710Q676 663 644 631T566 600Q519 600 487 631T455 710Q455 755 487 787T566 819Z" horiz-adv-x="655" unicode="ŀ"/>
			<glyph d="M168 1409H358V807L616 954V797L358 647V176H1010V0H168V539L20 453V610L168 696Z" horiz-adv-x="1077" unicode="Ł"/>
			<glyph d="M137 1485H317V887L442 958V799L317 727V289Q317 210 334 178T395 147Q418 147 439 150T493 162L516 8Q474 -4 437 -10T354 -16Q137 -16 137 250V625L16 555V715L137 782Z" horiz-adv-x="530" unicode="ł"/>
			<glyph d="M168 1409H393L1106 211Q1105 237 1102 324T1100 485V1409H1272V0H1036L334 1190Q335 1163 336 1089T338 936V0H168ZM811 1776H1018V1747L749 1530H594V1550Z" horiz-adv-x="1440" unicode="Ń"/>
			<glyph d="M664 1102Q837 1102 921 1000T1006 721V0H825V686Q825 811 773 876T602 942Q517 942 454 905T356 797T322 627V0H141V852Q141 914 139 991T135 1081H305Q308 1054 310 994T313 897H317Q372 999 451 1050T664 1102ZM688 1507H895V1479L606 1200H471V1221Z" unicode="ń"/>
			<glyph d="M168 1409H393L1106 211Q1105 237 1102 324T1100 485V1409H1272V0H1036L334 1190Q335 1163 336 1089T338 936V0H168ZM713 -84Q762 -84 790 -116T818 -207Q818 -270 792 -322T723 -430L650 -377Q671 -347 685 -319T703 -264Q666 -258 643 -233T621 -172Q621 -134 647 -109T713 -84Z" horiz-adv-x="1440" unicode="Ņ"/>
			<glyph d="M664 1102Q837 1102 921 1000T1006 721V0H825V686Q825 811 773 876T602 942Q517 942 454 905T356 797T322 627V0H141V852Q141 914 139 991T135 1081H305Q308 1054 310 994T313 897H317Q372 999 451 1050T664 1102ZM563 -84Q612 -84 640 -116T668 -207Q668 -270 642 -322T573 -430L500 -377Q521 -347 535 -319T553 -264Q516 -258 493 -233T471 -172Q471 -134 497 -109T563 -84Z" unicode="ņ"/>
			<glyph d="M168 1409H393L1106 211Q1105 237 1102 324T1100 485V1409H1272V0H1036L334 1190Q335 1163 336 1089T338 936V0H168ZM405 1790H550L741 1651H743L921 1790H1067V1769L843 1530H638L405 1769Z" horiz-adv-x="1440" unicode="Ň"/>
			<glyph d="M664 1102Q837 1102 921 1000T1006 721V0H825V686Q825 811 773 876T602 942Q517 942 454 905T356 797T322 627V0H141V852Q141 914 139 991T135 1081H305Q308 1054 310 994T313 897H317Q372 999 451 1050T664 1102ZM270 1491H415L606 1323H608L786 1491H932V1470L702 1200H510L270 1470Z" unicode="ň"/>
			<glyph d="M756 1102Q929 1102 1013 1000T1098 721V0H917V686Q917 811 865 876T694 942Q609 942 546 905T448 797T414 627V0H233V852Q233 914 231 991T227 1081H397Q400 1054 402 994T405 897H409Q464 999 543 1050T756 1102ZM75 1436Q129 1436 159 1396T190 1282Q190 1182 149 1098T41 924L-41 981Q-1 1037 26 1088T61 1196Q19 1205 -6 1237T-31 1319Q-31 1370 -1 1403T75 1436Z" horiz-adv-x="1231" unicode="ŉ"/>
			<glyph d="M168 1409H393L1106 211Q1105 237 1102 324T1100 485V1409H1272V-4Q1272 -132 1223 -227T1084 -374T870 -426Q775 -426 702 -401T565 -313L680 -162Q730 -210 774 -230T872 -250Q969 -250 1026 -187T1083 -8V0H1036L334 1190Q335 1163 336 1089T338 936V0H168Z" horiz-adv-x="1440" unicode="Ŋ"/>
			<glyph d="M664 1102Q837 1102 921 1000T1006 721V-133Q1006 -271 952 -348T766 -426Q685 -426 639 -416L651 -256Q680 -262 709 -262Q756 -262 781 -246T815 -196T825 -106V686Q825 811 773 876T602 942Q517 942 454 905T356 797T322 627V0H141V852Q141 914 139 991T135 1081H305Q308 1054 310 994T313 897H317Q372 999 451 1050T664 1102Z" unicode="ŋ"/>
			<glyph d="M756 1430Q955 1430 1104 1341T1333 1090T1413 711Q1413 493 1331 327T1099 70T754 -20Q550 -20 401 73T174 332T96 711Q96 929 176 1091T406 1342T756 1430ZM756 1253Q612 1253 507 1186T347 996T291 711Q291 549 348 423T510 226T754 156Q903 156 1007 226T1165 422T1219 711Q1219 873 1162 996T1000 1186T756 1253ZM481 1692H1030V1565H481Z" horiz-adv-x="1509" unicode="Ō"/>
			<glyph d="M571 1102Q814 1102 933 952T1053 543Q1053 373 997 246T831 49T565 -20Q416 -20 308 49T143 246T86 543Q86 710 141 836T305 1032T571 1102ZM573 948Q432 948 353 845T274 543Q274 407 311 315T414 178T563 133Q706 133 785 234T864 543Q864 747 788 847T573 948ZM294 1364H843V1237H294Z" unicode="ō"/>
			<glyph d="M756 1430Q955 1430 1104 1341T1333 1090T1413 711Q1413 493 1331 327T1099 70T754 -20Q550 -20 401 73T174 332T96 711Q96 929 176 1091T406 1342T756 1430ZM756 1253Q612 1253 507 1186T347 996T291 711Q291 549 348 423T510 226T754 156Q903 156 1007 226T1165 422T1219 711Q1219 873 1162 996T1000 1186T756 1253ZM422 1780H539Q557 1725 612 1695T756 1665Q845 1665 900 1695T971 1780H1088Q1075 1711 1034 1654T922 1564T754 1530Q660 1530 589 1564T476 1655T422 1780Z" horiz-adv-x="1509" unicode="Ŏ"/>
			<glyph d="M571 1102Q814 1102 933 952T1053 543Q1053 373 997 246T831 49T565 -20Q416 -20 308 49T143 246T86 543Q86 710 141 836T305 1032T571 1102ZM573 948Q432 948 353 845T274 543Q274 407 311 315T414 178T563 133Q706 133 785 234T864 543Q864 747 788 847T573 948ZM235 1509H393Q406 1428 451 1393T569 1358Q641 1358 685 1393T743 1509H901Q888 1424 847 1354T735 1242T567 1200Q473 1200 401 1242T288 1355T235 1509Z" unicode="ŏ"/>
			<glyph d="M756 1430Q955 1430 1104 1341T1333 1090T1413 711Q1413 493 1331 327T1099 70T754 -20Q550 -20 401 73T174 332T96 711Q96 929 176 1091T406 1342T756 1430ZM756 1253Q612 1253 507 1186T347 996T291 711Q291 549 348 423T510 226T754 156Q903 156 1007 226T1165 422T1219 711Q1219 873 1162 996T1000 1186T756 1253ZM659 1778H866V1749L557 1530H463V1550ZM1005 1778H1212V1749L903 1530H809V1550Z" horiz-adv-x="1509" unicode="Ő"/>
			<glyph d="M571 1102Q814 1102 933 952T1053 543Q1053 373 997 246T831 49T565 -20Q416 -20 308 49T143 246T86 543Q86 710 141 836T305 1032T571 1102ZM573 948Q432 948 353 845T274 543Q274 407 311 315T414 178T563 133Q706 133 785 234T864 543Q864 747 788 847T573 948ZM492 1507H678V1479L410 1200H275V1221ZM838 1507H1024V1479L756 1200H621V1221Z" unicode="ő"/>
			<glyph d="M791 1419Q874 1419 1004 1409H1829V1233H1114V811H1769V637H1114V176H1870V0H999Q960 -4 900 -7T788 -10Q568 -10 412 81T176 334T96 711Q96 930 178 1089T417 1334T791 1419ZM791 1243Q545 1243 418 1105T291 711Q291 545 348 422T516 233T788 166Q889 166 924 170V1239Q895 1243 791 1243Z" horiz-adv-x="1958" unicode="Œ"/>
			<glyph d="M571 1102Q703 1102 799 1048T956 897Q1018 997 1117 1049T1335 1102Q1498 1102 1600 1025T1747 831T1792 580Q1792 546 1788 494H1055Q1055 406 1088 324T1190 188T1360 135Q1423 135 1474 152T1567 198T1659 270L1757 141Q1707 99 1657 65T1530 6T1360 -20Q1221 -20 1118 35T952 195Q889 91 792 35T565 -20Q416 -20 308 49T143 246T86 543Q86 710 141 836T305 1032T571 1102ZM573 948Q432 948 353 845T274 543Q274 407 311 315T414 178T563 133Q706 133 785 234T864 543Q864 747 788 847T573 948ZM1335 948Q1268 948 1206 916T1103 817T1057 645H1608Q1594 799 1526 873T1335 948Z" horiz-adv-x="1884" unicode="œ"/>
			<glyph d="M168 1409H709Q867 1409 978 1359T1146 1216T1204 993Q1204 899 1167 814T1054 669T860 586L1262 0H1040L674 565H358V0H168ZM358 1235V735H696Q803 735 874 768T980 859T1014 991Q1014 1112 929 1173T688 1235ZM742 1776H949V1747L680 1530H525V1550Z" horiz-adv-x="1356" unicode="Ŕ"/>
			<glyph d="M563 1102Q618 1102 653 1092L639 915Q603 926 553 926Q434 926 378 828T322 563V0H141V829Q141 993 135 1081H305Q308 1038 310 985T313 901H317Q357 1002 420 1052T563 1102ZM489 1507H696V1479L407 1200H272V1221Z" horiz-adv-x="682" unicode="ŕ"/>
			<glyph d="M168 1409H709Q867 1409 978 1359T1146 1216T1204 993Q1204 899 1167 814T1054 669T860 586L1262 0H1040L674 565H358V0H168ZM358 1235V735H696Q803 735 874 768T980 859T1014 991Q1014 1112 929 1173T688 1235ZM682 -84Q731 -84 759 -116T787 -207Q787 -270 761 -322T692 -430L619 -377Q640 -347 654 -319T672 -264Q635 -258 612 -233T590 -172Q590 -134 616 -109T682 -84Z" horiz-adv-x="1356" unicode="Ŗ"/>
			<glyph d="M563 1102Q618 1102 653 1092L639 915Q603 926 553 926Q434 926 378 828T322 563V0H141V829Q141 993 135 1081H305Q308 1038 310 985T313 901H317Q357 1002 420 1052T563 1102ZM336 -84Q385 -84 413 -116T441 -207Q441 -270 415 -322T346 -430L273 -377Q294 -347 308 -319T326 -264Q289 -258 266 -233T244 -172Q244 -134 270 -109T336 -84Z" horiz-adv-x="682" unicode="ŗ"/>
			<glyph d="M168 1409H709Q867 1409 978 1359T1146 1216T1204 993Q1204 899 1167 814T1054 669T860 586L1262 0H1040L674 565H358V0H168ZM358 1235V735H696Q803 735 874 768T980 859T1014 991Q1014 1112 929 1173T688 1235ZM336 1790H481L672 1651H674L852 1790H998V1769L774 1530H569L336 1769Z" horiz-adv-x="1356" unicode="Ř"/>
			<glyph d="M563 1102Q618 1102 653 1092L639 915Q603 926 553 926Q434 926 378 828T322 563V0H141V829Q141 993 135 1081H305Q308 1038 310 985T313 901H317Q357 1002 420 1052T563 1102ZM71 1491H216L407 1323H409L587 1491H733V1470L503 1200H311L71 1470Z" horiz-adv-x="682" unicode="ř"/>
			<glyph d="M629 1430Q792 1430 908 1378T1108 1225L977 1104Q909 1180 825 1222T627 1264Q480 1264 406 1208T332 1063Q332 991 370 947T467 878T631 825L672 813L724 798Q867 757 952 718T1096 601T1155 389Q1155 269 1094 176T913 32T625 -20Q270 -20 98 215L233 336Q286 274 335 234T457 170T631 147Q777 147 872 205T967 379Q967 458 928 504T826 575T640 633Q622 637 586 647Q444 686 356 724T206 842T145 1053Q145 1181 210 1266T384 1390T629 1430ZM707 1776H914V1747L645 1530H490V1550Z" horiz-adv-x="1249" unicode="Ś"/>
			<glyph d="M471 1100Q577 1100 676 1063T844 961L741 834Q685 887 612 917T471 948Q375 948 319 913T264 809Q264 760 292 730T367 683T504 641L539 631Q643 602 712 570T831 472T881 299Q881 199 829 127T685 17T473 -20Q346 -20 233 21T41 147L147 276Q220 202 300 165T473 129Q573 129 639 165T705 285Q705 341 678 374T607 427T477 473L432 487Q329 516 258 549T138 643T90 801Q90 896 137 963T271 1065T471 1100ZM555 1507H762V1479L473 1200H338V1221Z" horiz-adv-x="946" unicode="ś"/>
			<glyph d="M629 1430Q792 1430 908 1378T1108 1225L977 1104Q909 1180 825 1222T627 1264Q480 1264 406 1208T332 1063Q332 991 370 947T467 878T631 825L672 813L724 798Q867 757 952 718T1096 601T1155 389Q1155 269 1094 176T913 32T625 -20Q270 -20 98 215L233 336Q286 274 335 234T457 170T631 147Q777 147 872 205T967 379Q967 458 928 504T826 575T640 633Q622 637 586 647Q444 686 356 724T206 842T145 1053Q145 1181 210 1266T384 1390T629 1430ZM534 1790H739L963 1550V1530H817L639 1669H637L446 1530H301V1550Z" horiz-adv-x="1249" unicode="Ŝ"/>
			<glyph d="M471 1100Q577 1100 676 1063T844 961L741 834Q685 887 612 917T471 948Q375 948 319 913T264 809Q264 760 292 730T367 683T504 641L539 631Q643 602 712 570T831 472T881 299Q881 199 829 127T685 17T473 -20Q346 -20 233 21T41 147L147 276Q220 202 300 165T473 129Q573 129 639 165T705 285Q705 341 678 374T607 427T477 473L432 487Q329 516 258 549T138 643T90 801Q90 896 137 963T271 1065T471 1100ZM377 1491H569L799 1221V1200H653L475 1370H473L282 1200H137V1221Z" horiz-adv-x="946" unicode="ŝ"/>
			<glyph d="M629 1430Q792 1430 908 1378T1108 1225L977 1104Q909 1180 825 1222T627 1264Q480 1264 406 1208T332 1063Q332 991 370 947T467 878T631 825L672 813L724 798Q867 757 952 718T1096 601T1155 389Q1155 278 1102 190T945 47T695 -18L663 -102Q748 -108 791 -146T835 -248Q835 -426 561 -426Q504 -426 471 -422V-309Q521 -315 557 -315Q636 -315 670 -299T704 -252Q704 -195 565 -195Q526 -195 508 -197L572 -19Q256 -2 98 215L233 336Q286 274 335 234T457 170T631 147Q777 147 872 205T967 379Q967 458 928 504T826 575T640 633Q622 637 586 647Q444 686 356 724T206 842T145 1053Q145 1181 210 1266T384 1390T629 1430Z" horiz-adv-x="1249" unicode="Ş"/>
			<glyph d="M471 1100Q577 1100 676 1063T844 961L741 834Q685 887 612 917T471 948Q375 948 319 913T264 809Q264 760 292 730T367 683T504 641L539 631Q643 602 712 570T831 472T881 299Q881 168 793 86T557 -15L524 -102Q609 -108 652 -146T696 -248Q696 -426 422 -426Q365 -426 332 -422V-309Q382 -315 418 -315Q497 -315 531 -299T565 -252Q565 -195 426 -195Q387 -195 369 -197L433 -19Q317 -13 215 28T41 147L147 276Q220 202 300 165T473 129Q573 129 639 165T705 285Q705 341 678 374T607 427T477 473L432 487Q329 516 258 549T138 643T90 801Q90 896 137 963T271 1065T471 1100Z" horiz-adv-x="946" unicode="ş"/>
			<glyph d="M629 1430Q792 1430 908 1378T1108 1225L977 1104Q909 1180 825 1222T627 1264Q480 1264 406 1208T332 1063Q332 991 370 947T467 878T631 825L672 813L724 798Q867 757 952 718T1096 601T1155 389Q1155 269 1094 176T913 32T625 -20Q270 -20 98 215L233 336Q286 274 335 234T457 170T631 147Q777 147 872 205T967 379Q967 458 928 504T826 575T640 633Q622 637 586 647Q444 686 356 724T206 842T145 1053Q145 1181 210 1266T384 1390T629 1430ZM301 1790H446L637 1651H639L817 1790H963V1769L739 1530H534L301 1769Z" horiz-adv-x="1249" unicode="Š"/>
			<glyph d="M471 1100Q577 1100 676 1063T844 961L741 834Q685 887 612 917T471 948Q375 948 319 913T264 809Q264 760 292 730T367 683T504 641L539 631Q643 602 712 570T831 472T881 299Q881 199 829 127T685 17T473 -20Q346 -20 233 21T41 147L147 276Q220 202 300 165T473 129Q573 129 639 165T705 285Q705 341 678 374T607 427T477 473L432 487Q329 516 258 549T138 643T90 801Q90 896 137 963T271 1065T471 1100ZM137 1491H282L473 1323H475L653 1491H799V1470L569 1200H377L137 1470Z" horiz-adv-x="946" unicode="š"/>
			<glyph d="M45 1409H1122V1233H680V0H643L604 -102Q690 -109 733 -146T776 -248Q776 -426 502 -426Q444 -426 412 -422V-309Q460 -315 498 -315Q577 -315 611 -299T645 -252Q645 -195 506 -195Q467 -195 449 -197L520 0H489V1233H45Z" horiz-adv-x="1167" unicode="Ţ"/>
			<glyph d="M344 1323V1081H578V930H344V268Q344 200 371 173T467 147Q489 147 515 150T557 157T580 162L596 8Q515 -14 438 -16L405 -102Q490 -108 533 -146T577 -248Q577 -426 303 -426Q246 -426 213 -422V-309Q262 -315 299 -315Q378 -315 412 -299T446 -252Q446 -195 307 -195Q268 -195 250 -197L319 -5Q164 37 164 229V930H31V1081H168L176 1305Z" horiz-adv-x="590" unicode="ţ"/>
			<glyph d="M45 1409H1122V1233H680V0H489V1233H45ZM252 1790H397L588 1651H590L768 1790H914V1769L690 1530H485L252 1769Z" horiz-adv-x="1167" unicode="Ť"/>
			<glyph d="M344 1323V1081H578V930H344V268Q344 200 371 173T467 147Q489 147 515 150T557 157T580 162L596 8Q549 -4 508 -10T416 -16Q164 -16 164 229V930H31V1081H168L176 1305ZM616 1485Q666 1485 694 1454T723 1368Q723 1302 693 1247T616 1139L546 1196Q595 1259 604 1305Q566 1312 547 1336T528 1397Q528 1434 553 1459T616 1485Z" horiz-adv-x="662" unicode="ť"/>
			<glyph d="M45 1409H1122V1233H680V801H938V647H680V0H489V647H231V801H489V1233H45Z" horiz-adv-x="1167" unicode="Ŧ"/>
			<glyph d="M344 1323V1081H578V930H344V647H545V516H344V268Q344 200 371 173T467 147Q489 147 515 150T557 157T580 162L596 8Q549 -4 508 -10T416 -16Q164 -16 164 229V516H35V647H164V930H31V1081H168L176 1305Z" horiz-adv-x="621" unicode="ŧ"/>
			<glyph d="M158 1409H348V528Q348 335 445 245T709 156Q879 156 984 249T1090 541V1409H1280V530Q1280 349 1205 225T1001 40T711 -20Q556 -20 431 37T232 215T158 512ZM563 1798Q605 1798 646 1780T745 1730Q790 1704 817 1691T868 1679Q907 1679 927 1709T954 1798H1077Q1068 1723 1050 1666T991 1569T875 1530Q835 1530 795 1547T698 1597Q652 1623 623 1636T569 1649Q529 1649 508 1619T481 1530H360Q373 1647 415 1722T563 1798Z" horiz-adv-x="1438" unicode="Ũ"/>
			<glyph d="M133 1081H313V416Q313 268 366 203T537 139Q615 139 679 180T780 297T817 469V1081H997V231Q997 165 999 89T1004 0H834Q832 11 828 77T825 178H821Q768 83 684 31T475 -20Q305 -20 219 82T133 381ZM413 1468Q455 1468 496 1450T595 1400Q642 1374 668 1362T718 1350Q784 1350 794 1468H927Q918 1393 900 1336T841 1240T725 1200Q684 1200 644 1217T548 1268Q500 1295 472 1308T419 1321Q384 1321 366 1291T342 1200H210Q223 1318 265 1393T413 1468Z" unicode="ũ"/>
			<glyph d="M158 1409H348V528Q348 335 445 245T709 156Q879 156 984 249T1090 541V1409H1280V530Q1280 349 1205 225T1001 40T711 -20Q556 -20 431 37T232 215T158 512ZM444 1692H993V1565H444Z" horiz-adv-x="1438" unicode="Ū"/>
			<glyph d="M133 1081H313V416Q313 268 366 203T537 139Q615 139 679 180T780 297T817 469V1081H997V231Q997 165 999 89T1004 0H834Q832 11 828 77T825 178H821Q768 83 684 31T475 -20Q305 -20 219 82T133 381ZM294 1364H843V1237H294Z" unicode="ū"/>
			<glyph d="M158 1409H348V528Q348 335 445 245T709 156Q879 156 984 249T1090 541V1409H1280V530Q1280 349 1205 225T1001 40T711 -20Q556 -20 431 37T232 215T158 512ZM385 1780H502Q520 1725 575 1695T719 1665Q808 1665 863 1695T934 1780H1051Q1038 1711 997 1654T885 1564T717 1530Q623 1530 552 1564T439 1655T385 1780Z" horiz-adv-x="1438" unicode="Ŭ"/>
			<glyph d="M133 1081H313V416Q313 268 366 203T537 139Q615 139 679 180T780 297T817 469V1081H997V231Q997 165 999 89T1004 0H834Q832 11 828 77T825 178H821Q768 83 684 31T475 -20Q305 -20 219 82T133 381ZM235 1509H393Q406 1428 451 1393T569 1358Q641 1358 685 1393T743 1509H901Q888 1424 847 1354T735 1242T567 1200Q473 1200 401 1242T288 1355T235 1509Z" unicode="ŭ"/>
			<glyph d="M728 1850Q787 1850 837 1820T916 1741T946 1633Q946 1575 916 1525T837 1445T728 1415Q669 1415 619 1445T539 1525T510 1633Q510 1692 539 1741T619 1820T728 1850ZM728 1754Q677 1754 641 1719T606 1633Q606 1581 641 1546T728 1511Q779 1511 813 1546T848 1633Q848 1685 813 1719T728 1754ZM158 1409H348V528Q348 335 445 245T709 156Q879 156 984 249T1090 541V1409H1280V530Q1280 349 1205 225T1001 40T711 -20Q556 -20 431 37T232 215T158 512Z" horiz-adv-x="1438" unicode="Ů"/>
			<glyph d="M133 1081H313V416Q313 268 366 203T537 139Q615 139 679 180T780 297T817 469V1081H997V231Q997 165 999 89T1004 0H834Q832 11 828 77T825 178H821Q768 83 684 31T475 -20Q305 -20 219 82T133 381ZM569 1651Q634 1651 690 1618T778 1530T811 1409Q811 1344 778 1288T690 1200T569 1167Q504 1167 448 1200T359 1288T327 1409Q327 1474 359 1530T448 1618T569 1651ZM569 1544Q512 1544 473 1505T434 1409Q434 1352 473 1313T569 1274Q626 1274 664 1313T702 1409Q702 1467 664 1505T569 1544Z" unicode="ů"/>
			<glyph d="M158 1409H348V528Q348 335 445 245T709 156Q879 156 984 249T1090 541V1409H1280V530Q1280 349 1205 225T1001 40T711 -20Q556 -20 431 37T232 215T158 512ZM622 1778H829V1749L520 1530H426V1550ZM968 1778H1175V1749L866 1530H772V1550Z" horiz-adv-x="1438" unicode="Ű"/>
			<glyph d="M133 1081H313V416Q313 268 366 203T537 139Q615 139 679 180T780 297T817 469V1081H997V231Q997 165 999 89T1004 0H834Q832 11 828 77T825 178H821Q768 83 684 31T475 -20Q305 -20 219 82T133 381ZM492 1507H678V1479L410 1200H275V1221ZM838 1507H1024V1479L756 1200H621V1221Z" unicode="ű"/>
			<glyph d="M158 1409H348V528Q348 335 445 245T709 156Q879 156 984 249T1090 541V1409H1280V530Q1280 312 1173 177T886 0H887Q829 -33 784 -92T739 -217Q739 -258 763 -279T833 -301Q886 -301 948 -276V-399Q889 -426 809 -426Q707 -426 652 -376T598 -240Q598 -170 634 -113T719 -20H711Q556 -20 431 37T232 215T158 512Z" horiz-adv-x="1438" unicode="Ų"/>
			<glyph d="M133 1081H313V416Q313 268 366 203T537 139Q615 139 679 180T780 297T817 469V1081H997V231Q997 165 999 89T1004 0H987Q929 -34 884 -93T840 -217Q840 -258 864 -279T934 -301Q987 -301 1049 -276V-399Q990 -426 909 -426Q807 -426 752 -376T698 -240Q698 -183 723 -134T784 -51T850 0H834Q832 11 828 77T825 178H821Q768 83 684 31T475 -20Q305 -20 219 82T133 381Z" unicode="ų"/>
			<glyph d="M8 1409H209L426 514Q476 311 506 182Q537 328 590 532L807 1409H1008L1227 532Q1292 257 1311 182Q1318 214 1357 374L1391 514L1604 1409H1802L1438 0H1200L973 895Q958 953 923 1111L907 1186Q867 1000 840 895L610 0H375ZM806 1790H1011L1235 1550V1530H1089L911 1669H909L718 1530H573V1550Z" horiz-adv-x="1810" unicode="Ŵ"/>
			<glyph d="M-2 1081H176L360 346Q370 308 382 247T401 154L420 232L446 340L641 1081H840L1028 340L1038 296Q1066 184 1071 154Q1073 163 1076 177T1084 211Q1096 271 1114 346L1307 1081H1485L1174 0H965L793 698Q781 744 763 820T739 930Q737 915 719 833T686 694L508 0H299ZM647 1491H839L1069 1221V1200H923L745 1370H743L552 1200H407V1221Z" horiz-adv-x="1479" unicode="ŵ"/>
			<glyph d="M45 1409H256L643 696L1028 1409H1239L737 539V0H547V539ZM544 1790H749L973 1550V1530H827L649 1669H647L456 1530H311V1550Z" horiz-adv-x="1284" unicode="Ŷ"/>
			<glyph d="M4 1081H197L426 483Q447 427 482 325T522 203Q526 217 561 309Q604 423 618 465L829 1081H1020L604 0Q549 -142 494 -233T365 -375T190 -426Q153 -426 125 -423T68 -414L80 -268Q116 -274 152 -274Q321 -274 418 -39L434 4ZM420 1491H612L842 1221V1200H696L518 1370H516L325 1200H180V1221Z" horiz-adv-x="1024" unicode="ŷ"/>
			<glyph d="M45 1409H256L643 696L1028 1409H1239L737 539V0H547V539ZM452 1741Q495 1741 526 1710T557 1634Q557 1590 526 1560T452 1530Q409 1530 378 1560T348 1634Q348 1679 378 1710T452 1741ZM835 1741Q878 1741 909 1710T940 1634Q940 1590 909 1560T835 1530Q792 1530 761 1560T731 1634Q731 1679 761 1710T835 1741Z" horiz-adv-x="1284" unicode="Ÿ"/>
			<glyph d="M86 1409H1028V1262L257 170H1065V0H25V152L796 1239H86ZM633 1776H840V1747L571 1530H416V1550Z" horiz-adv-x="1087" unicode="Ź"/>
			<glyph d="M123 1081H907V938L308 154H928V0H90V143L688 928H123ZM596 1507H803V1479L514 1200H379V1221Z" horiz-adv-x="1024" unicode="ź"/>
			<glyph d="M86 1409H1028V1262L257 170H1065V0H25V152L796 1239H86ZM559 1743Q602 1743 632 1712T663 1636Q663 1592 632 1562T559 1532Q515 1532 484 1562T454 1636Q454 1681 484 1712T559 1743Z" horiz-adv-x="1087" unicode="Ż"/>
			<glyph d="M123 1081H907V938L308 154H928V0H90V143L688 928H123ZM510 1446Q556 1446 588 1414T620 1337Q620 1290 588 1258T510 1227Q463 1227 431 1258T399 1337Q399 1382 431 1414T510 1446Z" horiz-adv-x="1024" unicode="ż"/>
			<glyph d="M86 1409H1028V1262L257 170H1065V0H25V152L796 1239H86ZM227 1790H372L563 1651H565L743 1790H889V1769L665 1530H460L227 1769Z" horiz-adv-x="1087" unicode="Ž"/>
			<glyph d="M123 1081H907V938L308 154H928V0H90V143L688 928H123ZM178 1491H323L514 1323H516L694 1491H840V1470L610 1200H418L178 1470Z" horiz-adv-x="1024" unicode="ž"/>
			<glyph d="M461 1485Q539 1485 612 1468L596 1313Q564 1318 542 1320T483 1323Q412 1323 386 1285T360 1161V0H180V1186Q180 1323 248 1404T461 1485Z" horiz-adv-x="551" unicode="ſ"/>
			<glyph d="M813 1454Q849 1454 890 1449T963 1434L926 1292Q904 1298 873 1302T815 1307Q774 1307 749 1292T708 1246T680 1159L653 1022H864L836 870H623L375 -426H195L442 870H291L322 1022H471L502 1174Q519 1261 551 1322T647 1418T813 1454Z" unicode="ƒ"/>
			<glyph d="M637 1853H844V1825L714 1727Q780 1705 822 1649T864 1524Q864 1475 841 1431T780 1356L1280 0H1085L952 381H336L203 0H4L513 1351Q471 1381 446 1426T422 1524Q422 1600 471 1658V1659ZM643 1638Q595 1638 561 1605T528 1524Q528 1476 562 1442T643 1409Q691 1409 723 1442T756 1524Q756 1573 723 1605T643 1638ZM645 1257Q636 1225 612 1158T561 1024L394 547H894L727 1026Q700 1096 676 1162T645 1257Z" horiz-adv-x="1284" unicode="Ǻ"/>
			<glyph d="M592 1849H799V1821L614 1643Q692 1622 742 1556T793 1409Q793 1344 760 1288T672 1200T551 1167Q486 1167 430 1200T341 1288T309 1409Q309 1466 334 1516T403 1600ZM551 1544Q494 1544 455 1505T416 1409Q416 1352 455 1313T551 1274Q608 1274 646 1313T684 1409Q684 1467 646 1505T551 1544ZM555 1102Q680 1102 769 1054T904 922T950 729V229Q950 101 958 0H784Q776 73 776 160H772Q711 71 631 25T424 -20Q259 -20 172 65T86 301Q86 482 221 560T557 643L772 647V711Q772 823 714 886T551 950Q465 950 395 914T242 788L129 905Q199 991 306 1046T555 1102ZM772 506L602 502Q453 498 362 453T272 299Q272 222 323 176T465 131Q561 131 630 169T736 270T772 403Z" horiz-adv-x="1094" unicode="ǻ"/>
			<glyph d="M711 1409H1874V1233H1159V811H1815V637H1159V176H1915V0H969V397H413L223 0H25ZM821 1262L759 1127L711 1022L491 561H969V1262ZM1239 1776H1446V1747L1177 1530H1022V1550Z" horiz-adv-x="2003" unicode="Ǽ"/>
			<glyph d="M551 1102Q673 1102 760 1057T905 922Q968 1010 1061 1056T1266 1102Q1427 1102 1528 1025T1673 830T1718 580Q1718 546 1714 494H977Q977 407 1011 324T1114 188T1286 135Q1349 135 1400 152T1493 198T1585 270L1683 141Q1633 99 1583 65T1456 6T1286 -20Q1147 -20 1044 37T881 203Q826 129 768 81T630 6T442 -20Q271 -20 178 65T86 301Q86 490 221 564T571 643L791 647V702Q791 821 729 885T549 950Q470 950 394 913T242 788L129 905Q210 995 311 1048T551 1102ZM1262 948Q1194 948 1131 916T1026 816T979 645H1534Q1508 948 1262 948ZM791 506L596 502Q456 500 364 459T272 299Q272 221 328 176T485 131Q584 131 653 179T757 299T791 444ZM991 1507H1198V1479L909 1200H774V1221Z" horiz-adv-x="1810" unicode="ǽ"/>
			<glyph d="M1237 1466H1430L1245 1224Q1327 1129 1370 999T1413 711Q1413 493 1331 327T1099 70T754 -20Q534 -20 377 89L268 -53H80L266 191Q183 288 139 420T96 711Q96 929 176 1091T406 1342T756 1430Q972 1430 1130 1325ZM756 1253Q612 1253 507 1186T347 996T291 711Q291 605 315 513T387 351L1016 1176Q905 1253 756 1253ZM1123 1065L492 239Q603 156 754 156Q903 156 1007 226T1165 422T1219 711Q1219 817 1194 906T1123 1065ZM830 1776H1037V1747L768 1530H613V1550Z" horiz-adv-x="1509" unicode="Ǿ"/>
			<glyph d="M995 1116H1163L999 917Q1092 775 1092 543Q1092 373 1036 246T870 49T604 -20Q427 -20 307 78L211 -39H43L220 176Q125 322 125 543Q125 710 180 836T344 1032T610 1102Q793 1102 910 1013ZM612 948Q471 948 392 845T313 543Q313 421 345 328L800 879Q730 948 612 948ZM872 762L416 210Q490 133 602 133Q745 133 824 234T903 543Q903 672 872 762ZM692 1507H899V1479L610 1200H475V1221Z" horiz-adv-x="1206" unicode="ǿ"/>
			<glyph d="M629 1430Q792 1430 908 1378T1108 1225L977 1104Q909 1180 825 1222T627 1264Q480 1264 406 1208T332 1063Q332 991 370 947T467 878T631 825L672 813L724 798Q867 757 952 718T1096 601T1155 389Q1155 269 1094 176T913 32T625 -20Q270 -20 98 215L233 336Q286 274 335 234T457 170T631 147Q777 147 872 205T967 379Q967 458 928 504T826 575T640 633Q622 637 586 647Q444 686 356 724T206 842T145 1053Q145 1181 210 1266T384 1390T629 1430ZM619 -84Q668 -84 696 -116T724 -207Q724 -270 698 -322T629 -430L556 -377Q577 -347 591 -319T609 -264Q572 -258 549 -233T527 -172Q527 -134 553 -109T619 -84Z" horiz-adv-x="1249" unicode="Ș"/>
			<glyph d="M471 1100Q577 1100 676 1063T844 961L741 834Q685 887 612 917T471 948Q375 948 319 913T264 809Q264 760 292 730T367 683T504 641L539 631Q643 602 712 570T831 472T881 299Q881 199 829 127T685 17T473 -20Q346 -20 233 21T41 147L147 276Q220 202 300 165T473 129Q573 129 639 165T705 285Q705 341 678 374T607 427T477 473L432 487Q329 516 258 549T138 643T90 801Q90 896 137 963T271 1065T471 1100ZM477 -84Q526 -84 554 -116T582 -207Q582 -270 556 -322T487 -430L414 -377Q435 -347 449 -319T467 -264Q430 -258 407 -233T385 -172Q385 -134 411 -109T477 -84Z" horiz-adv-x="946" unicode="ș"/>
			<glyph d="M45 1409H1122V1233H680V0H489V1233H45ZM578 -84Q627 -84 655 -116T683 -207Q683 -270 657 -322T588 -430L515 -377Q536 -347 550 -319T568 -264Q531 -258 508 -233T486 -172Q486 -134 512 -109T578 -84Z" horiz-adv-x="1167" unicode="Ț"/>
			<glyph d="M344 1323V1081H578V930H344V268Q344 200 371 173T467 147Q489 147 515 150T557 157T580 162L596 8Q549 -4 508 -10T416 -16Q164 -16 164 229V930H31V1081H168L176 1305ZM356 -84Q405 -84 433 -116T461 -207Q461 -270 435 -322T366 -430L293 -377Q314 -347 328 -319T346 -264Q309 -258 286 -233T264 -172Q264 -134 290 -109T356 -84Z" horiz-adv-x="621" unicode="ț"/>
			<glyph d="M137 1081H317V-133Q317 -271 264 -348T78 -426Q-3 -426 -49 -416L-37 -256Q-8 -262 20 -262Q67 -262 92 -246T127 -196T137 -106Z" horiz-adv-x="455" unicode="ȷ"/>
			<glyph d="M150 1409H344L186 891H86Z" horiz-adv-x="385" unicode="ʼ"/>
			<glyph d="M240 1491H432L662 1221V1200H516L338 1370H336L145 1200H0V1221Z" horiz-adv-x="682" unicode="ˆ"/>
			<glyph d="M0 1491H145L336 1323H338L516 1491H662V1470L432 1200H240L0 1470Z" horiz-adv-x="682" unicode="ˇ"/>
			<glyph d="M51 1364H600V1237H51Z" horiz-adv-x="651" unicode="ˉ"/>
			<glyph d="M8 1509H166Q179 1428 224 1393T342 1358Q414 1358 458 1393T516 1509H674Q661 1424 620 1354T508 1242T340 1200Q246 1200 174 1242T61 1355T8 1509Z" horiz-adv-x="682" unicode="˘"/>
			<glyph d="M244 1446Q290 1446 322 1414T354 1337Q354 1290 322 1258T244 1227Q197 1227 165 1258T133 1337Q133 1382 165 1414T244 1446Z" horiz-adv-x="682" unicode="˙"/>
			<glyph d="M340 1651Q405 1651 461 1618T549 1530T582 1409Q582 1344 549 1288T461 1200T340 1167Q275 1167 219 1200T130 1288T98 1409Q98 1474 130 1530T219 1618T340 1651ZM340 1544Q283 1544 244 1505T205 1409Q205 1352 244 1313T340 1274Q397 1274 435 1313T473 1409Q473 1467 435 1505T340 1544Z" horiz-adv-x="682" unicode="˚"/>
			<glyph d="M231 0H369Q311 -33 266 -92T221 -217Q221 -258 245 -279T315 -301Q368 -301 430 -276V-399Q371 -426 291 -426Q189 -426 134 -376T80 -240Q80 -183 105 -134T165 -51T231 0Z" horiz-adv-x="682" unicode="˛"/>
			<glyph d="M180 1468Q222 1468 263 1450T362 1400Q409 1374 435 1362T485 1350Q551 1350 561 1468H694Q685 1393 667 1336T608 1240T492 1200Q451 1200 411 1217T315 1268Q267 1295 239 1308T186 1321Q151 1321 133 1291T109 1200H-23Q-10 1318 32 1393T180 1468Z" horiz-adv-x="682" unicode="˜"/>
			<glyph d="M240 1507H426V1479L158 1200H23V1221ZM586 1507H772V1479L504 1200H369V1221Z" horiz-adv-x="682" unicode="˝"/>
			<glyph d="M-576 1507H-369L-152 1221V1200H-287L-576 1479Z" horiz-adv-x="0" unicode="̀"/>
			<glyph d="M-393 1507H-186V1479L-475 1200H-610V1221Z" horiz-adv-x="0" unicode="́"/>
			<glyph d="M-442 1491H-250L-20 1221V1200H-166L-344 1370H-346L-537 1200H-682V1221Z" horiz-adv-x="0" unicode="̂"/>
			<glyph d="M-502 1468Q-460 1468 -419 1450T-320 1400Q-273 1374 -247 1362T-197 1350Q-131 1350 -121 1468H12Q3 1393 -14 1336T-74 1240T-190 1200Q-231 1200 -271 1217T-367 1268Q-415 1295 -443 1308T-496 1321Q-531 1321 -549 1291T-573 1200H-705Q-692 1318 -649 1393T-502 1468Z" horiz-adv-x="0" unicode="̃"/>
			<glyph d="M-600 1364H-51V1237H-600Z" horiz-adv-x="0" unicode="̄"/>
			<glyph d="M-674 1509H-516Q-503 1428 -457 1393T-340 1358Q-268 1358 -223 1393T-166 1509H-8Q-21 1424 -62 1354T-174 1242T-342 1200Q-436 1200 -507 1242T-621 1355T-674 1509Z" horiz-adv-x="0" unicode="̆"/>
			<glyph d="M-243 1446Q-197 1446 -165 1414T-133 1337Q-133 1290 -165 1258T-243 1227Q-290 1227 -322 1258T-354 1337Q-354 1382 -321 1414T-243 1446Z" horiz-adv-x="0" unicode="̇"/>
			<glyph d="M-549 1444Q-506 1444 -476 1413T-446 1339Q-446 1296 -476 1266T-549 1237Q-592 1237 -621 1266T-651 1339Q-651 1383 -621 1413T-549 1444ZM-166 1444Q-123 1444 -93 1413T-64 1339Q-64 1296 -93 1266T-166 1237Q-209 1237 -238 1266T-268 1339Q-268 1383 -238 1413T-166 1444Z" horiz-adv-x="0" unicode="̈"/>
			<glyph d="M-342 1651Q-277 1651 -221 1618T-132 1530T-100 1409Q-100 1344 -132 1288T-221 1200T-342 1167Q-407 1167 -463 1200T-551 1288T-584 1409Q-584 1474 -551 1530T-463 1618T-342 1651ZM-342 1544Q-399 1544 -438 1505T-477 1409Q-477 1352 -438 1313T-342 1274Q-285 1274 -247 1313T-209 1409Q-209 1467 -247 1505T-342 1544Z" horiz-adv-x="0" unicode="̊"/>
			<glyph d="M-442 1507H-256V1479L-524 1200H-659V1221ZM-96 1507H90V1479L-178 1200H-313V1221Z" horiz-adv-x="0" unicode="̋"/>
			<glyph d="M-682 1491H-537L-346 1323H-344L-166 1491H-20V1470L-250 1200H-442L-682 1470Z" horiz-adv-x="0" unicode="̌"/>
			<glyph d="M-213 1571L-144 1513Q-192 1450 -201 1405Q-163 1398 -144 1374T-125 1313Q-125 1275 -151 1250T-217 1225Q-265 1225 -292 1255T-320 1341Q-320 1408 -291 1462T-213 1571Z" horiz-adv-x="0" unicode="̒"/>
			<glyph d="M-243 -57Q-197 -57 -165 -89T-133 -166Q-133 -213 -165 -244T-243 -276Q-290 -276 -322 -244T-354 -166Q-354 -121 -321 -89T-243 -57Z" horiz-adv-x="0" unicode="̣"/>
			<glyph d="M-229 -84Q-180 -84 -152 -116T-124 -207Q-124 -270 -150 -322T-219 -430L-292 -377Q-271 -347 -257 -319T-239 -264Q-276 -258 -298 -233T-321 -172Q-321 -134 -295 -109T-229 -84Z" horiz-adv-x="0" unicode="̦"/>
			<glyph d="M-455 0H-332L-371 -102Q-286 -108 -242 -146T-199 -248Q-199 -426 -473 -426Q-530 -426 -563 -422V-309Q-514 -315 -477 -315Q-398 -315 -364 -299T-330 -252Q-330 -195 -469 -195Q-508 -195 -526 -197Z" horiz-adv-x="0" unicode="̧"/>
			<glyph d="M-451 0H-313Q-371 -33 -416 -92T-461 -217Q-461 -258 -436 -279T-367 -301Q-314 -301 -252 -276V-399Q-311 -426 -391 -426Q-493 -426 -547 -376T-602 -240Q-602 -183 -577 -134T-517 -51T-451 0Z" horiz-adv-x="0" unicode="̨"/>
			<glyph d="M150 1409H344L186 891H86Z" horiz-adv-x="385" unicode="ʹ"/>
			<glyph d="M150 274H344L186 -244H86Z" horiz-adv-x="385" unicode="͵"/>
			<glyph d="M287 1094Q340 1094 375 1059T410 971Q410 916 375 881T287 846Q232 846 197 881T162 971Q162 1025 197 1059T287 1094ZM289 236Q348 236 381 198T414 90Q414 -11 371 -95T254 -276L166 -211Q202 -161 230 -112T268 -12Q221 -5 193 28T166 109Q166 165 200 200T289 236Z" horiz-adv-x="569" unicode=";"/>
			<glyph d="M274 1542H481V1505L281 1219H205V1251Z" horiz-adv-x="682" unicode="΄"/>
			<glyph d="M332 1602H518V1565L338 1200H262V1233ZM113 1401Q150 1401 176 1374T203 1311Q203 1273 176 1247T113 1221Q75 1221 49 1247T23 1311Q23 1348 49 1374T113 1401ZM569 1401Q606 1401 632 1374T659 1311Q659 1273 632 1247T569 1221Q532 1221 505 1247T479 1311Q479 1348 505 1374T569 1401Z" horiz-adv-x="682" unicode="΅"/>
			<glyph d="M535 1409H760L1280 0H1085L952 381H336L203 0H4ZM645 1257Q636 1225 612 1158T561 1024L394 547H894L727 1026Q700 1096 676 1162T645 1257ZM82 1409H289V1372L89 1086H13V1118Z" horiz-adv-x="1284" unicode="Ά"/>
			<glyph d="M287 682Q340 682 375 647T410 559Q410 504 375 469T287 434Q232 434 197 469T162 559Q162 613 197 647T287 682Z" horiz-adv-x="569" unicode="·"/>
			<glyph d="M168 1409H1073V1233H358V811H1014V637H358V176H1114V0H168ZM-121 1409H86V1372L-114 1086H-190V1118Z" horiz-adv-x="1202" unicode="Έ"/>
			<glyph d="M168 1409H358V823H1061V1409H1251V0H1061V643H358V0H168ZM-121 1409H86V1372L-114 1086H-190V1118Z" horiz-adv-x="1419" unicode="Ή"/>
			<glyph d="M188 1409H381V0H188ZM-101 1409H106V1372L-94 1086H-170V1118Z" horiz-adv-x="569" unicode="Ί"/>
			<glyph d="M756 1430Q955 1430 1104 1341T1333 1090T1413 711Q1413 493 1331 327T1099 70T754 -20Q550 -20 401 73T174 332T96 711Q96 929 176 1091T406 1342T756 1430ZM756 1253Q612 1253 507 1186T347 996T291 711Q291 549 348 423T510 226T754 156Q903 156 1007 226T1165 422T1219 711Q1219 873 1162 996T1000 1186T756 1253ZM-45 1409H162V1372L-38 1086H-114V1118Z" horiz-adv-x="1509" unicode="Ό"/>
			<glyph d="M45 1409H256L643 696L1028 1409H1239L737 539V0H547V539ZM-248 1409H-41V1372L-241 1086H-317V1118Z" horiz-adv-x="1284" unicode="Ύ"/>
			<glyph d="M766 1430Q965 1430 1111 1354T1336 1137T1415 801Q1415 599 1303 435T991 166L1034 168Q1162 176 1198 176H1444V0H854V244Q1041 341 1131 479T1221 788Q1221 936 1167 1040T1012 1198T766 1253Q621 1253 518 1198T362 1040T309 788Q309 618 399 479T676 244V0H86V176H332Q372 176 500 168L539 166Q343 274 229 437T115 801Q115 996 193 1137T418 1354T766 1430ZM-47 1409H160V1372L-40 1086H-116V1118Z" horiz-adv-x="1532" unicode="Ώ"/>
			<glyph d="M137 1081H317V258Q317 187 335 160T391 133Q416 133 434 136T457 141L477 0Q438 -10 405 -15T334 -20Q228 -20 182 37T137 227ZM223 1602H409V1565L229 1200H153V1233ZM4 1401Q41 1401 67 1374T94 1311Q94 1273 67 1247T4 1221Q-34 1221 -60 1247T-86 1311Q-86 1348 -59 1374T4 1401ZM460 1401Q497 1401 523 1374T550 1311Q550 1273 523 1247T460 1221Q423 1221 396 1247T370 1311Q370 1348 396 1374T460 1401Z" horiz-adv-x="518" unicode="ΐ"/>
			<glyph d="M535 1409H760L1280 0H1085L952 381H336L203 0H4ZM645 1257Q636 1225 612 1158T561 1024L394 547H894L727 1026Q700 1096 676 1162T645 1257Z" horiz-adv-x="1284" unicode="Α"/>
			<glyph d="M168 1409H686Q1161 1409 1161 1063Q1161 940 1097 850T913 733Q1009 720 1077 674T1181 557T1217 397Q1217 260 1150 171T972 41T719 0H168ZM358 1235V811H680Q834 811 902 869T971 1036Q971 1140 899 1187T686 1235ZM358 641V174H709Q861 174 943 227T1026 412Q1026 529 939 585T694 641Z" horiz-adv-x="1325" unicode="Β"/>
			<glyph d="M168 1409H1030V1233H358V0H168Z" horiz-adv-x="1087" unicode="Γ"/>
			<glyph d="M500 1409H719L1208 141V0H4V141ZM607 1254Q583 1167 524 1008L211 164H1004L690 1010Q650 1116 607 1254Z" horiz-adv-x="1212" unicode="Δ"/>
			<glyph d="M168 1409H1073V1233H358V811H1014V637H358V176H1114V0H168Z" horiz-adv-x="1202" unicode="Ε"/>
			<glyph d="M86 1409H1028V1262L257 170H1065V0H25V152L796 1239H86Z" horiz-adv-x="1087" unicode="Ζ"/>
			<glyph d="M168 1409H358V823H1061V1409H1251V0H1061V643H358V0H168Z" horiz-adv-x="1419" unicode="Η"/>
			<glyph d="M776 1430Q982 1430 1135 1341T1371 1090T1454 711Q1454 493 1369 327T1130 70T774 -20Q564 -20 410 73T176 332T96 711Q96 929 179 1091T415 1342T776 1430ZM776 1253Q626 1253 517 1186T349 996T291 711Q291 549 350 423T519 226T774 156Q929 156 1038 226T1204 422T1260 711Q1260 873 1200 996T1031 1186T776 1253ZM492 795H1059V635H492Z" horiz-adv-x="1550" unicode="Θ"/>
			<glyph d="M188 1409H381V0H188Z" horiz-adv-x="569" unicode="Ι"/>
			<glyph d="M168 1409H358V727L971 1409H1202L643 803L1282 0H1044L525 677L358 518V0H168Z" horiz-adv-x="1298" unicode="Κ"/>
			<glyph d="M543 1409H743L1276 0H1075L727 981Q695 1072 672 1140T643 1229Q636 1207 611 1131T559 981L211 0H10Z" horiz-adv-x="1286" unicode="Λ"/>
			<glyph d="M168 1409H420L795 432Q811 388 831 324T856 238Q862 262 885 327T926 432L1292 1409H1538V0H1366V940Q1366 1108 1372 1208Q1369 1194 1340 1107T1286 961L924 0H788L420 961Q400 1006 369 1099T334 1208L335 1157Q338 986 338 940V0H168Z" horiz-adv-x="1706" unicode="Μ"/>
			<glyph d="M168 1409H393L1106 211Q1105 237 1102 324T1100 485V1409H1272V0H1036L334 1190Q335 1163 336 1089T338 936V0H168Z" horiz-adv-x="1440" unicode="Ν"/>
			<glyph d="M125 1409H1124V1233H125ZM246 811H1004V637H246ZM90 176H1159V0H90Z" horiz-adv-x="1249" unicode="Ξ"/>
			<glyph d="M756 1430Q955 1430 1104 1341T1333 1090T1413 711Q1413 493 1331 327T1099 70T754 -20Q550 -20 401 73T174 332T96 711Q96 929 176 1091T406 1342T756 1430ZM756 1253Q612 1253 507 1186T347 996T291 711Q291 549 348 423T510 226T754 156Q903 156 1007 226T1165 422T1219 711Q1219 873 1162 996T1000 1186T756 1253Z" horiz-adv-x="1509" unicode="Ο"/>
			<glyph d="M168 1409H1272V0H1079V1227H358V0H168Z" horiz-adv-x="1440" unicode="Π"/>
			<glyph d="M168 1409H700Q863 1409 974 1356T1140 1207T1196 981Q1196 854 1141 754T977 596T711 539H358V0H168ZM358 1235V711H684Q846 711 926 779T1006 979Q1006 1105 922 1170T676 1235Z" horiz-adv-x="1305" unicode="Ρ"/>
			<glyph d="M125 1409H1063V1239H364L788 809V684L331 170H1124V0H109V162L625 742L125 1247Z" horiz-adv-x="1204" unicode="Σ"/>
			<glyph d="M45 1409H1122V1233H680V0H489V1233H45Z" horiz-adv-x="1167" unicode="Τ"/>
			<glyph d="M45 1409H256L643 696L1028 1409H1239L737 539V0H547V539Z" horiz-adv-x="1284" unicode="Υ"/>
			<glyph d="M725 1419H909V1237H981Q1157 1237 1277 1175T1458 1001T1518 735Q1518 592 1459 473T1282 285T993 215H909V-10H725V215H641Q471 215 352 285T175 473T117 735Q117 888 177 1001T357 1175T653 1237H725ZM674 1079Q491 1079 400 993T309 731Q309 561 399 467T670 373H725V1079ZM909 1079V373H967Q1146 373 1235 467T1325 731Q1325 907 1233 993T958 1079Z" horiz-adv-x="1634" unicode="Φ"/>
			<glyph d="M86 1409H305L649 869L983 1409H1200L757 739L1241 0H1024L647 604L262 0H45L546 731Z" horiz-adv-x="1286" unicode="Χ"/>
			<glyph d="M145 1409H336V942Q336 839 378 759T503 633T707 588H764V1409H948V588H1004Q1127 588 1210 633T1333 758T1374 942V1409H1567V946Q1567 804 1505 685T1322 496T1030 426H948V0H764V426H680Q509 426 388 496T206 685T145 946Z" horiz-adv-x="1710" unicode="Ψ"/>
			<glyph d="M766 1430Q965 1430 1111 1354T1336 1137T1415 801Q1415 599 1303 435T991 166L1034 168Q1162 176 1198 176H1444V0H854V244Q1041 341 1131 479T1221 788Q1221 936 1167 1040T1012 1198T766 1253Q621 1253 518 1198T362 1040T309 788Q309 618 399 479T676 244V0H86V176H332Q372 176 500 168L539 166Q343 274 229 437T115 801Q115 996 193 1137T418 1354T766 1430Z" horiz-adv-x="1532" unicode="Ω"/>
			<glyph d="M188 1409H381V0H188ZM94 1741Q137 1741 168 1710T199 1634Q199 1590 168 1560T94 1530Q51 1530 20 1560T-10 1634Q-10 1679 20 1710T94 1741ZM477 1741Q520 1741 551 1710T582 1634Q582 1590 551 1560T477 1530Q434 1530 403 1560T373 1634Q373 1679 403 1710T477 1741Z" horiz-adv-x="569" unicode="Ϊ"/>
			<glyph d="M45 1409H256L643 696L1028 1409H1239L737 539V0H547V539ZM452 1741Q495 1741 526 1710T557 1634Q557 1590 526 1560T452 1530Q409 1530 378 1560T348 1634Q348 1679 378 1710T452 1741ZM835 1741Q878 1741 909 1710T940 1634Q940 1590 909 1560T835 1530Q792 1530 761 1560T731 1634Q731 1679 761 1710T835 1741Z" horiz-adv-x="1284" unicode="Ϋ"/>
			<glyph d="M522 1102Q683 1102 775 1009T901 733L905 709L914 741Q929 787 928 786Q945 834 967 910Q1001 1022 1024 1083H1200Q1161 995 1129 912T1055 715L993 547L1020 387Q1037 286 1050 236T1084 162T1141 139Q1176 139 1208 147L1233 8Q1152 -12 1098 -12Q1029 -12 991 23T933 121T893 301L881 369L862 319Q820 208 773 136T653 22T469 -20Q277 -20 181 119T86 532Q86 716 138 844T289 1037T522 1102ZM535 948Q460 948 401 904T308 767T274 532Q274 135 494 135Q568 135 617 170T703 273T793 469L821 541L813 598Q786 772 723 860T535 948ZM592 1542H799V1505L599 1219H523V1251Z" horiz-adv-x="1264" unicode="ά"/>
			<glyph d="M471 1102Q721 1102 842 928L719 829Q673 888 610 918T471 948Q381 948 333 911T285 809Q285 736 330 697T452 646T643 633V498Q526 498 444 485T309 428T256 299Q256 221 311 178T457 135Q554 135 635 177T768 274L872 164Q803 84 695 32T444 -20Q319 -20 235 19T111 130T70 295Q70 370 105 428T200 522T334 563V565Q266 574 213 606T131 692T102 813Q102 896 146 962T274 1065T471 1102ZM457 1542H664V1505L464 1219H388V1251Z" horiz-adv-x="913" unicode="έ"/>
			<glyph d="M664 1102Q1006 1102 1006 680V-426H825V645Q825 798 774 870T602 942Q517 942 454 905T356 797T322 627V0H141V815Q141 886 123 913T68 940Q57 940 37 936L16 1073Q71 1092 131 1092Q220 1092 262 1047T313 903H317Q374 1000 455 1051T664 1102ZM569 1542H776V1505L576 1219H500V1251Z" unicode="ή"/>
			<glyph d="M137 1081H317V258Q317 187 335 160T391 133Q416 133 434 136T457 141L477 0Q438 -10 405 -15T334 -20Q228 -20 182 37T137 227ZM231 1542H438V1505L238 1219H162V1251Z" horiz-adv-x="518" unicode="ί"/>
			<glyph d="M133 1081H313V414Q313 276 373 207T565 139Q664 139 723 182T810 319T838 567Q838 696 802 846T723 1081H911Q955 988 988 848T1022 571Q1022 288 908 134T557 -20Q410 -20 317 26T178 168T133 420ZM549 1602H735V1565L555 1200H479V1233ZM330 1401Q367 1401 393 1374T420 1311Q420 1273 393 1247T330 1221Q292 1221 266 1247T240 1311Q240 1348 266 1374T330 1401ZM786 1401Q823 1401 849 1374T876 1311Q876 1273 849 1247T786 1221Q749 1221 722 1247T696 1311Q696 1348 722 1374T786 1401Z" horiz-adv-x="1120" unicode="ΰ"/>
			<glyph d="M522 1102Q683 1102 775 1009T901 733L905 709L914 741Q929 787 928 786Q945 834 967 910Q1001 1022 1024 1083H1200Q1161 995 1129 912T1055 715L993 547L1020 387Q1037 286 1050 236T1084 162T1141 139Q1176 139 1208 147L1233 8Q1152 -12 1098 -12Q1029 -12 991 23T933 121T893 301L881 369L862 319Q820 208 773 136T653 22T469 -20Q277 -20 181 119T86 532Q86 716 138 844T289 1037T522 1102ZM535 948Q460 948 401 904T308 767T274 532Q274 135 494 135Q568 135 617 170T703 273T793 469L821 541L813 598Q786 772 723 860T535 948Z" horiz-adv-x="1264" unicode="α"/>
			<glyph d="M596 1485Q792 1485 896 1393T1001 1135Q1001 886 779 794Q863 778 935 733T1052 606T1098 406Q1098 284 1049 188T897 36T641 -20Q546 -20 464 6T322 74H315Q322 -59 322 -129V-426H141V1026Q141 1261 254 1373T596 1485ZM598 1335Q456 1335 389 1262T322 1022V219Q379 179 463 153T633 127Q773 127 849 201T926 401Q926 539 843 620T590 702V846Q715 872 772 941T829 1133Q829 1223 771 1279T598 1335Z" horiz-adv-x="1178" unicode="β"/>
			<glyph d="M63 1098Q142 1098 192 1074T287 979T379 764Q409 673 440 553T510 269L535 166Q642 371 725 613T809 1083H999Q999 911 938 720T793 360T598 0Q576 -100 565 -212T555 -426H365Q365 -334 381 -223T424 -2Q391 135 336 327T231 670Q197 778 169 837T113 921T45 946Q26 946 14 942L0 1092Q11 1094 29 1096T63 1098Z" horiz-adv-x="1057" unicode="γ"/>
			<glyph d="M231 1485H965V1341H606Q588 1341 569 1342T534 1344Q514 1346 464 1348L768 1036Q860 942 918 867T1014 695T1053 475Q1053 328 996 216T831 42T571 -20Q420 -20 310 39T143 209T86 473Q86 682 213 817T551 1026L231 1366ZM643 930Q482 872 378 756T274 471Q274 373 306 297T405 177T571 133Q724 133 794 223T864 471Q864 619 797 731T643 930Z" horiz-adv-x="1141" unicode="δ"/>
			<glyph d="M471 1102Q721 1102 842 928L719 829Q673 888 610 918T471 948Q381 948 333 911T285 809Q285 736 330 697T452 646T643 633V498Q526 498 444 485T309 428T256 299Q256 221 311 178T457 135Q554 135 635 177T768 274L872 164Q803 84 695 32T444 -20Q319 -20 235 19T111 130T70 295Q70 370 105 428T200 522T334 563V565Q266 574 213 606T131 692T102 813Q102 896 146 962T274 1065T471 1102Z" horiz-adv-x="913" unicode="ε"/>
			<glyph d="M186 1485H829V1358Q593 1091 434 837T276 379Q276 299 310 254T396 189T551 141T714 89T819 14T864 -121Q864 -180 838 -241T780 -352L645 -295Q667 -263 683 -225T700 -154Q700 -111 671 -85T596 -43T457 -6Q344 20 268 52T139 157T86 354Q86 577 247 832T649 1348Q569 1343 528 1343H186Z" horiz-adv-x="903" unicode="ζ"/>
			<glyph d="M664 1102Q1006 1102 1006 680V-426H825V645Q825 798 774 870T602 942Q517 942 454 905T356 797T322 627V0H141V815Q141 886 123 913T68 940Q57 940 37 936L16 1073Q71 1092 131 1092Q220 1092 262 1047T313 903H317Q374 1000 455 1051T664 1102Z" unicode="η"/>
			<glyph d="M571 1483Q732 1483 834 1400T984 1152T1032 733Q1032 356 913 168T565 -20Q344 -20 225 168T106 733Q106 1107 222 1295T571 1483ZM573 1339Q486 1339 427 1292T335 1130T297 815H844Q839 1015 806 1130T716 1292T573 1339ZM297 664Q303 370 373 248T563 127Q650 127 710 175T804 342T844 664Z" unicode="θ"/>
			<glyph d="M137 1081H317V258Q317 187 335 160T391 133Q416 133 434 136T457 141L477 0Q438 -10 405 -15T334 -20Q228 -20 182 37T137 227Z" horiz-adv-x="518" unicode="ι"/>
			<glyph d="M137 1081H317V565L784 1081H1004L565 616L1026 0H815L451 494L317 377V0H137Z" horiz-adv-x="1024" unicode="κ"/>
			<glyph d="M260 1485Q336 1485 389 1453T486 1347T580 1141L848 414Q896 289 919 237T964 162T1018 139L1032 -12Q943 -12 887 18T788 122T694 338L608 578Q559 721 545 791Q532 751 504 683T469 598L459 575L201 0H14L463 965L426 1065Q383 1179 360 1228T304 1303T219 1329Q210 1329 193 1325T172 1319L131 1460Q160 1471 195 1478T260 1485Z" horiz-adv-x="1018" unicode="λ"/>
			<glyph d="M137 1081H319V438Q319 298 378 219T575 141Q655 141 710 182T794 297T823 465V1081H1004V266Q1004 189 1021 160T1077 131Q1103 131 1137 139L1157 0Q1082 -20 1020 -20Q926 -20 882 22T831 162H827Q775 67 714 23T555 -20Q473 -20 412 10T319 94H315Q319 53 319 -20V-426H137Z" horiz-adv-x="1163" unicode="μ"/>
			<glyph d="M61 1098Q138 1098 186 1075T279 981T373 766Q414 645 463 476T553 162Q675 365 765 611T856 1081H1044Q1044 905 978 712T822 353T616 0H436Q367 238 322 387T233 657Q194 778 166 839T111 923T47 946Q30 946 16 942L-2 1092Q10 1094 28 1096T61 1098Z" horiz-adv-x="1128" unicode="ν"/>
			<glyph d="M168 1485H803V1360Q618 1336 509 1278T401 1100Q401 1021 449 975T573 908T760 877V745Q543 719 409 628T276 379Q276 299 310 254T396 189T551 141Q658 112 719 88T827 13T874 -121Q874 -179 850 -235T791 -352L655 -293Q677 -261 694 -223T711 -152Q711 -111 683 -86T610 -46T481 -12L457 -6Q344 20 268 52T139 157T86 354Q86 461 134 555T285 718T547 811V813Q454 820 381 852T265 943T223 1081Q223 1193 299 1258T485 1351Q289 1343 242 1343H168Z" horiz-adv-x="918" unicode="ξ"/>
			<glyph d="M571 1102Q814 1102 933 952T1053 543Q1053 373 997 246T831 49T565 -20Q416 -20 308 49T143 246T86 543Q86 710 141 836T305 1032T571 1102ZM573 948Q432 948 353 845T274 543Q274 407 311 315T414 178T563 133Q706 133 785 234T864 543Q864 747 788 847T573 948Z" unicode="ο"/>
			<glyph d="M297 1081H1323V930H1090V266Q1090 195 1113 168T1184 141Q1198 141 1217 143T1249 150L1270 0Q1231 -10 1198 -15T1126 -20Q1010 -20 959 37T909 227V930H508V879Q508 632 480 396T410 0H221Q266 181 299 411T332 870V930H319Q245 930 188 922T100 901L80 1053Q105 1065 164 1073T297 1081Z" horiz-adv-x="1413" unicode="π"/>
			<glyph d="M588 1104Q726 1104 839 1034T1017 830T1083 516Q1083 360 1028 238T873 48T645 -20Q528 -20 450 16T311 123H307Q311 45 311 0V-426H131V582Q131 740 184 857T341 1039T588 1104ZM575 950Q311 950 311 578V281Q368 212 451 172T623 133Q754 133 822 237T891 524Q891 656 852 752T742 899T575 950Z" horiz-adv-x="1165" unicode="ρ"/>
			<glyph d="M582 1102Q667 1102 727 1085T824 1042T897 981L782 860Q738 897 690 918T582 940Q482 940 412 862T309 674T276 471Q276 380 306 324T404 229T600 150L633 139Q724 111 782 84T882 7T924 -121Q924 -179 900 -236T842 -352L702 -295Q724 -263 741 -225T758 -154Q758 -117 729 -90T650 -44T508 2Q358 44 270 92T134 230T86 475Q86 592 134 738T294 993T582 1102Z" horiz-adv-x="987" unicode="ς"/>
			<glyph d="M664 1081H1233V930H1067Q1048 930 966 934L920 936V932Q988 833 1029 727T1071 492Q1071 340 1016 224T851 44T582 -20Q339 -20 212 121T86 524Q86 710 159 835T362 1020T664 1081ZM670 930Q557 930 468 886T327 751T276 526Q276 332 351 232T573 133Q727 133 805 226T883 487Q883 728 760 930Z" horiz-adv-x="1264" unicode="σ"/>
			<glyph d="M213 1081H793V930H487V266Q487 195 510 168T582 141Q596 141 615 143T647 150L668 0Q629 -10 596 -15T524 -20Q408 -20 357 37T307 227V930H281Q200 930 137 922T51 901L29 1053Q52 1065 108 1073T213 1081Z" horiz-adv-x="809" unicode="τ"/>
			<glyph d="M133 1081H313V414Q313 276 373 207T565 139Q664 139 723 182T810 319T838 567Q838 696 802 846T723 1081H911Q955 988 988 848T1022 571Q1022 288 908 134T557 -20Q410 -20 317 26T178 168T133 420Z" horiz-adv-x="1120" unicode="υ"/>
			<glyph d="M498 1106L539 958Q274 898 274 541Q274 337 347 239T571 133V698Q571 894 650 999T885 1104Q996 1104 1076 1038T1199 850T1241 565Q1241 278 1108 137T741 -18V-426H571V-18Q337 -7 211 132T86 545Q86 686 130 804T267 1003T498 1106ZM887 950Q817 950 779 889T741 702V133Q902 140 977 246T1053 567Q1053 750 1009 850T887 950Z" horiz-adv-x="1327" unicode="φ"/>
			<glyph d="M63 1100Q159 1100 217 1080T322 1006T420 838L561 543L825 1081H1014L645 385L1051 -426H860L543 240L209 -426H20L461 401L291 743Q250 824 225 863T164 926T74 950Z" horiz-adv-x="1075" unicode="χ"/>
			<glyph d="M643 1339H813V139Q934 140 1005 167T1109 259T1143 436V1081H1323V438Q1323 275 1270 175T1105 29T813 -20V-426H643V-20Q464 -18 352 29T188 175T135 438V1081H315V436Q315 324 349 260T453 168T643 139Z" horiz-adv-x="1460" unicode="ψ"/>
			<glyph d="M188 1081H393Q334 970 303 821T272 512Q272 330 323 234T498 139Q601 139 659 221T717 449V700H883V449Q883 303 940 221T1100 139Q1224 139 1274 234T1325 512Q1325 672 1293 821T1202 1081H1411Q1461 959 1488 813T1516 516Q1516 347 1469 226T1332 43T1118 -20Q987 -20 910 42T801 227H797Q765 106 688 43T479 -20Q353 -20 264 43T130 226T84 516Q84 666 111 812T188 1081Z" horiz-adv-x="1599" unicode="ω"/>
			<glyph d="M137 1081H317V258Q317 187 335 160T391 133Q416 133 434 136T457 141L477 0Q438 -10 405 -15T334 -20Q228 -20 182 37T137 227ZM38 1444Q81 1444 111 1413T141 1339Q141 1296 111 1266T38 1237Q-5 1237 -34 1266T-64 1339Q-64 1383 -34 1413T38 1444ZM421 1444Q464 1444 493 1413T523 1339Q523 1296 493 1266T421 1237Q378 1237 348 1266T319 1339Q319 1383 348 1413T421 1444Z" horiz-adv-x="518" unicode="ϊ"/>
			<glyph d="M133 1081H313V414Q313 276 373 207T565 139Q664 139 723 182T810 319T838 567Q838 696 802 846T723 1081H911Q955 988 988 848T1022 571Q1022 288 908 134T557 -20Q410 -20 317 26T178 168T133 420ZM364 1444Q407 1444 437 1413T467 1339Q467 1296 437 1266T364 1237Q321 1237 291 1266T262 1339Q262 1383 291 1413T364 1444ZM747 1444Q790 1444 819 1413T849 1339Q849 1296 819 1266T747 1237Q704 1237 674 1266T645 1339Q645 1383 674 1413T747 1444Z" horiz-adv-x="1120" unicode="ϋ"/>
			<glyph d="M571 1102Q814 1102 933 952T1053 543Q1053 373 997 246T831 49T565 -20Q416 -20 308 49T143 246T86 543Q86 710 141 836T305 1032T571 1102ZM573 948Q432 948 353 845T274 543Q274 407 311 315T414 178T563 133Q706 133 785 234T864 543Q864 747 788 847T573 948ZM569 1542H776V1505L576 1219H500V1251Z" unicode="ό"/>
			<glyph d="M133 1081H313V414Q313 276 373 207T565 139Q664 139 723 182T810 319T838 567Q838 696 802 846T723 1081H911Q955 988 988 848T1022 571Q1022 288 908 134T557 -20Q410 -20 317 26T178 168T133 420ZM557 1542H764V1505L564 1219H488V1251Z" horiz-adv-x="1120" unicode="ύ"/>
			<glyph d="M188 1081H393Q334 970 303 821T272 512Q272 330 323 234T498 139Q601 139 659 221T717 449V700H883V449Q883 303 940 221T1100 139Q1224 139 1274 234T1325 512Q1325 672 1293 821T1202 1081H1411Q1461 959 1488 813T1516 516Q1516 347 1469 226T1332 43T1118 -20Q987 -20 910 42T801 227H797Q765 106 688 43T479 -20Q353 -20 264 43T130 226T84 516Q84 666 111 812T188 1081ZM801 1542H1008V1505L808 1219H732V1251Z" horiz-adv-x="1599" unicode="ώ"/>
			<glyph d="M168 1409H1073V1233H358V811H1014V637H358V176H1114V0H168ZM378 1776H585L802 1550V1530H647L378 1747Z" horiz-adv-x="1202" unicode="Ѐ"/>
			<glyph d="M168 1409H1073V1233H358V811H1014V637H358V176H1114V0H168ZM454 1741Q497 1741 528 1710T559 1634Q559 1590 528 1560T454 1530Q411 1530 380 1560T350 1634Q350 1679 380 1710T454 1741ZM837 1741Q880 1741 911 1710T942 1634Q942 1590 911 1560T837 1530Q794 1530 763 1560T733 1634Q733 1679 763 1710T837 1741Z" horiz-adv-x="1202" unicode="Ё"/>
			<glyph d="M45 1409H1122V1233H680V881Q789 913 899 937T1110 961Q1344 961 1459 840T1575 473Q1575 235 1488 107T1223 -20Q1122 -20 1048 11T913 102L1032 240Q1077 199 1119 176T1221 154Q1309 154 1346 229T1384 463Q1384 621 1308 703T1092 786Q990 786 872 763T680 715V0H489V1233H45Z" horiz-adv-x="1731" unicode="Ђ"/>
			<glyph d="M168 1409H1030V1233H358V0H168ZM690 1776H897V1747L628 1530H473V1550Z" horiz-adv-x="1087" unicode="Ѓ"/>
			<glyph d="M758 1430Q950 1430 1087 1347T1305 1130L1151 1032Q1104 1100 1053 1147T930 1223T760 1253Q626 1253 527 1195T370 1036T297 803H870V629H295Q310 494 371 387T534 219T768 158Q899 158 997 222T1174 403L1325 307Q1240 162 1097 71T758 -20Q546 -20 396 76T171 339T96 711Q96 922 174 1084T401 1338T758 1430Z" horiz-adv-x="1403" unicode="Є"/>
			<glyph d="M629 1430Q792 1430 908 1378T1108 1225L977 1104Q909 1180 825 1222T627 1264Q480 1264 406 1208T332 1063Q332 991 370 947T467 878T631 825L672 813L724 798Q867 757 952 718T1096 601T1155 389Q1155 269 1094 176T913 32T625 -20Q270 -20 98 215L233 336Q286 274 335 234T457 170T631 147Q777 147 872 205T967 379Q967 458 928 504T826 575T640 633Q622 637 586 647Q444 686 356 724T206 842T145 1053Q145 1181 210 1266T384 1390T629 1430Z" horiz-adv-x="1249" unicode="Ѕ"/>
			<glyph d="M188 1409H381V0H188Z" horiz-adv-x="569" unicode="І"/>
			<glyph d="M188 1409H381V0H188ZM94 1741Q137 1741 168 1710T199 1634Q199 1590 168 1560T94 1530Q51 1530 20 1560T-10 1634Q-10 1679 20 1710T94 1741ZM477 1741Q520 1741 551 1710T582 1634Q582 1590 551 1560T477 1530Q434 1530 403 1560T373 1634Q373 1679 403 1710T477 1741Z" horiz-adv-x="569" unicode="Ї"/>
			<glyph d="M682 1409H872V420Q872 287 821 187T676 34T451 -20Q363 -20 295 0T166 73T45 221L201 330Q261 235 318 195T453 156Q558 156 620 223T682 416Z" horiz-adv-x="1024" unicode="Ј"/>
			<glyph d="M410 1409H1180V813H1563Q1725 813 1836 763T2002 624T2058 414Q2058 296 2003 202T1839 54T1575 0H989V1229H573L524 881Q476 510 431 327T312 64T104 -16Q50 -16 18 -6L35 143Q49 139 74 139Q139 139 182 197T262 417T342 899ZM1180 641V172H1546Q1708 172 1788 233T1868 412Q1868 523 1784 582T1538 641Z" horiz-adv-x="2165" unicode="Љ"/>
			<glyph d="M168 1409H358V813H934V1409H1124V813H1466Q1629 813 1740 763T1906 624T1962 414Q1962 296 1907 202T1743 54T1479 0H934V633H358V0H168ZM1124 641V172H1450Q1612 172 1692 233T1772 412Q1772 523 1689 582T1444 641Z" horiz-adv-x="2068" unicode="Њ"/>
			<glyph d="M45 1409H1249V1233H721V901Q834 926 938 943T1141 961Q1367 961 1475 869T1583 596V0H1393V555Q1393 676 1330 731T1133 786Q968 786 721 735V0H530V1233H45Z" horiz-adv-x="1749" unicode="Ћ"/>
			<glyph d="M168 1409H358V801Q437 801 485 823T582 904T729 1104L934 1409H1135L852 999Q723 812 672 774L1182 0H958L532 682Q497 667 445 656T358 645V0H168ZM672 1776H879V1747L610 1530H455V1550Z" horiz-adv-x="1194" unicode="Ќ"/>
			<glyph d="M168 1409H340V485Q340 364 335 244L334 213L1081 1409H1305V0H1135V936Q1135 973 1138 1126L1139 1188L397 0H168ZM470 1776H677L894 1550V1530H739L470 1747Z" horiz-adv-x="1473" unicode="Ѝ"/>
			<glyph d="M55 1409H272L723 625L1106 1409H1311L737 317Q670 190 616 120T496 15T332 -20Q269 -20 202 -1T88 49L170 205Q212 178 252 161T336 145Q387 145 422 164T491 228T580 367L629 455ZM322 1853H476V1812Q476 1725 523 1679T674 1634Q774 1634 827 1680T881 1812V1853H1035V1812Q1035 1734 999 1670T883 1568T674 1530Q482 1530 402 1608T322 1812Z" horiz-adv-x="1300" unicode="Ў"/>
			<glyph d="M168 1409H358V176H1118V1409H1305V0H825V-408H645V0H168Z" horiz-adv-x="1473" unicode="Џ"/>
			<glyph d="M535 1409H760L1280 0H1085L952 381H336L203 0H4ZM645 1257Q636 1225 612 1158T561 1024L394 547H894L727 1026Q700 1096 676 1162T645 1257Z" horiz-adv-x="1284" unicode="А"/>
			<glyph d="M168 1409H1094V1233H358V817H741Q904 817 1015 767T1181 628T1237 416Q1237 297 1182 202T1018 54T754 0H168ZM358 645V172H725Q887 172 967 234T1047 414Q1047 525 963 585T719 645Z" horiz-adv-x="1343" unicode="Б"/>
			<glyph d="M168 1409H686Q1161 1409 1161 1063Q1161 940 1097 850T913 733Q1009 720 1077 674T1181 557T1217 397Q1217 260 1150 171T972 41T719 0H168ZM358 1235V811H680Q834 811 902 869T971 1036Q971 1140 899 1187T686 1235ZM358 641V174H709Q861 174 943 227T1026 412Q1026 529 939 585T694 641Z" horiz-adv-x="1325" unicode="В"/>
			<glyph d="M168 1409H1030V1233H358V0H168Z" horiz-adv-x="1087" unicode="Г"/>
			<glyph d="M451 1409H1174V176H1350V-408H1169V0H195V-408H14V176H160Q240 275 293 448T383 899ZM612 1229L563 881Q527 613 482 443T375 176H987V1229Z" horiz-adv-x="1386" unicode="Д"/>
			<glyph d="M168 1409H1073V1233H358V811H1014V637H358V176H1114V0H168Z" horiz-adv-x="1202" unicode="Е"/>
			<glyph d="M76 1409H274L479 1104Q578 961 627 903T723 823T850 801V1409H1040V801Q1119 801 1167 823T1264 904T1411 1104L1616 1409H1817L1534 999Q1407 815 1354 774L1864 0H1640L1214 682Q1177 668 1125 656T1040 645V0H850V645Q817 645 765 656T678 682L250 0H29L537 774Q488 811 358 999Z" horiz-adv-x="1890" unicode="Ж"/>
			<glyph d="M602 1430Q744 1430 848 1384T1009 1254T1065 1061Q1065 928 996 847T804 736Q890 723 958 682T1067 571T1108 406Q1108 280 1046 183T868 33T592 -20Q397 -20 274 43T68 231L221 340Q282 254 369 204T586 154Q740 154 826 219T913 403Q913 528 823 585T541 643H449V813H541Q710 813 792 869T874 1044Q874 1145 800 1199T594 1253Q388 1253 250 1094L111 1208Q195 1318 316 1374T602 1430Z" horiz-adv-x="1208" unicode="З"/>
			<glyph d="M168 1409H340V485Q340 364 335 244L334 213L1081 1409H1305V0H1135V936Q1135 973 1138 1126L1139 1188L397 0H168Z" horiz-adv-x="1473" unicode="И"/>
			<glyph d="M168 1409H340V485Q340 364 335 244L334 213L1081 1409H1305V0H1135V936Q1135 973 1138 1126L1139 1188L397 0H168ZM387 1853H541V1812Q541 1725 588 1679T739 1634Q839 1634 892 1680T946 1812V1853H1100V1812Q1100 1734 1064 1670T948 1568T739 1530Q547 1530 467 1608T387 1812Z" horiz-adv-x="1473" unicode="Й"/>
			<glyph d="M168 1409H358V801Q437 801 485 823T582 904T729 1104L934 1409H1135L852 999Q723 812 672 774L1182 0H958L532 682Q497 667 445 656T358 645V0H168Z" horiz-adv-x="1194" unicode="К"/>
			<glyph d="M410 1409H1178V0H991V1229H571L524 881Q474 509 429 326T311 64T104 -16Q50 -16 18 -6L35 143Q53 139 74 139Q139 139 182 197T262 417T342 899Z" horiz-adv-x="1343" unicode="Л"/>
			<glyph d="M168 1409H420L795 432Q811 388 831 324T856 238Q862 262 885 327T926 432L1292 1409H1538V0H1366V940Q1366 1108 1372 1208Q1369 1194 1340 1107T1286 961L924 0H788L420 961Q400 1006 369 1099T334 1208L335 1157Q338 986 338 940V0H168Z" horiz-adv-x="1706" unicode="М"/>
			<glyph d="M168 1409H358V823H1061V1409H1251V0H1061V643H358V0H168Z" horiz-adv-x="1419" unicode="Н"/>
			<glyph d="M756 1430Q955 1430 1104 1341T1333 1090T1413 711Q1413 493 1331 327T1099 70T754 -20Q550 -20 401 73T174 332T96 711Q96 929 176 1091T406 1342T756 1430ZM756 1253Q612 1253 507 1186T347 996T291 711Q291 549 348 423T510 226T754 156Q903 156 1007 226T1165 422T1219 711Q1219 873 1162 996T1000 1186T756 1253Z" horiz-adv-x="1509" unicode="О"/>
			<glyph d="M168 1409H1272V0H1079V1227H358V0H168Z" horiz-adv-x="1440" unicode="П"/>
			<glyph d="M168 1409H700Q863 1409 974 1356T1140 1207T1196 981Q1196 854 1141 754T977 596T711 539H358V0H168ZM358 1235V711H684Q846 711 926 779T1006 979Q1006 1105 922 1170T676 1235Z" horiz-adv-x="1305" unicode="Р"/>
			<glyph d="M760 1430Q952 1430 1089 1347T1307 1130L1153 1032Q1106 1100 1055 1147T932 1223T762 1253Q614 1253 508 1182T347 989T293 711Q293 557 350 431T516 231T770 158Q901 158 997 222T1174 403L1327 307Q1242 162 1099 71T760 -20Q548 -20 398 76T173 339T98 711Q98 922 176 1084T403 1338T760 1430Z" horiz-adv-x="1405" unicode="С"/>
			<glyph d="M45 1409H1122V1233H680V0H489V1233H45Z" horiz-adv-x="1167" unicode="Т"/>
			<glyph d="M55 1409H272L723 625L1106 1409H1311L737 317Q670 190 616 120T496 15T332 -20Q269 -20 202 -1T88 49L170 205Q212 178 252 161T336 145Q387 145 422 164T491 228T580 367L629 455Z" horiz-adv-x="1300" unicode="У"/>
			<glyph d="M725 1419H909V1237H981Q1157 1237 1277 1175T1458 1001T1518 735Q1518 592 1459 473T1282 285T993 215H909V-10H725V215H641Q471 215 352 285T175 473T117 735Q117 888 177 1001T357 1175T653 1237H725ZM674 1079Q491 1079 400 993T309 731Q309 561 399 467T670 373H725V1079ZM909 1079V373H967Q1146 373 1235 467T1325 731Q1325 907 1233 993T958 1079Z" horiz-adv-x="1634" unicode="Ф"/>
			<glyph d="M86 1409H305L649 869L983 1409H1200L757 739L1241 0H1024L647 604L262 0H45L546 731Z" horiz-adv-x="1286" unicode="Х"/>
			<glyph d="M168 1409H358V176H1116V1409H1303V176H1477V-408H1296V0H168Z" horiz-adv-x="1516" unicode="Ц"/>
			<glyph d="M160 1409H350V856Q350 735 414 680T614 625Q707 625 805 639T1008 674V1409H1198V0H1008V508Q896 483 797 467T600 451Q374 451 267 547T160 836Z" horiz-adv-x="1366" unicode="Ч"/>
			<glyph d="M168 1409H358V176H848V1409H1034V176H1524V1409H1708V0H168Z" horiz-adv-x="1878" unicode="Ш"/>
			<glyph d="M168 1409H358V176H825V1409H1012V176H1479V1409H1665V176H1839V-408H1659V0H168Z" horiz-adv-x="1921" unicode="Щ"/>
			<glyph d="M45 1409H696V813H1018Q1181 813 1293 763T1460 624T1516 414Q1516 296 1461 202T1296 54T1030 0H506V1233H45ZM696 641V172H1004Q1323 172 1323 412Q1323 523 1240 582T995 641Z" horiz-adv-x="1622" unicode="Ъ"/>
			<glyph d="M168 1409H358V813H741Q904 813 1015 763T1181 624T1237 414Q1237 296 1182 202T1018 54T754 0H168ZM1454 1409H1645V0H1454ZM358 641V172H725Q887 172 967 233T1047 412Q1047 523 964 582T719 641Z" horiz-adv-x="1812" unicode="Ы"/>
			<glyph d="M168 1409H358V813H741Q904 813 1015 763T1181 624T1237 414Q1237 296 1182 202T1018 54T754 0H168ZM358 639V172H725Q1047 172 1047 408Q1047 519 963 579T719 639Z" horiz-adv-x="1343" unicode="Ь"/>
			<glyph d="M645 1430Q852 1430 1001 1338T1229 1084T1307 711Q1307 505 1231 339T1006 76T645 -20Q447 -20 305 71T78 307L229 403Q308 286 406 222T635 158Q767 158 869 219T1032 387T1108 629H532V803H1106Q1091 935 1033 1036T876 1195T643 1253Q545 1253 473 1223T350 1147T252 1032L98 1130Q179 1265 316 1347T645 1430Z" horiz-adv-x="1403" unicode="Э"/>
			<glyph d="M1323 1430Q1521 1430 1667 1341T1891 1090T1970 711Q1970 492 1890 326T1663 70T1321 -20Q1127 -20 984 63T761 297T672 643H358V0H168V1409H358V823H676Q693 1010 776 1146T999 1356T1323 1430ZM1323 1253Q1180 1253 1076 1186T918 997T864 711Q864 548 919 422T1078 226T1321 156Q1469 156 1571 226T1724 422T1776 711Q1776 874 1721 996T1564 1186T1323 1253Z" horiz-adv-x="2068" unicode="Ю"/>
			<glyph d="M649 1409H1231V0H1038V565H682L315 0H96L496 586Q380 607 303 667T189 813T152 993Q152 1123 210 1216T379 1359T649 1409ZM668 1235Q513 1235 428 1173T344 991Q344 876 423 805T659 735H1038V1235Z" horiz-adv-x="1397" unicode="Я"/>
			<glyph d="M555 1102Q680 1102 769 1054T904 922T950 729V229Q950 101 958 0H784Q776 73 776 160H772Q711 71 631 25T424 -20Q259 -20 172 65T86 301Q86 482 221 560T557 643L772 647V711Q772 823 714 886T551 950Q465 950 395 914T242 788L129 905Q199 991 306 1046T555 1102ZM772 506L602 502Q453 498 362 453T272 299Q272 222 323 176T465 131Q561 131 630 169T736 270T772 403Z" horiz-adv-x="1094" unicode="а"/>
			<glyph d="M1036 1501V1341Q839 1317 698 1290Q536 1260 452 1216T327 1075T278 790Q327 896 425 961T655 1026Q872 1026 979 891T1087 504Q1087 338 1030 220T864 41T598 -20Q121 -20 121 637Q121 895 174 1057T343 1312T659 1442Q866 1480 1036 1501ZM616 874Q480 874 394 786T309 502Q309 312 387 222T598 133Q743 133 820 220T897 502Q897 696 825 785T616 874Z" horiz-adv-x="1174" unicode="б"/>
			<glyph d="M141 1081H563Q741 1081 853 1020T965 811Q965 713 908 654T762 573V565Q873 543 936 484T999 311Q999 209 947 139T803 34T588 0H141ZM322 928V633H539Q629 633 680 649T752 698T774 786Q774 861 723 894T553 928ZM322 487V150H557Q693 150 751 188T809 311Q809 375 782 413T699 469T547 487Z" horiz-adv-x="1087" unicode="в"/>
			<glyph d="M141 1081H686V930H322V0H141Z" horiz-adv-x="748" unicode="г"/>
			<glyph d="M371 1081H1014V152H1159V-408H997V0H182V-408H20V152H139Q203 257 255 428T354 932ZM528 930L520 870Q479 586 434 424T338 152H834V930Z" horiz-adv-x="1194" unicode="д"/>
			<glyph d="M557 1102Q720 1102 822 1025T969 831T1014 580Q1014 546 1010 494H276Q276 407 309 324T412 188T582 135Q645 135 696 152T789 198T881 270L979 141Q928 98 878 65T751 6T582 -20Q424 -20 312 50T143 248T86 545Q86 722 147 847T316 1037T557 1102ZM557 948Q490 948 428 916T325 817T279 645H829Q816 799 748 873T557 948Z" horiz-adv-x="1106" unicode="е"/>
			<glyph d="M16 1081H205L352 844Q417 742 454 696T522 634T596 618V1081H774V618Q817 618 847 634T915 696T1018 844L1165 1081H1354L1139 758Q1046 621 1010 592L1364 0H1163L885 498Q866 490 833 483T774 477V0H596V477Q570 477 537 483T485 498L207 0H6L360 592Q324 621 231 758Z" horiz-adv-x="1370" unicode="ж"/>
			<glyph d="M442 1102Q552 1102 635 1065T764 964T809 817Q809 745 773 692T680 608T561 571V569Q637 562 700 528T799 436T836 303Q836 209 791 136T656 21T434 -20Q308 -20 214 26T49 170L182 281Q236 203 298 166T438 129Q534 129 589 173T645 299Q645 406 559 450T334 494H309V643H334Q472 643 549 679T627 809Q627 874 576 913T436 952Q375 952 308 920T188 815L68 918Q201 1102 442 1102Z" horiz-adv-x="911" unicode="з"/>
			<glyph d="M141 1081H315V489Q315 430 314 355T311 223Q317 233 342 278L373 332L801 1081H1001V0H829V659Q829 809 834 862Q800 804 789 785L743 707L338 0H141Z" horiz-adv-x="1145" unicode="и"/>
			<glyph d="M141 1081H315V489Q315 430 314 355T311 223Q317 233 342 278L373 332L801 1081H1001V0H829V659Q829 809 834 862Q800 804 789 785L743 707L338 0H141ZM231 1513H385V1475Q385 1387 432 1341T583 1296Q683 1296 736 1343T790 1475V1513H944V1475Q944 1397 908 1333T792 1231T583 1192Q391 1192 311 1270T231 1475Z" horiz-adv-x="1145" unicode="й"/>
			<glyph d="M137 1081H317V618Q361 618 391 633T459 696T559 844L707 1081H897L682 758Q639 694 604 650T553 592L905 0H707L428 498Q409 490 376 483T317 477V0H137Z" horiz-adv-x="897" unicode="к"/>
			<glyph d="M336 1081H1053V0H872V930H498L483 825Q433 466 395 299T292 56T104 -20Q68 -20 10 -6L25 131Q39 126 50 124T80 123Q138 123 171 183T228 368T293 781L305 866Z" horiz-adv-x="1194" unicode="л"/>
			<glyph d="M141 1081H422L641 422Q689 278 711 166Q732 285 778 422L997 1081H1268V0H1094V725Q1094 852 1100 940L786 0H635L311 936Q315 868 315 725V0H141Z" horiz-adv-x="1409" unicode="м"/>
			<glyph d="M141 1081H322V635H809V1081H989V0H809V483H322V0H141Z" horiz-adv-x="1130" unicode="н"/>
			<glyph d="M571 1102Q814 1102 933 952T1053 543Q1053 373 997 246T831 49T565 -20Q416 -20 308 49T143 246T86 543Q86 710 141 836T305 1032T571 1102ZM573 948Q432 948 353 845T274 543Q274 407 311 315T414 178T563 133Q706 133 785 234T864 543Q864 747 788 847T573 948Z" unicode="о"/>
			<glyph d="M141 1081H967V0H786V930H322V0H141Z" horiz-adv-x="1110" unicode="п"/>
			<glyph d="M657 1102Q801 1102 896 1030T1037 833T1083 547Q1083 386 1036 258T891 55T647 -20Q542 -20 451 21T319 147H313Q314 143 315 96T317 -2V-426H137V860Q137 931 135 995T131 1081H305Q307 1073 311 1020T315 928H319Q424 1102 657 1102ZM621 942Q491 942 404 848T317 528Q317 327 399 230T618 133Q757 133 826 243T895 543Q895 726 826 834T621 942Z" horiz-adv-x="1169" unicode="р"/>
			<glyph d="M578 1102Q707 1102 795 1058T961 926L834 811Q774 881 717 912T575 944Q429 944 351 837T274 547Q274 369 344 255T573 141Q632 141 680 157T771 200T872 272L969 139Q900 75 803 27T578 -20Q408 -20 297 57T136 262T86 543Q86 735 155 860T336 1044T578 1102Z" horiz-adv-x="1004" unicode="с"/>
			<glyph d="M35 1081H903V930H559V0H379V930H35Z" horiz-adv-x="938" unicode="т"/>
			<glyph d="M4 1081H197L426 483Q447 427 482 325T522 203Q526 217 561 309Q604 423 618 465L829 1081H1020L604 0Q549 -142 494 -233T365 -375T190 -426Q153 -426 125 -423T68 -414L80 -268Q116 -274 152 -274Q321 -274 418 -39L434 4Z" horiz-adv-x="1024" unicode="у"/>
			<glyph d="M758 1485H928V1065Q928 1036 927 996T924 928H930Q971 1018 1048 1060T1227 1102Q1421 1102 1509 951T1597 547Q1597 293 1508 136T1227 -20Q1131 -20 1048 22T928 147H922Q928 86 928 -2V-426H758V-2Q758 106 762 154H758Q715 65 636 22T457 -20Q272 -20 179 124T86 537Q86 808 182 955T461 1102Q558 1102 636 1060T758 934H762L760 994L758 1065ZM514 948Q394 948 334 848T274 543Q274 341 330 240T508 139Q620 139 689 233T758 530Q758 746 696 847T514 948ZM1176 942Q1069 942 998 852T928 528Q928 327 992 230T1174 133Q1300 133 1354 241T1409 543Q1409 731 1355 836T1176 942Z" horiz-adv-x="1686" unicode="ф"/>
			<glyph d="M41 1081H244L510 666L774 1081H979L614 557L1001 0H797L510 440L223 0H23L406 555Z" horiz-adv-x="1024" unicode="х"/>
			<glyph d="M141 1081H322V152H799V1081H979V152H1126V-408H963V0H141Z" horiz-adv-x="1174" unicode="ц"/>
			<glyph d="M123 1081H303V700Q303 621 342 574T469 528Q533 528 597 540T743 575V1081H924V0H743V440L713 431Q615 404 544 389T393 375Q264 375 193 453T123 672Z" horiz-adv-x="1067" unicode="ч"/>
			<glyph d="M141 1081H322V152H731V1081H911V152H1321V1081H1501V0H141Z" horiz-adv-x="1642" unicode="ш"/>
			<glyph d="M141 1081H322V152H727V1081H907V152H1311V1081H1491V152H1638V-408H1475V0H141Z" horiz-adv-x="1686" unicode="щ"/>
			<glyph d="M45 1081H553V625H780Q987 625 1091 549T1196 317Q1196 167 1090 83T782 0H373V930H45ZM553 479V147H756Q890 147 948 189T1006 317Q1006 401 947 440T756 479Z" horiz-adv-x="1280" unicode="ъ"/>
			<glyph d="M141 1081H322V625H551Q756 625 860 549T965 317Q965 167 859 83T551 0H141ZM1151 1081H1329V0H1151ZM322 479V147H524Q658 147 716 189T774 317Q774 401 715 440T524 479Z" horiz-adv-x="1473" unicode="ы"/>
			<glyph d="M141 1081H322V625H551Q756 625 860 549T965 317Q965 167 859 83T551 0H141ZM322 479V147H524Q658 147 716 189T774 317Q774 401 715 440T524 479Z" horiz-adv-x="1067" unicode="ь"/>
			<glyph d="M438 1102Q568 1102 676 1044T851 861T918 543Q918 389 867 262T706 57T426 -20Q302 -20 211 21T35 139L137 274Q193 227 232 200T320 157T430 141Q571 141 641 231T725 471H315V623H725Q711 774 638 859T436 944Q378 944 333 929T252 885T170 809L43 926Q131 1016 220 1059T438 1102Z" horiz-adv-x="1004" unicode="э"/>
			<glyph d="M997 1102Q1450 1102 1450 543Q1450 272 1332 126T991 -20Q856 -20 758 39T605 211T545 483H322V0H141V1081H322V635H545Q562 856 677 979T997 1102ZM1001 948Q870 948 800 851T731 543Q731 330 801 231T991 133Q1122 133 1192 229T1262 543Q1262 757 1195 852T1001 948Z" horiz-adv-x="1536" unicode="ю"/>
			<glyph d="M535 1081H946V0H766V438H535L219 0H16L360 451Q232 481 172 558T113 760Q113 916 221 998T535 1081ZM553 934Q425 934 364 890T303 758Q303 669 357 626T535 584H766V934Z" horiz-adv-x="1090" unicode="я"/>
			<glyph d="M557 1102Q720 1102 822 1025T969 831T1014 580Q1014 546 1010 494H276Q276 407 309 324T412 188T582 135Q645 135 696 152T789 198T881 270L979 141Q928 98 878 65T751 6T582 -20Q424 -20 312 50T143 248T86 545Q86 722 147 847T316 1037T557 1102ZM557 948Q490 948 428 916T325 817T279 645H829Q816 799 748 873T557 948ZM286 1507H493L710 1221V1200H575L286 1479Z" horiz-adv-x="1106" unicode="ѐ"/>
			<glyph d="M557 1102Q720 1102 822 1025T969 831T1014 580Q1014 546 1010 494H276Q276 407 309 324T412 188T582 135Q645 135 696 152T789 198T881 270L979 141Q928 98 878 65T751 6T582 -20Q424 -20 312 50T143 248T86 545Q86 722 147 847T316 1037T557 1102ZM557 948Q490 948 428 916T325 817T279 645H829Q816 799 748 873T557 948ZM376 1444Q419 1444 449 1413T479 1339Q479 1296 449 1266T376 1237Q333 1237 303 1266T274 1339Q274 1383 303 1413T376 1444ZM759 1444Q802 1444 831 1413T861 1339Q861 1296 831 1266T759 1237Q716 1237 686 1266T657 1339Q657 1383 686 1413T759 1444Z" horiz-adv-x="1106" unicode="ё"/>
			<glyph d="M141 1485H322V1337H623V1206H322V1098Q322 1041 318 980T313 897H317Q377 1006 459 1054T664 1102Q853 1102 929 993T1006 721V-133Q1006 -271 952 -348T766 -426Q685 -426 639 -416L651 -256Q680 -262 709 -262Q756 -262 781 -246T815 -196T825 -106V686Q825 802 778 872T602 942Q518 942 454 905T356 799T322 639V0H141V1206H10V1337H141Z" unicode="ђ"/>
			<glyph d="M141 1081H686V930H322V0H141ZM481 1507H688V1479L399 1200H264V1221Z" horiz-adv-x="748" unicode="ѓ"/>
			<glyph d="M578 1102Q707 1102 795 1058T961 926L834 811Q774 881 717 912T575 944Q445 944 369 858T279 623H688V471H279Q292 322 362 231T573 141Q632 141 680 157T771 200T872 272L969 139Q900 75 803 27T578 -20Q408 -20 297 57T136 262T86 543Q86 735 155 860T336 1044T578 1102Z" horiz-adv-x="1004" unicode="є"/>
			<glyph d="M471 1100Q577 1100 676 1063T844 961L741 834Q685 887 612 917T471 948Q375 948 319 913T264 809Q264 760 292 730T367 683T504 641L539 631Q643 602 712 570T831 472T881 299Q881 199 829 127T685 17T473 -20Q346 -20 233 21T41 147L147 276Q220 202 300 165T473 129Q573 129 639 165T705 285Q705 341 678 374T607 427T477 473L432 487Q329 516 258 549T138 643T90 801Q90 896 137 963T271 1065T471 1100Z" horiz-adv-x="946" unicode="ѕ"/>
			<glyph d="M227 1524Q278 1524 312 1489T346 1403Q346 1352 312 1317T227 1282Q175 1282 140 1316T106 1403Q106 1455 140 1489T227 1524ZM137 1081H317V0H137Z" horiz-adv-x="455" unicode="і"/>
			<glyph d="M137 1081H317V0H137ZM92 1444Q135 1444 165 1413T195 1339Q195 1296 165 1266T92 1237Q49 1237 19 1266T-10 1339Q-10 1383 19 1413T92 1444ZM475 1444Q518 1444 547 1413T577 1339Q577 1296 547 1266T475 1237Q432 1237 402 1266T373 1339Q373 1383 402 1413T475 1444Z" horiz-adv-x="569" unicode="ї"/>
			<glyph d="M227 1524Q278 1524 312 1489T346 1403Q346 1352 312 1317T227 1282Q175 1282 140 1316T106 1403Q106 1455 140 1489T227 1524ZM137 1081H317V-133Q317 -271 264 -348T78 -426Q-3 -426 -49 -416L-37 -256Q-8 -262 20 -262Q67 -262 92 -246T127 -196T137 -106Z" horiz-adv-x="455" unicode="ј"/>
			<glyph d="M336 1081H1049V625H1317Q1522 625 1626 549T1731 317Q1731 167 1625 83T1317 0H866V930H498L481 815Q430 457 392 294T290 55T104 -20Q68 -20 10 -6L25 131Q53 123 80 123Q138 123 171 184T229 371T295 794L307 881ZM1049 479V147H1290Q1424 147 1482 189T1540 317Q1540 401 1481 440T1290 479Z" horiz-adv-x="1815" unicode="љ"/>
			<glyph d="M141 1081H322V625H756V1081H938V625H1165Q1372 625 1475 549T1579 317Q1579 167 1473 83T1165 0H756V473H322V0H141ZM938 479V147H1139Q1273 147 1331 189T1389 317Q1389 401 1330 440T1141 479Z" horiz-adv-x="1665" unicode="њ"/>
			<glyph d="M141 1485H322V1337H623V1206H322V1098Q322 1041 318 980T313 897H317Q377 1006 459 1054T664 1102Q853 1102 929 993T1006 721V0H825V686Q825 802 778 872T602 942Q518 942 454 905T356 799T322 639V0H141V1206H10V1337H141Z" unicode="ћ"/>
			<glyph d="M137 1081H317V618Q361 618 391 633T459 696T559 844L707 1081H897L682 758Q639 694 604 650T553 592L905 0H707L428 498Q409 490 376 483T317 477V0H137ZM535 1507H742V1479L453 1200H318V1221Z" horiz-adv-x="897" unicode="ќ"/>
			<glyph d="M141 1081H315V489Q315 430 314 355T311 223Q317 233 342 278L373 332L801 1081H1001V0H829V659Q829 809 834 862Q800 804 789 785L743 707L338 0H141ZM288 1507H495L712 1221V1200H577L288 1479Z" horiz-adv-x="1145" unicode="ѝ"/>
			<glyph d="M4 1081H197L426 483Q447 427 482 325T522 203Q526 217 561 309Q604 423 618 465L829 1081H1020L604 0Q549 -142 494 -233T365 -375T190 -426Q153 -426 125 -423T68 -414L80 -268Q116 -274 152 -274Q321 -274 418 -39L434 4ZM172 1513H326V1475Q326 1387 373 1341T524 1296Q624 1296 677 1343T731 1475V1513H885V1475Q885 1397 849 1333T733 1231T524 1192Q332 1192 252 1270T172 1475Z" horiz-adv-x="1024" unicode="ў"/>
			<glyph d="M141 1081H322V152H809V1081H989V0H647V-408H483V0H141Z" horiz-adv-x="1130" unicode="џ"/>
			<glyph d="M774 1821H954V1233H358V0H168V1409H774Z" horiz-adv-x="1001" unicode="Ґ"/>
			<glyph d="M594 1444H758V930H322V0H141V1081H594Z" horiz-adv-x="821" unicode="ґ"/>
			<glyph d="M8 1409H209L426 514Q476 311 506 182Q537 328 590 532L807 1409H1008L1227 532Q1292 257 1311 182Q1318 214 1357 374L1391 514L1604 1409H1802L1438 0H1200L973 895Q958 953 923 1111L907 1186Q867 1000 840 895L610 0H375ZM638 1776H845L1062 1550V1530H907L638 1747Z" horiz-adv-x="1810" unicode="Ẁ"/>
			<glyph d="M-2 1081H176L360 346Q370 308 382 247T401 154L420 232L446 340L641 1081H840L1028 340L1038 296Q1066 184 1071 154Q1073 163 1076 177T1084 211Q1096 271 1114 346L1307 1081H1485L1174 0H965L793 698Q781 744 763 820T739 930Q737 915 719 833T686 694L508 0H299ZM456 1507H663L880 1221V1200H745L456 1479Z" horiz-adv-x="1479" unicode="ẁ"/>
			<glyph d="M8 1409H209L426 514Q476 311 506 182Q537 328 590 532L807 1409H1008L1227 532Q1292 257 1311 182Q1318 214 1357 374L1391 514L1604 1409H1802L1438 0H1200L973 895Q958 953 923 1111L907 1186Q867 1000 840 895L610 0H375ZM979 1776H1186V1747L917 1530H762V1550Z" horiz-adv-x="1810" unicode="Ẃ"/>
			<glyph d="M-2 1081H176L360 346Q370 308 382 247T401 154L420 232L446 340L641 1081H840L1028 340L1038 296Q1066 184 1071 154Q1073 163 1076 177T1084 211Q1096 271 1114 346L1307 1081H1485L1174 0H965L793 698Q781 744 763 820T739 930Q737 915 719 833T686 694L508 0H299ZM825 1507H1032V1479L743 1200H608V1221Z" horiz-adv-x="1479" unicode="ẃ"/>
			<glyph d="M8 1409H209L426 514Q476 311 506 182Q537 328 590 532L807 1409H1008L1227 532Q1292 257 1311 182Q1318 214 1357 374L1391 514L1604 1409H1802L1438 0H1200L973 895Q958 953 923 1111L907 1186Q867 1000 840 895L610 0H375ZM714 1741Q757 1741 788 1710T819 1634Q819 1590 788 1560T714 1530Q671 1530 640 1560T610 1634Q610 1679 640 1710T714 1741ZM1097 1741Q1140 1741 1171 1710T1202 1634Q1202 1590 1171 1560T1097 1530Q1054 1530 1023 1560T993 1634Q993 1679 1023 1710T1097 1741Z" horiz-adv-x="1810" unicode="Ẅ"/>
			<glyph d="M-2 1081H176L360 346Q370 308 382 247T401 154L420 232L446 340L641 1081H840L1028 340L1038 296Q1066 184 1071 154Q1073 163 1076 177T1084 211Q1096 271 1114 346L1307 1081H1485L1174 0H965L793 698Q781 744 763 820T739 930Q737 915 719 833T686 694L508 0H299ZM546 1444Q589 1444 619 1413T649 1339Q649 1296 619 1266T546 1237Q503 1237 473 1266T444 1339Q444 1383 473 1413T546 1444ZM929 1444Q972 1444 1001 1413T1031 1339Q1031 1296 1001 1266T929 1237Q886 1237 856 1266T827 1339Q827 1383 856 1413T929 1444Z" horiz-adv-x="1479" unicode="ẅ"/>
			<glyph d="M721 1430Q891 1430 1023 1368T1257 1161L925 806Q1125 791 1236 685T1348 399Q1348 263 1283 168T1108 27T864 -20Q725 -20 578 14L606 176Q682 157 739 146T854 135Q1005 135 1080 203T1155 399Q1155 501 1113 558T990 640T776 664H709V803L1020 1156Q973 1203 893 1235T719 1268Q577 1268 497 1215T388 1067T358 825V0H168V809Q168 1117 302 1273T721 1430Z" horiz-adv-x="1440" unicode="ẞ"/>
			<glyph d="M45 1409H256L643 696L1028 1409H1239L737 539V0H547V539ZM376 1776H583L800 1550V1530H645L376 1747Z" horiz-adv-x="1284" unicode="Ỳ"/>
			<glyph d="M4 1081H197L426 483Q447 427 482 325T522 203Q526 217 561 309Q604 423 618 465L829 1081H1020L604 0Q549 -142 494 -233T365 -375T190 -426Q153 -426 125 -423T68 -414L80 -268Q116 -274 152 -274Q321 -274 418 -39L434 4ZM229 1507H436L653 1221V1200H518L229 1479Z" horiz-adv-x="1024" unicode="ỳ"/>
			<glyph d="M90 625H592V465H90Z" horiz-adv-x="682" unicode="‐"/>
			<glyph d="M0 588H1139V451H0Z" unicode="–"/>
			<glyph d="M0 588H2048V451H0Z" horiz-adv-x="2048" unicode="—"/>
			<glyph d="M0 588H2048V451H0Z" horiz-adv-x="2048" unicode="―"/>
			<glyph d="M-31 -33H1161V-164H-31ZM-31 -295H1161V-426H-31Z" horiz-adv-x="1130" unicode="‗"/>
			<glyph d="M260 1436L342 1378Q302 1322 275 1270T240 1163Q282 1154 307 1121T332 1040Q332 989 302 956T225 924Q172 924 141 963T111 1077Q111 1177 151 1261T260 1436Z" horiz-adv-x="455" unicode="‘"/>
			<glyph d="M229 1436Q283 1436 313 1396T344 1282Q344 1182 303 1098T195 924L113 981Q153 1037 180 1088T215 1196Q173 1205 148 1237T123 1319Q123 1370 152 1403T229 1436Z" horiz-adv-x="455" unicode="’"/>
			<glyph d="M225 227Q280 227 311 188T342 74Q342 -26 301 -110T193 -285L111 -227Q151 -171 178 -119T213 -12Q171 -3 146 30T121 113Q121 163 150 195T225 227Z" horiz-adv-x="455" unicode="‚"/>
			<glyph d="M227 1436Q275 1436 304 1403T334 1319Q334 1270 309 1237T242 1196Q250 1140 277 1088T344 981L262 924Q194 1015 153 1098T113 1282Q113 1357 143 1396T227 1436Z" horiz-adv-x="455" unicode="‛"/>
			<glyph d="M213 1436L295 1378Q255 1322 228 1270T195 1163Q237 1154 262 1121T287 1040Q287 989 258 956T182 924Q128 924 97 963T66 1077Q66 1178 106 1262T213 1436ZM530 1436L612 1378Q572 1322 545 1270T512 1163Q553 1154 578 1121T604 1040Q604 989 574 956T498 924Q444 924 413 963T383 1077Q383 1177 422 1261T530 1436Z" horiz-adv-x="682" unicode="“"/>
			<glyph d="M178 1436Q234 1436 264 1397T295 1282Q295 1182 254 1097T147 924L66 981Q107 1040 133 1090T166 1196Q125 1205 99 1238T74 1319Q74 1369 104 1402T178 1436ZM494 1436Q551 1436 581 1397T612 1282Q612 1182 572 1097T465 924L383 981Q423 1037 449 1088T483 1196Q441 1205 416 1237T391 1319Q391 1369 420 1402T494 1436Z" horiz-adv-x="682" unicode="”"/>
			<glyph d="M178 227Q233 227 263 188T293 74Q293 -27 252 -111T145 -285L63 -227Q104 -169 130 -118T164 -12Q123 -3 97 30T72 111Q72 161 102 194T178 227ZM494 227Q550 227 580 188T610 74Q610 -26 570 -111T463 -285L381 -227Q421 -171 447 -119T481 -12Q439 -3 414 29T389 111Q389 162 418 194T494 227Z" horiz-adv-x="682" unicode="„"/>
			<glyph d="M483 1485H653V1108H975L995 961H653V-41L612 -178H524L483 -41V961H141L162 1108H483Z" unicode="†"/>
			<glyph d="M483 1485H653V1108H975L995 961H653V788L612 651L653 514V342H995L975 195H653V-182H483V195H162L141 342H483V514L524 651L483 788V961H141L162 1108H483Z" unicode="‡"/>
			<glyph d="M354 956Q431 956 496 919T599 820T637 682Q637 606 599 541T496 439T354 401Q281 401 218 439T119 541T82 682Q82 757 119 819T218 919T354 956Z" horiz-adv-x="717" unicode="•"/>
			<glyph d="M1516 236Q1569 236 1604 201T1639 113Q1639 58 1604 23T1516 -12Q1461 -12 1426 23T1391 113Q1391 167 1426 201T1516 236ZM901 236Q954 236 989 201T1024 113Q1024 58 989 23T901 -12Q846 -12 811 23T776 113Q776 167 811 201T901 236ZM287 236Q340 236 375 201T410 113Q410 58 375 23T287 -12Q232 -12 197 23T162 113Q162 167 197 201T287 236Z" horiz-adv-x="1798" unicode="…"/>
			<glyph d="M393 1421Q534 1421 620 1314T707 975Q707 823 665 721T552 572T389 524Q298 524 227 572T115 721T74 975Q74 1209 160 1315T393 1421ZM1294 1409H1450L526 0H373ZM393 1292Q306 1292 262 1215T219 975Q219 815 263 736T391 657Q470 657 514 736T559 975Q559 1141 517 1216T393 1292ZM1432 885Q1576 885 1662 777T1749 434Q1749 283 1706 183T1591 35T1427 -12Q1336 -12 1265 35T1153 182T1112 434Q1112 671 1198 778T1432 885ZM2148 885Q2292 885 2379 777T2466 434Q2466 283 2423 183T2308 35T2144 -12Q2053 -12 1982 35T1870 182T1829 434Q1829 671 1915 778T2148 885ZM1432 754Q1347 754 1303 676T1260 434Q1260 276 1304 197T1430 119Q1511 119 1555 197T1599 434Q1599 600 1556 677T1432 754ZM2148 754Q2063 754 2019 676T1976 434Q1976 276 2020 197T2146 119Q2228 119 2272 197T2316 434Q2316 601 2273 677T2148 754Z" horiz-adv-x="2537" unicode="‰"/>
			<glyph d="M150 1409H344L186 891H86Z" horiz-adv-x="385" unicode="′"/>
			<glyph d="M150 1409H344L186 891H86ZM492 1409H686L528 891H428Z" horiz-adv-x="725" unicode="″"/>
			<glyph d="M424 940H592V909L256 537L594 170V141H424L88 506V569Z" horiz-adv-x="682" unicode="‹"/>
			<glyph d="M90 940H256L594 569V506L256 141H88V170L426 537L90 909Z" horiz-adv-x="682" unicode="›"/>
			<glyph d="M186 1409H383L358 397H211ZM285 236Q338 236 373 201T408 113Q408 58 373 23T285 -12Q230 -12 195 23T160 113Q160 167 195 201T285 236ZM663 1409H860L835 397H688ZM762 236Q815 236 850 201T885 113Q885 58 850 23T762 -12Q707 -12 672 23T637 113Q637 167 672 201T762 236Z" horiz-adv-x="1047" unicode="‼"/>
			<glyph d="M565 1430Q701 1430 805 1381T966 1242T1024 1032Q1024 935 990 863T906 743T780 639Q719 591 687 560T632 483T608 377H434L410 1081H606L586 672Q597 683 654 735L680 758Q741 809 770 839T821 915T842 1024Q842 1100 805 1156T705 1241T567 1270Q448 1270 370 1214T231 1053L84 1141Q149 1274 270 1352T565 1430ZM524 236Q578 236 612 201T647 113Q647 58 612 23T524 -12Q469 -12 434 23T399 113Q399 166 434 201T524 236Z" horiz-adv-x="1100" unicode="‽"/>
			<glyph d="M-16 1546H1149V1452H-16Z" horiz-adv-x="1130" unicode="‾"/>
			<glyph d="M526 1409H672L-207 0H-354Z" horiz-adv-x="342" unicode="⁄"/>
			<glyph d="M492 1423Q612 1423 671 1353T731 1137V645H582V1096Q582 1173 567 1217T520 1281T436 1300Q388 1300 347 1273T281 1196T256 1075V645H106V1247L105 1349Q104 1373 104 1409H244Q248 1351 248 1280H250Q287 1348 347 1385T492 1423Z" horiz-adv-x="842" unicode="ⁿ"/>
			<glyph d="M178 1409H1069V1253H358V778H1047V621H358V408H762V279H358V0H178V279H4V408H178Z" unicode="₣"/>
			<glyph d="M645 1430Q759 1430 849 1392T1016 1270L889 1147Q833 1206 778 1234T649 1262Q536 1262 480 1208T424 1042V907H831V778H424V641H831V512H424V500Q424 384 385 289T276 154H737Q819 154 872 196T940 330L1104 311Q1087 157 996 78T768 0H70V154Q158 200 201 280T244 481V512H57V641H244V778H57V907H244V1034Q244 1223 344 1326T645 1430Z" unicode="₤"/>
			<glyph d="M168 1409H598Q761 1409 872 1356T1038 1207T1094 981Q1094 854 1039 754T874 596T608 539H358V0H168ZM1481 1323V1081H1698V930H1481V268Q1481 201 1506 174T1591 147Q1612 147 1634 150T1680 158L1700 162L1716 8Q1669 -4 1628 -10T1536 -16Q1300 -16 1300 229V930H1171V1081H1305L1313 1305ZM358 1235V711H582Q744 711 823 779T903 979Q903 1105 819 1170T573 1235ZM2202 1100Q2308 1100 2406 1063T2574 961L2472 834Q2415 887 2343 917T2202 948Q2106 948 2050 913T1995 809Q1995 760 2023 730T2098 683T2235 640L2269 631Q2373 602 2442 570T2561 472T2611 299Q2611 199 2559 127T2416 17T2204 -20Q2077 -20 1963 21T1772 147L1878 276Q1951 202 2031 165T2204 129Q2303 129 2369 166T2435 285Q2435 347 2403 383T2320 438T2163 487Q2060 516 1989 549T1869 643T1821 801Q1821 896 1868 963T2001 1065T2202 1100Z" horiz-adv-x="2677" unicode="₧"/>
			<glyph d="M684 1430Q819 1430 916 1378T1075 1235L932 1141Q887 1206 826 1240T682 1274Q530 1274 458 1182T366 922H811V795H357Q356 767 356 709Q356 656 357 631H811V504H367Q390 325 466 230T690 135Q860 135 942 303L1085 227Q1036 110 936 45T686 -20Q459 -20 337 118T184 504H49V631H174Q172 683 172 709Q172 739 174 795H49V922H184Q216 1170 336 1300T684 1430Z" unicode="€"/>
			<glyph d="M63 1409H942V1255H656Q746 1185 769 1069H942V915H770Q750 792 667 702T440 586L842 0H621L254 565H63V715H276Q409 715 486 769T585 915H63V1069H585Q561 1162 480 1208T268 1255H63Z" horiz-adv-x="983" unicode="₹"/>
			<glyph d="M168 1409H358V991L616 1139V991L358 842V684L616 831V684L358 535V154H508Q636 154 704 214T793 412L956 393Q935 195 829 97T539 0H168V426L20 340V487L168 573V733L20 647V795L168 881Z" horiz-adv-x="995" unicode="₺"/>
			<glyph d="M573 1409H752V1219Q889 1202 994 1136T1160 953T1221 674V0H1034V664Q1034 838 958 934T752 1056V205H573V1059Q442 1038 367 944T293 676V0H106V692Q106 853 167 967T333 1144T573 1221Z" horiz-adv-x="1327" unicode="₼"/>
			<glyph d="M209 1409H659Q809 1409 911 1358T1063 1216T1114 1001Q1114 881 1064 785T914 635T670 580H399V418H725V258H399V0H209V258H39V418H209V580H35V741H209ZM399 1245V741H643Q784 741 854 807T924 999Q924 1119 850 1182T635 1245Z" horiz-adv-x="1196" unicode="₽"/>
			<glyph d="M418 1419Q528 1419 597 1371T711 1243L590 1176Q565 1224 523 1255T422 1286Q219 1286 219 995Q219 861 273 779T424 698Q479 698 521 726T608 821L717 739Q664 652 592 607T420 563Q307 563 229 618T113 771T74 993Q74 1142 122 1237T248 1376T418 1419ZM1290 1409H1448L522 0H369ZM1423 844Q1577 844 1669 742T1761 414Q1761 270 1715 174T1593 33T1419 -12Q1321 -12 1246 33T1128 173T1085 414Q1085 641 1175 742T1423 844ZM1423 713Q1328 713 1279 641T1231 414Q1231 266 1280 192T1421 119Q1512 119 1562 192T1612 414Q1612 570 1564 641T1423 713Z" horiz-adv-x="1833" unicode="℅"/>
			<glyph d="M406 1430Q508 1430 562 1350T616 1128Q616 998 578 883T473 680T317 543V299Q317 190 350 134T432 78Q536 78 569 291H639Q617 135 556 57T389 -20Q277 -20 214 61T152 295V469Q100 441 18 412V483Q92 512 152 543V1130Q152 1263 211 1346T406 1430ZM418 1354Q360 1354 338 1294T317 1128V623Q415 688 469 822T524 1122Q524 1228 496 1291T418 1354Z" horiz-adv-x="662" unicode="ℓ"/>
			<glyph d="M168 1409H383L1100 211Q1099 237 1096 324T1094 485V1409H1260V0H1034L328 1190Q329 1163 330 1089T332 936V0H168ZM1753 1081Q1871 1081 1948 1029T2062 890T2099 692Q2099 579 2059 490T1941 351T1749 301Q1640 301 1562 352T1443 491T1403 692Q1403 800 1442 888T1561 1028T1753 1081ZM1755 956Q1660 956 1607 887T1554 692Q1554 562 1606 494T1747 426Q1846 426 1898 493T1950 692Q1950 820 1900 888T1755 956ZM1442 145H2062V0H1442Z" horiz-adv-x="2202" unicode="№"/>
			<glyph d="M754 1430Q950 1430 1116 1332T1379 1069T1477 707Q1477 510 1379 344T1116 81T754 -16Q558 -16 392 81T128 344T31 707Q31 903 128 1069T391 1332T754 1430ZM754 1335Q584 1335 440 1250T211 1021T127 707Q127 535 211 391T440 162T754 78Q925 78 1070 162T1299 391T1384 707Q1384 877 1299 1021T1069 1250T754 1335ZM494 1120H799Q939 1120 1015 1051T1092 862Q1092 720 1012 652T799 584H621V289H494ZM621 1022V680H801Q879 680 922 728T965 860Q965 939 918 980T791 1022Z" horiz-adv-x="1509" unicode="℗"/>
			<glyph d="M164 1409H772V1298H532V655H397V1298H164ZM897 1409H1087L1294 907Q1301 889 1309 864T1323 821H1325L1346 877L1358 909L1567 1409H1751V655H1626V1169Q1626 1182 1628 1216Q1630 1248 1630 1262L1376 655H1268L1020 1262Q1022 1244 1022 1235Q1026 1195 1026 1180V655H897Z" horiz-adv-x="1982" unicode="™"/>
			<glyph d="M766 1430Q965 1430 1111 1354T1336 1137T1415 801Q1415 599 1303 435T991 166L1034 168Q1162 176 1198 176H1444V0H854V244Q1041 341 1131 479T1221 788Q1221 936 1167 1040T1012 1198T766 1253Q621 1253 518 1198T362 1040T309 788Q309 618 399 479T676 244V0H86V176H332Q372 176 500 168L539 166Q343 274 229 437T115 801Q115 996 193 1137T418 1354T766 1430Z" horiz-adv-x="1532" unicode="Ω"/>
			<glyph d="M618 1096Q769 1096 890 1027T1080 829T1149 530H322V174Q370 123 450 87T618 51Q760 51 850 108T1014 285L1085 244Q1030 157 971 97T825 1T618 -35Q452 -35 332 43T150 250T88 530Q88 717 165 844T363 1034T618 1096ZM616 1012Q522 1012 449 979T322 895V616H918V893Q871 940 792 976T616 1012Z" horiz-adv-x="1229" unicode="℮"/>
			<glyph d="M309 1409H438V663H623V563H84V663H299V1288L86 1157V1272ZM1241 1409H1387L508 0H361ZM1395 858Q1481 858 1539 828T1625 747T1653 631Q1653 553 1609 501T1483 436V432Q1580 424 1626 369T1673 236Q1673 118 1597 52T1389 -14Q1275 -14 1204 31T1104 152L1229 207Q1279 100 1387 100Q1532 100 1532 238Q1532 314 1476 341T1348 369H1303V487H1346Q1411 487 1461 518T1512 623Q1512 678 1479 709T1387 741Q1295 741 1233 643L1123 711Q1169 785 1240 821T1395 858Z" horiz-adv-x="1731" unicode="⅓"/>
			<glyph d="M346 1421Q419 1421 476 1394T565 1315T598 1188Q598 1134 576 1086T522 998T428 892L387 848L226 672H614V563H49V651L301 932Q364 1002 395 1041T441 1115T457 1188Q457 1244 425 1275T340 1306Q286 1306 237 1276T135 1188L49 1276Q107 1347 183 1384T346 1421ZM1241 1409H1387L508 0H361ZM1395 858Q1481 858 1539 828T1625 747T1653 631Q1653 553 1609 501T1483 436V432Q1580 424 1626 369T1673 236Q1673 118 1597 52T1389 -14Q1275 -14 1204 31T1104 152L1229 207Q1279 100 1387 100Q1532 100 1532 238Q1532 314 1476 341T1348 369H1303V487H1346Q1411 487 1461 518T1512 623Q1512 678 1479 709T1387 741Q1295 741 1233 643L1123 711Q1169 785 1240 821T1395 858Z" horiz-adv-x="1731" unicode="⅔"/>
			<glyph d="M309 1409H438V663H623V563H84V663H299V1288L86 1157V1272ZM1241 1409H1387L508 0H361ZM1393 858Q1525 858 1593 799T1661 637Q1661 568 1623 514T1522 446V444Q1593 429 1637 375T1682 227Q1682 115 1610 51T1397 -12Q1254 -12 1181 51T1108 225Q1108 320 1152 374T1264 442V444Q1201 461 1164 514T1127 637Q1127 741 1196 799T1393 858ZM1393 754Q1330 754 1300 719T1270 627Q1270 570 1298 533T1395 496Q1449 496 1476 514T1512 559T1520 627Q1520 684 1488 719T1393 754ZM1395 391Q1315 391 1282 351T1250 242Q1250 171 1286 131T1397 92Q1538 92 1538 246Q1538 310 1504 350T1395 391Z" horiz-adv-x="1731" unicode="⅛"/>
			<glyph d="M338 1421Q424 1421 482 1391T568 1310T596 1194Q596 1116 552 1064T426 999V995Q523 987 569 932T616 799Q616 681 540 615T332 549Q218 549 147 594T47 715L172 770Q222 663 330 663Q475 663 475 801Q475 877 419 904T291 932H246V1050H289Q354 1050 404 1081T455 1186Q455 1241 422 1272T330 1304Q238 1304 176 1206L66 1274Q112 1348 183 1384T338 1421ZM1200 1409H1346L467 0H320ZM1352 858Q1484 858 1552 799T1620 637Q1620 568 1582 514T1481 446V444Q1552 429 1596 375T1641 227Q1641 115 1569 51T1356 -12Q1213 -12 1140 51T1067 225Q1067 320 1111 374T1223 442V444Q1160 461 1123 514T1086 637Q1086 741 1155 799T1352 858ZM1352 754Q1289 754 1259 719T1229 627Q1229 570 1257 533T1354 496Q1408 496 1435 514T1471 559T1479 627Q1479 684 1447 719T1352 754ZM1354 391Q1274 391 1241 351T1209 242Q1209 171 1245 131T1356 92Q1497 92 1497 246Q1497 310 1463 350T1354 391Z" horiz-adv-x="1690" unicode="⅜"/>
			<glyph d="M109 1409H580V1298H226L209 1057Q237 1079 279 1093T375 1108Q495 1108 562 1036T629 842Q629 756 594 690T493 588T334 551Q228 551 159 594T61 713L180 762Q203 714 240 688T336 663Q407 663 447 709T487 837Q487 908 448 951T348 995Q304 995 272 980T213 936L80 1001ZM1200 1409H1346L467 0H320ZM1352 858Q1484 858 1552 799T1620 637Q1620 568 1582 514T1481 446V444Q1552 429 1596 375T1641 227Q1641 115 1569 51T1356 -12Q1213 -12 1140 51T1067 225Q1067 320 1111 374T1223 442V444Q1160 461 1123 514T1086 637Q1086 741 1155 799T1352 858ZM1352 754Q1289 754 1259 719T1229 627Q1229 570 1257 533T1354 496Q1408 496 1435 514T1471 559T1479 627Q1479 684 1447 719T1352 754ZM1354 391Q1274 391 1241 351T1209 242Q1209 171 1245 131T1356 92Q1497 92 1497 246Q1497 310 1463 350T1354 391Z" horiz-adv-x="1690" unicode="⅝"/>
			<glyph d="M53 1409H621V1294L309 563H168L499 1298H53ZM1077 1409H1223L344 0H197ZM1229 858Q1361 858 1429 799T1497 637Q1497 568 1459 514T1358 446V444Q1429 429 1473 375T1518 227Q1518 115 1446 51T1233 -12Q1090 -12 1017 51T944 225Q944 320 988 374T1100 442V444Q1037 461 1000 514T963 637Q963 741 1032 799T1229 858ZM1229 754Q1166 754 1136 719T1106 627Q1106 570 1134 533T1231 496Q1285 496 1312 514T1348 559T1356 627Q1356 684 1324 719T1229 754ZM1231 391Q1151 391 1118 351T1086 242Q1086 171 1122 131T1233 92Q1374 92 1374 246Q1374 310 1340 350T1231 391Z" horiz-adv-x="1567" unicode="⅞"/>
			<glyph d="M553 1477Q764 1477 859 1326T954 938Q954 844 941 733T905 528Q842 265 710 119T389 -27Q271 -27 196 25T88 163T55 356Q55 491 104 642T257 898T514 1004Q599 1004 666 960T764 842H768Q768 852 770 882Q772 916 772 938Q772 1125 706 1224T512 1323Q457 1323 396 1302T291 1247L328 1415Q376 1442 433 1459T553 1477ZM549 862Q450 862 381 779T279 579T246 358Q246 256 290 192T418 129Q502 129 570 207T682 412T743 680Q726 757 672 809T549 862Z" horiz-adv-x="1012" unicode="∂"/>
			<glyph d="M500 1409H719L1208 141V0H4V141ZM607 1254Q583 1167 524 1008L211 164H1004L690 1010Q650 1116 607 1254Z" horiz-adv-x="1212" unicode="∆"/>
			<glyph d="M236 1409H1452V-426H1268V1247H426V-426H236Z" horiz-adv-x="1686" unicode="∏"/>
			<glyph d="M170 1409H1260V1257H414L997 498L397 -274H1327V-426H154V-317L788 496L170 1303Z" horiz-adv-x="1460" unicode="∑"/>
			<glyph d="M100 754H1096V608H100Z" horiz-adv-x="1196" unicode="−"/>
			<glyph d="M412 1485H569L162 -20H0Z" horiz-adv-x="569" unicode="∕"/>
			<glyph d="M354 956Q431 956 496 919T599 820T637 682Q637 606 599 541T496 439T354 401Q281 401 218 439T119 541T82 682Q82 757 119 819T218 919T354 956Z" horiz-adv-x="717" unicode="∙"/>
			<glyph d="M1004 1620H1133L633 -14H526L244 778H61V895H332L573 205Z" horiz-adv-x="1124" unicode="√"/>
			<glyph d="M399 983Q508 983 585 921T729 721Q798 847 876 912T1065 977Q1155 977 1225 929T1333 793T1372 590Q1372 485 1333 396T1223 255T1063 203Q952 203 874 264T727 465Q660 340 581 274T399 209Q308 209 237 256T126 392T86 596Q86 704 125 792T236 932T399 983ZM416 852Q360 852 317 817T250 724T227 594Q227 524 249 466T314 374T418 340Q488 340 548 403T664 596Q614 725 553 788T416 852ZM1040 846Q970 846 910 783T795 590Q846 461 906 397T1042 334Q1098 334 1142 368T1210 462T1235 592Q1235 663 1210 721T1140 812T1040 846Z" horiz-adv-x="1460" unicode="∞"/>
			<glyph d="M528 1507Q564 1507 601 1502T659 1489V1321Q639 1332 608 1340T545 1348Q452 1348 412 1288T373 1135V-72Q373 -252 282 -339T37 -426Q1 -426 -37 -421T-98 -408V-240Q-36 -264 18 -264Q113 -264 151 -206T190 -51L188 1153Q188 1333 279 1420T528 1507Z" horiz-adv-x="561" unicode="∫"/>
			<glyph d="M319 1012Q390 1012 456 994T629 938Q753 893 823 893Q890 893 952 918T1067 987V838Q1005 793 947 775T809 758Q748 758 684 775T520 827Q387 872 303 872Q232 872 175 850T55 784V928Q109 967 176 989T319 1012ZM319 590Q390 590 459 572T629 518Q753 473 823 473Q889 473 951 497T1067 565V418Q1005 372 947 354T809 336Q748 336 682 353T520 406Q452 430 400 441T303 453Q232 453 175 431T55 365V506Q108 546 175 568T319 590Z" horiz-adv-x="1124" unicode="≈"/>
			<glyph d="M793 1296H936L782 1004H1061V856H711L518 492H1061V344H449L297 55H152L301 344H66V492H377L565 856H66V1004H639Z" horiz-adv-x="1124" unicode="≠"/>
			<glyph d="M1061 1231V1077L203 733L1061 389V236L66 631V836ZM63 145H1059V0H63Z" horiz-adv-x="1124" unicode="≤"/>
			<glyph d="M66 1231L1061 836V631L66 236V389L924 733L66 1077ZM66 145H1061V0H66Z" horiz-adv-x="1124" unicode="≥"/>
			<glyph d="M465 1440H547L1006 721L547 0H465L8 719ZM508 1286L154 721L508 147L860 721Z" horiz-adv-x="1012" unicode="◊"/>
			<glyph d="M-229 -84Q-180 -84 -152 -116T-124 -207Q-124 -270 -150 -322T-219 -430L-292 -377Q-271 -347 -257 -319T-239 -264Q-276 -258 -298 -233T-321 -172Q-321 -134 -295 -109T-229 -84Z" horiz-adv-x="0" unicode=""/>
			<glyph d="M129 1409H897V0H129ZM256 1282V129H768V1282Z" horiz-adv-x="1024" unicode=""/>
			<glyph d="M999 1485Q1074 1485 1137 1468L1120 1313Q1095 1318 1076 1320T1028 1323Q957 1323 931 1285T905 1161V1081H1137V930H905V0H725V930H365V0H184V930H39V1081H184V1180Q184 1310 247 1394T444 1479Q517 1479 580 1462L563 1307Q537 1312 520 1314T479 1317Q433 1317 408 1301T374 1250T365 1155V1081H725V1186Q725 1316 791 1400T999 1485Z" horiz-adv-x="1137" unicode="ﬀ"/>
			<glyph d="M461 1485Q539 1485 612 1468L596 1313Q564 1318 542 1320T483 1323Q412 1323 386 1285T360 1161V1081H600V930H360V0H180V930H39V1081H180V1186Q180 1323 248 1404T461 1485ZM839 1524Q890 1524 924 1489T958 1403Q958 1352 924 1317T839 1282Q787 1282 752 1316T718 1403Q718 1455 752 1489T839 1524ZM749 1081H929V0H749Z" horiz-adv-x="1067" unicode="ﬁ"/>
			<glyph d="M461 1485Q539 1485 612 1468L596 1313Q564 1318 542 1320T483 1323Q412 1323 386 1285T360 1161V1081H600V930H360V0H180V930H39V1081H180V1186Q180 1323 248 1404T461 1485ZM743 1485H923V289Q923 210 940 178T1001 147Q1024 147 1045 150T1099 162L1122 8Q1080 -4 1043 -10T960 -16Q743 -16 743 250Z" horiz-adv-x="1136" unicode="ﬂ"/>
			<glyph d="M999 1485Q1074 1485 1137 1468L1120 1313Q1095 1318 1076 1320T1028 1323Q957 1323 931 1285T905 1161V1081H1137V930H905V0H725V930H365V0H184V930H39V1081H184V1180Q184 1310 247 1394T444 1479Q517 1479 580 1462L563 1307Q537 1312 520 1314T479 1317Q433 1317 408 1301T374 1250T365 1155V1081H725V1186Q725 1316 791 1400T999 1485ZM1364 1524Q1415 1524 1449 1489T1483 1403Q1483 1352 1449 1317T1364 1282Q1312 1282 1277 1316T1243 1403Q1243 1455 1277 1489T1364 1524ZM1274 1081H1454V0H1274Z" horiz-adv-x="1592" unicode="ﬃ"/>
			<glyph d="M999 1485Q1074 1485 1137 1468L1120 1313Q1095 1318 1076 1320T1028 1323Q957 1323 931 1285T905 1161V1081H1137V930H905V0H725V930H365V0H184V930H39V1081H184V1180Q184 1310 247 1394T444 1479Q517 1479 580 1462L563 1307Q537 1312 520 1314T479 1317Q433 1317 408 1301T374 1250T365 1155V1081H725V1186Q725 1316 791 1400T999 1485ZM1268 1485H1448V289Q1448 210 1465 178T1526 147Q1549 147 1570 150T1624 162L1647 8Q1605 -4 1568 -10T1485 -16Q1268 -16 1268 250Z" horiz-adv-x="1661" unicode="ﬄ"/>
			<glyph d="" horiz-adv-x="0" unicode="﻿"/>
		</font>
</defs>
</svg>
